<svg width="56" height="56" viewBox="0 0 56 56" fill="none" xmlns="http://www.w3.org/2000/svg">
<rect width="56" height="56" fill="white"/>
<path opacity="0.4" d="M34.9987 9.33325H20.9987C14.5587 9.33325 9.33203 14.5599 9.33203 20.9999V34.9999C9.33203 41.4399 14.5587 46.6666 20.9987 46.6666H34.9987C41.4387 46.6666 46.6654 41.4399 46.6654 34.9999V20.9999C46.6654 14.5599 41.4387 9.33325 34.9987 9.33325ZM40.272 33.2732C40.272 37.1466 37.1454 40.2732 33.272 40.2732H22.7254C18.852 40.2732 15.7254 37.1466 15.7254 33.2732V22.7266C15.7254 18.8533 18.852 15.7266 22.7254 15.7266H33.2487C37.122 15.7266 40.2487 18.8533 40.2487 22.7266V33.2732H40.272Z" fill="#38C5EA"/>
<path d="M21.1406 6.41675V9.33341H21.0006C19.834 9.33341 18.714 9.49675 17.6406 9.82341V6.41675C17.6406 5.46008 18.4106 4.66675 19.3906 4.66675C20.3473 4.66675 21.1406 5.46008 21.1406 6.41675Z" fill="#38C5EA"/>
<path d="M38.3828 6.41675V9.82341C37.3095 9.49675 36.1661 9.33341 34.9995 9.33341H34.8828V6.41675C34.8828 5.46008 35.6761 4.66675 36.6328 4.66675C37.5895 4.66675 38.3828 5.46008 38.3828 6.41675Z" fill="#38C5EA"/>
<path d="M51.3324 19.3667C51.3324 20.3467 50.5624 21.1167 49.5824 21.1167H46.6658V21C46.6658 19.8334 46.5024 18.69 46.1758 17.6167H49.5824C50.5624 17.6167 51.3324 18.41 51.3324 19.3667Z" fill="#38C5EA"/>
<path d="M51.3324 36.6333C51.3324 37.59 50.5624 38.3833 49.5824 38.3833H46.1758C46.5024 37.31 46.6658 36.1666 46.6658 35V34.8833H49.5824C50.5624 34.8833 51.3324 35.6533 51.3324 36.6333Z" fill="#38C5EA"/>
<path d="M38.3828 46.1768V49.5834C38.3828 50.5401 37.5895 51.3334 36.6328 51.3334C35.6761 51.3334 34.8828 50.5401 34.8828 49.5834V46.6668H34.9995C36.1661 46.6668 37.3095 46.5034 38.3828 46.1768Z" fill="#38C5EA"/>
<path d="M21.1406 46.6668V49.5834C21.1406 50.5401 20.3473 51.3334 19.3906 51.3334C18.4106 51.3334 17.6406 50.5401 17.6406 49.5834V46.1768C18.714 46.5034 19.834 46.6668 21.0006 46.6668H21.1406Z" fill="#38C5EA"/>
<path d="M9.82464 17.6167C9.49797 18.69 9.33463 19.8334 9.33463 21V21.1167H6.41797C5.4613 21.1167 4.66797 20.3467 4.66797 19.3667C4.66797 18.41 5.4613 17.6167 6.41797 17.6167H9.82464Z" fill="#38C5EA"/>
<path d="M9.82464 38.3833H6.41797C5.4613 38.3833 4.66797 37.59 4.66797 36.6333C4.66797 35.6533 5.4613 34.8833 6.41797 34.8833H9.33463V35C9.33463 36.1666 9.49797 37.31 9.82464 38.3833Z" fill="#38C5EA"/>
<path d="M41 22.4215V33.5785C41 37.6851 37.6882 41 33.5856 41H22.4144C18.3118 41 15 37.6851 15 33.5785V22.4215C15 18.3149 18.3118 15 22.4144 15H33.5608C37.6635 15 41 18.3397 41 22.4215Z" fill="#AFE8F7"/>
<path d="M38 23.7088V32.2912C38 35.45 35.4525 38 32.2966 38H23.7034C20.5475 38 18 35.45 18 32.2912V23.7088C18 20.55 20.5475 18 23.7034 18H32.2776C35.4335 18 38 20.569 38 23.7088Z" fill="#38C5EA"/>
</svg>
