<svg width="56" height="56" viewBox="0 0 56 56" fill="none" xmlns="http://www.w3.org/2000/svg">
<path opacity="0.4" d="M44.8256 14.84C42.399 9.94003 37.709 6.32336 32.2723 5.13336C26.579 3.87336 20.7456 5.22669 16.289 8.82003C11.809 12.39 9.26562 17.7334 9.26562 23.45C9.26562 29.4934 12.8823 35.8167 18.3423 39.48V41.4167C18.319 42.07 18.2956 43.0734 19.089 43.89C19.9056 44.73 21.119 44.8234 22.0756 44.8234H34.0456C35.3056 44.8234 36.2623 44.4734 36.9156 43.82C37.8023 42.91 37.779 41.7434 37.7556 41.1134V39.48C44.989 34.6034 49.539 24.3134 44.8256 14.84Z" fill="#38C5EA"/>
<path d="M35.6087 51.333C35.4687 51.333 35.3053 51.3097 35.1653 51.263C30.4753 49.933 25.552 49.933 20.862 51.263C19.9987 51.4964 19.0887 51.0064 18.8553 50.143C18.5987 49.2797 19.112 48.3697 19.9753 48.1364C25.2487 46.643 30.802 46.643 36.0753 48.1364C36.9387 48.393 37.452 49.2797 37.1953 50.143C36.962 50.8664 36.3087 51.333 35.6087 51.333Z" fill="#38C5EA"/>
<rect x="26.5" y="12.0232" width="3" height="6" rx="1.5" fill="#38C5EA"/>
<rect x="26.5" y="28.0232" width="3" height="6" rx="1.5" fill="#38C5EA"/>
<rect x="36.7734" y="16.2241" width="3" height="6" rx="1.5" transform="rotate(60 36.7734 16.2241)" fill="#38C5EA"/>
<rect x="22.918" y="24.2241" width="3" height="6" rx="1.5" transform="rotate(60 22.918 24.2241)" fill="#38C5EA"/>
<rect x="38.2734" y="27.2241" width="3" height="6" rx="1.5" transform="rotate(120 38.2734 27.2241)" fill="#38C5EA"/>
<rect x="24.418" y="19.2241" width="3" height="6" rx="1.5" transform="rotate(120 24.418 19.2241)" fill="#38C5EA"/>
</svg>
