<svg width="56" height="56" viewBox="0 0 56 56" fill="none" xmlns="http://www.w3.org/2000/svg">
<path opacity="0.4" d="M40.9024 18.1301C40.7391 18.1068 40.5758 18.1068 40.4124 18.1301C36.7958 18.0134 33.9258 15.0501 33.9258 11.4101C33.9258 7.70008 36.9358 4.66675 40.6691 4.66675C44.3791 4.66675 47.4124 7.67675 47.4124 11.4101C47.3891 15.0501 44.5191 18.0134 40.9024 18.1301Z" fill="#38C5EA"/>
<path opacity="0.4" d="M48.5086 34.2997C46.4137 35.7025 43.644 36.4007 40.8847 36.3941C39.8723 36.3916 39.2807 35.3217 39.5728 34.3523C39.9895 32.969 40.2094 31.5029 40.2253 29.9831C40.2253 28.3998 39.9889 26.8702 39.5308 25.4454C39.215 24.4632 39.8023 23.3554 40.834 23.3505C43.6193 23.3374 46.3796 24.0355 48.4852 25.433C52.1719 27.8597 52.1719 31.8497 48.5086 34.2997Z" fill="#38C5EA"/>
<path opacity="0.4" d="M15.0256 18.1301C15.189 18.1068 15.3523 18.1068 15.5156 18.1301C19.1323 18.0134 22.0023 15.0501 22.0023 11.4101C22.0023 7.70008 18.9923 4.66675 15.259 4.66675C11.549 4.66675 8.51562 7.67675 8.51562 11.4101C8.53896 15.0501 11.409 18.0134 15.0256 18.1301Z" fill="#38C5EA"/>
<path opacity="0.4" d="M15.2846 29.9835C15.2846 31.5122 15.5081 32.9876 15.9264 34.3811C16.221 35.3627 15.6042 36.4396 14.5797 36.4126C11.9707 36.344 9.41203 35.6323 7.42125 34.3235C3.73458 31.8735 3.73458 27.8835 7.42125 25.4335C9.38902 24.1094 11.9946 23.4085 14.6324 23.3538C15.6687 23.3323 16.2798 24.4346 15.9694 25.4236C15.5201 26.8552 15.2846 28.3872 15.2846 29.9835Z" fill="#38C5EA"/>
<path d="M28.2792 37.03C28.0926 37.0067 27.8826 37.0067 27.6726 37.03C23.3792 36.89 19.9492 33.3667 19.9492 29.0267C19.9492 24.5933 23.5192 21 27.9759 21C32.4092 21 36.0026 24.5933 36.0026 29.0267C36.0026 33.3667 32.5959 36.89 28.2792 37.03Z" fill="#38C5EA"/>
<path d="M20.6972 41.8597C17.1739 44.2163 17.1739 48.0897 20.6972 50.423C24.7105 53.1063 31.2905 53.1063 35.3039 50.423C38.8272 48.0663 38.8272 44.193 35.3039 41.8597C31.3139 39.1763 24.7339 39.1763 20.6972 41.8597Z" fill="#38C5EA"/>
</svg>
