<svg width="56" height="56" viewBox="0 0 56 56" fill="none" xmlns="http://www.w3.org/2000/svg">
<path opacity="0.4" d="M23.332 8.75H26.2487V19.8333C26.2487 20.79 27.042 21.5833 27.9987 21.5833C28.9554 21.5833 29.7487 20.79 29.7487 19.8333V8.75H32.6654C33.622 8.75 34.4154 7.95667 34.4154 7C34.4154 6.04333 33.622 5.25 32.6654 5.25H23.332C22.3754 5.25 21.582 6.04333 21.582 7C21.582 7.95667 22.3754 8.75 23.332 8.75Z" fill="#38C5EA"/>
<path opacity="0.4" d="M32.6654 47.2501H29.7487V36.1667C29.7487 35.2101 28.9554 34.4167 27.9987 34.4167C27.042 34.4167 26.2487 35.2101 26.2487 36.1667V47.2501H23.332C22.3754 47.2501 21.582 48.0434 21.582 49.0001C21.582 49.9567 22.3754 50.7501 23.332 50.7501H32.6654C33.622 50.7501 34.4154 49.9567 34.4154 49.0001C34.4154 48.0434 33.622 47.2501 32.6654 47.2501Z" fill="#38C5EA"/>
<path opacity="0.4" d="M6.60259 23.0531C6.88259 23.2164 7.18593 23.2864 7.46593 23.2864C8.07259 23.2864 8.65592 22.9831 8.98259 22.3998L10.4526 19.8798L20.0659 25.4331C20.3226 25.5964 20.6259 25.6664 20.9293 25.6664C21.5359 25.6664 22.1193 25.3631 22.4459 24.7798C22.9359 23.9398 22.6326 22.8664 21.8159 22.3998L12.2259 16.8464L13.6726 14.3264C14.1626 13.4864 13.8593 12.4131 13.0426 11.9464C12.2026 11.4564 11.1293 11.7364 10.6626 12.5764L5.99592 20.6498C5.48259 21.5131 5.76259 22.5631 6.60259 23.0531Z" fill="#38C5EA"/>
<path opacity="0.4" d="M49.3957 32.9466C48.5557 32.4566 47.4824 32.7366 47.0157 33.5766L45.5457 36.0966L35.9324 30.5666C35.0924 30.0766 34.0191 30.3799 33.5524 31.1966C33.0624 32.0366 33.3657 33.1099 34.1824 33.5766L43.7724 39.1299L42.3257 41.6499C41.8357 42.4899 42.1391 43.5632 42.9557 44.0299C43.2357 44.1932 43.5391 44.2632 43.8191 44.2632C44.4257 44.2632 45.0091 43.9599 45.3357 43.3766L50.0024 35.3032C50.5157 34.4866 50.2357 33.4366 49.3957 32.9466Z" fill="#38C5EA"/>
<path opacity="0.4" d="M43.797 16.8465L34.207 22.3999C33.367 22.8899 33.087 23.9632 33.577 24.7799C33.9037 25.3399 34.487 25.6665 35.0937 25.6665C35.397 25.6665 35.7004 25.5965 35.957 25.4332L45.547 19.8799L47.017 22.3999C47.3437 22.9599 47.927 23.2865 48.5337 23.2865C48.837 23.2865 49.1404 23.2165 49.397 23.0532C50.237 22.5632 50.517 21.4899 50.027 20.6732L45.3604 12.5999C44.8704 11.7599 43.797 11.4799 42.9804 11.9699C42.1404 12.4599 41.8604 13.5332 42.3504 14.3499L43.797 16.8465Z" fill="#38C5EA"/>
<path opacity="0.4" d="M12.2016 39.1531L21.7916 33.5997C22.6316 33.1097 22.9116 32.0364 22.4216 31.2197C21.9316 30.3797 20.8582 30.0997 20.0416 30.5897L10.4516 36.1431L8.98158 33.6231C8.49158 32.7831 7.41825 32.5031 6.60158 32.9931C5.76158 33.4831 5.48158 34.5564 5.97158 35.3731L10.6382 43.4464C10.9649 44.0064 11.5482 44.3331 12.1549 44.3331C12.4582 44.3331 12.7616 44.2631 13.0182 44.0997C13.8582 43.6097 14.1382 42.5364 13.6482 41.7197L12.2016 39.1531Z" fill="#38C5EA"/>
<path d="M36.1654 27.9999C36.1654 29.4933 35.7687 30.8699 35.0687 32.0833C33.6454 34.5333 31.0087 36.1666 27.9987 36.1666C24.9887 36.1666 22.352 34.5333 20.9287 32.0833C20.2287 30.8699 19.832 29.4933 19.832 27.9999C19.832 26.5066 20.2287 25.1299 20.9287 23.9166C22.352 21.4666 24.9887 19.8333 27.9987 19.8333C31.0087 19.8333 33.6454 21.4666 35.0687 23.9166C35.7687 25.1299 36.1654 26.5066 36.1654 27.9999Z" fill="#38C5EA"/>
</svg>
