<svg xmlns="http://www.w3.org/2000/svg" xmlns:xlink="http://www.w3.org/1999/xlink" viewBox="0 0 1589.26 1944.8"><defs><style>.cls-1{fill:none;}.cls-2{isolation:isolate;}.cls-3,.cls-50,.cls-59{mix-blend-mode:multiply;}.cls-3{fill:url(#linear-gradient);}.cls-4{fill:#6885a5;}.cls-5{fill:url(#linear-gradient-2);}.cls-6{fill:url(#linear-gradient-3);}.cls-7{fill:url(#linear-gradient-4);}.cls-21,.cls-22,.cls-76,.cls-8{opacity:0.3;}.cls-14,.cls-15,.cls-17,.cls-21,.cls-22,.cls-24,.cls-26,.cls-27,.cls-32,.cls-40,.cls-44,.cls-52,.cls-53,.cls-54,.cls-58,.cls-76,.cls-8{mix-blend-mode:overlay;}.cls-9{fill:url(#linear-gradient-5);}.cls-10{fill:url(#linear-gradient-6);}.cls-11{fill:url(#linear-gradient-7);}.cls-12{fill:url(#linear-gradient-8);}.cls-13{fill:url(#linear-gradient-9);}.cls-14,.cls-24,.cls-26,.cls-27,.cls-32{opacity:0.1;}.cls-15{opacity:0.2;}.cls-16,.cls-17{fill:url(#linear-gradient-10);}.cls-17,.cls-44{opacity:0.4;}.cls-18{fill:url(#linear-gradient-12);}.cls-19{clip-path:url(#clip-path);}.cls-20{fill:url(#linear-gradient-13);}.cls-21{fill:url(#linear-gradient-14);}.cls-22{fill:url(#linear-gradient-15);}.cls-23,.cls-24{fill:url(#linear-gradient-16);}.cls-25,.cls-26{fill:url(#linear-gradient-18);}.cls-27{fill:url(#linear-gradient-20);}.cls-28{fill:url(#linear-gradient-21);}.cls-29{fill:#ffbd99;}.cls-30{fill:url(#linear-gradient-22);}.cls-31{fill:url(#linear-gradient-23);}.cls-32{fill:url(#linear-gradient-24);}.cls-33{fill:url(#linear-gradient-25);}.cls-34{fill:url(#linear-gradient-26);}.cls-35{fill:url(#linear-gradient-27);}.cls-36{fill:url(#linear-gradient-28);}.cls-37{fill:url(#linear-gradient-29);}.cls-38{fill:url(#linear-gradient-30);}.cls-39,.cls-40{fill:url(#linear-gradient-31);}.cls-41{fill:url(#linear-gradient-33);}.cls-42{fill:#ff8879;}.cls-43{fill:url(#linear-gradient-34);}.cls-45{fill:url(#linear-gradient-35);}.cls-46{fill:url(#linear-gradient-36);}.cls-47{fill:url(#linear-gradient-37);}.cls-48{fill:url(#linear-gradient-38);}.cls-49{fill:#fff;opacity:0.7;}.cls-50{fill:url(#linear-gradient-39);}.cls-51{fill:#cfe4ef;}.cls-53{opacity:0.5;}.cls-54{opacity:0.6;}.cls-55{fill:url(#linear-gradient-40);}.cls-56{fill:url(#linear-gradient-41);}.cls-57{fill:url(#linear-gradient-42);}.cls-58{opacity:0.15;}.cls-59{fill:url(#linear-gradient-43);}.cls-60{fill:#315271;}.cls-61{fill:url(#linear-gradient-44);}.cls-62{fill:url(#linear-gradient-45);}.cls-63{fill:url(#linear-gradient-46);}.cls-64{fill:url(#linear-gradient-47);}.cls-65{fill:#ffd762;}.cls-66{fill:url(#linear-gradient-48);}.cls-67{fill:url(#linear-gradient-49);}.cls-68{fill:url(#linear-gradient-50);}.cls-69{fill:url(#linear-gradient-51);}.cls-70{fill:url(#linear-gradient-52);}.cls-71{fill:url(#linear-gradient-53);}.cls-72{fill:url(#linear-gradient-54);}.cls-73{fill:url(#linear-gradient-55);}.cls-74{fill:#ededef;}.cls-75{fill:url(#linear-gradient-56);}.cls-76{fill:url(#linear-gradient-57);}.cls-77{fill:url(#linear-gradient-58);}.cls-78{fill:url(#linear-gradient-59);}</style><linearGradient id="linear-gradient" x1="645.8" y1="1304.56" x2="1555.19" y2="1304.56" gradientUnits="userSpaceOnUse"><stop offset="0" stop-color="#eef6fb" stop-opacity="0"/><stop offset="0.23" stop-color="#daebf6" stop-opacity="0.21"/><stop offset="0.48" stop-color="#c6e0f2" stop-opacity="0.42"/><stop offset="0.7" stop-color="#b7d8ef" stop-opacity="0.57"/><stop offset="0.88" stop-color="#aed3ed" stop-opacity="0.67"/><stop offset="1" stop-color="#abd1ec" stop-opacity="0.7"/></linearGradient><linearGradient id="linear-gradient-2" x1="628.1" y1="801.94" x2="1216.24" y2="801.94" gradientUnits="userSpaceOnUse"><stop offset="0.05" stop-color="#14416a"/><stop offset="1" stop-color="#004f98"/></linearGradient><linearGradient id="linear-gradient-3" x1="628.1" y1="813.21" x2="1178.09" y2="813.21" xlink:href="#linear-gradient-2"/><linearGradient id="linear-gradient-4" x1="627.31" y1="818.08" x2="1162.03" y2="818.08" gradientUnits="userSpaceOnUse"><stop offset="0" stop-color="#0984bd"/><stop offset="1" stop-color="#56a5d7"/></linearGradient><linearGradient id="linear-gradient-5" x1="646.39" y1="832.71" x2="1142.95" y2="832.71" gradientUnits="userSpaceOnUse"><stop offset="0" stop-color="#abd1ec"/><stop offset="0.57" stop-color="#eef6fb"/></linearGradient><linearGradient id="linear-gradient-6" x1="646.39" y1="1178.6" x2="1113.1" y2="1178.6" xlink:href="#linear-gradient-4"/><linearGradient id="linear-gradient-7" x1="646.39" y1="593.56" x2="1036.09" y2="593.56" xlink:href="#linear-gradient-2"/><linearGradient id="linear-gradient-8" x1="1193.7" y1="590.83" x2="1221.71" y2="590.83" xlink:href="#linear-gradient-4"/><linearGradient id="linear-gradient-9" x1="1201.2" y1="593" x2="1221.71" y2="593" xlink:href="#linear-gradient-2"/><linearGradient id="linear-gradient-10" x1="535.41" y1="616.65" x2="990.64" y2="616.65" xlink:href="#linear-gradient-4"/><linearGradient id="linear-gradient-12" x1="525.47" y1="621.01" x2="979.38" y2="621.01" xlink:href="#linear-gradient-4"/><clipPath id="clip-path"><path class="cls-1" d="M979.38,1069.2c0,21.53-15.11,30.23-33.79,19.44L559.22,865.58c-18.63-10.76-33.75-36.93-33.75-58.42l0-634.36c0-21.5,15.1-30.2,33.75-19.44l386.37,223.1c18.66,10.73,33.79,36.9,33.77,58.4Z"/></clipPath><linearGradient id="linear-gradient-13" x1="378.27" y1="1382.36" x2="535.08" y2="1382.36" gradientUnits="userSpaceOnUse"><stop offset="0" stop-color="#f57454"/><stop offset="1" stop-color="#f7947c"/></linearGradient><linearGradient id="linear-gradient-14" x1="391.67" y1="1382.36" x2="535.08" y2="1382.36" xlink:href="#linear-gradient-13"/><linearGradient id="linear-gradient-15" x1="391.54" y1="1435.08" x2="445.07" y2="1435.08" xlink:href="#linear-gradient-13"/><linearGradient id="linear-gradient-16" x1="418.04" y1="1195.85" x2="657.52" y2="1195.85" xlink:href="#linear-gradient-13"/><linearGradient id="linear-gradient-18" x1="540.59" y1="964.11" x2="685.43" y2="964.11" xlink:href="#linear-gradient-13"/><linearGradient id="linear-gradient-20" x1="439.91" y1="1050.04" x2="685.44" y2="1050.04" xlink:href="#linear-gradient-13"/><linearGradient id="linear-gradient-21" x1="561.92" y1="1041.5" x2="975.84" y2="1041.5" xlink:href="#linear-gradient-13"/><linearGradient id="linear-gradient-22" x1="836.49" y1="1295.31" x2="1013.79" y2="1295.31" xlink:href="#linear-gradient-13"/><linearGradient id="linear-gradient-23" x1="858.55" y1="1052.46" x2="1014.52" y2="1052.46" xlink:href="#linear-gradient-13"/><linearGradient id="linear-gradient-24" x1="864.92" y1="1149.81" x2="1014.51" y2="1149.81" xlink:href="#linear-gradient-13"/><linearGradient id="linear-gradient-25" x1="679.32" y1="692.45" x2="854.92" y2="692.45" gradientUnits="userSpaceOnUse"><stop offset="0" stop-color="#ffaa90"/><stop offset="0.6" stop-color="#ffd5c5"/></linearGradient><linearGradient id="linear-gradient-26" x1="753.95" y1="672.61" x2="854.92" y2="672.61" xlink:href="#linear-gradient-25"/><linearGradient id="linear-gradient-27" x1="658.56" y1="590.64" x2="861.9" y2="590.64" xlink:href="#linear-gradient-25"/><linearGradient id="linear-gradient-28" x1="680" y1="602.11" x2="861.9" y2="602.11" xlink:href="#linear-gradient-25"/><linearGradient id="linear-gradient-29" x1="647.86" y1="557.26" x2="883.47" y2="557.26" xlink:href="#linear-gradient-2"/><linearGradient id="linear-gradient-30" x1="702.28" y1="557.27" x2="883.47" y2="557.27" xlink:href="#linear-gradient-2"/><linearGradient id="linear-gradient-31" x1="482.02" y1="652.79" x2="929.01" y2="652.79" xlink:href="#linear-gradient-5"/><linearGradient id="linear-gradient-33" x1="482.02" y1="659.28" x2="906.51" y2="659.28" xlink:href="#linear-gradient-5"/><linearGradient id="linear-gradient-34" x1="329.27" y1="1021.09" x2="839.66" y2="1021.09" xlink:href="#linear-gradient-13"/><linearGradient id="linear-gradient-35" x1="832.04" y1="1288.86" x2="1051.51" y2="1288.86" xlink:href="#linear-gradient-13"/><linearGradient id="linear-gradient-36" x1="322.54" y1="1093.67" x2="832.04" y2="1093.67" gradientUnits="userSpaceOnUse"><stop offset="0" stop-color="#fab371"/><stop offset="1" stop-color="#fcd5b0"/></linearGradient><linearGradient id="linear-gradient-37" x1="832.04" y1="1291.82" x2="1043.88" y2="1291.82" xlink:href="#linear-gradient-36"/><linearGradient id="linear-gradient-38" x1="364.32" y1="1149.68" x2="999.3" y2="1149.68" xlink:href="#linear-gradient-13"/><linearGradient id="linear-gradient-39" x1="309.59" y1="1754.03" x2="911.45" y2="1754.03" xlink:href="#linear-gradient"/><linearGradient id="linear-gradient-40" x1="575.81" y1="1680.87" x2="911.44" y2="1680.87" xlink:href="#linear-gradient-4"/><linearGradient id="linear-gradient-41" x1="575.81" y1="1729.31" x2="911.44" y2="1729.31" xlink:href="#linear-gradient-2"/><linearGradient id="linear-gradient-42" x1="736.21" y1="1679.23" x2="840.88" y2="1679.23" xlink:href="#linear-gradient-2"/><linearGradient id="linear-gradient-43" x1="34.07" y1="1742.7" x2="501.25" y2="1742.7" xlink:href="#linear-gradient"/><linearGradient id="linear-gradient-44" x1="113.65" y1="1409.47" x2="269.72" y2="1409.47" xlink:href="#linear-gradient-2"/><linearGradient id="linear-gradient-45" x1="158.87" y1="1417.77" x2="339.3" y2="1417.77" xlink:href="#linear-gradient-2"/><linearGradient id="linear-gradient-46" x1="184.68" y1="1428.08" x2="370.34" y2="1428.08" xlink:href="#linear-gradient-2"/><linearGradient id="linear-gradient-47" x1="190.29" y1="1431.76" x2="370.34" y2="1431.76" xlink:href="#linear-gradient-2"/><linearGradient id="linear-gradient-48" x1="62.38" y1="853.27" x2="160.52" y2="853.27" xlink:href="#linear-gradient-13"/><linearGradient id="linear-gradient-49" x1="146.51" y1="679.15" x2="290.72" y2="679.15" xlink:href="#linear-gradient-25"/><linearGradient id="linear-gradient-50" x1="194.13" y1="639.09" x2="299.76" y2="639.09" xlink:href="#linear-gradient-25"/><linearGradient id="linear-gradient-51" x1="246.41" y1="638.38" x2="299.76" y2="638.38" xlink:href="#linear-gradient-25"/><linearGradient id="linear-gradient-52" x1="140.25" y1="584.74" x2="289.18" y2="584.74" xlink:href="#linear-gradient-2"/><linearGradient id="linear-gradient-53" x1="146.24" y1="584.74" x2="289.18" y2="584.74" xlink:href="#linear-gradient-2"/><linearGradient id="linear-gradient-54" x1="75.7" y1="930.34" x2="448.71" y2="930.34" xlink:href="#linear-gradient-13"/><linearGradient id="linear-gradient-55" x1="86.61" y1="929.66" x2="448.71" y2="929.66" xlink:href="#linear-gradient-13"/><linearGradient id="linear-gradient-56" x1="534.53" y1="679.21" x2="625.91" y2="679.21" xlink:href="#linear-gradient-25"/><linearGradient id="linear-gradient-57" x1="549.05" y1="695.23" x2="625.91" y2="695.23" xlink:href="#linear-gradient-25"/><linearGradient id="linear-gradient-58" x1="290.72" y1="794.31" x2="598.37" y2="794.31" xlink:href="#linear-gradient-13"/><linearGradient id="linear-gradient-59" x1="294.12" y1="801.14" x2="598.34" y2="801.14" xlink:href="#linear-gradient-13"/></defs><g class="cls-2"><g id="_Layer_" data-name="&lt;Layer&gt;"><path class="cls-3" d="M667.27,1236.56c-31.92,18.42-27.78,55.47,9.27,82.74l349.36,257.15c37.06,27.25,93,34.44,124.89,16l382.93-219.89c31.92-18.42,27.77-55.47-9.28-82.74l-349.36-257.13c-37.06-27.28-92.95-34.44-124.88-16Z"/><path class="cls-4" d="M666.78,29.1c-22,12.68-36,31.71-37,47.76a87.06,87.06,0,0,0-1.64,17.23v1120.7c0,48.61,34.15,107.72,76.28,132l397.39,229.43a84.69,84.69,0,0,0,16.66,7.46c14.52,6.14,37.06,3.25,58.2-9a89.36,89.36,0,0,0,26.34-22.58c8.35-9.29,13.25-23.52,13.27-41.88l0-1120.7c0-48.6-34.16-107.72-76.29-132.06L742.54,28.12a85,85,0,0,0-16-7.24C712.15,13.8,688.7,16.45,666.78,29.1Z"/><path class="cls-5" d="M666.78,29.1c-22,12.68-36,31.71-37,47.76a87.06,87.06,0,0,0-1.64,17.23v1120.7c0,48.61,34.15,107.72,76.28,132l397.39,229.43a84.69,84.69,0,0,0,16.66,7.46c14.52,6.14,37.06,3.25,58.2-9a89.36,89.36,0,0,0,26.34-22.58c8.35-9.29,13.25-23.52,13.27-41.88l0-1120.7c0-48.6-34.16-107.72-76.29-132.06L742.54,28.12a85,85,0,0,0-16-7.24C712.15,13.8,688.7,16.45,666.78,29.1Z"/><path class="cls-4" d="M1178.09,1532.33c0,48.59-34.18,68.27-76.32,43.94L704.38,1346.84c-42.13-24.33-76.3-83.44-76.28-132V94.09c0-48.57,34.15-68.28,76.29-43.94l397.38,229.44c42.14,24.32,76.3,83.44,76.3,132Z"/><path class="cls-6" d="M1178.09,1532.33c0,48.59-34.18,68.27-76.32,43.94L704.38,1346.84c-42.13-24.33-76.3-83.44-76.28-132V94.09c0-48.57,34.15-68.28,76.29-43.94l397.38,229.44c42.14,24.32,76.3,83.44,76.3,132Z"/><path class="cls-7" d="M627.32,103.38V1224.06c0,43.68,30.79,97,68.68,118.86l397.37,229.43c37.86,21.84,68.65,4.1,68.65-39.57l0-1120.7c0-43.67-30.81-97-68.66-118.83L696,63.81C658.1,42,627.31,59.7,627.32,103.38Z"/><path class="cls-8" d="M1090.19,1375.54c12.66,7.3,22.89,1.42,22.91-13.17l0-88c0-14.6-10.24-32.33-22.89-39.63l-188.94-109.1L627.31,967.5v140.81l273.94,158.15Z"/><path class="cls-8" d="M1036.09,1030.65V396.32c0-21.5-15.1-47.67-33.75-58.41l-375-216.53V833.61l375,216.49C1021,1060.89,1036.09,1052.18,1036.09,1030.65Z"/><path class="cls-9" d="M1093.35,344.51,1060,325.25c-6.76-3.9-323.92-187-330.69-190.94L696,115.07c-27.32-15.77-49.58-3-49.57,28.58V1235.07c0,31.55,22.23,70,49.58,85.84l397.37,229.42c27.34,15.8,49.59,3,49.61-28.55V430.34C1142.93,398.79,1120.7,360.29,1093.35,344.51Z"/><path class="cls-10" d="M1090.19,1375.54c12.66,7.3,22.89,1.42,22.91-13.17l0-88c0-14.6-10.24-32.33-22.89-39.63l-188.94-109.1L646.39,978.51v140.81l254.86,147.14Z"/><path class="cls-11" d="M1036.09,1030.65V396.32c0-21.5-15.1-47.67-33.75-58.41L646.4,132.39V844.62l355.92,205.48C1021,1060.89,1036.09,1052.18,1036.09,1030.65Z"/><path class="cls-12" d="M1196.7,658.09l7.49,4.33c1.85,1.06,4.44.93,7.27-.72,5.65-3.28,10.23-11.2,10.25-17.75l0-113.76c0-3.26-1.15-5.57-3-6.63l-7.5-4.34h0l-.16-.07,0,0c-1.81-1-4.32-.8-7.08.79-5.64,3.26-10.23,11.2-10.23,17.75V651.45c0,3.17,1.08,5.43,2.85,6.52l0,0,.16.09Z"/><path class="cls-13" d="M1201.2,655.79c0,6.54,4.57,9.18,10.26,5.91h0c5.65-3.28,10.23-11.2,10.25-17.75l0-113.76c0-6.53-4.58-9.17-10.23-5.89h0c-5.67,3.27-10.27,11.19-10.25,17.74Z"/><path class="cls-14" d="M769.93,49.85c-7.77-4.51-20.39-4.5-28.14,0s-7.76,11.77,0,16.26,20.39,4.5,28.16,0S777.72,54.33,769.93,49.85ZM766.29,65.4c-5.75,3.32-15.09,3.31-20.84,0s-5.76-8.74,0-12,15.08-3.32,20.83,0S772.05,62.08,766.29,65.4Z"/><path class="cls-15" d="M745.45,53.36c5.73-3.32,15.08-3.32,20.83,0s5.77,8.7,0,12-15.09,3.31-20.84,0S739.69,56.67,745.45,53.36Z"/><path class="cls-16" d="M559.24,153.36l386.37,223.1c18.66,10.73,33.79,36.9,33.77,58.4V1069.2c0,10.77-3.77,18.33-9.9,21.85l11-6.34,0-.06c6.3-3.42,10.23-11,10.23-21.94V428.36c0-21.5-15.1-47.65-33.78-58.4L570.48,146.87c-9.33-5.39-17.79-5.9-23.9-2.34L535.41,151C541.5,147.47,549.93,148,559.24,153.36Z"/><path class="cls-17" d="M559.24,153.36l386.37,223.1c18.66,10.73,33.79,36.9,33.77,58.4V1069.2c0,10.77-3.77,18.33-9.9,21.85l11-6.34,0-.06c6.3-3.42,10.23-11,10.23-21.94V428.36c0-21.5-15.1-47.65-33.78-58.4L570.48,146.87c-9.33-5.39-17.79-5.9-23.9-2.34L535.41,151C541.5,147.47,549.93,148,559.24,153.36Z"/><path class="cls-18" d="M979.38,1069.2c0,21.53-15.11,30.23-33.79,19.44L559.22,865.58c-18.63-10.76-33.75-36.93-33.75-58.42l0-634.36c0-21.5,15.1-30.2,33.75-19.44l386.37,223.1c18.66,10.73,33.79,36.9,33.77,58.4Z"/><g class="cls-19"><path class="cls-20" d="M451.32,1297.7c-11.28,20.89-33,45.26-59.52,85.37-11.3,17-15.09,39.18-13,58.51s4.29,24.21,12.36,36.09,11.23,18,15.93,17.73,8.05-7,8.05-7,3.15,9.83,11,9.4,7.7-12.26,7.7-12.26,6.06,2.38,10.14-2.16-1.91-15.37-1.91-15.37,7.39.57,6.89-7.74-9.64-22.06-8.33-31.38-3.83-7.13,7.71-21.4,26.08-31.69,30.34-49.06-.4-16.76,11.91-30.89c97.17-111.93,6.42-32.43-4.8-42.41S463.19,1275.79,451.32,1297.7Z"/><path class="cls-21" d="M395.06,1421.13c2.5-24.79,27.89-43.24,46.35-71.69,12-18.36,29.8-40.59,49.75-63.75,21.81-4.35,87.15-59.18-.53,41.81-12.31,14.13-7.62,13.55-11.91,30.89s-18.79,34.75-30.34,49.06-6.38,12.18-7.71,21.4,7.88,23,8.33,31.38-6.89,7.74-6.89,7.74,6,10.82,1.91,15.37-10.14,2.16-10.14,2.16.17,11.81-7.7,12.26-11-9.4-11-9.4a18.81,18.81,0,0,1-4.31,5.37C383.65,1459.64,392.58,1445.87,395.06,1421.13Z"/><path class="cls-22" d="M411.78,1475.2c-9.18,9.94-13.82,6.52-17.5,2.29s.32-10.85,1-12.53-2.16-3.7-3.35-9,1-7,.77-13,1.4-19.29,4.53-25.18,6.62-17.75,8.57-24.91,4.68-5,6,4.06-5,17.88-12.35,37-9,26,.69,30.15,22.06-18.6,25.38-28.75,10.87-12.45,19.57-23.62h0c-7.14,9.7-3.24,9-4.4,17.19a22.73,22.73,0,0,0,1.07,8.94c-4.79,4.92-9.8,9.58-14,13.11C418,1459.08,420.93,1465.21,411.78,1475.2Z"/><path class="cls-23" d="M539.2,1066.91l-121,273.21c-3.45,31.42,44.39,50.71,61.59,33,36.25-37.48,160.26-210.37,175.44-290.62C673.73,984.73,574.2,997.12,539.2,1066.91Z"/><path class="cls-24" d="M539.2,1066.91l-121,273.21c-3.45,31.42,44.39,50.71,61.59,33,36.25-37.48,160.26-210.37,175.44-290.62C673.73,984.73,574.2,997.12,539.2,1066.91Z"/><path class="cls-25" d="M677.66,741.14c21.11,39.43-4.87,318.7-29.49,359.16-8.43,13.85-47,111-65.1,107.56-7-1.33-14.52-3.94-20.08-9.5-30.46-30.35-20.76-207-21.48-277.29-.65-66.36,15.18-180.75,94.73-199.61C652.81,717.58,667.91,722.88,677.66,741.14Z"/><path class="cls-26" d="M677.66,741.14c21.11,39.43-4.87,318.7-29.49,359.16-8.43,13.85-47,111-65.1,107.56-7-1.33-14.52-3.94-20.08-9.5-30.46-30.35-20.76-207-21.48-277.29-.65-66.36,15.18-180.75,94.73-199.61C652.81,717.58,667.91,722.88,677.66,741.14Z"/><path class="cls-27" d="M608.12,1091.64v0c22.08-74,41.52-305.65,22.4-341.29-3.45-6.49-6.8-15.07-10.38-23.24a89.22,89.22,0,0,1,16.1-5.63c16.57-3.88,31.67,1.42,41.42,19.68,19.11,35.65-.33,267.28-22.41,341.29v0c-15.18,80.25-139.19,253.14-175.44,290.62-8.88,9.19-25.93,8.4-39.9,1.24C483.09,1324.85,593.83,1167.2,608.12,1091.64Z"/><path class="cls-8" d="M585,1278.39l8-13.81c10.79-1.12,7.31-8.52,18.58-8.52,106.6,0,189.19-104.52,202.09,76.54L919,1314.5l-.46,40c-12.33,9.72-27.68,16.81-44.64,20.61C798,1392.17,604.26,1362.67,585,1278.39Z"/><path class="cls-28" d="M561.92,839.87c0-50.78,12-83.68,33.22-102,54.5-47,187.14-5.65,249,15.39,28,9.51,55.48,20.77,78.1,33.66,29.34,16.68,53.61,37.7,53.64,71.91l-34,205.28c.12,107.07,20.76,112.16,6.67,218.25.08,40.76-32.44,70.26-74.64,79.75-79.87,18-290.54-15.59-290.54-110.42,0-57,6.75-117.1,4.75-163.32-6-138.64-26.17-156.44-26.17-248.46Z"/><path class="cls-14" d="M832.31,1240.52c-6-138.66,0-154.28,0-246.3,0-50.78,12-83.67,33.22-102,16.88-14.54,41.24-20.59,68.68-21.43-5.56-26.12-21.45-49.15-44.87-62.46-22.62-12.89-50.08-24.16-78.1-33.66C757.69,756.41,651.05,723.06,588.07,745a72.28,72.28,0,0,1,7.07-7.14c54.5-47,187.14-5.65,249,15.39,28,9.51,55.48,20.77,78.1,33.66,29.34,16.68,53.61,37.7,53.64,71.91l-34,205.28c.12,107.07,20.76,112.16,6.67,218.25.08,40.76-32.44,70.26-74.64,79.75-5.74,1.3-33.5,2.3-40.46,3C835.2,1321.26,833.83,1275.78,832.31,1240.52Z"/><path class="cls-29" d="M860.17,1408.57c-10.25,20.94-18.94,57.7-31.57,64.12-21.18,10.75-11.8,5.52-22,12.62a94.83,94.83,0,0,0-28,29c-8.86,14-23.78,23.62-19.5,30.94s13.24,2.4,17.44.75,22.71-20.7,24.27-20,.63,12.25-.08,21.44S797.41,1567,793.7,1576s-16.88,43.63-12,48.74,12.62-2.77,12.62-2.77,3.63,10.79,15.47.37a221.9,221.9,0,0,0,19.61-19.2s6.27,1.62,14.1-6.57,7.17-9.67,7.17-9.67,6.78,2,20.53-19.09,17-68,29.72-84.73c13.16-17.32,21-30.47,25.46-42.61S872.62,1383.17,860.17,1408.57Z"/><path class="cls-8" d="M926.18,1440.56c-4.48,12.13-12.33,25.28-25.47,42.62-12.74,16.75-15.86,63.59-29.75,84.75s-20.51,19-20.51,19,.66,1.5-7.17,9.72-14.12,6.52-14.12,6.52a217.08,217.08,0,0,1-19.58,19.2c-11.81,10.42-15.47-.32-15.47-.32s-.68.63-1.7,1.44c18.61-18.65,36.67-49.81,48.12-60.53,16.44-15.45,20.88-55.91,34.33-88.19,6.89-16.66,16.28-37.5,27.65-64.72C916.28,1418.93,928.57,1434.06,926.18,1440.56Z"/><path class="cls-30" d="M897.05,1169.3l-60.56,292.6c3.25,31.43,54.09,40.19,67.16,19.22,27.54-44.28,112.21-239.48,110.1-321.13C1011.16,1060.58,916.51,1093.7,897.05,1169.3Z"/><path class="cls-31" d="M963.57,821.65c29,34.09,62.54,312.53,47,357.26-5.3,15.34-22.48,118.37-40.91,118.89-7.08.17-15-.79-21.65-5-36.17-23.25-64-198-79.55-266.53-14.66-64.71-23.34-179.86,50.44-215.08C934.31,803.86,950.17,805.87,963.57,821.65Z"/><path class="cls-32" d="M969.61,1178.91h0c6-77-24-307.5-50.17-338.33-4.74-5.61-9.83-13.27-15.08-20.52a89,89,0,0,1,14.57-8.89c15.38-7.31,31.24-5.3,44.64,10.48,26.2,30.82,56.12,261.33,50.18,338.34h0c2.11,81.65-82.56,276.85-110.1,321.13-6.75,10.82-23.58,13.7-38.73,9.62C896.67,1433.3,971.62,1255.8,969.61,1178.91Z"/><path class="cls-33" d="M854.92,758a44.74,44.74,0,0,1-6.55,6.95c-16.22,12.46-84,67.92-131.32,51.35-65.76-23-28.55-74.19-14.29-94.7-2.84-.42-5.53-.74-8.25-1.06,9-11.15,14.42-30.77,14.42-70.52,0-53.93,40.2-86.29,72.56-84.31s73.45,19,64.11,64.37C839.36,660.32,824.23,728.84,854.92,758Z"/><path class="cls-34" d="M854.92,758a44.74,44.74,0,0,1-6.55,6.95c-3.88,3-10.73,8.43-19.49,14.72-34.62-17.52-30.81-72.48-29.93-123.76.46-25.76-17.94-51.42-45-84.18,9.12-4.39,18.61-6.55,27.54-6,32.36,2,73.45,19,64.11,64.37C839.36,660.32,824.23,728.84,854.92,758Z"/><path class="cls-35" d="M658.58,567c0,60.13-1.94,154.9,44.46,161.45S861.9,657.83,861.9,572.19,794.56,440.37,737,455.19C682,469.38,658.58,529.73,658.58,567Z"/><path class="cls-36" d="M861.9,572.19C861.9,657.83,749.46,735,703,728.44c-9.64-1.38-17.11-6.71-23-14.6,8,4.16,20.88,12.79,36.74,5.31,29.37-13.88,72.11-51.09,74.9-84,3.5-40.91,13.89-65.2,20.3-86.47,0,0,.22-11,8.26-73.3C844.64,495.75,861.9,528.92,861.9,572.19Z"/><path class="cls-37" d="M682.69,472.35c-29.5,29.53-62,37.91,2.58,69.79,46.2,22.79,68.15-6.59,103.28,5.23,20.63,6.93,2,57.64,7.69,59.17s16.93,6.85,20.1-2.62c12.62-37.87,38.8-17.32,36.27,2.92s-22.85,44.49-17.16,64.26,14.16-19.21,34.92-59.42,22.56-115.38-37.21-152.3S717,438,682.69,472.35Z"/><path class="cls-38" d="M833.16,459.38c59.77,36.92,57.93,112.13,37.21,152.3s-29.2,79.17-34.92,59.42,14.63-44,17.16-64.26-23.65-40.79-36.27-2.92c-3.12,9.29-14,4.34-19.75,2.71,5.91-20.63,15.89-34.94,24.3-49.39,11-18.83,16.4-46.46-2.7-74.95-32.66-48.74-92.51-33.32-115.91-25.78C736.52,434.28,783.67,428.85,833.16,459.38Z"/></g><path class="cls-39" d="M752.69,448.24l22.51-13L929,524.05v177.4l-22.52,13-35.64-20.59V557.57L752.67,489.35Zm0,489.55,153.8,88.81,22.5-13,0-177.39-35.65-20.57-22.49,13V938.92L775.2,883.7l-22.5,13ZM482,292V469.38L517.66,490l22.53-13,0-110.3,95.66,55.22,22.53-13v-41.1L504.53,279Zm0,489.56,153.81,88.79,22.52-13V816.25L540.19,748V611.73l-35.64-20.58-22.52,13Z"/><path class="cls-40" d="M752.69,448.24l22.51-13L929,524.05v177.4l-22.52,13-35.64-20.59V557.57L752.67,489.35Zm0,489.55,153.8,88.81,22.5-13,0-177.39-35.65-20.57-22.49,13V938.92L775.2,883.7l-22.5,13ZM482,292V469.38L517.66,490l22.53-13,0-110.3,95.66,55.22,22.53-13v-41.1L504.53,279Zm0,489.56,153.81,88.79,22.52-13V816.25L540.19,748V611.73l-35.64-20.58-22.52,13Z"/><path class="cls-41" d="M635.83,870.32,482,781.53V604.15l35.64,20.57,0,136.3,118.17,68.23Zm235-41.68V964.92L752.7,896.68v41.11l153.8,88.81V849.2ZM517.66,490V353.66l118.17,68.22v-41.1L482,292V469.38Zm235-.61,118.18,68.22V693.86l35.64,20.59,0-177.41-153.82-88.8Z"/><path class="cls-42" d="M345.43,884.36,832,1165.3l7.62-4.38L353.07,880c-6.52-3.75-12.35-4-16.5-1.34l0-.07-7.26,4.2C333.4,880.37,339.13,880.71,345.43,884.36Z"/><path class="cls-42" d="M1021,1274.4c12.65,7.31,22.9,25,22.89,39.63v88c0,7.29-2.57,12.4-6.7,14.79l8.12-4.69-.06-.08c3.86-2.49,6.27-7.43,6.27-14.43v-88c0-14.6-10.26-32.32-22.9-39.63L839.66,1160.92,832,1165.3Z"/><path class="cls-43" d="M345.43,884.36,832,1165.3l7.62-4.38L353.07,880c-6.52-3.75-12.35-4-16.5-1.34l0-.07-7.26,4.2C333.4,880.37,339.13,880.71,345.43,884.36Z"/><path class="cls-44" d="M1021,1274.4c12.65,7.31,22.9,25,22.89,39.63v88c0,7.29-2.57,12.4-6.7,14.79l8.12-4.69-.06-.08c3.86-2.49,6.27-7.43,6.27-14.43v-88c0-14.6-10.26-32.32-22.9-39.63L839.66,1160.92,832,1165.3Z"/><path class="cls-45" d="M1021,1274.4c12.65,7.31,22.9,25,22.89,39.63v88c0,7.29-2.57,12.4-6.7,14.79l8.12-4.69-.06-.08c3.86-2.49,6.27-7.43,6.27-14.43v-88c0-14.6-10.26-32.32-22.9-39.63L839.66,1160.92,832,1165.3Z"/><path class="cls-46" d="M345.43,884.36c-12.65-7.29-22.89-1.39-22.89,13.2v88c0,14.58,10.26,32.32,22.89,39.62L832,1306.1V1165.3Z"/><path class="cls-42" d="M1021,1274.4,832,1165.3v140.8L1021,1415.2c12.67,7.29,22.89,1.41,22.9-13.18v-88C1043.88,1299.44,1033.63,1281.71,1021,1274.4Z"/><path class="cls-47" d="M1021,1274.4,832,1165.3v140.8L1021,1415.2c12.67,7.29,22.89,1.41,22.9-13.18v-88C1043.88,1299.44,1033.63,1281.71,1021,1274.4Z"/><path class="cls-42" d="M596.9,1095.22h0l7.4-4.27c3-1.79,7.13-1.58,11.72,1.07,9.11,5.26,16.45,18,16.47,28.47,0,5.31-1.9,9-4.94,10.69l-7.42,4.28h0c2.93-1.75,4.71-5.38,4.71-10.55,0-10.49-7.34-23.22-16.45-28.47C603.92,1093.84,599.86,1093.59,596.9,1095.22Zm166.47,90.68c9.08,5.25,16.45,18,16.45,28.48,0,5.16-1.81,8.81-4.72,10.53h0l7.42-4.27c3-1.68,4.92-5.37,4.92-10.66,0-10.48-7.35-23.23-16.43-28.48-4.6-2.65-8.74-2.86-11.72-1.09l-7.45,4.3h0C754.82,1183,758.87,1183.3,763.37,1185.9ZM530.91,1051.7c9.08,5.25,16.45,18,16.47,28.48,0,5.18-1.83,8.81-4.73,10.55l7.43-4.3c3-1.69,4.92-5.37,4.92-10.66,0-10.5-7.36-23.23-16.45-28.48-4.61-2.66-8.76-2.87-11.74-1.06l-7.4,4.27C522.37,1048.84,526.44,1049.12,530.91,1051.7Zm155,89.46c9.09,5.27,16.45,18,16.45,28.48,0,5.16-1.81,8.79-4.7,10.53l7.37-4.25h0c3.08-1.68,5-5.36,5-10.68,0-10.48-7.38-23.24-16.46-28.48-4.6-2.65-8.77-2.86-11.74-1l-7.36,4.25h0C677.36,1138.32,681.41,1138.58,685.88,1141.16Zm-309.94-179c9.1,5.25,16.47,18,16.44,28.49,0,5.18-1.8,8.81-4.7,10.55h0l7.43-4.29c3-1.68,4.92-5.36,4.92-10.67,0-10.48-7.36-23.23-16.45-28.48-4.56-2.64-8.67-2.88-11.63-1.16l-7.63,4.41h0C367.3,959.34,371.41,959.6,375.94,962.21ZM453.42,1007c9.11,5.25,16.46,18,16.47,28.48,0,5.15-1.8,8.77-4.68,10.51h0l7.33-4.23c.11,0,.19-.12.3-.17l.17-.11,0,0c2.79-1.79,4.53-5.33,4.53-10.38,0-10.49-7.37-23.23-16.47-28.47-4.36-2.53-8.31-2.81-11.26-1.29v-.06l-.21.14-.26.14-7.38,4.27C444.91,1004.1,449,1004.37,453.42,1007Zm436.13,247c7.23,4.16,13.54,12.13,17.21,20.73l73.7,42.55c6.18,3.56,11.2,12.26,11.2,19.39a10.74,10.74,0,0,1-.9,4.55l7.63-4.4a10.75,10.75,0,0,0,.91-4.56c0-7.12-5-15.83-11.22-19.4l-73.68-42.53c-3.68-8.6-10-16.57-17.21-20.73-6-3.47-11.36-3.55-15.1-1l-.06-.09-6.91,4h0C878.83,1250.45,883.92,1250.76,889.55,1254Zm92.37,89.79,6.92-4,1.92,1.43a11.92,11.92,0,0,0-1.73-1.4C985.14,1337.59,982,1339.38,981.92,1343.8Zm-28.65-16.36,7.15-4.13h0C956.47,1321,953.27,1322.87,953.27,1327.44Zm-28.61-16.52,7.13-4.12h0C927.87,1304.52,924.66,1306.36,924.66,1310.92Zm-27.61-29a16.65,16.65,0,0,0-7.5-12.87c-4.14-2.39-7.53-.45-7.52,4.36s3.38,10.61,7.52,13,7.54.47,7.52-4.33c0-.06,0-.12,0-.18a16.59,16.59,0,0,1-7.36-12.75A16.61,16.61,0,0,1,897.05,1281.9Z"/><path class="cls-48" d="M596.9,1095.22h0l7.4-4.27c3-1.79,7.13-1.58,11.72,1.07,9.11,5.26,16.45,18,16.47,28.47,0,5.31-1.9,9-4.94,10.69l-7.42,4.28h0c2.93-1.75,4.71-5.38,4.71-10.55,0-10.49-7.34-23.22-16.45-28.47C603.92,1093.84,599.86,1093.59,596.9,1095.22Zm166.47,90.68c9.08,5.25,16.45,18,16.45,28.48,0,5.16-1.81,8.81-4.72,10.53h0l7.42-4.27c3-1.68,4.92-5.37,4.92-10.66,0-10.48-7.35-23.23-16.43-28.48-4.6-2.65-8.74-2.86-11.72-1.09l-7.45,4.3h0C754.82,1183,758.87,1183.3,763.37,1185.9ZM530.91,1051.7c9.08,5.25,16.45,18,16.47,28.48,0,5.18-1.83,8.81-4.73,10.55l7.43-4.3c3-1.69,4.92-5.37,4.92-10.66,0-10.5-7.36-23.23-16.45-28.48-4.61-2.66-8.76-2.87-11.74-1.06l-7.4,4.27C522.37,1048.84,526.44,1049.12,530.91,1051.7Zm155,89.46c9.09,5.27,16.45,18,16.45,28.48,0,5.16-1.81,8.79-4.7,10.53l7.37-4.25h0c3.08-1.68,5-5.36,5-10.68,0-10.48-7.38-23.24-16.46-28.48-4.6-2.65-8.77-2.86-11.74-1l-7.36,4.25h0C677.36,1138.32,681.41,1138.58,685.88,1141.16Zm-309.94-179c9.1,5.25,16.47,18,16.44,28.49,0,5.18-1.8,8.81-4.7,10.55h0l7.43-4.29c3-1.68,4.92-5.36,4.92-10.67,0-10.48-7.36-23.23-16.45-28.48-4.56-2.64-8.67-2.88-11.63-1.16l-7.63,4.41h0C367.3,959.34,371.41,959.6,375.94,962.21ZM453.42,1007c9.11,5.25,16.46,18,16.47,28.48,0,5.15-1.8,8.77-4.68,10.51h0l7.33-4.23c.11,0,.19-.12.3-.17l.17-.11,0,0c2.79-1.79,4.53-5.33,4.53-10.38,0-10.49-7.37-23.23-16.47-28.47-4.36-2.53-8.31-2.81-11.26-1.29v-.06l-.21.14-.26.14-7.38,4.27C444.91,1004.1,449,1004.37,453.42,1007Zm436.13,247c7.23,4.16,13.54,12.13,17.21,20.73l73.7,42.55c6.18,3.56,11.2,12.26,11.2,19.39a10.74,10.74,0,0,1-.9,4.55l7.63-4.4a10.75,10.75,0,0,0,.91-4.56c0-7.12-5-15.83-11.22-19.4l-73.68-42.53c-3.68-8.6-10-16.57-17.21-20.73-6-3.47-11.36-3.55-15.1-1l-.06-.09-6.91,4h0C878.83,1250.45,883.92,1250.76,889.55,1254Zm92.37,89.79,6.92-4,1.92,1.43a11.92,11.92,0,0,0-1.73-1.4C985.14,1337.59,982,1339.38,981.92,1343.8Zm-28.65-16.36,7.15-4.13h0C956.47,1321,953.27,1322.87,953.27,1327.44Zm-28.61-16.52,7.13-4.12h0C927.87,1304.52,924.66,1306.36,924.66,1310.92Zm-27.61-29a16.65,16.65,0,0,0-7.5-12.87c-4.14-2.39-7.53-.45-7.52,4.36s3.38,10.61,7.52,13,7.54.47,7.52-4.33c0-.06,0-.12,0-.18a16.59,16.59,0,0,1-7.36-12.75A16.61,16.61,0,0,1,897.05,1281.9Z"/><path class="cls-49" d="M763.37,1223.84c-9.08-5.24-16.45-18-16.45-28.46s7.37-14.71,16.45-9.48,16.45,18,16.45,28.48S772.45,1229.09,763.37,1223.84Zm-61-54.2c0-10.48-7.36-23.21-16.45-28.48s-16.45-1-16.43,9.49,7.35,23.21,16.43,28.46S702.33,1180.1,702.33,1169.64Zm-77.49-44.73c0-10.49-7.34-23.22-16.45-28.47s-16.45-1-16.43,9.48,7.37,23.21,16.43,28.45S624.84,1135.38,624.84,1124.91Zm-77.46-44.73c0-10.49-7.39-23.23-16.47-28.48s-16.43-1-16.43,9.48,7.35,23.22,16.45,28.46S547.38,1090.64,547.38,1080.18Zm-77.49-44.74c0-10.5-7.36-23.23-16.47-28.48s-16.45-1-16.43,9.49,7.37,23.22,16.45,28.46S469.88,1045.9,469.89,1035.44ZM392.38,990.7c0-10.48-7.34-23.24-16.44-28.49s-16.44-1-16.44,9.49,7.37,23.22,16.45,28.46S392.41,1001.17,392.38,990.7Zm599.28,346a10.74,10.74,0,0,1-.9,4.55,11.92,11.92,0,0,0-1.73-1.4c-3.89-2.24-7-.45-7.11,4a9.48,9.48,0,0,1-1.46-.67l-12.87-7.44a15.93,15.93,0,0,0-7.16-12.38c-4-2.28-7.16-.44-7.16,4.13l-14.3-8.26a15.78,15.78,0,0,0-7.16-12.38c-3.94-2.28-7.15-.44-7.15,4.12l-17.9-10.33c-3.67,4.37-10,5-17.21.84C878.19,1294.88,869,1279,869,1265.86s9.2-18.4,20.56-11.85c7.23,4.16,13.54,12.13,17.21,20.73l73.7,42.55C986.64,1320.85,991.66,1329.55,991.66,1336.68Zm-94.59-54.6a16.57,16.57,0,0,0-7.52-13c-4.14-2.39-7.53-.45-7.52,4.36s3.38,10.61,7.52,13S897.09,1286.88,897.07,1282.08Z"/><path class="cls-50" d="M862.35,1762.35c-38.92-22.49-92.25-31.49-142.89-27.2l-22.69-16.7a17.79,17.79,0,0,0-9.78-3,20.18,20.18,0,0,0-10.34,2.26l-17.42,10.07L408,1582.77c-4-2.34-10.05-3.09-15.42-2L327,1594.68a18.26,18.26,0,0,0-5.34,2,8.27,8.27,0,0,0-4.13,4.66l-7.79,28.48c-.76,2.67.77,5.4,4.09,7.31l251.22,145.06-17.4,10c-.05,0-.1,0-.12.08-5.27,3-5.28,8,0,11a14.74,14.74,0,0,0,3,1.31l27.19,12.33c-7.4,29.22,8.19,60,47.13,82.51,65.49,37.81,171.75,37.77,237.31-.08S927.86,1800.16,862.35,1762.35Z"/><path class="cls-51" d="M742.23,1634.53l-4.88-2.82,4.88-2.81c5.72-3.32,5.72-8.68,0-12L408,1423.93c-4-2.34-10.05-3.1-15.41-2l-21.14,4.47h0v11.29l-13.59,2.87-14.32-8.26-16.51,3.5a18.26,18.26,0,0,0-5.34,2,8.3,8.3,0,0,0-4.13,4.66L309.73,1471a4.72,4.72,0,0,0-.09,1.4h-.08v17.76h.06c.09,2.15,1.53,4.23,4.24,5.79l334.22,193c5.75,3.31,15,3.31,20.79,0l73.36-42.34C748,1643.2,748,1637.83,742.23,1634.53Z"/><path class="cls-52" d="M742.23,1634.53l-4.88-2.82,4.88-2.81-73.36,42.35c-5.75,3.31-15,3.31-20.79,0l-334.22-193c-3.34-1.92-4.87-4.64-4.13-7.33a4.72,4.72,0,0,0-.09,1.4h-.08v17.76h.06c.09,2.15,1.53,4.23,4.24,5.79l334.22,193c5.75,3.31,15,3.31,20.79,0l73.36-42.34C748,1643.2,748,1637.83,742.23,1634.53Z"/><path class="cls-53" d="M618.67,1569.18,371.43,1426.44v11.29l-13.59,2.87-14.32-8.26,256.09,147.85c5.25,3,13.78,3,19.06,0S623.94,1572.22,618.67,1569.18Z"/><path class="cls-54" d="M618.67,1569.18,371.43,1426.44v11.29l246.93,142.56c.11,0,.23-.07.31-.12C623.92,1577.14,623.94,1572.22,618.67,1569.18Z"/><path class="cls-51" d="M723.69,1605.85l18.38-10.62c4.84-2.77,5.28-7.21,1.08-10.29l-46.39-34.14a18.13,18.13,0,0,0-9.79-3,20.06,20.06,0,0,0-10.32,2.27l-129,74.46-.12.08c-2.65,1.52-4,3.52-4,5.51v35.23h0v0h0c0,2,1.32,3.94,3.92,5.45a15.69,15.69,0,0,0,3,1.32l57.41,26c5.35,2.42,13,2.17,17.84-.62l116.24-67.13c4.84-2.77,5.28-7.21,1.08-10.29Z"/><path class="cls-52" d="M723.69,1605.85l18.38-10.62-116.24,67.12c-4.84,2.79-12.49,3.05-17.84.63l-57.41-26a15.1,15.1,0,0,1-3-1.32c-2.62-1.51-3.95-3.51-3.95-5.49v35.23h0v0h0c0,2,1.32,3.94,3.92,5.45a15.69,15.69,0,0,0,3,1.32l57.41,26c5.35,2.42,13,2.17,17.84-.62l116.24-67.13c4.84-2.77,5.28-7.21,1.08-10.29Z"/><path class="cls-55" d="M862.35,1588.84c-65.49-37.82-171.75-37.79-237.33.07-32.74,18.92-49.16,43.7-49.19,68.47h0v46.93h0c-.07,24.83,16.27,49.66,49.07,68.6,65.5,37.81,171.75,37.78,237.31-.08,32.8-18.93,49.22-43.74,49.23-68.54v-46.91C911.48,1632.57,895.13,1607.76,862.35,1588.84Zm-36.8,115.84c-20.47,11.79-53.6,11.81-74,0s-20.41-30.92,0-42.73,53.59-11.81,74,0S846,1692.87,825.55,1704.68Z"/><path class="cls-56" d="M862.21,1725.85c-65.56,37.86-171.81,37.9-237.31.09-32.77-18.93-49.12-43.74-49.07-68.56h0v46.93h0c-.07,24.83,16.27,49.66,49.07,68.6,65.5,37.81,171.75,37.78,237.31-.08,32.8-18.93,49.22-43.74,49.23-68.54v-46.91h0C911.39,1682.15,895,1706.93,862.21,1725.85Z"/><path class="cls-57" d="M751.51,1704.69c.46.26,1,.43,1.43.67,20.07-10.82,51.15-10.82,71.21,0,.45-.25,1-.42,1.4-.65,20.43-11.81,20.43-31,0-42.74s-53.56-11.79-74,0S731.1,1692.9,751.51,1704.69Z"/><path class="cls-15" d="M751.51,1704.69c.46.26,1,.43,1.43.67,20.07-10.82,51.15-10.82,71.21,0,.45-.25,1-.42,1.4-.65,20.43-11.81,20.43-31,0-42.74s-53.56-11.79-74,0S731.1,1692.9,751.51,1704.69Z"/><path class="cls-14" d="M638.82,1717.91c57.82,33.35,151.61,33.34,209.49-.08,28.93-16.71,43.41-38.59,43.45-60.46s-14.4-43.79-43.33-60.49c-57.81-33.38-151.6-33.37-209.5,0-28.9,16.71-43.38,38.58-43.43,60.45S609.89,1701.19,638.82,1717.91Z"/><path class="cls-58" d="M638.93,1605.74c57.9-33.41,151.69-33.43,209.5,0,27,15.56,41.14,35.62,43,56,.12-1.45.36-2.88.36-4.32,0-21.91-14.4-43.79-43.33-60.49-57.81-33.38-151.6-33.37-209.5,0-28.9,16.71-43.38,38.58-43.43,60.45,0,1.51.24,3,.36,4.51C597.68,1641.47,611.92,1621.35,638.93,1605.74Z"/><path class="cls-59" d="M120.75,1789.88c-33-44.06-100.63-59.42-84.13-90,11.33-29.87,85-60.53,146.67-69.24,63.8-8.81,88.36,35.55,144.64,28.58,68.8-8.52,119.67,47.8,151.76,75.1,71.79,54.3-52.83,141.42-123.81,117.68C279,1826.22,178,1865.86,120.75,1789.88Z"/><path class="cls-60" d="M157.23,1789.47h0a28.58,28.58,0,0,0,28.5-28.5v-92.13a28.51,28.51,0,0,0-57,0V1761A28.59,28.59,0,0,0,157.23,1789.47Z"/><path class="cls-8" d="M185.73,1674.61V1761a28.56,28.56,0,0,1-22.46,27.82v-86.37A28.6,28.6,0,0,1,185.73,1674.61Z"/><path class="cls-8" d="M157.23,1780.67a32.21,32.21,0,0,0,28.22-17,28.34,28.34,0,0,1-56.45,0A32.25,32.25,0,0,0,157.23,1780.67Z"/><path class="cls-8" d="M157.23,1640.34a28.59,28.59,0,0,1,28.5,28.5v60.6a33.67,33.67,0,0,1-26.29,13.27,38.15,38.15,0,0,1-30.72-14.92v-59A28.59,28.59,0,0,1,157.23,1640.34Z"/><path class="cls-60" d="M310.16,1741s-24,60.17-2.21,71.82,41-.94,65.22-10.7,63.64-28.35,71.21-31.84,25.54-13.07,23-33.38-34.34-21.11-76.25-11S310.16,1741,310.16,1741Z"/><path class="cls-8" d="M369.82,1730.61l.47,13.7a33.63,33.63,0,0,1-27.59,35,38.3,38.3,0,0,1-39.3-17.36,209.17,209.17,0,0,1,6.76-21S336.89,1737.51,369.82,1730.61Z"/><path class="cls-8" d="M347.78,1746.05s4.25-5.46,11.32-13.27c10-2,20.92-4.27,32-6.94,41.91-10.08,73.74-9.15,76.25,11s-15.43,29.93-23,33.38-46.94,22.07-71.21,31.84c-11.3,4.54-21.5,9.69-31.38,12.72C327,1798.25,347.78,1746.05,347.78,1746.05Z"/><path class="cls-8" d="M308,1806.77c21.74,11.65,41-.94,65.22-10.7s63.64-28.36,71.21-31.83c6.6-3,21.06-10.72,23-26.09,1.6,19.39-15.63,28.72-23,32.1-7.57,3.49-46.94,22.07-71.21,31.84s-43.48,22.36-65.22,10.7c-7.53-4-9.51-13.92-9-25.06C299.4,1796.29,301.81,1803.49,308,1806.77Z"/><path class="cls-61" d="M113.65,1085.05l6.91,610.87a38.34,38.34,0,0,0,38.88,38,33.62,33.62,0,0,0,33-30l77.32-592.08Z"/><path class="cls-62" d="M198.34,1248.44a107.06,107.06,0,0,1-8.05-41c0-21.22,6-40.7,16-56.19l4-49.62,59.44,10.22-.62,4.8c39.13,2.74,70.2,42.28,70.2,90.79,0,50.28-33.36,91-74.5,91a61.49,61.49,0,0,1-19-3.12L192.4,1703.94a33.62,33.62,0,0,1-33,30c-.19,0-.38-.06-.57-.06Z"/><path class="cls-63" d="M184.68,1176.1a105.81,105.81,0,0,1,11.42-48.29L190.29,1093l38.35.15a61.93,61.93,0,0,1,61.52.26l58.49.26,21.64,641.88a33.64,33.64,0,0,1-27.59,35,38.31,38.31,0,0,1-44.6-31l-81.5-488.72C197.33,1234.29,184.68,1207,184.68,1176.1Z"/><path class="cls-64" d="M341.79,1763.41,292.61,1123l-96.68,3.75L190.29,1093l158.36.67,21.64,641.88a33.64,33.64,0,0,1-27.59,35c-.34.07-.69,0-1,.09A34.18,34.18,0,0,0,341.79,1763.41Z"/><path class="cls-8" d="M204.38,1101.87c22.34-44.87,72.12.54,130,.54a191.29,191.29,0,0,1,21.07,1.16l.8,9.7c-5,22-25.14,37.67-50.3,43.23-47.13,10.42-160.13-4.7-192-49.43l-.24-22Z"/><path class="cls-65" d="M150.87,725.25c16.76,26.78,6.19,66.63,8.07,119.7s-1.62,102.89-11.46,121.92c-20.12,38.89-41.13,29.85-57.3.48C60,912.63,41.49,761.82,104.37,721,119.72,711,137.05,710.37,150.87,725.25Z"/><path class="cls-66" d="M150.87,725.25c16.76,26.78,6.19,66.63,8.07,119.7s-1.62,102.89-11.46,121.92c-20.12,38.89-41.13,29.85-57.3.48C60,912.63,41.49,761.82,104.37,721,119.72,711,137.05,710.37,150.87,725.25Z"/><path class="cls-67" d="M259.86,654.72c-4,24.41.72,75.88,24.69,85.79s-28.13,24.18-49.69,22.56-98.1-17.26-87.31-32.9.06-20.66,9.15-19.94,27.5-19.93,28.56-87.31S264.14,628.35,259.86,654.72Z"/><path class="cls-29" d="M244.86,515.18c25.34,0,26.77-3.39,41.12,17.51,5.18,7.56,11.39,26.92,8.31,37.19-6.14,20.48,6.63,31.77,5.46,50.42-1.64,25.81-9,90.62-92.44,42-41.15-24,18.32-36.36,34.22-67.23C256.88,565.34,228.56,515.18,244.86,515.18Z"/><path class="cls-68" d="M297.78,637.75c0-.2.07-.39.09-.59a158.19,158.19,0,0,0,1.88-16.86c.06-.89-.05-1.7-.06-2.57h0c-.06-12.28-5.74-21.57-6.83-33,0-.35-.11-.69-.13-1.05a37.17,37.17,0,0,1,.07-4.82c0-.61,0-1.18,0-1.79a40.15,40.15,0,0,1,1.45-7.15c3.08-10.27-3.13-29.63-8.31-37.19-14.35-20.9-15.78-17.51-41.12-17.51-16.3,0,12,50.16-3.33,79.91a40.88,40.88,0,0,1-3.74,5.77c-.62.84-1.24,1.68-1.92,2.5a1.25,1.25,0,0,0-.08.12c-1.48,1.77-3,3.52-4.67,5.16h0a3.92,3.92,0,0,1-.32-.25,87.88,87.88,0,0,0-7.26-5.4l-.22-.16a63.23,63.23,0,0,0-7.7-4.34h0c1.52,15.18,2.64,28.62,3,39.89,1.21,36,6.13,83.78-24.48,117.51,2,.48,4,.93,6,1.38a1.8,1.8,0,0,1,.32.06c1.73.39,3.44.76,5.16,1.12l.66.14h0c1.7.36,3.37.68,5,1l1.44.26c1.53.29,3,.57,4.51.82l.39.07c1.55.28,3.05.52,4.49.74.4.07.8.12,1.19.17,1.22.19,2.41.37,3.53.52l.6.09,3.3.42.47.05c.21,0,.43,0,.63.06,1.09.12,2.12.23,3,.29,21.56,1.62,73.65-12.65,49.69-22.56a23.24,23.24,0,0,1-3.39-1.77l-.66-.47a25.52,25.52,0,0,1-2.53-1.92l-.51-.48c-.86-.79-1.68-1.62-2.48-2.51l-.27-.33c-.87-1-1.69-2.09-2.49-3.23,0,0,0,0,0,0s-.18-.27-.28-.39c-.28-.43-.57-.82-.85-1.25L271,728c0-.07-.06-.13-.1-.19-.83-1.35-1.6-2.79-2.34-4.27-.2-.41-.39-.82-.59-1.24-.61-1.3-1.19-2.64-1.73-4-.13-.33-.27-.66-.4-1-.65-1.71-1.25-3.48-1.8-5.29-.1-.36-.2-.73-.31-1.09-.43-1.48-.84-3-1.2-4.52l-.39-1.6c-.37-1.64-.73-3.3-1-5-.05-.25-.11-.51-.15-.76-.35-2-.65-3.94-.93-5.92l-.15-1.2c-.21-1.66-.39-3.32-.55-5,0-.38-.07-.77-.11-1.15-.17-2-.32-4-.41-5.94h0v0h.43C285.34,679.14,294.38,656.88,297.78,637.75Z"/><path class="cls-69" d="M297.78,637.75c0-.2.07-.39.09-.59a158.19,158.19,0,0,0,1.88-16.86c.06-.89-.05-1.7-.06-2.57h0c0-7.76-2.31-14.33-4.23-21s-3.58-13.84-2.08-22.31c0,0,0-.06,0-.09a29,29,0,0,1,.91-4.44c3.08-10.27-3.13-29.63-8.31-37.19-1.24-1.78-2.34-3.35-3.42-4.81-.23-.31-.45-.6-.66-.9-1.08-1.44-2.1-2.73-3-3.85l0,0a35.13,35.13,0,0,0-2.75-2.88c-.12-.11-.23-.23-.35-.33A19.62,19.62,0,0,0,273,517.8a.31.31,0,0,0-.14-.07,14.64,14.64,0,0,0-2.68-1.35l-.24-.1a18.25,18.25,0,0,0-3-.8l-.08,0-.27,0a31.75,31.75,0,0,0-3.32-.37h-.2c-1.3,0-2.69-.07-4.24-.07,4.41,4.06,7.67,7.88,9.43,11.1,10.17,18.58,19.75,30.18,16.52,49.59s13.44,34.48.62,64.67-40,8.62-39,29.82c.6,12.16,1.2,56.2,7.72,91.59l.2,0,2.46-.42,1.85-.35.4-.08c1-.18,1.95-.4,2.92-.6l2.13-.49c1.63-.38,3.23-.8,4.81-1.22.77-.22,1.57-.42,2.33-.65s1.45-.47,2.18-.71l2.27-.73c.69-.24,1.36-.48,2-.75.83-.3,1.6-.61,2.38-.94.49-.21,1-.42,1.49-.64,1-.46,2-.94,2.86-1.41l.43-.22c.22-.13.41-.25.61-.39s.23-.16.36-.23c.62-.39,1.22-.78,1.73-1.17.26-.19.48-.38.71-.58a9.38,9.38,0,0,0,1.29-1.33c.13-.17.28-.34.4-.51a5.48,5.48,0,0,0,.34-.86,3.63,3.63,0,0,0,.37-1v-.11a3.63,3.63,0,0,0-.33-1.25c-.07-.15,0-.31-.13-.46a3.35,3.35,0,0,0-.34-.49,6.67,6.67,0,0,0-1-1c-.13-.1-.19-.21-.33-.32s-.42-.35-.66-.52a20.53,20.53,0,0,0-3.32-1.74,23.24,23.24,0,0,1-3.39-1.77l-.66-.47a25.52,25.52,0,0,1-2.53-1.92l-.51-.48c-.86-.79-1.68-1.62-2.48-2.51l-.27-.33c-.87-1-1.69-2.09-2.49-3.23,0,0,0,0,0,0s-.18-.27-.28-.39c-.28-.43-.57-.82-.85-1.25L271,728c0-.07-.06-.13-.1-.19-.83-1.35-1.6-2.79-2.34-4.27-.2-.41-.39-.82-.59-1.24-.61-1.3-1.19-2.64-1.73-4-.13-.33-.27-.66-.4-1-.65-1.71-1.25-3.48-1.8-5.29-.1-.36-.2-.73-.31-1.09-.43-1.48-.84-3-1.2-4.52l-.39-1.6c-.37-1.64-.73-3.3-1-5-.05-.25-.11-.51-.15-.76-.35-2-.65-3.94-.93-5.92l-.15-1.2c-.21-1.66-.39-3.32-.55-5,0-.38-.07-.77-.11-1.15-.17-2-.32-4-.41-5.94h0v0h.43C285.34,679.14,294.38,656.88,297.78,637.75Z"/><path class="cls-70" d="M228.15,496.41c-47,0-87.9,16.17-87.9,78.68s31.76,61.3,35,78.8c5.73,30.72,50.3,19.29,54.62,2s3.22-42.88,14.9-48.49c20.6-9.88,10.93,15.32,19.55,14.23s-4.71-20,6.3-30.54c16.14-15.49,5.19-35.73,6.64-44.2.59-3.4,4.3-7.53,8.33-10.63C298.41,526.38,276.14,496.41,228.15,496.41Z"/><path class="cls-71" d="M285.62,536.29c-4,3.1-7.74,7.23-8.33,10.63-1.45,8.47,9.5,28.71-6.64,44.2-11,10.56,2.32,29.47-6.3,30.54s1-24.11-19.55-14.23c-11.68,5.61-10.6,31.25-14.9,48.49s-48.89,28.69-54.62-2c-2.37-12.68-19.68-15.64-29-40.08,16,31,61.84,39.72,68.48,8.42,12.43-58.58-7.27-53.58,36.52-97.39,12.44-12.43-18.69-24.29-46.67-26.8a164.31,164.31,0,0,1,23.58-1.63C276.14,496.41,298.41,526.38,285.62,536.29Z"/><path class="cls-65" d="M75.7,793.63c0-34.43,8.28-56.73,23-69.17,37.62-31.87,129.21-3.84,171.9,10.41,37.29,12.42,73,29.25,86.51,49.76l.21,201,.19,108c0,27.63-22.39,47.63-51.53,54.07-55.17,12.19-200.64-10.57-200.64-74.86,6-40.25,21-97.22-2.29-165.65C86.13,857.56,75.7,820.42,75.7,793.63Z"/><path class="cls-72" d="M75.7,793.63c0-34.43,8.28-56.73,23-69.17,37.62-31.87,129.21-3.84,171.9,10.41a367.93,367.93,0,0,1,39.58,15.58,44.81,44.81,0,0,1,5.21,1.78c22.26,9.17,46.9,21.5,76.7,26.62,73.77,12.67,67.18,99,27.5,94.23s-52.14,36.21-55.91,78.08c-2.68,29.51-5.14,59.19-5.14,86.12,0,23.21,2.48,52.89-2,66.32-4.66,22.44-25,38.44-50.53,44.09-55.17,12.19-200.64-10.57-200.64-74.86,6-40.25,21-97.22-2.29-165.65C86.13,857.56,75.7,820.42,75.7,793.63Z"/><path class="cls-73" d="M98.66,724.46c37.62-31.87,129.21-3.84,171.9,10.41a367.93,367.93,0,0,1,39.58,15.58,44.81,44.81,0,0,1,5.21,1.78c22.26,9.17,46.9,21.5,76.7,26.62,73.77,12.67,67.18,99,27.5,94.23s-52.14,36.21-55.91,78.08c-2.68,29.51-5.14,59.19-5.14,86.12,0,23.21,2.48,52.89-2,66.32-4.66,22.44-25,38.44-50.53,44.09-3.32.72-7,1.32-10.87,1.8h0c6.38-39.86,19.05-94.71-3.17-160-11.44-33.68-15.54-112.38,2.24-159.56h0a95.46,95.46,0,0,1,7.81-16.16c9-19,15.51-37.15-.22-44.22a353,353,0,0,0-45-18.14c-42.07-14-131.52-41.33-170.12-11.65A52.94,52.94,0,0,1,98.66,724.46Z"/><path class="cls-74" d="M176.3,684.83c-4.82,9.24-13.17,21.94-21.16,25,1.37,31.09,82.38,44.69,126.93,28.6-8.86-8.48-16.6-21.5-20.16-37.93C217.72,714,177.36,694.14,176.3,684.83Z"/><path class="cls-75" d="M537.49,736.35c9.12-6.7,23.76-21.53,28.41-26.19s1.27-14.11,1.27-22.94S572,672.6,572,665.8s-10-15-7.05-17.89c5.62-5.62,13.09,3.78,13.09,3.78s3.29-16.38,3.29-28.49.51-20.91,3-23.43,6.8,0,6.8,0-1-11.1,5.8-11.1S603.47,599,603.47,599s7-1.07,8.57,7.28a113.79,113.79,0,0,1,1.75,13.63,12.5,12.5,0,0,1,8.09,10.85c.74,8.56.74,30.75,2.75,37.3s2,19.4-2.75,33.27-6.57,24.19-14.39,27.72-22.2,24.58-28.2,35.11-23.69,4.1-32-2.28S529.61,742.15,537.49,736.35Z"/><path class="cls-76" d="M579.29,764.17c6-10.53,20.41-31.58,28.2-35.11s9.59-13.86,14.39-27.72,4.77-26.71,2.75-33.27-2-28.74-2.75-37.3a12.4,12.4,0,0,0-6.44-10.07c1.14,23.39,5.72,80.23-8.12,93.43s-38.51,19.33-58.27,48.93C557.81,769,573.64,774.05,579.29,764.17Z"/><path class="cls-77" d="M291,808.71h0A44.71,44.71,0,0,0,327,857.18l131.06,22.25a69.28,69.28,0,0,0,69.55-27.94l63.79-86.82a37.63,37.63,0,0,0-10-53.21,21.18,21.18,0,0,0-27.69,3.82l-63.14,72.31a14.89,14.89,0,0,1-13.9,4.92L341.55,770.63A43.18,43.18,0,0,0,291,808.71Z"/><path class="cls-78" d="M301.81,814c6.64-14,12-27.6,8-36.63,1-.66,2.06-1.18,3.12-1.76l-.14-.08c.44-.25.94-.41,1.39-.64,1.1-.56,2.2-1.06,3.36-1.53s2.08-.84,3.15-1.2,2.16-.61,3.27-.87,2.45-.59,3.71-.77c.95-.14,1.92-.18,2.86-.25,1.46-.11,2.91-.23,4.41-.2l.38,0,.17.07a41.57,41.57,0,0,1,6,.54l128.83,20.85c17.37,2.85,50.66,12.67,73.27-15.79,20.63-26,26.86-37,48.05-54.09a37.59,37.59,0,0,1-.28,43.07l-63.79,86.82a69.28,69.28,0,0,1-69.55,27.94L327,857.18a44.56,44.56,0,0,1-32.9-27.26A94.45,94.45,0,0,1,301.81,814Z"/></g></g></svg>