<svg width="328" height="40" viewBox="0 0 328 40" fill="none" xmlns="http://www.w3.org/2000/svg">
<path d="M18.7377 39.2146H24.46L34.8948 16.1571V39.2146H43.4222V0.785414H32.9874L21.7111 26.1992L10.4348 0.785414H0V39.2146H8.35905V16.2693L18.7377 39.2146Z" fill="#1288C0"/>
<path d="M62.07 17.223C66.3898 17.223 69.9242 20.7013 69.9242 24.9649C69.9242 29.2847 66.5581 32.7069 62.07 32.7069C57.8064 32.7069 54.4964 29.2847 54.4964 24.9649C54.4964 20.7013 57.8064 17.223 62.07 17.223ZM69.812 39.2146H77.61V10.4348H69.812V12.7349C67.7923 11.1641 64.7068 10.1543 61.3968 10.1543C53.5427 10.1543 46.8667 16.662 46.8667 24.9649C46.8667 33.2679 53.5427 39.6073 61.3968 39.6073C64.7068 39.6073 67.7923 38.6536 69.812 37.0827V39.2146Z" fill="#1288C0"/>
<path d="M80.2875 30.1823C80.4558 35.6802 85.3366 39.7756 93.1346 39.7756C100.372 39.7756 106.094 36.9144 106.094 30.0701C106.094 23.6185 100.091 22.6087 95.1543 21.7111C91.676 21.094 88.7027 20.6452 88.7027 18.5133C88.7027 16.7181 90.554 15.9888 92.798 15.9888C96.2763 15.9888 97.0617 17.5596 97.23 19.6353H105.028C104.579 13.8008 100.035 10.0982 92.6858 10.0982C85.3927 10.0982 80.7924 14.2496 80.7924 19.4109C80.7924 27.209 87.6367 27.77 92.7419 28.6676C95.6031 29.1164 97.791 29.5652 97.791 31.4165C97.791 32.763 96.4446 34.1094 93.5273 34.1094C89.3759 34.1094 88.1977 31.8654 88.1977 30.1823H80.2875Z" fill="#1288C0"/>
<path d="M119.027 10.4348V3.02945H111.229V10.4348H107.078V17.3913H111.229V29.3408C111.229 35.8485 114.595 39.2146 122.281 39.2146H126.096V32.5386H122.842C120.206 32.5386 119.027 31.5849 119.027 28.9481V17.3913H126.096V10.4348H119.027Z" fill="#1288C0"/>
<path d="M149.471 29.453C147.844 31.7532 145.376 33.2679 141.841 33.2679C137.802 33.2679 135.053 30.9116 134.211 27.2651H156.203C156.203 27.0968 156.315 25.6381 156.315 24.5161C156.315 16.2132 150.817 9.87377 141.729 9.87377C132.697 9.87377 126.526 16.6059 126.526 24.9088C126.526 33.4362 132.472 39.8878 141.673 39.8878C148.125 39.8878 152.444 37.3072 155.305 33.0435L149.471 29.453ZM141.673 16.2693C144.815 16.2693 147.62 17.9523 148.461 21.4867H134.492C135.558 18.1767 138.026 16.2693 141.673 16.2693Z" fill="#1288C0"/>
<path d="M166.88 39.2146V26.087C166.88 21.094 169.404 17.8962 175.183 17.8962V10.0421C171.592 10.0421 168.787 11.7251 166.824 14.3619V10.4348H159.026V39.2146H166.88Z" fill="#1288C0"/>
<path d="M211.489 29.453C209.862 31.7532 207.393 33.2679 203.859 33.2679C199.82 33.2679 197.071 30.9116 196.229 27.2651H218.221C218.221 27.0968 218.333 25.6381 218.333 24.5161C218.333 16.2132 212.835 9.87377 203.747 9.87377C194.715 9.87377 188.544 16.6059 188.544 24.9088C188.544 33.4362 194.49 39.8878 203.691 39.8878C210.142 39.8878 214.462 37.3072 217.323 33.0435L211.489 29.453ZM203.691 16.2693C206.832 16.2693 209.638 17.9523 210.479 21.4867H196.51C197.576 18.1767 200.044 16.2693 203.691 16.2693Z" fill="#1288C0"/>
<path d="M230.525 18.6816V0.785414H221.829V39.2146H230.525V22.8331L243.54 39.2146H254.816L239.108 19.9719L254.368 0.785414H244.213L230.525 18.6816Z" fill="#1288C0"/>
<path d="M277.871 39.2146V24.9088L291.84 0.785414H282.528L273.608 16.9425L264.744 0.785414H255.15L269.119 24.8527V39.2146H277.871Z" fill="#1288C0"/>
<path d="M309.558 8.07854C314.495 8.07854 317.805 10.6031 320.049 14.3619L326.949 9.59327C323.303 3.08555 317.356 0 309.726 0C298.057 0 289.25 8.75175 289.25 19.9158C289.25 31.1921 298.114 40 309.951 40C317.805 40 323.359 36.4095 327.118 30.3506L320.33 25.6381C318.142 29.453 314.551 31.8654 309.839 31.8654C303.05 31.8654 298.114 26.648 298.114 19.9158C298.114 13.352 303.05 8.07854 309.558 8.07854Z" fill="#1288C0"/>
</svg>
