<svg xmlns="http://www.w3.org/2000/svg" xmlns:xlink="http://www.w3.org/1999/xlink" viewBox="0 0 179.42 179.7"><defs><style>.cls-1{fill:url(#linear-gradient);}.cls-2{fill:url(#linear-gradient-2);}.cls-3{fill:url(#linear-gradient-3);}.cls-4{fill:#381977;}.cls-5{fill:none;}.cls-6{fill:url(#linear-gradient-4);}.cls-7{fill:url(#linear-gradient-5);}.cls-8{fill:url(#linear-gradient-6);}.cls-9{fill:#cdd1f6;}.cls-10{isolation:isolate;}.cls-11{opacity:0.25;}.cls-12{opacity:0;fill:url(#linear-gradient-7);}.cls-13{opacity:0.13;fill:url(#linear-gradient-8);}.cls-14{opacity:0.26;fill:url(#linear-gradient-9);}.cls-15{opacity:0.39;fill:url(#linear-gradient-10);}.cls-16{opacity:0.51;fill:url(#linear-gradient-11);}.cls-17{opacity:0.64;fill:url(#linear-gradient-12);}.cls-18{opacity:0.77;fill:url(#linear-gradient-13);}.cls-105,.cls-19{opacity:0.9;}.cls-19{fill:url(#linear-gradient-14);}.cls-20,.cls-21{opacity:0.3;}.cls-20{fill:url(#linear-gradient-15);}.cls-21{fill:url(#linear-gradient-16);}.cls-22{fill:#1c4b5f;mix-blend-mode:multiply;}.cls-103,.cls-117,.cls-22{opacity:0.2;}.cls-23{opacity:0.88;}.cls-24{fill:url(#linear-gradient-17);}.cls-25{fill:url(#linear-gradient-18);}.cls-26{clip-path:url(#clip-path);}.cls-27{fill:url(#linear-gradient-21);}.cls-28{clip-path:url(#clip-path-2);}.cls-29{clip-path:url(#clip-path-3);}.cls-30{clip-path:url(#clip-path-4);}.cls-31{fill:url(#linear-gradient-27);}.cls-32{fill:url(#linear-gradient-28);}.cls-33{fill:url(#linear-gradient-29);}.cls-34{clip-path:url(#clip-path-5);}.cls-35{fill:url(#linear-gradient-32);}.cls-36{fill:url(#linear-gradient-33);}.cls-37{fill:url(#linear-gradient-34);}.cls-38{fill:url(#linear-gradient-35);}.cls-39,.cls-44,.cls-46,.cls-63,.cls-64{opacity:0.8;}.cls-40{fill:url(#linear-gradient-36);}.cls-41{fill:url(#linear-gradient-37);}.cls-42{fill:url(#linear-gradient-38);}.cls-43,.cls-46{fill:#ffcdb3;}.cls-44,.cls-47{fill:#ffbc99;}.cls-45{fill:#f8c5aa;}.cls-45,.cls-48,.cls-65{opacity:0.49;}.cls-49{clip-path:url(#clip-path-6);}.cls-50{clip-path:url(#clip-path-7);}.cls-51{clip-path:url(#clip-path-8);}.cls-52{fill:#119ced;}.cls-53{fill:#f5f5fd;}.cls-54{fill:url(#linear-gradient-39);}.cls-55{fill:#5c697c;}.cls-56{fill:#1b1b1b;}.cls-57{fill:#1b1823;}.cls-58{fill:#404040;}.cls-59{fill:#21212b;}.cls-60{fill:url(#linear-gradient-40);}.cls-61,.cls-70,.cls-85{opacity:0.5;}.cls-61{fill:url(#linear-gradient-41);}.cls-62{fill:url(#linear-gradient-42);}.cls-63{fill:#ffd8c3;}.cls-64{fill:#f5aaa5;}.cls-65{fill:#e9a37d;}.cls-66{clip-path:url(#clip-path-9);}.cls-67{fill:url(#linear-gradient-44);}.cls-68{fill:url(#linear-gradient-45);}.cls-69{fill:url(#linear-gradient-46);}.cls-70{fill:url(#linear-gradient-47);}.cls-71{fill:url(#linear-gradient-48);}.cls-72{fill:url(#linear-gradient-49);}.cls-73{fill:url(#linear-gradient-50);}.cls-74{fill:url(#linear-gradient-51);}.cls-75{fill:url(#linear-gradient-52);}.cls-76{fill:url(#linear-gradient-53);}.cls-77{fill:url(#linear-gradient-54);}.cls-78{fill:url(#linear-gradient-55);}.cls-79{fill:url(#linear-gradient-56);}.cls-80{fill:url(#linear-gradient-57);}.cls-81{fill:url(#linear-gradient-58);}.cls-82{fill:url(#linear-gradient-59);}.cls-83{fill:url(#linear-gradient-60);}.cls-84{fill:url(#linear-gradient-61);}.cls-85{fill:#c7c7c9;}.cls-86{fill:url(#linear-gradient-62);}.cls-87{fill:url(#linear-gradient-63);}.cls-88{fill:url(#linear-gradient-64);}.cls-89{fill:url(#linear-gradient-65);}.cls-90{fill:url(#linear-gradient-66);}.cls-91{fill:url(#linear-gradient-67);}.cls-92{fill:url(#linear-gradient-68);}.cls-93{fill:url(#linear-gradient-69);}.cls-94{fill:url(#linear-gradient-70);}.cls-95{fill:url(#linear-gradient-71);}.cls-96{fill:url(#linear-gradient-72);}.cls-97{fill:url(#linear-gradient-73);}.cls-98{fill:url(#linear-gradient-74);}.cls-99{fill:url(#linear-gradient-75);}.cls-100{fill:url(#linear-gradient-76);}.cls-101{fill:url(#linear-gradient-77);}.cls-102{fill:url(#linear-gradient-78);}.cls-103{fill:#445394;}.cls-104{fill:#f5c2a6;}.cls-105{fill:url(#linear-gradient-79);}.cls-106{clip-path:url(#clip-path-10);}.cls-107{clip-path:url(#clip-path-11);}.cls-108{fill:#21deff;}.cls-109{clip-path:url(#clip-path-12);}.cls-110{fill:#28292f;}.cls-111{fill:#ebb091;}.cls-112{fill:#ffd6bf;}.cls-113{fill:#e8edf9;}.cls-114{fill:url(#linear-gradient-80);}.cls-115{fill:url(#linear-gradient-81);}.cls-116{fill:url(#linear-gradient-82);}.cls-117{mix-blend-mode:screen;}.cls-118{fill:url(#linear-gradient-83);}.cls-119{fill:#f02031;}.cls-120{fill:#995033;}.cls-121{fill:#66311c;}.cls-122{fill:#951616;}.cls-123{fill:#d4ddf3;}.cls-124{fill:url(#linear-gradient-84);}.cls-125{fill:url(#linear-gradient-85);}.cls-126{clip-path:url(#clip-path-13);}.cls-127{fill:#fff;}</style><linearGradient id="linear-gradient" x1="149.53" y1="89.02" x2="162.18" y2="89.02" gradientUnits="userSpaceOnUse"><stop offset="0" stop-color="#eef5fa"/><stop offset="0.11" stop-color="#e1eff7" stop-opacity="0.99"/><stop offset="0.3" stop-color="#beddef" stop-opacity="0.95"/><stop offset="0.57" stop-color="#85c2e2" stop-opacity="0.9"/><stop offset="0.9" stop-color="#379cd0" stop-opacity="0.82"/><stop offset="1" stop-color="#1f90ca" stop-opacity="0.8"/></linearGradient><linearGradient id="linear-gradient-2" x1="158.49" y1="75.26" x2="174.92" y2="75.26" xlink:href="#linear-gradient"/><linearGradient id="linear-gradient-3" x1="71.34" y1="3.44" x2="74.62" y2="3.44" gradientUnits="userSpaceOnUse"><stop offset="0" stop-color="#0984bd"/><stop offset="1" stop-color="#56a5d7"/></linearGradient><linearGradient id="linear-gradient-4" x1="158.49" y1="76.16" x2="174.91" y2="76.16" xlink:href="#linear-gradient"/><linearGradient id="linear-gradient-5" x1="127.95" y1="7.77" x2="149.55" y2="7.77" xlink:href="#linear-gradient"/><linearGradient id="linear-gradient-6" x1="150.22" y1="20.49" x2="171.81" y2="20.49" xlink:href="#linear-gradient"/><linearGradient id="linear-gradient-7" x1="11.72" y1="99.4" x2="61.49" y2="99.4" gradientUnits="userSpaceOnUse"><stop offset="0" stop-color="#b8c9ff"/><stop offset="1" stop-color="#445394"/></linearGradient><linearGradient id="linear-gradient-8" x1="14.57" y1="99.4" x2="58.64" y2="99.4" xlink:href="#linear-gradient-7"/><linearGradient id="linear-gradient-9" x1="17.42" y1="99.4" x2="55.79" y2="99.4" xlink:href="#linear-gradient-7"/><linearGradient id="linear-gradient-10" x1="20.27" y1="99.4" x2="52.95" y2="99.4" xlink:href="#linear-gradient-7"/><linearGradient id="linear-gradient-11" x1="23.11" y1="99.4" x2="50.1" y2="99.4" xlink:href="#linear-gradient-7"/><linearGradient id="linear-gradient-12" x1="25.96" y1="99.4" x2="47.25" y2="99.4" xlink:href="#linear-gradient-7"/><linearGradient id="linear-gradient-13" x1="28.81" y1="99.4" x2="44.4" y2="99.4" xlink:href="#linear-gradient-7"/><linearGradient id="linear-gradient-14" x1="31.66" y1="99.4" x2="41.55" y2="99.4" xlink:href="#linear-gradient-7"/><linearGradient id="linear-gradient-15" x1="3.74" y1="124.66" x2="153.52" y2="124.66" gradientTransform="translate(0.7 -0.1) rotate(0.01)" gradientUnits="userSpaceOnUse"><stop offset="0" stop-color="#abd1ec"/><stop offset="1" stop-color="#abd1ec"/></linearGradient><linearGradient id="linear-gradient-16" x1="3.74" y1="130.9" x2="153.52" y2="130.9" xlink:href="#linear-gradient-15"/><linearGradient id="linear-gradient-17" x1="146.12" y1="90.06" x2="151.51" y2="90.06" xlink:href="#linear-gradient"/><linearGradient id="linear-gradient-18" x1="147.82" y1="91.12" x2="153.22" y2="91.12" xlink:href="#linear-gradient"/><clipPath id="clip-path"><path class="cls-1" d="M158.49,88.27,162.18,86a30.39,30.39,0,0,1-9,3.82l-3.69,2.31A30.39,30.39,0,0,0,158.49,88.27Z"/></clipPath><linearGradient id="linear-gradient-21" x1="124.74" y1="5.25" x2="131.64" y2="5.25" xlink:href="#linear-gradient"/><clipPath id="clip-path-2"><path class="cls-2" d="M158.49,88.27,162.18,86c6-3.74,12.7-10.81,12.74-23.7l-3.69,2.31C171.19,77.46,164.45,84.53,158.49,88.27Z"/></clipPath><clipPath id="clip-path-3"><path class="cls-6" d="M158.49,89.17l3.69-2.31c6-3.74,12.7-10.81,12.73-23.7l-3.68,2.31C171.19,78.36,164.45,85.43,158.49,89.17Z"/></clipPath><clipPath id="clip-path-4"><path class="cls-7" d="M145.86,8.12l3.69-2.32s-4,2.5-8.05,2.26a21.81,21.81,0,0,1-9.86-2.91L128,7.47a22,22,0,0,0,9.86,2.9C141.9,10.61,145.82,8.13,145.86,8.12Z"/></clipPath><linearGradient id="linear-gradient-27" x1="131.46" y1="8.09" x2="149.55" y2="8.09" xlink:href="#linear-gradient"/><linearGradient id="linear-gradient-28" x1="127.95" y1="7.12" x2="135.15" y2="7.12" xlink:href="#linear-gradient"/><linearGradient id="linear-gradient-29" x1="148.05" y1="7.61" x2="153.91" y2="7.61" xlink:href="#linear-gradient"/><clipPath id="clip-path-5"><path class="cls-8" d="M168.12,32.47l3.69-2.31c-.74-.46-4.42-2.91-9.89-9.39a83,83,0,0,1-8-12.26l-3.69,2.31a83.88,83.88,0,0,0,8,12.26C163.7,29.56,167.38,32,168.12,32.47Z"/></clipPath><linearGradient id="linear-gradient-32" x1="171.23" y1="49.17" x2="174.99" y2="49.17" xlink:href="#linear-gradient"/><linearGradient id="linear-gradient-33" x1="171.23" y1="48.72" x2="174.99" y2="48.72" xlink:href="#linear-gradient"/><linearGradient id="linear-gradient-34" x1="171.31" y1="33.57" x2="175" y2="33.57" xlink:href="#linear-gradient"/><linearGradient id="linear-gradient-35" x1="168.12" y1="32.22" x2="175" y2="32.22" xlink:href="#linear-gradient"/><linearGradient id="linear-gradient-36" x1="147.83" y1="50" x2="168.25" y2="50" gradientTransform="matrix(1, 0, 0, 1, 0, 0)" xlink:href="#linear-gradient-15"/><linearGradient id="linear-gradient-37" x1="124.63" y1="48.9" x2="171.31" y2="48.9" gradientTransform="matrix(1, 0, 0, 1, 0, 0)" xlink:href="#linear-gradient-15"/><linearGradient id="linear-gradient-38" x1="127.68" y1="49.51" x2="148.03" y2="49.51" gradientTransform="matrix(1, 0, 0, 1, 0, 0)" xlink:href="#linear-gradient-15"/><clipPath id="clip-path-6"><path class="cls-9" d="M16.38,97.55l0,6.08a2.52,2.52,0,0,0,1.38,2.07l0-6.08A2.57,2.57,0,0,1,16.38,97.55Z"/></clipPath><clipPath id="clip-path-7"><path class="cls-9" d="M131,124.41v-6.08a2.56,2.56,0,0,1-1.41,2.1l0,6.08A2.57,2.57,0,0,0,131,124.41Z"/></clipPath><clipPath id="clip-path-8"><path class="cls-9" d="M87,142.55l0,6.08a7.07,7.07,0,0,0,6.74,0v-6.08A7,7,0,0,1,87,142.55Z"/></clipPath><linearGradient id="linear-gradient-39" x1="109.86" y1="130.82" x2="103.51" y2="128.45" gradientTransform="translate(0.7 -0.1) rotate(0.01)" gradientUnits="userSpaceOnUse"><stop offset="0.01" stop-color="#857faa"/><stop offset="0.22" stop-color="#8f89b4"/><stop offset="0.64" stop-color="#9d98c2"/><stop offset="0.99" stop-color="#a29dc7"/></linearGradient><linearGradient id="linear-gradient-40" x1="21.19" y1="121.43" x2="79.61" y2="121.43" xlink:href="#linear-gradient-3"/><linearGradient id="linear-gradient-41" x1="20.49" y1="90.45" x2="68.77" y2="90.45" gradientTransform="translate(0.7 -0.1) rotate(0.01)" gradientUnits="userSpaceOnUse"><stop offset="0" stop-color="#148a9e"/><stop offset="1" stop-color="#087dc2"/></linearGradient><linearGradient id="linear-gradient-42" x1="154.65" y1="128.52" x2="-15.62" y2="83.77" gradientUnits="userSpaceOnUse"><stop offset="0" stop-color="#38c5ea"/><stop offset="1" stop-color="#294688"/></linearGradient><clipPath id="clip-path-9"><path class="cls-3" d="M71.34,4l1.92-1.19A1.26,1.26,0,0,1,74.62,3L72.71,4.17A1.28,1.28,0,0,0,71.34,4Z"/></clipPath><linearGradient id="linear-gradient-44" x1="71.34" y1="3.37" x2="74.13" y2="3.37" xlink:href="#linear-gradient-3"/><linearGradient id="linear-gradient-45" x1="72.21" y1="3.46" x2="74.62" y2="3.46" xlink:href="#linear-gradient-3"/><linearGradient id="linear-gradient-46" x1="72.71" y1="25.63" x2="146.17" y2="25.63" xlink:href="#linear-gradient-3"/><linearGradient id="linear-gradient-47" x1="146.11" y1="50.9" x2="148.1" y2="50.9" xlink:href="#linear-gradient-3"/><linearGradient id="linear-gradient-48" x1="144.26" y1="75.71" x2="148.1" y2="75.71" xlink:href="#linear-gradient-3"/><linearGradient id="linear-gradient-49" x1="70.65" y1="54.18" x2="146.18" y2="54.18" xlink:href="#linear-gradient"/><linearGradient id="linear-gradient-50" x1="70.65" y1="67.08" x2="146.15" y2="67.08" xlink:href="#linear-gradient-3"/><linearGradient id="linear-gradient-51" x1="70.68" y1="41.15" x2="142.63" y2="41.15" xlink:href="#linear-gradient-3"/><linearGradient id="linear-gradient-52" x1="104.02" y1="37.38" x2="107.12" y2="37.38" gradientTransform="matrix(1, 0, 0, 1, 0, 0)" xlink:href="#linear-gradient-15"/><linearGradient id="linear-gradient-53" x1="107.75" y1="40.23" x2="109.94" y2="40.23" gradientTransform="matrix(1, 0, 0, 1, 0, 0)" xlink:href="#linear-gradient-15"/><linearGradient id="linear-gradient-54" x1="110.18" y1="42.46" x2="113.42" y2="42.46" gradientTransform="matrix(1, 0, 0, 1, 0, 0)" xlink:href="#linear-gradient-15"/><linearGradient id="linear-gradient-55" x1="114.04" y1="43.83" x2="117.3" y2="43.83" gradientTransform="matrix(1, 0, 0, 1, 0, 0)" xlink:href="#linear-gradient-15"/><linearGradient id="linear-gradient-56" x1="118.24" y1="45.36" x2="119.17" y2="45.36" gradientTransform="matrix(1, 0, 0, 1, 0, 0)" xlink:href="#linear-gradient-15"/><linearGradient id="linear-gradient-57" x1="119.84" y1="47.11" x2="122.52" y2="47.11" gradientTransform="matrix(1, 0, 0, 1, 0, 0)" xlink:href="#linear-gradient-15"/><linearGradient id="linear-gradient-58" x1="124.75" y1="50.19" x2="127.85" y2="50.19" gradientTransform="matrix(1, 0, 0, 1, 0, 0)" xlink:href="#linear-gradient-15"/><linearGradient id="linear-gradient-59" x1="128.38" y1="53.46" x2="131.44" y2="53.46" gradientTransform="matrix(1, 0, 0, 1, 0, 0)" xlink:href="#linear-gradient-15"/><linearGradient id="linear-gradient-60" x1="132.32" y1="55.41" x2="134.51" y2="55.41" gradientTransform="matrix(1, 0, 0, 1, 0, 0)" xlink:href="#linear-gradient-15"/><linearGradient id="linear-gradient-61" x1="134.76" y1="56.63" x2="138.02" y2="56.63" gradientTransform="matrix(1, 0, 0, 1, 0, 0)" xlink:href="#linear-gradient-15"/><linearGradient id="linear-gradient-62" x1="74.75" y1="41.59" x2="77.85" y2="41.59" gradientTransform="matrix(1, 0, 0, 1, 0, 0)" xlink:href="#linear-gradient-15"/><linearGradient id="linear-gradient-63" x1="78.52" y1="43.92" x2="81.62" y2="43.92" gradientTransform="matrix(1, 0, 0, 1, 0, 0)" xlink:href="#linear-gradient-15"/><linearGradient id="linear-gradient-64" x1="82.29" y1="46.25" x2="85.39" y2="46.25" gradientTransform="matrix(1, 0, 0, 1, 0, 0)" xlink:href="#linear-gradient-15"/><linearGradient id="linear-gradient-65" x1="86.06" y1="48.58" x2="89.16" y2="48.58" gradientTransform="matrix(1, 0, 0, 1, 0, 0)" xlink:href="#linear-gradient-15"/><linearGradient id="linear-gradient-66" x1="91.37" y1="51.85" x2="94.47" y2="51.85" gradientTransform="matrix(1, 0, 0, 1, 0, 0)" xlink:href="#linear-gradient-15"/><linearGradient id="linear-gradient-67" x1="95.14" y1="54.18" x2="98.24" y2="54.18" gradientTransform="matrix(1, 0, 0, 1, 0, 0)" xlink:href="#linear-gradient-15"/><linearGradient id="linear-gradient-68" x1="98.91" y1="56.51" x2="102.01" y2="56.51" gradientTransform="matrix(1, 0, 0, 1, 0, 0)" xlink:href="#linear-gradient-15"/><linearGradient id="linear-gradient-69" x1="102.68" y1="58.84" x2="105.78" y2="58.84" gradientTransform="matrix(1, 0, 0, 1, 0, 0)" xlink:href="#linear-gradient-15"/><linearGradient id="linear-gradient-70" x1="107.99" y1="62.12" x2="111.09" y2="62.12" gradientTransform="matrix(1, 0, 0, 1, 0, 0)" xlink:href="#linear-gradient-15"/><linearGradient id="linear-gradient-71" x1="111.76" y1="64.45" x2="114.86" y2="64.45" gradientTransform="matrix(1, 0, 0, 1, 0, 0)" xlink:href="#linear-gradient-15"/><linearGradient id="linear-gradient-72" x1="115.53" y1="66.78" x2="118.63" y2="66.78" gradientTransform="matrix(1, 0, 0, 1, 0, 0)" xlink:href="#linear-gradient-15"/><linearGradient id="linear-gradient-73" x1="119.3" y1="69.11" x2="122.4" y2="69.11" gradientTransform="matrix(1, 0, 0, 1, 0, 0)" xlink:href="#linear-gradient-15"/><linearGradient id="linear-gradient-74" x1="124.61" y1="72.38" x2="127.71" y2="72.38" gradientTransform="matrix(1, 0, 0, 1, 0, 0)" xlink:href="#linear-gradient-15"/><linearGradient id="linear-gradient-75" x1="128.38" y1="74.71" x2="131.48" y2="74.71" gradientTransform="matrix(1, 0, 0, 1, 0, 0)" xlink:href="#linear-gradient-15"/><linearGradient id="linear-gradient-76" x1="132.15" y1="77.04" x2="135.25" y2="77.04" gradientTransform="matrix(1, 0, 0, 1, 0, 0)" xlink:href="#linear-gradient-15"/><linearGradient id="linear-gradient-77" x1="135.92" y1="79.37" x2="139.02" y2="79.37" gradientTransform="matrix(1, 0, 0, 1, 0, 0)" xlink:href="#linear-gradient-15"/><linearGradient id="linear-gradient-78" x1="73.94" y1="24.73" x2="84.87" y2="24.73" gradientUnits="userSpaceOnUse"><stop offset="0" stop-color="#fab371"/><stop offset="1" stop-color="#fcd5b0"/></linearGradient><linearGradient id="linear-gradient-79" x1="31.08" y1="109.24" x2="38.66" y2="109.24" gradientUnits="userSpaceOnUse"><stop offset="0" stop-color="#f57454"/><stop offset="1" stop-color="#f7947c"/></linearGradient><clipPath id="clip-path-10"><path class="cls-4" d="M42.51,113.14l-2.24-1.41c-.06,0-.06-.15,0-.27l2.24,1.4C42.45,113,42.45,113.1,42.51,113.14Z"/></clipPath><clipPath id="clip-path-11"><path class="cls-4" d="M42.77,106.81,45,108.22h0a.12.12,0,0,0-.1,0l-2.24-1.4a.1.1,0,0,1,.1,0Z"/></clipPath><clipPath id="clip-path-12"><path class="cls-4" d="M44.78,108.37,42.54,107a.26.26,0,0,1,.12-.13l2.24,1.4A.28.28,0,0,0,44.78,108.37Z"/></clipPath><linearGradient id="linear-gradient-80" x1="24.29" y1="119" x2="24.32" y2="119" gradientUnits="userSpaceOnUse"><stop offset="0.05" stop-color="#14416a"/><stop offset="1" stop-color="#004f98"/></linearGradient><linearGradient id="linear-gradient-81" x1="22.22" y1="128.42" x2="35.4" y2="128.42" xlink:href="#linear-gradient-80"/><linearGradient id="linear-gradient-82" x1="22.99" y1="113.21" x2="33.74" y2="113.21" xlink:href="#linear-gradient-79"/><linearGradient id="linear-gradient-83" x1="20.31" y1="111.72" x2="20.51" y2="111.72" xlink:href="#linear-gradient-79"/><linearGradient id="linear-gradient-84" x1="30.04" y1="111.8" x2="37.15" y2="111.8" xlink:href="#linear-gradient-79"/><linearGradient id="linear-gradient-85" x1="32.2" y1="114.75" x2="42.53" y2="114.75" xlink:href="#linear-gradient-79"/><clipPath id="clip-path-13"><polygon class="cls-5" points="56.66 114.47 41.27 100.8 76.08 91.17 91.48 104.84 56.66 114.47"/></clipPath></defs><g class="cls-10"><g id="Effortless_EKYC_Transation_Management" data-name="Effortless EKYC Transation Management"><g class="cls-11"><path class="cls-12" d="M61.49,99.4c0-14.82-11.14-26.83-24.88-26.83s-24.89,12-24.89,26.83,11.14,26.83,24.89,26.83S61.49,114.22,61.49,99.4Z"/><path class="cls-13" d="M58.64,99.4c0-13.12-9.86-23.76-22-23.76s-22,10.64-22,23.76,9.86,23.76,22,23.76S58.64,112.52,58.64,99.4Z"/><path class="cls-14" d="M55.79,99.4c0-11.43-8.59-20.69-19.18-20.69S17.42,88,17.42,99.4,26,120.09,36.61,120.09,55.79,110.83,55.79,99.4Z"/><path class="cls-15" d="M53,99.4c0-9.73-7.32-17.62-16.34-17.62S20.27,89.67,20.27,99.4,27.58,117,36.61,117,53,109.13,53,99.4Z"/><path class="cls-16" d="M50.1,99.4c0-8-6-14.54-13.49-14.54s-13.5,6.51-13.5,14.54,6,14.54,13.5,14.54S50.1,107.43,50.1,99.4Z"/><path class="cls-17" d="M47.25,99.4c0-6.34-4.77-11.47-10.64-11.47S26,93.06,26,99.4s4.77,11.47,10.65,11.47S47.25,105.74,47.25,99.4Z"/><path class="cls-18" d="M44.4,99.4c0-4.64-3.49-8.4-7.79-8.4s-7.8,3.76-7.8,8.4,3.49,8.4,7.8,8.4S44.4,104,44.4,99.4Z"/><path class="cls-19" d="M41.55,99.4a5.15,5.15,0,0,0-4.94-5.33,5.34,5.34,0,0,0,0,10.66A5.15,5.15,0,0,0,41.55,99.4Z"/></g><ellipse class="cls-20" cx="79.32" cy="124.57" rx="74.89" ry="46.19"/><ellipse class="cls-21" cx="79.32" cy="130.81" rx="74.89" ry="46.19"/><path class="cls-22" d="M37.25,146.91c4.81,3,4.81,7.84,0,10.83s-12.6,3-17.41,0-4.81-7.84,0-10.83S32.44,143.91,37.25,146.91Z"/><g class="cls-23"><polygon class="cls-24" points="147.82 92.45 151.51 90.14 149.81 87.66 146.12 89.97 147.82 92.45"/><polygon class="cls-25" points="149.53 92.09 153.22 89.78 151.51 90.14 147.82 92.45 149.53 92.09"/><g class="cls-10"><path class="cls-1" d="M158.49,88.27,162.18,86a30.39,30.39,0,0,1-9,3.82l-3.69,2.31A30.39,30.39,0,0,0,158.49,88.27Z"/><g class="cls-26"><path class="cls-1" d="M158.49,88.27,162.18,86a30.39,30.39,0,0,1-9,3.82l-3.69,2.31a30.39,30.39,0,0,0,9-3.82Z"/></g></g><polygon class="cls-27" points="127.95 7.46 131.64 5.15 128.43 3.04 124.74 5.35 127.95 7.46"/><g class="cls-10"><path class="cls-2" d="M158.49,88.27,162.18,86c6-3.74,12.7-10.81,12.74-23.7l-3.69,2.31C171.19,77.46,164.45,84.53,158.49,88.27Z"/><g class="cls-28"><path class="cls-2" d="M158.49,88.27,162.18,86c6-3.74,12.7-10.81,12.74-23.7l-3.69,2.31c0,12.89-6.78,20-12.74,23.7Z"/></g></g><g class="cls-10"><path class="cls-6" d="M158.49,89.17l3.69-2.31c6-3.74,12.7-10.81,12.73-23.7l-3.68,2.31C171.19,78.36,164.45,85.43,158.49,89.17Z"/><g class="cls-29"><path class="cls-6" d="M158.49,89.17l3.69-2.31c6-3.74,12.7-10.81,12.73-23.7l-3.68,2.31c0,12.89-6.78,20-12.74,23.7Z"/></g></g><g class="cls-10"><path class="cls-7" d="M145.86,8.12l3.69-2.32s-4,2.5-8.05,2.26a21.81,21.81,0,0,1-9.86-2.91L128,7.47a22,22,0,0,0,9.86,2.9C141.9,10.61,145.82,8.13,145.86,8.12Z"/><g class="cls-30"><path class="cls-31" d="M145.86,8.12l3.69-2.32s-4,2.5-8.05,2.26a23.63,23.63,0,0,1-6.35-1.28l-3.69,2.31a23.72,23.72,0,0,0,6.35,1.28c4.09.24,8-2.24,8.05-2.25Z"/><path class="cls-32" d="M131.46,9.09l3.69-2.31a18.18,18.18,0,0,1-3.51-1.63L128,7.47a18.41,18.41,0,0,0,3.51,1.62Z"/></g></g><polygon class="cls-33" points="150.22 10.82 153.91 8.51 151.73 4.39 148.04 6.71 150.22 10.82"/><g class="cls-10"><path class="cls-8" d="M168.12,32.47l3.69-2.31c-.74-.46-4.42-2.91-9.89-9.39a83,83,0,0,1-8-12.26l-3.69,2.31a83.88,83.88,0,0,0,8,12.26C163.7,29.56,167.38,32,168.12,32.47Z"/><g class="cls-34"><path class="cls-8" d="M168.12,32.47l3.69-2.31c-.74-.46-4.42-2.91-9.89-9.39a83,83,0,0,1-8-12.26l-3.69,2.31a83.88,83.88,0,0,0,8,12.26c5.47,6.48,9.15,8.93,9.89,9.39Z"/></g></g><polygon class="cls-35" points="171.23 65.47 174.91 63.16 174.99 32.86 171.31 35.17 171.23 65.47"/><polygon class="cls-36" points="171.23 64.57 174.92 62.26 174.99 32.86 171.31 35.17 171.23 64.57"/><polygon class="cls-37" points="171.31 35.17 174.99 32.86 175 31.96 171.31 34.27 171.31 35.17"/><polygon class="cls-38" points="171.31 34.27 175 31.96 171.81 30.16 168.12 32.47 171.31 34.27"/></g><g class="cls-39"><path class="cls-40" d="M157,25.73A86.93,86.93,0,0,1,148,12.1l-.2,75.8c1-.22,20.3-4.33,20.35-25.23l.07-26.35a1.34,1.34,0,0,1-.19-.11C167.13,35.63,162.94,32.82,157,25.73Z"/></g><path class="cls-41" d="M128,7.47a22,22,0,0,0,9.86,2.9c4.09.24,8-2.24,8.05-2.25l2.19-1.41,2.17,4.11a83.88,83.88,0,0,0,8,12.26c5.47,6.48,9.15,8.93,9.89,9.39l3.19,1.8v.9l-.08,29.4c-.06,22.64-20.82,27.33-21.7,27.52l-1.71.36L146.12,90c-.88-1.29-21.55-31.76-21.49-54.41l.07-26.34,0-3.87Zm-.27,30c0,.47,0,.94,0,1.48s.06,1.13.12,1.82c0,.15,0,.3,0,.46,2.06,20.49,19.93,46.64,20,46.68,1-.22,20.3-4.33,20.35-25.23l.07-26.35a1.34,1.34,0,0,1-.19-.11c-.93-.58-5.12-3.39-11.1-10.48A86.93,86.93,0,0,1,148,12.1a16.88,16.88,0,0,1-9,2.49A24.77,24.77,0,0,1,128,11.24l-.2-.12-.07,26.34Z"/><g class="cls-39"><path class="cls-42" d="M148,12.1a16.34,16.34,0,0,1-9,2.49A24.77,24.77,0,0,1,128,11.24l-.2-.12-.07,26.34q0,.7,0,1.41c0,.63.06,1.2.11,1.77,0,.27,0,.42.05.58,2.06,20.5,19.07,45.37,20,46.68Z"/></g><path class="cls-22" d="M137.49,135.67A4.14,4.14,0,0,0,136,133h0l0,0a3.37,3.37,0,0,0-.61-.36c-2.33-1.4-5.6-3.78-7.76-4.94a131.37,131.37,0,0,1-19.54-12.88L97.15,131.32V115.86q-3.2-1.38-6.48-2.58a21,21,0,0,0-7.27-1.63c-3.16,0-6.17,1.34-9.28,2-2.87.62-5.83.68-8.71,1.29-2.62.56-5,2.21-7.72,2.31-10.77.39-23.43-2.3-28.15,1-2.08,1.47-1.87,5.36-1,6.4a5.49,5.49,0,0,0,3.62,1.53c7.48.92,18.67,1.59,28.49-.06-7,2.16-15.27,2.56-22.58,3.11a3.67,3.67,0,0,0-3.34.87,3.72,3.72,0,0,0-.93,2.59c0,.1,0,.21,0,.31a3.91,3.91,0,0,0,1.76,3.17,5.1,5.1,0,0,0,1.21.47,33.44,33.44,0,0,0,10.07,2.21c4.73.2,9.45-.67,14.18-.59,1.14,0,2.49.22,3,1.3a28.26,28.26,0,0,1-9.44,2.13s-1.71,6.37,1.47,7.71c2.5,1.05,6.45.71,10.37.31a19.12,19.12,0,0,0,.5,3.34,10.71,10.71,0,0,0,.48,1.38s0,0,0,.05.09.18.13.28.19.44.3.65a7.83,7.83,0,0,0,.59,1,3.9,3.9,0,0,0,2.93,1.76,2.6,2.6,0,0,0,.56,0v0c8.91-1.21,25.14-8.44,25.14-8.44a99,99,0,0,1,8.62,5.81c2.35,1.71,6.13,4.37,8.75,6.06l.16.1.17.11h0c2.56,1.36,7.21-.41,12.11-5.05C133.75,150.38,138.46,140.92,137.49,135.67Z"/><path class="cls-43" d="M65.92,126.19l.06,0-.06-.1,0,0h0Z"/><path class="cls-44" d="M113,98.48a156.9,156.9,0,0,0,23.32,15.38c2.83,1.52,7.25,4.79,10.05,6.35-.36.27-16.19,11.45-17.63,13.45a64.24,64.24,0,0,0-7.13,13.19c-.88,2.14.2,5.56-.51,7.79-3.13-2-7.92-5.36-10.83-7.49a105.87,105.87,0,0,0-12-7.89,84.12,84.12,0,0,0-8.75-4l-.62-.24Z"/><path class="cls-45" d="M77.77,125.18H68.64V100.4c3-1.21,7.33-2.92,8.63-3.41a5.21,5.21,0,0,0,3.29-4.34c.59-4.52-2.92-7.73-6.17-9.75-3.53-2.19-8-4.09-9.49-8.54a9.94,9.94,0,0,1-.44-3.52A5.05,5.05,0,0,1,65.05,68c.68-.91,1.83-.66,2.72-.32,1.08.41,2.13.89,3.19,1.34,4.8,2,9.29,5,14.06,6.86,5,1.94,15.57,6.47,15.57,6.47s15.09,10.58,16.9,22c.7,4.41,1,8.7,1.8,13,.56,3.14,2,6,2.87,9s.89,6.71-1.1,9.08a9.35,9.35,0,0,1-4.15,2.58c-2.67,1-20.36,4.07-22.63,5.16-3.19,1.54-10.46,2.36-16.51,2.71Z"/><path class="cls-46" d="M28.37,115.81c9-.7,19.38-1.1,28-3.79-11.72,2-25.08,1.17-34,.08a6.58,6.58,0,0,1-4.32-1.84c-1.08-1.24-1.33-5.88,1.16-7.63,5.63-3.95,20.75-.74,33.6-1.21,3.19-.11,6.09-2.09,9.22-2.75,3.43-.73,7-.81,10.4-1.55,3.7-.8,7.3-2.37,11.08-2.4a25.38,25.38,0,0,1,8.68,2q3.9,1.42,7.73,3.08v42.34c-10.54,2.39-19.37,6.76-30,8.21l-1.34-9.61H67.28a.94.94,0,0,0-.11-.89c-5.77.51-12.4,1.61-16.2,0s-1.75-9.21-1.75-9.21a33.66,33.66,0,0,0,11.26-2.53c-.66-1.29-2.26-1.53-3.63-1.55-5.65-.1-11.28.93-16.93.7-3.43-.15-9.44-1.33-12.53-2.88Z"/><path class="cls-43" d="M24.36,120.23c0-.12,0-.24,0-.37a4.46,4.46,0,0,1,1.11-3.09c1.38-1.64,5.68-1.64,6,.84.31,2.14.16,4.72-1.05,6.48-.91,1.32-3.48.25-4-.07A4.67,4.67,0,0,1,24.36,120.23Z"/><g class="cls-39"><path class="cls-47" d="M20.81,101.8c6.53-2.61,20.23,0,32-.38,3.19-.11,6.09-2.09,9.22-2.75,3.43-.73,7-.81,10.4-1.55,3.7-.8,7.3-2.37,11.08-2.4a25.38,25.38,0,0,1,8.68,2q3.9,1.42,7.73,3.08V138.2a17.77,17.77,0,0,0-2.08-2.08c-11-9.39-25-9.81-38.2-9a5.37,5.37,0,0,0-2.81-.64c-3,0-6.06.22-9.09.45a6.06,6.06,0,0,0-2.35-3C41,121,36,119.37,32.6,115.5c7.91-.57,16.48-1.2,23.8-3.48-10,1.69-21.3,1.34-29.93.52C22.6,110,19.21,106.7,20.81,101.8Z"/><path class="cls-47" d="M97.86,136.12a17.77,17.77,0,0,1,2.08,2.08v3.89c-3.71.84-7.22,1.93-10.66,3-4.23-6.92-11.47-12.34-19.51-11.27a2.76,2.76,0,0,0-1,.47c-.64,1.15-1,2.86.12,3.93a3.6,3.6,0,0,0-2.84,1.63l-2.5.26a3.08,3.08,0,0,0-.05-.61c-.32-2.13-2.63-3.2-4.17-4.62s-1.63-4.2-.55-6.17a17.61,17.61,0,0,0,1.69-.69,2.34,2.34,0,0,0-.82-.91C72.89,126.31,86.9,126.73,97.86,136.12Z"/><path class="cls-47" d="M69.77,133.87c8-1.07,15.28,4.35,19.51,11.27-3.16,1-6.27,2.08-9.45,3a7,7,0,0,0-.19-.79c-.87-2.83-3.84-3.66-5.81-5.67-1.21-1.3-2.31-2.84-4.06-3.32a3.18,3.18,0,0,0-.87-.09c-1.09-1.07-.76-2.78-.12-3.93A2.76,2.76,0,0,1,69.77,133.87Z"/></g><g class="cls-48"><g class="cls-10"><path class="cls-9" d="M16.38,97.55l0,6.08a2.52,2.52,0,0,0,1.38,2.07l0-6.08A2.57,2.57,0,0,1,16.38,97.55Z"/><g class="cls-49"><g class="cls-10"><path class="cls-9" d="M16.38,97.55l0,6.08a2.52,2.52,0,0,0,1.38,2.07l0-6.08a2.57,2.57,0,0,1-1.38-2.07Z"/></g></g><path class="cls-9" d="M131,124.41v-6.08a2.56,2.56,0,0,1-1.41,2.1l0,6.08A2.57,2.57,0,0,0,131,124.41Z"/><g class="cls-50"><g class="cls-10"><path class="cls-9" d="M129.57,120.43l0,6.08a2.57,2.57,0,0,0,1.4-2.1v-6.08a2.56,2.56,0,0,1-1.41,2.1Z"/></g></g><polygon class="cls-9" points="17.76 99.62 17.78 105.7 86.97 148.63 86.95 142.55 17.76 99.62"/><polygon class="cls-9" points="93.7 142.55 93.71 148.63 129.59 126.51 129.57 120.43 93.7 142.55"/><path class="cls-9" d="M87,142.55l0,6.08a7.07,7.07,0,0,0,6.74,0v-6.08A7,7,0,0,1,87,142.55Z"/><g class="cls-51"><path class="cls-9" d="M87,142.55l0,6.08a7.07,7.07,0,0,0,6.74,0v-6.08a7,7,0,0,1-6.75,0Z"/></g><polygon class="cls-52" points="63.83 75.46 21.19 101.75 79.61 137.99 122.25 111.7 63.83 75.46"/><path class="cls-53" d="M60.41,73.33a7,7,0,0,0-6.75,0L17.79,95.45c-1.86,1.15-1.87,3,0,4.17l3.43,2.13L63.83,75.46Z"/><path class="cls-53" d="M129.6,116.26l-7.35-4.56L79.61,138,87,142.55a7,7,0,0,0,6.75,0l35.87-22.12C131.43,119.29,131.44,117.41,129.6,116.26Z"/></g><path class="cls-54" d="M110.69,128.78,106,132a4.92,4.92,0,0,1-4.76.21,1.6,1.6,0,0,1-.08-2.95l4.76-3.21a4.86,4.86,0,0,1,4.74-.19,1.6,1.6,0,0,1,.08,3Z"/><polygon class="cls-53" points="122.02 130.03 125.77 127.52 125.77 124.7 122.02 127.2 122.02 130.03"/><polygon class="cls-55" points="125.01 127.05 122.18 128.99 122.18 129.75 125.61 127.43 125.61 127.43 125.01 127.05"/><polygon class="cls-56" points="122.18 127.3 122.17 128.99 125.01 127.05 125.01 125.36 124.85 125.45 122.18 127.3"/><polygon class="cls-57" points="122.18 127.55 122.18 128.75 124.85 126.9 124.85 125.7 122.18 127.55"/><polygon class="cls-58" points="125.61 126.67 125.62 124.98 125.01 125.36 125.01 127.05 125.61 127.43 125.61 126.67"/><path class="cls-56" d="M129,124a2.92,2.92,0,0,1-1.1,2.25c-.61.37-1.1,0-1.1-.89a2.86,2.86,0,0,1,1.1-2.25C128.53,122.75,129,123.15,129,124Z"/><path class="cls-55" d="M127,125.62a2.86,2.86,0,0,0,1.1-2.24,2.66,2.66,0,0,0,0-.3c.56-.27,1,.12,1,.94a2.92,2.92,0,0,1-1.1,2.25c-.54.32-1,.06-1.08-.6A.24.24,0,0,0,127,125.62Z"/><path class="cls-9" d="M127.62,126.08a2.86,2.86,0,0,0,1.1-2.24,1.19,1.19,0,0,0-.25-.83c.33.06.56.43.56,1a2.92,2.92,0,0,1-1.1,2.25.62.62,0,0,1-.85-.06A.72.72,0,0,0,127.62,126.08Z"/><path class="cls-9" d="M33.44,90a1,1,0,0,0,.38.38A2.19,2.19,0,0,0,36,90.3L45,84.24a1,1,0,0,0,.34-.37.72.72,0,0,0-.39-1,2.19,2.19,0,0,0-2.17.09l-9,6.08C33.37,89.32,33.25,89.69,33.44,90Z"/><path class="cls-59" d="M33.44,90a1,1,0,0,0,.38.38A2.19,2.19,0,0,0,36,90.3L45,84.24a1,1,0,0,0,.34-.37.91.91,0,0,0-.39-.39,2.21,2.21,0,0,0-2.17.09l-9,6.08A.86.86,0,0,0,33.44,90Z"/><path class="cls-59" d="M20.17,96.81a1.17,1.17,0,0,0,.61.88,3.19,3.19,0,0,0,3,0,1.41,1.41,0,0,0,.45-.42,1,1,0,0,0-.45-1.45,3.19,3.19,0,0,0-3,0A1.06,1.06,0,0,0,20.17,96.81Z"/></g><polygon class="cls-60" points="21.19 101.75 21.19 104.87 79.61 141.12 79.61 137.99 21.19 101.75"/><polygon class="cls-61" points="63.83 75.46 21.19 101.75 26.82 105.24 69.46 78.95 63.83 75.46"/><path class="cls-9" d="M56.26,82.71,60.71,80l2.06,1.26L58.31,84Zm4.45-2.59-4.2,2.59,1.8,1.11,4.21-2.59Z"/><polygon class="cls-9" points="56.39 82.71 58.31 83.9 61.31 82.06 59.38 80.87 56.39 82.71"/><polygon class="cls-9" points="50.36 87.93 51.01 87.52 51.73 87.96 51.07 88.37 50.36 87.93"/><polygon class="cls-9" points="48.87 88.1 49.52 87.69 50.84 88.51 50.19 88.91 48.87 88.1"/><polygon class="cls-9" points="47.38 88.27 48.03 87.86 49.96 89.05 49.3 89.46 47.38 88.27"/><path class="cls-9" d="M57,83.49c.78.48.75.71.47.88l-.35.22a.72.72,0,0,1-.82,0L56,84.43c-.22-.13-.33-.29,0-.5a3.89,3.89,0,0,1,.61-.31c-.2-.12-.56-.3-.78-.17l-.65.41-.22-.14a4.55,4.55,0,0,1,.72-.5C55.89,83.1,56.3,83.09,57,83.49Zm-.16.26-.51.31c-.11.07-.14.13,0,.21l.22.14a.28.28,0,0,0,.35,0l.25-.15C57.33,84.1,57,83.9,56.8,83.75Z"/><path class="cls-9" d="M54.93,84l-.88.54,2.12.59-.32.19-2.29-.64-.06-.14,1.16-.71Z"/><path class="cls-9" d="M54.64,86.09l-.23.14-2.9-.44.22-.14Zm-.74-1c.21.13.24.25,0,.4l-.25.15a.53.53,0,0,1-.64,0l-.31-.19c-.21-.13-.24-.25,0-.4l.25-.15a.54.54,0,0,1,.65,0Zm-.24.12-.26-.16a.21.21,0,0,0-.27,0l-.2.13c-.1.06-.11.1,0,.16l.26.16a.2.2,0,0,0,.26,0l.21-.13C53.76,85.31,53.76,85.27,53.66,85.21Zm-.2,1.21c.21.13.24.25,0,.4l-.25.15a.57.57,0,0,1-.65,0l-.31-.2c-.21-.13-.24-.24,0-.39l.25-.16a.55.55,0,0,1,.65,0Zm-.24.12L53,86.38c-.1-.07-.15-.07-.27,0l-.2.13c-.1.06-.11.09,0,.16l.26.16a.21.21,0,0,0,.27,0l.2-.12C53.32,86.63,53.32,86.6,53.22,86.54Z"/><path class="cls-53" d="M45.82,91.45a.94.94,0,0,0-.89,0,.3.3,0,0,0,0,.55.94.94,0,0,0,.89,0A.3.3,0,0,0,45.82,91.45Z"/><path class="cls-53" d="M44.48,91.18a1.85,1.85,0,0,1,1-.25v-.28a2.46,2.46,0,0,0-1.28.33,1,1,0,0,0-.53.79h.44A.73.73,0,0,1,44.48,91.18Z"/><path class="cls-53" d="M43.79,90.75a3.14,3.14,0,0,1,1.66-.43v-.27a3.81,3.81,0,0,0-2,.5,1.49,1.49,0,0,0-.82,1.22h.45A1.24,1.24,0,0,1,43.79,90.75Z"/><path class="cls-53" d="M43.15,90.35a4.49,4.49,0,0,1,2.3-.58v-.28a5.09,5.09,0,0,0-2.61.67,2,2,0,0,0-1.08,1.61h.44A1.75,1.75,0,0,1,43.15,90.35Z"/><g id="envelope"><g id="envelope-2" data-name="envelope"><polygon class="cls-9" points="30.78 101.3 28.08 99.63 31.65 99.28 30.78 101.3"/><polygon class="cls-9" points="32.46 98.78 33.04 96.58 35.74 98.24 32.46 98.78"/><polygon class="cls-9" points="32.35 99.21 32.44 98.85 35.83 98.29 30.86 101.35 31.77 99.27 32.35 99.21"/><polygon class="cls-9" points="27.99 99.58 32.95 96.52 32.25 99.15 27.99 99.58"/></g></g><polygon class="cls-62" points="63.83 75.46 21.19 101.75 79.61 137.99 122.25 111.69 63.83 75.46"/><path class="cls-53" d="M94.72,104.06l-4.51,2.81.63.39L96,104.05l-4.67-2.9-.63.39ZM56.56,85.92l.63.4,4.52-2.82,4.13,2.58.63-.4-4.76-3ZM65,117.53l-.63.39L69,120.83l5.18-3.23-.63-.39L69.05,120Zm-30.25-18,4.76,3,.64-.4L36,99.49l4.54-2.83-.63-.4Z"/><path class="cls-63" d="M64.52,145.82s0,0,0,.06a3.27,3.27,0,0,1,.14.33l.36.77a8.94,8.94,0,0,0,.71,1.21,4.67,4.67,0,0,0,3.49,2.11,4.18,4.18,0,0,0,3.25-1.53,5.63,5.63,0,0,0,1.29-2.5,9.4,9.4,0,0,0-.12-4c-.06-.25-.12-.51-.19-.77s-.13-.53-.21-.78-.17-.51-.25-.77l-.11-.31a2.68,2.68,0,0,0-.12-.3c-.11-.31-.23-.59-.35-.88A8.21,8.21,0,0,0,70.82,136c-1.24-1.39-2.52-2.45-4-2.63a3.91,3.91,0,0,0-.49,0,2.56,2.56,0,0,0-2.1,1.22,6.22,6.22,0,0,0-1,3.18,20.41,20.41,0,0,0,.06,2.06,1.23,1.23,0,0,1,0,.2,25.25,25.25,0,0,0,.61,4.22A13.43,13.43,0,0,0,64.52,145.82Z"/><path class="cls-64" d="M70,136.59a5.38,5.38,0,0,0-1.88-1.42,2.49,2.49,0,0,0-2.24.14,3.71,3.71,0,0,0-1.34,2.57c-.16,1,0,3.06.2,3.05.86,0,3.54-.18,4.4-.26s3.15-.23,2.45-1.86A8.41,8.41,0,0,0,70,136.59Z"/><path class="cls-63" d="M47.79,131.56a.22.22,0,0,0,0,.08c0,.14,0,.28-.07.41,0,.33-.09.66-.13,1a12.49,12.49,0,0,0-.08,1.61A5.88,5.88,0,0,0,49.2,139a3.6,3.6,0,0,0,3.49.67,5.35,5.35,0,0,0,2.43-1.55,11.32,11.32,0,0,0,2.1-4c.1-.27.19-.57.28-.86s.18-.59.25-.89.15-.6.22-.9l.08-.36c0-.12.05-.26.07-.38.08-.36.14-.71.19-1.06a11.05,11.05,0,0,0,0-3.44c-.24-2.15-.7-4-1.82-5.15l-.38-.35a2.21,2.21,0,0,0-2.39-.21,6.36,6.36,0,0,0-2.54,2.41,22.5,22.5,0,0,0-1.08,2,1.47,1.47,0,0,1-.1.22,30.56,30.56,0,0,0-1.81,4.44A16.57,16.57,0,0,0,47.79,131.56Z"/><path class="cls-64" d="M56.83,122.94a2.55,2.55,0,0,0-1.15-1.51,1.75,1.75,0,0,0-1.48.09,4.39,4.39,0,0,0-1.2,1,13.11,13.11,0,0,0-2.07,3.15,1.27,1.27,0,0,0-.13,1.08,1.14,1.14,0,0,0,.75.49L54,128a5.76,5.76,0,0,0,1.82.43c1.33,0,1.45-1.61,1.46-2.74A7.6,7.6,0,0,0,56.83,122.94Z"/><ellipse class="cls-65" cx="133.43" cy="137.26" rx="21.36" ry="9.15" transform="matrix(0.6, -0.8, 0.8, 0.6, -56.52, 160.93)"/><path class="cls-53" d="M75.89,125.12a2.09,2.09,0,0,1,2.43,0l.26.16c.58.36.78.69.45,1.09a2.13,2.13,0,0,1,1.92.27l.47.29c.82.52.89,1.06,0,1.59l-1.27.79-5.53-3.43Zm2.2,1.56c.49-.31.58-.56,0-.92l-.32-.2a1.13,1.13,0,0,0-1.33-.08l-.61.38L77.61,127Zm2.8,1.51c.45-.28.42-.55-.1-.87l-.49-.3a1.31,1.31,0,0,0-1.59,0l-.54.33,2.06,1.28Z"/><path class="cls-53" d="M78.36,123.59,83.89,127l-.62.38L77.75,124Z"/><path class="cls-53" d="M80.28,124.05c-.84-.52-1-1.12-.13-1.65a2.43,2.43,0,0,1,2.66.08l2.86,1.78c.83.52,1,1.12.12,1.65a2.43,2.43,0,0,1-2.65-.08Zm3.5,1.42a1.29,1.29,0,0,0,1.45.09c.45-.28.36-.59-.15-.9l-2.91-1.82a1.33,1.33,0,0,0-1.46-.09c-.44.28-.35.6.15.91Z"/><path class="cls-53" d="M89.61,123.45l-.59.37-5.31-2.17,4.4,2.74-.53.34-5.52-3.44.86-.54,5.31,2.18-3.53-3.29.86-.53,5.52,3.44-.58.36-4.44-2.77Z"/><path class="cls-53" d="M90.6,119l.55.34-1.35.84,2,1.22,1.65-1,.56.35-2.27,1.41-5.52-3.43,2.27-1.42.56.35-1.66,1,1.89,1.17Z"/><path class="cls-53" d="M95.35,119.89l-5-3.09-1,.63-.56-.34,2.64-1.65.56.35-1,.63,5,3.09Z"/><path class="cls-53" d="M93.1,114.41a2.16,2.16,0,0,1,2.49,0l.45.28c.61.38.78.75.45,1.14a2.08,2.08,0,0,1,1.85.28l.86.54a2.14,2.14,0,0,0,.77.34l-.62.39a2.2,2.2,0,0,1-.77-.35l-.87-.54a1.38,1.38,0,0,0-1.63,0l-.43.27L98,118.23l-.62.39-5.52-3.44Zm2.45,1.72c.49-.3.62-.58,0-1l-.53-.32a1.23,1.23,0,0,0-1.4-.08l-.59.38,2,1.27Z"/><path class="cls-53" d="M95.59,112.86l5.53,3.44-.62.38L95,113.24Z"/><path class="cls-53" d="M100,111.78l.49.31-.58.36-.53-.33a1.31,1.31,0,0,0-1.44-.09c-.44.28-.35.59.15.9l2.92,1.82a1.29,1.29,0,0,0,1.44.09c.45-.28.35-.59-.15-.9l-.72-.44.59-.37.68.43c.84.52,1,1.11.14,1.64a2.4,2.4,0,0,1-2.62-.09l-2.86-1.78c-.84-.52-1-1.11-.15-1.64A2.41,2.41,0,0,1,100,111.78Z"/><path class="cls-53" d="M101.06,109.46l5.52,3.44-.61.38-5.52-3.44Z"/><path class="cls-53" d="M103,108.26a2.34,2.34,0,0,1,2.62.07l2.79,1.74c.84.52,1,1.09.11,1.63l-1.29.8-5.53-3.43Zm5,3.09c.44-.27.38-.58-.12-.89L105,108.69a1.29,1.29,0,0,0-1.44-.07l-.66.41,4.4,2.74Z"/><path class="cls-3" d="M71.34,4l1.92-1.19A1.26,1.26,0,0,1,74.62,3L72.71,4.17A1.28,1.28,0,0,0,71.34,4Z"/><g class="cls-66"><g class="cls-10"><path class="cls-67" d="M71.34,4l1.92-1.19a1,1,0,0,1,.87-.08L72.21,3.94a1.07,1.07,0,0,0-.87.09Z"/><path class="cls-68" d="M72.21,3.94l1.92-1.18a1.9,1.9,0,0,1,.49.22L72.71,4.17a2,2,0,0,0-.5-.23Z"/></g></g><polygon class="cls-69" points="72.71 4.17 74.62 2.98 146.17 47.08 144.26 48.27 72.71 4.17"/><path class="cls-70" d="M146.11,51.16,148,50a3.91,3.91,0,0,1,.07.67l-1.92,1.19a3.11,3.11,0,0,0-.07-.67Z"/><path class="cls-71" d="M148,50h0c0-.08,0-.17-.07-.26s0-.07,0-.11-.1-.31-.16-.46l-.05-.1c0-.12-.11-.24-.17-.36a1,1,0,0,0-.08-.14,2.38,2.38,0,0,0-.18-.3l-.09-.13a2.91,2.91,0,0,0-.26-.33.1.1,0,0,0,0-.05,3.34,3.34,0,0,0-.32-.33l-.1-.08-.17-.14-.15-.1-1.91,1.19a2.34,2.34,0,0,1,.31.24.39.39,0,0,1,.1.08,2.57,2.57,0,0,1,.33.33l0,0c.09.11.18.22.26.34l.09.13.18.3.08.14c.06.12.12.23.17.35s0,.07,0,.11a4.19,4.19,0,0,1,.16.46l0,.12a3.71,3.71,0,0,1,.13.92L146.05,103a3.11,3.11,0,0,1,0,.33l0,.17a1.41,1.41,0,0,1-.06.22s0,.09-.05.13a1.18,1.18,0,0,1-.11.19l-.06.08a.87.87,0,0,1-.23.2l1.92-1.19a1,1,0,0,0,.22-.2l.06-.08a1.18,1.18,0,0,0,.11-.19s0-.09.05-.13,0-.14.07-.22,0-.11,0-.17a.78.78,0,0,0,0-.16.91.91,0,0,0,0-.17l.14-51.18A4.07,4.07,0,0,0,148,50Z"/><path class="cls-72" d="M144.26,48.27a4.61,4.61,0,0,1,1.92,3.56L146.05,103c0,1.3-.88,1.83-1.94,1.18L72.56,60.09a4.63,4.63,0,0,1-1.91-3.56l.13-51.18c0-1.3.87-1.83,1.93-1.18Z"/><path class="cls-73" d="M119.51,66.22C105.8,61.71,84.82,42.63,70.66,50v6.53a4.63,4.63,0,0,0,1.91,3.56l14,8.59a10.07,10.07,0,0,1,3.62,1.47c17.9,8.93,35.8,15.36,56,15.68l.06-20.33A37.41,37.41,0,0,1,119.51,66.22Z"/><path class="cls-74" d="M80.34,41.34C95,47.89,107.27,61,124.41,55.74a54.79,54.79,0,0,0,18.22-8.47L107.07,25.35c-11.27,5.5-23.77,7.44-36.35,3.74l0,13.15C73.5,40.16,77.8,40.43,80.34,41.34Z"/><path class="cls-75" d="M107.12,34.07a1.08,1.08,0,0,1-.14.56,2.43,2.43,0,0,0-.69-.75c-.68-.42-1.37-.31-1.37,3.18,0,2.68.44,3.51,1.07,3.9a1.17,1.17,0,0,0,1,.19,3,3,0,0,1,.13.72c0,.51-.54.62-1.32.13-1-.62-1.77-1.6-1.77-5.45,0-4.5,1.15-4.4,2.1-3.82C106.9,33.22,107.12,33.75,107.12,34.07Z"/><path class="cls-76" d="M107.75,37a1.89,1.89,0,0,1,1.45.31c.54.33.74.65.74,1a1.75,1.75,0,0,1-.09.56,2,2,0,0,0-.52-.48.82.82,0,0,0-.71-.13v5.18c0,.21,0,.21-.87-.33Z"/><path class="cls-77" d="M113.28,45.18a4.32,4.32,0,0,1,.07.77c0,.41-.67.31-1.47-.18-1-.61-1.7-1.55-1.7-4.13,0-3.29.95-3.18,1.88-2.6A3.17,3.17,0,0,1,113.42,42a8.79,8.79,0,0,1-.12,1.64,18,18,0,0,1-2.24-1.17c0,1.44.36,2,1,2.4A1.93,1.93,0,0,0,113.28,45.18Zm-2.22-3.59a7.13,7.13,0,0,0,1.47.76,3.56,3.56,0,0,0,.06-.75c0-1-.15-1.4-.62-1.69S111.14,39.85,111.06,41.59Z"/><path class="cls-78" d="M116.44,39.26c0-.48.16-.39.86.05v9.41a3.32,3.32,0,0,1-1.54-.56c-.92-.57-1.72-1.39-1.72-4.25,0-2.6.72-3.21,1.63-2.65a2.49,2.49,0,0,1,.77.74Zm0,3.57a1.38,1.38,0,0,0-.49-.47c-.48-.3-1-.14-1,2,0,2,.31,2.55.81,2.86a.92.92,0,0,0,.64.19Z"/><path class="cls-79" d="M118.73,40.76c.33.2.44.48.44,1s-.17.77-.5.57-.43-.47-.43-1.06S118.4,40.55,118.73,40.76Zm.4,9.14c0,.21,0,.21-.86-.32V43.49c0-.49.17-.38.86,0Z"/><path class="cls-80" d="M119.84,44.88c0-.82,0-.9.18-.8l.54.34v-2c0-.37.16-.27.86.16v2.36l1.11.69c0,.83,0,.9-.18.79l-.93-.57v3.84c0,.57,0,1.06.4,1.3a1.1,1.1,0,0,0,.62.18,3.12,3.12,0,0,1,.06.57c0,.47-.5.27-.92,0-.9-.56-1-1.4-1-2.58V45.33Z"/><path class="cls-81" d="M127.85,46.88a1,1,0,0,1-.14.56,2.43,2.43,0,0,0-.69-.76c-.68-.42-1.36-.3-1.36,3.19,0,2.68.44,3.5,1.06,3.89a1.1,1.1,0,0,0,1,.19,2.54,2.54,0,0,1,.13.73c0,.51-.53.62-1.32.13-1-.63-1.77-1.61-1.77-5.45,0-4.5,1.15-4.41,2.1-3.82C127.64,46,127.85,46.55,127.85,46.88Z"/><path class="cls-82" d="M131.44,53.31c0,1.51,0,3.08-.06,4a2.48,2.48,0,0,1-1.53-.5A3,3,0,0,1,128.38,54c0-1.83.7-1.72,1.42-1.27a3.1,3.1,0,0,1,.78.65v-1a1.23,1.23,0,0,0-.66-1.2,4,4,0,0,0-1.42-.57,2.29,2.29,0,0,1-.11-.69c0-.13,0-.27.11-.28a3.42,3.42,0,0,1,1.63.65,2.49,2.49,0,0,1,1.31,2.41Zm-1.36.33c-.44-.27-.81-.32-.81.84,0,1,.29,1.31.71,1.57a.71.71,0,0,0,.57.14c0-.43,0-1.4,0-2.11A2,2,0,0,0,130.08,53.64Z"/><path class="cls-83" d="M132.32,52.14a1.88,1.88,0,0,1,1.45.3c.54.34.74.66.74,1a1.75,1.75,0,0,1-.09.56,1.91,1.91,0,0,0-.51-.48.85.85,0,0,0-.72-.14v5.19c0,.21,0,.2-.87-.33Z"/><path class="cls-84" d="M137.16,52.06c0-.48.16-.39.86,0v9.41a3.29,3.29,0,0,1-1.53-.56c-.93-.57-1.73-1.39-1.73-4.25,0-2.6.73-3.21,1.63-2.65a2.38,2.38,0,0,1,.77.74Zm0,3.57a1.5,1.5,0,0,0-.49-.48c-.48-.29-1-.13-1,2,0,2,.31,2.55.81,2.86a.93.93,0,0,0,.64.19Z"/><path class="cls-9" d="M76,55a.23.23,0,0,1,0,.14,1.18,1.18,0,0,0-.37-.43c-.34-.21-.71-.23-.71,1.61,0,1.39.3,1.78.59,2a.43.43,0,0,0,.51,0,.71.71,0,0,1,0,.2c0,.17-.25.24-.58,0s-.79-.6-.79-2.37c0-2.07.5-2,.92-1.72A.86.86,0,0,1,76,55Z"/><path class="cls-9" d="M78.13,60.08v0s0,0-.09,0L77.92,60l-.25-1.31-1-.64-.23,1s0,0-.11,0l-.13-.09.91-3.49s0,0,.07,0l.09.06Zm-.51-1.65-.26-1.32c-.1-.54-.2-1.09-.21-1.28a9.89,9.89,0,0,1-.22,1l-.24,1Z"/><path class="cls-9" d="M79,56.63a1.73,1.73,0,0,1,.8,1.58c0,.66-.19.91-.51.85a6.52,6.52,0,0,1,.49,2v0s0,.06-.1,0L79.57,61a6.29,6.29,0,0,0-.48-2L79,58.93l-.31-.2v1.68c0,.07,0,.07-.22-.06v-4s0-.07.06,0Zm0,2.06c.41.25.6,0,.6-.63A1.29,1.29,0,0,0,79,56.87l-.35-.22v1.84Z"/><path class="cls-9" d="M80.83,57.75c.61.37.92,1.07.92,2.39,0,1.87-.43,2-.94,1.66l-.56-.34v-4c0-.06,0-.09.12,0Zm0,3.8c.36.23.71.19.71-1.57,0-1.12-.21-1.69-.7-2l-.36-.23v3.58Z"/><path class="cls-9" d="M83.52,59.48c0-.06,0-.07.21.06v4c0,.07,0,.07-.21-.06V61.39l-1.1-.68v2c0,.07,0,.07-.21-.06v-4c0-.07,0-.06.21.07v1.71l1.1.68Z"/><path class="cls-9" d="M85.11,60.34c.61.37.83,1,.83,2.57s-.26,2-.88,1.58-.86-1-.86-2.65S84.5,60,85.11,60.34Zm0,3.88c.47.29.66-.08.66-1.46s-.17-1.89-.62-2.16-.67.08-.67,1.47S84.61,63.94,85.06,64.22Z"/><path class="cls-9" d="M87.62,65.76v.18c0,.06,0,0-.06,0l-1.14-.7v-4c0-.11,0-.1.21,0v3.82Z"/><path class="cls-9" d="M88.57,62.53c.6.38.92,1.07.92,2.39,0,1.87-.43,2-.94,1.66L88,66.24v-4c0-.06,0-.09.12,0Zm0,3.8c.36.23.71.19.71-1.57,0-1.12-.21-1.69-.7-2l-.36-.23v3.58Z"/><path class="cls-9" d="M91.15,67.94c0,.22,0,.25-.06.22L90,67.46v-4s0-.07.06,0l1.13.69c0,.22,0,.25-.05.22l-.93-.58v1.48l.87.54C91,66,91,66,91,66l-.82-.51v1.86Z"/><path class="cls-9" d="M92.12,64.73a1.73,1.73,0,0,1,.81,1.59c0,.65-.19.9-.51.85a6.73,6.73,0,0,1,.49,2h0c0,.06,0,.06-.1,0l-.12-.08a6.19,6.19,0,0,0-.49-2L92.1,67l-.32-.2v1.68c0,.07,0,.07-.21-.06v-4s0-.07.06,0Zm0,2.06c.4.25.59,0,.59-.63A1.27,1.27,0,0,0,92.13,65l-.35-.22v1.84Z"/><path class="cls-9" d="M95.6,66.94c0-.07,0-.07.21.06v4s0,0-.06,0l-.15-.09-.58-2-.63-2.28c0,.47,0,2,0,2v1.43c0,.07,0,.07-.22-.06v-4s0,0,.06,0l.15.09.57,2c0,.15.49,1.78.64,2.3,0-.41,0-2,0-2.07Z"/><path class="cls-9" d="M98.06,72.39v0s0,0-.09,0l-.12-.08L97.59,71l-1-.64-.24,1s0,0-.1,0l-.13-.09.9-3.5s0,0,.07,0l.09.07Zm-.52-1.66-.26-1.32c-.1-.54-.19-1.08-.21-1.27a9.19,9.19,0,0,1-.21,1l-.25,1Z"/><path class="cls-9" d="M99.93,69.62s0-.06.06,0l.15.1v4c0,.07,0,.07-.2-.06V71.84l0-1.59c-.11.37-.36,1.24-.38,1.28l-.27.85s0,0-.06,0l-.1-.07-.27-1.23-.38-1.74c0,.33,0,1.38,0,1.58v1.75c0,.07,0,.07-.21-.06v-4s0,0,0,0l.14.08.54,2.48.17.82.17-.59Z"/><path class="cls-9" d="M101.85,74.55c0,.22,0,.25-.06.22l-1.13-.7v-4s0-.07.06,0l1.13.69c0,.22,0,.25,0,.22l-.93-.58v1.48l.88.54c0,.2,0,.24,0,.21l-.83-.51V74Z"/><path class="cls-85" d="M140,86.4l-13.1-8.09a5.12,5.12,0,0,1-2.12-3.93V65c0-1.44,1-2,2.12-1.31L140,71.79a5.11,5.11,0,0,1,2.13,3.93V85.1C142.08,86.54,141.12,87.12,140,86.4Z"/><path class="cls-86" d="M76.35,38.38c1.12.69,1.5,1.93,1.5,4.06s-.43,3.07-1.57,2.36-1.53-2-1.53-4.18S75.2,37.67,76.35,38.38Zm-.08,6c.87.54,1.18-.26,1.18-2.19s-.25-2.82-1.09-3.34-1.21.31-1.21,2.14S75.5,43.88,76.27,44.35Z"/><path class="cls-87" d="M80.12,40.71c1.12.69,1.5,1.93,1.5,4.06s-.43,3.07-1.57,2.36-1.53-2-1.53-4.18S79,40,80.12,40.71Zm-.08,6c.87.53,1.18-.26,1.18-2.19s-.25-2.82-1.08-3.34-1.22.31-1.22,2.14S79.27,46.2,80,46.68Z"/><path class="cls-88" d="M83.89,43c1.12.69,1.5,1.93,1.5,4.06s-.42,3.07-1.57,2.36-1.53-2-1.53-4.18S82.75,42.33,83.89,43Zm-.08,6c.87.53,1.18-.26,1.18-2.19s-.25-2.82-1.08-3.34-1.21.31-1.21,2.14S83.05,48.53,83.81,49Z"/><path class="cls-89" d="M87.66,45.37c1.12.69,1.5,1.93,1.5,4.06s-.42,3.07-1.57,2.36-1.53-2-1.53-4.18S86.52,44.66,87.66,45.37Zm-.08,6c.87.53,1.18-.26,1.18-2.19s-.25-2.82-1.08-3.34-1.21.31-1.21,2.14S86.82,50.86,87.58,51.34Z"/><path class="cls-90" d="M93,48.64c1.12.69,1.5,1.94,1.5,4.07S94,55.77,92.9,55.07s-1.53-2-1.53-4.18S91.82,47.94,93,48.64Zm-.08,6c.87.54,1.18-.26,1.18-2.18s-.25-2.82-1.09-3.34-1.21.3-1.21,2.13S92.12,54.14,92.89,54.61Z"/><path class="cls-91" d="M96.74,51c1.12.69,1.5,1.94,1.5,4.07s-.43,3.06-1.57,2.35-1.53-2-1.53-4.17S95.59,50.27,96.74,51Zm-.08,6c.87.54,1.18-.26,1.18-2.18s-.25-2.83-1.08-3.34-1.22.3-1.22,2.13S95.89,56.47,96.66,56.94Z"/><path class="cls-92" d="M100.51,53.3c1.12.69,1.5,1.94,1.5,4.06s-.42,3.07-1.57,2.36-1.53-2-1.53-4.17S99.37,52.59,100.51,53.3Zm-.08,6c.87.54,1.18-.26,1.18-2.18s-.25-2.83-1.08-3.34-1.22.3-1.22,2.13S99.67,58.8,100.43,59.27Z"/><path class="cls-93" d="M104.28,55.63c1.12.69,1.5,1.94,1.5,4.06s-.42,3.07-1.57,2.36-1.53-2-1.53-4.17S103.14,54.93,104.28,55.63Zm-.07,6c.87.54,1.17-.26,1.17-2.18s-.25-2.83-1.08-3.34-1.21.3-1.21,2.13S103.44,61.13,104.21,61.6Z"/><path class="cls-94" d="M109.59,58.91c1.12.69,1.5,1.93,1.5,4.06s-.43,3.07-1.57,2.36-1.53-2-1.53-4.18S108.44,58.2,109.59,58.91Zm-.08,6c.87.54,1.18-.26,1.18-2.19s-.25-2.82-1.08-3.33-1.22.3-1.22,2.13S108.74,64.41,109.51,64.88Z"/><path class="cls-95" d="M113.36,61.24c1.12.69,1.5,1.93,1.5,4.06s-.43,3.07-1.57,2.36-1.53-2-1.53-4.18S112.21,60.53,113.36,61.24Zm-.08,6c.87.53,1.18-.26,1.18-2.19s-.25-2.82-1.08-3.34-1.22.31-1.22,2.14S112.51,66.73,113.28,67.21Z"/><path class="cls-96" d="M117.13,63.57c1.12.69,1.5,1.93,1.5,4.06s-.43,3.07-1.57,2.36-1.53-2-1.53-4.18S116,62.86,117.13,63.57Zm-.08,6c.87.53,1.18-.26,1.18-2.19S118,64.53,117.15,64s-1.22.31-1.22,2.14S116.29,69.06,117.05,69.54Z"/><path class="cls-97" d="M120.9,65.9c1.12.69,1.5,1.93,1.5,4.06S122,73,120.83,72.32s-1.53-2-1.53-4.18S119.76,65.19,120.9,65.9Zm-.08,6c.87.53,1.18-.26,1.18-2.19s-.25-2.82-1.08-3.34-1.21.31-1.21,2.14S120.06,71.39,120.82,71.87Z"/><path class="cls-98" d="M126.21,69.17c1.12.69,1.5,1.94,1.5,4.07s-.43,3.06-1.57,2.35-1.53-2-1.53-4.17S125.06,68.47,126.21,69.17Zm-.08,6c.87.54,1.18-.26,1.18-2.18s-.25-2.83-1.09-3.34-1.21.3-1.21,2.13S125.36,74.67,126.13,75.14Z"/><path class="cls-99" d="M130,71.5c1.12.69,1.5,1.94,1.5,4.06s-.43,3.07-1.57,2.36-1.53-2-1.53-4.17S128.83,70.79,130,71.5Zm-.08,6c.87.54,1.18-.26,1.18-2.18S130.83,72.46,130,72s-1.21.3-1.21,2.13S129.13,77,129.9,77.47Z"/><path class="cls-100" d="M133.75,73.83c1.12.69,1.5,1.94,1.5,4.06s-.42,3.07-1.57,2.36-1.53-2-1.53-4.17S132.61,73.12,133.75,73.83Zm-.08,6c.87.54,1.18-.26,1.18-2.18s-.25-2.83-1.08-3.34-1.22.3-1.22,2.13S132.91,79.33,133.67,79.8Z"/><path class="cls-101" d="M137.52,76.16c1.12.69,1.5,1.94,1.5,4.06s-.42,3.07-1.57,2.36-1.53-2-1.53-4.18S136.38,75.45,137.52,76.16Zm-.08,6c.87.54,1.18-.26,1.18-2.18s-.25-2.83-1.08-3.34-1.21.3-1.21,2.13S136.68,81.66,137.44,82.13Z"/><path class="cls-102" d="M84.87,24v8.26c0,1.44-1,2-2.12,1.31l-6.69-4.13a5.1,5.1,0,0,1-2.12-3.93V17.22c0-1.44,1-2,2.12-1.31L82.75,20A5.13,5.13,0,0,1,84.87,24Z"/><path class="cls-103" d="M80.59,22.78,78.2,21.3c-.53-.32-1-.06-1,.61v3a2.33,2.33,0,0,0,1,1.79l2.39,1.48c.55.33,1,.07,1-.59v-3A2.32,2.32,0,0,0,80.59,22.78Zm.56,4.51c0,.37-.25.52-.56.33L78.2,26.14a1.32,1.32,0,0,1-.54-1v-3c0-.38.24-.53.54-.34l2.39,1.48a1.31,1.31,0,0,1,.56,1Z"/><polygon class="cls-103" points="79.61 18.1 79.61 22.44 79.19 22.18 79.19 17.84 79.61 18.1"/><polygon class="cls-103" points="79.61 27.27 79.61 31.6 79.19 31.34 79.19 27.01 79.61 27.27"/><polygon class="cls-103" points="84.87 27.84 84.87 28.37 81.36 26.2 81.36 25.68 84.87 27.84"/><polygon class="cls-103" points="77.55 23.33 77.55 23.85 73.94 21.62 73.94 21.09 77.55 23.33"/><path class="cls-9" d="M132.89,90.87s-.56-.22-.56-.22a.84.84,0,0,1,0-.19,4.66,4.66,0,0,1,.72.24s.06,0,.06.06L133,93.54l.39.24.22.12c0,.1,0,.24,0,.22l-1.45-.89V93s.58.33.67.38Z"/><path class="cls-9" d="M134,94.34a.22.22,0,0,1,0-.1c0-.09,0-.1.1-.19a2.32,2.32,0,0,1,.49-.45,1.07,1.07,0,0,0,.6-.91.72.72,0,0,0-.4-.69,1,1,0,0,0-.67-.21.72.72,0,0,1,0-.19c0-.08.27-.08.71.19a1,1,0,0,1,.58,1,1.18,1.18,0,0,1-.65,1,2.25,2.25,0,0,0-.49.44l.84.52.39.23c0,.11,0,.23,0,.21Z"/><path class="cls-9" d="M135.86,95.54c0,.06-.05,0-.21-.06l.93-3.34c0-.06,0,0,.2.06Z"/><path class="cls-9" d="M137.72,93.85c-.05,0-.56-.21-.56-.21a1.06,1.06,0,0,1,0-.2,4.79,4.79,0,0,1,.72.25l.06,0,0,2.78.39.24a1.34,1.34,0,0,0,.22.12c0,.11,0,.24,0,.22L137,96.21V96s.58.33.67.38Z"/><path class="cls-9" d="M138.8,97.33s0-.07,0-.11,0-.1.1-.19a2.06,2.06,0,0,1,.49-.44,1.1,1.1,0,0,0,.6-.92.72.72,0,0,0-.4-.69,1,1,0,0,0-.67-.21.81.81,0,0,1,0-.19c0-.08.28-.08.71.19a1,1,0,0,1,.59,1,1.2,1.2,0,0,1-.65,1,2.59,2.59,0,0,0-.5.44l.85.52.39.23c0,.11,0,.23,0,.21Z"/><path class="cls-104" d="M43.58,107.89c.14-.52-1.6-.65-1.88-.64a14.93,14.93,0,0,0-2.82.77,42.92,42.92,0,0,1-6.18-.44s-.29,3.37-.29,3.41,5-1.45,5.38-1.46a6,6,0,0,1,1.52.37A3.39,3.39,0,0,1,40,109c.32-.27.35-.29.74-.27.23-.42,1.13-.44,1.3-.46C42.38,108.22,43.44,108.41,43.58,107.89Z"/><path class="cls-105" d="M38.33,107.75c-1.61,0-6.63-.17-7.25-.26,0,0,1.33,3.46,1.33,3.5l5.76-1.24C38.89,109.31,38.71,108.33,38.33,107.75Z"/><g class="cls-10"><g class="cls-10"><path class="cls-4" d="M42.51,113.14l-2.24-1.41c-.06,0-.06-.15,0-.27l2.24,1.4C42.45,113,42.45,113.1,42.51,113.14Z"/><g class="cls-106"><g class="cls-10"><path class="cls-4" d="M42.51,113.14l-2.24-1.41c-.05,0-.06-.12,0-.22l2.24,1.4a.22.22,0,0,0,0,.23Z"/><path class="cls-4" d="M42.48,112.91l-2.24-1.4s0,0,0-.05l2.24,1.4a.08.08,0,0,1,0,0Z"/></g></g></g><g class="cls-10"><path class="cls-4" d="M42.77,106.81,45,108.22h0a.12.12,0,0,0-.1,0l-2.24-1.4a.1.1,0,0,1,.1,0Z"/><g class="cls-107"><g class="cls-10"><path class="cls-4" d="M44.9,108.23l-2.24-1.4a.11.11,0,0,1,.07,0L45,108.21a.07.07,0,0,0-.07,0Z"/><path class="cls-4" d="M45,108.21l-2.24-1.41h0L45,108.22h0Z"/></g></g></g><polygon class="cls-4" points="42.5 112.86 40.27 111.46 42.54 106.96 44.78 108.37 42.5 112.86"/><polygon class="cls-108" points="40.59 111.36 42.63 107.33 44.45 108.47 42.41 112.5 40.59 111.36"/><g class="cls-10"><path class="cls-4" d="M44.78,108.37,42.54,107a.26.26,0,0,1,.12-.13l2.24,1.4A.28.28,0,0,0,44.78,108.37Z"/><g class="cls-109"><g class="cls-10"><path class="cls-4" d="M44.78,108.37,42.54,107v0l2.24,1.4v0Z"/><path class="cls-4" d="M44.79,108.34l-2.24-1.4a.29.29,0,0,1,.11-.11l2.24,1.4a.29.29,0,0,0-.11.11Z"/></g></g></g><path class="cls-110" d="M44.9,108.23a.12.12,0,0,1,.1,0c.07,0,.07.16,0,.28L42.74,113a.26.26,0,0,1-.12.13.09.09,0,0,1-.11,0c-.06,0-.07-.16,0-.28l2.28-4.49A.28.28,0,0,1,44.9,108.23Z"/></g><path class="cls-104" d="M24.45,156.09c.31-.05.31-5,1-6.42,1.09-2.24,2.85-7,3.66-8.69a11.94,11.94,0,0,0-.05-5.58l-4.82-.74c-.1,1.6,1.22,3.57,1,4.79-1.49,2.08-1.71,5.6-2,7.91a21.58,21.58,0,0,0-.12,2.61C23.46,150.58,23.61,156.22,24.45,156.09Z"/><path class="cls-111" d="M29.1,141a11.94,11.94,0,0,0-.05-5.58l-4.82-.74a12.46,12.46,0,0,0,.86,3.54c2.86.52,3.54,3.75,2.22,6.29-1.44,2.85-3.41,6.54-2.58,9.76a18.2,18.2,0,0,1,.71-4.58C26.53,147.43,28.29,142.68,29.1,141Z"/><path class="cls-112" d="M33.39,153.34c-.67.27-1.3.33-1.43-.62-.61-4.13.28-5.06.61-9.2,0-.47.88-3.81,1.36-7.85l-6.63-.34a27.75,27.75,0,0,0,1.26,5.52c-1,3.94.61,10.55,1,12.53,0,.29-.65,1.12-.12,1.8.2.26,6.44-.61,5.56-1.73A1.69,1.69,0,0,0,33.39,153.34Z"/><path class="cls-104" d="M35,153.45a1.69,1.69,0,0,0-1.63-.11c-.67.27-1.3.33-1.43-.62-.61-4.13.28-5.06.61-9.2,0-.47.88-3.81,1.36-7.85l-6.63-.34a29,29,0,0,0,.73,3.79c1.32.47,2.71.35,4.18.73.19,0,.29.42.19.63a86.51,86.51,0,0,0-1.17,13.2c0,.32-.59,1.16-1,.85a2.82,2.82,0,0,1-.75-.87c-.15.39-.45,1,0,1.52C29.66,155.44,35.9,154.57,35,153.45Z"/><path class="cls-113" d="M29.06,155.7s0,0,0,.05a1.07,1.07,0,0,0,.63.76,1.29,1.29,0,0,0,.39,0,1.81,1.81,0,0,0,.4,0,2.09,2.09,0,0,0,.41-.17,2.72,2.72,0,0,0,.38-.31,2,2,0,0,1,1.24-.35,3.45,3.45,0,0,0,1.28-.17c.2-.08,1.51-.57,1.81-1.3a1.46,1.46,0,0,0,0-.9.86.86,0,0,0-.71-.55,2.11,2.11,0,0,0-.89.14c-.44.13-.77.26-1.22.4a1.14,1.14,0,0,1-.52.08c.19.25,1.08.11,1.6.16a.31.31,0,0,1,.2.09c.1.12,0,.31-.07.42a1.08,1.08,0,0,1-.39.25,5.42,5.42,0,0,1-2.35.42c-.28,0-1.71.26-1.81-.95a1.57,1.57,0,0,0-.38.89A2.8,2.8,0,0,0,29.06,155.7Z"/><path class="cls-114" d="M24.29,119h0Z"/><path class="cls-115" d="M35.38,134.44c-.12-2.09-.47-4.17-.56-6.27a14.88,14.88,0,0,0-1.42-6.79c-.53-1.27-1-2.37-2.4-2.68-1.64-.37-3.94-.92-5.48.06a6.27,6.27,0,0,0-1.73,2.39c-1.78,3.16-1.54,7-1.57,12.39,0,1.21-.06,2.91,1.72,4a7,7,0,0,0,2,.5c4.25,1.14,5.76.44,7.7-.61C35.17,136.64,35.48,136.08,35.38,134.44Z"/><path class="cls-116" d="M33,111.49c1.66-5.07.55-4.37-2.74-6.35l-3.58-.69c-3.28-.48-4,3.18-3.56,5.36.16.82,1.47,6.07,1.22,10.3-.13,2.15,6.87,2.6,8.57.76C33.49,120.23,32.79,112.07,33,111.49Z"/><g class="cls-117"><path class="cls-118" d="M20.31,111.74l.2,0A.44.44,0,0,0,20.31,111.74Z"/></g><path class="cls-112" d="M33.1,98.11c0,6.84-2.08,4.91-2.44,6.15-.05.17,0,.16.09,1.47,0,.89-3.82.45-3.65-.81l.27-1.9a24.82,24.82,0,0,0,.19-3.21c-.3-2.43,1.12-2.5,2.37-3.54S33.1,95.66,33.1,98.11Z"/><path class="cls-119" d="M27,102.82a2.37,2.37,0,0,0,.92.44,4.32,4.32,0,0,0,1.14-.08,2.7,2.7,0,0,0,1.12-.4c.74-.6.71-1.41.94-1.82.39-.71,1.22-.57,1.74-1.57a4.34,4.34,0,0,0,.48-1.85,5.1,5.1,0,0,0-.14-1.47,2.56,2.56,0,0,0-.69-.87,4.34,4.34,0,0,0-5.26-.7A4.69,4.69,0,0,0,25,97.18a1.55,1.55,0,0,0,0,.15C24.27,99.77,26.9,102.72,27,102.82Z"/><path class="cls-120" d="M32.53,95.2a4.34,4.34,0,0,0-5.26-.7A4.69,4.69,0,0,0,25,97.18a1.55,1.55,0,0,0,0,.15,3.86,3.86,0,0,0,.09,2.18,1.35,1.35,0,0,0,1.25-.28c2-1.64,4.1-3.29,6.68-2.78l.32.12a3.36,3.36,0,0,0-.1-.5A2.56,2.56,0,0,0,32.53,95.2Z"/><path class="cls-121" d="M26.32,99.23a1.35,1.35,0,0,1-1.25.28A9.5,9.5,0,0,0,27,102.82a2.37,2.37,0,0,0,.92.44,4.32,4.32,0,0,0,1.14-.08,2.7,2.7,0,0,0,1.12-.4c.74-.6.71-1.41.94-1.82.39-.71,1.22-.57,1.74-1.57a4.34,4.34,0,0,0,.48-1.85,6.87,6.87,0,0,0,0-1L33,96.45C30.42,95.94,28.32,97.59,26.32,99.23Z"/><path class="cls-112" d="M30.64,101.25c.3.51.62.78.94.65s.41-.56.21-1.13S31,99.9,30.7,100,30.29,100.66,30.64,101.25Z"/><path class="cls-104" d="M30.93,101.08c.13.23.27.34.41.29s.18-.24.09-.49-.33-.38-.47-.32S30.78,100.83,30.93,101.08Z"/><path class="cls-120" d="M26.28,96.21c-.36-.84-1.62.07-2.18.87a9.48,9.48,0,0,0-1.37,4.2,15.15,15.15,0,0,0,0,4.2,19.33,19.33,0,0,1,.57,2.94,3.76,3.76,0,0,1-.15,1.57,2.62,2.62,0,0,1-2.07,1.7c.3-.12.63.14.93.24a6.57,6.57,0,0,0,1.52.28,3.83,3.83,0,0,0,1.65,0,4.88,4.88,0,0,0,1.91-1.89,5.84,5.84,0,0,0,.77-3.51,5.28,5.28,0,0,0-.63-2.8,7.71,7.71,0,0,1-1.07-2.82,9.58,9.58,0,0,1-.26-1.4c0-.29,0-.58,0-.86C25.81,98.09,26.69,97.14,26.28,96.21Z"/><path class="cls-122" d="M21.09,111.69l.19,0A.4.4,0,0,0,21.09,111.69Z"/><path class="cls-121" d="M27.87,106.82a5.28,5.28,0,0,0-.63-2.8,7.71,7.71,0,0,1-1.07-2.82,9.58,9.58,0,0,1-.26-1.4c0-.29,0-.58,0-.86-.09-.85.79-1.8.38-2.73h0c-1.66,1.46-1.1,4.53-.54,6.25,1,3.17,1.76,7.39-1.27,9a4.69,4.69,0,0,1-2.69.39l.24.1a6.57,6.57,0,0,0,1.52.28,3.83,3.83,0,0,0,1.65,0,4.88,4.88,0,0,0,1.91-1.89A5.84,5.84,0,0,0,27.87,106.82Z"/><path class="cls-113" d="M24.7,154.47a5.49,5.49,0,0,1-.31,2.05,1.21,1.21,0,0,1-.34.41c-.17.14-.41-.13-.55-.31-2-2.41-.94-3.24-1.13-4.18-.09-.48-.49-.88-.45-1.37a1.6,1.6,0,0,1,.27-.76,1.23,1.23,0,0,1,1.3-.58c.41.1.72.75.83,1.06a4.75,4.75,0,0,1,.14,1.76,14,14,0,0,0,.22,1.71A1.49,1.49,0,0,1,24.7,154.47Z"/><path class="cls-123" d="M24.35,156.19c0,.09,0,.19,0,.29a1.42,1.42,0,0,1-.33.41c-.18.14-.41-.13-.56-.31-2-2.42-.94-3.24-1.12-4.18-.1-.48-.5-.88-.45-1.37a1.6,1.6,0,0,1,.27-.76,1.08,1.08,0,0,1,.44-.09.71.71,0,0,1,.62.2.81.81,0,0,1,.15.48c0,.52-.12,1-.07,1.56a3.44,3.44,0,0,0,.2.78l.48,1.5c.08.26.17.53.26.79a1.69,1.69,0,0,1,.12.36A1.9,1.9,0,0,1,24.35,156.19Z"/><path class="cls-124" d="M35.34,116.75c.78,0,1.29,0,1.81-.77,0-1.41-1-3-1.5-4.13-.43-.93-.85-1.87-1.27-2.81a4.32,4.32,0,0,0-1.22-1.93c-1.3-.86-2.77.53-3,1.87a3.09,3.09,0,0,0,.26,2.1c.67,1.26,1.94,3.48,2.89,5A5.54,5.54,0,0,0,35.34,116.75Z"/><path class="cls-104" d="M39.31,109.9a1.47,1.47,0,0,0,.66,0,2.35,2.35,0,0,1,1-.05,2.33,2.33,0,0,0,1,.1c.27-.08.37-.33.1-.52s-.82-.09-1.17-.27-.24-.31-.25-.57a1.6,1.6,0,0,0,0-.47c-.16,0-.45.69-.68.89A3.39,3.39,0,0,0,39.31,109.9Z"/><path class="cls-112" d="M45.05,111.07c0-.23,0-.45-.29-.34a6.35,6.35,0,0,1-2,.66c-.12,0-.54.06-.49-.46a9.5,9.5,0,0,1,.28-.92c.14-.43-.25-.5-.37-.19a4.32,4.32,0,0,1-.41.8c-.3.34-.16,1.21-.29,1.42a3.16,3.16,0,0,1-1.07.4c-.07.77.63.93,1.26,1.42.62-.22,1-.34,1.83-.65a2.65,2.65,0,0,0,.89-.4A5,5,0,0,0,45.05,111.07Z"/><path class="cls-125" d="M41.11,112.17,32.84,114a1.83,1.83,0,0,0-.64.32c0,.28,1.22,3.46,4.12,3,2.14-.36,4.42-2.23,6.18-3.11C42.76,113.48,41.31,112.06,41.11,112.17Z"/><g class="cls-10"><g class="cls-126"><path class="cls-127" d="M60.63,111.34c-1.54.43-3.7-.18-5.75-1.37-2.42-1.4-3.48-2.85-1.93-3.83a2.93,2.93,0,0,1,.83-.37c1.57-.44,3.67.21,5.64,1.35,2.22,1.29,3.64,2.83,2,3.88a2.72,2.72,0,0,1-.78.34m-8.22-7.21a5.83,5.83,0,0,0-1.57.68c-2.67,1.7-1.45,4.31,2.17,6.42,2.93,1.7,6.32,2.5,8.94,1.78a6.06,6.06,0,0,0,1.58-.69c2.79-1.78,1.25-4.43-2.22-6.44-3.09-1.8-6.42-2.44-8.9-1.75"/><path class="cls-127" d="M61.84,98.11a6,6,0,0,0-1.58.69c-2.77,1.78-1,4.4,2.37,6.37,2.9,1.69,6.17,2.53,8.76,1.82a6.11,6.11,0,0,0,1.59-.7c2.16-1.38,1.67-3.13-.3-4.7l-1.87,1.2c.56.52,1.35,1.45.13,2.22a2.52,2.52,0,0,1-.75.33c-1.65.46-3.93-.4-5.74-1.45-2.26-1.31-3.67-2.84-2.13-3.82a2.77,2.77,0,0,1,.79-.35A4.67,4.67,0,0,1,66,100l1.86-1.19a9.1,9.1,0,0,0-6.06-.73"/><path class="cls-127" d="M72.65,97.62l-3.19-1.85,1.61-1a2.73,2.73,0,0,1,.72-.33,2.87,2.87,0,0,1,2.23.37c1,.61,1.2,1.18.18,1.83l-1.55,1m-2-4.94a5.13,5.13,0,0,0-1.36.6l-3.78,2.4L78,102.91l1.81-1.16-5-2.89L76,98.08a3.81,3.81,0,0,1,1-.49,3.26,3.26,0,0,1,2.6.61l.18.11a17.51,17.51,0,0,0,3,1.51l1.76-1.12a21.62,21.62,0,0,1-2.49-1.3L81.45,97c-2.23-1.29-3.52-1.26-4.17-1.12.25-.61,0-1.54-1.69-2.5a6.54,6.54,0,0,0-5-.74"/></g></g></g></g></svg>