<svg xmlns="http://www.w3.org/2000/svg" xmlns:xlink="http://www.w3.org/1999/xlink" viewBox="0 0 179.42 179.7"><defs><style>.cls-1{isolation:isolate;}.cls-2{fill:url(#linear-gradient);}.cls-3{fill:#fff;}.cls-12,.cls-16,.cls-20,.cls-4,.cls-58,.cls-66,.cls-74,.cls-8{mix-blend-mode:multiply;}.cls-4{fill:url(#linear-gradient-2);}.cls-5{fill:url(#linear-gradient-3);}.cls-6{fill:url(#linear-gradient-4);}.cls-7{fill:url(#linear-gradient-5);}.cls-8{fill:url(#linear-gradient-6);}.cls-9{fill:url(#linear-gradient-7);}.cls-10{fill:url(#linear-gradient-8);}.cls-11{fill:url(#linear-gradient-9);}.cls-12{fill:url(#linear-gradient-10);}.cls-13{fill:url(#linear-gradient-11);}.cls-14{fill:url(#linear-gradient-12);}.cls-15{fill:url(#linear-gradient-13);}.cls-16{fill:url(#linear-gradient-14);}.cls-17{fill:url(#linear-gradient-15);}.cls-18{fill:url(#linear-gradient-16);}.cls-19{fill:url(#linear-gradient-17);}.cls-20{fill:url(#linear-gradient-18);}.cls-21{fill:url(#linear-gradient-19);}.cls-22{fill:url(#linear-gradient-20);}.cls-23{fill:url(#linear-gradient-21);}.cls-24{fill:url(#linear-gradient-22);}.cls-25{fill:url(#_ÂÁ_Ï_ÌÌ_È_ËÂÌÚ_441);}.cls-26{fill:url(#linear-gradient-23);}.cls-27{fill:url(#linear-gradient-24);}.cls-28{fill:url(#linear-gradient-25);}.cls-29{fill:url(#linear-gradient-26);}.cls-30{fill:url(#linear-gradient-27);}.cls-31{fill:url(#linear-gradient-28);}.cls-32{fill:url(#linear-gradient-29);}.cls-33{fill:url(#linear-gradient-30);}.cls-34{fill:url(#linear-gradient-31);}.cls-35{fill:url(#linear-gradient-32);}.cls-36{fill:url(#linear-gradient-33);}.cls-37{fill:url(#linear-gradient-34);}.cls-38{fill:url(#linear-gradient-35);}.cls-39{fill:url(#linear-gradient-36);}.cls-40{fill:url(#linear-gradient-37);}.cls-41{fill:url(#linear-gradient-38);}.cls-42{fill:url(#linear-gradient-39);}.cls-43{fill:url(#linear-gradient-40);}.cls-44{fill:#d4ecff;}.cls-45{fill:url(#linear-gradient-41);}.cls-46{fill:url(#linear-gradient-42);}.cls-47{fill:#38c5ea;}.cls-48{fill:url(#linear-gradient-43);}.cls-49{fill:url(#linear-gradient-44);}.cls-50{fill:url(#linear-gradient-45);}.cls-51{fill:url(#linear-gradient-46);}.cls-52{fill:url(#linear-gradient-47);}.cls-53{fill:url(#linear-gradient-48);}.cls-54{fill:url(#linear-gradient-49);}.cls-55{fill:url(#linear-gradient-50);}.cls-56{fill:url(#linear-gradient-51);}.cls-57{fill:url(#linear-gradient-52);}.cls-58{fill:url(#linear-gradient-53);}.cls-59{fill:url(#linear-gradient-54);}.cls-60{fill:url(#linear-gradient-55);}.cls-61{fill:url(#linear-gradient-56);}.cls-62{fill:url(#linear-gradient-57);}.cls-63{fill:url(#linear-gradient-58);}.cls-64{fill:url(#linear-gradient-59);}.cls-65{fill:url(#linear-gradient-60);}.cls-66{fill:url(#linear-gradient-61);}.cls-67{fill:url(#linear-gradient-62);}.cls-68{fill:url(#linear-gradient-63);}.cls-69{fill:url(#linear-gradient-64);}.cls-70{fill:url(#linear-gradient-65);}.cls-71{fill:url(#linear-gradient-66);}.cls-72{fill:url(#linear-gradient-67);}.cls-73{fill:url(#linear-gradient-68);}.cls-74{fill:url(#linear-gradient-69);}.cls-75{fill:url(#linear-gradient-70);}.cls-76{fill:url(#linear-gradient-71);}.cls-77{fill:url(#linear-gradient-72);}.cls-78{fill:url(#linear-gradient-73);}.cls-79{fill:url(#linear-gradient-74);}.cls-80{fill:url(#linear-gradient-75);}</style><linearGradient id="linear-gradient" x1="1.96" y1="99.93" x2="3.56" y2="99.93" gradientUnits="userSpaceOnUse"><stop offset="0" stop-color="#abd1ec"/><stop offset="1" stop-color="#abd1ec"/></linearGradient><linearGradient id="linear-gradient-2" x1="11.03" y1="158.94" x2="34.88" y2="158.94" gradientUnits="userSpaceOnUse"><stop offset="0" stop-color="#eef6fb" stop-opacity="0"/><stop offset="0.23" stop-color="#daebf6" stop-opacity="0.21"/><stop offset="0.48" stop-color="#c6e0f2" stop-opacity="0.42"/><stop offset="0.7" stop-color="#b7d8ef" stop-opacity="0.57"/><stop offset="0.88" stop-color="#aed3ed" stop-opacity="0.67"/><stop offset="1" stop-color="#abd1ec" stop-opacity="0.7"/></linearGradient><linearGradient id="linear-gradient-3" x1="22.95" y1="144.95" x2="34.88" y2="144.95" gradientUnits="userSpaceOnUse"><stop offset="0" stop-color="#fab371"/><stop offset="1" stop-color="#fcd5b0"/></linearGradient><linearGradient id="linear-gradient-4" x1="11.03" y1="134.62" x2="34.88" y2="134.62" gradientUnits="userSpaceOnUse"><stop offset="0" stop-color="#f57454"/><stop offset="1" stop-color="#f7947c"/></linearGradient><linearGradient id="linear-gradient-5" x1="11.03" y1="144.95" x2="22.95" y2="144.95" xlink:href="#linear-gradient-3"/><linearGradient id="linear-gradient-6" x1="144.55" y1="84.78" x2="168.4" y2="84.78" xlink:href="#linear-gradient-2"/><linearGradient id="linear-gradient-7" x1="156.47" y1="70.79" x2="168.4" y2="70.79" xlink:href="#linear-gradient-3"/><linearGradient id="linear-gradient-8" x1="144.55" y1="60.46" x2="168.4" y2="60.46" xlink:href="#linear-gradient-4"/><linearGradient id="linear-gradient-9" x1="144.55" y1="70.79" x2="156.47" y2="70.79" xlink:href="#linear-gradient-3"/><linearGradient id="linear-gradient-10" x1="144.55" y1="158.94" x2="168.4" y2="158.94" xlink:href="#linear-gradient-2"/><linearGradient id="linear-gradient-11" x1="156.47" y1="144.95" x2="168.4" y2="144.95" xlink:href="#linear-gradient-3"/><linearGradient id="linear-gradient-12" x1="144.55" y1="134.62" x2="168.4" y2="134.62" xlink:href="#linear-gradient-4"/><linearGradient id="linear-gradient-13" x1="144.55" y1="144.95" x2="156.47" y2="144.95" xlink:href="#linear-gradient-3"/><linearGradient id="linear-gradient-14" x1="11.03" y1="84.78" x2="34.88" y2="84.78" xlink:href="#linear-gradient-2"/><linearGradient id="linear-gradient-15" x1="22.95" y1="70.79" x2="34.88" y2="70.79" xlink:href="#linear-gradient-3"/><linearGradient id="linear-gradient-16" x1="11.03" y1="60.46" x2="34.88" y2="60.46" xlink:href="#linear-gradient-4"/><linearGradient id="linear-gradient-17" x1="11.03" y1="70.79" x2="22.95" y2="70.79" xlink:href="#linear-gradient-3"/><linearGradient id="linear-gradient-18" x1="55.56" y1="120.73" x2="124.76" y2="120.73" xlink:href="#linear-gradient-2"/><linearGradient id="linear-gradient-19" x1="62.2" y1="76.46" x2="125.31" y2="76.46" gradientUnits="userSpaceOnUse"><stop offset="0" stop-color="#eef5fa"/><stop offset="0.11" stop-color="#e1eff7" stop-opacity="0.99"/><stop offset="0.3" stop-color="#beddef" stop-opacity="0.95"/><stop offset="0.57" stop-color="#85c2e2" stop-opacity="0.9"/><stop offset="0.9" stop-color="#379cd0" stop-opacity="0.82"/><stop offset="1" stop-color="#1f90ca" stop-opacity="0.8"/></linearGradient><linearGradient id="linear-gradient-20" x1="54.87" y1="33.37" x2="124.69" y2="33.37" gradientUnits="userSpaceOnUse"><stop offset="0" stop-color="#0984bd"/><stop offset="1" stop-color="#56a5d7"/></linearGradient><linearGradient id="linear-gradient-21" x1="54.12" y1="76.78" x2="89.71" y2="76.78" xlink:href="#linear-gradient-19"/><linearGradient id="linear-gradient-22" x1="55.25" y1="76.4" x2="90.38" y2="76.4" gradientUnits="userSpaceOnUse"><stop offset="0.05" stop-color="#14416a"/><stop offset="1" stop-color="#004f98"/></linearGradient><linearGradient id="_ÂÁ_Ï_ÌÌ_È_ËÂÌÚ_441" x1="-234.85" y1="2135.48" x2="-199.8" y2="2127.54" gradientTransform="matrix(0.87, 0.5, 0, 1.15, 258.53, -2276.58)" gradientUnits="userSpaceOnUse"><stop offset="0" stop-color="#3919bb"/><stop offset="1" stop-color="#6507fa"/></linearGradient><linearGradient id="linear-gradient-23" x1="56.36" y1="76.45" x2="87.47" y2="76.45" gradientUnits="userSpaceOnUse"><stop offset="0.43" stop-color="#eef6fb"/><stop offset="1" stop-color="#abd1ec"/></linearGradient><linearGradient id="linear-gradient-24" x1="56.36" y1="76.45" x2="87.2" y2="76.45" xlink:href="#linear-gradient-22"/><linearGradient id="linear-gradient-25" x1="59.24" y1="96.68" x2="87.47" y2="96.68" xlink:href="#linear-gradient-23"/><linearGradient id="linear-gradient-26" x1="59.24" y1="82.47" x2="87.47" y2="82.47" xlink:href="#linear-gradient-23"/><linearGradient id="linear-gradient-27" x1="59.24" y1="68.26" x2="87.47" y2="68.26" xlink:href="#linear-gradient-23"/><linearGradient id="linear-gradient-28" x1="59.24" y1="54.05" x2="87.47" y2="54.05" xlink:href="#linear-gradient-23"/><linearGradient id="linear-gradient-29" x1="59.24" y1="43.39" x2="87.47" y2="43.39" xlink:href="#linear-gradient-23"/><linearGradient id="linear-gradient-30" x1="59.24" y1="49" x2="87.47" y2="49" xlink:href="#linear-gradient"/><linearGradient id="linear-gradient-31" x1="59.24" y1="63.21" x2="87.47" y2="63.21" xlink:href="#linear-gradient"/><linearGradient id="linear-gradient-32" x1="59.24" y1="77.42" x2="87.47" y2="77.42" xlink:href="#linear-gradient"/><linearGradient id="linear-gradient-33" x1="59.24" y1="91.63" x2="87.47" y2="91.63" xlink:href="#linear-gradient"/><linearGradient id="linear-gradient-34" x1="59.24" y1="105.84" x2="87.47" y2="105.84" xlink:href="#linear-gradient"/><linearGradient id="linear-gradient-35" x1="62.63" y1="49.65" x2="86.07" y2="49.65" xlink:href="#linear-gradient-19"/><linearGradient id="linear-gradient-36" x1="62.63" y1="49.65" x2="86.03" y2="49.65" xlink:href="#linear-gradient-22"/><linearGradient id="linear-gradient-37" x1="62.63" y1="63.77" x2="86.07" y2="63.77" xlink:href="#linear-gradient-19"/><linearGradient id="linear-gradient-38" x1="62.63" y1="63.77" x2="86.03" y2="63.77" xlink:href="#linear-gradient-22"/><linearGradient id="linear-gradient-39" x1="62.63" y1="78.02" x2="86.07" y2="78.02" xlink:href="#linear-gradient-19"/><linearGradient id="linear-gradient-40" x1="62.63" y1="78.02" x2="86.03" y2="78.02" xlink:href="#linear-gradient-22"/><linearGradient id="linear-gradient-41" x1="62.63" y1="92.41" x2="86.07" y2="92.41" xlink:href="#linear-gradient-19"/><linearGradient id="linear-gradient-42" x1="62.63" y1="92.41" x2="86.03" y2="92.41" xlink:href="#linear-gradient-22"/><linearGradient id="linear-gradient-43" x1="62.63" y1="106.51" x2="86.07" y2="106.51" xlink:href="#linear-gradient-19"/><linearGradient id="linear-gradient-44" x1="62.63" y1="106.51" x2="86.03" y2="106.51" xlink:href="#linear-gradient-22"/><linearGradient id="linear-gradient-45" x1="59.24" y1="41.49" x2="61.47" y2="41.49" xlink:href="#linear-gradient-20"/><linearGradient id="linear-gradient-46" x1="59.24" y1="55.7" x2="61.47" y2="55.7" xlink:href="#linear-gradient-20"/><linearGradient id="linear-gradient-47" x1="59.24" y1="69.91" x2="61.47" y2="69.91" xlink:href="#linear-gradient-20"/><linearGradient id="linear-gradient-48" x1="59.24" y1="84.12" x2="61.47" y2="84.12" xlink:href="#linear-gradient-20"/><linearGradient id="linear-gradient-49" x1="59.24" y1="98.33" x2="61.47" y2="98.33" xlink:href="#linear-gradient-20"/><linearGradient id="linear-gradient-50" x1="94.41" y1="76.46" x2="121.11" y2="76.46" xlink:href="#linear-gradient-22"/><linearGradient id="linear-gradient-51" x1="100.85" y1="63.77" x2="115.66" y2="63.77" xlink:href="#linear-gradient-19"/><linearGradient id="linear-gradient-52" x1="100.96" y1="63.77" x2="115.66" y2="63.77" xlink:href="#linear-gradient-22"/><linearGradient id="linear-gradient-53" x1="68.71" y1="160.86" x2="110.71" y2="160.86" xlink:href="#linear-gradient-2"/><linearGradient id="linear-gradient-54" x1="68.72" y1="149.95" x2="110.7" y2="149.95" xlink:href="#linear-gradient-20"/><linearGradient id="linear-gradient-55" x1="68.72" y1="149.95" x2="89.71" y2="149.95" xlink:href="#linear-gradient-19"/><linearGradient id="linear-gradient-56" x1="68.72" y1="146.34" x2="70.32" y2="146.34" xlink:href="#linear-gradient"/><linearGradient id="linear-gradient-57" x1="87.97" y1="157.02" x2="91.45" y2="157.02" xlink:href="#linear-gradient-20"/><linearGradient id="linear-gradient-58" x1="74.22" y1="133.06" x2="110.29" y2="154.57" xlink:href="#linear-gradient-19"/><linearGradient id="linear-gradient-59" x1="79.89" y1="142" x2="99.54" y2="142" xlink:href="#linear-gradient-19"/><linearGradient id="linear-gradient-60" x1="79.89" y1="139.44" x2="99.53" y2="139.44" xlink:href="#linear-gradient-22"/><linearGradient id="linear-gradient-61" x1="135.48" y1="114.45" x2="177.47" y2="114.45" xlink:href="#linear-gradient-2"/><linearGradient id="linear-gradient-62" x1="135.48" y1="103.54" x2="177.47" y2="103.54" xlink:href="#linear-gradient-20"/><linearGradient id="linear-gradient-63" x1="135.48" y1="103.54" x2="156.47" y2="103.54" xlink:href="#linear-gradient-19"/><linearGradient id="linear-gradient-64" x1="135.48" y1="99.93" x2="137.08" y2="99.93" xlink:href="#linear-gradient"/><linearGradient id="linear-gradient-65" x1="154.73" y1="110.61" x2="158.22" y2="110.61" xlink:href="#linear-gradient-20"/><linearGradient id="linear-gradient-66" x1="140.98" y1="86.65" x2="177.05" y2="108.16" xlink:href="#linear-gradient-19"/><linearGradient id="linear-gradient-67" x1="146.65" y1="95.59" x2="166.3" y2="95.59" xlink:href="#linear-gradient-19"/><linearGradient id="linear-gradient-68" x1="146.65" y1="93.03" x2="166.3" y2="93.03" xlink:href="#linear-gradient-22"/><linearGradient id="linear-gradient-69" x1="1.95" y1="114.45" x2="43.95" y2="114.45" xlink:href="#linear-gradient-2"/><linearGradient id="linear-gradient-70" x1="1.96" y1="103.54" x2="43.95" y2="103.54" xlink:href="#linear-gradient-20"/><linearGradient id="linear-gradient-71" x1="1.96" y1="103.54" x2="22.95" y2="103.54" xlink:href="#linear-gradient-19"/><linearGradient id="linear-gradient-72" x1="21.21" y1="110.61" x2="24.69" y2="110.61" xlink:href="#linear-gradient-20"/><linearGradient id="linear-gradient-73" x1="7.46" y1="86.65" x2="43.53" y2="108.16" xlink:href="#linear-gradient-19"/><linearGradient id="linear-gradient-74" x1="13.13" y1="95.59" x2="32.78" y2="95.59" xlink:href="#linear-gradient-19"/><linearGradient id="linear-gradient-75" x1="13.13" y1="93.03" x2="32.77" y2="93.03" xlink:href="#linear-gradient-22"/></defs><g class="cls-1"><g id="Our_AI_Ops_Platform_Power" data-name="Our AI Ops Platform Power"><path class="cls-2" d="M3.56,95.87H2v6.46a1.26,1.26,0,0,0,.75,1.17l.85.49Z"/><path class="cls-3" d="M120.49,136.11a3.41,3.41,0,0,1-1.54,2.67c-.85.49-1.54.09-1.54-.89a3.41,3.41,0,0,1,1.54-2.67C119.8,134.73,120.49,135.13,120.49,136.11Z"/><path class="cls-3" d="M125.49,133.23A3.43,3.43,0,0,1,124,135.9c-.86.49-1.55.09-1.55-.89a3.38,3.38,0,0,1,1.55-2.67C124.8,131.85,125.49,132.24,125.49,133.23Z"/><path class="cls-3" d="M130.48,130.34a3.4,3.4,0,0,1-1.54,2.67c-.85.49-1.54.09-1.54-.89a3.41,3.41,0,0,1,1.54-2.67C129.79,129,130.48,129.36,130.48,130.34Z"/><path class="cls-3" d="M135.48,127.46a3.4,3.4,0,0,1-1.55,2.67c-.85.49-1.54.09-1.54-.89a3.41,3.41,0,0,1,1.54-2.67C134.79,126.08,135.48,126.48,135.48,127.46Z"/><path class="cls-3" d="M48.55,163.65A3.4,3.4,0,0,1,47,166.32c-.85.49-1.54.1-1.54-.89A3.43,3.43,0,0,1,47,162.76C47.86,162.27,48.55,162.67,48.55,163.65Z"/><path class="cls-3" d="M52.81,161.2a3.4,3.4,0,0,1-1.55,2.67c-.85.49-1.54.09-1.54-.89a3.41,3.41,0,0,1,1.54-2.67C52.12,159.82,52.81,160.22,52.81,161.2Z"/><path class="cls-3" d="M48.55,158.75A3.39,3.39,0,0,1,47,161.41c-.85.5-1.54.1-1.54-.89A3.39,3.39,0,0,1,47,157.86C47.86,157.36,48.55,157.76,48.55,158.75Z"/><path class="cls-3" d="M52.81,156.29A3.4,3.4,0,0,1,51.26,159c-.85.49-1.54.09-1.54-.89a3.41,3.41,0,0,1,1.54-2.67C52.12,154.91,52.81,155.31,52.81,156.29Z"/><polygon class="cls-3" points="34.28 40.66 31.2 42.44 31.2 38.88 34.28 37.1 34.28 40.66"/><polygon class="cls-3" points="38.56 38.16 35.47 39.94 35.47 36.38 38.56 34.6 38.56 38.16"/><polygon class="cls-3" points="34.3 45.27 31.22 47.05 31.22 43.49 34.3 41.72 34.3 45.27"/><polygon class="cls-3" points="38.56 42.82 35.47 44.6 35.47 41.04 38.56 39.26 38.56 42.82"/><path class="cls-3" d="M28.63,119.22a.69.69,0,0,1-.37-.1.75.75,0,0,1-.38-.64v-9.55a.76.76,0,0,1,.38-.65l8.27-4.77a.75.75,0,0,1,.74,0,.74.74,0,0,1,.37.64v9.55a.76.76,0,0,1-.37.65L29,119.12A.69.69,0,0,1,28.63,119.22Zm.75-9.86v7.82l6.77-3.91v-7.83Zm7.52,4.34Z"/><polygon class="cls-4" points="22.95 165.83 11.03 158.94 22.95 152.06 34.88 158.94 22.95 165.83"/><path class="cls-3" d="M23,161.56a.92.92,0,0,1-.45-.12l-11.93-6.88a.93.93,0,0,1-.45-.79.9.9,0,0,1,.45-.78L22.5,146.1a.9.9,0,0,1,.9,0L35.33,153a.9.9,0,0,1,.45.78.93.93,0,0,1-.45.79L23.4,161.44A.89.89,0,0,1,23,161.56Zm-10.11-7.79L23,159.61l10.11-5.84L23,147.93Z"/><polygon class="cls-5" points="34.88 148.39 22.95 155.28 22.95 141.51 34.88 134.62 34.88 148.39"/><polygon class="cls-6" points="22.95 141.51 11.03 134.62 22.95 127.74 34.88 134.62 22.95 141.51"/><polygon class="cls-7" points="22.95 155.28 11.03 148.39 11.03 134.62 22.95 141.51 22.95 155.28"/><polygon class="cls-3" points="18.66 147.84 15.32 145.91 15.32 142.06 18.66 143.99 18.66 147.84"/><polygon class="cls-8" points="156.47 91.66 144.55 84.78 156.47 77.89 168.4 84.78 156.47 91.66"/><path class="cls-3" d="M156.47,87.4a.92.92,0,0,1-.45-.12l-11.93-6.89a.91.91,0,0,1,0-1.57L156,71.94a.9.9,0,0,1,.9,0l11.93,6.88a.91.91,0,0,1,0,1.57l-11.92,6.89A.93.93,0,0,1,156.47,87.4Zm-10.11-7.79,10.11,5.83,10.11-5.83-10.11-5.84Z"/><polygon class="cls-9" points="168.4 74.23 156.47 81.11 156.47 67.34 168.4 60.46 168.4 74.23"/><polygon class="cls-10" points="156.47 67.34 144.55 60.46 156.47 53.57 168.4 60.46 156.47 67.34"/><polygon class="cls-11" points="156.47 81.11 144.55 74.23 144.55 60.46 156.47 67.34 156.47 81.11"/><polygon class="cls-3" points="152.18 73.67 148.84 71.75 148.84 67.9 152.18 69.82 152.18 73.67"/><polygon class="cls-3" points="153.14 60.5 156.45 58.53 159.81 60.42 156.5 62.38 153.14 60.5"/><polygon class="cls-12" points="156.47 165.83 144.55 158.94 156.47 152.06 168.4 158.94 156.47 165.83"/><path class="cls-3" d="M156.47,161.56a.92.92,0,0,1-.45-.12l-11.93-6.88a.93.93,0,0,1-.45-.79.9.9,0,0,1,.45-.78L156,146.1a.9.9,0,0,1,.9,0L168.85,153a.9.9,0,0,1,.45.78.93.93,0,0,1-.45.79l-11.92,6.88A.93.93,0,0,1,156.47,161.56Zm-10.11-7.79,10.11,5.84,10.11-5.84-10.11-5.84Z"/><polygon class="cls-13" points="168.4 148.39 156.47 155.28 156.47 141.51 168.4 134.62 168.4 148.39"/><polygon class="cls-14" points="156.47 141.51 144.55 134.62 156.47 127.74 168.4 134.62 156.47 141.51"/><polygon class="cls-15" points="156.47 155.28 144.55 148.39 144.55 134.62 156.47 141.51 156.47 155.28"/><polygon class="cls-3" points="152.18 147.84 148.84 145.91 148.84 142.06 152.18 143.99 152.18 147.84"/><polygon class="cls-16" points="22.95 91.66 11.03 84.78 22.95 77.89 34.88 84.78 22.95 91.66"/><path class="cls-3" d="M23,87.4a.92.92,0,0,1-.45-.12L10.57,80.39a.91.91,0,0,1,0-1.57L22.5,71.94a.9.9,0,0,1,.9,0l11.93,6.88a.91.91,0,0,1,0,1.57L23.4,87.28A.89.89,0,0,1,23,87.4ZM12.84,79.61,23,85.44l10.11-5.83L23,73.77Z"/><polygon class="cls-17" points="34.88 74.23 22.95 81.11 22.95 67.34 34.88 60.46 34.88 74.23"/><polygon class="cls-18" points="22.95 67.34 11.03 60.46 22.95 53.57 34.88 60.46 22.95 67.34"/><polygon class="cls-19" points="22.95 81.11 11.03 74.23 11.03 60.46 22.95 67.34 22.95 81.11"/><polygon class="cls-3" points="18.66 73.67 15.32 71.75 15.32 67.9 18.66 69.82 18.66 73.67"/><rect class="cls-3" x="112.98" y="80.08" width="40.04" height="1.81" transform="translate(-22.67 77.33) rotate(-29.99)"/><path class="cls-20" d="M86.9,140.29,56.32,122.63c-1.13-.64-1-1.77.31-2.52L89,101.35a4.86,4.86,0,0,1,4.38-.18L124,118.82c1.12.65,1,1.78-.32,2.53L91.27,140.11A4.84,4.84,0,0,1,86.9,140.29Z"/><path class="cls-3" d="M88.8,134.49a4.84,4.84,0,0,1-2.36-.55L55.86,116.28a2.2,2.2,0,0,1-1.21-1.88,2.68,2.68,0,0,1,1.53-2.22L88.59,93.42a5.81,5.81,0,0,1,5.28-.18l30.58,17.66a2.19,2.19,0,0,1,1.21,1.88,2.65,2.65,0,0,1-1.52,2.21L91.72,133.75A5.92,5.92,0,0,1,88.8,134.49Zm-1.45-2.12a4,4,0,0,0,3.47-.19l32.41-18.76c.45-.26.62-.53.62-.64s-.09-.19-.3-.31L93,94.81A4,4,0,0,0,89.5,95L57.08,113.75c-.45.27-.62.53-.62.65s.1.19.31.31Z"/><path class="cls-21" d="M89.11,47.35S72.31,49,62.2,49.73L89,126.12l35.48-20.47h0l.06,0h0a2,2,0,0,0,.73-1.75V29.19a5.45,5.45,0,0,0-.62-2.39Z"/><path class="cls-22" d="M123.11,25,91.91,7a1.4,1.4,0,0,0-1.42-.13h0L54.87,27.4l1.67,6.21,8.94,25.44,1.68,1L124.69,26.8A4.42,4.42,0,0,0,123.11,25Z"/><path class="cls-23" d="M87.51,126.05l-31.2-18a5.26,5.26,0,0,1-2.19-4.19V29.17c0-1.62,1-2.36,2.19-1.66l31.2,18a5.25,5.25,0,0,1,2.2,4.2v74.67C89.71,126,88.73,126.75,87.51,126.05Z"/><path class="cls-24" d="M88.18,45.15,57,27.13a1.31,1.31,0,0,0-1.73.13,1.62,1.62,0,0,1,1.06.25l31.2,18a5.25,5.25,0,0,1,2.2,4.2v74.67a2.24,2.24,0,0,1-.47,1.53c.68-.11,1.14-.8,1.14-1.91V49.35A5.25,5.25,0,0,0,88.18,45.15Z"/><path class="cls-25" d="M85.55,121.55,58.28,105.8a4.59,4.59,0,0,1-1.92-3.66V32.79c0-1.41.86-2.06,1.92-1.45L85.55,47.09a4.59,4.59,0,0,1,1.92,3.67V120.1C87.47,121.51,86.61,122.16,85.55,121.55Z"/><path class="cls-25" d="M85.55,121.55,58.28,105.8a4.59,4.59,0,0,1-1.92-3.66V32.79c0-1.41.86-2.06,1.92-1.45L85.55,47.09a4.59,4.59,0,0,1,1.92,3.67V120.1C87.47,121.51,86.61,122.16,85.55,121.55Z"/><path class="cls-26" d="M85.55,121.55,58.28,105.8a4.59,4.59,0,0,1-1.92-3.66V32.79c0-1.41.86-2.06,1.92-1.45L85.55,47.09a4.59,4.59,0,0,1,1.92,3.67V120.1C87.47,121.51,86.61,122.16,85.55,121.55Z"/><path class="cls-27" d="M86.44,121,59.17,105.28a4.59,4.59,0,0,1-1.92-3.67V32.27a2.29,2.29,0,0,1,.27-1.16c-.68,0-1.16.63-1.16,1.68v69.35a4.59,4.59,0,0,0,1.92,3.66l27.27,15.75a1.11,1.11,0,0,0,1.65-.29A1.61,1.61,0,0,1,86.44,121Z"/><path class="cls-28" d="M85.55,89.72,75.41,83.86,59.24,93.2l28.23,16.3V93.39A4.59,4.59,0,0,0,85.55,89.72Z"/><path class="cls-29" d="M85.55,75.51,75.41,69.65,59.24,79l28.23,16.3V79.18A4.59,4.59,0,0,0,85.55,75.51Z"/><path class="cls-30" d="M85.55,61.3,75.41,55.44,59.24,64.78l28.23,16.3V65A4.59,4.59,0,0,0,85.55,61.3Z"/><path class="cls-31" d="M85.55,47.09,75.41,41.23,59.24,50.57l28.23,16.3V50.76A4.59,4.59,0,0,0,85.55,47.09Z"/><path class="cls-32" d="M85.55,47.09l-22.44-13-3.87,2.23,28.23,16.3v-1.9A4.59,4.59,0,0,0,85.55,47.09Z"/><polygon class="cls-33" points="87.47 52.66 59.24 36.36 59.24 45.34 87.47 61.64 87.47 52.66"/><polygon class="cls-34" points="87.47 66.87 59.24 50.57 59.24 59.55 87.47 75.85 87.47 66.87"/><polygon class="cls-35" points="87.47 81.08 59.24 64.78 59.24 73.76 87.47 90.06 87.47 81.08"/><polygon class="cls-36" points="87.47 95.29 59.24 78.99 59.24 87.97 87.47 104.27 87.47 95.29"/><polygon class="cls-37" points="87.47 109.5 59.24 93.2 59.24 102.18 87.47 118.48 87.47 109.5"/><path class="cls-38" d="M85,58.44,63.72,46.16a2.58,2.58,0,0,1-1.09-2.07V41.68c0-.8.49-1.17,1.09-.82L85,53.13a2.62,2.62,0,0,1,1.09,2.08v2.41C86.07,58.42,85.58,58.79,85,58.44Z"/><path class="cls-39" d="M64.8,45.7a2.58,2.58,0,0,1-1.09-2.07V41.22a1.67,1.67,0,0,1,0-.34l0,0c-.6-.35-1.09,0-1.09.82v2.41a2.58,2.58,0,0,0,1.09,2.07L85,58.44A.65.65,0,0,0,86,58Z"/><path class="cls-3" d="M78.31,51.85,65.52,44.46a.92.92,0,0,1-.39-.73h0c0-.28.18-.41.39-.29l12.79,7.39a.92.92,0,0,1,.38.73h0C78.69,51.84,78.52,52,78.31,51.85Z"/><path class="cls-40" d="M85,72.56,63.72,60.28a2.58,2.58,0,0,1-1.09-2.07V55.8c0-.8.49-1.17,1.09-.82L85,67.26a2.58,2.58,0,0,1,1.09,2.07v2.41C86.07,72.54,85.58,72.91,85,72.56Z"/><path class="cls-41" d="M64.8,59.82a2.58,2.58,0,0,1-1.09-2.07V55.34a1.67,1.67,0,0,1,0-.34l0,0c-.6-.35-1.09,0-1.09.82v2.41a2.58,2.58,0,0,0,1.09,2.07L85,72.56a.65.65,0,0,0,1-.48Z"/><path class="cls-3" d="M78.31,66,65.52,58.58a.92.92,0,0,1-.39-.73h0c0-.28.18-.41.39-.29L78.31,65a.92.92,0,0,1,.38.73h0C78.69,66,78.52,66.09,78.31,66Z"/><path class="cls-42" d="M85,86.81,63.72,74.54a2.62,2.62,0,0,1-1.09-2.08v-2.4c0-.8.49-1.17,1.09-.83L85,81.51a2.62,2.62,0,0,1,1.09,2.08V86C86.07,86.79,85.58,87.16,85,86.81Z"/><path class="cls-43" d="M64.8,74.08A2.62,2.62,0,0,1,63.71,72V69.6a1.87,1.87,0,0,1,0-.35l0,0c-.6-.34-1.09,0-1.09.83v2.4a2.62,2.62,0,0,0,1.09,2.08L85,86.81a.65.65,0,0,0,1-.47Z"/><path class="cls-44" d="M78.31,80.22,65.52,72.83a.91.91,0,0,1-.39-.73h0c0-.28.18-.41.39-.29L78.31,79.2a.92.92,0,0,1,.38.73h0C78.69,80.21,78.52,80.34,78.31,80.22Z"/><path class="cls-45" d="M85,101.2,63.72,88.92a2.58,2.58,0,0,1-1.09-2.07V84.44c0-.8.49-1.17,1.09-.82L85,95.89A2.62,2.62,0,0,1,86.07,98v2.41C86.07,101.18,85.58,101.54,85,101.2Z"/><path class="cls-46" d="M64.8,88.46a2.58,2.58,0,0,1-1.09-2.07V84a1.67,1.67,0,0,1,0-.34l0,0c-.6-.35-1.09,0-1.09.82v2.41a2.58,2.58,0,0,0,1.09,2.07L85,101.2a.65.65,0,0,0,1-.48Z"/><path class="cls-47" d="M78.31,94.61,65.52,87.22a.92.92,0,0,1-.39-.73h0c0-.28.18-.41.39-.29l12.79,7.39a.92.92,0,0,1,.38.73h0C78.69,94.6,78.52,94.73,78.31,94.61Z"/><path class="cls-48" d="M85,115.3,63.72,103A2.58,2.58,0,0,1,62.63,101V98.54c0-.8.49-1.17,1.09-.82L85,110a2.62,2.62,0,0,1,1.09,2.08v2.41C86.07,115.28,85.58,115.64,85,115.3Z"/><path class="cls-49" d="M64.8,102.56a2.58,2.58,0,0,1-1.09-2.07V98.08a1.87,1.87,0,0,1,0-.35h0c-.6-.35-1.09,0-1.09.82V101A2.58,2.58,0,0,0,63.72,103L85,115.3a.65.65,0,0,0,1-.48Z"/><path class="cls-44" d="M78.31,108.71l-12.79-7.39a.92.92,0,0,1-.39-.73h0c0-.28.18-.41.39-.29l12.79,7.39a.92.92,0,0,1,.38.73h0C78.69,108.7,78.52,108.83,78.31,108.71Z"/><polygon class="cls-50" points="59.24 36.36 61.47 37.64 61.47 46.63 59.24 45.34 59.24 36.36"/><polygon class="cls-51" points="59.24 50.57 61.47 51.85 61.47 60.83 59.24 59.55 59.24 50.57"/><polygon class="cls-52" points="59.24 64.78 61.47 66.06 61.47 75.04 59.24 73.76 59.24 64.78"/><polygon class="cls-53" points="59.24 78.99 61.47 80.27 61.47 89.25 59.24 87.97 59.24 78.99"/><polygon class="cls-54" points="59.24 93.2 61.47 94.48 61.47 103.46 59.24 102.18 59.24 93.2"/><ellipse class="cls-44" cx="80.38" cy="52.47" rx="0.37" ry="0.64" transform="translate(-15.47 47.23) rotate(-30)"/><path class="cls-47" d="M82.74,53.83c0,.29-.2.41-.45.26a1,1,0,0,1-.45-.77c0-.29.2-.41.45-.26A1,1,0,0,1,82.74,53.83Z"/><path class="cls-44" d="M84.65,54.94c0,.28-.2.4-.45.26a1,1,0,0,1-.45-.78c0-.29.2-.41.45-.26A1,1,0,0,1,84.65,54.94Z"/><path class="cls-47" d="M80.83,66.94c0,.28-.2.4-.45.26a1,1,0,0,1-.45-.78c0-.29.2-.41.45-.26A1,1,0,0,1,80.83,66.94Z"/><path class="cls-44" d="M82.74,68c0,.28-.2.4-.45.26a1,1,0,0,1-.45-.78c0-.29.2-.41.45-.26A1,1,0,0,1,82.74,68Z"/><path class="cls-3" d="M84.65,69.14c0,.29-.2.4-.45.26a1,1,0,0,1-.45-.78c0-.29.2-.4.45-.26A1,1,0,0,1,84.65,69.14Z"/><path class="cls-3" d="M80.83,81.24c0,.29-.2.41-.45.26a1,1,0,0,1-.45-.77c0-.29.2-.41.45-.26A1,1,0,0,1,80.83,81.24Z"/><path class="cls-47" d="M82.74,82.35c0,.28-.2.4-.45.26a1,1,0,0,1-.45-.78c0-.29.2-.41.45-.26A1,1,0,0,1,82.74,82.35Z"/><path class="cls-3" d="M84.65,83.45c0,.28-.2.4-.45.26a1,1,0,0,1-.45-.78c0-.29.2-.41.45-.26A1,1,0,0,1,84.65,83.45Z"/><path class="cls-3" d="M80.83,95.35c0,.28-.2.4-.45.26a1,1,0,0,1-.45-.78c0-.29.2-.41.45-.26A1,1,0,0,1,80.83,95.35Z"/><path class="cls-44" d="M82.74,96.45c0,.28-.2.4-.45.26a1,1,0,0,1-.45-.78c0-.29.2-.41.45-.26A1,1,0,0,1,82.74,96.45Z"/><path class="cls-44" d="M84.65,97.55c0,.29-.2.4-.45.26a1,1,0,0,1-.45-.78c0-.29.2-.4.45-.26A1,1,0,0,1,84.65,97.55Z"/><path class="cls-3" d="M80.83,109.64c0,.29-.2.4-.45.26a1,1,0,0,1-.45-.78c0-.29.2-.4.45-.26A1,1,0,0,1,80.83,109.64Z"/><path class="cls-47" d="M82.74,110.74c0,.29-.2.4-.45.26a1,1,0,0,1-.45-.78c0-.29.2-.4.45-.26A1,1,0,0,1,82.74,110.74Z"/><path class="cls-44" d="M84.65,111.84c0,.29-.2.41-.45.26a1,1,0,0,1-.45-.78c0-.28.2-.4.45-.26A1,1,0,0,1,84.65,111.84Z"/><path class="cls-55" d="M94.41,116V52.38l.13-.08L121.11,37v63.58l-.13.07Zm.53-63.27V115l25.65-14.81V37.87Z"/><path class="cls-56" d="M114.21,65.57,102.3,72.44c-.8.47-1.45,0-1.45-1.09V64.74A3.5,3.5,0,0,1,102.3,62l11.91-6.87c.8-.47,1.45,0,1.45,1.09V62.8A3.5,3.5,0,0,1,114.21,65.57Z"/><path class="cls-57" d="M114.5,55a1.82,1.82,0,0,1,.11.66v6.61A3.46,3.46,0,0,1,113.16,65l-11.92,6.88A1.17,1.17,0,0,1,101,72a.84.84,0,0,0,1.34.43l11.91-6.87a3.5,3.5,0,0,0,1.45-2.77V56.19C115.66,55.26,115.16,54.76,114.5,55Z"/><path class="cls-3" d="M112,61.59c.22-.13.39,0,.39.23v1.5A.85.85,0,0,1,112,64c-.23.13-.4,0-.4-.23v-1.5A.84.84,0,0,1,112,61.59Z"/><path class="cls-44" d="M110.33,62.76c.22-.12.39,0,.39.23v1.32a.88.88,0,0,1-.39.69c-.22.13-.4,0-.4-.23V63.45A.89.89,0,0,1,110.33,62.76Z"/><path class="cls-47" d="M108.62,62.28c.22-.13.4,0,.4.23V65.3a.89.89,0,0,1-.4.69c-.22.12-.4,0-.4-.23V63A.89.89,0,0,1,108.62,62.28Z"/><path class="cls-44" d="M106.91,61.66c.22-.13.4,0,.4.23v4.39a.86.86,0,0,1-.4.69c-.22.13-.4,0-.4-.23V62.35A.89.89,0,0,1,106.91,61.66Z"/><path class="cls-44" d="M105.2,63.11c.22-.13.4,0,.4.23v3.93a.89.89,0,0,1-.4.69c-.22.13-.4,0-.4-.23V63.8A.89.89,0,0,1,105.2,63.11Z"/><path class="cls-3" d="M103.49,65.89c.22-.13.4,0,.4.23v2.14a.89.89,0,0,1-.4.69c-.22.12-.4,0-.4-.23V66.58A.89.89,0,0,1,103.49,65.89Z"/><path class="cls-47" d="M111.64,60.83c0,.25.18.35.4.22a.88.88,0,0,0,.39-.68c0-.25-.18-.35-.39-.22A.86.86,0,0,0,111.64,60.83Z"/><ellipse class="cls-3" cx="112.04" cy="59.19" rx="0.55" ry="0.32" transform="translate(4.76 126.61) rotate(-60)"/><rect class="cls-3" x="155.57" y="25.28" width="1.81" height="35.17"/><path class="cls-58" d="M87.69,172.55,69.47,162c-1.12-.65-1-1.77.31-2.52l17.59-10.16a4.88,4.88,0,0,1,4.36-.18L110,159.69c1.12.65,1,1.77-.31,2.52L92.05,172.37A4.88,4.88,0,0,1,87.69,172.55Z"/><path class="cls-3" d="M89.59,168.27a4.87,4.87,0,0,1-2.42-.58h0L69,157.17a2.32,2.32,0,0,1-1.27-2,2.8,2.8,0,0,1,1.58-2.32L86.85,142.7a5.82,5.82,0,0,1,5.4-.18L110.47,153a2.32,2.32,0,0,1,1.27,2,2.8,2.8,0,0,1-1.58,2.32L92.57,167.51A6.14,6.14,0,0,1,89.59,168.27ZM88.2,165.9a3.86,3.86,0,0,0,3.33-.19l17.59-10.15c.44-.26.55-.49.55-.53a.57.57,0,0,0-.23-.2L91.22,144.31a3.85,3.85,0,0,0-3.33.18L70.3,154.65c-.44.26-.55.49-.55.53a.56.56,0,0,0,.24.2L88.2,165.9Z"/><path class="cls-59" d="M110.7,148.58h0V142.3H96.61l-4.88-2.81a4.82,4.82,0,0,0-4.36.18l-4.54,2.62H68.72v6.47a1.26,1.26,0,0,0,.75,1.17l18.22,10.52a4.88,4.88,0,0,0,4.36-.18l17.59-10.16A1.74,1.74,0,0,0,110.7,148.58Z"/><path class="cls-60" d="M89.71,139.05a4.88,4.88,0,0,0-2.34.61l-4.54,2.62H68.72v6.47a1.26,1.26,0,0,0,.75,1.17l18.22,10.52a3.89,3.89,0,0,0,2,.43Z"/><path class="cls-61" d="M70.32,142.28h-1.6v6.47a1.26,1.26,0,0,0,.75,1.17l.85.49Z"/><path class="cls-62" d="M88,160.56a4.91,4.91,0,0,0,3.48,0v-7.34H88Z"/><path class="cls-63" d="M87.69,154,69.47,143.47c-1.12-.65-1-1.78.31-2.52l17.59-10.16a4.88,4.88,0,0,1,4.36-.18L110,141.13c1.12.65,1,1.77-.31,2.52L92.05,153.8A4.85,4.85,0,0,1,87.69,154Z"/><path class="cls-3" d="M109.64,142.41,92.05,152.57a4.88,4.88,0,0,1-4.36.18L69.47,142.23a1.62,1.62,0,0,1-.56-.5,1.18,1.18,0,0,0,.56,1.74L87.69,154a4.85,4.85,0,0,0,4.36-.19l17.59-10.15c1-.58,1.31-1.39.87-2A2.33,2.33,0,0,1,109.64,142.41Z"/><path class="cls-44" d="M104,150.24a1.64,1.64,0,0,1-.74,1.28c-.4.23-.73,0-.73-.43a1.62,1.62,0,0,1,.73-1.27C103.67,149.58,104,149.77,104,150.24Z"/><path class="cls-44" d="M106.37,148.88a1.6,1.6,0,0,1-.74,1.27c-.4.24-.73,0-.73-.42a1.66,1.66,0,0,1,.73-1.28C106,148.22,106.37,148.41,106.37,148.88Z"/><path class="cls-44" d="M108.74,147.51a1.6,1.6,0,0,1-.74,1.27c-.41.24-.74.05-.74-.42a1.64,1.64,0,0,1,.74-1.28C108.41,146.85,108.74,147,108.74,147.51Z"/><path class="cls-64" d="M88.76,147.46l-8.52-4.92c-.52-.3-.46-.83.14-1.18l8.24-4.75a2.24,2.24,0,0,1,2-.08l8.52,4.92c.53.3.46.83-.14,1.18l-8.24,4.75A2.24,2.24,0,0,1,88.76,147.46Z"/><path class="cls-44" d="M89.58,143.34l-1.18-.68c-.07,0-.06-.11,0-.16l1.14-.66a.31.31,0,0,1,.28,0l1.18.68c.07,0,.06.12,0,.16l-1.14.66A.31.31,0,0,1,89.58,143.34Z"/><path class="cls-65" d="M80.24,142.54l0,0,.12-.09,8.24-4.75a2.27,2.27,0,0,1,2-.09l8.5,4.91c.48-.34.51-.81,0-1.09l-8.52-4.92a2.24,2.24,0,0,0-2,.08l-8.24,4.75C79.78,141.71,79.72,142.24,80.24,142.54Z"/><path class="cls-66" d="M154.45,126.14l-18.22-10.52c-1.12-.65-1-1.77.31-2.52L154.13,103a4.87,4.87,0,0,1,4.37-.19l18.21,10.52c1.12.65,1,1.78-.31,2.52L158.81,126A4.88,4.88,0,0,1,154.45,126.14Z"/><path class="cls-3" d="M156.35,121.86a4.87,4.87,0,0,1-2.42-.58h0l-18.22-10.52a2.32,2.32,0,0,1-1.27-2,2.79,2.79,0,0,1,1.59-2.32l17.59-10.16a5.82,5.82,0,0,1,5.39-.18l18.22,10.52a2.32,2.32,0,0,1,1.27,2,2.78,2.78,0,0,1-1.58,2.32L159.33,121.1A6.14,6.14,0,0,1,156.35,121.86ZM155,119.49a3.87,3.87,0,0,0,3.32-.18l17.59-10.16c.45-.26.55-.49.55-.53a.57.57,0,0,0-.23-.2L158,97.9a3.86,3.86,0,0,0-3.33.19l-17.59,10.15c-.44.26-.55.49-.55.53a.8.8,0,0,0,.24.2L155,119.49Z"/><path class="cls-67" d="M177.46,102.17h0V95.89H163.37l-4.87-2.81a4.84,4.84,0,0,0-4.37.18l-4.54,2.62H135.48v6.46a1.26,1.26,0,0,0,.75,1.17L154.45,114a4.88,4.88,0,0,0,4.36-.18l17.59-10.16C177.15,103.25,177.51,102.69,177.46,102.17Z"/><path class="cls-68" d="M156.47,92.64a5,5,0,0,0-2.34.61l-4.54,2.62H135.48v6.46a1.26,1.26,0,0,0,.75,1.17L154.45,114a3.94,3.94,0,0,0,2,.43Z"/><path class="cls-69" d="M137.08,95.87h-1.6v6.46a1.26,1.26,0,0,0,.75,1.17l.85.49Z"/><path class="cls-70" d="M154.73,114.15a4.94,4.94,0,0,0,3.49,0v-7.34h-3.49Z"/><path class="cls-71" d="M154.45,107.58,136.23,97.06c-1.12-.65-1-1.78.31-2.52l17.59-10.16a4.9,4.9,0,0,1,4.37-.18l18.21,10.52c1.12.65,1,1.77-.31,2.52l-17.59,10.15A4.85,4.85,0,0,1,154.45,107.58Z"/><path class="cls-3" d="M176.4,96l-17.59,10.16a4.88,4.88,0,0,1-4.36.18L136.23,95.82a1.7,1.7,0,0,1-.56-.49,1.17,1.17,0,0,0,.56,1.73l18.22,10.52a4.85,4.85,0,0,0,4.36-.19L176.4,97.24c1-.58,1.31-1.39.87-2A2.32,2.32,0,0,1,176.4,96Z"/><path class="cls-72" d="M155.53,101.05,147,96.13c-.52-.3-.46-.83.15-1.18l8.23-4.75a2.27,2.27,0,0,1,2-.08L165.94,95c.53.3.46.83-.14,1.18L157.57,101A2.24,2.24,0,0,1,155.53,101.05Z"/><path class="cls-44" d="M156.34,96.93l-1.18-.68c-.07,0-.06-.11,0-.16l1.14-.66a.31.31,0,0,1,.28,0l1.18.68c.08,0,.07.12,0,.16l-1.14.66A.28.28,0,0,1,156.34,96.93Z"/><path class="cls-73" d="M147,96.13l0,0,.13-.09,8.23-4.75a2.24,2.24,0,0,1,2-.08l8.5,4.9c.48-.34.51-.81,0-1.09l-8.52-4.92a2.27,2.27,0,0,0-2,.08L147.15,95C146.54,95.3,146.48,95.83,147,96.13Z"/><path class="cls-74" d="M20.93,126.14,2.71,115.62c-1.12-.65-1-1.77.31-2.52L20.61,103a4.87,4.87,0,0,1,4.37-.19l18.21,10.52c1.12.65,1,1.78-.31,2.52L25.29,126A4.88,4.88,0,0,1,20.93,126.14Z"/><path class="cls-3" d="M22.83,121.86a4.87,4.87,0,0,1-2.42-.58h0L2.19,110.76a2.32,2.32,0,0,1-1.27-2,2.79,2.79,0,0,1,1.59-2.32L20.1,96.29a5.82,5.82,0,0,1,5.39-.18l18.22,10.52a2.32,2.32,0,0,1,1.27,2,2.78,2.78,0,0,1-1.58,2.32L25.81,121.1A6.14,6.14,0,0,1,22.83,121.86Zm-1.39-2.37a3.89,3.89,0,0,0,3.33-.18l17.59-10.16c.45-.26.55-.49.55-.53a.57.57,0,0,0-.23-.2L24.46,97.9a3.86,3.86,0,0,0-3.33.19L3.54,108.24c-.44.26-.55.49-.55.53a.66.66,0,0,0,.24.2l18.22,10.52Z"/><path class="cls-75" d="M43.94,102.17h0V95.89H29.85L25,93.07a4.84,4.84,0,0,0-4.37.18l-4.54,2.62H2v6.46a1.26,1.26,0,0,0,.75,1.17L20.93,114a4.88,4.88,0,0,0,4.36-.18l17.59-10.16A1.72,1.72,0,0,0,43.94,102.17Z"/><path class="cls-76" d="M23,92.64a5,5,0,0,0-2.34.61l-4.54,2.62H2v6.46a1.26,1.26,0,0,0,.75,1.17L20.93,114a3.89,3.89,0,0,0,2,.43Z"/><path class="cls-77" d="M21.21,114.15a4.91,4.91,0,0,0,3.48,0v-7.34H21.21Z"/><path class="cls-78" d="M20.93,107.58,2.71,97.06c-1.12-.65-1-1.78.31-2.52L20.61,84.38A4.9,4.9,0,0,1,25,84.2L43.19,94.72c1.12.65,1,1.77-.31,2.52L25.29,107.39A4.85,4.85,0,0,1,20.93,107.58Z"/><path class="cls-3" d="M42.88,96,25.29,106.16a4.88,4.88,0,0,1-4.36.18L2.71,95.82a1.7,1.7,0,0,1-.56-.49,1.17,1.17,0,0,0,.56,1.73l18.22,10.52a4.85,4.85,0,0,0,4.36-.19L42.88,97.24c1-.58,1.31-1.39.87-2A2.4,2.4,0,0,1,42.88,96Z"/><path class="cls-44" d="M37.24,103.83a1.66,1.66,0,0,1-.73,1.28c-.41.23-.74,0-.74-.43a1.6,1.6,0,0,1,.74-1.27C36.91,103.17,37.24,103.36,37.24,103.83Z"/><path class="cls-44" d="M39.61,102.47a1.6,1.6,0,0,1-.74,1.27c-.4.24-.73.05-.73-.42a1.66,1.66,0,0,1,.73-1.28C39.28,101.81,39.61,102,39.61,102.47Z"/><path class="cls-44" d="M42,101.1a1.6,1.6,0,0,1-.74,1.27c-.41.24-.73,0-.73-.42a1.59,1.59,0,0,1,.73-1.27C41.65,100.44,42,100.63,42,101.1Z"/><path class="cls-79" d="M22,101.05l-8.52-4.92c-.52-.3-.46-.83.15-1.18l8.23-4.75a2.27,2.27,0,0,1,2-.08L32.42,95c.53.3.46.83-.14,1.18L24.05,101A2.26,2.26,0,0,1,22,101.05Z"/><path class="cls-44" d="M22.82,96.93l-1.18-.68c-.07,0-.06-.11,0-.16l1.14-.66a.31.31,0,0,1,.28,0l1.18.68c.07,0,.07.12,0,.16l-1.14.66A.28.28,0,0,1,22.82,96.93Z"/><path class="cls-80" d="M13.48,96.13l0,0,.13-.09,8.23-4.75a2.24,2.24,0,0,1,2-.08l8.5,4.9c.48-.34.51-.81,0-1.09L23.9,90.12a2.27,2.27,0,0,0-2,.08L13.63,95C13,95.3,13,95.83,13.48,96.13Z"/></g></g></svg>