<svg xmlns="http://www.w3.org/2000/svg" xmlns:xlink="http://www.w3.org/1999/xlink" viewBox="0 0 179.42 179.7"><defs><style>.cls-1,.cls-31{fill:none;}.cls-2{isolation:isolate;}.cls-3{fill:#2e3665;}.cls-4{fill:#160a5b;}.cls-5{fill:url(#linear-gradient);}.cls-6{fill:#38c5ea;}.cls-7{fill:url(#linear-gradient-2);}.cls-8{fill:url(#linear-gradient-3);}.cls-9{fill:#fcd1c5;}.cls-10{fill:#e2b1a6;}.cls-11{fill:url(#linear-gradient-4);}.cls-12{fill:url(#linear-gradient-5);}.cls-13{fill:#dce4fb;}.cls-14{fill:#c4ccd6;}.cls-15{fill:url(#linear-gradient-6);}.cls-16{mix-blend-mode:multiply;fill:url(#linear-gradient-7);}.cls-17{fill:url(#linear-gradient-8);}.cls-18{fill:url(#linear-gradient-9);}.cls-19{fill:url(#linear-gradient-10);}.cls-20{opacity:0.8;fill:url(#_ÂÁ_Ï_ÌÌ_È_ËÂÌÚ_56);}.cls-20,.cls-30{mix-blend-mode:lighten;}.cls-21{opacity:0.6;}.cls-22{clip-path:url(#clip-path);}.cls-23{fill:#24126a;}.cls-24{fill:#294688;}.cls-25{fill:#f0f6ff;}.cls-26{fill:url(#linear-gradient-11);}.cls-27{fill:url(#linear-gradient-12);}.cls-28{fill:#263649;}.cls-29{opacity:0.3;}.cls-30{opacity:0.5;fill:url(#_ÂÁ_Ï_ÌÌ_È_ËÂÌÚ_60);}.cls-31{stroke-miterlimit:10;stroke-width:0.5px;stroke:url(#linear-gradient-13);}.cls-32{fill:url(#linear-gradient-14);}.cls-33{fill:url(#linear-gradient-15);}.cls-34{fill:url(#linear-gradient-16);}.cls-35{fill:url(#linear-gradient-17);}.cls-36{fill:url(#linear-gradient-18);}.cls-37{fill:url(#linear-gradient-19);}.cls-38{fill:#495899;}.cls-39{fill:#42e8e0;}.cls-40{fill:url(#linear-gradient-20);}.cls-41{fill:url(#linear-gradient-21);}.cls-42{fill:url(#linear-gradient-22);}.cls-43{fill:url(#linear-gradient-23);}.cls-44{fill:url(#linear-gradient-24);}.cls-45{fill:url(#linear-gradient-25);}.cls-46{fill:url(#linear-gradient-26);}.cls-47{fill:url(#linear-gradient-27);}.cls-48{fill:url(#linear-gradient-28);}.cls-49{fill:url(#linear-gradient-29);}.cls-50{fill:url(#linear-gradient-30);}.cls-51{fill:url(#linear-gradient-31);}.cls-52{fill:url(#linear-gradient-32);}.cls-53{fill:url(#linear-gradient-33);}.cls-54{fill:url(#linear-gradient-34);}</style><linearGradient id="linear-gradient" x1="36.29" y1="152.22" x2="59.77" y2="152.22" gradientUnits="userSpaceOnUse"><stop offset="0" stop-color="#eef5fa"/><stop offset="0.11" stop-color="#e1eff7" stop-opacity="0.99"/><stop offset="0.3" stop-color="#beddef" stop-opacity="0.95"/><stop offset="0.57" stop-color="#85c2e2" stop-opacity="0.9"/><stop offset="0.9" stop-color="#379cd0" stop-opacity="0.82"/><stop offset="1" stop-color="#1f90ca" stop-opacity="0.8"/></linearGradient><linearGradient id="linear-gradient-2" x1="32.98" y1="102.22" x2="61.24" y2="102.22" gradientUnits="userSpaceOnUse"><stop offset="0" stop-color="#0984bd"/><stop offset="1" stop-color="#56a5d7"/></linearGradient><linearGradient id="linear-gradient-3" x1="44.58" y1="112.13" x2="64.38" y2="112.13" xlink:href="#linear-gradient"/><linearGradient id="linear-gradient-4" x1="39.88" y1="65.83" x2="58.12" y2="65.83" gradientUnits="userSpaceOnUse"><stop offset="0" stop-color="#14416a"/><stop offset="0.73" stop-color="#004f98"/></linearGradient><linearGradient id="linear-gradient-5" x1="40.09" y1="69.45" x2="55.73" y2="69.45" xlink:href="#linear-gradient-4"/><linearGradient id="linear-gradient-6" x1="957.25" y1="182.74" x2="979.14" y2="182.74" gradientTransform="matrix(-1, -0.07, -0.07, 1, 1040.72, 33.79)" xlink:href="#linear-gradient-2"/><linearGradient id="linear-gradient-7" x1="51.45" y1="138.45" x2="74.51" y2="138.45" gradientUnits="userSpaceOnUse"><stop offset="0" stop-color="#eef6fb" stop-opacity="0"/><stop offset="0.23" stop-color="#daebf6" stop-opacity="0.21"/><stop offset="0.48" stop-color="#c6e0f2" stop-opacity="0.42"/><stop offset="0.7" stop-color="#b7d8ef" stop-opacity="0.57"/><stop offset="0.88" stop-color="#aed3ed" stop-opacity="0.67"/><stop offset="1" stop-color="#abd1ec" stop-opacity="0.7"/></linearGradient><linearGradient id="linear-gradient-8" x1="55.83" y1="149.24" x2="77.77" y2="149.24" gradientTransform="translate(2.92 -1.52) rotate(1.19)" gradientUnits="userSpaceOnUse"><stop offset="0.43" stop-color="#eef6fb"/><stop offset="1" stop-color="#abd1ec"/></linearGradient><linearGradient id="linear-gradient-9" x1="-6094.27" y1="10661.86" x2="-5935.34" y2="10661.86" gradientTransform="matrix(0.5, 0.87, 0.87, -0.5, -6112.41, 10614.07)" xlink:href="#linear-gradient"/><linearGradient id="linear-gradient-10" x1="78.91" y1="77.73" x2="143.73" y2="77.73" xlink:href="#linear-gradient"/><linearGradient id="_ÂÁ_Ï_ÌÌ_È_ËÂÌÚ_56" x1="-5991.19" y1="10686.07" x2="-6038.93" y2="10622.7" gradientTransform="matrix(0.5, 0.87, 0.87, -0.5, -6112.41, 10614.07)" gradientUnits="userSpaceOnUse"><stop offset="0" stop-color="#42e8e0"/><stop offset="0.11" stop-color="#37b6bf"/><stop offset="0.22" stop-color="#2c87a1"/><stop offset="0.34" stop-color="#235f87"/><stop offset="0.46" stop-color="#1c3f72"/><stop offset="0.58" stop-color="#162561"/><stop offset="0.71" stop-color="#121355"/><stop offset="0.85" stop-color="#10084e"/><stop offset="1" stop-color="#0f054c"/></linearGradient><clipPath id="clip-path"><ellipse class="cls-1" cx="110.86" cy="64.39" rx="30.27" ry="19.81" transform="translate(36.55 168.85) rotate(-84.72)"/></clipPath><linearGradient id="linear-gradient-11" x1="97.61" y1="56.16" x2="118.44" y2="56.16" xlink:href="#linear-gradient-4"/><linearGradient id="linear-gradient-12" x1="110.06" y1="60.81" x2="118.39" y2="60.81" xlink:href="#linear-gradient-4"/><radialGradient id="_ÂÁ_Ï_ÌÌ_È_ËÂÌÚ_60" cx="105.99" cy="50.88" r="187.64" gradientTransform="translate(-33.84 -19.9) scale(1.47 1.3)" gradientUnits="userSpaceOnUse"><stop offset="0" stop-color="#42e8e0"/><stop offset="0.12" stop-color="#35b0bc"/><stop offset="0.19" stop-color="#2f93a9"/><stop offset="0.22" stop-color="#2c87a1"/><stop offset="0.34" stop-color="#235f87"/><stop offset="0.46" stop-color="#1c3e72"/><stop offset="0.58" stop-color="#162561"/><stop offset="0.71" stop-color="#121355"/><stop offset="0.85" stop-color="#10084e"/><stop offset="1" stop-color="#0f054c"/></radialGradient><linearGradient id="linear-gradient-13" x1="76.9" y1="78.3" x2="139.94" y2="78.3" gradientUnits="userSpaceOnUse"><stop offset="0" stop-color="#38c5ea"/><stop offset="1" stop-color="#294688"/></linearGradient><linearGradient id="linear-gradient-14" x1="131.52" y1="40.61" x2="134.49" y2="40.61" gradientUnits="userSpaceOnUse"><stop offset="0" stop-color="#f57454"/><stop offset="1" stop-color="#f7947c"/></linearGradient><linearGradient id="linear-gradient-15" x1="129.71" y1="41.53" x2="132.68" y2="41.53" gradientUnits="userSpaceOnUse"><stop offset="0" stop-color="#fab371"/><stop offset="1" stop-color="#fcd5b0"/></linearGradient><linearGradient id="linear-gradient-16" x1="120.36" y1="36.32" x2="128.76" y2="36.32" xlink:href="#linear-gradient-14"/><linearGradient id="linear-gradient-17" x1="118.55" y1="37.24" x2="126.95" y2="37.24" xlink:href="#linear-gradient-15"/><linearGradient id="linear-gradient-18" x1="85.16" y1="18.51" x2="93.56" y2="18.51" xlink:href="#linear-gradient-14"/><linearGradient id="linear-gradient-19" x1="83.35" y1="19.43" x2="91.75" y2="19.43" xlink:href="#linear-gradient-15"/><linearGradient id="linear-gradient-20" x1="84.23" y1="115.1" x2="133.06" y2="115.1" xlink:href="#linear-gradient-14"/><linearGradient id="linear-gradient-21" x1="81.8" y1="116.33" x2="130.62" y2="116.33" xlink:href="#linear-gradient-15"/><linearGradient id="linear-gradient-22" x1="81.68" y1="116.33" x2="130.75" y2="116.33" xlink:href="#linear-gradient-2"/><linearGradient id="linear-gradient-23" x1="124.21" y1="126.17" x2="127.52" y2="126.17" xlink:href="#linear-gradient-14"/><linearGradient id="linear-gradient-24" x1="124.12" y1="126.17" x2="127.61" y2="126.17" xlink:href="#linear-gradient-2"/><linearGradient id="linear-gradient-25" x1="118.68" y1="123.37" x2="121.99" y2="123.37" xlink:href="#linear-gradient-14"/><linearGradient id="linear-gradient-26" x1="117.68" y1="123.84" x2="121.17" y2="123.84" xlink:href="#linear-gradient-2"/><linearGradient id="linear-gradient-27" x1="100.49" y1="118" x2="103.97" y2="118" xlink:href="#linear-gradient-2"/><linearGradient id="linear-gradient-28" x1="104.6" y1="115.96" x2="107.91" y2="115.96" xlink:href="#linear-gradient-14"/><linearGradient id="linear-gradient-29" x1="92.6" y1="116.4" x2="96.09" y2="116.4" xlink:href="#linear-gradient-2"/><linearGradient id="linear-gradient-30" x1="99.3" y1="113.05" x2="102.61" y2="113.05" xlink:href="#linear-gradient-14"/><linearGradient id="linear-gradient-31" x1="83.61" y1="115.37" x2="87.09" y2="115.37" xlink:href="#linear-gradient-2"/><linearGradient id="linear-gradient-32" x1="93.86" y1="110.12" x2="97.17" y2="110.12" xlink:href="#linear-gradient-14"/><linearGradient id="linear-gradient-33" x1="109.42" y1="119.6" x2="117.08" y2="119.6" xlink:href="#linear-gradient-14"/><linearGradient id="linear-gradient-34" x1="107.4" y1="120.58" x2="115.23" y2="120.58" xlink:href="#linear-gradient-2"/></defs><g class="cls-2"><g id="SDK"><path class="cls-3" d="M49.5,169.83a33.39,33.39,0,0,0,4.59-.24c2.24-.29,8.41-.35,8.46,1.38s-2.85,4.73-6.8,5.75-9.22,1-11.84,1.46-4.6-1.25-3.76-3.35S49.5,169.83,49.5,169.83Z"/><path class="cls-4" d="M36.29,164.28s-.88,1.36-.46,2.16,1.55,2.81,5.27.71,10.75-5.1,10.75-5.1,4-2.18,3.78-4.58-4-1.92-4-1.92Z"/><path class="cls-5" d="M59.77,129.92s-1.34,15.21-4.55,21.15c-3.31,6.1-4.16,17.27-4.86,19.44s-2.89,5.39-6.38,6.18-4.07-1.49-3.89-2.86,1.14-3.61,1.16-5.08a14.15,14.15,0,0,0-.4-2.8s-4,1.25-4.56-1.67a9.16,9.16,0,0,0,.38-1.3c0-.44-.29-10.93-.38-12.19a50.37,50.37,0,0,1,1.76-11.35c1.08-3.28.75-10.14.75-10.14l11-1.71Z"/><path class="cls-6" d="M38.05,139.44c1.08-3.28.75-10.14.75-10.14l1-.15c0,.95.25,7-.73,10a49.93,49.93,0,0,0-1.73,11.34c.09,1.26.45,11.73.4,12.16a8.75,8.75,0,0,1-.38,1.3c.59,2.92,4.57,1.67,4.57,1.67a15.19,15.19,0,0,1,.39,2.8c0,1.47-1,3.7-1.14,5.07s.4,3.64,3.89,2.85a2.81,2.81,0,0,0,.31-.1,6.83,6.83,0,0,1-1.36.47c-3.5.78-4.07-1.49-3.89-2.86s1.14-3.61,1.16-5.08a15.8,15.8,0,0,0-.4-2.93s-4,1.38-4.56-1.54a9.16,9.16,0,0,0,.38-1.3c0-.44-.29-10.93-.38-12.19A50.37,50.37,0,0,1,38.05,139.44Z"/><path class="cls-3" d="M42.05,130.3a10.68,10.68,0,0,0,1.1,4.31s0,8.09.87,12.2c0,0-1.44,8.43-2.35,11.13s-.82,8-.82,8a4.35,4.35,0,0,1-1.09.22c-.65,0-.67-10.4.32-12.25s1.73-9.84,1.37-12.24-.23-9.16-.71-10.34a1.51,1.51,0,0,1,.6-1.83Z"/><path class="cls-3" d="M51,78.1a6.54,6.54,0,0,1,2.94,5.35l-2.28-.4S52.26,79.25,51,78.1Z"/><path class="cls-3" d="M50.07,133.37c-7.3.4-11.23-2.5-11.23-2.5,0-1,0-1.57,0-1.57l11-1.71,10,2.33s-.26,3-.83,6.8c-1.79.23-3.59-3.83-3.59-3.83l-5,.43S57.34,133,50.07,133.37Z"/><path class="cls-7" d="M58.37,130.18s-15.8,6.47-23.43-4.75a1.79,1.79,0,0,1-.3-1.11l.11-2.63a2.41,2.41,0,0,0-.14-1h0a3.9,3.9,0,0,1-.15-2.09c.61-2.93,2.24-10.82,2.62-13,.46-2.64-1-13-3.54-17.41s4-14.13,4-14.13a4.41,4.41,0,0,1,4.62-1.55s-2.92,1.86-1.32,3.75,6.41,3.37,6.41,3.37,8.92,4,12,9a19.44,19.44,0,0,1,1.23,6c.14,3.41-.16,11.7,0,12.86s.78,9.17.73,9.55S58.37,130.18,58.37,130.18Z"/><path class="cls-3" d="M40.73,74a1.77,1.77,0,0,1,.06-1.53,4.77,4.77,0,0,1,1.37.12A5.23,5.23,0,0,0,40.73,74Z"/><path class="cls-3" d="M53.6,131.53s-9.34-22.8-8.92-31c.41-7.87,13.46,15.91,13.46,15.91l.23,13.72A30.08,30.08,0,0,1,53.6,131.53Z"/><path class="cls-6" d="M34.88,118.45a2.41,2.41,0,0,1,.14,1L34.91,122a1.8,1.8,0,0,0,.3,1.09c7.6,11.11,23.32,4.71,23.32,4.71s2-9.15,2.65-12.08c0,.71.07,1.21.06,1.29,0,.38-2.87,13.15-2.87,13.15s-15.8,6.47-23.43-4.75a1.79,1.79,0,0,1-.3-1.11l.11-2.63a2.41,2.41,0,0,0-.14-1,3.9,3.9,0,0,1-.15-2.09c.07-.3.14-.68.23-1.08A3.44,3.44,0,0,0,34.88,118.45Z"/><path class="cls-3" d="M33.8,86.28c2.52,4.37,4,14.64,3.53,17.25,0,.24-.1.56-.17.92,0-3.75-1.38-12.32-3.62-16.22a6.69,6.69,0,0,1-.28-4.63A5,5,0,0,0,33.8,86.28Z"/><path class="cls-8" d="M58.29,104.32a32.83,32.83,0,0,1-.61-5.47c-.08-3.16-1.11-8.34-7.37-7.31-8.88,1.46-5.05,12.74-4.06,14.72s5,11.1,5.2,11.62,6.59,12,8.88,14.76a.59.59,0,0,0,.83.08c.9-.76,2.92-2.54,3.17-3.64.32-1.41-1.07-6.42-1.07-6.42s-3.69-12.37-4-12.94C59,109.3,58.86,107.28,58.29,104.32Z"/><path class="cls-9" d="M50.8,78.35a3.06,3.06,0,0,1,2.29-1.61c1.6-.17,2.51-.58,2.66-1.12a9.53,9.53,0,0,1,.54-2A13.48,13.48,0,0,0,57,70.89s1.2-.39,1.25-.86-.59-2.15-.53-2.28a4,4,0,0,0,.61-2,8.9,8.9,0,0,0-.72-2.91c-.5-1-3.91-6.8-12.61-3.64-8.88,3.21-2.12,9.7-3,14,0,0-.79.93.67,2.45S48.35,77.5,50.8,78.35Z"/><path class="cls-10" d="M42.63,75.7c-1.46-1.52-.67-2.45-.67-2.45a5.22,5.22,0,0,0,0-1.93l3.49.54s5.14-4.16,4.79-2,.9,2.56.9,2.56l-1.05,1.22c-.27.31-.11.67.11,1,1.49,2.24,5.07,1.49,5.08,1.49a5.58,5.58,0,0,1-2.18.58,3.06,3.06,0,0,0-2.29,1.61C48.35,77.5,44.1,77.24,42.63,75.7Z"/><path class="cls-11" d="M57.92,60.6s.64,1.57-.34,2.26-1.88,1.33-1.88,1.33l0,2a1.42,1.42,0,0,1-.27.83l-1.23,1.73a2,2,0,0,0-.37,1.13v.83a.5.5,0,0,1-.46.48l-.33,0a.52.52,0,0,1-.59-.42l-.15-1.15s-.66-.92-2.1.21l-1.3.5a1.36,1.36,0,0,0-.78.74c-.36.9-1.14,2.68-1.72,3-.79.41-3.86-1-4.27-1.56s-1.43-4.73-2.07-6.68-.24-6.7,6.28-8S57,58.9,57.92,60.6Z"/><path class="cls-12" d="M42.16,72.55c-.41-.62-1.43-4.73-2.07-6.68a17,17,0,0,0,5.84,1.85c3.29.39,9.78-3,9.78-3l0,1.48a1.42,1.42,0,0,1-.27.83l-1.23,1.73a2,2,0,0,0-.37,1.13v.83a.5.5,0,0,1-.46.48l-.33,0a.52.52,0,0,1-.59-.42l-.15-1.15s-.66-.92-2.1.21l-1.88.72s-1.14,3.09-1.92,3.51S42.57,73.16,42.16,72.55Z"/><path class="cls-13" d="M42,72.75s-2.57,1.45-1.29,3.42,10.64,5.42,11.1,6c0,0,.35-3-.89-4,0,0-7.14-1.11-8.25-2.72A2.94,2.94,0,0,1,42,72.75Z"/><path class="cls-14" d="M42,72.75a2.94,2.94,0,0,0,.67,2.63c.84,1.21,5.13,2.15,7.17,2.53h0a7.11,7.11,0,0,0-2,2.35C45,79,41.49,77.34,40.74,76.17,39.46,74.2,42,72.75,42,72.75Z"/><path class="cls-3" d="M40.28,79.18s4.17,2.06,6.2,3,4.27,2.18,4.27,2.18l.78-.71.95,1.83a28,28,0,0,1,4.73,3.08,14.94,14.94,0,0,1,2.86,3.74s-4.07-4.66-7.23-6L52,85.91l-.49-1.46-.77.75S41.55,80.43,40.28,79.18Z"/><path class="cls-15" d="M51.45,145.34h0a2.08,2.08,0,0,1,.58-.91L69.66,129.9c.45-.38.91-.11,1,.6l2.44,16.29a2.54,2.54,0,0,1-.65,2.12l-14.95,13,.59,4.91-4.6-1.87h0a1,1,0,0,1-.4-.82l-1.82-17.53A2.76,2.76,0,0,1,51.45,145.34Z"/><path class="cls-16" d="M74.51,131.36l-4.22-1.57-.14,0a.59.59,0,0,0-.49.16L52,144.43a2.08,2.08,0,0,0-.58.91l.64.27h0l3.68,1.56,15.45-13h0Z"/><path class="cls-17" d="M76.89,150.84,58.34,166.46c-.52.43-1,.11-1.08-.72l-1.58-17.68a2.69,2.69,0,0,1,.77-2.11l17.87-14.3c.47-.37.92-.1,1,.62l2.23,16.45A2.57,2.57,0,0,1,76.89,150.84Z"/><path class="cls-6" d="M55.32,164.94l-1.9-17.59a2.61,2.61,0,0,1,.73-2.11l17.59-14.59a.69.69,0,0,1,.41-.17.56.56,0,0,0-.56.15L54,145.21a2.65,2.65,0,0,0-.74,2.11l1.9,17.59c.06.56.29.91.61.91C55.53,165.73,55.37,165.4,55.32,164.94Z"/><path class="cls-3" d="M61.61,138.94l-.94-.41a.94.94,0,0,0-.58-.08l-.07,0c-.1,0-.14.12-.13.25l0,.16L62.56,140l0-.16a.78.78,0,0,0-.21-.4l-.09-.09A2.16,2.16,0,0,0,61.61,138.94Z"/><polygon class="cls-3" points="61.31 141.08 62.56 140.04 59.93 138.53 58.7 139.54 61.31 141.08"/><path class="cls-3" d="M60.37,140l-.94-.41a.93.93,0,0,0-.59-.09l-.07,0c-.1,0-.14.12-.13.25l0,.16,2.65,1.17,0-.16a.67.67,0,0,0-.2-.4l-.09-.09A2.11,2.11,0,0,0,60.37,140Z"/><polygon class="cls-3" points="59.81 140.42 59.72 139.7 59.8 139.73 59.89 140.45 59.81 140.42"/><polygon class="cls-3" points="59.72 139.7 61.01 138.68 61.08 138.71 59.8 139.73 59.72 139.7"/><path class="cls-3" d="M67.19,134.33l-.93-.41a1,1,0,0,0-.58-.08l-.07,0c-.09,0-.14.12-.12.25l0,.15,2.63,1.14,0-.16a.69.69,0,0,0-.21-.38l-.09-.09A2.06,2.06,0,0,0,67.19,134.33Z"/><polygon class="cls-3" points="66.92 136.42 68.14 135.4 65.52 133.92 64.32 134.91 66.92 136.42"/><path class="cls-3" d="M66,135.34l-.93-.41a1,1,0,0,0-.58-.08l-.07,0c-.1,0-.14.12-.12.25l0,.15,2.63,1.15,0-.16a.75.75,0,0,0-.21-.39l-.09-.09A2.06,2.06,0,0,0,66,135.34Z"/><polygon class="cls-3" points="65.43 135.77 65.33 135.06 65.41 135.1 65.51 135.8 65.43 135.77"/><polygon class="cls-3" points="65.33 135.06 66.59 134.07 66.66 134.1 65.41 135.1 65.33 135.06"/><path class="cls-3" d="M59.18,136.28l.37,3,.84-.69L60,135.68a1.52,1.52,0,0,1,.48-1.25l3.58-2.93c.32-.26.62-.13.68.3l.39,2.89L66,134l-.41-3c-.13-.93-.8-1.22-1.5-.64l-3.8,3.1A3.4,3.4,0,0,0,59.18,136.28Z"/><path class="cls-3" d="M65.34,131.27l-1.49-.11L59.6,135l-.16,2.33.11,1.95,1,.43v-2.43l0-1.66.88-1.23s1.6-1.26,1.61-1.3S65.34,131.27,65.34,131.27Z"/><polygon class="cls-3" points="66.12 135.12 65.15 134.69 64.86 132.56 65.78 132.6 66.05 132.64 66.12 135.12"/><path class="cls-3" d="M66,130.59l-1-.45.28.52a3.57,3.57,0,0,1,.35.1Z"/><path class="cls-3" d="M60.15,136.71l.38,3,.83-.69-.37-3a1.52,1.52,0,0,1,.48-1.25L65,131.92c.32-.26.62-.13.68.29l.4,2.9.82-.67-.42-3c-.13-.93-.8-1.21-1.5-.64l-3.8,3.11A3.42,3.42,0,0,0,60.15,136.71Z"/><path class="cls-9" d="M64.07,129a17.38,17.38,0,0,1,.5,3.67A5.19,5.19,0,0,1,62,135.16c-.91.29-.55-.74-.77-1.38a8.65,8.65,0,0,1-.19-2Z"/><path class="cls-10" d="M61.05,131.76l3-2.79s.14.6.27,1.32a7.39,7.39,0,0,1-3.18,3.16A10.21,10.21,0,0,1,61.05,131.76Z"/><path class="cls-3" d="M64.3,129.18s-1,3.2-3.76,3.58l.88-3.5s2.29-.67,2.36-.68S64.3,129.18,64.3,129.18Z"/><path class="cls-6" d="M46.43,93.39c-2.46,6.88,3.81,17.5,4.73,20.65s10.7,18.06,10.7,18.07h0l.1.15a5.3,5.3,0,0,1-.63.42,1.67,1.67,0,0,1-.43.16h0a.55.55,0,0,1-.56-.2c-2.29-2.77-8.68-14.27-8.88-14.76s-4.2-9.62-5.2-11.62C45.46,104.67,42.82,97,46.43,93.39Z"/><path class="cls-18" d="M140.57,151.49l-2.81-6.72L88.28,119.61a9.22,9.22,0,0,1-4.49-7.56V15.8l-5-11.88L83.18,1.7h0a3.17,3.17,0,0,1,2.95.2L142,30.29a9.22,9.22,0,0,1,4.49,7.56V146.1a3.39,3.39,0,0,1-1.51,3.17h0Z"/><path class="cls-19" d="M139.23,32.52,83.41,4.13c-2.48-1.26-4.49.08-4.49,3V115.37a9.21,9.21,0,0,0,4.49,7.56l55.82,28.39c2.48,1.26,4.5-.08,4.5-3V40.08A9.19,9.19,0,0,0,139.23,32.52Z"/><path class="cls-13" d="M142.05,148.33V40.08a9.21,9.21,0,0,0-4.49-7.56L81.75,4.13a3.37,3.37,0,0,0-2.66-.32,3,3,0,0,1,3.22,0l55.82,28.38a9.23,9.23,0,0,1,4.5,7.56l0,108.25c0,1.74-.72,2.92-1.83,3.31A3.53,3.53,0,0,0,142.05,148.33Z"/><path class="cls-20" d="M137.07,150.82a4.06,4.06,0,0,1-1.82-.48L81.42,123A9.09,9.09,0,0,1,77,115.52V9.29a3.4,3.4,0,0,1,1.59-3.23,3.31,3.31,0,0,1,3,.2l53.83,27.37a9.08,9.08,0,0,1,4.44,7.45V147.31a3.4,3.4,0,0,1-1.59,3.23A2.56,2.56,0,0,1,137.07,150.82ZM79.77,6.09a2.36,2.36,0,0,0-1,.23,3.13,3.13,0,0,0-1.41,3V115.52a8.78,8.78,0,0,0,4.26,7.19l53.84,27.36a2.93,2.93,0,0,0,2.67.21,3.14,3.14,0,0,0,1.42-3V41.08a8.78,8.78,0,0,0-4.26-7.19L81.41,6.52A3.65,3.65,0,0,0,79.77,6.09Z"/><g class="cls-21"><g class="cls-22"><path class="cls-4" d="M79.93,138a39,39,0,0,0-5.6,3.76c-1.41,1.39-4.21,4.24-3.06,5.6s5,2.12,9.23-1.28,3-3.59,6.56-5.27,4.55-3.52,4.12-4.56S89,133.3,88,133.7,79.93,138,79.93,138Z"/><path class="cls-4" d="M100.29,147.88A35.75,35.75,0,0,1,98,151.76c-.77,1-4.53,6.53-2.57,7.81s5.68.93,8.62-1.88,3.59-6.23,4.31-7.35,2.53-4.12,1.68-5.85-1-2-1-2Z"/><path class="cls-23" d="M85.09,106.42s-12.44,10.8-14.47,16.23a5.47,5.47,0,0,0,1.54,5.23c2.4,2.3,7.51,9.82,7.51,9.82a6.8,6.8,0,0,0,8.73.81s2.22-3.13.85-5.21-5-8.73-5-8.73,8-4.83,11.91-6a59.23,59.23,0,0,0,6-2.16,15.78,15.78,0,0,1-3.6,6.46c-2.88,3.19-7.7,8.31-6.09,11.88a29,29,0,0,0,4,6.73c1.51,2,2.94,6.33,4.22,6.78s7.24,1,8.2-2.45-2-10-3.38-12.28c0,0,16.09-16.34,17.62-18.14S90.07,103.65,85.09,106.42Z"/><path class="cls-4" d="M89.25,133.3c-1.36-2.08-5-8.73-5-8.73s8-4.83,11.91-6a59.23,59.23,0,0,0,6-2.16,35,35,0,0,0,4.29-7.22c-9.07-2.34-18.92-4.1-21.4-2.72.88,1.91,5.5,1.9,5.5,1.9s1.73,3.7,2.88,4.17,3.88,0,3.88,0A9.71,9.71,0,0,1,95,114.3c-2,1.24-14.2,10.07-14.2,10.07s.7.35,4,5.54,3.68,8.6,3.68,8.6S90.62,135.38,89.25,133.3Z"/><path class="cls-4" d="M116.75,112.15c-7.19-.6-15.57-.65-13.68,2.67,3.2,5.64,9.63,5.89,9.63,5.89,0,2.07-9.91,12.08-9.91,12.08l2.3,3.94c2.3,3.94,2,11.1,2,11.1a3.26,3.26,0,0,0,1.87-2.07c1-3.41-2-10-3.38-12.28,0,0,16.09-16.34,17.62-18.14C123.66,114.81,120.94,113.57,116.75,112.15Z"/><path class="cls-24" d="M72.52,77.62l1.91-1.31s10.31-5,13.74-6.67a23.14,23.14,0,0,0,5.17-3.74A7.62,7.62,0,0,1,98.48,64l18.06-.08a35.49,35.49,0,0,0,2.82,3.55c.52.43,5.42,4,8.94,7a13.22,13.22,0,0,1,4.1,6c2,6.24,2,18.83,2.28,27.83a34.58,34.58,0,0,1-4.34,1c-3.07.58-2.69.21-2.69.21s-4.61,9.13-10.86,10-14.68-1.7-16.18-10.34c0,0-12.19-1.61-15.5-2.8a.42.42,0,0,1-.21-.68c1.47-1.72,7-8.4,7.49-12.75.61-5,.42-12.33,0-14.33,0,0-9.2,3-12.13,3.59,0,0-11.19,10.83-15.86,13.78,0,0,1.6-2.22-1.62-3.72Z"/><path class="cls-23" d="M130.34,109.32c.47-.08.9-.17,1.28-.25L131,108l-17-1.58-9.9.45-3.41,2.85a12.37,12.37,0,0,0,.81,2.56,28.27,28.27,0,0,0,6.15.17c2-.37,17,1.59,17.08,1.59a29.82,29.82,0,0,0,2.9-4.43C127.62,109.63,127.81,109.8,130.34,109.32Z"/><path class="cls-9" d="M107.46,104.11a.15.15,0,0,0-.14-.1c-.82,0-6.12-.15-8.12-.76a11,11,0,0,0-4.59-.43c-.12.11-3.74,1.46-4,2s-.53,2.18-.06,2.8a9.36,9.36,0,0,1,.71,1.05l.38,0a9.37,9.37,0,0,0,.76,1.14,2.08,2.08,0,0,1,.3.43c.23.44.63,1.15.79,1.17a9.73,9.73,0,0,0,1.65.15c.23,0,.44-.68.35-.95a.11.11,0,0,1,.1-.16,17.94,17.94,0,0,1,3.85-.07c2.36.19,5.69-1.17,6-1.3h0l3.33-.26a.14.14,0,0,0,.13-.17Z"/><path class="cls-25" d="M103.45,73.26a34.69,34.69,0,0,0,.16,18.62S114.5,74,115.68,71.1s1.61-5,.5-6-10.93,4.34-10.93,4.34Z"/><path class="cls-14" d="M106.26,87.66s2.07-5.59,1.71-7.39a19.2,19.2,0,0,0-.88-3.09L109,75.66l.83,1.5A40.24,40.24,0,0,0,114.17,74a35.63,35.63,0,0,1-4.35,2.3,2.85,2.85,0,0,0-1.15-1c-.65-.24-2.27,1.71-2.27,1.71l-.3,3.39-1.63,7.91.57,1.17Z"/><path class="cls-23" d="M104.44,73.37s-.4,3.6-.06,3.86a3.08,3.08,0,0,0,2.2,0,14.47,14.47,0,0,0,2.09-1.86S106.83,72.49,104.44,73.37Z"/><path class="cls-23" d="M106.66,76.57a9.08,9.08,0,0,1,0,6,45.19,45.19,0,0,0-1.47,6.68l-1.62,2.67a24.63,24.63,0,0,1-1.35-10.47A9.19,9.19,0,0,1,104.6,77Z"/><path class="cls-9" d="M98.37,58.62a10.31,10.31,0,0,0-.32,2.66c.18.42.82.7.67,1.58a14.47,14.47,0,0,0,.7,4.33s-.21.93.08,1.22.68.27,1,.71.37,2.69,1.4,3.44a4.23,4.23,0,0,0,3.09.75,5.23,5.23,0,0,0,1.41-.63l1.56.57s8.09-2,7.84-7v-.53a5.16,5.16,0,0,0,.74-1.17c.17-.46,1.51-2.54.83-3.44,0,0,3.14-10.9-6.53-11.56S99.66,54.83,98.37,58.62Z"/><path class="cls-10" d="M115.76,66.22v-.06a2,2,0,0,0-1.12-.29c-1.1.17-.85-1.85-.85-1.85a17.41,17.41,0,0,0-.77,3c-.56,2.58-6.66,5.71-6.66,5.71l1.56.57S116,71.23,115.76,66.22Z"/><path class="cls-26" d="M98.41,53.89c-.94,1.77-1.4,3.89.58,5.32,0,0,1.66.4,4.82-.89a8.29,8.29,0,0,1,5.42-.15,1.16,1.16,0,0,1,.88,1.11l0,1.55a1,1,0,0,0,.68.93l1.47.55.29,1.51a.83.83,0,0,0,1.09.56l.37-.11s.22-3.36,3.36-3.19c0,0,2.55-4.85-.06-9.28S107.5,47.68,106,48.18a10.46,10.46,0,0,0-2.87,1.19A11.43,11.43,0,0,0,98.41,53.89Z"/><path class="cls-23" d="M124.15,88.09s-1.47,9.5-2.07,12.19l-4.73,2.2,8.41-.45Z"/><path class="cls-27" d="M117.32,61.08a11.51,11.51,0,0,0,1.07-3.89,12.61,12.61,0,0,1-8.28,2.09l0,1.55a1,1,0,0,0,.68.93l1.47.55.29,1.51a.83.83,0,0,0,1.09.56l.37-.11S114.18,60.91,117.32,61.08Z"/><path class="cls-23" d="M119.41,69.43s-2.5,7.58-3,9l-2-.19.37,2.4-10.86,12.6,12.05-12.19L115.46,79l1.83.17Z"/><path class="cls-28" d="M108.76,110.61s25.46-.73,26.11-1.14.76-6.17.7-9.52c0-2.34,0-11.52-2.28-18,1.78,5.45.84,24.72,0,25.7s-25,1.55-25,1.55h0C108.56,110.05,108.76,110.61,108.76,110.61Z"/><path class="cls-9" d="M58.73,92.68s-.1.56-1.2,1.12-3.94,1.78-4.4,2.13a26,26,0,0,0-2.56,2.15c-.06.2-.68,2-.67,2.1s.2.93.2.93l-.63,2.65s-.8,1,.07,1.3a1.12,1.12,0,0,0,1.37-.63,14.85,14.85,0,0,0,2.28-1.21c1-.66,4.83-3.4,5.48-3.23s.06,1.15-.26,1.32-2.36,1.93-1.51,3.15,1.42-.69,2-1.08,1.79-1.92,2.54-2.11,2.12-2.66,2.3-3.76a4.21,4.21,0,0,1,1.39-2.17c.32-.36-.69-3.09-.69-3.09l-3.83-1L59.26,92Z"/></g></g><g class="cls-29"><path class="cls-30" d="M135.34,33.76,81.5,6.39c-2.4-1.22-4.35.08-4.35,2.9V115.52a8.93,8.93,0,0,0,4.35,7.32l53.84,27.37c2.4,1.22,4.35-.08,4.35-2.9V41.08A8.93,8.93,0,0,0,135.34,33.76Z"/></g><path class="cls-31" d="M135.34,33.76,81.5,6.39c-2.4-1.22-4.35.08-4.35,2.9V115.52a8.93,8.93,0,0,0,4.35,7.32l53.84,27.37c2.4,1.22,4.35-.08,4.35-2.9V41.08A8.93,8.93,0,0,0,135.34,33.76Z"/><path class="cls-32" d="M134.49,41.37A2.83,2.83,0,0,0,133,39.1c-.82-.42-1.48-.08-1.48.75A2.83,2.83,0,0,0,133,42.12C133.83,42.54,134.49,42.2,134.49,41.37Z"/><path class="cls-33" d="M132.68,42.29A2.83,2.83,0,0,0,131.2,40c-.83-.42-1.49-.08-1.49.75A2.83,2.83,0,0,0,131.2,43C132,43.46,132.68,43.12,132.68,42.29Z"/><path class="cls-34" d="M121.65,36.35l5.82,3c.71.36,1.29,0,1.29-.86h0a2.67,2.67,0,0,0-1.29-2.17l-5.82-3c-.71-.36-1.29,0-1.29.86h0A2.64,2.64,0,0,0,121.65,36.35Z"/><path class="cls-35" d="M119.84,37.27l5.82,3c.71.36,1.29,0,1.29-.86h0a2.67,2.67,0,0,0-1.29-2.17l-5.82-3c-.71-.36-1.29,0-1.29.86h0A2.64,2.64,0,0,0,119.84,37.27Z"/><path class="cls-36" d="M86.45,18.54l5.82,3c.72.36,1.29,0,1.29-.86h0a2.62,2.62,0,0,0-1.29-2.17l-5.82-3c-.71-.36-1.29,0-1.29.86h0A2.64,2.64,0,0,0,86.45,18.54Z"/><path class="cls-37" d="M84.64,19.46l5.83,3c.71.37,1.28,0,1.28-.85h0a2.63,2.63,0,0,0-1.28-2.17l-5.83-3c-.71-.36-1.29,0-1.29.85h0A2.64,2.64,0,0,0,84.64,19.46Z"/><path class="cls-38" d="M109.26,27.26c0,1-.77,1.36-1.71.88a3.29,3.29,0,0,1-1.72-2.62c0-1,.77-1.36,1.72-.87A3.29,3.29,0,0,1,109.26,27.26Z"/><path class="cls-6" d="M108.31,26.78c0,.43-.34.61-.76.39a1.45,1.45,0,0,1-.77-1.17c0-.43.34-.6.77-.39A1.48,1.48,0,0,1,108.31,26.78Z"/><polygon class="cls-39" points="115.27 79.51 111.78 77.74 111.97 77.45 114.88 78.92 114.88 75.97 115.27 75.97 115.27 79.51"/><polygon class="cls-39" points="115.27 62.38 114.88 62.38 114.88 59.23 111.78 57.65 111.97 57.36 115.27 59.03 115.27 62.38"/><polygon class="cls-39" points="95.5 52.33 95.12 52.33 95.12 48.79 98.6 50.56 98.41 50.85 95.5 49.38 95.5 52.33"/><polygon class="cls-39" points="98.41 70.94 95.12 69.27 95.12 65.92 95.5 65.92 95.5 69.07 98.6 70.65 98.41 70.94"/><path class="cls-40" d="M128.23,119.41l-39.16-20c-2.67-1.36-4.83.08-4.84,3.21h0a9.92,9.92,0,0,0,4.83,8.14l39.16,20c2.67,1.36,4.83-.08,4.84-3.21h0A9.92,9.92,0,0,0,128.23,119.41Z"/><path class="cls-41" d="M125.8,120.64l-39.16-20c-2.67-1.36-4.83.08-4.84,3.22h0A9.93,9.93,0,0,0,86.62,112l39.17,20c2.66,1.35,4.83-.08,4.83-3.22h0A9.88,9.88,0,0,0,125.8,120.64Z"/><path class="cls-42" d="M127.71,132.61a4.46,4.46,0,0,1-2-.53l-39.16-20a10,10,0,0,1-4.88-8.23,3.72,3.72,0,0,1,1.74-3.54,3.56,3.56,0,0,1,3.28.23l39.17,20a10.07,10.07,0,0,1,4.88,8.23,3.74,3.74,0,0,1-1.74,3.54A2.83,2.83,0,0,1,127.71,132.61Zm-43-32.34a2.59,2.59,0,0,0-1.18.27,3.54,3.54,0,0,0-1.61,3.35,9.8,9.8,0,0,0,4.76,8l39.16,20a3.37,3.37,0,0,0,3,.23,3.54,3.54,0,0,0,1.61-3.35,9.81,9.81,0,0,0-4.76-8l-39.16-20A4.16,4.16,0,0,0,84.72,100.27Z"/><path class="cls-43" d="M127.52,127a3.19,3.19,0,0,0-1.65-2.53c-.92-.46-1.66-.09-1.66.84a3.19,3.19,0,0,0,1.65,2.53C126.78,128.32,127.52,127.94,127.52,127Z"/><path class="cls-44" d="M126.6,128.13a1.73,1.73,0,0,1-.78-.21,3.26,3.26,0,0,1-1.7-2.6,1.06,1.06,0,0,1,.53-1,1.43,1.43,0,0,1,1.26.1,3.27,3.27,0,0,1,1.7,2.6h0a1.05,1.05,0,0,1-.53,1A1.13,1.13,0,0,1,126.6,128.13Zm-1.48-3.77a.79.79,0,0,0-.38.09.89.89,0,0,0-.44.87,3.06,3.06,0,0,0,1.6,2.46,1.24,1.24,0,0,0,1.09.11.93.93,0,0,0,.44-.88,3.09,3.09,0,0,0-1.61-2.46A1.51,1.51,0,0,0,125.12,124.36Z"/><path class="cls-45" d="M122,124.22a3.19,3.19,0,0,0-1.65-2.53c-.92-.47-1.66-.09-1.66.84a3.19,3.19,0,0,0,1.65,2.53C121.25,125.53,122,125.15,122,124.22Z"/><path class="cls-46" d="M120.16,125.8a1.73,1.73,0,0,1-.78-.21,3.26,3.26,0,0,1-1.7-2.6,1.05,1.05,0,0,1,.53-1,1.43,1.43,0,0,1,1.26.1,3.27,3.27,0,0,1,1.7,2.6,1,1,0,0,1-1,1.12ZM118.69,122a.86.86,0,0,0-.39.09.91.91,0,0,0-.44.87,3.08,3.08,0,0,0,1.61,2.46,1.22,1.22,0,0,0,1.08.11.91.91,0,0,0,.44-.88,3.09,3.09,0,0,0-1.61-2.46A1.47,1.47,0,0,0,118.69,122Z"/><path class="cls-47" d="M103,120a1.8,1.8,0,0,1-.79-.21,3.25,3.25,0,0,1-1.69-2.59,1.05,1.05,0,0,1,.53-1,1.37,1.37,0,0,1,1.26.1,3.27,3.27,0,0,1,1.69,2.59h0a1.08,1.08,0,0,1-.53,1A1,1,0,0,1,103,120Zm-1.48-3.77a.79.79,0,0,0-.38.09.91.91,0,0,0-.45.88,3.11,3.11,0,0,0,1.61,2.46,1.19,1.19,0,0,0,1.08.1.9.9,0,0,0,.45-.88,3.11,3.11,0,0,0-1.61-2.46A1.68,1.68,0,0,0,101.49,116.19Z"/><path class="cls-48" d="M107.91,116.8a3.16,3.16,0,0,0-1.65-2.52c-.92-.47-1.66-.09-1.66.84a3.19,3.19,0,0,0,1.65,2.53C107.17,118.11,107.91,117.74,107.91,116.8Z"/><path class="cls-49" d="M95.08,118.37a1.73,1.73,0,0,1-.78-.21,3.27,3.27,0,0,1-1.7-2.6,1.05,1.05,0,0,1,.53-1,1.37,1.37,0,0,1,1.26.1,3.26,3.26,0,0,1,1.7,2.6h0a1,1,0,0,1-1,1.12Zm-1.47-3.77a1,1,0,0,0-.39.08.93.93,0,0,0-.44.88A3.09,3.09,0,0,0,94.39,118a1.18,1.18,0,0,0,1.08.1.89.89,0,0,0,.44-.87,3.08,3.08,0,0,0-1.61-2.46A1.47,1.47,0,0,0,93.61,114.6Z"/><path class="cls-50" d="M102.61,113.9a3.19,3.19,0,0,0-1.65-2.53c-.92-.47-1.66-.09-1.66.84a3.19,3.19,0,0,0,1.65,2.53C101.87,115.2,102.61,114.83,102.61,113.9Z"/><path class="cls-51" d="M86.09,117.33a1.8,1.8,0,0,1-.79-.21,3.26,3.26,0,0,1-1.69-2.59,1.05,1.05,0,0,1,.53-1,1.37,1.37,0,0,1,1.26.1,3.25,3.25,0,0,1,1.69,2.6,1.06,1.06,0,0,1-.53,1A1,1,0,0,1,86.09,117.33Zm-1.48-3.77a.79.79,0,0,0-.38.09.92.92,0,0,0-.45.88A3.09,3.09,0,0,0,85.39,117a1.2,1.2,0,0,0,1.09.1.91.91,0,0,0,.44-.87,3.11,3.11,0,0,0-1.61-2.47A1.68,1.68,0,0,0,84.61,113.56Z"/><path class="cls-52" d="M97.17,111a3.16,3.16,0,0,0-1.65-2.52c-.92-.47-1.66-.09-1.66.84a3.16,3.16,0,0,0,1.65,2.52C96.43,112.27,97.17,111.89,97.17,111Z"/><path class="cls-53" d="M110.86,120.07l4.78,2.44c.8.4,1.44,0,1.44-1h0a2.93,2.93,0,0,0-1.43-2.41l-4.79-2.44c-.79-.41-1.43,0-1.44,1h0A3,3,0,0,0,110.86,120.07Z"/><path class="cls-54" d="M114.28,123.72a1.46,1.46,0,0,1-.61-.16l-4.79-2.45a3,3,0,0,1-1.48-2.48,1,1,0,0,1,1.57-1l4.79,2.44a3,3,0,0,1,1.47,2.48,1.13,1.13,0,0,1-.54,1.09A.8.8,0,0,1,114.28,123.72ZM109,121l4.79,2.44a.94.94,0,0,0,.85.07,1,1,0,0,0,.46-1,2.85,2.85,0,0,0-1.39-2.34l-4.79-2.45a.93.93,0,0,0-.85-.06,1,1,0,0,0-.45.95A2.88,2.88,0,0,0,109,121Z"/></g></g></svg>