<svg xmlns="http://www.w3.org/2000/svg" xmlns:xlink="http://www.w3.org/1999/xlink" viewBox="0 0 179.42 170.31"><defs><style>.cls-1{fill:url(#linear-gradient);}.cls-2{fill:url(#linear-gradient-2);}.cls-3{fill:url(#linear-gradient-3);}.cls-4{fill:url(#linear-gradient-4);}.cls-5{fill:url(#linear-gradient-5);}.cls-6{fill:url(#linear-gradient-6);}.cls-7{fill:url(#linear-gradient-7);}.cls-8{fill:url(#linear-gradient-8);}.cls-9{fill:url(#linear-gradient-9);}.cls-10{fill:url(#linear-gradient-10);}.cls-11{fill:url(#linear-gradient-11);}.cls-12{fill:url(#linear-gradient-12);}.cls-13{fill:url(#linear-gradient-13);}.cls-14{isolation:isolate;}.cls-124,.cls-141,.cls-15,.cls-54{opacity:0.2;}.cls-112,.cls-113,.cls-124,.cls-15,.cls-73{mix-blend-mode:multiply;}.cls-124,.cls-16{fill:#1c4b5f;}.cls-17{fill:#b5b9dc;}.cls-18{fill:url(#linear-gradient-14);}.cls-19,.cls-25,.cls-43,.cls-70{opacity:0.6;}.cls-19{fill:url(#linear-gradient-15);}.cls-20{fill:url(#linear-gradient-16);}.cls-21{fill:#f0f3f9;}.cls-22{fill:url(#linear-gradient-17);}.cls-23{fill:#f5f5fd;}.cls-24,.cls-54{fill:#b6ccdf;}.cls-112,.cls-113,.cls-24{opacity:0.3;}.cls-141,.cls-24,.cls-54{mix-blend-mode:screen;}.cls-26{clip-path:url(#clip-path);}.cls-27{fill:url(#linear-gradient-19);}.cls-28{fill:url(#linear-gradient-20);}.cls-29{fill:url(#linear-gradient-21);}.cls-30{fill:url(#linear-gradient-22);}.cls-31{clip-path:url(#clip-path-2);}.cls-32{fill:url(#linear-gradient-24);}.cls-33{fill:url(#linear-gradient-25);}.cls-34{fill:url(#linear-gradient-26);}.cls-35{fill:url(#linear-gradient-27);}.cls-36{fill:#cdd1f6;}.cls-37{fill:#141e30;}.cls-38{fill:url(#linear-gradient-28);}.cls-39{fill:url(#linear-gradient-29);}.cls-40{fill:url(#linear-gradient-30);}.cls-41{fill:url(#linear-gradient-31);}.cls-42{opacity:0.64;fill:url(#linear-gradient-32);}.cls-43{fill:url(#linear-gradient-33);}.cls-44{fill:#d4d0c8;}.cls-45{fill:url(#linear-gradient-34);}.cls-46{fill:#303030;}.cls-47{fill:#5c697c;}.cls-48{opacity:0.61;fill:url(#linear-gradient-35);}.cls-49{fill:#1b1823;}.cls-50{opacity:0.72;fill:url(#linear-gradient-36);}.cls-51{fill:url(#linear-gradient-37);}.cls-52{fill:#21212b;}.cls-53{fill:#404040;}.cls-55{fill:#4a4e57;}.cls-56{fill:#1b2029;}.cls-57{opacity:0.4;}.cls-58{clip-path:url(#clip-path-3);}.cls-59{opacity:0.52;}.cls-60{clip-path:url(#clip-path-4);}.cls-61{fill:url(#linear-gradient-41);}.cls-62{fill:url(#linear-gradient-42);}.cls-63{fill:url(#linear-gradient-43);}.cls-64{fill:url(#linear-gradient-44);}.cls-65{fill:url(#linear-gradient-45);}.cls-66{clip-path:url(#clip-path-5);}.cls-67{fill:url(#linear-gradient-47);}.cls-68{fill:url(#linear-gradient-48);}.cls-69{fill:url(#linear-gradient-49);}.cls-70{fill:url(#linear-gradient-50);}.cls-71{fill:url(#linear-gradient-51);}.cls-72{fill:#f1f5fa;}.cls-74,.cls-82,.cls-90{opacity:0;}.cls-74{fill:url(#linear-gradient-52);}.cls-75,.cls-83{opacity:0.1;}.cls-75{fill:url(#linear-gradient-53);}.cls-76,.cls-84{opacity:0.21;}.cls-76{fill:url(#linear-gradient-54);}.cls-77,.cls-85{opacity:0.31;}.cls-77{fill:url(#linear-gradient-55);}.cls-78,.cls-86{opacity:0.42;}.cls-78{fill:url(#linear-gradient-56);}.cls-79,.cls-87{opacity:0.52;}.cls-79{fill:url(#linear-gradient-57);}.cls-80,.cls-88{opacity:0.62;}.cls-80{fill:url(#linear-gradient-58);}.cls-81,.cls-89{opacity:0.73;}.cls-81{fill:url(#linear-gradient-59);}.cls-82{fill:url(#linear-gradient-60);}.cls-83{fill:url(#linear-gradient-61);}.cls-84{fill:url(#linear-gradient-62);}.cls-85{fill:url(#linear-gradient-63);}.cls-86{fill:url(#linear-gradient-64);}.cls-87{fill:url(#linear-gradient-65);}.cls-88{fill:url(#linear-gradient-66);}.cls-89{fill:url(#linear-gradient-67);}.cls-90{fill:url(#linear-gradient-68);}.cls-91{opacity:0.13;fill:url(#linear-gradient-69);}.cls-92{opacity:0.26;fill:url(#linear-gradient-70);}.cls-93{opacity:0.39;fill:url(#linear-gradient-71);}.cls-94{opacity:0.51;fill:url(#linear-gradient-72);}.cls-95{opacity:0.64;fill:url(#linear-gradient-73);}.cls-96{opacity:0.77;fill:url(#linear-gradient-74);}.cls-97{opacity:0.9;fill:url(#linear-gradient-75);}.cls-98{fill:#dcdeed;}.cls-99{mask:url(#mask);}.cls-100{fill:url(#linear-gradient-76);}.cls-101{mask:url(#mask-2);}.cls-102{fill:url(#linear-gradient-77);}.cls-103{fill:url(#linear-gradient-78);}.cls-104{opacity:0.75;}.cls-105{fill:url(#linear-gradient-79);}.cls-106{fill:url(#linear-gradient-80);}.cls-107{fill:url(#linear-gradient-81);}.cls-108{fill:#f5c2a6;}.cls-109{fill:#cc963e;}.cls-110{fill:#171716;}.cls-111{fill:url(#linear-gradient-82);}.cls-112{fill:url(#linear-gradient-83);}.cls-113{fill:url(#linear-gradient-84);}.cls-114{fill:url(#linear-gradient-85);}.cls-115{fill:url(#linear-gradient-86);}.cls-116{fill:url(#linear-gradient-87);}.cls-117{fill:url(#linear-gradient-88);}.cls-118{fill:url(#linear-gradient-89);}.cls-119{fill:#ffdfcd;}.cls-120{fill:#bfbfbf;}.cls-121{fill:#f8f9fc;}.cls-122{fill:#ebebeb;}.cls-123{fill:#ffd6bf;}.cls-125{fill:url(#linear-gradient-90);}.cls-126{fill:url(#linear-gradient-91);}.cls-127{fill:#9cb5cc;}.cls-128{fill:#f2f2f2;}.cls-129{fill:#fff;}.cls-130{fill:#505050;}.cls-131{fill:#2e3665;}.cls-132{fill:url(#linear-gradient-92);}.cls-133{fill:#2b0d04;}.cls-134{fill:#eeb04a;}.cls-135{fill:url(#linear-gradient-93);}.cls-136{fill:url(#linear-gradient-94);}.cls-137{fill:#ebb091;}.cls-138{fill:#d9e1ee;}.cls-139{fill:#294688;}.cls-140{fill:url(#linear-gradient-95);}.cls-141{fill:url(#linear-gradient-96);}.cls-142{fill:#f02031;}.cls-143{fill:#995033;}.cls-144{fill:#66311c;}.cls-145{fill:#951616;}.cls-146{fill:#fcfdfd;}.cls-147{clip-path:url(#clip-path-6);}.cls-148{fill:url(#linear-gradient-98);}.cls-149{fill:url(#linear-gradient-99);}.cls-150{clip-path:url(#clip-path-7);}.cls-151{fill:url(#linear-gradient-101);}.cls-152{fill:url(#linear-gradient-102);}.cls-153{fill:url(#linear-gradient-103);}.cls-154{fill:url(#linear-gradient-104);}.cls-155{clip-path:url(#clip-path-8);}.cls-156{fill:url(#linear-gradient-106);}.cls-157{fill:url(#linear-gradient-107);}.cls-158{clip-path:url(#clip-path-9);}.cls-159{fill:url(#linear-gradient-109);}.cls-160{fill:url(#linear-gradient-110);}.cls-161{fill:url(#linear-gradient-111);}.cls-162{fill:url(#linear-gradient-112);}.cls-163{clip-path:url(#clip-path-10);}.cls-164{fill:url(#linear-gradient-114);}.cls-165{fill:url(#linear-gradient-115);}.cls-166{clip-path:url(#clip-path-11);}.cls-167{fill:url(#linear-gradient-117);}.cls-168{fill:url(#linear-gradient-118);}.cls-169{fill:url(#linear-gradient-119);}.cls-170{clip-path:url(#clip-path-12);}.cls-171{fill:url(#linear-gradient-121);}.cls-172{fill:url(#linear-gradient-122);}.cls-173{fill:url(#linear-gradient-123);}.cls-174{fill:url(#linear-gradient-124);}.cls-175{clip-path:url(#clip-path-13);}.cls-176{fill:url(#linear-gradient-126);}.cls-177{fill:url(#linear-gradient-127);}.cls-178{fill:url(#linear-gradient-128);}.cls-179{filter:url(#luminosity-noclip-2);}.cls-180{filter:url(#luminosity-noclip);}</style><linearGradient id="linear-gradient" x1="93.52" y1="89.56" x2="97.61" y2="89.56" gradientUnits="userSpaceOnUse"><stop offset="0" stop-color="#abd1ec"/><stop offset="1" stop-color="#abd1ec"/></linearGradient><linearGradient id="linear-gradient-2" x1="-13211.45" y1="102.44" x2="-13206.83" y2="102.44" gradientTransform="translate(13326.32)" xlink:href="#linear-gradient"/><linearGradient id="linear-gradient-3" x1="29.64" y1="37.18" x2="43.72" y2="37.18" xlink:href="#linear-gradient"/><linearGradient id="linear-gradient-4" x1="20.7" y1="49.25" x2="31.93" y2="49.25" xlink:href="#linear-gradient"/><linearGradient id="linear-gradient-5" x1="17.43" y1="45.51" x2="31.92" y2="45.51" xlink:href="#linear-gradient"/><linearGradient id="linear-gradient-6" x1="74.59" y1="154.98" x2="79.07" y2="154.98" gradientUnits="userSpaceOnUse"><stop offset="0" stop-color="#38c5ea"/><stop offset="1" stop-color="#294688"/></linearGradient><linearGradient id="linear-gradient-7" x1="59.2" y1="130.08" x2="64.78" y2="130.08" xlink:href="#linear-gradient-6"/><linearGradient id="linear-gradient-8" x1="72.76" y1="138.98" x2="79.1" y2="138.98" xlink:href="#linear-gradient-6"/><linearGradient id="linear-gradient-9" x1="29.63" y1="53.89" x2="33.49" y2="53.89" xlink:href="#linear-gradient"/><linearGradient id="linear-gradient-10" x1="27.43" y1="56.57" x2="31.91" y2="56.57" xlink:href="#linear-gradient"/><linearGradient id="linear-gradient-11" x1="29.67" y1="48.63" x2="37.05" y2="48.63" xlink:href="#linear-gradient"/><linearGradient id="linear-gradient-12" x1="24.15" y1="52.91" x2="31.95" y2="52.91" xlink:href="#linear-gradient"/><linearGradient id="linear-gradient-13" x1="29.65" y1="42.89" x2="40.47" y2="42.89" xlink:href="#linear-gradient"/><linearGradient id="linear-gradient-14" x1="51.01" y1="43.6" x2="128.73" y2="43.6" xlink:href="#linear-gradient"/><linearGradient id="linear-gradient-15" x1="49.23" y1="73.81" x2="129.08" y2="73.81" xlink:href="#linear-gradient"/><linearGradient id="linear-gradient-16" x1="-733.62" y1="109.94" x2="-786.83" y2="52.93" gradientTransform="matrix(-1, 0, 0, 1, -677.97, 0)" xlink:href="#linear-gradient-6"/><linearGradient id="linear-gradient-17" x1="52.06" y1="74" x2="126.35" y2="74" gradientUnits="userSpaceOnUse"><stop offset="0" stop-color="#0984bd"/><stop offset="1" stop-color="#56a5d7"/></linearGradient><clipPath id="clip-path"><path class="cls-1" d="M96.26,88.79l-2.74,1.55a1.35,1.35,0,0,1,1.34.12l2.75-1.54A1.4,1.4,0,0,0,96.26,88.79Z"/></clipPath><linearGradient id="linear-gradient-19" x1="94.29" y1="89.58" x2="97.61" y2="89.58" xlink:href="#linear-gradient"/><linearGradient id="linear-gradient-20" x1="93.56" y1="89.49" x2="97.04" y2="89.49" xlink:href="#linear-gradient"/><linearGradient id="linear-gradient-21" x1="93.52" y1="89.56" x2="96.3" y2="89.56" xlink:href="#linear-gradient"/><linearGradient id="linear-gradient-22" x1="94.86" y1="95.28" x2="117.61" y2="95.28" xlink:href="#linear-gradient"/><clipPath id="clip-path-2"><path class="cls-2" d="M116.75,104.79l2.74-1.54a4,4,0,0,0-1.88-3.16l-2.74,1.55A4,4,0,0,1,116.75,104.79Z"/></clipPath><linearGradient id="linear-gradient-24" x1="114.87" y1="102.44" x2="119.49" y2="102.44" xlink:href="#linear-gradient"/><linearGradient id="linear-gradient-25" x1="92.84" y1="144.55" x2="116.63" y2="144.55" xlink:href="#linear-gradient"/><linearGradient id="linear-gradient-26" x1="-13233.47" y1="121.62" x2="-13209.58" y2="121.62" gradientTransform="translate(13326.32)" xlink:href="#linear-gradient"/><linearGradient id="linear-gradient-27" x1="92.96" y1="98.47" x2="116.75" y2="98.47" xlink:href="#linear-gradient"/><linearGradient id="linear-gradient-28" x1="101.54" y1="98.76" x2="109.98" y2="98.76" xlink:href="#linear-gradient-17"/><linearGradient id="linear-gradient-29" x1="116.74" y1="104.98" x2="119.49" y2="104.98" xlink:href="#linear-gradient"/><linearGradient id="linear-gradient-30" x1="116.62" y1="127.56" x2="119.48" y2="127.56" xlink:href="#linear-gradient"/><linearGradient id="linear-gradient-31" x1="116.62" y1="127.94" x2="118.15" y2="127.94" xlink:href="#linear-gradient-17"/><linearGradient id="linear-gradient-32" x1="92.85" y1="121.62" x2="116.74" y2="121.62" xlink:href="#linear-gradient-6"/><linearGradient id="linear-gradient-33" x1="1494.03" y1="87.37" x2="1565.62" y2="125.59" gradientTransform="matrix(-1, 0, 0, 1, 1563.74, 0)" xlink:href="#linear-gradient"/><linearGradient id="linear-gradient-34" x1="32.86" y1="94.3" x2="81.04" y2="94.3" xlink:href="#linear-gradient"/><linearGradient id="linear-gradient-35" x1="18.22" y1="127.06" x2="33.42" y2="127.06" gradientUnits="userSpaceOnUse"><stop offset="0.05" stop-color="#14416a"/><stop offset="1" stop-color="#004f98"/></linearGradient><linearGradient id="linear-gradient-36" x1="-703.63" y1="133.92" x2="-750.08" y2="74.25" gradientTransform="matrix(-1, 0, 0, 1, -677.97, 0)" xlink:href="#linear-gradient-6"/><linearGradient id="linear-gradient-37" x1="34.39" y1="95.57" x2="76.64" y2="95.57" xlink:href="#linear-gradient-17"/><clipPath id="clip-path-3"><path class="cls-6" d="M74.59,156.84l3.7-2.08a1.79,1.79,0,0,0,.78-1.64l-3.7,2.08A1.79,1.79,0,0,1,74.59,156.84Z"/></clipPath><clipPath id="clip-path-4"><path class="cls-7" d="M62.9,129l-3.7,2.07a1.92,1.92,0,0,1,1.88.18l3.7-2.08A1.89,1.89,0,0,0,62.9,129Z"/></clipPath><linearGradient id="linear-gradient-41" x1="60.28" y1="130.1" x2="64.78" y2="130.1" xlink:href="#linear-gradient-6"/><linearGradient id="linear-gradient-42" x1="59.24" y1="129.98" x2="63.98" y2="129.98" xlink:href="#linear-gradient-6"/><linearGradient id="linear-gradient-43" x1="59.2" y1="130.06" x2="62.94" y2="130.06" xlink:href="#linear-gradient-6"/><linearGradient id="linear-gradient-44" x1="75.37" y1="147.67" x2="79.1" y2="147.67" xlink:href="#linear-gradient-6"/><linearGradient id="linear-gradient-45" x1="61.08" y1="133.51" x2="76.46" y2="133.51" xlink:href="#linear-gradient-6"/><clipPath id="clip-path-5"><path class="cls-8" d="M75.4,142.23l3.7-2.08a5.58,5.58,0,0,0-2.64-4.42l-3.7,2.07A5.61,5.61,0,0,1,75.4,142.23Z"/></clipPath><linearGradient id="linear-gradient-47" x1="74.94" y1="140.22" x2="79.1" y2="140.22" xlink:href="#linear-gradient-6"/><linearGradient id="linear-gradient-48" x1="74.04" y1="138.55" x2="78.64" y2="138.55" xlink:href="#linear-gradient-6"/><linearGradient id="linear-gradient-49" x1="72.76" y1="137.31" x2="77.74" y2="137.31" xlink:href="#linear-gradient-6"/><linearGradient id="linear-gradient-50" x1="59.17" y1="143.97" x2="74.62" y2="143.97" xlink:href="#linear-gradient"/><linearGradient id="linear-gradient-51" x1="-736.58" y1="150.79" x2="-757.68" y2="133.83" gradientTransform="matrix(-1, 0, 0, 1, -677.97, 0)" xlink:href="#linear-gradient-6"/><linearGradient id="linear-gradient-52" x1="31.99" y1="27.7" x2="76.76" y2="27.7" gradientUnits="userSpaceOnUse"><stop offset="0" stop-color="#eef6fb" stop-opacity="0"/><stop offset="0.23" stop-color="#daebf6" stop-opacity="0.21"/><stop offset="0.48" stop-color="#c6e0f2" stop-opacity="0.42"/><stop offset="0.7" stop-color="#b7d8ef" stop-opacity="0.57"/><stop offset="0.88" stop-color="#aed3ed" stop-opacity="0.67"/><stop offset="1" stop-color="#abd1ec" stop-opacity="0.7"/></linearGradient><linearGradient id="linear-gradient-53" x1="34.63" y1="27.7" x2="74.12" y2="27.7" xlink:href="#linear-gradient-52"/><linearGradient id="linear-gradient-54" x1="37.27" y1="27.7" x2="71.48" y2="27.7" xlink:href="#linear-gradient-52"/><linearGradient id="linear-gradient-55" x1="39.91" y1="27.7" x2="68.85" y2="27.7" xlink:href="#linear-gradient-52"/><linearGradient id="linear-gradient-56" x1="42.55" y1="27.7" x2="66.21" y2="27.7" xlink:href="#linear-gradient-52"/><linearGradient id="linear-gradient-57" x1="45.18" y1="27.7" x2="63.57" y2="27.7" xlink:href="#linear-gradient-52"/><linearGradient id="linear-gradient-58" x1="47.82" y1="27.7" x2="60.93" y2="27.7" xlink:href="#linear-gradient-52"/><linearGradient id="linear-gradient-59" x1="50.46" y1="27.7" x2="58.3" y2="27.7" xlink:href="#linear-gradient-52"/><linearGradient id="linear-gradient-60" x1="134.27" y1="96.07" x2="179.03" y2="96.07" xlink:href="#linear-gradient-52"/><linearGradient id="linear-gradient-61" x1="136.91" y1="96.07" x2="176.4" y2="96.07" xlink:href="#linear-gradient-52"/><linearGradient id="linear-gradient-62" x1="139.54" y1="96.07" x2="173.76" y2="96.07" xlink:href="#linear-gradient-52"/><linearGradient id="linear-gradient-63" x1="142.18" y1="96.07" x2="171.12" y2="96.07" xlink:href="#linear-gradient-52"/><linearGradient id="linear-gradient-64" x1="144.82" y1="96.07" x2="168.48" y2="96.07" xlink:href="#linear-gradient-52"/><linearGradient id="linear-gradient-65" x1="147.46" y1="96.07" x2="165.84" y2="96.07" xlink:href="#linear-gradient-52"/><linearGradient id="linear-gradient-66" x1="150.09" y1="96.07" x2="163.21" y2="96.07" xlink:href="#linear-gradient-52"/><linearGradient id="linear-gradient-67" x1="152.73" y1="96.07" x2="160.57" y2="96.07" xlink:href="#linear-gradient-52"/><linearGradient id="linear-gradient-68" x1="16.91" y1="71.62" x2="55.44" y2="71.62" xlink:href="#linear-gradient-52"/><linearGradient id="linear-gradient-69" x1="19.12" y1="71.62" x2="53.24" y2="71.62" xlink:href="#linear-gradient-52"/><linearGradient id="linear-gradient-70" x1="21.32" y1="71.62" x2="51.03" y2="71.62" xlink:href="#linear-gradient-52"/><linearGradient id="linear-gradient-71" x1="23.53" y1="71.62" x2="48.82" y2="71.62" xlink:href="#linear-gradient-52"/><linearGradient id="linear-gradient-72" x1="25.73" y1="71.62" x2="46.62" y2="71.62" xlink:href="#linear-gradient-52"/><linearGradient id="linear-gradient-73" x1="27.94" y1="71.62" x2="44.41" y2="71.62" xlink:href="#linear-gradient-52"/><linearGradient id="linear-gradient-74" x1="30.15" y1="71.62" x2="42.21" y2="71.62" xlink:href="#linear-gradient-52"/><linearGradient id="linear-gradient-75" x1="32.35" y1="71.62" x2="40" y2="71.62" xlink:href="#linear-gradient-52"/><filter id="luminosity-noclip" x="110.63" y="-15116.25" width="15.17" height="32766" filterUnits="userSpaceOnUse" color-interpolation-filters="sRGB"><feFlood flood-color="#fff" result="bg"/><feBlend in="SourceGraphic" in2="bg"/></filter><mask id="mask" x="110.63" y="-15116.25" width="15.17" height="32766" maskUnits="userSpaceOnUse"><g class="cls-180"/></mask><linearGradient id="linear-gradient-76" x1="110.63" y1="62.49" x2="125.8" y2="62.49" xlink:href="#linear-gradient"/><filter id="luminosity-noclip-2" x="124.48" y="-15116.25" width="38.63" height="32766" filterUnits="userSpaceOnUse" color-interpolation-filters="sRGB"><feFlood flood-color="#fff" result="bg"/><feBlend in="SourceGraphic" in2="bg"/></filter><mask id="mask-2" x="124.48" y="-15116.25" width="38.63" height="32766" maskUnits="userSpaceOnUse"><g class="cls-179"/></mask><linearGradient id="linear-gradient-77" x1="124.48" y1="80.31" x2="163.11" y2="80.31" xlink:href="#linear-gradient"/><linearGradient id="linear-gradient-78" x1="107.59" y1="81.97" x2="158.41" y2="81.97" xlink:href="#linear-gradient-52"/><linearGradient id="linear-gradient-79" x1="122.88" y1="76.57" x2="139.16" y2="76.57" gradientUnits="userSpaceOnUse"><stop offset="0" stop-color="#fab371"/><stop offset="1" stop-color="#fcd5b0"/></linearGradient><linearGradient id="linear-gradient-80" x1="122.37" y1="82.61" x2="139.66" y2="82.61" xlink:href="#linear-gradient-79"/><linearGradient id="linear-gradient-81" x1="124.75" y1="76.79" x2="137.63" y2="76.79" xlink:href="#linear-gradient-79"/><linearGradient id="linear-gradient-82" x1="143.35" y1="85.35" x2="153.7" y2="85.35" xlink:href="#linear-gradient-35"/><linearGradient id="linear-gradient-83" x1="143.37" y1="85" x2="143.4" y2="85" xlink:href="#linear-gradient-35"/><linearGradient id="linear-gradient-84" x1="143.37" y1="84.73" x2="143.37" y2="84.73" xlink:href="#linear-gradient-35"/><linearGradient id="linear-gradient-85" x1="137.14" y1="83.97" x2="158.34" y2="83.97" xlink:href="#linear-gradient-35"/><linearGradient id="linear-gradient-86" x1="149.81" y1="62.18" x2="156.16" y2="62.18" gradientUnits="userSpaceOnUse"><stop offset="0" stop-color="#f57454"/><stop offset="1" stop-color="#f7947c"/></linearGradient><linearGradient id="linear-gradient-87" x1="151.47" y1="60.04" x2="154.23" y2="60.04" xlink:href="#linear-gradient-86"/><linearGradient id="linear-gradient-88" x1="147.5" y1="69.04" x2="159.16" y2="69.04" xlink:href="#linear-gradient-86"/><linearGradient id="linear-gradient-89" x1="155.44" y1="67.87" x2="159.73" y2="67.87" xlink:href="#linear-gradient-86"/><linearGradient id="linear-gradient-90" x1="4.31" y1="86.46" x2="12.45" y2="86.46" xlink:href="#linear-gradient-79"/><linearGradient id="linear-gradient-91" x1="1.31" y1="88.83" x2="8.96" y2="88.83" xlink:href="#linear-gradient-79"/><linearGradient id="linear-gradient-92" x1="8.37" y1="92.31" x2="18.71" y2="92.31" xlink:href="#linear-gradient-79"/><linearGradient id="linear-gradient-93" x1="12.43" y1="88.52" x2="19.78" y2="88.52" xlink:href="#linear-gradient-79"/><linearGradient id="linear-gradient-94" x1="5.3" y1="90.82" x2="15.49" y2="90.82" xlink:href="#linear-gradient-79"/><linearGradient id="linear-gradient-95" x1="88.48" y1="127.8" x2="97.9" y2="127.8" xlink:href="#linear-gradient-79"/><linearGradient id="linear-gradient-96" x1="86.13" y1="126.63" x2="86.3" y2="126.63" xlink:href="#linear-gradient-79"/><clipPath id="clip-path-6"><path class="cls-9" d="M31.21,53.24l2.28,1.28a1.64,1.64,0,0,0-1.58.15l-2.28-1.28A1.64,1.64,0,0,1,31.21,53.24Z"/></clipPath><linearGradient id="linear-gradient-98" x1="29.63" y1="53.89" x2="33.16" y2="53.89" xlink:href="#linear-gradient"/><linearGradient id="linear-gradient-99" x1="30.88" y1="53.82" x2="33.49" y2="53.82" xlink:href="#linear-gradient"/><clipPath id="clip-path-7"><path class="cls-10" d="M30.35,59.74l-2.28-1.28a1.49,1.49,0,0,1-.64-1.37,4.66,4.66,0,0,1,2.2-3.7l2.28,1.28a4.68,4.68,0,0,0-2.2,3.7A1.47,1.47,0,0,0,30.35,59.74Z"/></clipPath><linearGradient id="linear-gradient-101" x1="27.43" y1="57.45" x2="30.35" y2="57.45" xlink:href="#linear-gradient"/><linearGradient id="linear-gradient-102" x1="27.97" y1="55.36" x2="30.86" y2="55.36" xlink:href="#linear-gradient"/><linearGradient id="linear-gradient-103" x1="28.59" y1="54.47" x2="31.91" y2="54.47" xlink:href="#linear-gradient"/><linearGradient id="linear-gradient-104" x1="29.71" y1="57.13" x2="34.13" y2="57.13" xlink:href="#linear-gradient-52"/><clipPath id="clip-path-8"><path class="cls-11" d="M32,49.74l-2.28-1.28a7.08,7.08,0,0,1,2.81-.93,3.93,3.93,0,0,1,2.29.46l2.28,1.28a3.93,3.93,0,0,0-2.29-.46A7,7,0,0,0,32,49.74Z"/></clipPath><linearGradient id="linear-gradient-106" x1="29.67" y1="48.63" x2="35.98" y2="48.63" xlink:href="#linear-gradient"/><linearGradient id="linear-gradient-107" x1="33.7" y1="48.43" x2="37.05" y2="48.43" xlink:href="#linear-gradient"/><clipPath id="clip-path-9"><path class="cls-12" d="M26.89,57.36l-2.28-1.29c-.6-.32-.61-1.39,0-2.39a16.06,16.06,0,0,1,2.27-3,12.6,12.6,0,0,1,2.81-2.21L32,49.74A12.6,12.6,0,0,0,29.14,52a16.55,16.55,0,0,0-2.28,3C26.27,56,26.28,57,26.89,57.36Z"/></clipPath><linearGradient id="linear-gradient-109" x1="24.15" y1="55.57" x2="26.89" y2="55.57" xlink:href="#linear-gradient"/><linearGradient id="linear-gradient-110" x1="24.53" y1="53.18" x2="28.57" y2="53.18" xlink:href="#linear-gradient"/><linearGradient id="linear-gradient-111" x1="26.29" y1="50.52" x2="31.95" y2="50.52" xlink:href="#linear-gradient"/><linearGradient id="linear-gradient-112" x1="26.49" y1="52.93" x2="37.42" y2="52.93" xlink:href="#linear-gradient-52"/><clipPath id="clip-path-10"><path class="cls-13" d="M31.93,44.33l-2.28-1.28a12,12,0,0,1,4.71-1.57,6.63,6.63,0,0,1,3.84.75l2.27,1.29a6.54,6.54,0,0,0-3.83-.76A12,12,0,0,0,31.93,44.33Z"/></clipPath><linearGradient id="linear-gradient-114" x1="29.65" y1="42.89" x2="38.72" y2="42.89" xlink:href="#linear-gradient"/><linearGradient id="linear-gradient-115" x1="36.44" y1="42.55" x2="40.47" y2="42.55" xlink:href="#linear-gradient"/><clipPath id="clip-path-11"><path class="cls-3" d="M31.92,38.93l-2.28-1.28a16.45,16.45,0,0,1,6.49-2.17,9.18,9.18,0,0,1,5.31,1l2.28,1.29a9,9,0,0,0-5.31-1A16.22,16.22,0,0,0,31.92,38.93Z"/></clipPath><linearGradient id="linear-gradient-117" x1="29.64" y1="37.18" x2="41.3" y2="37.18" xlink:href="#linear-gradient"/><linearGradient id="linear-gradient-118" x1="39.02" y1="36.71" x2="43.72" y2="36.71" xlink:href="#linear-gradient"/><linearGradient id="linear-gradient-119" x1="23.08" y1="48.99" x2="40.81" y2="48.99" xlink:href="#linear-gradient-52"/><clipPath id="clip-path-12"><path class="cls-4" d="M23.43,55.45l-2.28-1.28c-.6-.33-.61-1.4,0-2.4a26.67,26.67,0,0,1,3.82-5,20.7,20.7,0,0,1,4.69-3.69l2.28,1.28A20.7,20.7,0,0,0,27.24,48a27.15,27.15,0,0,0-3.83,5C22.82,54.05,22.83,55.12,23.43,55.45Z"/></clipPath><linearGradient id="linear-gradient-121" x1="20.7" y1="53.66" x2="23.43" y2="53.66" xlink:href="#linear-gradient"/><linearGradient id="linear-gradient-122" x1="21.07" y1="50.49" x2="26.25" y2="50.49" xlink:href="#linear-gradient"/><linearGradient id="linear-gradient-123" x1="23.97" y1="46.07" x2="31.93" y2="46.07" xlink:href="#linear-gradient"/><linearGradient id="linear-gradient-124" x1="19.85" y1="44.99" x2="44.02" y2="44.99" xlink:href="#linear-gradient-52"/><clipPath id="clip-path-13"><path class="cls-5" d="M20.16,53.37l-2.28-1.29c-.6-.32-.6-1.4,0-2.4a38,38,0,0,1,5.28-6.94,28.3,28.3,0,0,1,6.49-5.09l2.28,1.28A28.3,28.3,0,0,0,25.43,44,38,38,0,0,0,20.15,51C19.55,52,19.56,53,20.16,53.37Z"/></clipPath><linearGradient id="linear-gradient-126" x1="17.43" y1="51.58" x2="20.16" y2="51.58" xlink:href="#linear-gradient"/><linearGradient id="linear-gradient-127" x1="17.8" y1="47.66" x2="24.05" y2="47.66" xlink:href="#linear-gradient"/><linearGradient id="linear-gradient-128" x1="21.77" y1="41.59" x2="31.92" y2="41.59" xlink:href="#linear-gradient"/></defs><g class="cls-14"><g id="Use_case_-_Open_Bank_Acount_-_Ảnh_số_4_từ_trái_sang_dòng_2" data-name="Use case - Open Bank Acount - Ảnh số 4, từ trái sang, dòng 2"><g class="cls-15"><polygon class="cls-16" points="116.3 154.49 120.39 152.19 90.54 135.51 86.45 137.81 116.3 154.49"/></g><path class="cls-17" d="M50.71,23.72l.53.1h0l1.1.21-.06.35a6.07,6.07,0,0,0-.07,1l.11,11.2.27,38.2c0,3,1.92,6.44,4.25,7.71L127.91,122l.12.06-.54,1.91,2.42-1.37a3.31,3.31,0,0,0,1.44-2.78c0-.17,0-.35,0-.52L131,70v-.09a10.07,10.07,0,0,0-2.25-6,7.06,7.06,0,0,0-2-1.74L55.67,22.65A2.78,2.78,0,0,0,53,22.42h0l-2,1.15Z"/><path class="cls-18" d="M51,23.56l.23.26h0l1,.56L126.3,65l2.43-1.12a7.06,7.06,0,0,0-2-1.74L55.67,22.65A2.78,2.78,0,0,0,53,22.42h0Z"/><path class="cls-17" d="M123.19,66.51l2.64,6.28L131,70v-.09a10.07,10.07,0,0,0-2.25-6Z"/><path class="cls-19" d="M49.23,27,49.28,32h0l.06,6.27.27,38.19c0,3,1.92,6.44,4.26,7.72l26,14.26,28,15.32.65.37,16.42,9.57c1.9,1,3.49.31,4-1.63a5.08,5.08,0,0,0,.16-1v-.52l0-5.62-.11-14.48-.22-29.29c0-3-1.93-6.45-4.26-7.72L95.13,47.4l-.06,0-10-5.75L72.34,34.33h0L57.65,26.27,53.4,24c-1.55-.85-2.9-.52-3.62.68A4.72,4.72,0,0,0,49.23,27Z"/><path class="cls-20" d="M52.06,27.87V78.18l45.88,25.91,28.41,16V69.82C85,46.44,64.74,35,52.58,28.18Z"/><polygon class="cls-21" points="81.52 59.27 78.06 57.34 78.06 56.25 81.52 58.18 81.52 59.27"/><polygon class="cls-21" points="81.52 72.23 78.06 70.3 78.06 69.21 81.52 71.14 81.52 72.23"/><path class="cls-21" d="M78.34,57.2V69.53l2.89,1.62V58.81Zm.81,12.2-.43-.24V58l.43.24Zm.85.47-.43-.24V58.51l.43.24Zm.85.48-.43-.24V59l.43.24Z"/><polygon class="cls-21" points="87.11 62.39 83.65 60.46 83.65 59.37 87.11 61.3 87.11 62.39"/><polygon class="cls-21" points="87.11 75.35 83.65 73.42 83.65 72.33 87.11 74.26 87.11 75.35"/><path class="cls-21" d="M83.94,60.32V72.65l2.89,1.62V61.93Zm.8,12.2-.43-.24V61.16l.43.24Zm.86.47-.43-.24V61.63l.43.24Zm.85.48L86,73.23V62.11l.43.24Z"/><polygon class="cls-21" points="92.7 65.51 89.24 63.58 89.24 62.49 92.7 64.42 92.7 65.51"/><polygon class="cls-21" points="92.7 78.47 89.24 76.54 89.24 75.45 92.7 77.39 92.7 78.47"/><path class="cls-21" d="M89.53,63.44V75.78l2.89,1.61V65.05Zm.81,12.2-.43-.24V64.28l.43.24Zm.85.47-.43-.24V64.75l.43.24Zm.85.48-.43-.24V65.23l.43.24Z"/><polygon class="cls-21" points="98.3 68.63 94.83 66.7 94.83 65.61 98.3 67.54 98.3 68.63"/><polygon class="cls-21" points="98.3 81.59 94.83 79.66 94.83 78.57 98.3 80.5 98.3 81.59"/><path class="cls-21" d="M95.12,66.56V78.9L98,80.51V68.17Zm.81,12.2-.43-.24V67.4l.43.24Zm.85.47L96.35,79V67.88l.43.23Zm.85.48-.43-.24V68.35l.43.24Z"/><path class="cls-21" d="M88,52.23,76.58,55.15,99.42,67.89Zm0,1.69,7.86,10.77L80.14,55.93Z"/><path class="cls-21" d="M87.25,56.57c0-.6.33-.61.74-.39v-.37l.36.21v.36a4,4,0,0,1,.66.49v.53c-.23-.14-.63-.39-.82-.49s-.33-.17-.33.06v.11a.42.42,0,0,0,.27.4l.3.17a1.38,1.38,0,0,1,.68,1.22v.18c0,.71-.38.66-.76.45v.35l-.36-.2V59.3a3.69,3.69,0,0,1-.66-.5v-.53c.15.1.52.33.87.53.16.08.29.11.29-.07v-.12a.38.38,0,0,0-.23-.37L88,58.08a1.4,1.4,0,0,1-.72-1.25Z"/><polygon class="cls-21" points="99.42 83.51 76.58 70.76 76.58 69.77 99.42 82.52 99.42 83.51"/><polygon class="cls-21" points="100.29 85.27 75.7 71.55 75.7 70.56 100.29 84.28 100.29 85.27"/><polygon class="cls-21" points="101.34 87.14 74.66 72.25 74.66 71.25 101.34 86.14 101.34 87.14"/><path class="cls-21" d="M65,72.11c0-1,.43-1.36,1.3-.87a2.56,2.56,0,0,1,1.31,2.33v3.29c0,1-.43,1.36-1.31.87A2.59,2.59,0,0,1,65,75.4Zm.62,3.68a1.37,1.37,0,0,0,.68,1.29c.46.26.67,0,.67-.54V73.18a1.37,1.37,0,0,0-.67-1.29c-.46-.26-.68,0-.68.54Z"/><path class="cls-21" d="M68.78,79l-.57-.32V72.37l.81.45,1.32,5.33v-4.6l.56.32v6.35l-.66-.36-1.46-6Z"/><path class="cls-21" d="M71.53,77.08l1.55.86v.64l-1.55-.87Z"/><path class="cls-21" d="M73.71,81.79V75.43l.63.36V81.5l1.63.91v.64Z"/><path class="cls-21" d="M77.08,77.32v6.35l-.63-.35V77Z"/><path class="cls-21" d="M78.3,84.35,77.73,84V77.68l.8.44,1.32,5.34v-4.6l.56.31v6.36l-.66-.37-1.45-6Z"/><path class="cls-21" d="M83.09,83.48v.64l-1.39-.78V85.6l1.71,1v.64l-2.35-1.31V79.54l2.35,1.3v.65l-1.71-.95v2.17Z"/><path class="cls-21" d="M86.53,82.59a2.18,2.18,0,0,1,1.24,2.1V85c0,.67-.17,1-.67.89a2.22,2.22,0,0,1,.77,1.79v.53c0,1-.42,1.26-1.3.76l-1.31-.73V81.88Zm-.15,2.61c.5.28.76.24.76-.42v-.37a1.22,1.22,0,0,0-.62-1.19l-.63-.35v2.06Zm.19,3.12c.46.26.67.1.67-.49v-.56a1.39,1.39,0,0,0-.8-1.39l-.55-.31v2.37Z"/><path class="cls-21" d="M89.09,89.09l-.22,1.16-.59-.33,1.09-5.75.92.52,1.09,7-.63-.35-.22-1.4Zm.08-.56,1.27.71-.64-4Z"/><path class="cls-21" d="M92.44,92.24l-.57-.32V85.57l.81.45L94,91.35v-4.6l.56.32v6.35l-.66-.36-1.46-6Z"/><path class="cls-21" d="M96.18,91.57l-.34.44v2.13l-.63-.35V87.43l.64.35v3.07l1.52-2.22L98,89l-1.44,2.09,1.49,4.29L97.4,95Z"/><path class="cls-21" d="M99.17,89.64V96l-.63-.36V89.29Z"/><path class="cls-21" d="M100.39,96.68l-.57-.32V90l.8.45,1.32,5.33v-4.6l.56.32v6.36l-.66-.37-1.45-6Z"/><path class="cls-21" d="M105.67,94.8v.54l-.6-.33v-.58a1.37,1.37,0,0,0-.67-1.29c-.46-.26-.67,0-.67.54V97a1.37,1.37,0,0,0,.67,1.29c.46.26.67,0,.67-.54V96.52l-.59-.33v-.64l1.19.67v1.87c0,1-.41,1.37-1.29.88a2.54,2.54,0,0,1-1.28-2.31V93.37c0-1,.41-1.37,1.28-.89A2.54,2.54,0,0,1,105.67,94.8Z"/><polygon class="cls-22" points="53.12 28.46 53.12 77.62 126.35 118.98 126.35 120.13 52.06 78.18 52.06 27.87 53.12 28.46"/><polygon class="cls-23" points="126.35 120.13 52.06 78.18 53.12 77.62 126.35 118.98 126.35 120.13"/><polygon class="cls-24" points="98.17 53.91 126.35 101.09 126.35 87.55 110.35 60.78 109.66 60.4 106.73 58.74 104.5 57.48 99.63 54.73 98.17 53.91"/><polygon class="cls-24" points="52.58 28.18 97.94 104.09 103.97 107.49 104.25 107.65 126.35 120.13 126.35 117.58 83.29 45.5 81.72 44.62 81.4 44.44 81 44.21 80.15 43.73 78.78 42.96 78.13 42.59 52.58 28.18"/><g class="cls-25"><g class="cls-14"><path class="cls-1" d="M96.26,88.79l-2.74,1.55a1.35,1.35,0,0,1,1.34.12l2.75-1.54A1.4,1.4,0,0,0,96.26,88.79Z"/><g class="cls-26"><g class="cls-14"><path class="cls-27" d="M94.86,90.46l2.75-1.54A1.85,1.85,0,0,0,97,88.7l-2.75,1.54a2.15,2.15,0,0,1,.57.22Z"/><path class="cls-28" d="M94.29,90.24,97,88.7a1.14,1.14,0,0,0-.74.07l-2.74,1.55a1,1,0,0,1,.73-.08Z"/><path class="cls-29" d="M93.56,90.32l2.74-1.55,0,0-2.74,1.55,0,0Z"/></g></g><polygon class="cls-30" points="114.87 101.64 117.61 100.09 97.61 88.92 94.86 90.46 114.87 101.64"/><path class="cls-2" d="M116.75,104.79l2.74-1.54a4,4,0,0,0-1.88-3.16l-2.74,1.55A4,4,0,0,1,116.75,104.79Z"/><g class="cls-31"><path class="cls-32" d="M117.61,100.09a3.5,3.5,0,0,1,.91.78,4.73,4.73,0,0,1,.64,1,3.4,3.4,0,0,1,.33,1.38l-2.74,1.54a3.41,3.41,0,0,0-.34-1.38,4.33,4.33,0,0,0-.63-1,3.28,3.28,0,0,0-.91-.77Z"/></g><path class="cls-33" d="M92.84,138a4,4,0,0,0,1.88,3.15l20,11.18c1,.58,1.89.11,1.89-1l0-1.48L92.85,136.53Z"/><polygon class="cls-34" points="92.96 93.44 92.85 136.53 116.63 149.81 116.74 106.72 92.96 93.44"/><path class="cls-35" d="M116.75,104.79a4,4,0,0,0-1.88-3.15l-20-11.18c-1-.58-1.89-.11-1.89,1v1.94l23.78,13.28Z"/></g></g><path class="cls-36" d="M111.63,97.83a.57.57,0,0,1-.33.42,1.87,1.87,0,0,1-1.63,0,.8.8,0,0,1-.24-.2c-.17-.24-.09-.51.24-.71a1.87,1.87,0,0,1,1.63,0A.52.52,0,0,1,111.63,97.83Z"/><path class="cls-37" d="M111.63,97.83a.57.57,0,0,1-.33.42,1.87,1.87,0,0,1-1.63,0,.8.8,0,0,1-.24-.2.57.57,0,0,1,.34-.43,1.91,1.91,0,0,1,1.62,0A.83.83,0,0,1,111.63,97.83Z"/><path class="cls-36" d="M115.74,100.28a.64.64,0,0,1-.25.24,1.61,1.61,0,0,1-1.48,0l-1.58-.9a.65.65,0,0,1-.24-.22c-.13-.21,0-.45.25-.62a1.64,1.64,0,0,1,1.48,0l1.57.91C115.78,99.85,115.87,100.08,115.74,100.28Z"/><path class="cls-37" d="M115.74,100.28a.64.64,0,0,1-.25.24,1.61,1.61,0,0,1-1.48,0l-1.58-.9a.65.65,0,0,1-.24-.22.57.57,0,0,1,.26-.25,1.66,1.66,0,0,1,1.49,0l1.56.91A.65.65,0,0,1,115.74,100.28Z"/><path class="cls-38" d="M102.12,97.36l7.29,4.07c.31.18.57,0,.57-.32h0a1.21,1.21,0,0,0-.57-1l-7.29-4.08c-.32-.17-.58,0-.58.32h0A1.23,1.23,0,0,0,102.12,97.36Z"/><polygon class="cls-39" points="119.49 103.25 116.75 104.79 116.74 106.72 119.48 105.19 119.49 103.25"/><polygon class="cls-40" points="116.74 106.72 116.62 149.94 119.37 148.41 119.48 105.19 116.74 106.72"/><polygon class="cls-41" points="118.15 105.93 116.74 106.72 116.62 149.94 118.15 149.09 118.15 105.93"/><polygon class="cls-42" points="92.96 93.44 92.85 136.53 116.63 149.81 116.74 106.72 92.96 93.44"/><polygon class="cls-21" points="101.14 110.91 99.12 109.78 99.12 109.14 101.14 110.27 101.14 110.91"/><polygon class="cls-21" points="101.14 118.47 99.12 117.34 99.12 116.71 101.14 117.84 101.14 118.47"/><path class="cls-21" d="M99.28,109.7v7.2l1.69.94v-7.2Zm.48,7.12-.26-.14v-6.49l.25.14Zm.49.28L100,117v-6.49l.25.14Zm.5.27-.25-.14v-6.49l.25.14Z"/><polygon class="cls-21" points="104.4 112.73 102.38 111.6 102.38 110.96 104.4 112.09 104.4 112.73"/><polygon class="cls-21" points="104.4 120.29 102.38 119.17 102.38 118.53 104.4 119.66 104.4 120.29"/><path class="cls-21" d="M102.55,111.52v7.2l1.68.94v-7.2Zm.47,7.12-.25-.14V112l.25.14Zm.5.28-.26-.14v-6.49l.25.14Zm.49.27-.25-.14v-6.49l.25.14Z"/><polygon class="cls-21" points="107.67 114.55 105.64 113.42 105.64 112.79 107.67 113.91 107.67 114.55"/><polygon class="cls-21" points="107.66 122.11 105.64 120.99 105.64 120.35 107.66 121.48 107.66 122.11"/><path class="cls-21" d="M105.81,113.34v7.2l1.69.94v-7.2Zm.47,7.12-.25-.14v-6.49l.25.14Zm.5.28-.25-.14v-6.49l.25.14Zm.5.27-.26-.14v-6.49l.25.14Z"/><polygon class="cls-21" points="110.93 116.37 108.91 115.24 108.91 114.61 110.93 115.73 110.93 116.37"/><polygon class="cls-21" points="110.93 123.94 108.91 122.81 108.91 122.17 110.93 123.3 110.93 123.94"/><path class="cls-21" d="M109.07,115.16v7.2l1.69.94v-7.2Zm.48,7.12-.26-.14v-6.49l.25.14Zm.49.28-.25-.14v-6.49l.25.14Zm.5.28-.25-.14v-6.49l.25.14Z"/><path class="cls-21" d="M104.92,106.8l-6.67,1.7,13.33,7.44Zm0,1,4.58,6.29L100.33,109Z"/><path class="cls-21" d="M104.48,109.33c0-.35.19-.36.44-.23v-.21l.21.12v.21a2.37,2.37,0,0,1,.38.29v.31l-.48-.29c-.13-.08-.19-.1-.19,0v.06a.24.24,0,0,0,.16.23l.17.1a.8.8,0,0,1,.4.72v.1c0,.41-.23.39-.45.26v.2l-.2-.11v-.21a1.65,1.65,0,0,1-.39-.29v-.31a5.9,5.9,0,0,0,.51.31c.09.05.17.07.17,0v-.07a.21.21,0,0,0-.14-.21l-.17-.1a.81.81,0,0,1-.42-.73Z"/><polygon class="cls-21" points="111.58 125.05 98.25 117.61 98.25 117.03 111.58 124.47 111.58 125.05"/><polygon class="cls-21" points="112.09 126.08 97.74 118.08 97.74 117.5 112.09 125.5 112.09 126.08"/><polygon class="cls-21" points="112.71 127.17 97.13 118.48 97.13 117.9 112.71 126.59 112.71 127.17"/><path class="cls-21" d="M98.77,121.5c0-.56.25-.79.76-.51a1.52,1.52,0,0,1,.77,1.36v1.92c0,.56-.26.8-.77.51a1.5,1.5,0,0,1-.76-1.36Zm.37,2.15a.79.79,0,0,0,.39.75c.27.15.39,0,.39-.31v-2a.81.81,0,0,0-.4-.76c-.27-.15-.39,0-.39.32Z"/><path class="cls-21" d="M101,125.55l-.33-.19v-3.71l.47.26.77,3.12v-2.69l.33.19v3.71l-.38-.22-.86-3.47Z"/><path class="cls-21" d="M102.58,124.4l.9.51v.37l-.9-.51Z"/><path class="cls-21" d="M103.85,127.15v-3.71l.37.21V127l1,.53v.38Z"/><path class="cls-21" d="M105.82,124.54v3.71l-.37-.21v-3.71Z"/><path class="cls-21" d="M106.53,128.65l-.34-.19v-3.71l.47.26.76,3.11v-2.68l.33.18v3.71l-.38-.21-.85-3.47Z"/><path class="cls-21" d="M109.33,128.14v.37l-.82-.45v1.32l1,.55v.38l-1.37-.76v-3.71l1.37.76V127l-1-.56v1.27Z"/><path class="cls-21" d="M98.94,127.06a1.28,1.28,0,0,1,.72,1.23v.17c0,.39-.1.58-.39.52a1.32,1.32,0,0,1,.45,1v.32c0,.55-.24.73-.76.44l-.77-.42v-3.71Zm-.09,1.53c.29.16.45.14.45-.25v-.22a.7.7,0,0,0-.37-.69l-.37-.2v1.2Zm.11,1.82c.27.15.39.06.39-.29v-.33a.81.81,0,0,0-.46-.81l-.33-.18v1.39Z"/><path class="cls-21" d="M100.43,130.86l-.13.67-.34-.19.64-3.35.53.3.64,4.06-.37-.2-.13-.82Zm0-.33.74.41-.38-2.35Z"/><path class="cls-21" d="M102.39,132.7l-.33-.19V128.8l.47.26.77,3.11v-2.68l.32.18v3.72l-.38-.22-.85-3.47Z"/><path class="cls-21" d="M104.57,132.3l-.2.26v1.24l-.37-.2v-3.71l.37.2v1.8l.89-1.3.37.21-.84,1.22.87,2.5-.38-.21Z"/><path class="cls-21" d="M106.32,131.18v3.71l-.37-.21V131Z"/><path class="cls-21" d="M107,135.28l-.33-.18v-3.71l.47.26.77,3.11v-2.68l.33.18V136l-.39-.21-.85-3.48Z"/><path class="cls-21" d="M110.11,134.19v.32l-.35-.2V134a.8.8,0,0,0-.39-.75c-.27-.15-.39,0-.39.32v2a.8.8,0,0,0,.39.75c.27.15.39,0,.39-.32v-.74l-.35-.19v-.37l.7.39v1.09c0,.56-.24.8-.75.51a1.48,1.48,0,0,1-.75-1.35v-1.92c0-.56.24-.8.75-.51A1.48,1.48,0,0,1,110.11,134.19Z"/><path class="cls-24" d="M104.62,100q-5.94,2.79-11.69,5.87v5c5.42-2.86,10.77-5.67,16.11-8.37Z"/><path class="cls-24" d="M116.72,113.32c-8.1,3.28-16.1,6.81-23.84,10.76l0,9.89c7.85-3.56,15.83-6.88,23.83-10.17Z"/><path class="cls-43" d="M77.44,89.55l-43-24.16c-1.17-.65-2.14-.13-2.14,1.17L32.1,96.44A4.58,4.58,0,0,0,34.22,100l43,24.16c1.18.66,2.13.13,2.14-1.17l.16-29.88A4.51,4.51,0,0,0,77.44,89.55Z"/><rect class="cls-44" x="36.82" y="102.16" width="1.24" height="1.64"/><path class="cls-45" d="M33.77,64.76l.61-.34a1.57,1.57,0,0,1,1.52.14l43,24.17A4.48,4.48,0,0,1,81,92.28l-.15,29.88a1.43,1.43,0,0,1-.62,1.32c-.51.28-1,.56-1.52.85a1.42,1.42,0,0,0,.62-1.32l.16-29.87a4.51,4.51,0,0,0-2.12-3.57l-43-24.16a1.58,1.58,0,0,0-1.52-.15Z"/><path class="cls-46" d="M71.28,130.49a1.65,1.65,0,0,1-.72,1.33c-.39.22-.72,0-.72-.53a1.65,1.65,0,0,1,.72-1.32C71,129.75,71.28,130,71.28,130.49Z"/><path class="cls-47" d="M69.93,131.44a1.65,1.65,0,0,0,.71-1.33.91.91,0,0,0,0-.17c.36-.16.65.07.65.55a1.65,1.65,0,0,1-.72,1.33.44.44,0,0,1-.7-.35Z"/><path class="cls-23" d="M70.36,131.71a1.63,1.63,0,0,0,.72-1.32.67.67,0,0,0-.16-.49c.21,0,.36.25.36.59a1.65,1.65,0,0,1-.72,1.33.43.43,0,0,1-.55,0A.53.53,0,0,0,70.36,131.71Z"/><path class="cls-46" d="M68.74,131.92a1.65,1.65,0,0,1-.71,1.32c-.4.22-.72,0-.72-.52a1.65,1.65,0,0,1,.72-1.33C68.42,131.17,68.74,131.41,68.74,131.92Z"/><path class="cls-47" d="M67.39,132.86a1.63,1.63,0,0,0,.72-1.32,1.1,1.1,0,0,0,0-.18c.37-.15.65.08.65.56a1.65,1.65,0,0,1-.71,1.32.44.44,0,0,1-.71-.35S67.37,132.88,67.39,132.86Z"/><path class="cls-23" d="M67.83,133.14a1.68,1.68,0,0,0,.71-1.33.69.69,0,0,0-.16-.49c.22,0,.36.25.36.6a1.65,1.65,0,0,1-.71,1.32.44.44,0,0,1-.56,0A.54.54,0,0,0,67.83,133.14Z"/><path class="cls-48" d="M33.3,128.46a2.09,2.09,0,0,1-.84.79l-2.68,1.54a4.51,4.51,0,0,1-3.93.16l-7-3.87a1.5,1.5,0,0,1-.56-.52c-.31-.54,0-1.2.84-1.68l2.68-1.55a4.54,4.54,0,0,1,3.93-.15l7,3.87C33.39,127.41,33.57,128,33.3,128.46Z"/><path class="cls-23" d="M33.3,128.46a2.09,2.09,0,0,1-.84.79l-2.68,1.54a4.51,4.51,0,0,1-3.93.16l-7-3.87a1.5,1.5,0,0,1-.56-.52,2.09,2.09,0,0,1,.84-.79l2.68-1.54a4.51,4.51,0,0,1,3.93-.16l7,3.87A1.42,1.42,0,0,1,33.3,128.46Z"/><path class="cls-49" d="M56,79.93a1.78,1.78,0,0,0,.78,1.44c.43.24.78,0,.78-.57a1.8,1.8,0,0,0-.78-1.44C56.36,79.12,56,79.38,56,79.93Z"/><polygon class="cls-50" points="34.39 97.48 76.64 121.48 76.64 93.67 34.39 69.66 34.39 97.48"/><polygon class="cls-21" points="51.73 87.6 49.69 86.46 49.69 85.82 51.73 86.96 51.73 87.6"/><polygon class="cls-21" points="51.73 95.25 49.69 94.11 49.69 93.46 51.73 94.6 51.73 95.25"/><path class="cls-21" d="M49.86,86.38v7.27l1.7.95V87.33Zm.48,7.19-.26-.14V86.88l.26.14Zm.5.28-.25-.14V87.16l.25.14Zm.5.28L51.09,94V87.44l.25.14Z"/><polygon class="cls-21" points="55.03 89.44 52.99 88.3 52.99 87.66 55.03 88.8 55.03 89.44"/><polygon class="cls-21" points="55.03 97.08 52.99 95.95 52.99 95.3 55.03 96.44 55.03 97.08"/><path class="cls-21" d="M53.16,88.22v7.27l1.7,1V89.17Zm.47,7.19-.25-.14V88.72l.25.14Zm.51.28-.26-.14V89l.26.14Zm.5.28-.26-.14V89.28l.26.14Z"/><polygon class="cls-21" points="58.33 91.28 56.28 90.14 56.28 89.5 58.33 90.64 58.33 91.28"/><polygon class="cls-21" points="58.33 98.92 56.28 97.79 56.28 97.14 58.33 98.28 58.33 98.92"/><path class="cls-21" d="M56.45,90.06v7.27l1.71,1V91Zm.48,7.19-.25-.14V90.56l.25.14Zm.5.28-.25-.14V90.84l.25.14Zm.5.28-.25-.14V91.12l.25.14Z"/><polygon class="cls-21" points="61.62 93.12 59.58 91.98 59.58 91.34 61.62 92.48 61.62 93.12"/><polygon class="cls-21" points="61.62 100.76 59.58 99.63 59.58 98.98 61.62 100.12 61.62 100.76"/><path class="cls-21" d="M59.75,91.9v7.27l1.7,1V92.85Zm.48,7.19L60,99V92.4l.26.14Zm.5.28-.26-.14V92.68l.25.14Zm.5.28L61,99.51V93l.25.14Z"/><path class="cls-21" d="M55.55,83.45l-6.73,1.72,13.47,7.52Zm0,1,4.63,6.35-9.26-5.17Z"/><path class="cls-21" d="M55.11,86c0-.35.2-.36.44-.23v-.21l.21.11v.22a2.08,2.08,0,0,1,.39.29v.31l-.49-.29c-.12-.07-.19-.1-.19,0v.06c0,.11,0,.17.16.24l.18.1a.8.8,0,0,1,.4.72v.1c0,.42-.23.39-.45.27v.2l-.21-.11v-.21a2,2,0,0,1-.39-.29V87c.09.06.31.2.51.31s.17.07.17,0v-.07a.22.22,0,0,0-.13-.22l-.17-.1a.82.82,0,0,1-.43-.74Z"/><polygon class="cls-21" points="62.28 101.89 48.82 94.38 48.82 93.79 62.28 101.31 62.28 101.89"/><polygon class="cls-21" points="62.8 102.93 48.3 94.84 48.3 94.26 62.8 102.35 62.8 102.93"/><polygon class="cls-21" points="63.42 104.03 47.69 95.25 47.69 94.67 63.42 103.44 63.42 104.03"/><path class="cls-21" d="M42,95.17c0-.57.25-.8.76-.51A1.51,1.51,0,0,1,43.54,96V98c0,.57-.26.8-.78.51A1.5,1.5,0,0,1,42,97.11Zm.37,2.17a.82.82,0,0,0,.39.76c.28.15.4,0,.4-.32v-2a.8.8,0,0,0-.4-.76c-.26-.15-.39,0-.39.32Z"/><path class="cls-21" d="M44.22,99.26l-.33-.19V95.32l.47.27.78,3.14V96l.33.19V100l-.39-.21-.86-3.51Z"/><path class="cls-21" d="M45.84,98.1l.92.51V99l-.92-.52Z"/><path class="cls-21" d="M47.13,100.88V97.13l.37.21v3.37l1,.53v.38Z"/><path class="cls-21" d="M49.12,98.24V102l-.38-.21V98Z"/><path class="cls-21" d="M49.83,102.39l-.33-.19V98.45l.47.27.78,3.14V99.15l.33.19v3.74l-.39-.21-.86-3.51Z"/><path class="cls-21" d="M52.66,101.88v.37l-.82-.46v1.34l1,.56v.38l-1.38-.77V99.55l1.38.77v.38l-1-.56v1.28Z"/><path class="cls-21" d="M54.69,101.35a1.29,1.29,0,0,1,.73,1.24v.17c0,.4-.1.59-.4.53a1.29,1.29,0,0,1,.45,1v.32c0,.56-.24.74-.76.45l-.78-.43v-3.75Zm-.09,1.54c.29.16.45.14.45-.25v-.22a.71.71,0,0,0-.37-.7l-.37-.2v1.21Zm.11,1.84c.27.15.39.06.39-.29v-.33a.81.81,0,0,0-.47-.82l-.32-.18v1.4Z"/><path class="cls-21" d="M56.19,105.18l-.13.69-.34-.2.64-3.39.54.31.65,4.1-.38-.21-.13-.82Zm.05-.33.75.42-.38-2.38Z"/><path class="cls-21" d="M58.17,107l-.34-.19v-3.74l.48.26.78,3.14V103.8l.33.19v3.75l-.39-.22L58.17,104Z"/><path class="cls-21" d="M60.37,106.64l-.19.26v1.26L59.8,108V104.2l.38.21v1.81l.89-1.31.38.21-.85,1.24.88,2.52-.39-.21Z"/><path class="cls-21" d="M62.14,105.51v3.74l-.38-.2V105.3Z"/><path class="cls-21" d="M62.85,109.65l-.33-.18v-3.75L63,106l.78,3.15v-2.71l.33.18v3.75l-.39-.22-.86-3.51Z"/><path class="cls-21" d="M66,108.55v.32l-.36-.2v-.34a.8.8,0,0,0-.39-.76c-.27-.15-.4,0-.4.32v2a.81.81,0,0,0,.4.76c.27.15.39,0,.39-.32v-.75l-.34-.19V109l.7.39v1.11c0,.56-.24.8-.76.51a1.46,1.46,0,0,1-.75-1.36V107.7c0-.56.23-.8.75-.52A1.5,1.5,0,0,1,66,108.55Z"/><polygon class="cls-51" points="35.12 70.07 35.12 97.1 76.64 120.7 76.64 121.48 34.39 97.48 34.39 69.66 35.12 70.07"/><polygon class="cls-23" points="76.64 121.48 34.39 97.48 35.12 97.1 76.64 120.7 76.64 121.48"/><polygon class="cls-23" points="72.18 131.05 74.92 129.55 74.92 127.68 72.18 129.18 72.18 131.05"/><polygon class="cls-47" points="74.36 129.24 72.3 130.37 72.3 130.87 74.81 129.49 74.81 129.49 74.36 129.24"/><polygon class="cls-46" points="72.3 129.25 72.3 130.37 74.36 129.24 74.36 128.12 74.25 128.18 72.3 129.25"/><polygon class="cls-52" points="72.3 129.41 72.3 130.21 74.25 129.14 74.25 128.35 72.3 129.41"/><polygon class="cls-53" points="74.81 128.99 74.81 127.87 74.36 128.12 74.36 129.24 74.81 129.49 74.81 128.99"/><path class="cls-54" d="M56,82c-7.33,3-14.57,6.27-21.62,10v5.53l2,1.15c9.2-4.11,18.58-8,27.92-11.95Z"/><path class="cls-54" d="M46.44,76.51c-4.09,2-8.12,4-12,6.28V84.7a157,157,0,0,1,14.11-7Z"/><polygon class="cls-23" points="50.77 142.94 51.79 142.37 51.79 140.52 50.77 141.08 50.77 142.94"/><polygon class="cls-55" points="51.23 142.06 50.88 142.26 50.88 142.75 51.68 142.31 51.68 142.31 51.23 142.06"/><polygon class="cls-52" points="50.88 141.14 50.88 142.26 51.23 142.06 51.23 140.95 51.12 141.01 50.88 141.14"/><polygon class="cls-56" points="50.88 141.31 50.88 142.1 51.12 141.97 51.12 141.18 50.88 141.31"/><polygon class="cls-56" points="51.68 141.82 51.68 140.71 51.23 140.95 51.23 142.06 51.68 142.31 51.68 141.82"/><polygon class="cls-23" points="52.3 142.16 53.32 141.6 53.32 139.74 52.3 140.31 52.3 142.16"/><polygon class="cls-55" points="52.76 141.29 52.41 141.48 52.41 141.97 53.2 141.53 53.2 141.53 52.76 141.29"/><polygon class="cls-52" points="52.41 140.37 52.41 141.48 52.76 141.29 52.76 140.18 52.65 140.24 52.41 140.37"/><polygon class="cls-56" points="52.41 140.54 52.41 141.32 52.65 141.19 52.65 140.4 52.41 140.54"/><polygon class="cls-56" points="53.2 141.04 53.2 139.93 52.76 140.18 52.76 141.29 53.2 141.53 53.2 141.04"/><g class="cls-57"><path class="cls-6" d="M74.59,156.84l3.7-2.08a1.79,1.79,0,0,0,.78-1.64l-3.7,2.08A1.79,1.79,0,0,1,74.59,156.84Z"/><g class="cls-58"><g class="cls-14"><path class="cls-6" d="M74.59,156.84l3.7-2.08a1.79,1.79,0,0,0,.78-1.64l-3.7,2.08a1.79,1.79,0,0,1-.78,1.64Z"/></g></g></g><g class="cls-59"><path class="cls-7" d="M62.9,129l-3.7,2.07a1.92,1.92,0,0,1,1.88.18l3.7-2.08A1.89,1.89,0,0,0,62.9,129Z"/><g class="cls-60"><g class="cls-14"><path class="cls-61" d="M61.08,131.29l3.7-2.08a3,3,0,0,0-.8-.31L60.28,131a2.68,2.68,0,0,1,.8.31Z"/><path class="cls-62" d="M60.28,131,64,128.9a1.56,1.56,0,0,0-1,.11l-3.7,2.08a1.57,1.57,0,0,1,1-.11Z"/><path class="cls-63" d="M59.24,131.09l3.7-2.08,0,0-3.7,2.07,0,0Z"/></g></g></g><g class="cls-57"><polygon class="cls-64" points="75.37 155.2 79.06 153.12 79.1 140.15 75.4 142.23 75.37 155.2"/></g><g class="cls-59"><polygon class="cls-65" points="72.76 137.81 76.46 135.73 64.78 129.21 61.08 131.29 72.76 137.81"/></g><g class="cls-57"><path class="cls-8" d="M75.4,142.23l3.7-2.08a5.58,5.58,0,0,0-2.64-4.42l-3.7,2.07A5.61,5.61,0,0,1,75.4,142.23Z"/><g class="cls-66"><path class="cls-67" d="M75.4,142.23l3.7-2.08a4.62,4.62,0,0,0-.46-1.93l-3.7,2.07a4.66,4.66,0,0,1,.46,1.94Z"/><path class="cls-68" d="M74.94,140.29l3.7-2.07a6.26,6.26,0,0,0-.9-1.41L74,138.89a6.08,6.08,0,0,1,.9,1.4Z"/><path class="cls-69" d="M74,138.89l3.7-2.08a4.78,4.78,0,0,0-1.28-1.08l-3.7,2.07A4.68,4.68,0,0,1,74,138.89Z"/></g></g><path class="cls-23" d="M61.08,131.29c-1.46-.82-2.65-.16-2.66,1.46l0,13A5.62,5.62,0,0,0,61,150.14l11.68,6.52c1.45.81,2.65.16,2.66-1.46l0-13a5.61,5.61,0,0,0-2.64-4.43Z"/><path class="cls-70" d="M59.17,145.72a4.88,4.88,0,0,0,2.25,3.77L73.1,156a1.71,1.71,0,0,0,.79.25.58.58,0,0,0,.54-.33,1.6,1.6,0,0,0,.15-.73l0-13a4.88,4.88,0,0,0-2.25-3.76L60.69,132a2,2,0,0,0-.55-.22l-.24,0c-.6,0-.69.66-.69,1.05Z"/><path class="cls-71" d="M60,145.42a4.84,4.84,0,0,0,2.25,3.76l11.68,6.52a2.36,2.36,0,0,0,.54.22,1.6,1.6,0,0,0,.15-.73l0-13a4.88,4.88,0,0,0-2.25-3.76L60.69,132a2,2,0,0,0-.55-.22,1.57,1.57,0,0,0-.14.72Z"/><polygon class="cls-21" points="64.35 140.86 62.81 140 62.81 139.52 64.35 140.38 64.35 140.86"/><polygon class="cls-21" points="64.35 146.6 62.81 145.75 62.81 145.26 64.35 146.12 64.35 146.6"/><path class="cls-21" d="M62.94,139.94v5.47l1.28.71v-5.46Zm.36,5.41-.19-.11v-4.93l.19.11Zm.38.21-.2-.11v-4.93l.2.11Zm.37.21-.19-.11v-4.93l.19.11Z"/><polygon class="cls-21" points="66.83 142.24 65.29 141.39 65.29 140.9 66.83 141.76 66.83 142.24"/><polygon class="cls-21" points="66.82 147.99 65.29 147.13 65.29 146.65 66.82 147.5 66.82 147.99"/><path class="cls-21" d="M65.42,141.33v5.46l1.28.71V142Zm.36,5.4-.2-.11V141.7l.19.1Zm.37.21-.19-.11v-4.92l.19.1Zm.38.21-.19-.11v-4.92l.19.1Z"/><polygon class="cls-21" points="69.3 143.63 67.77 142.77 67.77 142.29 69.3 143.14 69.3 143.63"/><polygon class="cls-21" points="69.3 149.37 67.77 148.51 67.77 148.03 69.3 148.88 69.3 149.37"/><path class="cls-21" d="M67.9,142.71v5.46l1.28.72v-5.47Zm.35,5.4-.19-.1v-4.93l.19.11Zm.38.21-.19-.1v-4.93l.19.11Zm.38.21-.19-.1V143.5l.19.11Z"/><polygon class="cls-21" points="71.78 145.01 70.25 144.15 70.25 143.67 71.78 144.52 71.78 145.01"/><polygon class="cls-21" points="71.78 150.75 70.25 149.9 70.25 149.41 71.78 150.27 71.78 150.75"/><path class="cls-21" d="M70.37,144.09v5.46l1.28.72V144.8Zm.36,5.4-.19-.1v-4.93l.19.11Zm.38.21-.19-.1v-4.93l.19.11Zm.37.22-.19-.11v-4.93l.2.11Z"/><path class="cls-21" d="M67.22,137.74,62.16,139l10.12,5.65Zm0,.75,3.48,4.77-7-3.88Z"/><path class="cls-21" d="M66.88,139.66c0-.26.15-.27.34-.17v-.16l.15.09v.16a1.38,1.38,0,0,1,.29.22V140l-.36-.22c-.1-.05-.14-.07-.14,0v0a.19.19,0,0,0,.12.18l.13.07a.6.6,0,0,1,.3.54v.08c0,.32-.17.3-.34.2v.16l-.15-.09v-.16a1.37,1.37,0,0,1-.3-.22v-.23l.39.23c.07,0,.13,0,.13,0v-.05a.17.17,0,0,0-.11-.17l-.12-.07a.62.62,0,0,1-.33-.55Z"/><polygon class="cls-21" points="72.28 151.6 62.16 145.95 62.16 145.51 72.28 151.16 72.28 151.6"/><polygon class="cls-21" points="72.66 152.38 61.77 146.3 61.77 145.86 72.66 151.94 72.66 152.38"/><polygon class="cls-21" points="73.13 153.21 61.3 146.61 61.3 146.17 73.13 152.77 73.13 153.21"/><path class="cls-23" d="M63.8,135.1s0-.06,0-.06l.61-.12a0,0,0,0,1,0,.05v.92s0,0,0,0Z"/><path class="cls-23" d="M63.68,135.06s.06,0,.09.05l.6.78s0,.05,0,0l-1.28-.71s0,0,0,0Z"/><path class="cls-23" d="M63.64,135s0,.06,0,.06l-.6.12a0,0,0,0,1,0,0v-.92s0,0,0,0Z"/><path class="cls-23" d="M63.6,134h0a.28.28,0,0,1,.22.12l0,0Z"/><path class="cls-23" d="M64.21,134.6l.09.12h0l0,.06,0,0s0,.06,0,.07l-.16,0Z"/><path class="cls-23" d="M63.08,134.09h.16v.3l-.16-.21S63.05,134.09,63.08,134.09Z"/><path class="cls-23" d="M63.28,134v.44l.4.52a.12.12,0,0,0,.09.05l.39-.08v-.44a.21.21,0,0,0-.1-.17l-.14-.08-.39-.22-.14-.08C63.33,133.89,63.28,133.92,63.28,134Zm.09.39.71.39v.07l-.71-.39Zm0-.15.71.39v.07l-.71-.4Zm0-.15.71.39v.07l-.71-.4Z"/><path class="cls-72" d="M61.74,134.13a.1.1,0,0,0-.17.09.34.34,0,0,0,.17.28c.09.05.17,0,.17-.09A.35.35,0,0,0,61.74,134.13Z"/><path class="cls-72" d="M61.74,133.75a.51.51,0,0,0-.22-.07.24.24,0,0,0-.17,0c-.05,0-.05.11,0,.19a.3.3,0,0,0,.08.08.08.08,0,0,0,.08,0,.12.12,0,0,1,.1,0,.24.24,0,0,1,.13,0,.53.53,0,0,1,.12.1.45.45,0,0,1,.1.13.15.15,0,0,0,.08.08.08.08,0,0,0,.08,0c.05,0,.05-.11,0-.18a1,1,0,0,0-.18-.23A1,1,0,0,0,61.74,133.75Z"/><path class="cls-72" d="M61.74,133.33a1,1,0,0,0-.36-.12.51.51,0,0,0-.3.06s0,.11,0,.19l.09.08a.08.08,0,0,0,.08,0,.4.4,0,0,1,.22-.05.85.85,0,0,1,.27.09,1.71,1.71,0,0,1,.26.21,1.48,1.48,0,0,1,.22.29l.09.09s.06,0,.08,0,0-.1,0-.18a1.82,1.82,0,0,0-.29-.38A1.58,1.58,0,0,0,61.74,133.33Z"/><path class="cls-72" d="M61.74,132.92a1.41,1.41,0,0,0-.5-.17.79.79,0,0,0-.41.08s0,.11,0,.19a.32.32,0,0,0,.09.08.08.08,0,0,0,.08,0,.6.6,0,0,1,.33-.07,1.25,1.25,0,0,1,.41.14,1.71,1.71,0,0,1,.4.32,2,2,0,0,1,.33.43l.09.09a.12.12,0,0,0,.08,0s0-.11,0-.19a3,3,0,0,0-.4-.53A2.51,2.51,0,0,0,61.74,132.92Z"/><g class="cls-73"><ellipse class="cls-74" cx="54.38" cy="27.7" rx="22.38" ry="21.63"/><ellipse class="cls-75" cx="54.38" cy="27.7" rx="19.74" ry="19.08"/><ellipse class="cls-76" cx="54.38" cy="27.7" rx="17.11" ry="16.53"/><ellipse class="cls-77" cx="54.38" cy="27.7" rx="14.47" ry="13.98"/><ellipse class="cls-78" cx="54.38" cy="27.7" rx="11.83" ry="11.43"/><path class="cls-79" d="M63.57,27.7a9.2,9.2,0,0,0-18.39,0,9.2,9.2,0,0,0,18.39,0Z"/><path class="cls-80" d="M60.93,27.7A6.56,6.56,0,1,0,54.38,34,6.45,6.45,0,0,0,60.93,27.7Z"/><path class="cls-81" d="M58.3,27.7a3.92,3.92,0,1,0-3.92,3.78A3.86,3.86,0,0,0,58.3,27.7Z"/></g><g class="cls-73"><ellipse class="cls-82" cx="156.65" cy="96.07" rx="22.38" ry="21.63"/><path class="cls-83" d="M176.4,96.07c0-10.54-8.84-19.08-19.75-19.08s-19.74,8.54-19.74,19.08,8.84,19.08,19.74,19.08S176.4,106.61,176.4,96.07Z"/><path class="cls-84" d="M173.76,96.07c0-9.13-7.66-16.53-17.11-16.53s-17.11,7.4-17.11,16.53,7.66,16.53,17.11,16.53S173.76,105.2,173.76,96.07Z"/><path class="cls-85" d="M171.12,96.07a14.48,14.48,0,1,0-14.47,14A14.23,14.23,0,0,0,171.12,96.07Z"/><path class="cls-86" d="M168.48,96.07a11.84,11.84,0,1,0-11.83,11.43A11.63,11.63,0,0,0,168.48,96.07Z"/><path class="cls-87" d="M165.84,96.07a9.2,9.2,0,1,0-9.19,8.89A9,9,0,0,0,165.84,96.07Z"/><path class="cls-88" d="M163.21,96.07a6.56,6.56,0,1,0-6.56,6.34A6.45,6.45,0,0,0,163.21,96.07Z"/><path class="cls-89" d="M160.57,96.07a3.92,3.92,0,1,0-3.92,3.79A3.86,3.86,0,0,0,160.57,96.07Z"/></g><g class="cls-73"><ellipse class="cls-90" cx="36.18" cy="71.62" rx="19.27" ry="18.62"/><ellipse class="cls-91" cx="36.18" cy="71.62" rx="17.06" ry="16.49"/><ellipse class="cls-92" cx="36.18" cy="71.62" rx="14.85" ry="14.35"/><ellipse class="cls-93" cx="36.18" cy="71.62" rx="12.65" ry="12.22"/><path class="cls-94" d="M46.62,71.62A10.45,10.45,0,1,0,36.18,81.71,10.27,10.27,0,0,0,46.62,71.62Z"/><path class="cls-95" d="M44.41,71.62a8.24,8.24,0,1,0-8.23,8A8.09,8.09,0,0,0,44.41,71.62Z"/><path class="cls-96" d="M42.21,71.62a6,6,0,1,0-6,5.83A5.93,5.93,0,0,0,42.21,71.62Z"/><path class="cls-97" d="M40,71.62a3.83,3.83,0,1,0-3.82,3.69A3.76,3.76,0,0,0,40,71.62Z"/></g><path class="cls-98" d="M115.33,60.06a6.08,6.08,0,0,1,4.25-.52,11.29,11.29,0,0,1,3.18,1.22,17.48,17.48,0,0,1,3,2.2l-4.7,2.64a17,17,0,0,0-3-2.2,11.18,11.18,0,0,0-3.18-1.22,6.08,6.08,0,0,0-4.25.52Z"/><g class="cls-99"><path class="cls-100" d="M115.33,60.06a6.08,6.08,0,0,1,4.25-.52,11.29,11.29,0,0,1,3.18,1.22,17.48,17.48,0,0,1,3,2.2l-4.7,2.64a17,17,0,0,0-3-2.2,11.18,11.18,0,0,0-3.18-1.22,6.08,6.08,0,0,0-4.25.52Z"/></g><path class="cls-98" d="M129.18,57.43a7,7,0,0,1,4.91-.61,12.8,12.8,0,0,1,3.67,1.42,21.77,21.77,0,0,1,5.86,4.95,26.17,26.17,0,0,1,6,13.09,11.15,11.15,0,0,1,3.05,1.19,19.1,19.1,0,0,1,5,4.28c3.2,3.76,5.36,8.77,5.35,13.14,0,3.17-1.17,5.41-3,6.46l-4.7,2.64c1.87-1,3-3.29,3-6.46,0-4.37-2.15-9.38-5.35-13.15A19.08,19.08,0,0,0,148,80.11a11.15,11.15,0,0,0-3-1.19,26.09,26.09,0,0,0-6-13.09,21.71,21.71,0,0,0-5.85-4.95,12.86,12.86,0,0,0-3.68-1.42,7,7,0,0,0-4.91.6Z"/><g class="cls-101"><path class="cls-102" d="M129.18,57.43a7,7,0,0,1,4.91-.61,12.8,12.8,0,0,1,3.67,1.42,21.77,21.77,0,0,1,5.86,4.95,26.17,26.17,0,0,1,6,13.09,11.15,11.15,0,0,1,3.05,1.19,19.1,19.1,0,0,1,5,4.28c3.2,3.76,5.36,8.77,5.35,13.14,0,3.17-1.17,5.41-3,6.46l-4.7,2.64c1.87-1,3-3.29,3-6.46,0-4.37-2.15-9.38-5.35-13.15A19.08,19.08,0,0,0,148,80.11a11.15,11.15,0,0,0-3-1.19,26.09,26.09,0,0,0-6-13.09,21.71,21.71,0,0,0-5.85-4.95,12.86,12.86,0,0,0-3.68-1.42,7,7,0,0,0-4.91.6Z"/></g><path class="cls-103" d="M133.07,60.88c-6-3.38-11.07-1.23-12,4.72a17,17,0,0,0-3-2.2c-5.76-3.21-10.45-.63-10.47,5.77s4.64,14.19,10.4,17.41l30,16.71c5.76,3.21,10.45.63,10.47-5.76s-4.64-14.2-10.4-17.42a11.15,11.15,0,0,0-3-1.19C144.11,72,139.12,64.25,133.07,60.88Z"/><g class="cls-104"><path class="cls-105" d="M138.72,82.25l-.95-.54.15-1.58-13.35-8.56-.09.9-1.17-.67a1.7,1.7,0,0,0-.42-.16V71.3c0-.55.39-.77.88-.5l6.81,3.77.37-.87a.79.79,0,0,1,1.15-.24l6.18,3.38a1.88,1.88,0,0,1,.89,1.48L139,82.46Z"/><path class="cls-106" d="M122.37,72.46l.41,11.13a1.78,1.78,0,0,0,.9,1.35l14.67,8.19c.5.27.9.12.9-.35l.41-8.82a1.86,1.86,0,0,0-.94-1.41l-7.23-4.06-.4-1.19a3,3,0,0,0-1.22-1.48l-6.56-3.72C122.79,71.81,122.37,72,122.37,72.46Z"/><path class="cls-107" d="M131.66,78.29l-.32-1a3.63,3.63,0,0,0-1.47-1.78l-5.12-2.91.06-.6,12.82,8.22-.13,1.32Z"/></g><path class="cls-108" d="M152,70.3a2,2,0,0,1-2.07,1.82h0a1.93,1.93,0,0,1-1.87-2l.54-8.32A1.94,1.94,0,0,1,150.68,60h0a1.93,1.93,0,0,1,1.87,2Z"/><path class="cls-108" d="M147.06,74.61l3.16-2.09a16.23,16.23,0,0,0-.71-4.29,1.71,1.71,0,0,0-.47.34l-4,4.66C145.19,74,146.52,74.61,147.06,74.61Z"/><path class="cls-109" d="M152.48,62.2c-.09-1,0-2-.08-3a6.72,6.72,0,0,0-.71-2.92,9.37,9.37,0,0,1-1.36-2.36,4.66,4.66,0,0,1,0-1.18c0-.25-.11-.35-.37-.32-.62.08-.92,1-1,1.5a2.61,2.61,0,0,0,0,1.18,5.61,5.61,0,0,0,.26.79,3.11,3.11,0,0,1,.57,1.22,9.07,9.07,0,0,1-.23,2.43c-.14,1.78,1.33,3,2.07,4.45a.09.09,0,0,1,0,.13,5.34,5.34,0,0,1,.37,1.06,4,4,0,0,1-.24,2,8.2,8.2,0,0,1-.41,1,3.64,3.64,0,0,0,1.33-1.81C153,65,152.62,63.6,152.48,62.2Z"/><path class="cls-110" d="M144.85,95.53c-.12-.91-.28-1.85-.47-2.8l2.87-.3c-.13.62-.25,1.23-.35,1.8,0,1.42,1.13,1.72.55,3.24a1.56,1.56,0,0,1-.64.64,1.65,1.65,0,0,0-.95,1.1,2.13,2.13,0,0,1-.43.76c-.78.8-2.75.88-3.22.27-.68-.84,1.89-2.92,2.59-4.6A1.17,1.17,0,0,0,144.85,95.53Z"/><path class="cls-110" d="M138.71,90.48a6.72,6.72,0,0,1-.88-.45c-.15.35-.31.7-.47,1l-.11.07c-1.59,1.15-5.1,1.65-5,2.77.08.8,1.9,1.78,3.07,1.48a2.67,2.67,0,0,0,.81-.45,1.84,1.84,0,0,1,1.49-.49,1.7,1.7,0,0,0,.94-.24c1.37-1,.6-1.9,1.32-3.14Z"/><path class="cls-111" d="M143.37,84.68a11.72,11.72,0,0,1,1-5.24A17.16,17.16,0,0,1,147.75,75c.05,0,6.2,1.6,5.94,2.27-.14.38-5.71,6.64-5.81,6.92a1.74,1.74,0,0,0,0,1.29c.6,2,.24,8.08-.06,10a7.45,7.45,0,0,1-3.75.16c0-.13-.6-9.49-.66-10.9Z"/><path class="cls-112" d="M143.37,84.78v-.1C143.42,85.86,143.39,85.07,143.37,84.78Z"/><path class="cls-113" d="M143.37,84.78v0Z"/><path class="cls-114" d="M152.84,82.61c-4,0-7.48-.32-7.48-.32-1,4.4-4.9,9.32-5.62,9.94a7.26,7.26,0,0,1-2.6-1.6c1.07-2,4.09-11.13,5.83-12.46,1.09-.83,11.42-1.34,11.38-1.82a10.29,10.29,0,0,1,2.53-.64C158.86,75.55,159.86,82.58,152.84,82.61Z"/><path class="cls-115" d="M156.16,61.35a1.56,1.56,0,0,1-.5,1.11,1.66,1.66,0,0,1-1.16.44l-4,1.77c-.48,0-.44-2-.73-2.36a.69.69,0,0,0,.19-.45,2.21,2.21,0,0,1,.34-1,9.83,9.83,0,0,1,.7-1l.49-.17h2.58l.1.06h0C155.82,60.7,155,60,156.16,61.35Z"/><path class="cls-116" d="M154.23,59l0,.53v.23l0,.77a1.6,1.6,0,0,1-.29.34h0l-.14.11a1.39,1.39,0,0,1-.5.26,3.53,3.53,0,0,1-.65.11h-.27a.9.9,0,0,1-.68-.33.25.25,0,0,1,0-.07,1.05,1.05,0,0,1-.13-.35l.06-.9,0-.37,0-.61.24,0Z"/><path class="cls-117" d="M148.91,69.57a21.46,21.46,0,0,1-1.18,6.17c.22.11.44.25.64.36a3.85,3.85,0,0,0,1.76.47,2.64,2.64,0,0,1,1.4.3c.24.18.3.5.52.7a2.27,2.27,0,0,0,1.07.42c1.92.32,4,.82,5-.83.6-1-.27-1.92-.52-3a17.24,17.24,0,0,1-.3-4.86,25.59,25.59,0,0,1,.61-4.08c.11-.62,1.37-1.55,1.24-2.2-.25-1.28-3.33-2.32-4.44-2.82-.18,1.55-.94,3.62-2.83,3.74-2.93.19-1.44-2.87-.51-4.13-1.65,0-2.23,1.37-2.83,3a21.4,21.4,0,0,0-1,2.09C147.19,66.86,148.84,67.32,148.91,69.57Z"/><path class="cls-118" d="M159.18,72.13A2,2,0,0,1,157.11,74h0a1.77,1.77,0,0,1-1.67-2l.34-8.33a2,2,0,0,1,2.07-1.83h0a1.94,1.94,0,0,1,1.87,2Z"/><path class="cls-108" d="M154.44,58.08l.08,1.28-.23.89a1.84,1.84,0,0,1-.29.3h0l-.14.1a1.53,1.53,0,0,1-.5.23,2.77,2.77,0,0,1-.9.1.8.8,0,0,1-.27,0,.69.69,0,0,1-.44-.32,1.07,1.07,0,0,1-.13-.31l.08-1.12,0-.54Z"/><path class="cls-109" d="M158.68,60c-.13-.52-.33-1-.42-1.57a17.74,17.74,0,0,1-.06-1.79,8.44,8.44,0,0,0-.48-2.27,5.42,5.42,0,0,0-.68-1.89v.08l0,0a1.39,1.39,0,0,0-.28-.46c-.07-.08-.4-.32-.42-.42l.1.64a1.46,1.46,0,0,0-1.4.41,4.4,4.4,0,0,0-1.56,3.73,1.55,1.55,0,0,0,.55,1.17c.26.17.62.25.72.53s-.13.54-.31.77a2.41,2.41,0,0,0-.53,1,1.31,1.31,0,0,0,.2,1.07,3.51,3.51,0,0,0,.77.61c.09.07.19.16.19.27a.35.35,0,0,1-.1.21c-.39.47-1.38.92-1.28,1.68a1.74,1.74,0,0,0,.44.74,2.16,2.16,0,0,1,.23,1.14,1.43,1.43,0,0,1-.43.67,2.9,2.9,0,0,0-.36,1.59c.12.9.87,1.21,1.55,1.68a2.74,2.74,0,0,1,.92,1.19c.24-.55.62-.89.62-1.37s-.53-.94-.76-1.43a1.63,1.63,0,0,1,.41-1.87c.24-.23.11-.62.53-.93s.73-.16,1-.48A5.74,5.74,0,0,0,158.68,60Z"/><path class="cls-109" d="M149.76,52.77c.26-2.38,3.37-3,5.42-2a3.49,3.49,0,0,1,1.21,5.69l-.11.11a2.86,2.86,0,0,0-1.33,0,5,5,0,0,0-2,.81,2.89,2.89,0,0,0-.85.75A6.49,6.49,0,0,1,149.76,52.77Z"/><path class="cls-119" d="M150,54c-.16,2.15-.13,4.35,1.07,5.26a1.91,1.91,0,0,0,1.47.24c.11,0,.22,0,.33-.06a6.13,6.13,0,0,0,1.57-.65c.53-.32,1.16-2.25,1.32-2.92.5-2.09-1.13-2.27-2.5-3.28S150.13,51.87,150,54Z"/><path class="cls-109" d="M152.27,54.07c-.78-.09-1.84-.11-2.37-.78a2.13,2.13,0,0,1-.26-.44c.22-.89.59-1,1.79-1.75.82-.54,1.51-1,2.28-.05.14.16.43.23.27.29-.75,1.83,2.17,4.66.57,5.5C154.32,56,153,54.15,152.27,54.07Z"/><path class="cls-109" d="M151.68,53a.54.54,0,0,0,.11.62,1.85,1.85,0,0,0,.59.35,6.64,6.64,0,0,1,2,1.36,6.13,6.13,0,0,1,.47,2.86c0,1.61-.65,4,.78,5.45.15.16.39.37.86,0a4.76,4.76,0,0,0,1.52-3,15.76,15.76,0,0,0,0-3.43,3.93,3.93,0,0,0-1.77-3.45,7.43,7.43,0,0,0-4.54-1.45Z"/><path class="cls-119" d="M155.36,57.43c-.43.39-.82.55-1.12.35s-.28-.61.06-1.08a1.09,1.09,0,0,1,1.3-.4C155.89,56.5,155.86,57,155.36,57.43Z"/><path class="cls-108" d="M155.14,57.23c-.23.21-.43.29-.59.19s-.15-.32,0-.57a.59.59,0,0,1,.68-.21C155.41,56.75,155.39,57,155.14,57.23Z"/><path class="cls-120" d="M155.07,79.93,149.41,83a1.11,1.11,0,0,1-1,0l-3-1.71.82-.45v-.22l.56.32.08,0V81l1.21.68.07,0v.09l1.6.91.75-.42V82l.17.1L151,82l.5-.27.86-.48V81l.21.12.75-.41v-.19l.17.1.74-.42h0v-.53l-.77-.45-.15.09v-.17l-.77-.44-.15.08v-.16l-.77-.44-.15.08V78.1l-.77-.44-.15.08v-.16l-.77-.44-.15.08v-.17l-.78-.44-.15.09v-.17l-.78-.44-.15.08V76l-.78-.44-.15.08v-.17l-.78-.44-.75.41v.19l-.18-.11.43-.23h0v-.54l-.77-.44-.75.41v.19l-.16-.1-.75.41v.19l-.16-.09-.75.41v.18l-.17-.09-.74.41v.19l-.17-.09-.75.41v.54h0l1.64.93.09,0v.11l1.1.62-.81.44v.22l-3.66-2.1a.31.31,0,0,1-.2-.27c0,.18,0,.36,0,.54a.33.33,0,0,0,.2.27l9.71,5.56a1.11,1.11,0,0,0,1,0l5.66-3.1a.33.33,0,0,0,.2-.26v-.54A.31.31,0,0,1,155.07,79.93Z"/><polygon class="cls-49" points="139.62 78.13 138.78 77.66 138.78 77.57 139.62 78.04 139.62 78.13"/><polygon class="cls-49" points="139.62 78.28 138.78 77.81 138.78 77.72 139.62 78.19 139.62 78.28"/><polygon class="cls-49" points="139.62 78.41 138.78 77.94 138.78 77.85 139.62 78.32 139.62 78.41"/><polygon class="cls-121" points="148.05 83.31 147.39 82.92 147.4 82.46 148.06 82.85 148.05 83.31"/><polygon class="cls-52" points="147.53 82.85 148.03 83.14 148.02 83.26 147.42 82.9 147.42 82.9 147.53 82.85"/><polygon class="cls-46" points="148.03 82.86 148.03 83.14 147.53 82.85 147.54 82.57 147.56 82.59 148.03 82.86"/><polygon class="cls-49" points="148.03 82.9 148.03 83.1 147.56 82.82 147.56 82.63 148.03 82.9"/><polygon class="cls-53" points="147.42 82.78 147.43 82.51 147.54 82.57 147.53 82.85 147.42 82.9 147.42 82.78"/><polygon class="cls-121" points="154.33 80.83 154.99 80.46 154.97 80 154.31 80.37 154.33 80.83"/><polygon class="cls-52" points="154.85 80.39 154.35 80.66 154.35 80.78 154.96 80.45 154.96 80.45 154.85 80.39"/><polygon class="cls-46" points="154.34 80.39 154.35 80.66 154.85 80.39 154.84 80.11 154.81 80.13 154.34 80.39"/><polygon class="cls-49" points="154.34 80.43 154.35 80.62 154.82 80.37 154.81 80.17 154.34 80.43"/><polygon class="cls-53" points="154.96 80.32 154.95 80.05 154.84 80.11 154.85 80.39 154.96 80.45 154.96 80.32"/><polygon class="cls-121" points="153.49 81.3 153.82 81.11 153.81 80.65 153.47 80.84 153.49 81.3"/><polygon class="cls-52" points="153.69 81.03 153.51 81.13 153.51 81.25 153.8 81.09 153.8 81.09 153.69 81.03"/><polygon class="cls-46" points="153.5 80.86 153.51 81.13 153.69 81.03 153.68 80.76 153.65 80.78 153.5 80.86"/><polygon class="cls-49" points="153.5 80.9 153.51 81.09 153.66 81.01 153.65 80.82 153.5 80.9"/><polygon class="cls-53" points="153.79 80.97 153.79 80.7 153.68 80.76 153.69 81.03 153.8 81.09 153.79 80.97"/><polygon class="cls-121" points="153.05 81.55 153.39 81.35 153.38 80.89 153.04 81.09 153.05 81.55"/><polygon class="cls-52" points="153.25 81.28 153.07 81.38 153.08 81.5 153.36 81.34 153.36 81.34 153.25 81.28"/><polygon class="cls-46" points="153.06 81.1 153.07 81.38 153.25 81.28 153.24 81.01 153.22 81.02 153.06 81.1"/><polygon class="cls-49" points="153.07 81.14 153.07 81.34 153.22 81.26 153.22 81.06 153.07 81.14"/><polygon class="cls-53" points="153.36 81.22 153.35 80.94 153.24 81.01 153.25 81.28 153.36 81.34 153.36 81.22"/><path class="cls-46" d="M146.26,82.07a.3.3,0,0,0,.15.27c.08,0,.14,0,.14-.1a.35.35,0,0,0-.14-.28C146.32,81.92,146.26,82,146.26,82.07Z"/><path class="cls-52" d="M146.54,82.27a.36.36,0,0,1-.15-.28v0c-.07,0-.13,0-.13.11a.3.3,0,0,0,.15.27.09.09,0,0,0,.14-.07Z"/><path class="cls-122" d="M146.45,82.32a.34.34,0,0,1-.15-.27.13.13,0,0,1,0-.1s-.07,0-.07.12a.3.3,0,0,0,.15.27.09.09,0,0,0,.11,0A.1.1,0,0,1,146.45,82.32Z"/><path class="cls-46" d="M146.78,82.37a.36.36,0,0,0,.15.27c.08,0,.15,0,.15-.11a.32.32,0,0,0-.15-.27C146.85,82.21,146.78,82.26,146.78,82.37Z"/><path class="cls-52" d="M147.06,82.56a.36.36,0,0,1-.15-.27s0,0,0,0-.14,0-.14.12a.36.36,0,0,0,.15.27.09.09,0,0,0,.15-.07Z"/><path class="cls-122" d="M147,82.62a.36.36,0,0,1-.15-.28.15.15,0,0,1,0-.1c-.05,0-.08.05-.08.13a.36.36,0,0,0,.15.27s.09,0,.11,0S147,82.63,147,82.62Z"/><polygon class="cls-52" points="146.85 75.48 146.1 75.89 145.32 75.45 146.07 75.04 146.85 75.48"/><polygon class="cls-52" points="145.79 75.91 145.04 76.32 143.14 75.23 143.89 74.82 145.79 75.91"/><polygon class="cls-52" points="147.77 76.01 147.02 76.42 146.25 75.98 146.99 75.57 147.77 76.01"/><polygon class="cls-52" points="144.39 76.13 143.64 76.55 142.22 75.74 142.97 75.33 144.39 76.13"/><polygon class="cls-52" points="148.69 76.53 147.94 76.94 147.17 76.5 147.91 76.09 148.69 76.53"/><polygon class="cls-52" points="145.26 76.63 144.51 77.04 143.74 76.6 144.49 76.19 145.26 76.63"/><polygon class="cls-52" points="147.59 76.93 146.84 77.34 146.07 76.9 146.82 76.49 147.59 76.93"/><polygon class="cls-52" points="143.96 76.92 143.21 77.33 141.31 76.24 142.05 75.83 143.96 76.92"/><polygon class="cls-52" points="149.61 77.05 148.86 77.47 148.09 77.03 148.83 76.61 149.61 77.05"/><polygon class="cls-52" points="146.13 77.13 145.38 77.54 144.61 77.1 145.36 76.69 146.13 77.13"/><polygon class="cls-52" points="142.77 77.27 142.02 77.68 140.38 76.75 141.13 76.34 142.77 77.27"/><polygon class="cls-52" points="148.47 77.43 147.72 77.84 146.95 77.4 147.7 76.99 148.47 77.43"/><polygon class="cls-52" points="144.84 77.42 144.09 77.83 143.32 77.39 144.06 76.97 144.84 77.42"/><polygon class="cls-52" points="147 77.62 146.25 78.03 145.48 77.59 146.23 77.18 147 77.62"/><polygon class="cls-52" points="145.7 77.91 144.95 78.32 144.18 77.88 144.92 77.47 145.7 77.91"/><polygon class="cls-52" points="151.45 78.1 150.7 78.51 149.93 78.07 150.68 77.66 151.45 78.1"/><polygon class="cls-52" points="144.08 78.01 143.33 78.42 142.12 77.74 142.87 77.33 144.08 78.01"/><polygon class="cls-52" points="147.87 78.12 147.12 78.53 146.35 78.09 147.1 77.68 147.87 78.12"/><polygon class="cls-52" points="146.57 78.4 145.82 78.81 145.05 78.37 145.79 77.96 146.57 78.4"/><polygon class="cls-52" points="152.37 78.63 151.62 79.04 150.85 78.6 151.6 78.19 152.37 78.63"/><polygon class="cls-52" points="148.74 78.61 147.99 79.02 147.22 78.58 147.97 78.17 148.74 78.61"/><polygon class="cls-52" points="151.11 78.94 150.36 79.35 149.59 78.91 150.34 78.49 151.11 78.94"/><polygon class="cls-52" points="147.43 78.89 146.68 79.3 145.91 78.86 146.66 78.45 147.43 78.89"/><polygon class="cls-52" points="153.29 79.15 152.54 79.56 151.77 79.12 152.52 78.71 153.29 79.15"/><polygon class="cls-52" points="154.21 79.67 153.46 80.09 152.69 79.64 153.44 79.23 154.21 79.67"/><polygon class="cls-52" points="149.61 79.11 148.86 79.52 148.09 79.08 148.84 78.67 149.61 79.11"/><polygon class="cls-52" points="151.99 79.44 151.24 79.85 150.47 79.41 151.22 79 151.99 79.44"/><polygon class="cls-52" points="148.33 79.4 147.58 79.81 146.81 79.37 147.56 78.96 148.33 79.4"/><polygon class="cls-52" points="150.48 79.6 149.73 80.02 148.96 79.57 149.71 79.16 150.48 79.6"/><polygon class="cls-52" points="149.19 79.89 148.44 80.3 147.67 79.86 148.41 79.45 149.19 79.89"/><polygon class="cls-52" points="151.35 80.1 150.6 80.51 149.83 80.07 150.58 79.66 151.35 80.1"/><polygon class="cls-52" points="153.3 80.18 152.55 80.59 151.35 79.91 152.1 79.5 153.3 80.18"/><polygon class="cls-52" points="150.06 80.39 149.31 80.8 148.54 80.36 149.28 79.95 150.06 80.39"/><polygon class="cls-52" points="146.28 80.32 145.17 80.93 142.4 79.34 143.51 78.74 146.28 80.32"/><polygon class="cls-52" points="148.87 80.74 148.12 81.15 146.91 80.47 147.66 80.06 148.87 80.74"/><polygon class="cls-52" points="152.33 80.71 151.46 81.19 150.97 81.46 150.72 81.6 149.41 80.86 150.16 80.44 150.56 80.67 151.43 80.2 152.33 80.71"/><path class="cls-121" d="M155.07,79.39c.26.16.26.4,0,.54L149.41,83a1.11,1.11,0,0,1-1,0l-9.71-5.56c-.27-.15-.27-.39,0-.54l5.66-3.09a1.08,1.08,0,0,1,1,0Zm-9.9,1.54,1.11-.61-2.77-1.58-1.11.6,2.77,1.59Zm-1.73-2.44,3.4,1.93.75-.41-3.4-1.93-.75.41Zm7.53,3,.49-.27.87-.48-.9-.51-.87.47-.4-.23-.75.42,1.31.74.25-.14Zm-5.18-5.55-1.9-1.09-.75.41,1.9,1.09.75-.41Zm-1.83,1-1.91-1.09-.74.41,1.9,1.09.75-.41Zm-3.58-.17,1.64.93.75-.41-1.64-.93-.75.41Zm7.82,4.45,1.6.91.74-.42-1.59-.9-.75.41Zm-3.81-5.07-1.42-.8-.75.41,1.42.81.75-.42Zm-2.27,1.61,1.21.69.75-.42-1.21-.69-.75.42Zm4.8,2.73,1.2.68.75-.41-1.21-.68-.74.41Zm4.43-.56,1.2.68.75-.41-1.2-.68-.75.41Zm-1.52.16.77.44.75-.41-.77-.44-.75.41Zm-3.26-1.67-.78-.44-.74.41.77.44.75-.41Zm3-1.35-.78-.44-.74.42.77.44.75-.42Zm-1.28,2.35-.78-.44-.74.41.77.44.75-.41Zm2.89-.4-.75.41.77.44.75-.41-.77-.44Zm-4.37-3.52-.78-.44-.75.41.78.44.75-.41Zm0,1-.75.41.77.44.75-.41-.77-.44Zm-2,.93-.78-.44-.74.41.77.44.75-.41Zm5.5,1.07-.75.42.77.44.75-.42-.77-.44Zm-.88-.5-.75.42.77.44.75-.42-.77-.44Zm-.88-.5-.75.41.77.44.75-.41-.77-.44Zm5.63,2.19-.77-.45-.75.42.77.44.75-.41Zm-.92-.53-.77-.44-.75.41.77.44.75-.41Zm-9.55-2.55.77.44.75-.41-.77-.44-.75.41Zm3.48,2L148,79l.75-.41-.77-.44-.75.41Zm-2.61-1.48.77.44.75-.41-.77-.44-.75.41Zm3.48,2,.77.44.75-.41-.77-.44-.75.41Zm3.36-1-.77-.44-.75.41.77.44.75-.41ZM149,79.57l.77.45.75-.42-.77-.44-.75.41ZM147.77,76l-.78-.44-.75.41.78.44.75-.41Zm-2.29,1.58.77.44.75-.41-.77-.44-.75.41Zm.87.5.77.44.75-.41-.77-.44-.75.41Zm.36-1.66-.77-.44-.75.41.77.44.75-.41Zm5.66,2.2-.77-.44-.75.41.77.44.75-.41Zm-3.18,1.26-.77-.44-.75.41.77.44.75-.41ZM147.7,77l-.75.41.77.44.75-.41L147.7,77Zm-.27,1.9-.77-.44-.75.41.77.44.75-.41Zm2.63,1.5-.77-.44-.75.41.77.44.75-.41Zm-1.37-3.86-.78-.44-.74.41.77.44.75-.41Zm-3.89-2.21-.75.41.78.44.74-.41-.77-.44Zm5.73,3.26-.77-.44-.75.41.77.44.75-.41Zm-4.83.33-.78-.44-.74.41.77.44.75-.41Z"/><polygon class="cls-52" points="145.57 74.76 144.83 75.17 144.05 74.73 144.8 74.32 145.57 74.76"/><polygon class="cls-52" points="146.71 76.43 145.96 76.84 145.19 76.4 145.94 75.99 146.71 76.43"/><polygon class="cls-52" points="150.53 77.58 149.78 77.99 149.01 77.55 149.76 77.14 150.53 77.58"/><polygon class="cls-52" points="149.35 77.93 148.6 78.34 147.83 77.91 148.58 77.49 149.35 77.93"/><polygon class="cls-52" points="150.23 78.43 149.48 78.85 148.71 78.41 149.46 77.99 150.23 78.43"/><polygon class="cls-52" points="147.59 80.01 146.84 80.42 143.44 78.49 144.19 78.08 147.59 80.01"/><polygon class="cls-52" points="150.54 81.69 149.79 82.11 148.2 81.2 148.95 80.79 150.54 81.69"/><path class="cls-123" d="M152.4,77.29c-.25-.83-1.75-1.38-2.31-1.58a10.09,10.09,0,0,0-1.62.72c-.9.5-1.8,1.19-1.81,1.89,0,1.51.78,1.75,1.64,1.82C149.58,80.24,151.34,77.78,152.4,77.29Z"/><path class="cls-123" d="M158,71.22a2.94,2.94,0,0,0-3.42-.35l-5.51,5.26,2.62,1.66,6.7-3.87C159.21,73.27,159,72.06,158,71.22Z"/><path class="cls-108" d="M143.43,75.24a4,4,0,0,1,1.69-2.08,9,9,0,0,1,1.38-.88,3,3,0,0,1,1.25,1h-.4v1.12c-1,.77-2,2.49-2.78,2.51S143.24,76.75,143.43,75.24Z"/><path class="cls-120" d="M147.61,76.11l-9.7-5.56a.38.38,0,0,0-.35,0l-.48.27a.33.33,0,0,1,.34,0l.51.28,0,0h0l-.29.16-.2.1a.22.22,0,0,0-.09.18l1.51,5.11a.61.61,0,0,0,.28.48l.23-.12h0l-.23.12s9.94,5.92,9.86,6l.24-.13.24-.13a.31.31,0,0,0,.14-.3l-1.49-5.63A1,1,0,0,0,147.61,76.11Z"/><path class="cls-122" d="M138.43,76.71a1,1,0,0,0,.47.81l9.71,5.56c.27.15.49,0,.49-.26l-1.5-5.64a1,1,0,0,0-.47-.81l-9.71-5.55c-.26-.16-.48,0-.49.26Zm-1.11-5.18v0s0,0,0,.06Zm.07-.14h0l0,0h0Zm.05,0h0Zm0,0h0Zm0,0h0Zm.05,0,0,0,0,0Zm11.11,11.1h0l0,0Zm0-.09a.13.13,0,0,0,0-.06A.13.13,0,0,1,148.71,82.39Zm0,0s0,0,0,0S148.7,82.42,148.7,82.43Zm-.09.09h0Zm-.06,0h0Zm-.06,0h0Zm-9.43-5.39h0l0,0h0Zm0,0h0l0,0Zm-.12-.15a.36.36,0,0,1,0-.09A.51.51,0,0,0,139,77h0Z"/><path class="cls-36" d="M146.69,77.25l-.81-.45a.62.62,0,0,1-.29-.49h0c0-.17.13-.24.29-.16l.81.46a.59.59,0,0,1,.29.48h0C147,77.26,146.85,77.34,146.69,77.25Z"/><path class="cls-52" d="M146.66,77.29l-.81-.45a.62.62,0,0,1-.29-.49h0c0-.17.13-.24.29-.16l.81.46a.61.61,0,0,1,.28.48h0A.17.17,0,0,1,146.66,77.29Z"/><path class="cls-124" d="M18.63,118.07c3.06,1.71,3.06,4.47,0,6.18a12.63,12.63,0,0,1-11.09,0c-3.06-1.71-3.06-4.47,0-6.18A12.63,12.63,0,0,1,18.63,118.07Z"/><path class="cls-125" d="M4.42,89.62c.29.64,3.24.37,3.89-.06a38.48,38.48,0,0,0,3-2.92c.42-.43,1.21-1.48,1.11-2.19A2.23,2.23,0,0,0,9.29,83.2c-2.38,1.66-4.22,5.14-4.87,6.42C4.33,89.8,4.22,89.16,4.42,89.62Z"/><path class="cls-126" d="M8.54,88.69h0a1.11,1.11,0,0,0-.12-.27h0a1.84,1.84,0,0,0-.17-.22C8,88,7.76,88,7.42,87.86a37.11,37.11,0,0,0-6.11-1l.15,2.19a25.64,25.64,0,0,0,5.13,1.7A1.93,1.93,0,0,0,9,89.25C9,89,8.63,89,8.54,88.69Z"/><path class="cls-127" d="M2,89.47s-.05,0-.05,0v.21A.1.1,0,0,0,2,89.8l.2.1s0,0,0,0v-.22a.1.1,0,0,0-.06-.08Z"/><polygon class="cls-127" points="1.59 85.87 1.59 85.92 2.11 86.17 2.11 86.12 1.59 85.87"/><path class="cls-128" d="M2.65,86.2,1,85.42c-.14-.06-.24,0-.23.15L.9,87.28l0,.25L1,89.19a.49.49,0,0,0,.26.39l1.63.78c.14.06.25,0,.24-.15l-.11-1.66,0-.26-.11-1.7A.52.52,0,0,0,2.65,86.2Zm-1.06-.33.52.25v0l-.52-.25Z"/><path class="cls-129" d="M3.14,86.44l.12,1.71v.25l.11,1.66a.16.16,0,0,1-.06.16l-.22.14a.16.16,0,0,0,.06-.15l-.11-1.66,0-.26-.11-1.7a.52.52,0,0,0-.14-.3.38.38,0,0,0-.13-.09L1,85.42,1,85.4a.12.12,0,0,0-.1,0l.22-.15.1,0,.08,0,1.63.77.12.1A.44.44,0,0,1,3.14,86.44Z"/><path class="cls-130" d="M2.31,86.57c0-.13.08-.19.2-.13a.47.47,0,0,1,.24.34c0,.13-.09.19-.21.13A.46.46,0,0,1,2.31,86.57Z"/><path class="cls-119" d="M.75,86.65c.53.21.74.15.92.62a1.16,1.16,0,0,1-.34,1.53c-.19.15-.24.15-.53,0C.15,88.54.38,86.67.75,86.65Z"/><path class="cls-131" d="M17.35,120v0H14.43c0,.46.28,1,.29,1.79,0,1.08-.3,2.37.53,2.89a1.19,1.19,0,0,0,1,.09,2.65,2.65,0,0,0,1.52-2.84A11.54,11.54,0,0,1,17.35,120Z"/><path class="cls-131" d="M7,120.65a2.65,2.65,0,0,0,3-.54,2.63,2.63,0,0,1,.44-.53.9.9,0,0,1,.61-.16c.36,0,1.14-.28,1.1-.89a2.7,2.7,0,0,0-.29-1.08,1.36,1.36,0,0,0-1.74-.48C9,118.23,5.88,119.76,7,120.65Z"/><path class="cls-131" d="M11.44,99.64c2.87,6.87,1,2.7,2.15,11.5.45,3.45.53,7.13.7,9.87a11.07,11.07,0,0,0,3,.3l.49,0c0-.07.26-3.85.29-4.15a23,23,0,0,0-.52-7.59c.23-2.74.43-7.51.57-9.89Z"/><path class="cls-131" d="M8.82,118.43a5.94,5.94,0,0,0,3.42.16c.68-.41.54-6.57.72-10.34.07-1.39.1-2.65.1-2.65,0-1.65.09-3.24.11-5.37,0-.5.17-1.8.17-2L8.62,99.64c-.26,4.6.18,6.81.12,9.37C8.68,111.76,8.44,118.22,8.82,118.43Z"/><path class="cls-132" d="M18.7,84.66A22.73,22.73,0,0,0,15.11,83c-.5-.22-5.16-.82-5.7.38-.82,1.53-.52,5.09-.48,7.07,0,1.28-.5,5.73-.5,9a6.77,6.77,0,0,1-.06.94,2.59,2.59,0,0,0,1.4.92c2.55.85,5.43,1.31,7.91-.23a3.53,3.53,0,0,0,.52-.39c-.1-2.23-.61-6.16-.66-7.39C17.43,90.52,18.78,84.79,18.7,84.66Z"/><path class="cls-108" d="M13.93,84.06c.54-.2,1.39-.62,1.18-1.11a7,7,0,0,1-.19-2.84l-2.87.17a10.62,10.62,0,0,0-.41,2.85C11.66,83.89,13.13,84.37,13.93,84.06Z"/><path class="cls-109" d="M15.72,80.94c.18-.26.61-.69.6-1,0-.11-.34-.11-.42-.19a.48.48,0,0,0-.3-.15,1.16,1.16,0,0,0-.73.13,1.2,1.2,0,0,0-.49.53.44.44,0,0,0-.06.31.85.85,0,0,0,.09.22,2.44,2.44,0,0,1,.19.44,1.16,1.16,0,0,0,.16.4c.18.18.52-.2.64-.31A3.87,3.87,0,0,0,15.72,80.94Z"/><path class="cls-123" d="M10.7,83c.25.36.8.38,1.29.35a4.48,4.48,0,0,0,2-.81,7.47,7.47,0,0,0,1.78-2.27c0-.1-.1-.26-.08-.35.31-1.62-1.32-2.09-2.44-3s-2.74-.81-3,1.11S10,82,10.7,83Z"/><path class="cls-133" d="M10.18,78.36c.11,0,0-1.24,1.56-.89.89.2,1.7.31,1.95.69s.05.49,0,1c-.19,1.25.41,1.88,1.1,1.92a1.5,1.5,0,0,0,1.32-.63,5.76,5.76,0,0,0,.7-1.48c.8-2.44-1.25-3-1.25-3a3.22,3.22,0,0,0-3.45-.85A2.54,2.54,0,0,0,10.18,78.36Z"/><path class="cls-109" d="M13.71,78.19c.2.31,0,.47-.06,1-.19,1.25.41,1.88,1.1,1.92a1.5,1.5,0,0,0,1.32-.63,5.76,5.76,0,0,0,.7-1.48,3.27,3.27,0,0,0,.18-1.2C15.83,77.73,14.42,77.45,13.71,78.19Z"/><path class="cls-134" d="M15.52,76a3.22,3.22,0,0,0-3.45-.85,2.54,2.54,0,0,0-1.89,3.17c.11,0,0-1.24,1.56-.89.89.2,1.7.31,1.95.69l0,0c.71-.74,2.12-.46,3.24-.38A2,2,0,0,0,15.52,76Z"/><path class="cls-123" d="M14.24,81.43c.23.19.68,0,1-.31s.4-.81.17-1-.68-.06-1,.3S14,81.23,14.24,81.43Z"/><path class="cls-108" d="M14.54,81.09c.12.09.33,0,.49-.15s.2-.39.08-.49-.33,0-.48.15S14.43,81,14.54,81.09Z"/><path class="cls-135" d="M12.57,91.92a1.84,1.84,0,0,0,2.33.22,44,44,0,0,0,3.93-3.86,4.24,4.24,0,0,0,.93-2.55A1.68,1.68,0,0,0,17,85c-2.19,1.88-5.26,5.47-4.45,6.9Z"/><path class="cls-119" d="M9.45,91.89a6.58,6.58,0,0,0,3.43.61c.66-.13,1.15-.7.77-1.34a2.63,2.63,0,0,0-1.59-1,15.44,15.44,0,0,0-2.45-.51c-.62,0-1.17,0-1.54,0A8,8,0,0,1,6,89.18c-.17-.19-.36-.38-.55-.57a3,3,0,0,0-1.07-.38,7.09,7.09,0,0,1-1-.25c-.29-.06-.24.22-.2.26a6.25,6.25,0,0,0,1,.47s.29.15.26.2a9.71,9.71,0,0,1-1.76-.62.06.06,0,0,0-.06,0,.05.05,0,0,0,0,0,.35.35,0,0,0,0,.33.84.84,0,0,1-.17,0s-.11.06-.11.12a.13.13,0,0,0,0,.08,2,2,0,0,0,.14.25.2.2,0,0,0-.28,0,.26.26,0,0,0-.05.29.52.52,0,0,0,.21.23.14.14,0,0,0-.2.07.29.29,0,0,0,0,.24,5,5,0,0,0,1.1.56.84.84,0,0,0,.27,0,17,17,0,0,1,1.86.08,16.14,16.14,0,0,1,2.05.74A7.13,7.13,0,0,1,9.45,91.89Z"/><path class="cls-136" d="M15,90.67h0a1.4,1.4,0,0,0-.16-.26h0a1.12,1.12,0,0,0-.18-.2,1.39,1.39,0,0,0-.78-.46c-3.84-.58-8-.81-8-.81a1.56,1.56,0,0,0-.6,1,2.43,2.43,0,0,0,.09.91,43.07,43.07,0,0,0,7.48,1.85c1.57,0,2.49-.72,2.6-1.51C15.53,90.9,15.13,90.92,15,90.67Z"/><path class="cls-108" d="M89.75,161.47c.27,0,.28-3.95.87-5,1-1.77,2.5-5.5,3.21-6.83a8.5,8.5,0,0,0,0-4.38l-4.23-.58c-.08,1.26,1.07,2.8.86,3.76-1.31,1.63-1.5,4.39-1.73,6.21a14.84,14.84,0,0,0-.11,2C88.89,157.14,89,161.57,89.75,161.47Z"/><path class="cls-137" d="M93.83,149.6a8.5,8.5,0,0,0,0-4.38l-4.23-.58a8.88,8.88,0,0,0,.76,2.78c2.5.4,3.1,2.94,1.94,4.94C91,154.6,89.28,157.5,90,160a13.11,13.11,0,0,1,.62-3.59C91.58,154.66,93.12,150.93,93.83,149.6Z"/><path class="cls-123" d="M97.59,159.31c-.59.21-1.14.25-1.26-.49-.53-3.25.25-4,.54-7.23,0-.36.78-3,1.19-6.16l-5.81-.26a19.89,19.89,0,0,0,1.1,4.33c-.91,3.09.54,8.28.9,9.84,0,.22-.57.88-.1,1.41.18.2,5.64-.48,4.87-1.36A1.66,1.66,0,0,0,97.59,159.31Z"/><path class="cls-108" d="M99,159.39a1.66,1.66,0,0,0-1.43-.08c-.59.21-1.14.25-1.26-.49-.53-3.25.25-4,.54-7.23,0-.36.78-3,1.19-6.16l-5.81-.26a21.65,21.65,0,0,0,.64,3c1.16.37,2.37.28,3.66.57.17,0,.26.33.17.5a62.48,62.48,0,0,0-1,10.36c0,.25-.51.92-.85.67a2.15,2.15,0,0,1-.66-.68c-.13.3-.39.78,0,1.19C94.33,161,99.79,160.27,99,159.39Z"/><path class="cls-138" d="M93.8,161.16a.06.06,0,0,0,0,0,.84.84,0,0,0,.55.6,1.23,1.23,0,0,0,.33,0l.36,0a2.67,2.67,0,0,0,.36-.14,2.52,2.52,0,0,0,.33-.24,2,2,0,0,1,1.09-.28A3.48,3.48,0,0,0,98,161c.17-.07,1.32-.45,1.58-1a1,1,0,0,0,0-.7.73.73,0,0,0-.62-.44,2.11,2.11,0,0,0-.78.11c-.39.1-.68.21-1.07.31a1.15,1.15,0,0,1-.45.07c.17.2,1,.08,1.4.12a.27.27,0,0,1,.18.08c.08.09,0,.24-.07.33a.84.84,0,0,1-.33.19,5.21,5.21,0,0,1-2.06.33c-.25,0-1.5.21-1.59-.75a1.18,1.18,0,0,0-.33.7A1.89,1.89,0,0,0,93.8,161.16Z"/><path class="cls-139" d="M89.62,132.33h0Z"/><path class="cls-139" d="M99.33,144.47c-.11-1.65-.41-3.28-.49-4.92a10.69,10.69,0,0,0-1.24-5.34c-.47-1-.89-1.86-2.11-2.11-1.43-.29-3.45-.72-4.8.05A5.06,5.06,0,0,0,89.18,134c-1.56,2.48-1.35,5.52-1.38,9.73a3.06,3.06,0,0,0,1.51,3.16,7.06,7.06,0,0,0,1.78.38c3.73.9,5,.35,6.75-.47C99.15,146.19,99.42,145.75,99.33,144.47Z"/><path class="cls-140" d="M97.23,126.45c1.46-4,.48-3.43-2.4-5l-3.13-.53c-2.88-.38-3.5,2.49-3.13,4.2a29.35,29.35,0,0,1,1.07,8.09c-.11,1.69,6,2,7.51.6C97.68,133.3,97.07,126.9,97.23,126.45Z"/><path class="cls-141" d="M86.13,126.64l.17,0A.51.51,0,0,0,86.13,126.64Z"/><path class="cls-123" d="M97.34,115.94c0,5.37-1.83,3.86-2.14,4.82,0,.14,0,.13.08,1.16,0,.7-3.35.35-3.2-.64l.23-1.49a17.17,17.17,0,0,0,.17-2.52c-.26-1.9,1-2,2.08-2.78A1.66,1.66,0,0,1,97.34,115.94Z"/><path class="cls-142" d="M92,119.64a2.24,2.24,0,0,0,.81.34,3.64,3.64,0,0,0,1-.06,2.74,2.74,0,0,0,1-.32c.65-.47.61-1.1.81-1.43.35-.56,1.08-.45,1.53-1.23a3.09,3.09,0,0,0,.42-1.45,3.72,3.72,0,0,0-.12-1.16,1.89,1.89,0,0,0-.61-.68,4.15,4.15,0,0,0-4.61-.55,3.78,3.78,0,0,0-2,2.1.27.27,0,0,0,0,.12C89.6,117.24,91.91,119.56,92,119.64Z"/><path class="cls-143" d="M96.83,113.65a4.15,4.15,0,0,0-4.61-.55,3.78,3.78,0,0,0-2,2.1.27.27,0,0,0,0,.12A2.68,2.68,0,0,0,90.3,117a1.31,1.31,0,0,0,1.09-.22c1.76-1.3,3.6-2.59,5.85-2.18a1.4,1.4,0,0,1,.29.09,2.42,2.42,0,0,0-.09-.4A1.89,1.89,0,0,0,96.83,113.65Z"/><path class="cls-144" d="M91.39,116.82a1.31,1.31,0,0,1-1.09.22,7.43,7.43,0,0,0,1.71,2.6,2.24,2.24,0,0,0,.81.34,3.64,3.64,0,0,0,1-.06,2.74,2.74,0,0,0,1-.32c.65-.47.61-1.1.81-1.43.35-.56,1.08-.45,1.53-1.23a3.09,3.09,0,0,0,.42-1.45,5.26,5.26,0,0,0,0-.76,1.4,1.4,0,0,0-.29-.09C95,114.23,93.15,115.52,91.39,116.82Z"/><path class="cls-123" d="M95.18,118.4c.26.4.54.61.82.51s.36-.43.19-.88a.9.9,0,0,0-1-.59C95,117.54,94.87,117.94,95.18,118.4Z"/><path class="cls-108" d="M95.44,118.27c.11.18.23.27.36.22s.15-.18.07-.38a.37.37,0,0,0-.41-.25C95.34,117.9,95.3,118.07,95.44,118.27Z"/><path class="cls-143" d="M91.36,114.44c-.31-.65-1.42.06-1.91.69a7,7,0,0,0-1.2,3.3,10.74,10.74,0,0,0,0,3.3,15,15,0,0,1,.5,2.3,2.61,2.61,0,0,1-.14,1.24,2.23,2.23,0,0,1-1.81,1.33c.27-.09.55.11.81.19A6.81,6.81,0,0,0,89,127a3.93,3.93,0,0,0,1.45,0,4,4,0,0,0,1.66-1.49,4.14,4.14,0,0,0,.68-2.76,3.81,3.81,0,0,0-.55-2.2,5.41,5.41,0,0,1-.93-2.21,5.81,5.81,0,0,1-.23-1.1c0-.22,0-.45,0-.68C90.94,115.92,91.71,115.17,91.36,114.44Z"/><path class="cls-145" d="M86.81,126.6l.17,0A.33.33,0,0,0,86.81,126.6Z"/><path class="cls-144" d="M92.75,122.77a3.81,3.81,0,0,0-.55-2.2,5.41,5.41,0,0,1-.93-2.21,5.81,5.81,0,0,1-.23-1.1c0-.22,0-.45,0-.68-.08-.66.69-1.41.34-2.14h0c-1.46,1.15-1,3.56-.47,4.91.86,2.49,1.54,5.81-1.12,7.05a4.59,4.59,0,0,1-2.35.31l.2.08A6.81,6.81,0,0,0,89,127a3.93,3.93,0,0,0,1.45,0,4,4,0,0,0,1.66-1.49A4.14,4.14,0,0,0,92.75,122.77Z"/><path class="cls-108" d="M105.54,116.64l.56-1.46.75-1c.08-.09.44-.56.78-.52s1.49.33,1.31.72-1.34,2-1.34,2a2.38,2.38,0,0,0-.89.78l-.13.66Z"/><path class="cls-146" d="M102.26,120.21a1.68,1.68,0,0,1,2.24.35h0a1.51,1.51,0,0,1-.68,2.06L98.1,126a2,2,0,0,1-2.68-.81h0a1.88,1.88,0,0,1,.85-2.57Z"/><path class="cls-146" d="M105.46,116.31c.48-.62,2.28-.08,1.91.46l-2.36,5a1.78,1.78,0,0,1-2.35.7h0c-.84-.44-1-1-.51-1.8Z"/><path class="cls-9" d="M31.21,53.24l2.28,1.28a1.64,1.64,0,0,0-1.58.15l-2.28-1.28A1.64,1.64,0,0,1,31.21,53.24Z"/><g class="cls-147"><path class="cls-148" d="M31.91,54.67l-2.28-1.28a1.85,1.85,0,0,1,1.25-.27l2.28,1.28a1.85,1.85,0,0,0-1.25.27Z"/><path class="cls-149" d="M33.16,54.4l-2.28-1.28a1.61,1.61,0,0,1,.33.12l2.28,1.28a1.61,1.61,0,0,0-.33-.12Z"/></g><path class="cls-10" d="M30.35,59.74l-2.28-1.28a1.49,1.49,0,0,1-.64-1.37,4.66,4.66,0,0,1,2.2-3.7l2.28,1.28a4.68,4.68,0,0,0-2.2,3.7A1.47,1.47,0,0,0,30.35,59.74Z"/><g class="cls-150"><path class="cls-151" d="M30.35,59.74l-2.28-1.28a1.49,1.49,0,0,1-.64-1.37A4.15,4.15,0,0,1,28,55.16l2.28,1.28a4.06,4.06,0,0,0-.54,1.93,1.47,1.47,0,0,0,.64,1.37Z"/><path class="cls-152" d="M30.25,56.44,28,55.16a4.58,4.58,0,0,1,.62-.89l2.27,1.28a5,5,0,0,0-.61.89Z"/><path class="cls-153" d="M30.86,55.55l-2.27-1.28a3.9,3.9,0,0,1,1-.88l2.28,1.28a4.1,4.1,0,0,0-1.05.88Z"/></g><g class="cls-73"><path class="cls-154" d="M31.91,54.67c1.22-.68,2.22-.13,2.22,1.23a4.67,4.67,0,0,1-2.2,3.69c-1.23.69-2.22.14-2.22-1.22A4.68,4.68,0,0,1,31.91,54.67Z"/></g><path class="cls-11" d="M32,49.74l-2.28-1.28a7.08,7.08,0,0,1,2.81-.93,3.93,3.93,0,0,1,2.29.46l2.28,1.28a3.93,3.93,0,0,0-2.29-.46A7,7,0,0,0,32,49.74Z"/><g class="cls-155"><path class="cls-156" d="M32,49.74l-2.28-1.28a7.08,7.08,0,0,1,2.81-.93,4.88,4.88,0,0,1,1.22.06L36,48.88a4.44,4.44,0,0,0-1.22-.07,7,7,0,0,0-2.81.93Z"/><path class="cls-157" d="M36,48.88,33.7,47.59a3.53,3.53,0,0,1,1.07.4l2.28,1.28A3.51,3.51,0,0,0,36,48.88Z"/></g><path class="cls-12" d="M26.89,57.36l-2.28-1.29c-.6-.32-.61-1.39,0-2.39a16.06,16.06,0,0,1,2.27-3,12.6,12.6,0,0,1,2.81-2.21L32,49.74A12.6,12.6,0,0,0,29.14,52a16.55,16.55,0,0,0-2.28,3C26.27,56,26.28,57,26.89,57.36Z"/><g class="cls-158"><path class="cls-159" d="M26.89,57.36l-2.28-1.29c-.58-.31-.61-1.31-.08-2.28l2.27,1.28c-.52,1-.49,2,.09,2.29Z"/><path class="cls-160" d="M26.8,55.07l-2.27-1.28a.39.39,0,0,1,.06-.11,16.07,16.07,0,0,1,1.7-2.38l2.28,1.28A16.13,16.13,0,0,0,26.86,55l-.06.11Z"/><path class="cls-161" d="M28.57,52.58,26.29,51.3l.57-.63a12.6,12.6,0,0,1,2.81-2.21L32,49.74A12.6,12.6,0,0,0,29.14,52c-.19.2-.39.41-.57.63Z"/></g><g class="cls-73"><path class="cls-162" d="M32,49.59a6.89,6.89,0,0,1,2.77-.92,3.94,3.94,0,0,1,2.27.45c.58.33.58,1.4,0,2.39a3.1,3.1,0,0,1-1.06,1.07,1.1,1.1,0,0,1-1.08.1,2.23,2.23,0,0,0-1.3-.26A3.93,3.93,0,0,0,32,53a7.12,7.12,0,0,0-1.59,1.24,10,10,0,0,0-1.29,1.71A3,3,0,0,1,28,57a1.12,1.12,0,0,1-1.06.11c-.6-.32-.61-1.38,0-2.37a15.73,15.73,0,0,1,2.26-3A12.25,12.25,0,0,1,32,49.59Z"/></g><path class="cls-13" d="M31.93,44.33l-2.28-1.28a12,12,0,0,1,4.71-1.57,6.63,6.63,0,0,1,3.84.75l2.27,1.29a6.54,6.54,0,0,0-3.83-.76A12,12,0,0,0,31.93,44.33Z"/><g class="cls-163"><path class="cls-164" d="M31.93,44.33l-2.28-1.28a12,12,0,0,1,4.71-1.57,7.49,7.49,0,0,1,2.08.11l2.28,1.28a7.49,7.49,0,0,0-2.08-.11,12,12,0,0,0-4.71,1.57Z"/><path class="cls-165" d="M38.72,42.87l-2.28-1.28a6.17,6.17,0,0,1,1.76.64l2.27,1.29a5.74,5.74,0,0,0-1.75-.65Z"/></g><path class="cls-3" d="M31.92,38.93l-2.28-1.28a16.45,16.45,0,0,1,6.49-2.17,9.18,9.18,0,0,1,5.31,1l2.28,1.29a9,9,0,0,0-5.31-1A16.22,16.22,0,0,0,31.92,38.93Z"/><g class="cls-166"><path class="cls-167" d="M31.92,38.93l-2.28-1.28a16.45,16.45,0,0,1,6.49-2.17,10.54,10.54,0,0,1,2.89.15l2.28,1.28a10.17,10.17,0,0,0-2.89-.14,16.22,16.22,0,0,0-6.49,2.16Z"/><path class="cls-168" d="M41.3,36.91,39,35.63a8.24,8.24,0,0,1,2.42.88l2.28,1.29a8.25,8.25,0,0,0-2.42-.89Z"/></g><g class="cls-73"><path class="cls-169" d="M31.93,44.24a11.69,11.69,0,0,1,4.65-1.55,6.56,6.56,0,0,1,3.79.74c.59.33.59,1.4,0,2.39a3.13,3.13,0,0,1-1.06,1.08,1.15,1.15,0,0,1-1.08.1,4.85,4.85,0,0,0-2.82-.56,8.82,8.82,0,0,0-3.47,1.16,15.41,15.41,0,0,0-3.46,2.71A20.22,20.22,0,0,0,25.67,54a3.14,3.14,0,0,1-1.07,1.1,1.1,1.1,0,0,1-1.07.1c-.59-.32-.6-1.38,0-2.37a27.56,27.56,0,0,1,3.77-5A20.71,20.71,0,0,1,31.93,44.24Z"/></g><path class="cls-4" d="M23.43,55.45l-2.28-1.28c-.6-.33-.61-1.4,0-2.4a26.67,26.67,0,0,1,3.82-5,20.7,20.7,0,0,1,4.69-3.69l2.28,1.28A20.7,20.7,0,0,0,27.24,48a27.15,27.15,0,0,0-3.83,5C22.82,54.05,22.83,55.12,23.43,55.45Z"/><g class="cls-170"><path class="cls-171" d="M23.43,55.45l-2.28-1.28c-.58-.32-.61-1.32-.08-2.29l2.28,1.28c-.53,1-.5,2,.08,2.29Z"/><path class="cls-172" d="M23.35,53.16l-2.28-1.28.07-.11a27.8,27.8,0,0,1,2.83-4l2.28,1.28a27.86,27.86,0,0,0-2.84,3.95l-.06.11Z"/><path class="cls-173" d="M26.25,49.1,24,47.82q.48-.55,1-1.08a20.7,20.7,0,0,1,4.69-3.69l2.28,1.28A20.7,20.7,0,0,0,27.24,48q-.51.52-1,1.08Z"/></g><g class="cls-73"><path class="cls-174" d="M31.92,38.9a16.14,16.14,0,0,1,6.42-2.14,9,9,0,0,1,5.24,1c.59.33.59,1.4,0,2.38a3.1,3.1,0,0,1-1.07,1.09,1.13,1.13,0,0,1-1.07.1,7.36,7.36,0,0,0-4.28-.83,13.15,13.15,0,0,0-5.23,1.74,22.87,22.87,0,0,0-5.23,4.11A29.86,29.86,0,0,0,22.44,52a3.1,3.1,0,0,1-1.07,1.09,1.11,1.11,0,0,1-1.07.11c-.59-.33-.6-1.39,0-2.38a37.51,37.51,0,0,1,5.22-6.86A28.39,28.39,0,0,1,31.92,38.9Z"/></g><path class="cls-5" d="M20.16,53.37l-2.28-1.29c-.6-.32-.6-1.4,0-2.4a38,38,0,0,1,5.28-6.94,28.3,28.3,0,0,1,6.49-5.09l2.28,1.28A28.3,28.3,0,0,0,25.43,44,38,38,0,0,0,20.15,51C19.55,52,19.56,53,20.16,53.37Z"/><g class="cls-175"><path class="cls-176" d="M20.16,53.37l-2.28-1.29c-.57-.31-.6-1.32-.08-2.28l2.28,1.28c-.52,1-.5,2,.08,2.29Z"/><path class="cls-177" d="M20.08,51.08,17.8,49.8a.75.75,0,0,0,.07-.12,38.32,38.32,0,0,1,3.9-5.43l2.28,1.28A38.32,38.32,0,0,0,20.15,51l-.07.12Z"/><path class="cls-178" d="M24.05,45.53l-2.28-1.28c.45-.52.91-1,1.38-1.51a28.3,28.3,0,0,1,6.49-5.09l2.28,1.28A28.3,28.3,0,0,0,25.43,44c-.47.49-.93,1-1.38,1.51Z"/></g></g></g></svg>