<svg xmlns="http://www.w3.org/2000/svg" xmlns:xlink="http://www.w3.org/1999/xlink" viewBox="0 0 179.42 179.7"><defs><style>.cls-1{isolation:isolate;}.cls-2{fill:#2e3665;}.cls-3{fill:#160a5b;}.cls-4{fill:url(#linear-gradient);}.cls-5{fill:#38c5ea;}.cls-6{fill:url(#linear-gradient-2);}.cls-7{fill:url(#linear-gradient-3);}.cls-8{fill:#fcd1c5;}.cls-9{fill:#e2b1a6;}.cls-10{fill:url(#linear-gradient-4);}.cls-11{fill:url(#linear-gradient-5);}.cls-12{fill:#dce4fb;}.cls-13{fill:#c4ccd6;}.cls-14{opacity:0.6;}.cls-15{fill:url(#linear-gradient-6);}.cls-16{fill:url(#linear-gradient-7);}.cls-17{fill:url(#linear-gradient-8);}.cls-18{fill:url(#linear-gradient-9);}.cls-19{fill:url(#linear-gradient-10);}.cls-20{fill:url(#linear-gradient-11);}.cls-21{fill:url(#linear-gradient-12);}.cls-22{fill:url(#linear-gradient-13);}.cls-23{fill:url(#linear-gradient-14);}.cls-24{fill:url(#linear-gradient-15);}.cls-25{fill:url(#linear-gradient-16);}.cls-26{fill:url(#linear-gradient-17);}.cls-27{fill:url(#linear-gradient-18);}.cls-28{fill:url(#linear-gradient-19);}.cls-29{fill:url(#linear-gradient-20);}.cls-30{fill:url(#linear-gradient-21);}.cls-31{fill:url(#linear-gradient-22);}.cls-32{fill:url(#linear-gradient-23);}.cls-33{fill:url(#linear-gradient-24);}.cls-34{fill:url(#linear-gradient-25);}.cls-35{fill:url(#linear-gradient-26);}.cls-36{fill:url(#linear-gradient-27);}.cls-37{fill:url(#linear-gradient-28);}.cls-38{fill:url(#linear-gradient-29);}.cls-39{fill:url(#linear-gradient-30);}.cls-40{fill:url(#linear-gradient-31);}.cls-41{fill:url(#linear-gradient-32);}.cls-42{fill:url(#linear-gradient-33);}.cls-43{fill:url(#linear-gradient-34);}.cls-44{fill:url(#linear-gradient-35);}.cls-45{fill:url(#linear-gradient-36);}.cls-46{fill:url(#linear-gradient-37);}.cls-47{fill:url(#linear-gradient-38);}.cls-48{fill:url(#linear-gradient-39);}.cls-49{fill:url(#linear-gradient-40);}.cls-50{fill:url(#linear-gradient-41);}.cls-51{fill:url(#linear-gradient-42);}.cls-52{fill:url(#linear-gradient-43);}.cls-53{fill:url(#linear-gradient-44);}.cls-54{fill:url(#linear-gradient-45);}.cls-55{fill:url(#linear-gradient-46);}.cls-56{fill:url(#linear-gradient-47);}.cls-57{fill:url(#linear-gradient-48);}.cls-58{fill:url(#linear-gradient-49);}.cls-59{fill:url(#linear-gradient-50);}.cls-60{fill:url(#linear-gradient-51);}.cls-61{fill:url(#linear-gradient-52);}.cls-62{fill:url(#linear-gradient-53);}.cls-63{fill:url(#linear-gradient-54);}.cls-64{opacity:0.2;}.cls-65{opacity:0;}.cls-66{opacity:0.09;}.cls-67{opacity:0.18;}.cls-68{opacity:0.27;}.cls-69{opacity:0.36;}.cls-70{opacity:0.45;}.cls-71{opacity:0.55;}.cls-72{opacity:0.64;}.cls-73{opacity:0.73;}.cls-74{opacity:0.82;}.cls-75{opacity:0.91;}.cls-76{fill:url(#linear-gradient-55);}.cls-77{fill:#0984bd;}.cls-78{fill:#3a9dca;}.cls-79{fill:url(#linear-gradient-56);}.cls-80{fill:url(#linear-gradient-57);}.cls-81{fill:url(#linear-gradient-58);}.cls-82{fill:url(#linear-gradient-59);}.cls-83{fill:url(#linear-gradient-60);}.cls-84{opacity:0.5;fill:url(#New_Gradient_Swatch_1);}.cls-106,.cls-115,.cls-84,.cls-88{mix-blend-mode:multiply;}.cls-85{fill:url(#linear-gradient-61);}.cls-86{fill:url(#linear-gradient-62);}.cls-87{fill:url(#linear-gradient-63);}.cls-88{fill:url(#linear-gradient-64);}.cls-89{fill:#343c6b;}.cls-90{fill:url(#linear-gradient-65);}.cls-91{fill:url(#linear-gradient-66);}.cls-92{fill:url(#linear-gradient-67);}.cls-93{fill:url(#linear-gradient-68);}.cls-94{fill:url(#linear-gradient-69);}.cls-95{fill:url(#linear-gradient-70);}.cls-96{fill:url(#linear-gradient-71);}.cls-97{fill:url(#linear-gradient-72);}.cls-98{fill:#b8c9ff;}.cls-99{fill:#cad6f8;}.cls-100{fill:url(#linear-gradient-73);}.cls-101{fill:url(#linear-gradient-74);}.cls-102{fill:url(#linear-gradient-75);}.cls-103{fill:url(#linear-gradient-76);}.cls-104{fill:url(#linear-gradient-77);}.cls-105{fill:url(#linear-gradient-78);}.cls-106{fill:url(#linear-gradient-79);}.cls-107,.cls-108{mix-blend-mode:color-dodge;}.cls-107{fill:url(#Radial_Gradient_1);}.cls-108{fill:url(#New_Gradient_Swatch_copy);}.cls-109{fill:url(#linear-gradient-80);}.cls-110{fill:url(#linear-gradient-81);}.cls-111{fill:url(#linear-gradient-82);}.cls-112{fill:url(#linear-gradient-83);}.cls-113{fill:url(#New_Gradient_Swatch_copy_14);}.cls-114{fill:url(#linear-gradient-84);}.cls-115{fill:url(#New_Gradient_Swatch_1-2);}.cls-116{fill:#d4ecff;}.cls-117{fill:url(#linear-gradient-85);}.cls-118{fill:url(#linear-gradient-86);}.cls-119{fill:url(#linear-gradient-87);}</style><linearGradient id="linear-gradient" x1="28.8" y1="153.75" x2="46.76" y2="153.75" gradientUnits="userSpaceOnUse"><stop offset="0" stop-color="#eef5fa"/><stop offset="0.11" stop-color="#e1eff7" stop-opacity="0.99"/><stop offset="0.3" stop-color="#beddef" stop-opacity="0.95"/><stop offset="0.57" stop-color="#85c2e2" stop-opacity="0.9"/><stop offset="0.9" stop-color="#379cd0" stop-opacity="0.82"/><stop offset="1" stop-color="#1f90ca" stop-opacity="0.8"/></linearGradient><linearGradient id="linear-gradient-2" x1="26.28" y1="108.65" x2="47.88" y2="108.65" gradientUnits="userSpaceOnUse"><stop offset="0" stop-color="#0984bd"/><stop offset="1" stop-color="#56a5d7"/></linearGradient><linearGradient id="linear-gradient-3" x1="35.14" y1="117.59" x2="50.28" y2="117.59" xlink:href="#linear-gradient"/><linearGradient id="linear-gradient-4" x1="31.55" y1="75.82" x2="45.5" y2="75.82" gradientUnits="userSpaceOnUse"><stop offset="0" stop-color="#14416a"/><stop offset="0.73" stop-color="#004f98"/></linearGradient><linearGradient id="linear-gradient-5" x1="31.72" y1="79.09" x2="43.67" y2="79.09" xlink:href="#linear-gradient-4"/><linearGradient id="linear-gradient-6" x1="4354.41" y1="111.65" x2="4338.11" y2="119.8" gradientTransform="matrix(-1, 0, 0, 1, 4418.84, 0)" xlink:href="#linear-gradient-2"/><linearGradient id="linear-gradient-7" x1="4353.31" y1="111.92" x2="4355.4" y2="111.92" gradientTransform="matrix(-1, 0, 0, 1, 4418.84, 0)" xlink:href="#linear-gradient-2"/><linearGradient id="linear-gradient-8" x1="82.46" y1="155.52" x2="95.89" y2="155.52" xlink:href="#linear-gradient-2"/><linearGradient id="linear-gradient-9" x1="81.09" y1="161.16" x2="83.17" y2="161.16" xlink:href="#linear-gradient-2"/><linearGradient id="linear-gradient-10" x1="101.05" y1="166.71" x2="114.25" y2="166.71" xlink:href="#linear-gradient-2"/><linearGradient id="linear-gradient-11" x1="65.74" y1="153.8" x2="92.55" y2="153.8" xlink:href="#linear-gradient-2"/><linearGradient id="linear-gradient-12" x1="64.21" y1="159.73" x2="66.29" y2="159.73" xlink:href="#linear-gradient-2"/><linearGradient id="linear-gradient-13" x1="57.16" y1="132" x2="67.17" y2="132" xlink:href="#linear-gradient-2"/><linearGradient id="linear-gradient-14" x1="49.37" y1="112.54" x2="73.41" y2="123.32" xlink:href="#linear-gradient-2"/><linearGradient id="linear-gradient-15" x1="50.43" y1="124.03" x2="67.44" y2="125.98" xlink:href="#linear-gradient-2"/><linearGradient id="linear-gradient-16" x1="75.14" y1="147.43" x2="88.64" y2="147.43" xlink:href="#linear-gradient-2"/><linearGradient id="linear-gradient-17" x1="93.26" y1="156.57" x2="101.31" y2="156.57" xlink:href="#linear-gradient-2"/><linearGradient id="linear-gradient-18" x1="78.49" y1="142" x2="81.46" y2="142" xlink:href="#linear-gradient-2"/><linearGradient id="linear-gradient-19" x1="99.42" y1="172.09" x2="101.5" y2="172.09" xlink:href="#linear-gradient-2"/><linearGradient id="linear-gradient-20" x1="73.61" y1="149.13" x2="75.7" y2="149.13" gradientTransform="translate(0.96 -0.47) rotate(0.37)" xlink:href="#linear-gradient-2"/><linearGradient id="linear-gradient-21" x1="55.52" y1="132.21" x2="57.6" y2="132.21" xlink:href="#linear-gradient-2"/><linearGradient id="linear-gradient-22" x1="49.92" y1="122.89" x2="52" y2="122.89" xlink:href="#linear-gradient-2"/><linearGradient id="linear-gradient-23" x1="47.9" y1="112.63" x2="49.99" y2="112.63" xlink:href="#linear-gradient-2"/><linearGradient id="linear-gradient-24" x1="91.6" y1="159.97" x2="93.68" y2="159.97" xlink:href="#linear-gradient-2"/><linearGradient id="linear-gradient-25" x1="76.85" y1="143" x2="78.94" y2="143" xlink:href="#linear-gradient-2"/><linearGradient id="linear-gradient-26" x1="4191.11" y1="18895.84" x2="4208.06" y2="18895.84" gradientTransform="translate(4326.65 19031.81) rotate(180)" xlink:href="#linear-gradient-2"/><linearGradient id="linear-gradient-27" x1="4189.69" y1="18902.52" x2="4191.77" y2="18902.52" gradientTransform="translate(4326.65 19031.81) rotate(180)" xlink:href="#linear-gradient-2"/><linearGradient id="linear-gradient-28" x1="4200.71" y1="18896.62" x2="4212.26" y2="18896.62" gradientTransform="translate(4326.65 19031.81) rotate(180)" xlink:href="#linear-gradient-2"/><linearGradient id="linear-gradient-29" x1="4175.38" y1="18893.13" x2="4204.67" y2="18893.13" gradientTransform="translate(4326.65 19031.81) rotate(180)" xlink:href="#linear-gradient-2"/><linearGradient id="linear-gradient-30" x1="4173.84" y1="18899.86" x2="4175.92" y2="18899.86" gradientTransform="translate(4326.65 19031.81) rotate(180)" xlink:href="#linear-gradient-2"/><linearGradient id="linear-gradient-31" x1="4212.4" y1="18897.6" x2="4217.44" y2="18894.84" gradientTransform="translate(4326.65 19031.81) rotate(180)" xlink:href="#linear-gradient-2"/><linearGradient id="linear-gradient-32" x1="4181.33" y1="18882.76" x2="4196.34" y2="18882.76" gradientTransform="translate(4326.65 19031.81) rotate(180)" xlink:href="#linear-gradient-2"/><linearGradient id="linear-gradient-33" x1="4174.78" y1="18864.89" x2="4200.64" y2="18876.48" gradientTransform="translate(4326.65 19031.81) rotate(180)" xlink:href="#linear-gradient-2"/><linearGradient id="linear-gradient-34" x1="4185.64" y1="18877.13" x2="4197.75" y2="18878.52" gradientTransform="translate(4326.65 19031.81) rotate(180)" xlink:href="#linear-gradient-2"/><linearGradient id="linear-gradient-35" x1="4187.26" y1="18885.97" x2="4200.76" y2="18885.97" gradientTransform="translate(4326.65 19031.81) rotate(180)" xlink:href="#linear-gradient-2"/><linearGradient id="linear-gradient-36" x1="4212.2" y1="18899.5" x2="4220.25" y2="18899.5" gradientTransform="translate(4326.65 19031.81) rotate(180)" xlink:href="#linear-gradient-2"/><linearGradient id="linear-gradient-37" x1="4222.54" y1="18900.66" x2="4225.51" y2="18900.66" gradientTransform="translate(4326.65 19031.81) rotate(180)" xlink:href="#linear-gradient-2"/><linearGradient id="linear-gradient-38" x1="4199.08" y1="18901.37" x2="4201.16" y2="18901.37" gradientTransform="translate(4326.65 19031.81) rotate(180)" xlink:href="#linear-gradient-2"/><linearGradient id="linear-gradient-39" x1="4185.73" y1="18887.66" x2="4187.82" y2="18887.66" gradientTransform="translate(4326.65 19031.81) rotate(180)" xlink:href="#linear-gradient-2"/><linearGradient id="linear-gradient-40" x1="4210.79" y1="18898.04" x2="4212.87" y2="18898.04" gradientTransform="translate(4326.65 19031.81) rotate(180)" xlink:href="#linear-gradient-2"/><linearGradient id="linear-gradient-41" x1="4179.69" y1="18884.65" x2="4181.77" y2="18884.65" gradientTransform="translate(4326.65 19031.81) rotate(180)" xlink:href="#linear-gradient-2"/><linearGradient id="linear-gradient-42" x1="4184.81" y1="18876.8" x2="4186.89" y2="18876.8" gradientTransform="translate(4326.65 19031.81) rotate(180)" xlink:href="#linear-gradient-2"/><linearGradient id="linear-gradient-43" x1="4173.51" y1="18864.6" x2="4175.59" y2="18864.6" gradientTransform="translate(4326.65 19031.81) rotate(180)" xlink:href="#linear-gradient-2"/><linearGradient id="linear-gradient-44" x1="4210.55" y1="18902.89" x2="4212.63" y2="18902.89" gradientTransform="translate(4326.65 19031.81) rotate(180)" xlink:href="#linear-gradient-2"/><linearGradient id="linear-gradient-45" x1="4220.9" y1="18901.66" x2="4222.99" y2="18901.66" gradientTransform="translate(4326.65 19031.81) rotate(180)" xlink:href="#linear-gradient-2"/><linearGradient id="linear-gradient-46" x1="138.36" y1="167" x2="120.79" y2="159.08" xlink:href="#linear-gradient-2"/><linearGradient id="linear-gradient-47" x1="4340.47" y1="171.81" x2="4313.75" y2="157.74" gradientTransform="matrix(-1, 0, 0, 1, 4418.84, 0)" xlink:href="#linear-gradient-2"/><linearGradient id="linear-gradient-48" x1="137.2" y1="167.35" x2="139.28" y2="167.35" xlink:href="#linear-gradient-2"/><linearGradient id="linear-gradient-49" x1="3889.39" y1="165.05" x2="3876.46" y2="159.22" gradientTransform="matrix(-1, 0, 0, 1, 3986.97, 0)" xlink:href="#linear-gradient-2"/><linearGradient id="linear-gradient-50" x1="3888.53" y1="165.16" x2="3890.61" y2="165.16" gradientTransform="matrix(-1, 0, 0, 1, 3986.97, 0)" xlink:href="#linear-gradient-2"/><linearGradient id="linear-gradient-51" x1="556.35" y1="176.18" x2="558.43" y2="176.18" gradientTransform="translate(-427.14)" xlink:href="#linear-gradient-2"/><linearGradient id="linear-gradient-52" x1="4338.36" y1="172.39" x2="4340.44" y2="172.39" gradientTransform="matrix(-1, 0, 0, 1, 4418.84, 0)" xlink:href="#linear-gradient-2"/><linearGradient id="linear-gradient-53" x1="64.26" y1="140.41" x2="131.56" y2="140.41" xlink:href="#linear-gradient-2"/><linearGradient id="linear-gradient-54" x1="129.94" y1="175.34" x2="115.71" y2="161.4" xlink:href="#linear-gradient-2"/><linearGradient id="linear-gradient-55" x1="79.32" y1="75.42" x2="123.27" y2="75.42" xlink:href="#linear-gradient-2"/><linearGradient id="linear-gradient-56" x1="71.28" y1="80.11" x2="117.66" y2="80.11" gradientUnits="userSpaceOnUse"><stop offset="0" stop-color="#38c5ea"/><stop offset="1" stop-color="#294688"/></linearGradient><linearGradient id="linear-gradient-57" x1="72.01" y1="80.11" x2="116.94" y2="80.11" gradientUnits="userSpaceOnUse"><stop offset="0.43" stop-color="#eef6fb"/><stop offset="1" stop-color="#abd1ec"/></linearGradient><linearGradient id="linear-gradient-58" x1="124.4" y1="63.77" x2="118.62" y2="63.52" xlink:href="#linear-gradient-56"/><linearGradient id="linear-gradient-59" x1="121.35" y1="63.68" x2="122.99" y2="63.68" xlink:href="#linear-gradient"/><linearGradient id="linear-gradient-60" x1="72.01" y1="80.11" x2="116.94" y2="80.11" gradientUnits="userSpaceOnUse"><stop offset="0" stop-color="#abd1ec"/><stop offset="1" stop-color="#abd1ec"/></linearGradient><linearGradient id="New_Gradient_Swatch_1" x1="89.36" y1="127.52" x2="91.83" y2="92.45" gradientUnits="userSpaceOnUse"><stop offset="0" stop-color="#fff"/><stop offset="1"/></linearGradient><linearGradient id="linear-gradient-61" x1="110.08" y1="15.88" x2="94.11" y2="34.15" xlink:href="#linear-gradient-56"/><linearGradient id="linear-gradient-62" x1="61.59" y1="90.98" x2="157.81" y2="69.41" xlink:href="#linear-gradient-2"/><linearGradient id="linear-gradient-63" x1="70.73" y1="35.67" x2="112.22" y2="35.67" xlink:href="#linear-gradient"/><linearGradient id="linear-gradient-64" x1="104.26" y1="37.58" x2="83.85" y2="76.46" gradientUnits="userSpaceOnUse"><stop offset="0" stop-color="#eef6fb" stop-opacity="0"/><stop offset="0.23" stop-color="#daebf6" stop-opacity="0.21"/><stop offset="0.48" stop-color="#c6e0f2" stop-opacity="0.42"/><stop offset="0.7" stop-color="#b7d8ef" stop-opacity="0.57"/><stop offset="0.88" stop-color="#aed3ed" stop-opacity="0.67"/><stop offset="1" stop-color="#abd1ec" stop-opacity="0.7"/></linearGradient><linearGradient id="linear-gradient-65" x1="88.26" y1="68.07" x2="86.68" y2="71.07" gradientUnits="userSpaceOnUse"><stop offset="0" stop-color="#684392"/><stop offset="1" stop-color="#3d065f"/></linearGradient><linearGradient id="linear-gradient-66" x1="86.76" y1="69.57" x2="85.19" y2="72.57" xlink:href="#linear-gradient-65"/><linearGradient id="linear-gradient-67" x1="85.27" y1="71.07" x2="83.69" y2="74.07" xlink:href="#linear-gradient-65"/><linearGradient id="linear-gradient-68" x1="83.77" y1="72.58" x2="82.2" y2="75.57" xlink:href="#linear-gradient-65"/><linearGradient id="linear-gradient-69" x1="88.26" y1="67.84" x2="86.68" y2="70.84" gradientUnits="userSpaceOnUse"><stop offset="0" stop-color="#f57454"/><stop offset="1" stop-color="#f7947c"/></linearGradient><linearGradient id="linear-gradient-70" x1="86.76" y1="69.34" x2="85.19" y2="72.34" xlink:href="#linear-gradient-69"/><linearGradient id="linear-gradient-71" x1="85.27" y1="70.84" x2="83.69" y2="73.84" xlink:href="#linear-gradient-69"/><linearGradient id="linear-gradient-72" x1="83.77" y1="72.34" x2="82.2" y2="75.34" xlink:href="#linear-gradient-69"/><linearGradient id="linear-gradient-73" x1="78.19" y1="54.29" x2="103.45" y2="54.29" xlink:href="#linear-gradient"/><linearGradient id="linear-gradient-74" x1="81.61" y1="55.4" x2="100.53" y2="55.4" gradientUnits="userSpaceOnUse"><stop offset="0.05" stop-color="#14416a"/><stop offset="1" stop-color="#004f98"/></linearGradient><linearGradient id="linear-gradient-75" x1="80.88" y1="41.25" x2="101.01" y2="69.19" xlink:href="#linear-gradient-56"/><linearGradient id="linear-gradient-76" x1="63.83" y1="96.77" x2="98.56" y2="96.77" xlink:href="#linear-gradient-2"/><linearGradient id="linear-gradient-77" x1="98.56" y1="82.58" x2="112.22" y2="82.58" xlink:href="#linear-gradient-2"/><linearGradient id="linear-gradient-78" x1="69.12" y1="50.99" x2="112.11" y2="65.55" xlink:href="#linear-gradient"/><linearGradient id="linear-gradient-79" x1="63.83" y1="60.63" x2="105.5" y2="60.63" xlink:href="#linear-gradient-64"/><radialGradient id="Radial_Gradient_1" cx="95.73" cy="52.84" r="14.49" gradientTransform="translate(-10.21 -20.48) scale(1.13 1.22)" xlink:href="#New_Gradient_Swatch_1"/><radialGradient id="New_Gradient_Swatch_copy" cx="-5250.87" cy="-23657.55" r="18.67" gradientTransform="matrix(0, 1.15, -0.26, 0.02, -5937.46, 6580.15)" gradientUnits="userSpaceOnUse"><stop offset="0" stop-color="#972a74"/><stop offset="0.04" stop-color="#8a266a"/><stop offset="0.19" stop-color="#601b4a"/><stop offset="0.35" stop-color="#3d112f"/><stop offset="0.51" stop-color="#230a1b"/><stop offset="0.67" stop-color="#0f040c"/><stop offset="0.83" stop-color="#040103"/><stop offset="1"/></radialGradient><linearGradient id="linear-gradient-80" x1="87.57" y1="55.69" x2="94.48" y2="55.69" gradientUnits="userSpaceOnUse"><stop offset="0" stop-color="#fab371"/><stop offset="1" stop-color="#fcd5b0"/></linearGradient><linearGradient id="linear-gradient-81" x1="66.31" y1="99.16" x2="96.08" y2="99.16" xlink:href="#linear-gradient-56"/><linearGradient id="linear-gradient-82" x1="82.23" y1="97.46" x2="78.98" y2="102.76" xlink:href="#linear-gradient-74"/><linearGradient id="linear-gradient-83" x1="84.39" y1="95.08" x2="96.03" y2="95.08" xlink:href="#linear-gradient-56"/><radialGradient id="New_Gradient_Swatch_copy_14" cx="87.76" cy="93.26" r="3.9" gradientTransform="translate(-10.21 -20.48) scale(1.13 1.22)" gradientUnits="userSpaceOnUse"><stop offset="0" stop-color="#2af6ff"/><stop offset="1" stop-color="#138bbd"/></radialGradient><linearGradient id="linear-gradient-84" x1="90.76" y1="93.52" x2="89.05" y2="96.31" xlink:href="#linear-gradient-74"/><linearGradient id="New_Gradient_Swatch_1-2" x1="91.75" y1="102.61" x2="86.86" y2="92.85" xlink:href="#New_Gradient_Swatch_1"/><linearGradient id="linear-gradient-85" x1="77.32" y1="96.87" x2="95.16" y2="96.87" xlink:href="#linear-gradient-80"/><linearGradient id="linear-gradient-86" x1="-7712.41" y1="1186.59" x2="-7709.89" y2="1186.59" gradientTransform="matrix(0.87, 0.5, -1, 0.58, 7949.99, 3270.65)" xlink:href="#linear-gradient-69"/><linearGradient id="linear-gradient-87" x1="-7712.47" y1="1185.4" x2="-7709.95" y2="1185.4" gradientTransform="matrix(0.87, 0.5, -1, 0.58, 7949.99, 3270.65)" xlink:href="#linear-gradient-69"/></defs><g class="cls-1"><g id="Usecase:_Self-service_Kiosk" data-name="Usecase: Self-service Kiosk"><path class="cls-2" d="M39.51,168.13a29.06,29.06,0,0,0,4.28-.24c2.08-.3,7.81-.37,7.86,1.39s-2.65,4.84-6.33,5.87-8.57,1-11,1.5-4.28-1.28-3.5-3.42S39.51,168.13,39.51,168.13Z"/><path class="cls-3" d="M28.81,164.63s-.67,1.22-.35,2,1.18,2.53,4,.64,8.22-4.6,8.22-4.6,3.08-2,2.89-4.14-3-1.72-3-1.72Z"/><path class="cls-4" d="M46.76,133.63s-1,13.72-3.48,19.08-3.18,15.58-3.72,17.54-2.21,4.86-4.87,5.57-3.11-1.34-3-2.58.88-3.25.89-4.58a15.58,15.58,0,0,0-.3-2.53s-3,1.13-3.49-1.5a9.86,9.86,0,0,0,.29-1.18c0-.39-.22-9.85-.29-11a53,53,0,0,1,1.34-10.24c.83-3,.57-9.14.57-9.14l8.39-1.55Z"/><path class="cls-5" d="M30.15,142.22c.83-3,.57-9.14.57-9.14l.74-.14c0,.85.19,6.29-.56,9a53.22,53.22,0,0,0-1.32,10.22c.07,1.13.34,10.58.3,11a8.3,8.3,0,0,1-.29,1.17c.46,2.63,3.49,1.5,3.49,1.5a14.25,14.25,0,0,1,.31,2.53c0,1.33-.75,3.34-.88,4.57s.31,3.29,3,2.58l.24-.1a4.93,4.93,0,0,1-1,.42c-2.68.71-3.11-1.34-3-2.58s.88-3.25.89-4.58a17.62,17.62,0,0,0-.3-2.65s-3,1.25-3.49-1.38a9.86,9.86,0,0,0,.29-1.18c0-.39-.22-9.85-.29-11A53,53,0,0,1,30.15,142.22Z"/><path class="cls-2" d="M33.21,134a11,11,0,0,0,.84,3.88,83.75,83.75,0,0,0,.67,11s-1.1,7.61-1.8,10a33,33,0,0,0-.62,7.22,2.76,2.76,0,0,1-.84.2c-.5,0-.51-9.37.25-11.05s1.32-8.87,1-11-.17-8.26-.54-9.33a1.45,1.45,0,0,1,.46-1.64Z"/><path class="cls-2" d="M40,86.88a6.11,6.11,0,0,1,2.25,4.83l-1.74-.35S41,87.92,40,86.88Z"/><path class="cls-2" d="M39.34,136.74c-5.58.37-8.58-2.25-8.58-2.25,0-.86,0-1.41,0-1.41l8.39-1.55,7.65,2.1s-.2,2.68-.64,6.14c-1.36.2-2.74-3.45-2.74-3.45l-3.81.39S44.9,136.38,39.34,136.74Z"/><path class="cls-6" d="M45.69,133.87s-12.08,5.83-17.92-4.29a2,2,0,0,1-.23-1l.09-2.37a2.87,2.87,0,0,0-.11-.88h0a4.1,4.1,0,0,1-.11-1.88c.46-2.64,1.71-9.76,2-11.72.35-2.38-.77-11.73-2.7-15.71s3.05-12.74,3.05-12.74a3.18,3.18,0,0,1,3.54-1.4s-2.24,1.68-1,3.38,4.91,3,4.91,3,6.81,3.58,9.19,8.09a20.12,20.12,0,0,1,.93,5.4c.11,3.08-.12,10.56,0,11.6s.59,8.28.55,8.62S45.69,133.87,45.69,133.87Z"/><path class="cls-2" d="M32.21,83.15a1.79,1.79,0,0,1,0-1.37,3,3,0,0,1,1,.1A4.4,4.4,0,0,0,32.21,83.15Z"/><path class="cls-2" d="M42,135.09s-7.14-20.57-6.82-27.95c.31-7.09,10.29,14.35,10.29,14.35l.18,12.38A20.92,20.92,0,0,1,42,135.09Z"/><path class="cls-5" d="M27.73,123.29a2.77,2.77,0,0,1,.11.87l-.09,2.35a1.89,1.89,0,0,0,.23,1c5.81,10,17.83,4.25,17.83,4.25s1.55-8.25,2-10.9c0,.64,0,1.09,0,1.17,0,.34-2.19,11.86-2.19,11.86s-12.08,5.83-17.92-4.29a2,2,0,0,1-.23-1l.09-2.37a2.87,2.87,0,0,0-.11-.88,4.1,4.1,0,0,1-.11-1.88c.05-.28.11-.61.17-1A3.73,3.73,0,0,0,27.73,123.29Z"/><path class="cls-2" d="M26.9,94.27c1.93,3.94,3.05,13.2,2.7,15.56,0,.21-.08.5-.13.83,0-3.39-1-11.11-2.76-14.64a7,7,0,0,1-.22-4.17A5.14,5.14,0,0,0,26.9,94.27Z"/><path class="cls-7" d="M45.62,110.54a35.73,35.73,0,0,1-.46-4.93c-.06-2.85-.85-7.52-5.63-6.59-6.79,1.31-3.86,11.48-3.11,13.27s3.82,10,4,10.48,5,10.82,6.79,13.32a.4.4,0,0,0,.63.07c.69-.68,2.23-2.29,2.42-3.28.25-1.27-.82-5.8-.82-5.8s-2.82-11.16-3.05-11.67S46.06,113.21,45.62,110.54Z"/><path class="cls-8" d="M39.9,87.11a2.42,2.42,0,0,1,1.75-1.44c1.23-.16,1.92-.54,2-1a9.77,9.77,0,0,1,.41-1.77,12.93,12.93,0,0,0,.51-2.49s.92-.35,1-.78-.45-1.94-.4-2.06a3.94,3.94,0,0,0,.46-1.78,8.84,8.84,0,0,0-.55-2.63c-.38-.87-3-6.14-9.64-3.29s-1.62,8.76-2.3,12.66c0,0-.61.84.51,2.22S38,86.35,39.9,87.11Z"/><path class="cls-9" d="M33.65,84.73c-1.12-1.38-.51-2.22-.51-2.22a5.29,5.29,0,0,0,0-1.73l2.68.48s3.92-3.75,3.65-1.78.69,2.31.69,2.31l-.8,1.09a.79.79,0,0,0,.09.91c1.14,2,3.87,1.35,3.88,1.35a3.84,3.84,0,0,1-1.67.53,2.42,2.42,0,0,0-1.75,1.44C38,86.35,34.78,86.11,33.65,84.73Z"/><path class="cls-10" d="M45.35,71.1s.48,1.42-.27,2-1.43,1.2-1.43,1.2l0,1.82a1.38,1.38,0,0,1-.21.74l-.94,1.56a2,2,0,0,0-.28,1v.75a.43.43,0,0,1-.36.44l-.25,0a.41.41,0,0,1-.45-.38l-.11-1s-.51-.82-1.61.2l-1,.44a1.17,1.17,0,0,0-.6.67,7.66,7.66,0,0,1-1.31,2.69c-.61.38-3-.85-3.26-1.4s-1.1-4.26-1.58-6a5.9,5.9,0,0,1,4.79-7.23C41.45,67.45,44.65,69.57,45.35,71.1Z"/><path class="cls-11" d="M33.3,81.88c-.32-.55-1.1-4.26-1.58-6a11.74,11.74,0,0,0,4.45,1.66c2.53.35,7.48-2.7,7.48-2.7l0,1.34a1.38,1.38,0,0,1-.21.74l-.94,1.56a2,2,0,0,0-.28,1v.75a.43.43,0,0,1-.36.44l-.25,0a.41.41,0,0,1-.45-.38l-.11-1s-.51-.82-1.61.2L38,80.12s-.87,2.79-1.47,3.16S33.61,82.43,33.3,81.88Z"/><path class="cls-12" d="M33.2,82.06s-2,1.31-1,3.09S40.34,90,40.7,90.51c0,0,.26-2.73-.69-3.63,0,0-5.46-1-6.3-2.44A3,3,0,0,1,33.2,82.06Z"/><path class="cls-13" d="M33.2,82.06a3,3,0,0,0,.51,2.38c.64,1.09,3.92,1.93,5.48,2.27h0a6.17,6.17,0,0,0-1.55,2.13c-2.19-1.16-4.86-2.64-5.43-3.69C31.23,83.37,33.2,82.06,33.2,82.06Z"/><path class="cls-2" d="M31.86,87.86s3.18,1.86,4.74,2.7,3.26,2,3.26,2l.59-.64.73,1.65a20.81,20.81,0,0,1,3.62,2.78A13.2,13.2,0,0,1,47,99.68s-3.1-4.2-5.52-5.41l-.65-.34-.38-1.31-.59.68S32.83,89,31.86,87.86Z"/><path class="cls-8" d="M50.05,132.77a18.68,18.68,0,0,1,.38,3.32,4.34,4.34,0,0,1-2,2.27c-.7.26-.42-.67-.59-1.24a9.42,9.42,0,0,1-.15-1.83Z"/><path class="cls-9" d="M47.73,135.29l2.32-2.52s.1.55.2,1.2a6.4,6.4,0,0,1-2.43,2.85A11.27,11.27,0,0,1,47.73,135.29Z"/><path class="cls-2" d="M50.22,133s-.79,2.89-2.87,3.23L48,133s1.75-.61,1.8-.61S50.22,133,50.22,133Z"/><path class="cls-5" d="M36.56,100.68c-1.88,6.21,2.91,15.79,3.62,18.63s8.18,16.29,8.18,16.3h0l.07.14a5.31,5.31,0,0,1-.48.38,1.72,1.72,0,0,1-.33.14h0a.38.38,0,0,1-.42-.18c-1.75-2.5-6.64-12.88-6.79-13.32s-3.22-8.68-4-10.48C35.81,110.86,33.8,104,36.56,100.68Z"/><g class="cls-14"><polygon class="cls-15" points="81.48 120.21 81.81 119.61 76.13 116.02 70.86 115.57 64.99 111.95 64.67 112.56 70.67 116.25 75.93 116.7 81.48 120.21"/><path class="cls-16" d="M63.75,112.38a1.53,1.53,0,0,0,1.47,0,.5.5,0,0,0,0-.92,1.51,1.51,0,0,0-1.47,0A.5.5,0,0,0,63.75,112.38Z"/><polygon class="cls-17" points="82.76 161.27 82.46 160.66 89.69 156.47 90.96 152.59 95.57 149.77 95.89 150.37 91.48 153.07 90.21 156.96 82.76 161.27"/><path class="cls-18" d="M82.87,161.62a1.53,1.53,0,0,1-1.48,0,.5.5,0,0,1,0-.92,1.53,1.53,0,0,1,1.47,0A.5.5,0,0,1,82.87,161.62Z"/><polygon class="cls-19" points="101.39 172.22 101.05 171.64 105.65 168.47 106.37 165.75 113.94 161.19 114.25 161.8 106.92 166.22 106.2 168.91 101.39 172.22"/><polygon class="cls-20" points="66.06 159.71 65.75 159.11 71.74 155.37 79.79 155.54 92.24 147.89 92.55 148.49 79.96 156.24 71.91 156.07 66.06 159.71"/><path class="cls-21" d="M64.51,160.19a1.48,1.48,0,0,0,1.47,0,.5.5,0,0,0,0-.92,1.53,1.53,0,0,0-1.47,0A.5.5,0,0,0,64.51,160.19Z"/><polygon class="cls-22" points="57.48 132.35 57.16 131.75 59.68 130.18 64.52 133.04 66.87 131.59 67.17 132.21 64.52 133.83 59.69 130.97 57.48 132.35"/><polygon class="cls-23" points="72.98 123.96 62 116.97 56.49 117.74 49.34 113.35 49.66 112.75 56.62 117.02 62.14 116.26 62.23 116.31 73.48 123.34 72.98 123.96"/><polygon class="cls-24" points="56.92 126.84 51.3 123.36 51.62 122.77 56.91 126.04 61.24 123.2 67.51 126.89 67.21 127.5 61.26 123.99 56.92 126.84"/><polygon class="cls-25" points="75.14 149.36 75.14 148.66 80.72 148.62 83.2 147.16 85.83 147.16 88.3 145.51 88.64 146.1 86.01 147.85 83.37 147.85 80.88 149.31 75.14 149.36"/><polygon class="cls-26" points="93.55 160.12 93.26 159.5 97.22 157.29 97.22 155.3 101 153.03 101.31 153.63 97.86 155.71 97.86 157.72 93.55 160.12"/><polygon class="cls-27" points="78.82 143.14 78.49 142.54 81.14 140.85 81.46 141.45 78.82 143.14"/><path class="cls-28" d="M99.72,172.55a1.53,1.53,0,0,0,1.47,0,.5.5,0,0,0,0-.92,1.5,1.5,0,0,0-1.48,0A.5.5,0,0,0,99.72,172.55Z"/><ellipse class="cls-29" cx="74.65" cy="149.13" rx="1.04" ry="0.65" transform="translate(-0.95 0.48) rotate(-0.37)"/><path class="cls-30" d="M55.82,132.67a1.53,1.53,0,0,0,1.47,0,.5.5,0,0,0,0-.92,1.48,1.48,0,0,0-1.47,0A.5.5,0,0,0,55.82,132.67Z"/><path class="cls-31" d="M50.22,123.36a1.51,1.51,0,0,0,1.47,0,.5.5,0,0,0,0-.92,1.55,1.55,0,0,0-1.48,0A.51.51,0,0,0,50.22,123.36Z"/><path class="cls-32" d="M48.21,113.09a1.48,1.48,0,0,0,1.47,0,.5.5,0,0,0,0-.92,1.53,1.53,0,0,0-1.47,0A.5.5,0,0,0,48.21,113.09Z"/><path class="cls-33" d="M91.9,160.43a1.55,1.55,0,0,0,1.48,0,.5.5,0,0,0,0-.92,1.48,1.48,0,0,0-1.47,0A.5.5,0,0,0,91.9,160.43Z"/><path class="cls-34" d="M77.16,143.46a1.53,1.53,0,0,0,1.47,0,.5.5,0,0,0,0-.92,1.51,1.51,0,0,0-1.47,0A.5.5,0,0,0,77.16,143.46Z"/><polygon class="cls-35" points="135.24 129.29 135.54 129.9 128.31 134.08 127.04 137.96 118.91 142.64 118.59 142.03 126.52 137.49 127.79 133.6 135.24 129.29"/><path class="cls-36" d="M135.19,128.82a1.53,1.53,0,0,1,1.47,0,.5.5,0,0,1,0,.92,1.48,1.48,0,0,1-1.47,0A.5.5,0,0,1,135.19,128.82Z"/><polygon class="cls-37" points="125.6 130.3 125.95 130.88 121.34 134.06 120.62 136.78 114.71 140.08 114.39 139.47 120.08 136.31 120.8 133.62 125.6 130.3"/><polygon class="cls-38" points="150.96 131.96 151.28 132.56 145.28 136.31 137.23 136.13 122.3 145.38 121.98 144.78 137.07 135.44 145.12 135.61 150.96 131.96"/><path class="cls-39" d="M152.51,131.48a1.53,1.53,0,0,0-1.47,0,.5.5,0,0,0,0,.92,1.5,1.5,0,0,0,1.48,0A.5.5,0,0,0,152.51,131.48Z"/><polygon class="cls-40" points="113.94 133.77 114.27 134.37 109.69 137.3 109.37 136.7 113.94 133.77"/><polygon class="cls-41" points="145 147.01 145.32 147.61 139.71 151.09 134.87 148.22 130.62 150.69 130.31 150.08 134.87 147.44 139.7 150.29 145 147.01"/><polygon class="cls-42" points="126.88 155.19 136.49 161.25 142 160.48 151.7 166.49 151.39 167.1 141.87 161.2 136.35 161.97 136.26 161.91 125.87 155.46 126.88 155.19"/><polygon class="cls-43" points="136.55 152.09 140.46 154.53 140.14 155.13 136.56 152.89 132.23 155.74 128.73 153.72 129.03 153.11 132.21 154.94 136.55 152.09"/><polygon class="cls-44" points="139.39 143.91 139.39 144.61 133.82 144.65 131.33 146.11 128.71 146.11 126.23 147.76 125.9 147.17 128.53 145.42 131.17 145.42 133.65 143.96 139.39 143.91"/><polygon class="cls-45" points="114.16 128.76 114.45 129.38 110.49 131.59 110.49 133.58 106.71 135.86 106.4 135.25 109.85 133.18 109.85 131.17 114.16 128.76"/><polygon class="cls-46" points="103.79 130 104.11 130.6 101.47 132.29 101.14 131.69 103.79 130"/><path class="cls-47" d="M127.28,130a1.5,1.5,0,0,0-1.48,0,.5.5,0,0,0,0,.92,1.53,1.53,0,0,0,1.47,0A.5.5,0,0,0,127.28,130Z"/><path class="cls-48" d="M140.62,143.68a1.51,1.51,0,0,0-1.47,0,.5.5,0,0,0,0,.92,1.51,1.51,0,0,0,1.47,0A.5.5,0,0,0,140.62,143.68Z"/><path class="cls-49" d="M115.56,133.3a1.51,1.51,0,0,0-1.47,0,.5.5,0,0,0,0,.92,1.51,1.51,0,0,0,1.47,0A.5.5,0,0,0,115.56,133.3Z"/><path class="cls-50" d="M146.66,146.69a1.53,1.53,0,0,0-1.47,0,.51.51,0,0,0,0,.93,1.53,1.53,0,0,0,1.48,0A.5.5,0,0,0,146.66,146.69Z"/><path class="cls-51" d="M141.54,154.54a1.53,1.53,0,0,0-1.47,0,.5.5,0,0,0,0,.92,1.5,1.5,0,0,0,1.48,0A.5.5,0,0,0,141.54,154.54Z"/><path class="cls-52" d="M152.84,166.75a1.48,1.48,0,0,0-1.47,0,.5.5,0,0,0,0,.92,1.53,1.53,0,0,0,1.47,0A.5.5,0,0,0,152.84,166.75Z"/><path class="cls-53" d="M115.81,128.46a1.5,1.5,0,0,0-1.48,0,.5.5,0,0,0,0,.92,1.53,1.53,0,0,0,1.47,0A.5.5,0,0,0,115.81,128.46Z"/><path class="cls-54" d="M105.45,129.68a1.51,1.51,0,0,0-1.47,0,.5.5,0,0,0,0,.92,1.51,1.51,0,0,0,1.47,0A.5.5,0,0,0,105.45,129.68Z"/><polygon class="cls-55" points="137.42 167.33 129.72 162.49 125.51 162.59 120.05 159.18 120.36 158.57 125.67 161.89 129.88 161.79 137.74 166.73 137.42 167.33"/><polygon class="cls-56" points="80.22 172.35 92.98 163.39 96.41 163.14 106.06 156.85 105.73 156.25 96.21 162.46 92.78 162.71 79.87 171.77 80.22 172.35"/><path class="cls-57" d="M139,167.81a1.55,1.55,0,0,1-1.48,0,.5.5,0,0,1,0-.92,1.51,1.51,0,0,1,1.47,0A.5.5,0,0,1,139,167.81Z"/><polygon class="cls-58" points="98.21 165.14 103.68 161.68 107.89 161.78 111.27 159.78 110.96 159.17 107.73 161.08 103.52 160.99 97.89 164.54 98.21 165.14"/><path class="cls-59" d="M96.66,165.62a1.53,1.53,0,0,0,1.47,0,.5.5,0,0,0,0-.92,1.5,1.5,0,0,0-1.48,0A.5.5,0,0,0,96.66,165.62Z"/><path class="cls-60" d="M131,176.64a1.53,1.53,0,0,1-1.47,0,.5.5,0,0,1,0-.92,1.51,1.51,0,0,1,1.47,0A.5.5,0,0,1,131,176.64Z"/><path class="cls-61" d="M78.71,172.85a1.53,1.53,0,0,0,1.47,0,.5.5,0,0,0,0-.92,1.48,1.48,0,0,0-1.47,0A.5.5,0,0,0,78.71,172.85Z"/><path class="cls-62" d="M115.1,161.94a3.31,3.31,0,0,1-1.77-.51L65,131.23a1.63,1.63,0,0,1-.74-1.37,1.61,1.61,0,0,1,.74-1.38l15-9.39a1.39,1.39,0,0,1,1.47,0l49.37,30.85a1.61,1.61,0,0,1,.74,1.37,1.59,1.59,0,0,1-.74,1.37l-13.95,8.75A3.31,3.31,0,0,1,115.1,161.94ZM80.72,119.8a.59.59,0,0,0-.31.09l-15,9.39a.68.68,0,0,0-.3.58.66.66,0,0,0,.3.57l48.34,30.2a2.54,2.54,0,0,0,2.68,0l14-8.75a.69.69,0,0,0,0-1.14L81,119.89A.59.59,0,0,0,80.72,119.8Z"/><polygon class="cls-63" points="129.71 176.39 120.09 170.54 125.11 167.08 116.05 161.44 116.39 160.8 126.42 167.05 121.42 170.5 130.04 175.74 129.71 176.39"/></g><g class="cls-64"><path class="cls-65" d="M119.33,160.69a7.25,7.25,0,0,1-3.83-1L92.21,145.34,68.92,131a4.44,4.44,0,0,1-2.2-3.79,5.13,5.13,0,0,1,2.65-4.31l15.24-9.28a8.86,8.86,0,0,1,4.66-1.28,7.16,7.16,0,0,1,3.83,1l23.29,14.34L139.68,142a4.43,4.43,0,0,1,2.2,3.79,5.16,5.16,0,0,1-2.65,4.31L124,159.41A9,9,0,0,1,119.33,160.69Z"/><path class="cls-66" d="M69.78,123.25l4.12-2.48c.17-.11,7.83-4.63,8-4.54l2.78-1.47a8.82,8.82,0,0,1,4.49-1,7.39,7.39,0,0,1,3.7,1l18.7,11.52,3.92,2.42,22.62,13.95a5,5,0,0,1,1.79,1.91,4.21,4.21,0,0,1,.44,1.71,4.89,4.89,0,0,1-2.53,4.19L133.66,153c-.16.1-7.83,4.62-8,4.53L122.91,159a8.92,8.92,0,0,1-4.49,1,7.45,7.45,0,0,1-3.7-1L96,147.43,92.1,145,69.47,131.06a4.92,4.92,0,0,1-1.78-1.91,4.17,4.17,0,0,1-.44-1.71A4.87,4.87,0,0,1,69.78,123.25Z"/><path class="cls-67" d="M70.19,123.61l4-2.4c.33-.21,7.51-4.29,7.8-4.11l2.69-1.21c1.08-.67,3-.72,4.33-.72a7.72,7.72,0,0,1,3.56,1.08l18.15,11.2,3.8,2.35,22,13.55a5.35,5.35,0,0,1,1.76,1.82,3.9,3.9,0,0,1,.48,1.63,4.55,4.55,0,0,1-2.41,4.07l-4,2.4c-.34.21-7.51,4.29-7.8,4.11l-2.69,1.2c-1.09.68-3,.73-4.33.73a7.68,7.68,0,0,1-3.56-1.08L95.79,147,92,144.68,70,131.13a5.58,5.58,0,0,1-1.77-1.82,4.1,4.1,0,0,1-.48-1.63A4.59,4.59,0,0,1,70.19,123.61Z"/><path class="cls-68" d="M70.61,124l3.9-2.31c.5-.31,7.19-4,7.63-3.68l2.61-.94c1-.6,2.94-.45,4.16-.45a8,8,0,0,1,3.43,1.13l17.6,10.87,3.68,2.28L134.92,144a6.14,6.14,0,0,1,1.75,1.73,4.12,4.12,0,0,1,.52,1.55,4.3,4.3,0,0,1-2.29,4l-3.9,2.31c-.51.32-7.2,4-7.63,3.69l-2.61.93c-1,.6-2.94.45-4.17.45a8,8,0,0,1-3.42-1.13l-17.6-10.87-3.68-2.27-21.3-13.16a6.14,6.14,0,0,1-1.75-1.73,3.76,3.76,0,0,1-.52-1.54A4.29,4.29,0,0,1,70.61,124Z"/><path class="cls-69" d="M71,124.32l3.79-2.22c.67-.42,6.88-3.63,7.46-3.26l2.52-.67c.84-.53,2.93-.17,4-.17a8.45,8.45,0,0,1,3.29,1.17l17,10.54,3.57,2.2,20.63,12.77a6.76,6.76,0,0,1,1.73,1.63,4.09,4.09,0,0,1,.57,1.47,4,4,0,0,1-2.17,3.83l-3.8,2.22c-.67.42-6.87,3.63-7.46,3.26l-2.52.67c-.84.53-2.93.17-4,.17a8.5,8.5,0,0,1-3.29-1.17l-17-10.54L91.78,144,71.14,131.25a6.88,6.88,0,0,1-1.72-1.63,3.85,3.85,0,0,1-.57-1.47A4,4,0,0,1,71,124.32Z"/><path class="cls-70" d="M71.43,124.67l3.68-2.13c.85-.52,6.56-3.29,7.29-2.83l2.44-.4c.72-.45,2.92.11,3.83.11a9.39,9.39,0,0,1,3.16,1.2l16.5,10.22,3.44,2.13,20,12.37a7.65,7.65,0,0,1,1.7,1.54,3.89,3.89,0,0,1,.61,1.39A3.74,3.74,0,0,1,132,152l-3.68,2.14c-.84.52-6.56,3.28-7.29,2.83l-2.44.4c-.72.45-2.91-.11-3.83-.11a9.14,9.14,0,0,1-3.15-1.21l-16.5-10.21-3.45-2.14-20-12.36a7.92,7.92,0,0,1-1.7-1.54,4,4,0,0,1-.62-1.39A3.78,3.78,0,0,1,71.43,124.67Z"/><path class="cls-71" d="M71.84,125l3.58-2c1-.64,6.24-3,7.11-2.41l2.35-.14c.61-.37,2.91.39,3.68.39a10.18,10.18,0,0,1,3,1.25l16,9.89,3.33,2.06,19.31,12a9.91,9.91,0,0,1,1.68,1.45,4.15,4.15,0,0,1,.66,1.31,3.49,3.49,0,0,1-1.93,3.59L127,154.4c-1,.63-6.24,2.95-7.12,2.41l-2.35.13c-.6.38-2.91-.39-3.67-.39a10.24,10.24,0,0,1-3-1.25l-16-9.89-3.32-2.06-19.32-12a9.09,9.09,0,0,1-1.68-1.45,4.21,4.21,0,0,1-.66-1.3A3.5,3.5,0,0,1,71.84,125Z"/><path class="cls-72" d="M72.26,125.38l3.46-1.95c1.18-.74,5.92-2.62,6.94-2l2.27.13c.48-.3,2.9.67,3.51.67a11.89,11.89,0,0,1,2.88,1.29l15.39,9.56,3.21,2,18.65,11.58a11.1,11.1,0,0,1,1.66,1.35,4.3,4.3,0,0,1,.71,1.23c.31,1.22-.33,2.55-1.82,3.48l-3.46,2c-1.18.74-5.92,2.62-6.94,2l-2.27-.13c-.48.3-2.89-.67-3.51-.67a12.07,12.07,0,0,1-2.88-1.29L94.67,145l-3.21-2L72.81,131.44a11.1,11.1,0,0,1-1.66-1.35,4.3,4.3,0,0,1-.71-1.23C70.13,127.63,70.77,126.31,72.26,125.38Z"/><path class="cls-73" d="M72.67,125.74,76,123.87c1.35-.84,5.61-2.28,6.77-1.55l2.19.4c.36-.23,2.88.94,3.34.94A14.5,14.5,0,0,1,91.06,125l14.85,9.23,3.09,1.92,18,11.18a10.37,10.37,0,0,1,1.63,1.26,2.61,2.61,0,0,1,.75,1.15c.36,1.16-.23,2.45-1.69,3.36L124.33,155c-1.35.84-5.61,2.29-6.77,1.56l-2.19-.4c-.36.22-2.88-1-3.34-1a14.47,14.47,0,0,1-2.74-1.33l-14.85-9.23-3.09-1.92-18-11.18a10.42,10.42,0,0,1-1.63-1.27A2.64,2.64,0,0,1,71,129.1C70.61,127.94,71.21,126.65,72.67,125.74Z"/><path class="cls-74" d="M73.08,126.09l3.24-1.77c1.52-.95,5.29-1.95,6.6-1.13l2.1.67c.24-.15,2.87,1.22,3.18,1.22a21.55,21.55,0,0,1,2.61,1.37l14.29,8.91,3,1.85L125.4,148a15.5,15.5,0,0,1,1.61,1.17,2.52,2.52,0,0,1,.8,1.07c.41,1.09-.14,2.35-1.57,3.24L123,155.24c-1.52.95-5.29,2-6.6,1.14l-2.1-.67c-.24.15-2.88-1.23-3.18-1.23a20.22,20.22,0,0,1-2.61-1.37l-14.29-8.9-3-1.85L73.92,131.57a14,14,0,0,1-1.62-1.17,2.49,2.49,0,0,1-.79-1.07C71.1,128.24,71.65,127,73.08,126.09Z"/><path class="cls-75" d="M73.5,126.45l3.13-1.69c1.68-1.05,5-1.62,6.42-.7l2,.93c.12-.07,2.86,1.5,3,1.5s2.38,1.36,2.47,1.42l13.75,8.57,2.85,1.78,16.66,10.4c.08,0,1.56,1,1.6,1.07a2.43,2.43,0,0,1,.84,1c.45,1-.06,2.24-1.46,3.12l-3.13,1.69c-1.68,1.05-5,1.61-6.43.7l-2-.93c-.12.07-2.86-1.51-3-1.51s-2.38-1.35-2.47-1.41L94,143.8,91.14,142,74.48,131.63c-.08,0-1.56-1-1.6-1.07a2.5,2.5,0,0,1-.84-1C71.58,128.54,72.09,127.32,73.5,126.45Z"/><path d="M114.07,156.09,93.77,143.4,73.46,130.71c-1.6-1-1.4-2.75.45-3.91l3-1.59a6.44,6.44,0,0,1,6.25-.28l20.31,12.68L123.8,150.3c1.6,1,1.4,2.75-.45,3.91l-3,1.6A6.49,6.49,0,0,1,114.07,156.09Z"/></g><path class="cls-2" d="M116.16,152.94,79.73,130.18c-4.1-2.57-7.44-9.46-7.44-15.39V9.8c0-3-2.29-3.68-.9-4.77,0,0,3.25-1.61,3.31-1.63a5,5,0,0,1,5,.31l36.43,22.76c4.11,2.57,7.44,9.46,7.44,15.39v105c0,3.15-.94,5.39-2.43,6.42-.09.06-4,2-4,2.08C115.8,155.84,118,154.07,116.16,152.94Z"/><path class="cls-76" d="M115.83,26.6,79.4,3.83c-1.94-1.21,34.41,23.49,34.41,23.49,4.11,2.57,7.44,9.46,7.44,15.39,0,0,2,107.42,2,104.27V42C123.27,36.05,119.94,29.16,115.83,26.6Z"/><path class="cls-2" d="M113.33,154.34,76.91,131.58c-4.11-2.57-7.45-9.46-7.45-15.38V11.2c0-5.93,3.34-8.66,7.45-6.09l36.42,22.76c4.11,2.57,7.44,9.46,7.44,15.39v105C120.77,154.19,117.44,156.91,113.33,154.34Z"/><path class="cls-77" d="M112.69,154.72,76.26,132c-4.11-2.57-7.44-9.46-7.44-15.39v-105c0-5.93,3.33-8.66,7.44-6.09l36.43,22.76c4.1,2.57,7.44,9.46,7.44,15.39v105C120.13,154.56,116.79,157.29,112.69,154.72Z"/><path class="cls-78" d="M69.83,117.27V12.15c0-5.2,2.92-7.59,6.52-5.34l36.24,22.64c3.6,2.25,6.52,8.29,6.52,13.49V148.07c0,5.19-2.92,7.58-6.52,5.33L76.35,130.76C72.75,128.51,69.83,122.47,69.83,117.27Z"/><path class="cls-79" d="M71.28,117.91V13.32C71.28,9,73.72,7,76.74,8.85L112.2,31c3,1.89,5.46,6.94,5.46,11.29V146.89c0,4.35-2.44,6.35-5.46,4.47L76.74,129.2C73.72,127.32,71.28,122.26,71.28,117.91Z"/><path class="cls-80" d="M77.15,10C74.31,8.23,72,9.66,72,13.18V119a12.51,12.51,0,0,0,5.14,9.61l34.64,21.64c2.84,1.78,5.15.36,5.15-3.17V41.26a12.49,12.49,0,0,0-5.15-9.6Z"/><path class="cls-2" d="M121.1,67.93V60.85a3,3,0,0,1,1.14-2.36h0c.63-.39,1.14,0,1.14.93v7.09a3,3,0,0,1-1.14,2.35h0C121.61,69.26,121.1,68.84,121.1,67.93Z"/><path class="cls-81" d="M121.79,68.75c-.32,0-.44-.44-.44-.82V60.85a2.79,2.79,0,0,1,1-2.13.71.71,0,0,1,.33-.11c.33,0,.44.44.44.81v7.09a2.75,2.75,0,0,1-1,2.12A.61.61,0,0,1,121.79,68.75Z"/><path class="cls-82" d="M121.69,68.11V61a2.75,2.75,0,0,1,1-2.12.62.62,0,0,1,.29-.11.35.35,0,0,0-.3-.19.68.68,0,0,0-.33.11,2.79,2.79,0,0,0-1,2.13v7.08c0,.38.12.82.44.82h0A1.25,1.25,0,0,1,121.69,68.11Z"/><path class="cls-83" d="M111.79,31.66,77.15,10C74.31,8.23,72,9.66,72,13.18V119a12.51,12.51,0,0,0,5.14,9.61l34.64,21.64c2.84,1.78,5.15.36,5.15-3.17V41.26A12.49,12.49,0,0,0,111.79,31.66ZM116.49,147a4.39,4.39,0,0,1-.69,2.6,2,2,0,0,1-1.7.85h0a4,4,0,0,1-2.08-.7L77.37,128.14A12,12,0,0,1,72.45,119V13.18c0-2.13.92-3.45,2.39-3.45a4.08,4.08,0,0,1,2.09.7l34.64,21.65a12,12,0,0,1,4.92,9.18Z"/><polygon class="cls-84" points="70.64 85.64 112.18 112.32 99 130.07 68.79 110.88 70.64 85.64"/><polygon class="cls-85" points="74 24.77 74.19 24.66 81.05 20.55 115.49 42.08 108.77 46.48 74 24.77"/><polygon class="cls-86" points="101.83 92.18 108.77 46.48 115.49 42.08 115.49 110.18 101.83 118.78 101.83 92.18"/><polygon class="cls-87" points="70.73 26.92 70.92 26.81 77.78 22.7 112.22 44.23 105.5 48.63 70.73 26.92"/><polygon class="cls-88" points="66.27 71.34 96.82 90.38 100.97 73.63 78.14 59.37 66.27 71.34"/><polygon class="cls-89" points="90.55 70.47 79.07 63.29 71.57 70.85 83.06 78.01 90.55 70.47"/><polygon class="cls-77" points="102.78 79.53 94.04 74.06 88.34 79.82 97.09 85.27 102.78 79.53"/><path class="cls-90" d="M85.33,70.14l.29-.28a.52.52,0,0,1,.66-.09L88.19,71a.39.39,0,0,1,.07.6l-.29.29a.54.54,0,0,1-.67.08l-1.91-1.19A.41.41,0,0,1,85.33,70.14Z"/><path class="cls-91" d="M83.83,71.65l.29-.29a.52.52,0,0,1,.67-.08l1.91,1.19a.4.4,0,0,1,.06.6l-.28.29a.53.53,0,0,1-.67.08L83.9,72.25A.39.39,0,0,1,83.83,71.65Z"/><path class="cls-92" d="M82.34,73.15l.28-.29a.53.53,0,0,1,.67-.08L85.2,74a.4.4,0,0,1,.06.61l-.28.28a.53.53,0,0,1-.67.09L82.4,73.76A.41.41,0,0,1,82.34,73.15Z"/><path class="cls-93" d="M80.84,74.65l.29-.29a.54.54,0,0,1,.67-.08l1.9,1.19a.4.4,0,0,1,.07.61l-.28.28a.54.54,0,0,1-.67.09l-1.91-1.19A.4.4,0,0,1,80.84,74.65Z"/><path class="cls-2" d="M82.74,68.47l.28-.29a.53.53,0,0,1,.67-.08l.78.5a.39.39,0,0,1,.06.6l-.28.29a.53.53,0,0,1-.67.08l-.78-.49A.4.4,0,0,1,82.74,68.47Z"/><path class="cls-2" d="M81.24,70l.29-.29a.53.53,0,0,1,.66-.08l.78.5a.39.39,0,0,1,.07.6l-.28.29a.53.53,0,0,1-.67.08l-.79-.49A.41.41,0,0,1,81.24,70Z"/><path class="cls-2" d="M79.74,71.47l.29-.28a.53.53,0,0,1,.67-.09l.78.5a.4.4,0,0,1,.06.61l-.28.28a.53.53,0,0,1-.67.09l-.78-.5A.4.4,0,0,1,79.74,71.47Z"/><path class="cls-2" d="M78.25,73l.28-.29a.52.52,0,0,1,.67-.08l.78.49a.4.4,0,0,1,.07.61l-.29.28a.52.52,0,0,1-.66.09l-.79-.5A.39.39,0,0,1,78.25,73Z"/><path class="cls-2" d="M80.69,67.18,81,66.9a.53.53,0,0,1,.67-.09l.78.5a.41.41,0,0,1,.06.61l-.28.28a.53.53,0,0,1-.67.08l-.78-.49A.4.4,0,0,1,80.69,67.18Z"/><path class="cls-2" d="M79.2,68.68l.28-.28a.54.54,0,0,1,.67-.09l.78.5a.4.4,0,0,1,.07.61l-.29.28a.52.52,0,0,1-.66.09l-.79-.5A.41.41,0,0,1,79.2,68.68Z"/><path class="cls-2" d="M77.7,70.19,78,69.9a.53.53,0,0,1,.67-.08l.78.49a.41.41,0,0,1,.06.61l-.28.29a.54.54,0,0,1-.67.08l-.78-.5A.39.39,0,0,1,77.7,70.19Z"/><path class="cls-2" d="M76.21,71.69l.28-.29a.53.53,0,0,1,.67-.08l.78.5a.39.39,0,0,1,.07.6l-.29.29a.53.53,0,0,1-.67.08l-.78-.49A.4.4,0,0,1,76.21,71.69Z"/><path class="cls-2" d="M78.65,65.9l.29-.29a.52.52,0,0,1,.67-.08l.78.49a.41.41,0,0,1,.06.61l-.28.28a.53.53,0,0,1-.67.09l-.78-.5A.39.39,0,0,1,78.65,65.9Z"/><path class="cls-2" d="M77.16,67.4l.28-.29a.53.53,0,0,1,.67-.08l.78.49a.4.4,0,0,1,.07.61l-.29.29a.54.54,0,0,1-.67.08L77.22,68A.4.4,0,0,1,77.16,67.4Z"/><path class="cls-2" d="M75.66,68.9l.29-.29a.53.53,0,0,1,.66-.08l.79.5a.39.39,0,0,1,.06.6l-.28.29a.53.53,0,0,1-.67.08l-.78-.49A.4.4,0,0,1,75.66,68.9Z"/><path class="cls-2" d="M74.17,70.4l.28-.28a.53.53,0,0,1,.67-.09l.78.5a.4.4,0,0,1,.06.61l-.28.28a.53.53,0,0,1-.67.08L74.23,71A.4.4,0,0,1,74.17,70.4Z"/><path class="cls-94" d="M85.33,69.91l.29-.29a.53.53,0,0,1,.66-.08l1.91,1.19a.4.4,0,0,1,.07.61l-.29.29a.54.54,0,0,1-.67.08l-1.91-1.19A.41.41,0,0,1,85.33,69.91Z"/><path class="cls-95" d="M83.83,71.41l.29-.28a.53.53,0,0,1,.67-.09l1.91,1.2a.39.39,0,0,1,.06.6l-.28.29a.53.53,0,0,1-.67.08L83.9,72A.4.4,0,0,1,83.83,71.41Z"/><path class="cls-96" d="M82.34,72.92l.28-.29a.53.53,0,0,1,.67-.08l1.91,1.19a.39.39,0,0,1,.06.6l-.28.29a.53.53,0,0,1-.67.08L82.4,73.52A.39.39,0,0,1,82.34,72.92Z"/><path class="cls-97" d="M80.84,74.42l.29-.29a.53.53,0,0,1,.67-.08l1.9,1.19a.4.4,0,0,1,.07.61l-.28.28a.54.54,0,0,1-.67.09L80.91,75A.4.4,0,0,1,80.84,74.42Z"/><path class="cls-98" d="M82.74,68.24,83,68a.53.53,0,0,1,.67-.08l.78.49a.4.4,0,0,1,.06.61l-.28.29a.54.54,0,0,1-.67.08l-.78-.5A.39.39,0,0,1,82.74,68.24Z"/><path class="cls-98" d="M81.24,69.74l.29-.29a.53.53,0,0,1,.66-.08l.78.5a.39.39,0,0,1,.07.6l-.28.29a.53.53,0,0,1-.67.08l-.79-.49A.41.41,0,0,1,81.24,69.74Z"/><path class="cls-98" d="M79.74,71.24,80,71a.54.54,0,0,1,.67-.08l.78.5a.4.4,0,0,1,.06.61l-.28.28a.53.53,0,0,1-.67.08l-.78-.49A.4.4,0,0,1,79.74,71.24Z"/><path class="cls-98" d="M78.25,72.74l.28-.28a.54.54,0,0,1,.67-.09l.78.5a.4.4,0,0,1,.07.61l-.29.28a.52.52,0,0,1-.66.09l-.79-.5A.41.41,0,0,1,78.25,72.74Z"/><path class="cls-98" d="M80.69,67l.29-.29a.54.54,0,0,1,.67-.08l.78.5a.39.39,0,0,1,.06.6l-.28.29a.53.53,0,0,1-.67.08l-.78-.49A.4.4,0,0,1,80.69,67Z"/><path class="cls-98" d="M79.2,68.45l.28-.28a.54.54,0,0,1,.67-.09l.78.5a.4.4,0,0,1,.07.61l-.29.28a.51.51,0,0,1-.66.08l-.79-.49A.41.41,0,0,1,79.2,68.45Z"/><path class="cls-98" d="M77.7,70l.29-.29a.52.52,0,0,1,.67-.08l.78.49a.41.41,0,0,1,.06.61l-.28.28a.53.53,0,0,1-.67.09l-.78-.5A.39.39,0,0,1,77.7,70Z"/><path class="cls-98" d="M76.21,71.46l.28-.29a.53.53,0,0,1,.67-.08l.78.49a.4.4,0,0,1,.07.61l-.29.29a.54.54,0,0,1-.67.08l-.78-.5A.39.39,0,0,1,76.21,71.46Z"/><path class="cls-98" d="M78.65,65.66l.29-.28a.53.53,0,0,1,.67-.09l.78.5a.41.41,0,0,1,.06.61l-.28.28a.53.53,0,0,1-.67.09l-.78-.5A.4.4,0,0,1,78.65,65.66Z"/><path class="cls-98" d="M77.16,67.17l.28-.29a.53.53,0,0,1,.67-.08l.78.49a.4.4,0,0,1,.07.61l-.29.29a.54.54,0,0,1-.67.08l-.78-.5A.39.39,0,0,1,77.16,67.17Z"/><path class="cls-98" d="M75.66,68.67l.29-.29a.52.52,0,0,1,.66-.08l.79.5a.39.39,0,0,1,.06.6l-.28.29a.55.55,0,0,1-.67.08l-.78-.49A.4.4,0,0,1,75.66,68.67Z"/><path class="cls-98" d="M74.17,70.17l.28-.29a.54.54,0,0,1,.67-.08l.78.5a.39.39,0,0,1,.06.6l-.28.29a.53.53,0,0,1-.67.08l-.78-.49A.4.4,0,0,1,74.17,70.17Z"/><path class="cls-99" d="M80.76,67.56l.78.49a.53.53,0,0,0,.67-.08l.28-.29a.38.38,0,0,0,.1-.35.37.37,0,0,1-.1.22l-.28.29a.54.54,0,0,1-.67.08l-.78-.5a.33.33,0,0,1-.16-.25A.37.37,0,0,0,80.76,67.56Z"/><path class="cls-99" d="M82.76,70.76l.28-.29a.41.41,0,0,0,.1-.35.37.37,0,0,1-.1.22l-.28.28a.54.54,0,0,1-.67.09l-.79-.5a.36.36,0,0,1-.16-.25.4.4,0,0,0,.16.39l.79.49A.53.53,0,0,0,82.76,70.76Z"/><path class="cls-99" d="M82.8,68.84l.78.5a.54.54,0,0,0,.67-.08l.28-.29a.36.36,0,0,0,.1-.35.37.37,0,0,1-.1.22l-.28.28a.53.53,0,0,1-.67.09l-.78-.5a.38.38,0,0,1-.16-.25A.37.37,0,0,0,82.8,68.84Z"/><path class="cls-99" d="M77.22,67.77l.78.5a.54.54,0,0,0,.67-.08L79,67.9a.38.38,0,0,0,.09-.35.39.39,0,0,1-.09.22l-.29.28a.53.53,0,0,1-.67.08l-.78-.49a.38.38,0,0,1-.16-.25A.38.38,0,0,0,77.22,67.77Z"/><path class="cls-99" d="M78.72,66.27l.78.5a.53.53,0,0,0,.67-.09l.28-.28a.4.4,0,0,0,.1-.36.37.37,0,0,1-.1.22l-.28.29a.53.53,0,0,1-.67.08l-.78-.49a.38.38,0,0,1-.17-.26A.38.38,0,0,0,78.72,66.27Z"/><path class="cls-99" d="M79.22,71l.28-.28a.39.39,0,0,0,.1-.35.35.35,0,0,1-.1.21l-.28.29a.53.53,0,0,1-.67.08l-.78-.49a.36.36,0,0,1-.17-.25.37.37,0,0,0,.17.38l.78.5A.53.53,0,0,0,79.22,71Z"/><path class="cls-99" d="M75.73,69.28l.78.49a.53.53,0,0,0,.67-.08l.28-.29a.41.41,0,0,0,.1-.35.37.37,0,0,1-.1.22l-.28.28a.54.54,0,0,1-.67.09l-.78-.5a.36.36,0,0,1-.17-.25A.39.39,0,0,0,75.73,69.28Z"/><path class="cls-99" d="M80.71,69.47l.29-.28a.43.43,0,0,0,.1-.36.44.44,0,0,1-.1.22l-.29.29a.53.53,0,0,1-.66.08l-.79-.49a.4.4,0,0,1-.16-.26.39.39,0,0,0,.16.39l.79.49A.51.51,0,0,0,80.71,69.47Z"/><path class="cls-99" d="M85.26,74.21,85,74.5a.54.54,0,0,1-.67.08L82.4,73.39a.38.38,0,0,1-.16-.25.38.38,0,0,0,.16.38l1.91,1.19a.53.53,0,0,0,.67-.08l.28-.29a.35.35,0,0,0,.1-.35A.37.37,0,0,1,85.26,74.21Z"/><path class="cls-99" d="M86.76,72.71l-.28.28a.54.54,0,0,1-.67.09L83.9,71.89a.4.4,0,0,1-.16-.26.37.37,0,0,0,.16.39l1.91,1.19a.53.53,0,0,0,.67-.08l.28-.29a.41.41,0,0,0,.1-.35A.37.37,0,0,1,86.76,72.71Z"/><path class="cls-99" d="M88.26,71.21l-.29.28a.52.52,0,0,1-.67.08l-1.91-1.18a.4.4,0,0,1-.16-.26.39.39,0,0,0,.16.39l1.91,1.19a.54.54,0,0,0,.67-.08l.29-.29a.38.38,0,0,0,.09-.35A.36.36,0,0,1,88.26,71.21Z"/><path class="cls-99" d="M83.77,75.71l-.28.29a.53.53,0,0,1-.67.08l-1.91-1.19a.39.39,0,0,1-.17-.25.39.39,0,0,0,.17.39l1.91,1.19a.54.54,0,0,0,.67-.09l.28-.28a.43.43,0,0,0,.1-.36A.37.37,0,0,1,83.77,75.71Z"/><path class="cls-99" d="M76,70.77l-.28.29a.54.54,0,0,1-.67.08l-.78-.5a.36.36,0,0,1-.16-.25.39.39,0,0,0,.16.39l.78.49a.53.53,0,0,0,.67-.08L76,70.9a.36.36,0,0,0,.1-.35A.37.37,0,0,1,76,70.77Z"/><path class="cls-99" d="M81.26,72.26l.28-.28a.37.37,0,0,0,.1-.36.37.37,0,0,1-.1.22l-.28.29a.54.54,0,0,1-.67.08l-.78-.49a.4.4,0,0,1-.16-.26.37.37,0,0,0,.16.39l.78.49A.53.53,0,0,0,81.26,72.26Z"/><path class="cls-99" d="M78,72.06l-.29.28a.53.53,0,0,1-.67.09l-.78-.5a.38.38,0,0,1-.16-.25.4.4,0,0,0,.16.39l.78.49a.54.54,0,0,0,.67-.08l.29-.29a.38.38,0,0,0,.09-.35A.36.36,0,0,1,78,72.06Z"/><path class="cls-99" d="M80.05,73.34l-.29.29a.52.52,0,0,1-.66.08l-.79-.49a.38.38,0,0,1-.16-.26.39.39,0,0,0,.16.39l.79.5a.52.52,0,0,0,.66-.09l.29-.28a.43.43,0,0,0,.1-.36A.44.44,0,0,1,80.05,73.34Z"/><polygon class="cls-100" points="103.45 49.13 103.45 75.23 78.19 59.44 78.19 33.35 103.45 49.13"/><polygon class="cls-101" points="81.61 59.81 81.61 39.15 100.53 50.98 100.53 71.65 81.61 59.81"/><polygon class="cls-102" points="82.8 59.06 82.8 41.38 99.34 51.72 99.34 69.42 82.8 59.06"/><polygon class="cls-103" points="63.83 72.61 63.83 99.25 98.56 120.93 98.56 94.34 63.83 72.61"/><polygon class="cls-104" points="98.56 94.34 105.5 48.63 112.22 44.23 112.22 112.33 98.56 120.93 98.56 94.34"/><polygon class="cls-105" points="72.51 30.88 78.24 34.23 78.19 59.44 66.44 71.17 66.31 71.3 72.51 30.88"/><path class="cls-106" d="M70.73,26.92l-6.9,45.69L98.6,94.34l6.9-45.71ZM96.82,90.38,66.31,71.3l6.2-40.42L103,49.93Z"/><polygon class="cls-107" points="98.6 94.34 105.87 48.43 112.22 44.23 105.2 48.04 70.73 26.92 104.98 48.67 98.6 94.34"/><ellipse class="cls-108" cx="82.15" cy="80.53" rx="4.77" ry="21.56" transform="translate(-29.89 106.65) rotate(-57.55)"/><polygon class="cls-109" points="92.45 56.79 92.45 51.68 89.6 49.9 89.6 55.01 87.57 53.74 91.03 61.48 94.48 58.06 92.45 56.79"/><polygon class="cls-110" points="66.31 93.12 66.31 86.55 96.08 105.17 96.08 111.76 66.31 93.12"/><polygon class="cls-111" points="67.55 91.76 67.55 89.46 94.84 106.52 94.84 108.85 67.55 91.76"/><polygon class="cls-112" points="84.39 94.26 84.39 88.61 96.03 95.89 96.03 101.55 84.39 94.26"/><polygon class="cls-113" points="85.07 93.03 85.07 91.84 95.35 98.26 95.35 99.47 85.07 93.03"/><polygon class="cls-114" points="85.07 91.83 85.07 90.56 95.35 96.98 95.35 98.26 85.07 91.83"/><polygon class="cls-115" points="88.84 93.38 95.22 97.39 88.48 108.24 83.41 97.84 88.84 93.38"/><path class="cls-116" d="M84.54,102.38l-6.73-4.2a.89.89,0,0,1-.49-.76v-.29c0-.34.24-.35.69-.63l7.79-4.86,9.36,5.51v.24l-7.78,4.87A2.94,2.94,0,0,1,84.54,102.38Z"/><path class="cls-117" d="M84.54,102.14l-6.73-4.2c-.73-.46-.64-1.25.2-1.78L85.8,91.3l9.36,5.85L87.38,102A2.92,2.92,0,0,1,84.54,102.14Z"/><path class="cls-12" d="M82,97.57c.25.16.4.3.44.43s0,.24-.2.35a.82.82,0,0,1-.56.11A1.61,1.61,0,0,1,81,98.2c-.25-.16-.4-.3-.44-.43s0-.24.2-.35a.88.88,0,0,1,.56-.12A1.79,1.79,0,0,1,82,97.57Zm-.7.44a1.82,1.82,0,0,0,.43.21.32.32,0,0,0,.27,0,.1.1,0,0,0,0-.16,1,1,0,0,0-.33-.27,1.82,1.82,0,0,0-.43-.21.35.35,0,0,0-.27,0,.1.1,0,0,0,0,.17A1,1,0,0,0,81.33,98Z"/><path class="cls-12" d="M83.23,96.82c.25.16.4.3.44.43s0,.24-.2.35a.89.89,0,0,1-.56.12,1.79,1.79,0,0,1-.68-.27c-.26-.16-.4-.3-.44-.43s0-.24.19-.35a.86.86,0,0,1,.57-.11A1.61,1.61,0,0,1,83.23,96.82Zm-.7.44a2,2,0,0,0,.42.21.35.35,0,0,0,.27,0c.07,0,.09-.1,0-.17a1.3,1.3,0,0,0-.33-.27,1.82,1.82,0,0,0-.43-.21.31.31,0,0,0-.27,0,.1.1,0,0,0,0,.16A1.22,1.22,0,0,0,82.53,97.26Z"/><path class="cls-12" d="M84.43,96.08a.9.9,0,0,1,.43.42c0,.13,0,.25-.19.35a.86.86,0,0,1-.57.12,1.85,1.85,0,0,1-.68-.27c-.25-.16-.4-.3-.44-.43s0-.24.2-.35a.83.83,0,0,1,.56-.11A1.55,1.55,0,0,1,84.43,96.08Zm-.7.43a1.62,1.62,0,0,0,.42.21.35.35,0,0,0,.27,0,.11.11,0,0,0,0-.17,1.22,1.22,0,0,0-.34-.27,1.38,1.38,0,0,0-.42-.2.31.31,0,0,0-.27,0,.11.11,0,0,0,0,.17A1.48,1.48,0,0,0,83.73,96.51Z"/><path class="cls-12" d="M85.62,95.33a.93.93,0,0,1,.44.42c0,.13,0,.25-.2.35a.77.77,0,0,1-.56.12,1.51,1.51,0,0,1-.68-.27,1,1,0,0,1-.44-.42c0-.13,0-.25.2-.35a.77.77,0,0,1,.56-.12A1.79,1.79,0,0,1,85.62,95.33Zm-.7.44a1.41,1.41,0,0,0,.43.2.31.31,0,0,0,.27,0,.1.1,0,0,0,0-.17,1,1,0,0,0-.33-.26,1.82,1.82,0,0,0-.43-.21.35.35,0,0,0-.27,0,.1.1,0,0,0,0,.17A1.15,1.15,0,0,0,84.92,95.77Z"/><path class="cls-12" d="M87.39,94.22c.25.16.4.3.44.43s0,.24-.2.35a.88.88,0,0,1-.56.12,1.79,1.79,0,0,1-.68-.27c-.25-.16-.4-.3-.44-.43s0-.24.2-.35a.88.88,0,0,1,.56-.12A1.79,1.79,0,0,1,87.39,94.22Zm-.7.44a1.82,1.82,0,0,0,.43.21.36.36,0,0,0,.27,0,.1.1,0,0,0,0-.17,1,1,0,0,0-.33-.27,1.82,1.82,0,0,0-.43-.21.35.35,0,0,0-.27,0,.11.11,0,0,0,0,.17A1,1,0,0,0,86.69,94.66Z"/><path class="cls-12" d="M88.59,93.47c.25.16.4.3.44.43s0,.24-.2.35a.89.89,0,0,1-.56.12,1.79,1.79,0,0,1-.68-.27c-.26-.16-.4-.3-.44-.43s0-.24.19-.35a.86.86,0,0,1,.57-.11A1.61,1.61,0,0,1,88.59,93.47Zm-.7.44a1.79,1.79,0,0,0,.42.21.35.35,0,0,0,.27,0c.07,0,.09-.1,0-.17a1.3,1.3,0,0,0-.33-.27,1.82,1.82,0,0,0-.43-.21.34.34,0,0,0-.27,0,.11.11,0,0,0,0,.17A1.48,1.48,0,0,0,87.89,93.91Z"/><path class="cls-118" d="M86.59,100.87a2.16,2.16,0,0,1-2.09,0,.71.71,0,0,1,0-1.3,2.14,2.14,0,0,1,2.08,0A.71.71,0,0,1,86.59,100.87Z"/><path class="cls-119" d="M87.73,100.16a2.18,2.18,0,0,1-2.09,0,.71.71,0,0,1,0-1.3,2.14,2.14,0,0,1,2.08,0A.71.71,0,0,1,87.73,100.16Z"/></g></g></svg>