<svg xmlns="http://www.w3.org/2000/svg" xmlns:xlink="http://www.w3.org/1999/xlink" viewBox="0 0 179.42 179.7"><defs><style>.cls-1{mask:url(#mask);filter:url(#luminosity-noclip-6);}.cls-10,.cls-14,.cls-2,.cls-31,.cls-39,.cls-4,.cls-46,.cls-6,.cls-8{mix-blend-mode:multiply;}.cls-2{fill:url(#linear-gradient);}.cls-3{mask:url(#mask-2);filter:url(#luminosity-noclip-7);}.cls-4{fill:url(#linear-gradient-2);}.cls-5{mask:url(#mask-3);filter:url(#luminosity-noclip-8);}.cls-6{fill:url(#linear-gradient-3);}.cls-7{mask:url(#mask-4);filter:url(#luminosity-noclip-9);}.cls-8{fill:url(#linear-gradient-4);}.cls-9{mask:url(#mask-5);filter:url(#luminosity-noclip-10);}.cls-10{fill:url(#linear-gradient-5);}.cls-11{isolation:isolate;}.cls-12{fill:none;}.cls-13{mask:url(#mask-6);}.cls-14{fill:url(#linear-gradient-6);}.cls-15{fill:url(#linear-gradient-7);}.cls-16{fill:url(#linear-gradient-8);}.cls-17{fill:url(#linear-gradient-9);}.cls-18{fill:url(#linear-gradient-10);}.cls-19{fill:url(#linear-gradient-11);}.cls-20{fill:url(#linear-gradient-12);}.cls-21{mask:url(#mask-7);}.cls-22{fill:url(#linear-gradient-13);}.cls-23{fill:url(#linear-gradient-14);}.cls-24{fill:url(#linear-gradient-15);}.cls-25{fill:url(#linear-gradient-16);}.cls-26{fill:url(#linear-gradient-17);}.cls-27{fill:url(#linear-gradient-18);}.cls-28{fill:url(#linear-gradient-19);}.cls-29{fill:#38c5ea;}.cls-30{mask:url(#mask-8);}.cls-31{fill:url(#linear-gradient-20);}.cls-32{fill:url(#linear-gradient-21);}.cls-33{fill:url(#linear-gradient-22);}.cls-34{fill:url(#linear-gradient-23);}.cls-35{fill:url(#linear-gradient-24);}.cls-36{fill:url(#linear-gradient-25);}.cls-37{fill:url(#linear-gradient-26);}.cls-38{mask:url(#mask-9);}.cls-39{fill:url(#linear-gradient-27);}.cls-40{fill:url(#linear-gradient-28);}.cls-41{fill:url(#linear-gradient-29);}.cls-42{fill:url(#linear-gradient-30);}.cls-43{fill:url(#linear-gradient-31);}.cls-44{fill:url(#linear-gradient-32);}.cls-45{mask:url(#mask-10);}.cls-46{fill:url(#linear-gradient-33);}.cls-47{fill:url(#linear-gradient-34);}.cls-48{fill:url(#linear-gradient-35);}.cls-49{fill:url(#linear-gradient-36);}.cls-50{fill:url(#linear-gradient-37);}.cls-51{fill:url(#linear-gradient-38);}.cls-52{fill:url(#linear-gradient-39);}.cls-53{fill:url(#linear-gradient-40);}.cls-54{fill:url(#linear-gradient-41);}.cls-55{fill:url(#linear-gradient-42);}.cls-56{fill:url(#linear-gradient-43);}.cls-57{fill:url(#linear-gradient-44);}.cls-58{fill:url(#linear-gradient-45);}.cls-59{fill:url(#linear-gradient-46);}.cls-60{fill:url(#linear-gradient-47);}.cls-61{fill:url(#linear-gradient-48);}.cls-62{fill:#f9f9f9;}.cls-63{fill:url(#linear-gradient-49);}.cls-64{fill:url(#linear-gradient-50);}.cls-65{fill:url(#linear-gradient-51);}.cls-66{fill:url(#linear-gradient-52);}.cls-67{fill:url(#linear-gradient-53);}.cls-68{fill:url(#linear-gradient-54);}.cls-69{fill:url(#linear-gradient-55);}.cls-70{fill:url(#linear-gradient-56);}.cls-71{filter:url(#luminosity-noclip-5);}.cls-72{filter:url(#luminosity-noclip-4);}.cls-73{filter:url(#luminosity-noclip-3);}.cls-74{filter:url(#luminosity-noclip-2);}.cls-75{filter:url(#luminosity-noclip);}</style><filter id="luminosity-noclip" x="110.38" y="-15327.21" width="53.48" height="32766" filterUnits="userSpaceOnUse" color-interpolation-filters="sRGB"><feFlood flood-color="#fff" result="bg"/><feBlend in="SourceGraphic" in2="bg"/></filter><mask id="mask" x="110.38" y="-15327.21" width="53.48" height="32766" maskUnits="userSpaceOnUse"><g class="cls-75"/></mask><linearGradient id="linear-gradient" x1="127.88" y1="101.93" x2="145.06" y2="127.5" gradientUnits="userSpaceOnUse"><stop offset="0" stop-color="#fff"/><stop offset="0.13" stop-color="#ddd"/><stop offset="0.74" stop-color="#404040"/><stop offset="1"/></linearGradient><filter id="luminosity-noclip-2" x="83.09" y="-15327.21" width="62.52" height="32766" filterUnits="userSpaceOnUse" color-interpolation-filters="sRGB"><feFlood flood-color="#fff" result="bg"/><feBlend in="SourceGraphic" in2="bg"/></filter><mask id="mask-2" x="83.09" y="-15327.21" width="62.52" height="32766" maskUnits="userSpaceOnUse"><g class="cls-74"/></mask><linearGradient id="linear-gradient-2" x1="132.29" y1="67.52" x2="103.49" y2="107.49" gradientUnits="userSpaceOnUse"><stop offset="0" stop-color="#fff"/><stop offset="1"/></linearGradient><filter id="luminosity-noclip-3" x="17.4" y="-15327.21" width="112.55" height="32766" filterUnits="userSpaceOnUse" color-interpolation-filters="sRGB"><feFlood flood-color="#fff" result="bg"/><feBlend in="SourceGraphic" in2="bg"/></filter><mask id="mask-3" x="17.4" y="-15327.21" width="112.55" height="32766" maskUnits="userSpaceOnUse"><g class="cls-73"/></mask><linearGradient id="linear-gradient-3" x1="48.91" y1="74.85" x2="72.87" y2="125.52" xlink:href="#linear-gradient"/><filter id="luminosity-noclip-4" x="70.56" y="-15327.21" width="31.08" height="32766" filterUnits="userSpaceOnUse" color-interpolation-filters="sRGB"><feFlood flood-color="#fff" result="bg"/><feBlend in="SourceGraphic" in2="bg"/></filter><mask id="mask-4" x="70.56" y="-15327.21" width="31.08" height="32766" maskUnits="userSpaceOnUse"><g class="cls-72"/></mask><linearGradient id="linear-gradient-4" x1="81.59" y1="52.08" x2="90.15" y2="66.71" xlink:href="#linear-gradient"/><filter id="luminosity-noclip-5" x="74.1" y="-15327.21" width="52.02" height="32766" filterUnits="userSpaceOnUse" color-interpolation-filters="sRGB"><feFlood flood-color="#fff" result="bg"/><feBlend in="SourceGraphic" in2="bg"/></filter><mask id="mask-5" x="74.1" y="-15327.21" width="52.02" height="32766" maskUnits="userSpaceOnUse"><g class="cls-71"/></mask><linearGradient id="linear-gradient-5" x1="80.71" y1="106.65" x2="103.59" y2="134.08" xlink:href="#linear-gradient"/><filter id="luminosity-noclip-6" x="110.38" y="99.63" width="53.48" height="37.77" filterUnits="userSpaceOnUse" color-interpolation-filters="sRGB"><feFlood flood-color="#fff" result="bg"/><feBlend in="SourceGraphic" in2="bg"/></filter><mask id="mask-6" x="110.38" y="99.63" width="53.48" height="37.77" maskUnits="userSpaceOnUse"><g class="cls-1"><polygon class="cls-2" points="163.87 111.89 163.87 137.4 138.59 137.4 111.1 119.95 111.06 119.92 110.38 119.5 111.7 118.72 111.71 118.72 127.89 109.2 130.77 107.5 131.45 107.1 134.33 105.41 135 105.01 135 105.01 137.88 103.32 138.55 102.92 141.44 101.23 142.11 100.83 143.67 99.92 144.1 99.67 144.16 99.63 145.73 100.59 145.79 100.62 147.59 101.72 148.15 102.06 148.16 102.06 163.87 111.89"/></g></mask><linearGradient id="linear-gradient-6" x1="127.88" y1="101.93" x2="145.06" y2="127.5" gradientUnits="userSpaceOnUse"><stop offset="0" stop-color="#abd1ec" stop-opacity="0.7"/><stop offset="0.12" stop-color="#aed3ed" stop-opacity="0.67"/><stop offset="0.3" stop-color="#b7d8ef" stop-opacity="0.57"/><stop offset="0.52" stop-color="#c6e0f2" stop-opacity="0.42"/><stop offset="0.77" stop-color="#daebf6" stop-opacity="0.21"/><stop offset="1" stop-color="#eef6fb" stop-opacity="0"/></linearGradient><linearGradient id="linear-gradient-7" x1="94.04" y1="-4.82" x2="154.41" y2="99.61" gradientUnits="userSpaceOnUse"><stop offset="0.05" stop-color="#14416a"/><stop offset="1" stop-color="#004f98"/></linearGradient><linearGradient id="linear-gradient-8" x1="151.12" y1="113" x2="91.37" y2="42.95" gradientUnits="userSpaceOnUse"><stop offset="0" stop-color="#29007a"/><stop offset="1" stop-color="#00bdff"/></linearGradient><linearGradient id="linear-gradient-9" x1="101.78" y1="64.66" x2="112.96" y2="132.46" xlink:href="#linear-gradient-7"/><linearGradient id="linear-gradient-10" x1="90.86" y1="12.72" x2="144.14" y2="100.95" gradientUnits="userSpaceOnUse"><stop offset="0" stop-color="#abd1ec"/><stop offset="1" stop-color="#abd1ec"/></linearGradient><linearGradient id="linear-gradient-11" x1="96.74" y1="68.02" x2="109.85" y2="103.97" gradientUnits="userSpaceOnUse"><stop offset="0" stop-color="#0984bd"/><stop offset="1" stop-color="#56a5d7"/></linearGradient><linearGradient id="linear-gradient-12" x1="109.51" y1="90.34" x2="194.82" y2="126.86" gradientUnits="userSpaceOnUse"><stop offset="0" stop-color="#abd1ec"/><stop offset="0.57" stop-color="#eef6fb"/></linearGradient><filter id="luminosity-noclip-7" x="83.09" y="74.67" width="62.52" height="35.49" filterUnits="userSpaceOnUse" color-interpolation-filters="sRGB"><feFlood flood-color="#fff" result="bg"/><feBlend in="SourceGraphic" in2="bg"/></filter><mask id="mask-7" x="83.09" y="74.67" width="62.52" height="35.49" maskUnits="userSpaceOnUse"><g class="cls-3"><path class="cls-4" d="M101.7,76.13,101,75.7,99.64,75h0l-.44-.25h0a0,0,0,0,1,0,0,.35.35,0,0,0-.11,0,.41.41,0,0,0-.31,0l-1.07.61h0l0,0-.06.06a.12.12,0,0,0,0,.08s0,0,0,0a.05.05,0,0,0,0,0h0l.17.09L100.11,77a.54.54,0,0,0,.45,0l1.11-.64c.06,0,.11-.1.11-.14A.14.14,0,0,0,101.7,76.13Zm3.87,2.2-2.14-1.21-.38-.22h0a.52.52,0,0,0-.42,0l-1.11.62c-.13.09-.14.19,0,.26h0l.38.23L104,79.24a.5.5,0,0,0,.44,0l1.1-.63C105.66,78.5,105.67,78.39,105.57,78.33Zm3.9,2.21a.05.05,0,0,1,0,0l-.16-.09-1.49-.86-.41-.22-.46-.26-.07,0h0a.66.66,0,0,0-.37,0l-1.1.63c-.11.06-.14.16-.08.21a.08.08,0,0,0,0,0l.46.27.41.22,1.65.93a.41.41,0,0,0,.44,0l1.11-.63C109.51,80.7,109.54,80.6,109.47,80.54Zm3.82,2.16-1.2-.69-.39-.21-.53-.3-.39-.22a.59.59,0,0,0-.45,0l-1.1.63c-.13.07-.15.18,0,.25h0l.39.22.53.3.38.22,1.2.67a.46.46,0,0,0,.44,0l1.11-.62C113.39,82.89,113.41,82.77,113.29,82.7Zm3.87,2.2L115.51,84l-.86-.49a.47.47,0,0,0-.46,0l-.12.07-1,.55c-.13.07-.14.19,0,.25l2.5,1.42a.48.48,0,0,0,.45,0l1.1-.63C117.26,85.08,117.27,85,117.16,84.9ZM121,87.09l-2.51-1.43a.46.46,0,0,0-.45,0l-1.11.62c-.12.08-.13.19,0,.25L119.44,88a.48.48,0,0,0,.45,0l1.09-.63C121.12,87.26,121.13,87.15,121,87.09Zm3.87,2.19-2.52-1.43a.48.48,0,0,0-.45,0l-1,.58-.09,0c-.11.06-.13.16,0,.23l0,0,2.5,1.42a.43.43,0,0,0,.44,0l1.11-.63C125,89.46,125,89.34,124.89,89.28Zm3.86,2.18-.05,0-.51-.28h0l-1.38-.77-.57-.32a.5.5,0,0,0-.46,0l-.54.31-.54.32c-.15.07-.17.2,0,.26l.83.47,1.67.94a.59.59,0,0,0,.45,0l1.08-.62h0C128.85,91.64,128.86,91.53,128.75,91.46Zm3.86,2.2-2.5-1.43a.54.54,0,0,0-.46,0l-.36.2-.74.42c-.12.07-.16.19,0,.26l2.09,1.18.43.24a.53.53,0,0,0,.44,0l1.1-.63C132.72,93.83,132.73,93.72,132.61,93.66Zm3.87,2.18-.68-.38-.25-.15L134,94.42a.48.48,0,0,0-.45,0l-1.09.64c-.11.06-.14.13-.09.2l0,0,2.52,1.43a.53.53,0,0,0,.44,0l.21-.12.9-.51C136.57,96,136.6,95.91,136.48,95.84ZM140.33,98l-2.51-1.43a.53.53,0,0,0-.44,0l-1.1.63c-.14.09-.15.19,0,.26l2.51,1.43a.49.49,0,0,0,.44,0l1.1-.61C140.44,98.21,140.46,98.1,140.33,98Zm-20.51,3.27L102.4,91.42l-.29-.15a.46.46,0,0,0-.44,0l-.25.13-2.2,1.26c-.13.07-.13.19,0,.25l17.7,10a.55.55,0,0,0,.45,0l2.44-1.39C119.92,101.46,119.92,101.36,119.82,101.3ZM100.71,90.47l-.17-.1-1.47-.84-.4-.21-.53-.3-.38-.23-.39-.22a.51.51,0,0,0-.45,0L94.48,90c-.12.08-.14.18,0,.26l.4.22.4.23.32.18.6.33.38.21,1.25.71a.46.46,0,0,0,.44,0l1.2-.69,1.24-.7C100.81,90.64,100.83,90.54,100.71,90.47Zm24.11,13.66-3.56-2a.46.46,0,0,0-.44,0l-2.46,1.4c-.12.07-.12.19,0,.25l2.15,1.22h0l1.39.79a.55.55,0,0,0,.45,0l.69-.4h0l1.74-1C124.91,104.3,124.92,104.19,124.82,104.13Zm3.82,2.17-1.65-.94h0l-.86-.49a.49.49,0,0,0-.44,0l-1,.57h0l-1.42.81c-.14.09-.16.19,0,.26l2.51,1.42a.48.48,0,0,0,.45,0l2.44-1.39C128.73,106.47,128.76,106.37,128.64,106.3Zm3.82,2.15-1.69-1-.84-.47a.46.46,0,0,0-.44,0l-2.44,1.39c-.14.08-.15.19,0,.26l.88.5,1.63.92a.49.49,0,0,0,.44,0l2.46-1.38C132.55,108.63,132.55,108.52,132.46,108.45ZM95,83.14l0,0-1-.55-.39-.22-.53-.3-.39-.22-3-1.7h0a.54.54,0,0,0-.41,0h0l-2.43,1.39c-.13.07-.15.17,0,.23a0,0,0,0,0,0,0h0l3,1.71h0l.38.21.52.3.39.23.94.53a.49.49,0,0,0,.44,0l2.46-1.4a.16.16,0,0,0,.09-.11h0A.12.12,0,0,0,95,83.14Zm-6.4.46-2.51-1.42h0a.47.47,0,0,0-.43,0l-2.43,1.39c-.13.08-.16.19,0,.26h0l2.51,1.41a.57.57,0,0,0,.46,0l2.43-1.39C88.7,83.79,88.73,83.67,88.6,83.6Zm3.81,2.16-2-1.14-.21-.11h0l-.18-.1-.14-.08a.52.52,0,0,0-.44,0L87,85.75c-.13.07-.14.19,0,.26l.15.08.38.22,2,1.11a.48.48,0,0,0,.45,0l1.45-.82h0l1-.57C92.51,85.94,92.51,85.82,92.41,85.76Zm3.74,2.12-1.4-.79-.4-.23-.52-.29-.19-.11a.5.5,0,0,0-.46,0l-.06,0-1.29.74h0l-1.08.62-.06,0,0,0a.12.12,0,0,0,0,.19l.2.11.52.3.4.22,1.39.78a.5.5,0,0,0,.4,0h0l0,0,2.44-1.4C96.25,88.06,96.26,88,96.15,87.88Zm2.61-2.62L98.32,85,98,84.79l-.54-.3-.4-.22-.77-.43a.49.49,0,0,0-.44,0l-.42.24-2,1.16c-.13.07-.14.19,0,.25l.78.44.4.24.52.29.39.23.41.22a.46.46,0,0,0,.44,0l1.72-1h0l.72-.41C98.85,85.44,98.86,85.32,98.76,85.26Zm3.87,2.23a.15.15,0,0,0-.08-.08l-.29-.16-.52-.3-.39-.23-1.3-.74a.51.51,0,0,0-.45,0l-.7.4-1.73,1c-.15.08-.17.18,0,.26l1.32.74.38.22.55.31.26.15a.38.38,0,0,0,.16,0,.72.72,0,0,0,.29-.06l1.83-1,.6-.35C102.62,87.6,102.65,87.54,102.63,87.49Zm3.73,2.08-2.52-1.43a.52.52,0,0,0-.44,0l-.59.34L101,89.56c-.13.07-.14.18,0,.24l1,.57,1.51.86a.48.48,0,0,0,.45,0l1.46-.84.45-.26h0l.53-.3C106.46,89.74,106.47,89.63,106.36,89.57Zm3.79,2.15-.52-.3-1.87-1-.12-.07a.49.49,0,0,0-.44,0l-.08.05-.42.23-1.44.82-.49.29c-.14.07-.16.19,0,.25l2.52,1.42a.44.44,0,0,0,.44,0l2-1.14.43-.25C110.25,91.9,110.27,91.78,110.15,91.72ZM114,93.88l-2.52-1.44a.46.46,0,0,0-.44,0l-.41.23-2,1.16c-.12.07-.13.17,0,.25L111,95.54a.52.52,0,0,0,.44,0l2.1-1.19h0l.36-.2C114.06,94,114.07,93.94,114,93.88ZM117.75,96l-2.49-1.43a.57.57,0,0,0-.46,0l-.33.19L112.36,96c-.14.08-.15.18,0,.25l2.51,1.43a.55.55,0,0,0,.45,0l2.16-1.24h0l.28-.16C117.86,96.2,117.88,96.1,117.75,96Zm3.82,2.15-.7-.39h0l-1.8-1h0a.49.49,0,0,0-.27,0l-.14,0-.26.15h0l-2.19,1.24c-.12.07-.14.19,0,.25l2.52,1.42a.43.43,0,0,0,.45,0l2.44-1.39C121.67,98.36,121.68,98.24,121.57,98.18Zm3.79,2.16-2.5-1.43a.46.46,0,0,0-.45,0L120,100.33c-.13.07-.14.18,0,.25l2.51,1.42a.57.57,0,0,0,.46,0l2.43-1.39C125.46,100.51,125.48,100.4,125.36,100.34Zm3.8,2.16-2.5-1.44a.47.47,0,0,0-.43,0l-2.46,1.4c-.12.07-.13.17,0,.24l2.53,1.43a.5.5,0,0,0,.43,0l2.45-1.4C129.27,102.66,129.28,102.56,129.16,102.5Zm6.9,3.89-.51-.29-1.22-.69-3.09-1.76h0l-.78-.44a.57.57,0,0,0-.46,0l-2.43,1.39c-.14.08-.16.19,0,.25l.53.3h0l3.39,1.92,1.68,1a.46.46,0,0,0,.44,0l2-1.12.46-.28C136.15,106.57,136.16,106.45,136.06,106.39ZM95.83,79.49l-.58-.33h0l-1.94-1.09h0a.06.06,0,0,0-.05,0,.55.55,0,0,0-.38,0l-2.43,1.39c-.13.08-.16.18-.06.23a0,0,0,0,1,0,0h0l2.51,1.43a.48.48,0,0,0,.45,0l1.69-1,.76-.43C95.92,79.67,95.94,79.56,95.83,79.49Zm3.78,2.15-.41-.24-1.61-.91-.39-.22-.1-.06a.46.46,0,0,0-.45,0l-1.75,1-.69.39c-.14.07-.15.18,0,.25l.1.06.39.23.2.11h0l1.8,1a.57.57,0,0,0,.46,0L99,82.2l.55-.31C99.71,81.81,99.72,81.7,99.61,81.64Zm3.8,2.15-1.49-.85-.4-.22-.52-.3-.11-.06a.53.53,0,0,0-.44,0l-.81.47L98,83.78c-.14.08-.15.18,0,.24l.12.07.52.31.41.21,1.46.85a.52.52,0,0,0,.44,0l1.62-.92.83-.48C103.51,84,103.52,83.86,103.41,83.79Zm3.82,2.15-1-.55-.39-.22-.53-.3-.39-.22-.24-.13a.52.52,0,0,0-.44,0l-.84.48-1.61.91c-.13.08-.14.19,0,.25l.25.14.41.23.53.3.37.23,1,.52a.43.43,0,0,0,.44,0l1.59-.9.87-.5C107.31,86.12,107.32,86,107.23,85.94ZM111,88.1l-2.52-1.42a.43.43,0,0,0-.45,0l-.86.49-1.57.9c-.15.07-.16.2,0,.25l2.5,1.42a.56.56,0,0,0,.44,0l1.57-.89.89-.51C111.11,88.28,111.13,88.16,111,88.1Zm3.87,2.23a.19.19,0,0,0-.08-.07l-.17-.1-2.32-1.34-.17,0a.62.62,0,0,0-.29.07l-.89.51-1.54.89c-.08,0-.12.08-.12.12s0,.09.08.13l1.64.92.87.5a.52.52,0,0,0,.44,0l.85-.49.68-.39.92-.53a.18.18,0,0,0,.07,0,.13.13,0,0,0,0-.08Zm3.74,2.07-1.74-1L116.1,91a.53.53,0,0,0-.44,0l-.75.42-1.69,1c-.14.09-.15.2,0,.27l2.5,1.41a.46.46,0,0,0,.44,0l2.45-1.4C118.72,92.59,118.73,92.48,118.63,92.4Zm3.79,2.16-2.5-1.42a.5.5,0,0,0-.46,0l-.42.24h0l-.81.47-1.2.68c-.13.07-.15.2,0,.26l1.25.7.63.35.63.36a.46.46,0,0,0,.44,0l2.45-1.39C122.52,94.75,122.54,94.62,122.42,94.56Zm3.81,2.16-1.6-.91h0l-.92-.52a.46.46,0,0,0-.44,0l-2.45,1.4c-.12.07-.14.19,0,.25l1.08.61h0l1.43.8a.52.52,0,0,0,.44,0l2.45-1.4C126.32,96.9,126.33,96.78,126.23,96.72ZM130,98.86l-2.5-1.42a.54.54,0,0,0-.46,0l-2.43,1.38c-.14.09-.16.2,0,.27l2.52,1.41a.48.48,0,0,0,.45,0L130,99.13C130.12,99.05,130.14,98.94,130,98.86Zm3.8,2.16-1.12-.64h0l-1.39-.78a.44.44,0,0,0-.43,0L128.43,101c-.13.08-.15.2-.05.27l2.52,1.41a.51.51,0,0,0,.45,0l1-.55,1.47-.83C133.93,101.21,133.94,101.09,133.82,101Zm5.85,3.31-1.79-1L135.55,102l-.47-.26a.5.5,0,0,0-.43,0l-2.46,1.4c-.12.07-.13.18,0,.24L135,105h0l.55.31,1.18.67a.52.52,0,0,0,.47,0l2.42-1.39C139.76,104.52,139.79,104.39,139.67,104.33Zm-38.2-25.74-.3-.17-.39-.23-.43-.24-.09-.06-.39-.22-1.06-.59L96.91,76h0l-.07,0a.4.4,0,0,0-.35,0l-.27.16h0L94,77.42c-.1.06-.14.15-.07.22l0,0h0a0,0,0,0,0,0,0l1.42.81,1.53.87.39.22.53.3.39.21.29.17a.55.55,0,0,0,.45,0l1.61-.92,0,0,.78-.45C101.57,78.76,101.59,78.66,101.47,78.59Zm3.78,2.14-.15-.07-.52-.3-.4-.23-1.44-.82a.55.55,0,0,0-.45,0l-.83.47-.22.13-1.39.79c-.13.07-.15.19,0,.25l1.47.83.39.22.52.3.14.07a.41.41,0,0,0,.44,0l.54-.31,1-.59.86-.49C105.36,80.91,105.37,80.79,105.25,80.73Zm3.82,2.16-.15-.09-.39-.21-2-1.13a.46.46,0,0,0-.45,0l-.85.49-1.25.71-.34.19c-.14.07-.14.18,0,.25l2,1.13.39.22.07,0,0,0a.55.55,0,0,0,.45,0l1.56-.88.88-.51C109.16,83.06,109.17,83,109.07,82.89Zm3.78,2.16-2.51-1.44a.52.52,0,0,0-.45,0l-.88.51-1.55.89c-.14.07-.16.17,0,.24l2.51,1.43a.55.55,0,0,0,.45,0l1.52-.87.92-.53C113,85.21,113,85.11,112.85,85.05Zm3.82,2.14-.62-.34-1.91-1.08a.52.52,0,0,0-.44,0l-.92.53-1.53.86c-.13.08-.14.19,0,.25l2.5,1.43a.46.46,0,0,0,.45,0l2.45-1.38C116.75,87.37,116.76,87.26,116.67,87.19Zm3.79,2.16h0l-2.52-1.43a.5.5,0,0,0-.44,0l-2.44,1.39c-.14.07-.15.18,0,.25l1.37.78,1.13.64a.48.48,0,0,0,.45,0l1.09-.62.13-.07h0l.19-.1h0l.47-.26h0l.28-.16h0l.15-.08.12-.07C120.55,89.52,120.57,89.41,120.46,89.35Zm3.82,2.16-.15-.09-1.86-1-.51-.29a.5.5,0,0,0-.46,0l-.48.27-.62.35h0l-.44.25h0l-.74.42h0l0,0-.1.08c-.14.07-.15.18,0,.24l.09.05.46.26,1.17.67.79.45a.52.52,0,0,0,.44,0h0l1.1-.63,1.34-.76C124.36,91.68,124.37,91.57,124.28,91.51Zm3.79,2.15-2.52-1.43a.52.52,0,0,0-.45,0l-1.39.79-.77.44-.27.15c-.15.08-.16.19,0,.26L125,95.26l.1.06a.48.48,0,0,0,.45,0l1.41-.79,1-.6C128.16,93.83,128.19,93.72,128.07,93.66Zm3.79,2.15-.55-.32h0l-.69-.4-1.25-.71a.51.51,0,0,0-.45,0l-.6.34-1.85,1c-.13.08-.15.18,0,.25l2.51,1.43a.49.49,0,0,0,.44,0l2.27-1.28.18-.1C132,96,132,95.88,131.86,95.81ZM135.67,98l-.12-.08-2.4-1.35a.5.5,0,0,0-.43,0L132,97h0l-1.74,1c-.12.07-.14.18,0,.24l2.45,1.39.06,0a.46.46,0,0,0,.44,0l2.37-1.35.09-.05C135.76,98.14,135.77,98,135.67,98Zm3.8,2.15L137,98.7a.52.52,0,0,0-.47,0l-.95.56-1.48.83c-.13.07-.16.19,0,.25l1.51.85,1,.57a.48.48,0,0,0,.45,0l2.43-1.39C139.58,100.3,139.58,100.18,139.47,100.12Zm3.81,2.15-1.84-1-.68-.39a.46.46,0,0,0-.44,0l-2.45,1.38c-.13.08-.15.18,0,.26l.71.41,1.79,1a.54.54,0,0,0,.45,0l2.44-1.39C143.37,102.44,143.38,102.34,143.28,102.27Zm2.25-1.29-1.86-1.06-2-1.13a.57.57,0,0,0-.46,0l-1.1.63c-.14.08-.15.19,0,.26l2,1.13,1.86,1.06a.47.47,0,0,0,.43,0l1.1-.63C145.63,101.15,145.65,101,145.53,101Z"/></g></mask><linearGradient id="linear-gradient-13" x1="95.21" y1="71.8" x2="130.95" y2="110.29" xlink:href="#linear-gradient-12"/><linearGradient id="linear-gradient-14" x1="93.53" y1="91.36" x2="119.06" y2="142.17" xlink:href="#linear-gradient-12"/><linearGradient id="linear-gradient-15" x1="109.28" y1="68.79" x2="139.13" y2="68.79" xlink:href="#linear-gradient-11"/><linearGradient id="linear-gradient-16" x1="113.99" y1="84.99" x2="131.29" y2="57.56" xlink:href="#linear-gradient-7"/><linearGradient id="linear-gradient-17" x1="118.69" y1="91.72" x2="118.47" y2="89.37" gradientUnits="userSpaceOnUse"><stop offset="0.12" stop-color="#f4f4f4"/><stop offset="0.29" stop-color="#f2f1f3"/><stop offset="0.43" stop-color="#eae6ef"/><stop offset="0.56" stop-color="#ddd5e8"/><stop offset="0.69" stop-color="#cbbcdf"/><stop offset="0.81" stop-color="#b49dd3"/><stop offset="0.92" stop-color="#9977c4"/><stop offset="1" stop-color="#8359b9"/></linearGradient><linearGradient id="linear-gradient-18" x1="112.02" y1="90.34" x2="134.7" y2="99.69" xlink:href="#linear-gradient-12"/><linearGradient id="linear-gradient-19" x1="122.5" y1="66.43" x2="95.99" y2="103.13" xlink:href="#linear-gradient-12"/><filter id="luminosity-noclip-8" x="17.4" y="93.72" width="112.55" height="43.68" filterUnits="userSpaceOnUse" color-interpolation-filters="sRGB"><feFlood flood-color="#fff" result="bg"/><feBlend in="SourceGraphic" in2="bg"/></filter><mask id="mask-8" x="17.4" y="93.72" width="112.55" height="43.68" maskUnits="userSpaceOnUse"><g class="cls-5"><path class="cls-6" d="M129.94,137.4H50L18.32,118.06c-1.15-.66-1.22-1.7-.23-2.4.21-.15,0,0,5-2.9h0L53.82,95a14.27,14.27,0,0,1,1.74-1c2.93-1.13,5,1,5.54,1.19h0l6.64,4h0l5.42,3.29,13.3,8.52Z"/></g></mask><linearGradient id="linear-gradient-20" x1="48.91" y1="74.85" x2="72.87" y2="125.52" xlink:href="#linear-gradient-6"/><linearGradient id="linear-gradient-21" x1="50.79" y1="86.47" x2="76.83" y2="86.47" xlink:href="#linear-gradient-7"/><linearGradient id="linear-gradient-22" x1="7" y1="89.89" x2="61.98" y2="99.19" xlink:href="#linear-gradient-11"/><linearGradient id="linear-gradient-23" x1="16.35" y1="106.49" x2="41.93" y2="106.49" xlink:href="#linear-gradient-7"/><linearGradient id="linear-gradient-24" x1="74.12" y1="70.88" x2="51.84" y2="101.27" xlink:href="#linear-gradient-11"/><linearGradient id="linear-gradient-25" x1="59.87" y1="79.43" x2="23.71" y2="121.62" xlink:href="#linear-gradient-12"/><linearGradient id="linear-gradient-26" x1="32.89" y1="93.98" x2="25.34" y2="117.01" xlink:href="#linear-gradient-11"/><filter id="luminosity-noclip-9" x="70.56" y="51.67" width="31.08" height="17.13" filterUnits="userSpaceOnUse" color-interpolation-filters="sRGB"><feFlood flood-color="#fff" result="bg"/><feBlend in="SourceGraphic" in2="bg"/></filter><mask id="mask-9" x="70.56" y="51.67" width="31.08" height="17.13" maskUnits="userSpaceOnUse"><g class="cls-7"><polygon class="cls-8" points="70.56 57.5 89.02 68.8 101.64 62.08 83.97 51.67 80.83 57.18 70.56 57.5"/></g></mask><linearGradient id="linear-gradient-27" x1="81.59" y1="52.08" x2="90.15" y2="66.71" xlink:href="#linear-gradient-6"/><linearGradient id="linear-gradient-28" x1="63.22" y1="47.08" x2="81.83" y2="55.11" xlink:href="#linear-gradient-11"/><linearGradient id="linear-gradient-29" x1="62.97" y1="49.05" x2="88.79" y2="50.98" gradientUnits="userSpaceOnUse"><stop offset="0" stop-color="#9007fb"/><stop offset="1" stop-color="#38048f"/></linearGradient><linearGradient id="linear-gradient-30" x1="66" y1="52.89" x2="89.02" y2="52.89" gradientUnits="userSpaceOnUse"><stop offset="0.43" stop-color="#eef6fb"/><stop offset="1" stop-color="#abd1ec"/></linearGradient><linearGradient id="linear-gradient-31" x1="66.9" y1="46.24" x2="88.16" y2="46.24" xlink:href="#linear-gradient-30"/><linearGradient id="linear-gradient-32" x1="68.45" y1="44.27" x2="145.05" y2="83.55" xlink:href="#linear-gradient-12"/><filter id="luminosity-noclip-10" x="74.1" y="115.2" width="52.02" height="22.2" filterUnits="userSpaceOnUse" color-interpolation-filters="sRGB"><feFlood flood-color="#fff" result="bg"/><feBlend in="SourceGraphic" in2="bg"/></filter><mask id="mask-10" x="74.1" y="115.2" width="52.02" height="22.2" maskUnits="userSpaceOnUse"><g class="cls-9"><polygon class="cls-10" points="126.11 137.4 99.92 137.4 74.1 122.4 87.91 115.2 126.11 137.4"/></g></mask><linearGradient id="linear-gradient-33" x1="80.71" y1="106.65" x2="103.59" y2="134.08" xlink:href="#linear-gradient-6"/><linearGradient id="linear-gradient-34" x1="-2359.12" y1="12.25" x2="-2332.98" y2="34.52" gradientTransform="translate(2407.03 78.63)" gradientUnits="userSpaceOnUse"><stop offset="0" stop-color="#f57454"/><stop offset="1" stop-color="#f7947c"/></linearGradient><linearGradient id="linear-gradient-35" x1="-2354.26" y1="15.83" x2="-2329.33" y2="37.06" gradientTransform="translate(2407.03 78.63)" gradientUnits="userSpaceOnUse"><stop offset="0.2" stop-color="#f4c4da"/><stop offset="1" stop-color="#ab9bf4"/></linearGradient><linearGradient id="linear-gradient-36" x1="76.71" y1="105.46" x2="77.98" y2="122.27" gradientUnits="userSpaceOnUse"><stop offset="0" stop-color="#fab371"/><stop offset="1" stop-color="#fcd5b0"/></linearGradient><linearGradient id="linear-gradient-37" x1="8418.72" y1="113.45" x2="8410.95" y2="119.05" gradientTransform="matrix(-1, 0, 0, 1, 8500.27, 0)" xlink:href="#linear-gradient-34"/><linearGradient id="linear-gradient-38" x1="8426.38" y1="107.03" x2="8417.74" y2="114.66" gradientTransform="matrix(-1, 0, 0, 1, 8500.27, 0)" xlink:href="#linear-gradient-34"/><linearGradient id="linear-gradient-39" x1="8432.57" y1="108.41" x2="8412.01" y2="118.47" gradientTransform="matrix(-1, 0, 0, 1, 8500.27, 0)" xlink:href="#linear-gradient-34"/><linearGradient id="linear-gradient-40" x1="8425.51" y1="116.76" x2="8417.88" y2="119.31" gradientTransform="matrix(-1, 0, 0, 1, 8500.27, 0)" xlink:href="#linear-gradient-34"/><linearGradient id="linear-gradient-41" x1="8437.01" y1="109.01" x2="8413.71" y2="128.39" gradientTransform="matrix(-1, 0, 0, 1, 8500.27, 0)" xlink:href="#linear-gradient-34"/><linearGradient id="linear-gradient-42" x1="10556.16" y1="83.71" x2="10547.33" y2="62.68" gradientTransform="matrix(-1, 0, 0, 1, 10572.01, 0)" gradientUnits="userSpaceOnUse"><stop offset="0" stop-color="#06fcfc"/><stop offset="0.05" stop-color="#0ce8f5"/><stop offset="0.2" stop-color="#1dace1"/><stop offset="0.35" stop-color="#2d77cf"/><stop offset="0.49" stop-color="#394dc1"/><stop offset="0.63" stop-color="#432cb6"/><stop offset="0.77" stop-color="#4914ad"/><stop offset="0.89" stop-color="#4e06a9"/><stop offset="1" stop-color="#4f01a7"/></linearGradient><linearGradient id="linear-gradient-43" x1="10559.6" y1="70.6" x2="10519.06" y2="41.09" xlink:href="#linear-gradient-42"/><linearGradient id="linear-gradient-44" x1="41.02" y1="64.52" x2="54.29" y2="46.89" gradientUnits="userSpaceOnUse"><stop offset="0" stop-color="#f4f4f4"/><stop offset="0.23" stop-color="#b1d4e4"/><stop offset="0.51" stop-color="#6ab2d4"/><stop offset="0.74" stop-color="#3599c7"/><stop offset="0.91" stop-color="#158ac0"/><stop offset="1" stop-color="#0984bd"/></linearGradient><linearGradient id="linear-gradient-45" x1="36.56" y1="64.08" x2="44.08" y2="45.35" xlink:href="#linear-gradient-44"/><linearGradient id="linear-gradient-46" x1="23.26" y1="64.36" x2="14.78" y2="87.88" xlink:href="#linear-gradient-44"/><linearGradient id="linear-gradient-47" x1="21.39" y1="70.64" x2="35.88" y2="46.45" xlink:href="#linear-gradient-44"/><linearGradient id="linear-gradient-48" x1="55.47" y1="44.83" x2="17.09" y2="84.16" xlink:href="#linear-gradient-12"/><linearGradient id="linear-gradient-49" x1="48.15" y1="89.71" x2="62.59" y2="89.71" xlink:href="#linear-gradient-11"/><linearGradient id="linear-gradient-50" x1="43.84" y1="92" x2="59.75" y2="92" xlink:href="#linear-gradient-11"/><linearGradient id="linear-gradient-51" x1="40.7" y1="94.02" x2="55.89" y2="94.02" xlink:href="#linear-gradient-11"/><linearGradient id="linear-gradient-52" x1="35.3" y1="96.49" x2="52.52" y2="96.49" xlink:href="#linear-gradient-11"/><linearGradient id="linear-gradient-53" x1="31.76" y1="97.28" x2="37.77" y2="97.28" xlink:href="#linear-gradient-36"/><linearGradient id="linear-gradient-54" x1="39.74" y1="102.1" x2="47.28" y2="102.1" gradientTransform="matrix(1, 0, 0, 1, 0, 0)" xlink:href="#linear-gradient-34"/><linearGradient id="linear-gradient-55" x1="41.69" y1="102.24" x2="45.7" y2="102.24" gradientTransform="matrix(1, 0, 0, 1, 0, 0)" xlink:href="#linear-gradient-34"/><linearGradient id="linear-gradient-56" x1="42.03" y1="101.83" x2="44.99" y2="101.83" gradientTransform="matrix(1, 0, 0, 1, 0, 0)" xlink:href="#linear-gradient-34"/></defs><g class="cls-11"><g id="OCR_hero" data-name="OCR hero"><line class="cls-12" x1="80.3" y1="58.04" x2="79.74" y2="57.49"/><g class="cls-13"><polygon class="cls-14" points="163.87 111.89 163.87 137.4 138.59 137.4 111.1 119.95 111.06 119.92 110.38 119.5 111.7 118.72 111.71 118.72 127.89 109.2 130.77 107.5 131.45 107.1 134.33 105.41 135 105.01 135 105.01 137.88 103.32 138.55 102.92 141.44 101.23 142.11 100.83 143.67 99.92 144.1 99.67 144.16 99.63 145.73 100.59 145.79 100.62 147.59 101.72 148.15 102.06 148.16 102.06 163.87 111.89"/></g><path class="cls-15" d="M150.55,97.75c0,1-.36,1.69-.94,1.92l-1.47.88-1.41-1.92L101.07,36.79l-.69-.93,1.47-.88.14-.07h0a1.59,1.59,0,0,1,1.39.18l45.25,25.65a4.35,4.35,0,0,1,1.86,3.49Z"/><path class="cls-16" d="M146.73,98.63,103,73.84a4.35,4.35,0,0,1-1.86-3.49l-.05-33.53v0Z"/><path class="cls-17" d="M66.24,92.5v1.57a.88.88,0,0,0,.53.75l46.57,26.4a3.49,3.49,0,0,0,3.08-.13l31-17.68a1.25,1.25,0,0,0,.75-1v-1.57l-.81.65L101.05,75.27A3.46,3.46,0,0,0,98,75.4L67,93.08c-.14.08-.09-.36-.2-.27Z"/><path class="cls-18" d="M100.17,36a.65.65,0,0,1,.21-.16l.14-.08h0a1.57,1.57,0,0,1,1.38.18l45.25,25.65A4.33,4.33,0,0,1,149,65.1l.05,33.53a1.92,1.92,0,0,1-.93,1.92,1.63,1.63,0,0,1-1.39-.19L101.51,74.71a4.33,4.33,0,0,1-1.86-3.49L99.6,37.69A2.22,2.22,0,0,1,100.17,36Z"/><path class="cls-19" d="M101.05,73.7l46.57,26.39a.93.93,0,0,1,.53.76,1.23,1.23,0,0,1-.75,1l-31,17.68a3.46,3.46,0,0,1-3.08.13L66.77,93.26a.89.89,0,0,1-.53-.76,1.24,1.24,0,0,1,.75-1L98,73.83A3.46,3.46,0,0,1,101.05,73.7Z"/><path class="cls-20" d="M101.7,76.13,101,75.7,99.64,75h0l-.44-.25h0a0,0,0,0,1,0,0,.35.35,0,0,0-.11,0,.41.41,0,0,0-.31,0l-1.07.61h0l0,0-.06.06a.12.12,0,0,0,0,.08s0,0,0,0a.05.05,0,0,0,0,0h0l.17.09L100.11,77a.54.54,0,0,0,.45,0l1.11-.64c.06,0,.11-.1.11-.14A.14.14,0,0,0,101.7,76.13Zm3.87,2.2-2.14-1.21-.38-.22h0a.52.52,0,0,0-.42,0l-1.11.62c-.13.09-.14.19,0,.26h0l.38.23L104,79.24a.5.5,0,0,0,.44,0l1.1-.63C105.66,78.5,105.67,78.39,105.57,78.33Zm3.9,2.21a.05.05,0,0,1,0,0l-.16-.09-1.49-.86-.41-.22-.46-.26-.07,0h0a.66.66,0,0,0-.37,0l-1.1.63c-.11.06-.14.16-.08.21a.08.08,0,0,0,0,0l.46.27.41.22,1.65.93a.41.41,0,0,0,.44,0l1.11-.63C109.51,80.7,109.54,80.6,109.47,80.54Zm3.82,2.16-1.2-.69-.39-.21-.53-.3-.39-.22a.59.59,0,0,0-.45,0l-1.1.63c-.13.07-.15.18,0,.25h0l.39.22.53.3.38.22,1.2.67a.46.46,0,0,0,.44,0l1.11-.62C113.39,82.89,113.41,82.77,113.29,82.7Zm3.87,2.2L115.51,84l-.86-.49a.47.47,0,0,0-.46,0l-.12.07-1,.55c-.13.07-.14.19,0,.25l2.5,1.42a.48.48,0,0,0,.45,0l1.1-.63C117.26,85.08,117.27,85,117.16,84.9ZM121,87.09l-2.51-1.43a.46.46,0,0,0-.45,0l-1.11.62c-.12.08-.13.19,0,.25L119.44,88a.48.48,0,0,0,.45,0l1.09-.63C121.12,87.26,121.13,87.15,121,87.09Zm3.87,2.19-2.52-1.43a.48.48,0,0,0-.45,0l-1,.58-.09,0c-.11.06-.13.16,0,.23l0,0,2.5,1.42a.43.43,0,0,0,.44,0l1.11-.63C125,89.46,125,89.34,124.89,89.28Zm3.86,2.18-.05,0-.51-.28h0l-1.38-.77-.57-.32a.5.5,0,0,0-.46,0l-.54.31-.54.32c-.15.07-.17.2,0,.26l.83.47,1.67.94a.59.59,0,0,0,.45,0l1.08-.62h0C128.85,91.64,128.86,91.53,128.75,91.46Zm3.86,2.2-2.5-1.43a.54.54,0,0,0-.46,0l-.36.2-.74.42c-.12.07-.16.19,0,.26l2.09,1.18.43.24a.53.53,0,0,0,.44,0l1.1-.63C132.72,93.83,132.73,93.72,132.61,93.66Zm3.87,2.18-.68-.38-.25-.15L134,94.42a.48.48,0,0,0-.45,0l-1.09.64c-.11.06-.14.13-.09.2l0,0,2.52,1.43a.53.53,0,0,0,.44,0l.21-.12.9-.51C136.57,96,136.6,95.91,136.48,95.84ZM140.33,98l-2.51-1.43a.53.53,0,0,0-.44,0l-1.1.63c-.14.09-.15.19,0,.26l2.51,1.43a.49.49,0,0,0,.44,0l1.1-.61C140.44,98.21,140.46,98.1,140.33,98Zm-20.51,3.27L102.4,91.42l-.29-.15a.46.46,0,0,0-.44,0l-.25.13-2.2,1.26c-.13.07-.13.19,0,.25l17.7,10a.55.55,0,0,0,.45,0l2.44-1.39C119.92,101.46,119.92,101.36,119.82,101.3ZM100.71,90.47l-.17-.1-1.47-.84-.4-.21-.53-.3-.38-.23-.39-.22a.51.51,0,0,0-.45,0L94.48,90c-.12.08-.14.18,0,.26l.4.22.4.23.32.18.6.33.38.21,1.25.71a.46.46,0,0,0,.44,0l1.2-.69,1.24-.7C100.81,90.64,100.83,90.54,100.71,90.47Zm24.11,13.66-3.56-2a.46.46,0,0,0-.44,0l-2.46,1.4c-.12.07-.12.19,0,.25l2.15,1.22h0l1.39.79a.55.55,0,0,0,.45,0l.69-.4h0l1.74-1C124.91,104.3,124.92,104.19,124.82,104.13Zm3.82,2.17-1.65-.94h0l-.86-.49a.49.49,0,0,0-.44,0l-1,.57h0l-1.42.81c-.14.09-.16.19,0,.26l2.51,1.42a.48.48,0,0,0,.45,0l2.44-1.39C128.73,106.47,128.76,106.37,128.64,106.3Zm3.82,2.15-1.69-1-.84-.47a.46.46,0,0,0-.44,0l-2.44,1.39c-.14.08-.15.19,0,.26l.88.5,1.63.92a.49.49,0,0,0,.44,0l2.46-1.38C132.55,108.63,132.55,108.52,132.46,108.45ZM95,83.14l0,0-1-.55-.39-.22-.53-.3-.39-.22-3-1.7h0a.54.54,0,0,0-.41,0h0l-2.43,1.39c-.13.07-.15.17,0,.23a0,0,0,0,0,0,0h0l3,1.71h0l.38.21.52.3.39.23.94.53a.49.49,0,0,0,.44,0l2.46-1.4a.16.16,0,0,0,.09-.11h0A.12.12,0,0,0,95,83.14Zm-6.4.46-2.51-1.42h0a.47.47,0,0,0-.43,0l-2.43,1.39c-.13.08-.16.19,0,.26h0l2.51,1.41a.57.57,0,0,0,.46,0l2.43-1.39C88.7,83.79,88.73,83.67,88.6,83.6Zm3.81,2.16-2-1.14-.21-.11h0l-.18-.1-.14-.08a.52.52,0,0,0-.44,0L87,85.75c-.13.07-.14.19,0,.26l.15.08.38.22,2,1.11a.48.48,0,0,0,.45,0l1.45-.82h0l1-.57C92.51,85.94,92.51,85.82,92.41,85.76Zm3.74,2.12-1.4-.79-.4-.23-.52-.29-.19-.11a.5.5,0,0,0-.46,0l-.06,0-1.29.74h0l-1.08.62-.06,0,0,0a.12.12,0,0,0,0,.19l.2.11.52.3.4.22,1.39.78a.5.5,0,0,0,.4,0h0l0,0,2.44-1.4C96.25,88.06,96.26,88,96.15,87.88Zm2.61-2.62L98.32,85,98,84.79l-.54-.3-.4-.22-.77-.43a.49.49,0,0,0-.44,0l-.42.24-2,1.16c-.13.07-.14.19,0,.25l.78.44.4.24.52.29.39.23.41.22a.46.46,0,0,0,.44,0l1.72-1h0l.72-.41C98.85,85.44,98.86,85.32,98.76,85.26Zm3.87,2.23a.15.15,0,0,0-.08-.08l-.29-.16-.52-.3-.39-.23-1.3-.74a.51.51,0,0,0-.45,0l-.7.4-1.73,1c-.15.08-.17.18,0,.26l1.32.74.38.22.55.31.26.15a.38.38,0,0,0,.16,0,.72.72,0,0,0,.29-.06l1.83-1,.6-.35C102.62,87.6,102.65,87.54,102.63,87.49Zm3.73,2.08-2.52-1.43a.52.52,0,0,0-.44,0l-.59.34L101,89.56c-.13.07-.14.18,0,.24l1,.57,1.51.86a.48.48,0,0,0,.45,0l1.46-.84.45-.26h0l.53-.3C106.46,89.74,106.47,89.63,106.36,89.57Zm3.79,2.15-.52-.3-1.87-1-.12-.07a.49.49,0,0,0-.44,0l-.08.05-.42.23-1.44.82-.49.29c-.14.07-.16.19,0,.25l2.52,1.42a.44.44,0,0,0,.44,0l2-1.14.43-.25C110.25,91.9,110.27,91.78,110.15,91.72ZM114,93.88l-2.52-1.44a.46.46,0,0,0-.44,0l-.41.23-2,1.16c-.12.07-.13.17,0,.25L111,95.54a.52.52,0,0,0,.44,0l2.1-1.19h0l.36-.2C114.06,94,114.07,93.94,114,93.88ZM117.75,96l-2.49-1.43a.57.57,0,0,0-.46,0l-.33.19L112.36,96c-.14.08-.15.18,0,.25l2.51,1.43a.55.55,0,0,0,.45,0l2.16-1.24h0l.28-.16C117.86,96.2,117.88,96.1,117.75,96Zm3.82,2.15-.7-.39h0l-1.8-1h0a.49.49,0,0,0-.27,0l-.14,0-.26.15h0l-2.19,1.24c-.12.07-.14.19,0,.25l2.52,1.42a.43.43,0,0,0,.45,0l2.44-1.39C121.67,98.36,121.68,98.24,121.57,98.18Zm3.79,2.16-2.5-1.43a.46.46,0,0,0-.45,0L120,100.33c-.13.07-.14.18,0,.25l2.51,1.42a.57.57,0,0,0,.46,0l2.43-1.39C125.46,100.51,125.48,100.4,125.36,100.34Zm3.8,2.16-2.5-1.44a.47.47,0,0,0-.43,0l-2.46,1.4c-.12.07-.13.17,0,.24l2.53,1.43a.5.5,0,0,0,.43,0l2.45-1.4C129.27,102.66,129.28,102.56,129.16,102.5Zm6.9,3.89-.51-.29-1.22-.69-3.09-1.76h0l-.78-.44a.57.57,0,0,0-.46,0l-2.43,1.39c-.14.08-.16.19,0,.25l.53.3h0l3.39,1.92,1.68,1a.46.46,0,0,0,.44,0l2-1.12.46-.28C136.15,106.57,136.16,106.45,136.06,106.39ZM95.83,79.49l-.58-.33h0l-1.94-1.09h0a.06.06,0,0,0-.05,0,.55.55,0,0,0-.38,0l-2.43,1.39c-.13.08-.16.18-.06.23a0,0,0,0,1,0,0h0l2.51,1.43a.48.48,0,0,0,.45,0l1.69-1,.76-.43C95.92,79.67,95.94,79.56,95.83,79.49Zm3.78,2.15-.41-.24-1.61-.91-.39-.22-.1-.06a.46.46,0,0,0-.45,0l-1.75,1-.69.39c-.14.07-.15.18,0,.25l.1.06.39.23.2.11h0l1.8,1a.57.57,0,0,0,.46,0L99,82.2l.55-.31C99.71,81.81,99.72,81.7,99.61,81.64Zm3.8,2.15-1.49-.85-.4-.22-.52-.3-.11-.06a.53.53,0,0,0-.44,0l-.81.47L98,83.78c-.14.08-.15.18,0,.24l.12.07.52.31.41.21,1.46.85a.52.52,0,0,0,.44,0l1.62-.92.83-.48C103.51,84,103.52,83.86,103.41,83.79Zm3.82,2.15-1-.55-.39-.22-.53-.3-.39-.22-.24-.13a.52.52,0,0,0-.44,0l-.84.48-1.61.91c-.13.08-.14.19,0,.25l.25.14.41.23.53.3.37.23,1,.52a.43.43,0,0,0,.44,0l1.59-.9.87-.5C107.31,86.12,107.32,86,107.23,85.94ZM111,88.1l-2.52-1.42a.43.43,0,0,0-.45,0l-.86.49-1.57.9c-.15.07-.16.2,0,.25l2.5,1.42a.56.56,0,0,0,.44,0l1.57-.89.89-.51C111.11,88.28,111.13,88.16,111,88.1Zm3.87,2.23a.19.19,0,0,0-.08-.07l-.17-.1-2.32-1.34-.17,0a.62.62,0,0,0-.29.07l-.89.51-1.54.89c-.08,0-.12.08-.12.12s0,.09.08.13l1.64.92.87.5a.52.52,0,0,0,.44,0l.85-.49.68-.39.92-.53a.18.18,0,0,0,.07,0,.13.13,0,0,0,0-.08Zm3.74,2.07-1.74-1L116.1,91a.53.53,0,0,0-.44,0l-.75.42-1.69,1c-.14.09-.15.2,0,.27l2.5,1.41a.46.46,0,0,0,.44,0l2.45-1.4C118.72,92.59,118.73,92.48,118.63,92.4Zm3.79,2.16-2.5-1.42a.5.5,0,0,0-.46,0l-.42.24h0l-.81.47-1.2.68c-.13.07-.15.2,0,.26l1.25.7.63.35.63.36a.46.46,0,0,0,.44,0l2.45-1.39C122.52,94.75,122.54,94.62,122.42,94.56Zm3.81,2.16-1.6-.91h0l-.92-.52a.46.46,0,0,0-.44,0l-2.45,1.4c-.12.07-.14.19,0,.25l1.08.61h0l1.43.8a.52.52,0,0,0,.44,0l2.45-1.4C126.32,96.9,126.33,96.78,126.23,96.72ZM130,98.86l-2.5-1.42a.54.54,0,0,0-.46,0l-2.43,1.38c-.14.09-.16.2,0,.27l2.52,1.41a.48.48,0,0,0,.45,0L130,99.13C130.12,99.05,130.14,98.94,130,98.86Zm3.8,2.16-1.12-.64h0l-1.39-.78a.44.44,0,0,0-.43,0L128.43,101c-.13.08-.15.2-.05.27l2.52,1.41a.51.51,0,0,0,.45,0l1-.55,1.47-.83C133.93,101.21,133.94,101.09,133.82,101Zm5.85,3.31-1.79-1L135.55,102l-.47-.26a.5.5,0,0,0-.43,0l-2.46,1.4c-.12.07-.13.18,0,.24L135,105h0l.55.31,1.18.67a.52.52,0,0,0,.47,0l2.42-1.39C139.76,104.52,139.79,104.39,139.67,104.33Zm-38.2-25.74-.3-.17-.39-.23-.43-.24-.09-.06-.39-.22-1.06-.59L96.91,76h0l-.07,0a.4.4,0,0,0-.35,0l-.27.16h0L94,77.42c-.1.06-.14.15-.07.22l0,0h0a0,0,0,0,0,0,0l1.42.81,1.53.87.39.22.53.3.39.21.29.17a.55.55,0,0,0,.45,0l1.61-.92,0,0,.78-.45C101.57,78.76,101.59,78.66,101.47,78.59Zm3.78,2.14-.15-.07-.52-.3-.4-.23-1.44-.82a.55.55,0,0,0-.45,0l-.83.47-.22.13-1.39.79c-.13.07-.15.19,0,.25l1.47.83.39.22.52.3.14.07a.41.41,0,0,0,.44,0l.54-.31,1-.59.86-.49C105.36,80.91,105.37,80.79,105.25,80.73Zm3.82,2.16-.15-.09-.39-.21-2-1.13a.46.46,0,0,0-.45,0l-.85.49-1.25.71-.34.19c-.14.07-.14.18,0,.25l2,1.13.39.22.07,0,0,0a.55.55,0,0,0,.45,0l1.56-.88.88-.51C109.16,83.06,109.17,83,109.07,82.89Zm3.78,2.16-2.51-1.44a.52.52,0,0,0-.45,0l-.88.51-1.55.89c-.14.07-.16.17,0,.24l2.51,1.43a.55.55,0,0,0,.45,0l1.52-.87.92-.53C113,85.21,113,85.11,112.85,85.05Zm3.82,2.14-.62-.34-1.91-1.08a.52.52,0,0,0-.44,0l-.92.53-1.53.86c-.13.08-.14.19,0,.25l2.5,1.43a.46.46,0,0,0,.45,0l2.45-1.38C116.75,87.37,116.76,87.26,116.67,87.19Zm3.79,2.16h0l-2.52-1.43a.5.5,0,0,0-.44,0l-2.44,1.39c-.14.07-.15.18,0,.25l1.37.78,1.13.64a.48.48,0,0,0,.45,0l1.09-.62.13-.07h0l.19-.1h0l.47-.26h0l.28-.16h0l.15-.08.12-.07C120.55,89.52,120.57,89.41,120.46,89.35Zm3.82,2.16-.15-.09-1.86-1-.51-.29a.5.5,0,0,0-.46,0l-.48.27-.62.35h0l-.44.25h0l-.74.42h0l0,0-.1.08c-.14.07-.15.18,0,.24l.09.05.46.26,1.17.67.79.45a.52.52,0,0,0,.44,0h0l1.1-.63,1.34-.76C124.36,91.68,124.37,91.57,124.28,91.51Zm3.79,2.15-2.52-1.43a.52.52,0,0,0-.45,0l-1.39.79-.77.44-.27.15c-.15.08-.16.19,0,.26L125,95.26l.1.06a.48.48,0,0,0,.45,0l1.41-.79,1-.6C128.16,93.83,128.19,93.72,128.07,93.66Zm3.79,2.15-.55-.32h0l-.69-.4-1.25-.71a.51.51,0,0,0-.45,0l-.6.34-1.85,1c-.13.08-.15.18,0,.25l2.51,1.43a.49.49,0,0,0,.44,0l2.27-1.28.18-.1C132,96,132,95.88,131.86,95.81ZM135.67,98l-.12-.08-2.4-1.35a.5.5,0,0,0-.43,0L132,97h0l-1.74,1c-.12.07-.14.18,0,.24l2.45,1.39.06,0a.46.46,0,0,0,.44,0l2.37-1.35.09-.05C135.76,98.14,135.77,98,135.67,98Zm3.8,2.15L137,98.7a.52.52,0,0,0-.47,0l-.95.56-1.48.83c-.13.07-.16.19,0,.25l1.51.85,1,.57a.48.48,0,0,0,.45,0l2.43-1.39C139.58,100.3,139.58,100.18,139.47,100.12Zm3.81,2.15-1.84-1-.68-.39a.46.46,0,0,0-.44,0l-2.45,1.38c-.13.08-.15.18,0,.26l.71.41,1.79,1a.54.54,0,0,0,.45,0l2.44-1.39C143.37,102.44,143.38,102.34,143.28,102.27Zm2.25-1.29-1.86-1.06-2-1.13a.57.57,0,0,0-.46,0l-1.1.63c-.14.08-.15.19,0,.26l2,1.13,1.86,1.06a.47.47,0,0,0,.43,0l1.1-.63C145.63,101.15,145.65,101,145.53,101Z"/><g class="cls-21"><path class="cls-22" d="M101.7,76.13,101,75.7,99.64,75h0l-.44-.25h0a0,0,0,0,1,0,0,.35.35,0,0,0-.11,0,.41.41,0,0,0-.31,0l-1.07.61h0l0,0-.06.06a.12.12,0,0,0,0,.08s0,0,0,0a.05.05,0,0,0,0,0h0l.17.09L100.11,77a.54.54,0,0,0,.45,0l1.11-.64c.06,0,.11-.1.11-.14A.14.14,0,0,0,101.7,76.13Zm3.87,2.2-2.14-1.21-.38-.22h0a.52.52,0,0,0-.42,0l-1.11.62c-.13.09-.14.19,0,.26h0l.38.23L104,79.24a.5.5,0,0,0,.44,0l1.1-.63C105.66,78.5,105.67,78.39,105.57,78.33Zm3.9,2.21a.05.05,0,0,1,0,0l-.16-.09-1.49-.86-.41-.22-.46-.26-.07,0h0a.66.66,0,0,0-.37,0l-1.1.63c-.11.06-.14.16-.08.21a.08.08,0,0,0,0,0l.46.27.41.22,1.65.93a.41.41,0,0,0,.44,0l1.11-.63C109.51,80.7,109.54,80.6,109.47,80.54Zm3.82,2.16-1.2-.69-.39-.21-.53-.3-.39-.22a.59.59,0,0,0-.45,0l-1.1.63c-.13.07-.15.18,0,.25h0l.39.22.53.3.38.22,1.2.67a.46.46,0,0,0,.44,0l1.11-.62C113.39,82.89,113.41,82.77,113.29,82.7Zm3.87,2.2L115.51,84l-.86-.49a.47.47,0,0,0-.46,0l-.12.07-1,.55c-.13.07-.14.19,0,.25l2.5,1.42a.48.48,0,0,0,.45,0l1.1-.63C117.26,85.08,117.27,85,117.16,84.9ZM121,87.09l-2.51-1.43a.46.46,0,0,0-.45,0l-1.11.62c-.12.08-.13.19,0,.25L119.44,88a.48.48,0,0,0,.45,0l1.09-.63C121.12,87.26,121.13,87.15,121,87.09Zm3.87,2.19-2.52-1.43a.48.48,0,0,0-.45,0l-1,.58-.09,0c-.11.06-.13.16,0,.23l0,0,2.5,1.42a.43.43,0,0,0,.44,0l1.11-.63C125,89.46,125,89.34,124.89,89.28Zm3.86,2.18-.05,0-.51-.28h0l-1.38-.77-.57-.32a.5.5,0,0,0-.46,0l-.54.31-.54.32c-.15.07-.17.2,0,.26l.83.47,1.67.94a.59.59,0,0,0,.45,0l1.08-.62h0C128.85,91.64,128.86,91.53,128.75,91.46Zm3.86,2.2-2.5-1.43a.54.54,0,0,0-.46,0l-.36.2-.74.42c-.12.07-.16.19,0,.26l2.09,1.18.43.24a.53.53,0,0,0,.44,0l1.1-.63C132.72,93.83,132.73,93.72,132.61,93.66Zm3.87,2.18-.68-.38-.25-.15L134,94.42a.48.48,0,0,0-.45,0l-1.09.64c-.11.06-.14.13-.09.2l0,0,2.52,1.43a.53.53,0,0,0,.44,0l.21-.12.9-.51C136.57,96,136.6,95.91,136.48,95.84ZM140.33,98l-2.51-1.43a.53.53,0,0,0-.44,0l-1.1.63c-.14.09-.15.19,0,.26l2.51,1.43a.49.49,0,0,0,.44,0l1.1-.61C140.44,98.21,140.46,98.1,140.33,98Zm-20.51,3.27L102.4,91.42l-.29-.15a.46.46,0,0,0-.44,0l-.25.13-2.2,1.26c-.13.07-.13.19,0,.25l17.7,10a.55.55,0,0,0,.45,0l2.44-1.39C119.92,101.46,119.92,101.36,119.82,101.3ZM100.71,90.47l-.17-.1-1.47-.84-.4-.21-.53-.3-.38-.23-.39-.22a.51.51,0,0,0-.45,0L94.48,90c-.12.08-.14.18,0,.26l.4.22.4.23.32.18.6.33.38.21,1.25.71a.46.46,0,0,0,.44,0l1.2-.69,1.24-.7C100.81,90.64,100.83,90.54,100.71,90.47Zm24.11,13.66-3.56-2a.46.46,0,0,0-.44,0l-2.46,1.4c-.12.07-.12.19,0,.25l2.15,1.22h0l1.39.79a.55.55,0,0,0,.45,0l.69-.4h0l1.74-1C124.91,104.3,124.92,104.19,124.82,104.13Zm3.82,2.17-1.65-.94h0l-.86-.49a.49.49,0,0,0-.44,0l-1,.57h0l-1.42.81c-.14.09-.16.19,0,.26l2.51,1.42a.48.48,0,0,0,.45,0l2.44-1.39C128.73,106.47,128.76,106.37,128.64,106.3Zm3.82,2.15-1.69-1-.84-.47a.46.46,0,0,0-.44,0l-2.44,1.39c-.14.08-.15.19,0,.26l.88.5,1.63.92a.49.49,0,0,0,.44,0l2.46-1.38C132.55,108.63,132.55,108.52,132.46,108.45ZM95,83.14l0,0-1-.55-.39-.22-.53-.3-.39-.22-3-1.7h0a.54.54,0,0,0-.41,0h0l-2.43,1.39c-.13.07-.15.17,0,.23a0,0,0,0,0,0,0h0l3,1.71h0l.38.21.52.3.39.23.94.53a.49.49,0,0,0,.44,0l2.46-1.4a.16.16,0,0,0,.09-.11h0A.12.12,0,0,0,95,83.14Zm-6.4.46-2.51-1.42h0a.47.47,0,0,0-.43,0l-2.43,1.39c-.13.08-.16.19,0,.26h0l2.51,1.41a.57.57,0,0,0,.46,0l2.43-1.39C88.7,83.79,88.73,83.67,88.6,83.6Zm3.81,2.16-2-1.14-.21-.11h0l-.18-.1-.14-.08a.52.52,0,0,0-.44,0L87,85.75c-.13.07-.14.19,0,.26l.15.08.38.22,2,1.11a.48.48,0,0,0,.45,0l1.45-.82h0l1-.57C92.51,85.94,92.51,85.82,92.41,85.76Zm3.74,2.12-1.4-.79-.4-.23-.52-.29-.19-.11a.5.5,0,0,0-.46,0l-.06,0-1.29.74h0l-1.08.62-.06,0,0,0a.12.12,0,0,0,0,.19l.2.11.52.3.4.22,1.39.78a.5.5,0,0,0,.4,0h0l0,0,2.44-1.4C96.25,88.06,96.26,88,96.15,87.88Zm2.61-2.62L98.32,85,98,84.79l-.54-.3-.4-.22-.77-.43a.49.49,0,0,0-.44,0l-.42.24-2,1.16c-.13.07-.14.19,0,.25l.78.44.4.24.52.29.39.23.41.22a.46.46,0,0,0,.44,0l1.72-1h0l.72-.41C98.85,85.44,98.86,85.32,98.76,85.26Zm3.87,2.23a.15.15,0,0,0-.08-.08l-.29-.16-.52-.3-.39-.23-1.3-.74a.51.51,0,0,0-.45,0l-.7.4-1.73,1c-.15.08-.17.18,0,.26l1.32.74.38.22.55.31.26.15a.38.38,0,0,0,.16,0,.72.72,0,0,0,.29-.06l1.83-1,.6-.35C102.62,87.6,102.65,87.54,102.63,87.49Zm3.73,2.08-2.52-1.43a.52.52,0,0,0-.44,0l-.59.34L101,89.56c-.13.07-.14.18,0,.24l1,.57,1.51.86a.48.48,0,0,0,.45,0l1.46-.84.45-.26h0l.53-.3C106.46,89.74,106.47,89.63,106.36,89.57Zm3.79,2.15-.52-.3-1.87-1-.12-.07a.49.49,0,0,0-.44,0l-.08.05-.42.23-1.44.82-.49.29c-.14.07-.16.19,0,.25l2.52,1.42a.44.44,0,0,0,.44,0l2-1.14.43-.25C110.25,91.9,110.27,91.78,110.15,91.72ZM114,93.88l-2.52-1.44a.46.46,0,0,0-.44,0l-.41.23-2,1.16c-.12.07-.13.17,0,.25L111,95.54a.52.52,0,0,0,.44,0l2.1-1.19h0l.36-.2C114.06,94,114.07,93.94,114,93.88ZM117.75,96l-2.49-1.43a.57.57,0,0,0-.46,0l-.33.19L112.36,96c-.14.08-.15.18,0,.25l2.51,1.43a.55.55,0,0,0,.45,0l2.16-1.24h0l.28-.16C117.86,96.2,117.88,96.1,117.75,96Zm3.82,2.15-.7-.39h0l-1.8-1h0a.49.49,0,0,0-.27,0l-.14,0-.26.15h0l-2.19,1.24c-.12.07-.14.19,0,.25l2.52,1.42a.43.43,0,0,0,.45,0l2.44-1.39C121.67,98.36,121.68,98.24,121.57,98.18Zm3.79,2.16-2.5-1.43a.46.46,0,0,0-.45,0L120,100.33c-.13.07-.14.18,0,.25l2.51,1.42a.57.57,0,0,0,.46,0l2.43-1.39C125.46,100.51,125.48,100.4,125.36,100.34Zm3.8,2.16-2.5-1.44a.47.47,0,0,0-.43,0l-2.46,1.4c-.12.07-.13.17,0,.24l2.53,1.43a.5.5,0,0,0,.43,0l2.45-1.4C129.27,102.66,129.28,102.56,129.16,102.5Zm6.9,3.89-.51-.29-1.22-.69-3.09-1.76h0l-.78-.44a.57.57,0,0,0-.46,0l-2.43,1.39c-.14.08-.16.19,0,.25l.53.3h0l3.39,1.92,1.68,1a.46.46,0,0,0,.44,0l2-1.12.46-.28C136.15,106.57,136.16,106.45,136.06,106.39ZM95.83,79.49l-.58-.33h0l-1.94-1.09h0a.06.06,0,0,0-.05,0,.55.55,0,0,0-.38,0l-2.43,1.39c-.13.08-.16.18-.06.23a0,0,0,0,1,0,0h0l2.51,1.43a.48.48,0,0,0,.45,0l1.69-1,.76-.43C95.92,79.67,95.94,79.56,95.83,79.49Zm3.78,2.15-.41-.24-1.61-.91-.39-.22-.1-.06a.46.46,0,0,0-.45,0l-1.75,1-.69.39c-.14.07-.15.18,0,.25l.1.06.39.23.2.11h0l1.8,1a.57.57,0,0,0,.46,0L99,82.2l.55-.31C99.71,81.81,99.72,81.7,99.61,81.64Zm3.8,2.15-1.49-.85-.4-.22-.52-.3-.11-.06a.53.53,0,0,0-.44,0l-.81.47L98,83.78c-.14.08-.15.18,0,.24l.12.07.52.31.41.21,1.46.85a.52.52,0,0,0,.44,0l1.62-.92.83-.48C103.51,84,103.52,83.86,103.41,83.79Zm3.82,2.15-1-.55-.39-.22-.53-.3-.39-.22-.24-.13a.52.52,0,0,0-.44,0l-.84.48-1.61.91c-.13.08-.14.19,0,.25l.25.14.41.23.53.3.37.23,1,.52a.43.43,0,0,0,.44,0l1.59-.9.87-.5C107.31,86.12,107.32,86,107.23,85.94ZM111,88.1l-2.52-1.42a.43.43,0,0,0-.45,0l-.86.49-1.57.9c-.15.07-.16.2,0,.25l2.5,1.42a.56.56,0,0,0,.44,0l1.57-.89.89-.51C111.11,88.28,111.13,88.16,111,88.1Zm3.87,2.23a.19.19,0,0,0-.08-.07l-.17-.1-2.32-1.34-.17,0a.62.62,0,0,0-.29.07l-.89.51-1.54.89c-.08,0-.12.08-.12.12s0,.09.08.13l1.64.92.87.5a.52.52,0,0,0,.44,0l.85-.49.68-.39.92-.53a.18.18,0,0,0,.07,0,.13.13,0,0,0,0-.08Zm3.74,2.07-1.74-1L116.1,91a.53.53,0,0,0-.44,0l-.75.42-1.69,1c-.14.09-.15.2,0,.27l2.5,1.41a.46.46,0,0,0,.44,0l2.45-1.4C118.72,92.59,118.73,92.48,118.63,92.4Zm3.79,2.16-2.5-1.42a.5.5,0,0,0-.46,0l-.42.24h0l-.81.47-1.2.68c-.13.07-.15.2,0,.26l1.25.7.63.35.63.36a.46.46,0,0,0,.44,0l2.45-1.39C122.52,94.75,122.54,94.62,122.42,94.56Zm3.81,2.16-1.6-.91h0l-.92-.52a.46.46,0,0,0-.44,0l-2.45,1.4c-.12.07-.14.19,0,.25l1.08.61h0l1.43.8a.52.52,0,0,0,.44,0l2.45-1.4C126.32,96.9,126.33,96.78,126.23,96.72ZM130,98.86l-2.5-1.42a.54.54,0,0,0-.46,0l-2.43,1.38c-.14.09-.16.2,0,.27l2.52,1.41a.48.48,0,0,0,.45,0L130,99.13C130.12,99.05,130.14,98.94,130,98.86Zm3.8,2.16-1.12-.64h0l-1.39-.78a.44.44,0,0,0-.43,0L128.43,101c-.13.08-.15.2-.05.27l2.52,1.41a.51.51,0,0,0,.45,0l1-.55,1.47-.83C133.93,101.21,133.94,101.09,133.82,101Zm5.85,3.31-1.79-1L135.55,102l-.47-.26a.5.5,0,0,0-.43,0l-2.46,1.4c-.12.07-.13.18,0,.24L135,105h0l.55.31,1.18.67a.52.52,0,0,0,.47,0l2.42-1.39C139.76,104.52,139.79,104.39,139.67,104.33Zm-38.2-25.74-.3-.17-.39-.23-.43-.24-.09-.06-.39-.22-1.06-.59L96.91,76h0l-.07,0a.4.4,0,0,0-.35,0l-.27.16h0L94,77.42c-.1.06-.14.15-.07.22l0,0h0a0,0,0,0,0,0,0l1.42.81,1.53.87.39.22.53.3.39.21.29.17a.55.55,0,0,0,.45,0l1.61-.92,0,0,.78-.45C101.57,78.76,101.59,78.66,101.47,78.59Zm3.78,2.14-.15-.07-.52-.3-.4-.23-1.44-.82a.55.55,0,0,0-.45,0l-.83.47-.22.13-1.39.79c-.13.07-.15.19,0,.25l1.47.83.39.22.52.3.14.07a.41.41,0,0,0,.44,0l.54-.31,1-.59.86-.49C105.36,80.91,105.37,80.79,105.25,80.73Zm3.82,2.16-.15-.09-.39-.21-2-1.13a.46.46,0,0,0-.45,0l-.85.49-1.25.71-.34.19c-.14.07-.14.18,0,.25l2,1.13.39.22.07,0,0,0a.55.55,0,0,0,.45,0l1.56-.88.88-.51C109.16,83.06,109.17,83,109.07,82.89Zm3.78,2.16-2.51-1.44a.52.52,0,0,0-.45,0l-.88.51-1.55.89c-.14.07-.16.17,0,.24l2.51,1.43a.55.55,0,0,0,.45,0l1.52-.87.92-.53C113,85.21,113,85.11,112.85,85.05Zm3.82,2.14-.62-.34-1.91-1.08a.52.52,0,0,0-.44,0l-.92.53-1.53.86c-.13.08-.14.19,0,.25l2.5,1.43a.46.46,0,0,0,.45,0l2.45-1.38C116.75,87.37,116.76,87.26,116.67,87.19Zm3.79,2.16h0l-2.52-1.43a.5.5,0,0,0-.44,0l-2.44,1.39c-.14.07-.15.18,0,.25l1.37.78,1.13.64a.48.48,0,0,0,.45,0l1.09-.62.13-.07h0l.19-.1h0l.47-.26h0l.28-.16h0l.15-.08.12-.07C120.55,89.52,120.57,89.41,120.46,89.35Zm3.82,2.16-.15-.09-1.86-1-.51-.29a.5.5,0,0,0-.46,0l-.48.27-.62.35h0l-.44.25h0l-.74.42h0l0,0-.1.08c-.14.07-.15.18,0,.24l.09.05.46.26,1.17.67.79.45a.52.52,0,0,0,.44,0h0l1.1-.63,1.34-.76C124.36,91.68,124.37,91.57,124.28,91.51Zm3.79,2.15-2.52-1.43a.52.52,0,0,0-.45,0l-1.39.79-.77.44-.27.15c-.15.08-.16.19,0,.26L125,95.26l.1.06a.48.48,0,0,0,.45,0l1.41-.79,1-.6C128.16,93.83,128.19,93.72,128.07,93.66Zm3.79,2.15-.55-.32h0l-.69-.4-1.25-.71a.51.51,0,0,0-.45,0l-.6.34-1.85,1c-.13.08-.15.18,0,.25l2.51,1.43a.49.49,0,0,0,.44,0l2.27-1.28.18-.1C132,96,132,95.88,131.86,95.81ZM135.67,98l-.12-.08-2.4-1.35a.5.5,0,0,0-.43,0L132,97h0l-1.74,1c-.12.07-.14.18,0,.24l2.45,1.39.06,0a.46.46,0,0,0,.44,0l2.37-1.35.09-.05C135.76,98.14,135.77,98,135.67,98Zm3.8,2.15L137,98.7a.52.52,0,0,0-.47,0l-.95.56-1.48.83c-.13.07-.16.19,0,.25l1.51.85,1,.57a.48.48,0,0,0,.45,0l2.43-1.39C139.58,100.3,139.58,100.18,139.47,100.12Zm3.81,2.15-1.84-1-.68-.39a.46.46,0,0,0-.44,0l-2.45,1.38c-.13.08-.15.18,0,.26l.71.41,1.79,1a.54.54,0,0,0,.45,0l2.44-1.39C143.37,102.44,143.38,102.34,143.28,102.27Zm2.25-1.29-1.86-1.06-2-1.13a.57.57,0,0,0-.46,0l-1.1.63c-.14.08-.15.19,0,.26l2,1.13,1.86,1.06a.47.47,0,0,0,.43,0l1.1-.63C145.63,101.15,145.65,101,145.53,101Z"/></g><path class="cls-23" d="M96,94l17.66,10c.34.19.3.52-.09.74l-10.18,5.82a1.49,1.49,0,0,1-1.3,0l-17.67-10c-.33-.19-.29-.52.1-.74l10.18-5.81A1.46,1.46,0,0,1,96,94Z"/><polygon class="cls-24" points="130.09 76.93 128.84 76.2 114.19 67.75 111.05 65.93 109.28 64.91 109.28 55.43 139.13 72.66 139.13 82.14 130.09 76.93"/><polygon class="cls-25" points="137.46 73.63 137.46 79.25 130.93 75.48 129.69 74.76 116.42 67.1 115.02 66.29 113.13 65.2 111.89 64.48 110.96 63.95 110.96 58.33 116.75 61.67 118.03 62.41 134.55 71.95 135.77 72.65 137.46 73.63"/><path class="cls-26" d="M117.9,89.3l1.21.81-1.17-.42A1.92,1.92,0,0,1,117.9,89.3Z"/><path class="cls-27" d="M125.51,94.25a5.44,5.44,0,0,1-4.16,3.47c-.34.08-1.57.24-2.08-.37l-.14-.08a3.66,3.66,0,0,1-.92-2.76s0-.62,0-.64a14,14,0,0,0,1-3.8c0-.36,0-.67,0-.89l1,.67a5.61,5.61,0,0,0-1.1.22Z"/><path class="cls-28" d="M96.87,85.35c1.88.91,20.13,10.84,22.72,12.26-.78-.57-.76-2-.73-2.71v-.06c0-.25,0-.54.08-.85.29-2.38,1.86-6,4.69-9.82,4.53-6.09,13.83-10.54,13.83-10.54L114.35,60.29S102.4,66,98.54,71.72a21.23,21.23,0,0,0-3.65,9.74.86.86,0,0,0,0,.15.6.6,0,0,0,0,.19,1.77,1.77,0,0,0,0,.23.19.19,0,0,0,0,.08.06.06,0,0,0,0,0v0a3.36,3.36,0,0,0,1.05,2.57h0A4.88,4.88,0,0,0,96.87,85.35Z"/><path class="cls-29" d="M112.48,65.69l-.7.42h0l-.18.12h0l-.4.27L126,75l.39-.24.15-.08h0l.71-.42.08,0Zm-3.07,1.94-1.22.86,9.24,5.31,1.15-.81.07,0Zm-2.8,2.09c-.38.3-.74.61-1.09.93l14.83,8.53.07,0c.31-.29.63-.56,1-.83l.07,0ZM104.14,72a12.42,12.42,0,0,0-.91,1l9.14,5.4,0,0c.27-.33.56-.67.87-1Zm2.12,5.06h0l-4.13-2.44-.19.33h0c-.13.2-.24.41-.35.61l-.14.23h0l7.84,4.63.2.11,1.11.66a.08.08,0,0,1,0,0l.2-.37.36-.6h0l.1-.15Zm10.53,2.19a2.44,2.44,0,0,0-3.07.66h0a2.07,2.07,0,0,0-.17.24h0a1,1,0,0,0-.09.13,2.81,2.81,0,0,0-.17.35,3.21,3.21,0,0,0-.17.66,2.81,2.81,0,0,0,0,.82,2.34,2.34,0,0,0,.92,1.45l.18.11a2.17,2.17,0,0,0,1.26.29,2.44,2.44,0,0,0,.65-.14h0a2.37,2.37,0,0,0,.73-.4,2.73,2.73,0,0,0,.48-.48h0a3.13,3.13,0,0,0,.2-.3l.09-.16h0l.11-.26A2.45,2.45,0,0,0,116.79,79.26Zm-16.32-1.59-.12.28c-.09.23-.19.45-.27.67l-.12.32.65.38.15.08.7.4,2.9,1.67.88.51,2.9,1.67.87.5,2.9,1.67.87.5L115.62,88s0,0,0,0c.12-.35.27-.71.42-1.07l.08-.17Zm7.93,8.64-9.12-5.24c0,.11,0,.23-.08.33-.07.29-.13.55-.17.8,0,.09,0,.18,0,.26l.66.39,2.91,1.67.87.5,2.9,1.67.87.5,2.91,1.67.87.5,2.9,1.67.77.44s0,0,0,0c0-.3.12-.64.21-1a.53.53,0,0,1,0-.12v0l.06-.21Z"/><g class="cls-30"><path class="cls-31" d="M129.94,137.4H50L18.32,118.06c-1.15-.66-1.22-1.7-.23-2.4.21-.15,0,0,5-2.9h0L53.82,95a14.27,14.27,0,0,1,1.74-1c2.93-1.13,5,1,5.54,1.19h0l6.64,4h0l5.42,3.29,13.3,8.52Z"/></g><path class="cls-32" d="M53.12,81.36,50.79,82.7,72.68,95.34l3.23-1.87a1.52,1.52,0,0,0,.92-1.34V89.5a1.54,1.54,0,0,0-.92-1.28L58.46,78.14a4.87,4.87,0,0,0-4.43,0L50.79,80Z"/><polygon class="cls-33" points="50.79 80 20.04 97.76 41.93 110.39 41.93 113.09 72.68 95.33 72.68 92.64 50.79 80"/><path class="cls-34" d="M16.35,100.5v2.88a1.57,1.57,0,0,0,.91,1.23l17.46,10.07a4.81,4.81,0,0,0,4.43,0l2.78-1.6v-2.69L20,97.76Z"/><path class="cls-35" d="M54,78.14,50.79,80,72.68,92.64l3.23-1.87c1.24-.71,1.24-1.85,0-2.56L58.47,78.14A4.83,4.83,0,0,0,54,78.14Z"/><polygon class="cls-36" points="50.79 80 20.04 97.76 41.93 110.39 72.68 92.64 50.79 80"/><path class="cls-37" d="M20,97.76l-2.77,1.6a1.35,1.35,0,0,0,0,2.56L34.71,112a4.92,4.92,0,0,0,4.44,0l2.78-1.61Z"/><path class="cls-29" d="M67.42,85.56,61.17,82a1,1,0,0,0-.9,0h0c-.27.15-.3.39-.07.52l6.26,3.61a1,1,0,0,0,.9,0h0C67.63,85.93,67.66,85.7,67.42,85.56Z"/><ellipse class="cls-29" cx="27.62" cy="105.14" rx="1.51" ry="0.87"/><path class="cls-29" d="M78.09,78.38a1.42,1.42,0,0,1-.65.15c-.5,0-.91-.24-.91-.53,0-1.9-1.29-3.69-3.62-5a17.62,17.62,0,0,0-8.71-2.09c-.51,0-.92-.23-.92-.53s.41-.52.92-.52a20.41,20.41,0,0,1,10,2.39c2.67,1.55,4.15,3.6,4.15,5.78A.48.48,0,0,1,78.09,78.38Zm6.31-.88c0-3-2-5.79-5.66-7.89a27.78,27.78,0,0,0-13.67-3.27c-.47,0-.86.22-.86.5s.39.49.86.49a25.31,25.31,0,0,1,12.45,3c3.32,1.92,5.16,4.47,5.16,7.19,0,.27.38.49.86.49a1.21,1.21,0,0,0,.6-.14A.44.44,0,0,0,84.4,77.5ZM72,78.5c0-1.34-.91-2.6-2.55-3.55a12.5,12.5,0,0,0-6.16-1.47c-.47,0-.86.22-.86.5s.39.49.86.49a10.05,10.05,0,0,1,4.94,1.18,3.48,3.48,0,0,1,2,2.85c0,.28.38.5.86.5a1.25,1.25,0,0,0,.61-.14A.45.45,0,0,0,72,78.5Z"/><g class="cls-38"><polygon class="cls-39" points="70.56 57.5 89.02 68.8 101.64 62.08 83.97 51.67 80.83 57.18 70.56 57.5"/></g><path class="cls-40" d="M89,50.09v4.26a1.31,1.31,0,0,1-.76,1.06l-8.88,5.16a4,4,0,0,1-3.68,0l-8.93-5.16A1.28,1.28,0,0,1,66,54.34V50.08a1.3,1.3,0,0,0,.77,1.07l8.93,5.16a4.07,4.07,0,0,0,3.69,0l8.87-5.16A1.29,1.29,0,0,0,89,50.09Z"/><path class="cls-41" d="M88.25,49.07a1.13,1.13,0,0,1,0,2.13l-8.87,5.16a4.07,4.07,0,0,1-3.69,0L66.77,51.2a1.12,1.12,0,0,1,0-2.13l8.87-5.16a4.07,4.07,0,0,1,3.69,0Z"/><path class="cls-42" d="M89,49v1.07h0a1.26,1.26,0,0,1-.76,1.11l-8.87,5.16a4.07,4.07,0,0,1-3.69,0L66.77,51.2A1.29,1.29,0,0,1,66,50.09h0V49h.89l21.26,0Z"/><path class="cls-43" d="M88.16,49,66.9,49l8.73-5.08a4.07,4.07,0,0,1,3.69,0Z"/><path class="cls-44" d="M88.25,47.85a1.13,1.13,0,0,1,0,2.13l-8.87,5.16a4.07,4.07,0,0,1-3.69,0L66.77,50a1.12,1.12,0,0,1,0-2.13l8.87-5.16a4.07,4.07,0,0,1,3.69,0Z"/><path class="cls-29" d="M67.68,53.73c0,.2-.15.28-.32.18a.69.69,0,0,1-.32-.55c0-.21.14-.29.32-.19A.72.72,0,0,1,67.68,53.73Zm.55,0c-.18-.1-.32,0-.32.18a.69.69,0,0,0,.32.55c.18.11.32,0,.32-.18A.69.69,0,0,0,68.23,53.68Zm.87.5c-.17-.1-.32,0-.32.19a.72.72,0,0,0,.32.55c.18.1.32,0,.32-.19A.69.69,0,0,0,69.1,54.18Zm6,3.48L71,55.29c-.11-.07-.21,0-.21.16a.53.53,0,0,0,.21.4l4.1,2.36c.12.07.21,0,.21-.15A.47.47,0,0,0,75.05,57.66Z"/><path class="cls-29" d="M75.34,48.08a.51.51,0,0,1-.42,0c-.11-.07-.11-.18,0-.24a.45.45,0,0,1,.42,0C75.45,47.9,75.45,48,75.34,48.08Zm-1,.58a.34.34,0,0,0-.36.12c0,.09,0,.18.21.2a.36.36,0,0,0,.36-.11C74.62,48.78,74.53,48.68,74.37,48.66Zm-.13,1c-.15,0-.24.11-.2.2a.34.34,0,0,0,.36.12c.15,0,.24-.11.2-.2A.34.34,0,0,0,74.24,49.65Zm.75.89a.13.13,0,0,0,0,.24.49.49,0,0,0,.41,0c.12-.07.12-.17,0-.24A.43.43,0,0,0,75,50.54Zm1.42.56c0,.09,0,.18.21.2a.35.35,0,0,0,.36-.12c0-.09-.06-.18-.21-.2A.34.34,0,0,0,76.41,51.1Zm1.71.07a.37.37,0,0,0,.36.12c.16,0,.25-.12.21-.21s-.2-.14-.36-.12S78.08,51.08,78.12,51.17Zm1.55-.43a.49.49,0,0,0,.41,0c.12-.07.12-.17,0-.24a.43.43,0,0,0-.41,0A.13.13,0,0,0,79.67,50.74Zm1-.82c.15,0,.31,0,.35-.12s0-.18-.2-.21-.32,0-.36.12S80.48,49.89,80.64,49.92Zm.12-1c.16,0,.25-.12.21-.21s-.2-.14-.36-.12-.25.12-.21.21A.37.37,0,0,0,80.76,48.93ZM80,48c.12-.07.12-.17,0-.24a.43.43,0,0,0-.41,0,.13.13,0,0,0,0,.24A.49.49,0,0,0,80,48Zm-1.42-.56c0-.09,0-.18-.2-.21s-.32,0-.36.12,0,.19.21.21S78.55,47.57,78.59,47.48Zm-1.71-.07a.34.34,0,0,0-.36-.12c-.15,0-.24.11-.2.2a.34.34,0,0,0,.36.12C76.83,47.59,76.92,47.5,76.88,47.41ZM75.57,47a.59.59,0,0,0-.53-.08c-.18.07-.24.2-.14.31a.57.57,0,0,0,.53.08C75.62,47.25,75.68,47.11,75.57,47Zm-1.72.87a.54.54,0,0,0-.52.08c-.11.11,0,.24.14.31a.57.57,0,0,0,.53-.09C74.1,48.07,74,47.93,73.85,47.87Zm-.74,1.24c-.21,0-.38.1-.38.23s.17.22.38.22.39-.1.39-.23S73.33,49.11,73.11,49.11Zm.44,1.29c-.19.07-.25.2-.14.31a.56.56,0,0,0,.53.08c.18-.06.24-.2.14-.31A.6.6,0,0,0,73.55,50.4Zm1.49,1c-.1.1,0,.24.15.3a.54.54,0,0,0,.52-.08c.11-.11.05-.25-.14-.31A.56.56,0,0,0,75,51.4Zm2.16.42c0,.13.17.23.38.23s.39-.1.39-.23-.17-.22-.39-.22S77.2,51.7,77.2,51.82Zm2.23-.25a.54.54,0,0,0,.53.08c.19-.06.25-.19.14-.3a.56.56,0,0,0-.53-.08C79.39,51.33,79.33,51.47,79.43,51.57Zm1.72-.86a.59.59,0,0,0,.53-.08c.11-.11,0-.25-.14-.31a.56.56,0,0,0-.53.09C80.9,50.51,81,50.65,81.15,50.71Zm.75-1.24c.21,0,.38-.1.38-.23s-.17-.22-.39-.22-.38.1-.38.22S81.68,49.47,81.9,49.47Zm-.44-1.3c.19-.06.25-.19.14-.3a.56.56,0,0,0-.53-.08c-.18.06-.25.2-.14.3A.54.54,0,0,0,81.46,48.17Zm-1.49-1c.1-.11,0-.24-.15-.3a.57.57,0,0,0-.53.08c-.1.11,0,.24.15.3A.54.54,0,0,0,80,47.18Zm-2.16-.43c0-.12-.17-.22-.39-.22s-.38.1-.38.22.17.23.38.23S77.81,46.88,77.81,46.75Zm-1.37-.56a.55.55,0,0,0-.59-.19c-.26,0-.41.19-.34.34a.61.61,0,0,0,.6.19C76.36,46.49,76.51,46.34,76.44,46.19Zm-2.54.72a.74.74,0,0,0-.68,0,.21.21,0,0,0,0,.4.77.77,0,0,0,.68,0C74.09,47.19,74.09,47,73.9,46.91Zm-1.58,1.36c-.25,0-.52,0-.58.2s.08.3.34.34a.57.57,0,0,0,.59-.2C72.73,48.46,72.58,48.31,72.32,48.27Zm-.19,1.63c-.25,0-.4.2-.33.34a.57.57,0,0,0,.59.2c.26,0,.41-.2.34-.34A.59.59,0,0,0,72.13,49.9Zm1.25,1.47c-.18.11-.18.28,0,.39a.74.74,0,0,0,.68,0c.19-.11.18-.29,0-.39A.74.74,0,0,0,73.38,51.37Zm2.36.91c-.07.15.09.3.34.34a.57.57,0,0,0,.59-.2c.07-.15-.09-.3-.34-.34A.57.57,0,0,0,75.74,52.28Zm2.82.11a.6.6,0,0,0,.6.19c.25,0,.4-.19.33-.34a.57.57,0,0,0-.59-.19C78.64,52.09,78.49,52.24,78.56,52.39Zm2.55-.72a.77.77,0,0,0,.68,0c.18-.1.18-.28,0-.39a.74.74,0,0,0-.68,0A.21.21,0,0,0,81.11,51.67Zm1.57-1.36a.57.57,0,0,0,.59-.2c.07-.15-.09-.3-.34-.34a.57.57,0,0,0-.59.2C82.27,50.12,82.43,50.27,82.68,50.31Zm.19-1.63c.26,0,.41-.2.34-.35a.6.6,0,0,0-.59-.19c-.26,0-.41.19-.34.34A.58.58,0,0,0,82.87,48.68Zm-1.25-1.47c.19-.11.19-.29,0-.39a.74.74,0,0,0-.68,0c-.19.11-.19.28,0,.39A.74.74,0,0,0,81.62,47.21Zm-2.35-.91c.07-.15-.09-.3-.35-.34s-.52,0-.58.2.08.3.34.34A.57.57,0,0,0,79.27,46.3Z"/><g class="cls-45"><polygon class="cls-46" points="126.11 137.4 99.92 137.4 74.1 122.4 87.91 115.2 126.11 137.4"/></g><path class="cls-47" d="M94.5,119a1.07,1.07,0,0,1-.64,1l-10.33,6a3.46,3.46,0,0,1-3.15,0L61.06,114.87a1.11,1.11,0,0,1-.66-.94v-1.25l1,.16,31.2,4.87h1.88Z"/><path class="cls-48" d="M93,117.71h-.4l-31.2-4.87,10-5.8a3.46,3.46,0,0,1,3.15,0Z"/><path class="cls-49" d="M83.53,124.78a3.49,3.49,0,0,1-3.15,0L61.06,113.62a1.11,1.11,0,0,1-.66-.94.34.34,0,0,1,0-.1.17.17,0,0,1,0-.1.94.94,0,0,1,.1-.23l.06-.08a.91.91,0,0,1,.17-.17.31.31,0,0,1,.11-.09l.17-.11,10.33-6a3.49,3.49,0,0,1,3.15,0L93.85,117a1.39,1.39,0,0,1,.54.5.93.93,0,0,1,0,.1.41.41,0,0,1,0,.08.24.24,0,0,1,0,.08l0,.07a1.07,1.07,0,0,1-.65,1Z"/><path class="cls-50" d="M83.54,115.2a4.87,4.87,0,0,1,4.37,0,1.33,1.33,0,0,1,0,2.52,4.87,4.87,0,0,1-4.37,0A1.33,1.33,0,0,1,83.54,115.2Z"/><polygon class="cls-51" points="74.05 109.22 75.48 110.05 82.05 113.84 83.17 113.19 76.61 109.4 75.18 108.57 74.05 109.22"/><polygon class="cls-52" points="73.81 110.5 80.66 114.45 79.53 115.11 72.69 111.15 73.81 110.5"/><polygon class="cls-53" points="76.33 115.94 83.18 119.89 82.05 120.54 75.2 116.59 76.33 115.94"/><polygon class="cls-54" points="66.1 113.82 67.51 114.66 79.92 122 81.04 121.35 68.64 114 67.23 113.17 66.1 113.82"/><path class="cls-55" d="M17.57,78.71l3.52,2a3.55,3.55,0,0,1-1.5-3.29,11.28,11.28,0,0,1,5-8.78l-3.52-2a11.27,11.27,0,0,0-5,8.78A3.62,3.62,0,0,0,17.57,78.71Z"/><path class="cls-56" d="M21,65.26a9.39,9.39,0,0,0,.11,1.37l3.52,2a8.1,8.1,0,0,1-.12-1.36A17,17,0,0,1,32.16,54c2.16-1.25,4.1-1.36,5.5-.54l-3.52-2c-1.4-.82-3.34-.7-5.49.55A17,17,0,0,0,21,65.26Z"/><path class="cls-57" d="M49.49,54.68A14.67,14.67,0,0,0,47.93,56l-3-2.32a7.24,7.24,0,0,1,1.26-.92,3.38,3.38,0,0,1,3.4-.34l3.29,1.91A3.4,3.4,0,0,0,49.49,54.68Z"/><path class="cls-58" d="M42.06,53.17a10.54,10.54,0,0,0-2.73,2.35l-3.59-2.08a10.4,10.4,0,0,1,2.73-2.36c1.61-.93,3.08-1,4.14-.4l3.59,2.08C45.14,52.15,43.67,52.24,42.06,53.17Z"/><path class="cls-59" d="M16.07,75.42a11.27,11.27,0,0,1,5-8.78l3.52,2a11.28,11.28,0,0,0-5,8.78,3.55,3.55,0,0,0,1.5,3.29l-3.52-2A3.62,3.62,0,0,1,16.07,75.42Z"/><path class="cls-60" d="M21,65.26a9.39,9.39,0,0,0,.11,1.37l3.52,2a8.1,8.1,0,0,1-.12-1.36A17,17,0,0,1,32.16,54c2.16-1.25,4.1-1.36,5.5-.54l-3.52-2c-1.4-.82-3.34-.7-5.49.55A17,17,0,0,0,21,65.26Z"/><path class="cls-61" d="M39.35,55.4A10.46,10.46,0,0,1,42,53.09c2.9-1.67,5.31-.57,5.67,2.45a8.33,8.33,0,0,1,1.35-1c2.83-1.63,5.14-.32,5.15,2.94a11.27,11.27,0,0,1-5.12,8.85l-24.33,14-.46.24c-2.62,1.25-4.68-.09-4.69-3.17a11.28,11.28,0,0,1,5-8.78,8.36,8.36,0,0,1-.11-1.37A17,17,0,0,1,32.17,54C35.42,52.1,38.2,52.8,39.35,55.4Z"/><polygon class="cls-62" points="42.6 107.15 25.66 97.37 50.12 83.25 67.06 93.03 42.6 107.15"/><path class="cls-63" d="M54.57,90.27,55,90l-.84-.48-.42.24Zm3.5.5-4.7-2.71L53,88.3,57.65,91ZM50,87.63l3.38,1.94.41-.24-3.37-1.94Zm11.35,5L58.43,91l-.42.24,2.93,1.69Zm-2.27-.28-3.73-2.16-.42.24,3.73,2.16Zm2.21.72.88.51.42-.24-.88-.51ZM50.06,87.18l-1.49-.86-.42.24,1.5.86Zm2.95.67-3.55-2-.41.24,3.54,2Z"/><path class="cls-64" d="M54.14,91.44l-.31.18.63.36.31-.18Zm-3.28-.76,4.19,2.42.31-.18L51.17,90.5Zm1.22,1.12-.31.18,1.77,1,.32-.18Zm-1.93,0,3.18,1.83.32-.18-3.19-1.83Zm8.21,2.05L55,92l-.31.18,3.32,1.91Zm-1.7.57L54.13,93l-.31.18,2.53,1.46Zm-9-5.63,3,1.72.31-.18L48,88.63Zm-1.26,1.6,4.29,2.49.31-.18-4.29-2.49Zm4.56,2.64,3.19,1.84.31-.18-3.18-1.84Zm-1.06-1.39.31-.18-1.39-.81-.31.19Zm.22-2.19,3.46,2,.31-.18-3.45-2Zm1.71,2.17L48.91,90l-.31.18,2.9,1.68Zm-3.17-1.83L45.5,88l-.32.18L48.33,90Zm-1-1.33-1.51-.88-.32.18,1.52.88ZM58.32,94.2l1.12.65.31-.18L58.63,94ZM46.11,90.26l.31-.18-2.27-1.32-.31.18Zm-1.55-1.68,3.66,2.12.31-.18L44.87,88.4Zm9.84,6.47,2.35,1.35.32-.18-2.36-1.36Zm.92-1.8,3.45,2,.31-.18-3.45-2Zm1.3,1.53,1.48.85.31-.19-1.48-.84Zm-2.81-.85L57.42,96l.32-.18-3.62-2.08Z"/><path class="cls-65" d="M50.28,93.65l-.31.19.63.36.31-.18ZM47,92.9l4.19,2.41.31-.18-4.18-2.41ZM48.22,94l-.31.18,1.78,1L50,95Zm-1.93,0,3.18,1.83.32-.18L46.6,93.86Zm8.21,2-3.32-1.91-.31.19,3.32,1.91Zm-1.7.58L50.27,95.2l-.31.18,2.53,1.46Zm-9-5.63,2.95,1.71.32-.18-3-1.71ZM46,93.88l.31-.18-1.39-.81-.31.18Zm.22-2.19,3.46,2L50,93.5l-3.45-2ZM48,93.86l-2.9-1.68-.31.18L47.64,94ZM44.78,92,41.64,90.2l-.32.18,3.15,1.83Zm-1-1.33-1.51-.89L42,90l1.51.89Zm10.64,5.72,1.12.65.31-.18-1.12-.65ZM40.7,90.8l3.66,2.12.31-.18L41,90.61Zm10.76,4.67,3.45,2,.31-.18-3.45-2ZM52.76,97l1.48.84.31-.18-1.48-.85ZM50,96.15l3.62,2.08.31-.18L50.26,96Z"/><path class="cls-66" d="M46.91,95.54l-.31.18.63.36.31-.18Zm-3.28-.76,4.19,2.42.31-.18L43.94,94.6Zm1.22,1.12-.32.18,1.78,1,.31-.18Zm-1.93,0,3.18,1.84.31-.18-3.18-1.84Zm8.21,2-3.32-1.91-.31.18,3.31,1.91Zm-1.7.57L46.9,97.08l-.32.18,2.54,1.46Zm-9-5.62,3,1.71.31-.18-3-1.72Zm-1.26,1.59L43.44,97l.31-.18-4.29-2.49Zm4.56,2.65L46.89,99l.32-.18L44,97Zm-1.07-1.4.32-.18-1.39-.8-.31.18Zm.23-2.19,3.46,2,.31-.18-3.46-2Zm1.71,2.17-2.9-1.68-.31.19,2.89,1.68Zm-3.17-1.83-3.15-1.83-.31.18,3.15,1.83Zm-1-1.33-1.52-.88-.31.18,1.52.88ZM51.08,98.3l1.13.65.31-.18-1.12-.65Zm-12.2-3.94.31-.18-2.27-1.32-.31.18Zm-1.55-1.68L41,94.8l.31-.18L37.64,92.5Zm9.83,6.47,2.36,1.35.31-.18L47.48,99Zm.93-1.8,3.44,2,.32-.18-3.45-2Zm1.3,1.53,1.47.85.32-.18L49.7,98.7ZM46.57,98l3.62,2.08.31-.18-3.61-2.08Zm-3.75-1-.31.18,1.77,1,.32-.18Zm-1.93,0,3.18,1.84.32-.18L41.2,96.9ZM47.4,99.7l-2.53-1.46-.32.18,2.54,1.46Zm-6.78-2.77.31-.19-1.39-.8-.31.18Zm1.93,0-2.9-1.67-.31.18,2.9,1.68Zm-3.17-1.83-3.14-1.83-.32.19,3.15,1.82ZM35.3,93.84,39,96l.31-.18-3.66-2.12ZM47.36,100l1.48.85.31-.18-1.48-.85Zm-2.81-.85,3.61,2.08.32-.18L44.86,99Z"/><path class="cls-67" d="M33.84,95.79l-.31.18,1.12.65.32-.18Zm-1.73.14,2.54,1.46.31-.18-2.53-1.46Zm5.66,2.13L35.24,96.6l-.32.18,2.54,1.46Zm-3,.58L32.07,97.1l-.31.18,2.66,1.54Z"/><path class="cls-68" d="M46,101a.08.08,0,0,0-.08,0l-.5.09.06-.09a4.34,4.34,0,0,0-2.8-.42,2.36,2.36,0,0,0-1.9,1.21l.12,0a2.26,2.26,0,0,1,1.8-1.12,4.14,4.14,0,0,1,2.69.39l-5,.87a.07.07,0,0,0-.05.08.06.06,0,0,0,.06,0h0l5.52-1A.08.08,0,0,0,46,101Zm.64,1.15-2,.35a.05.05,0,0,0-.05.07.06.06,0,0,0,.06.06h0l1.44-.25a2.21,2.21,0,0,1-1.82,1.17,4.19,4.19,0,0,1-2.66-.38l2.45-.42a.07.07,0,0,0,.06-.07.08.08,0,0,0-.08-.06l-2.95.51a.08.08,0,0,0-.05.07s0,.06.06.06h0l.46-.08-.06.09a4,4,0,0,0,2,.47,4.25,4.25,0,0,0,.8-.07,2.28,2.28,0,0,0,1.92-1.26l-.1,0,.52-.09a.07.07,0,0,0,0-.08S46.68,102.14,46.65,102.15Zm.46-.7c-.5-.93-2-1.56-3.62-1.56a6.5,6.5,0,0,0-1.09.1,3.34,3.34,0,0,0-2.52,1.49,1.36,1.36,0,0,0,0,1.27c.5.93,2,1.55,3.62,1.55a6.5,6.5,0,0,0,1.09-.09,3.38,3.38,0,0,0,2.52-1.5A1.34,1.34,0,0,0,47.11,101.45ZM47,102.66a3.27,3.27,0,0,1-2.43,1.42,5.46,5.46,0,0,1-1.07.1c-1.59,0-3-.61-3.5-1.49a1.18,1.18,0,0,1,0-1.15,3.23,3.23,0,0,1,2.42-1.43,6.35,6.35,0,0,1,1.07-.09c1.59,0,3,.61,3.5,1.49A1.2,1.2,0,0,1,47,102.66Zm-3.54-2.56a5.55,5.55,0,0,0-1,.09,3,3,0,0,0-2.28,1.36,1.21,1.21,0,0,0,0,1.14,3.74,3.74,0,0,0,3.29,1.4,5.55,5.55,0,0,0,1-.08,3.1,3.1,0,0,0,2.29-1.36,1.21,1.21,0,0,0,0-1.14A3.78,3.78,0,0,0,43.49,100.1Zm3.27,2.52A3,3,0,0,1,44.52,104a6.5,6.5,0,0,1-1,.08,3.75,3.75,0,0,1-3.24-1.37,1.17,1.17,0,0,1,0-1.09,3,3,0,0,1,2.25-1.32,6.37,6.37,0,0,1,1-.08,3.75,3.75,0,0,1,3.24,1.37A1.15,1.15,0,0,1,46.76,102.62Z"/><path class="cls-69" d="M41.77,102.68a.08.08,0,0,1-.08-.06.08.08,0,0,1,.06-.09l3.86-.73a.08.08,0,0,1,0,.15l-3.86.73Z"/><path class="cls-70" d="M42.11,102.17a.08.08,0,0,1-.08-.06.09.09,0,0,1,.07-.09l2.8-.53a.07.07,0,0,1,.09.06.08.08,0,0,1-.06.09l-2.8.53Z"/></g></g></svg>