<svg width="140" height="140" viewBox="0 0 140 140" fill="none" xmlns="http://www.w3.org/2000/svg">
<g clip-path="url(#clip0_775_1978)">
<path d="M78.0114 51.2415C79.1921 51.9156 80.9674 51.7236 82.342 50.7679L94.2654 42.4565C96.4933 40.8907 99.6346 40.9589 102.578 42.64L121.417 53.3876C125.309 55.6105 124.654 59.1945 123.619 63.0472L104.224 130.571C103.422 133.562 101.1 134.415 98.079 132.687L21.1565 88.8773C18.1315 87.1536 16.3346 83.3307 17.1361 80.3441L31.7656 30.5228C32.2914 28.5687 35.9024 27.0412 37.639 28.0311L78.0114 51.2415Z" fill="#BCC3EA"/>
<path d="M97.6023 133.485L20.6884 89.6794C17.2713 87.7295 15.3106 83.5269 16.2371 80.0837L30.8623 30.2795C31.1898 29.0678 32.3403 27.9499 33.9477 27.2886C35.5033 26.6486 37.0545 26.623 38.1103 27.2289L78.4826 50.4393C79.3445 50.9257 80.7449 50.7465 81.805 50.0084L93.7284 41.697C96.2751 39.905 99.7612 39.9562 103.045 41.8335L121.884 52.5854C126.663 55.3118 125.375 60.1074 124.522 63.2946L105.117 130.801C104.544 132.943 103.364 133.826 102.472 134.193C102.067 134.359 101.549 134.492 100.907 134.492C100.028 134.492 98.9252 134.24 97.6023 133.485ZM94.7971 43.2116L82.8736 51.5187C81.1931 52.6878 79.0471 52.9011 77.5432 52.035C77.5432 52.035 77.5432 52.035 77.5389 52.035L37.1709 28.8331C36.6452 28.5302 35.6368 28.5985 34.663 28.9995C33.6374 29.4177 32.8359 30.1259 32.6592 30.7745L18.034 80.5787C17.3359 83.1856 18.9432 86.5519 21.6192 88.0794L98.5331 131.889C99.8172 132.623 100.933 132.832 101.756 132.486C102.666 132.115 103.101 131.108 103.312 130.319L122.707 62.8082C123.742 58.9427 124.224 56.0627 120.941 54.1896L102.101 43.442C100.709 42.6484 99.2958 42.2516 97.9858 42.2516C96.8094 42.2474 95.7192 42.5674 94.7971 43.2116Z" fill="url(#paint0_linear_775_1978)"/>
<path d="M96.6178 42.7624L29.2144 5.65588C27.8532 4.91035 24.3008 5.63408 24.3008 8.67288L26.1846 85.4452C26.1846 86.182 26.5842 86.8578 27.234 87.2153L93.3596 126.013C94.7165 126.759 97.6673 125.687 97.6673 122.543V44.5282C97.6673 43.7957 97.2633 43.1156 96.6178 42.7624Z" fill="url(#paint1_linear_775_1978)"/>
<path d="M95.28 43.8L27.3409 6.40568C25.9709 5.65143 24.2891 6.63239 24.2891 8.18886V86.6616C24.2891 87.4027 24.693 88.0872 25.3473 88.4491L93.2864 125.839C94.6565 126.593 96.3383 125.608 96.3383 124.06V45.5832C96.3383 44.842 95.9343 44.1575 95.28 43.8Z" fill="url(#paint2_linear_775_1978)"/>
<path d="M47.1063 63.654L33.125 55.7671V59.0457L47.1063 66.9283V63.654Z" fill="#4258A5"/>
<path d="M79.6375 82.2968L65.6562 74.4142V77.6928L79.6375 85.5797V82.2968Z" fill="#4258A5"/>
<path d="M63.2464 72.8489L49.2695 64.9619V68.2405L63.2464 76.1275V72.8489Z" fill="#4258A5"/>
<path d="M63.6367 46.4632L68.9192 49.4628V48.2333L63.6367 45.2294V46.4632Z" fill="#0E314C"/>
<path d="M56.1367 42.2036L62.6356 45.8964V44.6625L56.1367 40.9741V42.2036Z" fill="#0E314C"/>
<path d="M49.1992 38.2623L54.1436 41.0701V39.8362L49.1992 37.0328V38.2623Z" fill="#0E314C"/>
<path d="M37.9766 31.8925L47.6765 37.399V36.1695L37.9766 30.6587V31.8925Z" fill="#0E314C"/>
<path d="M70.4258 50.3129L89.7554 61.1209V59.8914L70.4258 49.0747V50.3129Z" fill="#0E314C"/>
<path d="M40.5469 36.126L45.3727 38.864V37.6302L40.5469 34.8922V36.126Z" fill="#0E314C"/>
<path d="M32.9961 31.8403L38.1161 34.7439V33.5101L32.9961 30.6064V31.8403Z" fill="#0E314C"/>
<path d="M71.5078 53.6962L89.7528 63.9025V62.6687L71.5078 52.4667V53.6962Z" fill="#0E314C"/>
<path d="M65.8008 50.4917L70.508 53.1337V51.9043L65.8008 49.2622V50.4917Z" fill="#0E314C"/>
<path d="M30.9141 25.1174L45.5584 33.4316V32.1978L30.9141 23.8879V25.1174Z" fill="#0E314C"/>
<path d="M71.5078 48.1635L89.7528 58.3655V57.1317L71.5078 46.9297V48.1635Z" fill="#0E314C"/>
<path d="M65.8008 44.9547L70.508 47.5967V46.3629L65.8008 43.7208V44.9547Z" fill="#0E314C"/>
<path d="M50.3359 30.6152L66.2229 39.6444V38.4149L50.3359 29.3813V30.6152Z" fill="#0E314C"/>
<path d="M82.3438 51.4072L89.7559 55.597V54.3631L82.3438 50.1733V51.4072Z" fill="#0E314C"/>
<path d="M74.3633 46.8992L80.4054 50.313V49.0835L74.3633 45.661V46.8992Z" fill="#0E314C"/>
<path d="M63.5703 40.7954L72.6819 45.9444V44.7105L63.5703 39.5659V40.7954Z" fill="#0E314C"/>
<path d="M53.5859 35.1494L62.3242 40.0891V38.8596L53.5859 33.9199V35.1494Z" fill="#0E314C"/>
<path d="M43.4844 29.4379L51.968 34.2338V33.0043L43.4844 28.2041V29.4379Z" fill="#0E314C"/>
<path d="M34.8594 24.5637L41.9159 28.5573V27.3235L34.8594 23.3342V24.5637Z" fill="#0E314C"/>
<path d="M56.1367 59.1066L68.9192 66.3701V65.1363L56.1367 57.8728V59.1066Z" fill="#0E314C"/>
<path d="M37.9766 48.7957L54.1402 57.9732V56.7437L37.9766 47.5619V48.7957Z" fill="#0E314C"/>
<path d="M30.8789 44.7629L36.2317 47.8061V46.5722L30.8789 43.5291V44.7629Z" fill="#0E314C"/>
<path d="M70.4258 67.216L83.9284 74.7673V73.5334L70.4258 65.9822V67.216Z" fill="#0E314C"/>
<path d="M47.2461 56.8309L59.3172 63.6801V62.4463L47.2461 55.597V56.8309Z" fill="#0E314C"/>
<path d="M60.2891 64.2295L64.746 66.7626V65.5287L60.2891 63V64.2295Z" fill="#0E314C"/>
<path d="M40.2695 52.8677L45.3764 55.767V54.5332L40.2695 51.6339V52.8677Z" fill="#0E314C"/>
<path d="M33.4648 49.0092L39.2523 52.2922V51.0583L33.4648 47.7754V49.0092Z" fill="#0E314C"/>
<path d="M65.8008 67.3948L70.508 70.0368V68.803L65.8008 66.1653V67.3948Z" fill="#0E314C"/>
<path d="M39.7969 47.0648L45.558 50.3347V49.1008L39.7969 45.8353V47.0648Z" fill="#0E314C"/>
<path d="M32.8438 43.1148L37.5554 45.7918V44.5579L32.8438 41.881V43.1148Z" fill="#0E314C"/>
<path d="M71.5078 65.0622L89.7528 75.2686V74.0348L71.5078 63.8328V65.0622Z" fill="#0E314C"/>
<path d="M65.8008 61.8577L70.508 64.4998V63.266L65.8008 60.6239V61.8577Z" fill="#0E314C"/>
<path d="M59.2227 49.6807L83.8392 63.5973V62.3635L59.2227 48.4469V49.6807Z" fill="#0E314C"/>
<path d="M50.1523 44.5493L56.5107 48.1462V46.9167L50.1523 43.3198V44.5493Z" fill="#0E314C"/>
<path d="M36.9531 37.0895L48.5017 43.6206V42.4478H48.6115L36.9531 35.8557V37.0895Z" fill="#0E314C"/>
<path d="M50.3359 47.5183L66.2229 56.5475V55.318L50.3359 46.2844V47.5183Z" fill="#0E314C"/>
<path d="M30.9688 36.514L47.9623 46.171V44.9372L30.9688 35.2802V36.514Z" fill="#0E314C"/>
<path d="M71.9844 59.778L89.7552 69.7228V68.489L71.9844 58.5442V59.778Z" fill="#0E314C"/>
<path d="M68.2852 57.7072L71.0955 59.2811V58.0473L68.2852 56.4734V57.7072Z" fill="#0E314C"/>
<path d="M82.3438 68.3104L89.7559 72.5045V71.2663L82.3438 67.0765V68.3104Z" fill="#0E314C"/>
<path d="M75.5078 64.4475L80.4039 67.216V65.9822L75.5078 63.218V64.4475Z" fill="#0E314C"/>
<path d="M60.7891 56.1289L74.3093 63.7716V62.5378L60.7891 54.895V56.1289Z" fill="#0E314C"/>
<path d="M45.0391 47.2217L51.5423 50.8971V49.6633L45.0391 45.9879V47.2217Z" fill="#0E314C"/>
<path d="M34.8594 41.4667L40.3922 44.5928V43.3633L34.8594 40.2329V41.4667Z" fill="#0E314C"/>
<path d="M41.2383 45.0723L44.0266 46.6463V45.4168L41.2383 43.8385V45.0723Z" fill="#0E314C"/>
<path d="M53.0625 51.756L59.715 55.5186V54.2847L53.0625 50.5222V51.756Z" fill="#0E314C"/>
<path d="M58.5633 59.3693C59.7526 60.0435 61.0281 59.8472 61.6745 58.8915L67.2721 50.5844C68.3106 49.0185 70.7409 49.0868 73.7013 50.7678L97.6041 63.2562C101.521 65.4791 102.534 69.0631 103.378 72.9116L102.689 130.566C103.34 133.557 101.405 134.581 98.3625 132.858L21.552 88.8772C18.5873 87.5461 16.9413 85.6346 15.9717 83.6464C15.2004 82.0635 14.8686 80.3099 14.8513 78.552L14.4463 38.6464C14.0197 36.6965 16.1311 35.1648 17.8807 36.1589L58.5633 59.3693Z" fill="url(#paint3_linear_775_1978)"/>
<path d="M97.8937 133.655L21.1694 89.7178C18.3469 88.4549 16.3733 86.5989 15.1323 84.0432C14.348 82.4347 13.943 80.5872 13.9171 78.5606L13.5164 38.7445C13.288 37.5115 13.7749 36.2998 14.8005 35.5488C15.8562 34.7851 17.2179 34.7083 18.3512 35.3568L59.0295 58.5672C59.6587 58.9214 60.4774 59.0024 60.8954 58.3795L66.4887 50.0724C67.8374 48.0415 70.703 47.9988 74.1331 49.9444L98.066 62.4456C102.263 64.8264 103.401 68.6578 104.284 72.7068C104.297 72.7751 104.306 72.8433 104.306 72.9159L103.621 130.473C104.069 132.687 103.203 133.694 102.642 134.103C102.177 134.44 101.604 134.611 100.957 134.611C100.065 134.615 99.0227 134.295 97.8937 133.655ZM97.1697 64.0712L73.2368 51.57C70.7719 50.1705 68.7854 49.9871 68.0486 51.1007L62.451 59.4078C61.5375 60.7645 59.7061 61.0803 58.0988 60.1715C58.0988 60.1672 58.0988 60.1672 58.0988 60.1672L17.4204 36.9654C16.9249 36.6838 16.3561 36.7179 15.8993 37.0507C15.4426 37.3835 15.24 37.9083 15.3607 38.4587C15.3736 38.5227 15.3822 38.5781 15.3822 38.6464L15.7873 78.5478C15.8045 80.3014 16.1493 81.8843 16.8129 83.2453C17.86 85.3872 19.5362 86.9573 22.0226 88.0794L98.8288 132.051C100.277 132.875 101.199 132.87 101.548 132.614C101.888 132.367 101.979 131.676 101.781 130.763C101.768 130.694 101.759 130.626 101.759 130.554L102.448 73.0055C101.595 69.1527 100.652 66.0466 97.1697 64.0712Z" fill="url(#paint4_linear_775_1978)"/>
<path opacity="0.2" d="M56.538 74.7672C55.5252 74.1303 51.0362 73.0151 49.8086 72.6924V81.9569C49.8086 86.5905 52.8207 92.2385 56.538 94.5727C58.2695 95.659 59.8471 95.8348 61.0402 95.2412C62.1671 94.6851 62.9466 93.4459 63.1879 91.6478C63.2436 91.2588 63.2701 90.8438 63.2701 90.4029V81.1385C61.0243 78.911 58.7812 76.1763 56.538 74.7672Z" fill="black"/>
<path d="M53.8591 75.2726C52.8163 74.6781 48.2026 73.6313 46.9414 73.3298V82.0054C46.9414 86.346 50.0383 91.6338 53.8591 93.8212C55.6374 94.8395 57.2605 95.0016 58.4872 94.447C59.642 93.9264 60.4464 92.7688 60.6963 91.0792C60.7509 90.7179 60.7797 90.3282 60.7797 89.9158V81.2374C58.4728 79.1524 56.1659 76.5924 53.8591 75.2726Z" fill="#38C5EA"/>
<path d="M58.4892 94.4498C58.4117 94.5066 58.3283 94.5578 58.2479 94.6062C56.9925 95.3315 55.2516 95.232 53.3239 94.1312C49.5031 91.9466 46.4062 86.656 46.4062 82.3154V73.637C46.5844 73.6796 46.7625 73.7251 46.9435 73.7735V82.0082C46.9435 86.3488 50.0403 91.6366 53.8612 93.824C55.6423 94.8394 57.2625 95.0016 58.4892 94.4498Z" fill="#E6E6E6"/>
<path d="M62.5681 80.3556V89.4351C62.5681 91.6822 61.7896 93.2722 60.5859 93.935L58.4773 95.0927C58.6697 94.8623 60.7209 91.7931 60.7209 90.4961V81.4166C60.7209 81.4166 55.6677 76.3819 53.3292 75.045C51.2809 73.8731 45.9375 72.9601 45.9375 72.9601L47.7847 71.9048C47.7847 71.9048 52.838 72.6472 55.1793 73.9841C57.5177 75.3238 62.5681 80.3556 62.5681 80.3556Z" fill="#38C5EA"/>
<path d="M62.5681 80.3556V89.4351C62.5681 91.6822 61.7896 93.2722 60.5859 93.935L58.4773 95.0927C58.6697 94.8623 60.7209 91.7931 60.7209 90.4961V81.4166C60.7209 81.4166 55.6677 76.3819 53.3292 75.045C51.2809 73.8731 45.9375 72.9601 45.9375 72.9601L47.7847 71.9048C47.7847 71.9048 52.838 72.6472 55.1793 73.9841C57.5177 75.3238 62.5681 80.3556 62.5681 80.3556Z" fill="black" fill-opacity="0.1"/>
<path d="M62.5671 80.3556L60.717 81.4138C60.717 81.4138 55.6638 76.3791 53.3253 75.0422C50.984 73.7025 45.9336 72.9601 45.9336 72.9601L47.7808 71.9048C47.7808 71.9048 52.791 72.5249 55.1294 73.8618C57.4736 75.2015 62.5671 80.3556 62.5671 80.3556Z" fill="#38C5EA"/>
<path d="M53.3292 75.0422C51.1085 73.8646 47.8853 73.2388 45.9375 72.9601V82.0424C45.9375 86.6731 49.2527 92.3364 53.3292 94.666C55.4292 95.8664 57.3597 95.7924 58.71 94.9562C59.9453 94.1654 60.7583 92.6863 60.7209 90.4932V81.4138C60.7209 81.4138 56.3801 76.6607 53.3292 75.0422ZM60.2469 90.223C60.2469 92.234 59.5833 93.6875 58.4916 94.4499C58.4141 94.5067 58.3307 94.5579 58.2503 94.6063C56.9949 95.3316 55.254 95.2321 53.3263 94.1313C49.5055 91.9467 46.4086 86.6561 46.4086 82.3155V73.6371C48.727 74.1946 51.0568 74.2799 53.3263 75.5827C55.6332 76.8996 57.9372 79.4653 60.244 81.5475V90.223H60.2469Z" fill="white"/>
</g>
<defs>
<linearGradient id="paint0_linear_775_1978" x1="16.0063" y1="80.6438" x2="125.338" y2="80.6438" gradientUnits="userSpaceOnUse">
<stop stop-color="#F0F0FB"/>
<stop offset="1" stop-color="#D2D7F6"/>
</linearGradient>
<linearGradient id="paint1_linear_775_1978" x1="24.3009" y1="65.8131" x2="97.6688" y2="65.8131" gradientUnits="userSpaceOnUse">
<stop stop-color="#BAC1E8"/>
<stop offset="1" stop-color="#EFF3FD"/>
</linearGradient>
<linearGradient id="paint2_linear_775_1978" x1="24.2891" y1="66.1198" x2="96.3381" y2="66.1198" gradientUnits="userSpaceOnUse">
<stop stop-color="#F0F0FB"/>
<stop offset="1" stop-color="white"/>
</linearGradient>
<linearGradient id="paint3_linear_775_1978" x1="14.393" y1="84.7708" x2="103.377" y2="84.7708" gradientUnits="userSpaceOnUse">
<stop stop-color="#EFF3FD"/>
<stop offset="1" stop-color="#EFF3FD"/>
</linearGradient>
<linearGradient id="paint4_linear_775_1978" x1="13.4603" y1="84.7698" x2="104.31" y2="84.7698" gradientUnits="userSpaceOnUse">
<stop stop-color="#F0F0FB"/>
<stop offset="1" stop-color="#D2D7F6"/>
</linearGradient>
<clipPath id="clip0_775_1978">
<rect width="113.077" height="129.231" fill="white" transform="translate(13.4609 5.38464)"/>
</clipPath>
</defs>
</svg>
