<svg width="140" height="140" viewBox="0 0 140 140" fill="none" xmlns="http://www.w3.org/2000/svg">
<g clip-path="url(#clip0_775_1193)">
<g clip-path="url(#clip1_775_1193)">
<path d="M112.271 48.0033L31.0532 1.7608C30.1951 1.27559 27.6406 1.66599 27.6406 3.7351L27.6544 87.3337C27.6544 87.7938 27.9011 88.2177 28.3049 88.4464L107.571 134.644C110.964 135.972 113.998 133.138 113.998 130.526V50.9592C113.998 49.7378 113.339 48.6084 112.271 48.0033Z" fill="#C0CAF0"/>
<path d="M110.54 49.5072L110.541 49.5077C111.453 50.0244 112.015 50.9879 112.015 52.0285V131.592C112.015 133.815 109.598 135.219 107.644 134.115C107.643 134.114 107.642 134.113 107.641 134.113L28.5469 88.0144L28.5428 88.012C28.2953 87.8709 28.1445 87.6114 28.1445 87.3337V3.98549C28.1445 3.39295 28.7945 3.00865 29.3243 3.3078C29.3245 3.30789 29.3247 3.30799 29.3248 3.30808L110.54 49.5072Z" fill="#EFF3FD" stroke="white"/>
<path d="M93.2334 97.0249C93.2334 97.0249 93.2334 97.0221 93.2334 97.0193C93.0708 94.8917 87.2776 82.0336 87.2776 75.7175C87.2776 72.8508 83.9912 65.1432 83.9912 65.1432C83.9912 65.1432 64.0738 83.1323 64.8478 91.0211C64.9908 92.4656 64.2505 95.0088 63.8411 96.1883C63.7401 96.3919 63.656 96.5927 63.5971 96.7963C63.5158 97.0723 63.4766 97.3456 63.4766 97.6161C63.4766 97.8085 63.499 98.0009 63.5411 98.1905C63.5523 98.238 63.5663 98.2881 63.5775 98.3383C63.6084 98.4555 63.6476 98.5726 63.6925 98.6897C64.8197 101.715 70.5316 104.696 78.3887 104.696C78.47 104.696 78.5457 104.691 78.627 104.688C78.798 104.691 78.9663 104.696 79.1373 104.696C79.213 104.696 79.286 104.688 79.3561 104.671C80.1244 104.646 80.8787 104.604 81.5965 104.523C88.6291 103.759 93.2951 100.544 93.2951 97.6189C93.2979 97.4237 93.2755 97.2257 93.2334 97.0249Z" fill="#E6A57F"/>
<path d="M51.7949 66.1304C51.7949 66.1304 51.6155 74.51 52.294 78.2662C52.7371 80.7146 54.3382 82.8674 54.3382 85.5807C54.3382 86.236 54.7252 88.9939 54.7252 89.2448C54.7252 91.6653 58.3901 93.9324 61.856 93.9324C62.6271 93.9324 64.8423 85.6559 64.8423 85.6559L57.7984 77.3823L51.7949 66.1304Z" fill="#E6A57F"/>
<path d="M87.7844 67.9987C87.7844 67.9987 91.4662 60.3357 89.8258 54.2008C88.1826 48.066 58.1089 69.9033 58.0107 69.9312C57.8004 69.9869 53.2999 78.2746 54.5 81.1886C55.4955 83.6035 58.6108 85.0648 60.5793 85.6671C62.071 86.1244 58.6388 87.0865 54.9262 84.4345C54.786 84.3341 54.6094 84.4931 54.6963 84.6381C55.3861 85.8009 56.7096 86.9749 58.0023 87.7613C58.608 88.1294 57.7864 89.677 57.9995 90.9068C58.3136 92.7361 61.7682 93.8934 61.7682 93.8934C62.2393 93.9854 63.0609 93.9324 64.362 93.2297C64.362 93.2297 75.8334 87.1952 77.872 85.2544C78.4581 84.6939 80.2611 80.5082 80.2611 80.5082C82.4006 81.6543 83.5306 79.6159 84.1587 79.1976C84.7869 78.7793 88.0676 75.5 88.9032 72.5106C89.7417 69.5296 88.6228 68.6261 87.7844 67.9987Z" fill="#FFB78D"/>
<path d="M51.3009 63.986C51.3009 63.986 51.772 67.1148 52.9273 68.5202C54.0797 69.9284 54.1863 71.1805 54.0265 71.8581C53.8694 72.5357 51.1439 79.1837 50.9308 79.5992C50.7036 80.0342 51.4243 81.9667 53.5049 81.2361C54.9658 80.7258 56.7576 81.9527 56.7576 81.9527C56.7576 79.8446 54.8172 79.2701 54.6574 79.1279C54.5004 78.9885 56.9175 73.0516 57.2427 72.4158C57.6634 71.5988 58.813 70.9853 59.4804 71.3394C62.7471 73.0683 66.9196 73.6902 68.3469 73.0684C71.3781 71.7521 72.0875 64.4489 74.8243 61.9113C83.1075 54.226 87.7819 53.632 89.8261 54.2065C89.8261 54.2065 88.3119 47.1514 83.6459 44.8062C78.063 42.0009 71.0136 40.3222 64.9848 43.9222C58.956 47.5139 53.3984 50.4837 51.3009 63.986Z" fill="#FFD1AA"/>
<path d="M61.765 93.899L61.5547 93.8405C61.6164 93.8628 61.6865 93.8823 61.765 93.899Z" fill="#E7B39D"/>
<path d="M93.7092 60.2047C93.7092 56.5517 93.0755 46.5881 80.589 41.3847C77.6559 40.1633 70.999 38.7132 66.0442 40.4142C53.2885 44.7979 54.298 52.9405 49.3516 56.323C49.3516 56.323 51.9762 62.0787 57.4946 63.6626C63.013 65.2437 69.9643 64.7445 71.9188 64.7445C79.8739 64.7445 77.1231 73.1019 78.7215 74.1197C80.5329 75.2742 83.7436 67.6335 86.0541 67.6335C86.6906 67.6335 87.2879 67.6307 87.7842 67.996C89.963 69.5939 89.1386 72.045 88.6703 73.0963C88.446 73.601 87.5992 74.8141 86.7804 75.9379C85.7681 77.321 86.7103 79.273 88.4264 79.3511C89.0713 79.3817 89.7976 79.3316 90.5939 79.1475C89.7275 75.9741 93.7092 67.6 93.7092 60.2047Z" fill="#0E314C"/>
<path d="M88.7726 79.0442C88.6604 79.0442 88.5511 79.0414 88.4417 79.0359C87.7575 79.0024 87.1687 78.6176 86.8714 78.0013C86.5714 77.385 86.6359 76.6851 87.0397 76.1302C88.1193 74.6466 88.767 73.6734 88.9661 73.2273C89.9952 70.91 89.6419 68.9607 87.9763 67.7393C87.3986 67.3155 86.7312 67.3155 86.0835 67.3155C84.7768 67.3155 83.4701 69.0695 82.0849 70.9267C81.039 72.3293 79.8528 73.9188 79.121 73.9188C79.0397 73.9188 78.9668 73.8965 78.8939 73.8519C78.5433 73.6288 78.4592 72.6333 78.3667 71.5792C78.1227 68.7293 77.7526 64.4265 71.9173 64.4265C71.6201 64.4265 71.2135 64.4377 70.7115 64.4516C69.9152 64.4739 68.9254 64.5018 67.7813 64.5018C63.606 64.5018 60.272 64.1281 57.5829 63.3557C56.708 63.1047 55.8612 62.7339 55.0508 62.2431C57.5548 63.4143 60.1486 64.0222 62.6947 64.0222C68.373 64.0222 73.5941 62.0785 77.3993 58.551C81.3418 54.8924 83.9608 49.173 83.9131 44.3209C83.9103 44.0281 83.9019 43.7214 83.8851 43.3923C90.1017 47.0983 93.3825 52.8986 93.3825 60.2018C93.3825 63.9748 92.345 67.9708 91.4281 71.4983C90.5953 74.6913 89.9307 77.254 90.2083 78.902C89.726 78.9968 89.2437 79.0442 88.7726 79.0442Z" fill="#0E314C"/>
<path d="M91.7914 105.443L82.7734 100.332L83.0987 99.7604L91.1296 104.314V96.3081H91.7914V105.443Z" fill="white"/>
<path d="M91.7902 67.8089H91.1285V58.9385L84.6875 55.2854L85.0156 54.7166L91.7902 58.5564V67.8089Z" fill="white"/>
<path d="M42.3844 38.4565H41.7227V30.1688L49.5152 34.5859L49.1871 35.1576L42.3844 31.2982V38.4565Z" fill="white"/>
<path d="M47.7066 80.4523L41.7227 77.0614V68.3025H42.3844V76.6794L48.0346 79.8807L47.7066 80.4523Z" fill="white"/>
<path d="M87.0246 58.7713L46.5814 35.8409C46.186 35.615 45.6953 35.8995 45.6953 36.3512V75.2295C45.6953 75.4414 45.8103 75.6394 45.9953 75.7426L85.4655 98.1208C86.5171 98.7176 87.821 97.9619 87.821 96.76V60.1321C87.821 59.5689 87.5181 59.0474 87.0246 58.7713Z" fill="url(#paint0_linear_775_1193)"/>
<path d="M85.1835 95.5303L78.4453 91.7099L78.7734 91.1383L84.5245 94.3981V88.6843H85.1835V95.5303Z" fill="white"/>
<path d="M85.1849 67.8091H84.526V61.3619L79.8516 58.7128L80.1796 58.1411L85.1849 60.9799V67.8091Z" fill="white"/>
<path d="M48.9938 46.3064H48.332V40.0851L54.1729 43.3951L53.8448 43.9668L48.9938 41.2145V46.3064Z" fill="white"/>
<path d="M52.7597 77.148L48.332 74.6383V68.1716H48.9938V74.2563L53.0877 76.5764L52.7597 77.148Z" fill="white"/>
<path d="M101.465 92.2173C101.465 92.6523 101.773 93.1794 102.152 93.3969C102.53 93.6116 102.836 93.4359 102.836 93.0037C102.836 92.5687 102.528 92.0416 102.149 91.8269C101.77 91.6066 101.465 91.7851 101.465 92.2173Z" fill="#0E314C"/>
<path d="M96.5781 84.0913C96.5781 84.5264 96.8866 85.0534 97.2651 85.2709C97.6437 85.4884 97.9493 85.3099 97.9493 84.8777C97.9493 84.4427 97.6409 83.9156 97.2623 83.7009C96.8838 83.4806 96.5781 83.6563 96.5781 84.0913Z" fill="#0E314C"/>
<path d="M99.0117 82.8171C99.0117 83.2521 99.3202 83.7791 99.6987 83.9938C100.077 84.2113 100.383 84.0356 100.383 83.6006C100.383 83.1656 100.074 82.6386 99.6959 82.4211C99.3174 82.2064 99.0117 82.3848 99.0117 82.8171Z" fill="#0E314C"/>
<path d="M96.586 86.76C96.586 87.1951 96.8944 87.7221 97.273 87.9396C97.6515 88.1543 97.9572 87.9786 97.9572 87.5464C97.9544 87.1114 97.6487 86.5872 97.2702 86.3669C96.8916 86.1493 96.5832 86.325 96.586 86.76Z" fill="#0E314C"/>
<path d="M101.449 81.5426C101.449 81.9777 101.758 82.5047 102.136 82.7222C102.515 82.9397 102.82 82.7612 102.82 82.329C102.82 81.894 102.512 81.367 102.133 81.1494C101.755 80.9319 101.449 81.1076 101.449 81.5426Z" fill="#0E314C"/>
<path d="M96.5781 81.4228C96.5781 81.855 96.8838 82.3848 97.2623 82.5995C97.6409 82.8171 97.9465 82.6414 97.9465 82.2064C97.9465 81.7713 97.6381 81.2471 97.2595 81.0296C96.881 80.8121 96.5753 80.9877 96.5781 81.4228Z" fill="#0E314C"/>
<path d="M101.441 78.8741C101.441 79.3091 101.75 79.8361 102.128 80.0509C102.507 80.2684 102.813 80.0927 102.813 79.6577C102.813 79.2226 102.504 78.6956 102.126 78.4781C101.747 78.2634 101.441 78.4418 101.441 78.8741Z" fill="#0E314C"/>
<path d="M99.0117 80.1483C99.0117 80.5834 99.3202 81.1104 99.6987 81.3279C100.077 81.5454 100.383 81.367 100.383 80.9347C100.383 80.5025 100.074 79.9727 99.6959 79.7579C99.3146 79.5376 99.0089 79.7133 99.0117 80.1483Z" fill="#0E314C"/>
<path d="M99.0195 85.4856C99.0195 85.9206 99.328 86.4477 99.7065 86.6652C100.085 86.8827 100.391 86.7042 100.391 86.272C100.391 85.837 100.082 85.31 99.7037 85.0924C99.3224 84.8749 99.0195 85.0506 99.0195 85.4856Z" fill="#0E314C"/>
<path d="M99.0273 90.823C99.0273 91.2553 99.3358 91.7823 99.7143 91.9998C100.093 92.2173 100.399 92.0416 100.399 91.6066C100.399 91.1716 100.09 90.6446 99.7115 90.4298C99.333 90.2123 99.0273 90.388 99.0273 90.823Z" fill="#0E314C"/>
<path d="M101.441 76.2053C101.441 76.6404 101.75 77.1674 102.128 77.3849C102.507 77.6024 102.813 77.424 102.813 76.9917C102.813 76.5567 102.507 76.0297 102.126 75.8122C101.747 75.5946 101.441 75.7731 101.441 76.2053Z" fill="#0E314C"/>
<path d="M101.461 89.5486C101.461 89.9836 101.769 90.5107 102.148 90.7282C102.526 90.9429 102.832 90.7672 102.832 90.3322C102.832 89.8972 102.524 89.3702 102.145 89.1527C101.767 88.9379 101.461 89.1136 101.461 89.5486Z" fill="#0E314C"/>
<path d="M99.0234 88.1543C99.0234 88.5894 99.3319 89.1164 99.7104 89.3311C100.089 89.5486 100.395 89.3729 100.395 88.9379C100.395 88.5057 100.086 87.9759 99.7076 87.7584C99.3291 87.5437 99.0234 87.7193 99.0234 88.1543Z" fill="#0E314C"/>
<path d="M101.457 86.88C101.457 87.315 101.765 87.8393 102.144 88.0568C102.523 88.2715 102.828 88.0986 102.828 87.6636C102.828 87.2286 102.52 86.7016 102.141 86.4868C101.763 86.2693 101.457 86.4478 101.457 86.88Z" fill="#0E314C"/>
<path d="M96.5898 89.4288C96.5898 89.8638 96.8983 90.3908 97.2768 90.6083C97.6554 90.8258 97.961 90.6474 97.961 90.2151C97.961 89.7801 97.6526 89.2531 97.274 89.0356C96.8955 88.818 96.5898 88.9937 96.5898 89.4288Z" fill="#0E314C"/>
<path d="M101.465 100.708C101.465 101.141 101.773 101.668 102.152 101.885C102.53 102.103 102.836 101.927 102.836 101.489C102.836 101.054 102.528 100.53 102.149 100.312C101.77 100.095 101.465 100.271 101.465 100.708Z" fill="#0E314C"/>
<path d="M96.586 95.2485C96.586 95.6835 96.8944 96.2105 97.273 96.428C97.6515 96.6427 97.9572 96.4671 97.9572 96.0348C97.9544 95.5998 97.6487 95.0728 97.2702 94.8553C96.8916 94.6378 96.5832 94.8134 96.586 95.2485Z" fill="#0E314C"/>
<path d="M99.0195 93.9742C99.0195 94.4092 99.328 94.9362 99.7065 95.1537C100.085 95.3684 100.391 95.1928 100.391 94.7577C100.391 94.3227 100.082 93.7985 99.7037 93.581C99.3224 93.3635 99.0195 93.5391 99.0195 93.9742Z" fill="#0E314C"/>
<path d="M99.0273 99.3114C99.0273 99.7437 99.3358 100.273 99.7143 100.488C100.093 100.709 100.399 100.53 100.399 100.095C100.399 99.66 100.09 99.1358 99.7115 98.9182C99.333 98.7007 99.0273 98.8764 99.0273 99.3114Z" fill="#0E314C"/>
<path d="M101.461 98.037C101.461 98.472 101.769 98.9991 102.148 99.2166C102.526 99.4341 102.832 99.2584 102.832 98.8234C102.832 98.3884 102.524 97.8613 102.145 97.6438C101.767 97.4263 101.461 97.6048 101.461 98.037Z" fill="#0E314C"/>
<path d="M99.0234 96.6427C99.0234 97.0778 99.3319 97.6048 99.7104 97.8223C100.089 98.037 100.395 97.8614 100.395 97.4263C100.395 96.9913 100.086 96.4643 99.7076 96.2495C99.3291 96.032 99.0234 96.2077 99.0234 96.6427Z" fill="#0E314C"/>
<path d="M96.586 104.094C96.586 104.529 96.8944 105.056 97.273 105.271C97.6515 105.488 97.9572 105.31 97.9572 104.877C97.9544 104.445 97.6487 103.918 97.2702 103.701C96.8916 103.483 96.5832 103.659 96.586 104.094Z" fill="#0E314C"/>
<path d="M99.0273 108.157C99.0273 108.592 99.3358 109.119 99.7143 109.336C100.093 109.551 100.399 109.375 100.399 108.94C100.399 108.505 100.09 107.981 99.7115 107.764C99.333 107.546 99.0273 107.722 99.0273 108.157Z" fill="#0E314C"/>
<path d="M99.0234 105.488C99.0234 105.923 99.3319 106.45 99.7104 106.668C100.089 106.885 100.395 106.709 100.395 106.272C100.395 105.837 100.086 105.312 99.7076 105.095C99.3291 104.877 99.0234 105.053 99.0234 105.488Z" fill="#0E314C"/>
<path d="M101.457 95.3684C101.457 95.8034 101.765 96.3305 102.144 96.548C102.523 96.7655 102.828 96.5898 102.828 96.1548C102.828 95.7198 102.52 95.1927 102.141 94.978C101.763 94.7577 101.457 94.9362 101.457 95.3684Z" fill="#0E314C"/>
<path d="M96.5898 97.917C96.5898 98.3521 96.8983 98.8763 97.2768 99.0938C97.6554 99.3113 97.961 99.1328 97.961 98.7006C97.961 98.2656 97.6526 97.7386 97.274 97.5211C96.8955 97.3064 96.5898 97.482 96.5898 97.917Z" fill="#0E314C"/>
<path d="M101.453 84.2113C101.453 84.6463 101.762 85.1734 102.14 85.3881C102.519 85.6056 102.824 85.4299 102.824 84.9949C102.824 84.5627 102.516 84.0357 102.137 83.8181C101.759 83.6006 101.45 83.7763 101.453 84.2113Z" fill="#0E314C"/>
<path d="M96.5547 68.0794C96.5547 68.5116 96.8631 69.0414 97.2417 69.2589C97.6202 69.4764 97.9259 69.3008 97.9259 68.8657C97.9259 68.4307 97.6174 67.9037 97.2389 67.689C96.8603 67.4687 96.5547 67.6443 96.5547 68.0794Z" fill="#0E314C"/>
<path d="M101.422 65.5335C101.422 65.9685 101.73 66.4956 102.109 66.7131C102.487 66.9278 102.793 66.7521 102.793 66.3199C102.793 65.8848 102.485 65.3578 102.106 65.1403C101.728 64.9228 101.422 65.0985 101.422 65.5335Z" fill="#0E314C"/>
<path d="M101.426 68.2022C101.426 68.6372 101.734 69.1643 102.113 69.379C102.491 69.5965 102.797 69.4208 102.797 68.9858C102.797 68.5536 102.489 68.0265 102.11 67.809C101.731 67.5887 101.426 67.7672 101.426 68.2022Z" fill="#0E314C"/>
<path d="M98.9922 69.4737C98.9922 69.9087 99.3006 70.4357 99.6792 70.6505C100.058 70.868 100.363 70.6923 100.363 70.2573C100.363 69.8223 100.055 69.2952 99.6764 69.0777C99.2978 68.8658 98.9922 69.0415 98.9922 69.4737Z" fill="#0E314C"/>
<path d="M98.9883 66.8051C98.9883 67.2401 99.2967 67.7671 99.6753 67.9846C100.054 68.1993 100.359 68.0237 100.359 67.5914C100.359 67.1564 100.051 66.6294 99.6753 66.4147C99.2939 66.1944 98.9855 66.3728 98.9883 66.8051Z" fill="#0E314C"/>
<path d="M96.5586 70.7481C96.5586 71.1831 96.867 71.7101 97.2456 71.9276C97.6241 72.1423 97.9298 71.9666 97.9298 71.5344C97.9298 71.0994 97.6213 70.5724 97.2428 70.3549C96.8642 70.1374 96.5586 70.3158 96.5586 70.7481Z" fill="#0E314C"/>
<path d="M96.5469 62.7421C96.5469 63.1771 96.8553 63.7041 97.2339 63.9189C97.6125 64.1364 97.9181 63.9607 97.9181 63.5257C97.9181 63.0907 97.6097 62.5664 97.2339 62.3489C96.8525 62.1314 96.5441 62.3071 96.5469 62.7421Z" fill="#0E314C"/>
<path d="M98.9805 64.1364C98.9805 64.5714 99.2889 65.0984 99.6675 65.3159C100.046 65.5334 100.352 65.355 100.352 64.9227C100.352 64.4877 100.043 63.9607 99.6647 63.7432C99.2861 63.5285 98.9805 63.7041 98.9805 64.1364Z" fill="#0E314C"/>
<path d="M96.5469 65.4108C96.5469 65.8458 96.8553 66.3729 97.2311 66.5904C97.6096 66.8079 97.9153 66.6322 97.9153 66.1972C97.9153 65.7622 97.6068 65.2351 97.2283 65.0204C96.8525 64.8001 96.5469 64.9758 96.5469 65.4108Z" fill="#0E314C"/>
<path d="M96.5664 73.4168C96.5664 73.849 96.8749 74.3788 97.2534 74.5963C97.632 74.811 97.9376 74.6353 97.9376 74.2031C97.9376 73.7681 97.6292 73.2411 97.2506 73.0264C96.8721 72.8061 96.5664 72.9845 96.5664 73.4168Z" fill="#0E314C"/>
<path d="M101.434 73.5367C101.434 73.9718 101.742 74.4988 102.121 74.7163C102.499 74.9338 102.805 74.7554 102.805 74.3231C102.805 73.8881 102.496 73.3639 102.118 73.1463C101.742 72.926 101.434 73.1045 101.434 73.5367Z" fill="#0E314C"/>
<path d="M99.0039 74.811C99.0039 75.2461 99.3124 75.7731 99.6881 75.9906C100.067 76.2053 100.372 76.0324 100.372 75.5974C100.372 75.1652 100.064 74.6354 99.6853 74.4206C99.3068 74.2003 99.0011 74.3788 99.0039 74.811Z" fill="#0E314C"/>
<path d="M99.0078 77.4797C99.0078 77.9147 99.3163 78.4417 99.6948 78.6564C100.073 78.874 100.379 78.6955 100.379 78.2632C100.379 77.831 100.071 77.304 99.692 77.0865C99.3135 76.869 99.0078 77.0446 99.0078 77.4797Z" fill="#0E314C"/>
<path d="M96.5742 78.7541C96.5742 79.1891 96.8827 79.7133 97.2612 79.9308C97.6398 80.1484 97.9454 79.9727 97.9454 79.5376C97.9454 79.1026 97.637 78.5756 97.2612 78.3609C96.8799 78.1434 96.5742 78.3218 96.5742 78.7541Z" fill="#0E314C"/>
<path d="M99 72.1424C99 72.5774 99.3084 73.1044 99.687 73.3219C100.066 73.5366 100.371 73.361 100.371 72.9259C100.371 72.4937 100.063 71.9667 99.6842 71.7492C99.3057 71.5317 99 71.7074 99 72.1424Z" fill="#0E314C"/>
<path d="M96.5664 76.0854C96.5664 76.5176 96.8749 77.0474 97.2534 77.2649C97.632 77.4797 97.9376 77.3068 97.9376 76.869C97.9376 76.4367 97.6292 75.9097 97.2506 75.6922C96.8721 75.4747 96.5664 75.6503 96.5664 76.0854Z" fill="#0E314C"/>
<path d="M101.43 70.8679C101.43 71.303 101.738 71.83 102.117 72.0475C102.495 72.2622 102.801 72.0865 102.801 71.6543C102.801 71.2193 102.492 70.6923 102.114 70.4748C101.735 70.2572 101.43 70.4357 101.43 70.8679Z" fill="#0E314C"/>
<path d="M31.9298 43.0632C31.9298 42.6281 31.6213 42.1039 31.2428 41.8864C30.8642 41.6717 30.5586 41.8446 30.5586 42.2796C30.5586 42.7146 30.867 43.2416 31.2428 43.4563C31.6241 43.6739 31.9298 43.4982 31.9298 43.0632Z" fill="#0E314C"/>
<path d="M36.8126 51.189C36.8126 50.754 36.5042 50.227 36.1256 50.0122C35.7471 49.7947 35.4414 49.9704 35.4414 50.4054C35.4414 50.8404 35.7499 51.3647 36.1284 51.5822C36.507 51.7997 36.8126 51.624 36.8126 51.189Z" fill="#0E314C"/>
<path d="M34.3829 52.4634C34.3829 52.0284 34.0745 51.5013 33.6959 51.2838C33.3174 51.0663 33.0117 51.2448 33.0117 51.677C33.0117 52.112 33.3202 52.6391 33.6987 52.8566C34.0773 53.0741 34.3829 52.8984 34.3829 52.4634Z" fill="#0E314C"/>
<path d="M36.8087 48.5204C36.8087 48.0854 36.5002 47.5584 36.1217 47.3408C35.7431 47.1233 35.4375 47.3018 35.4375 47.734C35.4375 48.1691 35.7431 48.6961 36.1217 48.9108C36.503 49.1311 36.8115 48.9554 36.8087 48.5204Z" fill="#0E314C"/>
<path d="M31.9493 53.7378C31.9493 53.3028 31.6409 52.7758 31.2623 52.5583C30.8838 52.3407 30.5781 52.5192 30.5781 52.9514C30.5781 53.3865 30.8866 53.9135 31.2651 54.131C31.6437 54.3485 31.9493 54.1701 31.9493 53.7378Z" fill="#0E314C"/>
<path d="M36.8165 53.8577C36.8165 53.4227 36.5081 52.8957 36.1295 52.6809C35.751 52.4634 35.4453 52.6391 35.4453 53.0741C35.4453 53.5092 35.7538 54.0362 36.1323 54.2509C36.5109 54.4684 36.8193 54.2927 36.8165 53.8577Z" fill="#0E314C"/>
<path d="M31.9504 56.4065C31.9504 55.9715 31.642 55.4445 31.2662 55.2269C30.8877 55.0122 30.582 55.1879 30.582 55.6201C30.582 56.0552 30.8905 56.5822 31.269 56.7997C31.6476 57.0172 31.9532 56.8387 31.9504 56.4065Z" fill="#0E314C"/>
<path d="M34.3868 55.1321C34.3868 54.6999 34.0784 54.1729 33.6998 53.9554C33.3213 53.7378 33.0156 53.9135 33.0156 54.3485C33.0156 54.7836 33.3241 55.3106 33.7026 55.5281C34.0812 55.7428 34.3868 55.5672 34.3868 55.1321Z" fill="#0E314C"/>
<path d="M34.379 49.7947C34.379 49.3597 34.0706 48.8326 33.692 48.6151C33.3135 48.4004 33.0078 48.5761 33.0078 49.0083C33.0078 49.4433 33.3163 49.9704 33.6948 50.1879C34.0734 50.4054 34.379 50.2297 34.379 49.7947Z" fill="#0E314C"/>
<path d="M34.3634 44.4574C34.3634 44.0224 34.0549 43.4954 33.6764 43.2807C33.2978 43.0632 32.9922 43.2416 32.9922 43.6738C32.9922 44.1089 33.2978 44.6331 33.6792 44.8506C34.0577 45.0681 34.3662 44.8925 34.3634 44.4574Z" fill="#0E314C"/>
<path d="M31.9571 59.0723C31.9571 58.6373 31.6487 58.1131 31.2701 57.8955C30.8916 57.678 30.5859 57.8537 30.5859 58.2887C30.5859 58.721 30.8944 59.2508 31.2729 59.4655C31.6515 59.6858 31.9599 59.5073 31.9571 59.0723Z" fill="#0E314C"/>
<path d="M31.9298 45.7319C31.9298 45.2968 31.6213 44.7726 31.2428 44.5551C30.8642 44.3376 30.5586 44.516 30.5586 44.9483C30.5586 45.3833 30.867 45.9103 31.2456 46.1251C31.6269 46.3426 31.9298 46.1669 31.9298 45.7319Z" fill="#0E314C"/>
<path d="M34.3712 47.1261C34.3712 46.6911 34.0627 46.1641 33.6842 45.9466C33.3056 45.7318 33 45.9075 33 46.3397C33 46.7748 33.3084 47.3018 33.687 47.5193C34.0656 47.7368 34.3712 47.5611 34.3712 47.1261Z" fill="#0E314C"/>
<path d="M31.9387 48.4005C31.9387 47.9654 31.6303 47.4384 31.2545 47.2237C30.876 47.0062 30.5703 47.1818 30.5703 47.6169C30.5703 48.0519 30.8788 48.5761 31.2573 48.7937C31.6331 49.0112 31.9387 48.8355 31.9387 48.4005Z" fill="#0E314C"/>
<path d="M36.8059 45.8517C36.8059 45.4167 36.4974 44.8897 36.1217 44.6722C35.7431 44.4574 35.4375 44.6303 35.4375 45.0653C35.4375 45.5004 35.7459 46.0274 36.1245 46.2449C36.5002 46.4624 36.8059 46.2867 36.8059 45.8517Z" fill="#0E314C"/>
<path d="M31.9298 34.5747C31.9298 34.1397 31.6213 33.6127 31.2428 33.3952C30.8642 33.1777 30.5586 33.3561 30.5586 33.7884C30.5586 34.2234 30.867 34.7504 31.2428 34.9651C31.6241 35.1854 31.9298 35.0097 31.9298 34.5747Z" fill="#0E314C"/>
<path d="M36.8087 40.0319C36.8087 39.5969 36.5002 39.0698 36.1217 38.8523C35.7431 38.6348 35.4375 38.8133 35.4375 39.2455C35.4375 39.6805 35.7431 40.2048 36.1217 40.4251C36.503 40.6426 36.8115 40.4669 36.8087 40.0319Z" fill="#0E314C"/>
<path d="M34.379 41.3064C34.379 40.8714 34.0706 40.3444 33.692 40.1269C33.3135 39.9121 33.0078 40.0878 33.0078 40.52C33.0078 40.9551 33.3163 41.4821 33.6948 41.6996C34.0734 41.9171 34.379 41.7386 34.379 41.3064Z" fill="#0E314C"/>
<path d="M34.3634 35.9689C34.3634 35.5339 34.0549 35.0069 33.6764 34.7921C33.2978 34.5746 32.9922 34.7503 32.9922 35.1853C32.9922 35.6204 33.2978 36.1474 33.6792 36.3649C34.0577 36.5796 34.3662 36.4039 34.3634 35.9689Z" fill="#0E314C"/>
<path d="M31.9298 37.2433C31.9298 36.8083 31.6213 36.2813 31.2428 36.0637C30.8642 35.8462 30.5586 36.0247 30.5586 36.4569C30.5586 36.892 30.867 37.4162 31.2456 37.6365C31.6269 37.854 31.9298 37.6783 31.9298 37.2433Z" fill="#0E314C"/>
<path d="M34.3712 38.6377C34.3712 38.2027 34.0627 37.6757 33.6842 37.461C33.3056 37.2435 33 37.4191 33 37.8542C33 38.2892 33.3084 38.8162 33.687 39.0309C34.0656 39.2484 34.3712 39.07 34.3712 38.6377Z" fill="#0E314C"/>
<path d="M36.8087 31.1866C36.8087 30.7516 36.5002 30.2273 36.1217 30.0098C35.7431 29.7923 35.4375 29.968 35.4375 30.403C35.4375 30.838 35.7431 31.365 36.1217 31.5798C36.503 31.7973 36.8115 31.6216 36.8087 31.1866Z" fill="#0E314C"/>
<path d="M34.3634 27.1237C34.3634 26.6887 34.0549 26.1616 33.6764 25.9441C33.2978 25.7294 32.9922 25.9051 32.9922 26.3373C32.9922 26.7723 33.2978 27.2994 33.6792 27.5169C34.0577 27.7344 34.3662 27.5559 34.3634 27.1237Z" fill="#0E314C"/>
<path d="M34.3712 29.7923C34.3712 29.3573 34.0627 28.8302 33.6842 28.6127C33.3056 28.398 33 28.5709 33 29.0059C33 29.4409 33.3084 29.968 33.687 30.1855C34.0656 30.403 34.3712 30.2273 34.3712 29.7923Z" fill="#0E314C"/>
<path d="M31.9387 39.9122C31.9387 39.4771 31.6303 38.9501 31.2545 38.7354C30.876 38.5179 30.5703 38.6936 30.5703 39.1286C30.5703 39.5636 30.8788 40.0906 31.2573 40.3081C31.6331 40.5229 31.9387 40.3472 31.9387 39.9122Z" fill="#0E314C"/>
<path d="M36.8059 37.3633C36.8059 36.9283 36.4974 36.4012 36.1217 36.1837C35.7431 35.969 35.4375 36.1447 35.4375 36.5769C35.4375 37.012 35.7459 37.539 36.1245 37.7565C36.5002 37.974 36.8059 37.7983 36.8059 37.3633Z" fill="#0E314C"/>
<path d="M31.9415 51.0691C31.9415 50.6341 31.6331 50.1071 31.2545 49.8895C30.876 49.6748 30.5703 49.8505 30.5703 50.2827C30.5703 50.715 30.8788 51.2448 31.2573 51.4623C31.6387 51.6798 31.9443 51.5041 31.9415 51.0691Z" fill="#0E314C"/>
<path d="M36.8399 67.2011C36.8399 66.7661 36.5315 66.2418 36.1529 66.0243C35.7744 65.8068 35.4688 65.9825 35.4688 66.4175C35.4688 66.8525 35.7772 67.3796 36.1557 67.5971C36.5371 67.8118 36.8399 67.6361 36.8399 67.2011Z" fill="#0E314C"/>
<path d="M31.97 69.7498C31.97 69.3148 31.6615 68.7877 31.2858 68.5702C30.9072 68.3555 30.6016 68.5312 30.6016 68.9634C30.6016 69.3984 30.91 69.9255 31.2886 70.143C31.6671 70.3577 31.9728 70.1848 31.97 69.7498Z" fill="#0E314C"/>
<path d="M31.9689 67.0811C31.9689 66.6461 31.6604 66.119 31.2819 65.9015C30.9033 65.6868 30.5977 65.8625 30.5977 66.2947C30.5977 66.7297 30.9061 67.2568 31.2847 67.4743C31.6632 67.6918 31.9689 67.5133 31.9689 67.0811Z" fill="#0E314C"/>
<path d="M34.4024 65.8068C34.4024 65.3718 34.0968 64.8447 33.7154 64.6272C33.3369 64.4125 33.0312 64.5882 33.0312 65.0204C33.0312 65.4554 33.3397 65.9825 33.7183 66.2C34.0968 66.4175 34.4024 66.239 34.4024 65.8068Z" fill="#0E314C"/>
<path d="M34.4064 68.4726C34.4064 68.0376 34.0979 67.5105 33.7194 67.2958C33.3408 67.0783 33.0352 67.2568 33.0352 67.689C33.0352 68.124 33.3436 68.6511 33.7222 68.8658C34.1007 69.0861 34.4092 68.9076 34.4064 68.4726Z" fill="#0E314C"/>
<path d="M36.836 64.5323C36.836 64.0972 36.5276 63.5702 36.149 63.3527C35.7705 63.138 35.4648 63.3136 35.4648 63.7459C35.4648 64.1809 35.7733 64.7079 36.1518 64.9254C36.5304 65.143 36.836 64.9673 36.836 64.5323Z" fill="#0E314C"/>
<path d="M36.8478 72.5384C36.8478 72.1033 36.5393 71.5763 36.1608 71.3588C35.7822 71.1441 35.4766 71.3197 35.4766 71.752C35.4766 72.187 35.785 72.714 36.1636 72.9316C36.5449 73.1491 36.8478 72.9734 36.8478 72.5384Z" fill="#0E314C"/>
<path d="M34.4103 71.1441C34.4103 70.7091 34.1018 70.182 33.7233 69.9645C33.3447 69.7498 33.0391 69.9227 33.0391 70.3577C33.0391 70.7927 33.3475 71.3198 33.7261 71.5373C34.1046 71.7548 34.4103 71.5763 34.4103 71.1441Z" fill="#0E314C"/>
<path d="M36.8449 69.8697C36.8449 69.4347 36.5365 68.9104 36.1608 68.6929C35.7822 68.4754 35.4766 68.6511 35.4766 69.0861C35.4766 69.5211 35.785 70.0482 36.1636 70.2657C36.5393 70.4804 36.8449 70.3047 36.8449 69.8697Z" fill="#0E314C"/>
<path d="M36.8321 61.8637C36.8321 61.4287 36.5237 60.9016 36.1451 60.6841C35.7666 60.4666 35.4609 60.6423 35.4609 61.0773C35.4609 61.5123 35.7694 62.0393 36.1479 62.2569C36.5265 62.4744 36.8321 62.2987 36.8321 61.8637Z" fill="#0E314C"/>
<path d="M31.9582 61.741C31.9582 61.306 31.6526 60.779 31.274 60.5642C30.8955 60.3467 30.5898 60.5252 30.5898 60.9574C30.5898 61.3896 30.8983 61.9195 31.2768 62.1342C31.6554 62.3545 31.961 62.176 31.9582 61.741Z" fill="#0E314C"/>
<path d="M34.3918 60.4694C34.3918 60.0372 34.0834 59.5073 33.7048 59.2898C33.3263 59.0751 33.0207 59.2508 33.0235 59.683C33.0235 60.118 33.3319 60.6451 33.7077 60.8626C34.0862 61.0801 34.3918 60.9044 34.3918 60.4694Z" fill="#0E314C"/>
<path d="M34.3907 57.8007C34.3907 57.3685 34.0823 56.8387 33.7037 56.6239C33.3252 56.4064 33.0195 56.5821 33.0195 57.0171C33.0195 57.4521 33.328 57.9792 33.7065 58.1939C34.0851 58.4114 34.3907 58.2357 34.3907 57.8007Z" fill="#0E314C"/>
<path d="M36.8243 56.5264C36.8243 56.0914 36.5159 55.5643 36.1373 55.3468C35.7588 55.1321 35.4531 55.3078 35.4531 55.74C35.4531 56.175 35.7616 56.7021 36.1401 56.9196C36.5187 57.1371 36.8243 56.9614 36.8243 56.5264Z" fill="#0E314C"/>
<path d="M34.3946 63.1381C34.3946 62.7059 34.0862 62.176 33.7076 61.9585C33.3291 61.7438 33.0234 61.9195 33.0234 62.3517C33.0234 62.7867 33.3319 63.3138 33.7104 63.5313C34.089 63.7488 34.3974 63.5703 34.3946 63.1381Z" fill="#0E314C"/>
<path d="M36.8282 59.195C36.8282 58.76 36.5198 58.2329 36.1412 58.0154C35.7627 57.8007 35.457 57.9764 35.457 58.4086C35.457 58.8436 35.7655 59.3707 36.144 59.5882C36.5226 59.8057 36.8282 59.63 36.8282 59.195Z" fill="#0E314C"/>
<path d="M31.9649 64.4125C31.9649 63.9775 31.6565 63.4504 31.2779 63.2329C30.8994 63.0182 30.5938 63.1939 30.5938 63.6261C30.5938 64.0611 30.9022 64.5882 31.2779 64.8057C31.6565 65.0232 31.9649 64.8447 31.9649 64.4125Z" fill="#0E314C"/>
</g>
</g>
<defs>
<linearGradient id="paint0_linear_775_1193" x1="73.4759" y1="52.5339" x2="56.84" y2="81.7796" gradientUnits="userSpaceOnUse">
<stop stop-color="#38C5EA" stop-opacity="0.64"/>
<stop offset="1" stop-color="#0B273D" stop-opacity="0.16"/>
</linearGradient>
<clipPath id="clip0_775_1193">
<rect width="140" height="140" fill="white"/>
</clipPath>
<clipPath id="clip1_775_1193">
<rect width="93" height="137" fill="white" transform="translate(21 -2)"/>
</clipPath>
</defs>
</svg>
