<svg width="555" height="605" viewBox="0 0 555 605" fill="none" xmlns="http://www.w3.org/2000/svg">
<g clip-path="url(#clip0_746_2894)">
<path d="M314.191 477.411L313.402 478.801L370.391 511.297L371.18 509.907L314.191 477.411Z" fill="#CAD6F8"/>
<path d="M301.742 484.621L300.953 486.012L357.942 518.508L358.731 517.117L301.742 484.621Z" fill="#CAD6F8"/>
<path d="M223.43 508.745L274.587 479.539L273.823 478.167L221.805 507.819C220.528 507.276 218.937 506.956 217.215 506.956C212.911 506.956 209.535 508.905 209.535 511.334C209.535 513.793 212.916 515.712 217.215 515.712C221.519 515.712 224.895 513.797 224.895 511.334C224.895 510.341 224.353 509.478 223.43 508.745ZM217.215 514.113C213.646 514.113 211.126 512.673 211.126 511.334C211.126 510.025 213.646 508.556 217.215 508.556C218.236 508.556 219.159 508.682 219.957 508.876C220.721 509.07 221.394 509.322 221.901 509.613C222.796 510.122 223.304 510.733 223.304 511.339C223.304 512.673 220.813 514.113 217.215 514.113Z" fill="#CAD6F8"/>
<path d="M218.514 539.615V527.824L174.084 502.103V477.178L304.633 401.258L303.835 399.886L172.488 476.252V503.029L216.918 528.75V539.581C212.904 539.707 209.809 541.593 209.809 543.925C209.809 545.074 210.573 546.097 211.787 546.863L158.091 578.353C156.814 577.81 155.198 577.548 153.477 577.548C149.173 577.548 145.797 579.497 145.797 581.926C145.797 584.384 149.177 586.304 153.477 586.304C157.781 586.304 161.157 584.389 161.157 581.926C161.157 580.937 160.615 580.074 159.691 579.337L213.509 547.692C214.655 548.109 216.028 548.332 217.494 548.332C221.798 548.332 225.174 546.383 225.174 543.925C225.174 541.69 222.306 539.867 218.514 539.615ZM153.477 584.709C149.908 584.709 147.388 583.269 147.388 581.931C147.388 580.622 149.908 579.153 153.477 579.153C154.497 579.153 155.421 579.279 156.219 579.473C156.983 579.667 157.655 579.919 158.163 580.21C159.058 580.719 159.566 581.33 159.566 581.936C159.566 583.274 157.08 584.709 153.477 584.709ZM217.494 546.737C216.793 546.737 216.091 546.674 215.487 546.543C214.66 546.446 213.988 546.223 213.383 545.937H213.349C212.135 545.394 211.405 544.657 211.405 543.925C211.405 542.679 213.668 541.307 216.918 541.176C217.112 541.142 217.3 541.142 217.494 541.142C217.842 541.142 218.195 541.142 218.514 541.205C221.542 541.428 223.583 542.737 223.583 543.92C223.583 545.268 221.092 546.737 217.494 546.737Z" fill="#CAD6F8"/>
<path d="M66.6721 421.524C62.3679 421.524 58.9922 419.599 58.9922 417.141C58.9922 414.683 62.3679 412.758 66.6721 412.758C70.9763 412.758 74.352 414.683 74.352 417.141C74.3472 419.599 70.9763 421.524 66.6721 421.524ZM66.6721 414.363C63.0885 414.363 60.5881 415.827 60.5881 417.146C60.5881 418.465 63.0885 419.929 66.6721 419.929C70.2557 419.929 72.7561 418.465 72.7561 417.146C72.7561 415.827 70.2557 414.363 66.6721 414.363Z" fill="#CAD6F8"/>
<path d="M119.433 381.441L62.457 413.97L63.2469 415.36L120.223 382.831L119.433 381.441Z" fill="#CAD6F8"/>
<path d="M70.1096 427.638C65.8054 427.638 62.4297 425.713 62.4297 423.255C62.4297 420.797 65.8054 418.872 70.1096 418.872C74.4187 418.872 77.7895 420.797 77.7895 423.255C77.7895 425.713 74.4187 427.638 70.1096 427.638ZM70.1096 420.477C66.526 420.477 64.0256 421.941 64.0256 423.26C64.0256 424.578 66.526 426.043 70.1096 426.043C73.6981 426.043 76.1984 424.578 76.1984 423.26C76.1984 421.941 73.6981 420.477 70.1096 420.477Z" fill="#CAD6F8"/>
<path d="M125.616 389.706L68.6406 422.235L69.4305 423.625L126.406 391.096L125.616 389.706Z" fill="#CAD6F8"/>
<path d="M95.4749 452.175L226.024 376.27L225.226 374.893L93.8789 451.259V478.041L138.304 503.752V518.869L121.353 528.803C120.077 528.26 118.461 527.998 116.74 527.998C112.435 527.998 109.06 529.947 109.06 532.376C109.06 534.834 112.44 536.754 116.74 536.754C121.044 536.754 124.42 534.839 124.42 532.376C124.42 531.387 123.878 530.524 122.954 529.787L139.896 519.785V502.826L95.4749 477.115V452.175ZM116.74 535.154C113.171 535.154 110.651 533.714 110.651 532.376C110.651 531.067 113.171 529.598 116.74 529.598C117.76 529.598 118.684 529.724 119.482 529.918C120.246 530.112 120.918 530.364 121.426 530.655C122.316 531.164 122.829 531.775 122.829 532.381C122.829 533.719 120.343 535.154 116.74 535.154Z" fill="#CAD6F8"/>
<path d="M103.054 255.265L198.864 311.821L199.696 310.449L104.713 254.373C105.762 253.67 106.372 252.71 106.372 251.658C106.372 249.229 102.991 247.28 98.6916 247.28C94.3874 247.28 91.0117 249.229 91.0117 251.658C91.0117 253.893 93.8506 255.716 97.6083 255.973V277.926L163.424 316.175L164.222 314.803L99.1994 277V256.007C100.665 255.968 101.971 255.711 103.054 255.265ZM98.6868 254.436C98.3047 254.436 97.9517 254.436 97.6035 254.373C94.605 254.15 92.598 252.87 92.598 251.658C92.598 250.349 95.0838 248.88 98.6868 248.88C102.256 248.88 104.776 250.349 104.776 251.658C104.776 252.298 104.2 252.967 103.184 253.481C102.643 253.767 101.942 254.024 101.177 254.184C100.573 254.31 99.9007 254.407 99.1994 254.407C99.0398 254.436 98.8464 254.436 98.6868 254.436Z" fill="#CAD6F8"/>
<path d="M52.0552 285.94V260.986L96.4855 235.266V223.126C100.248 222.839 103.019 221.05 103.019 218.811C103.019 216.352 99.6388 214.432 95.3394 214.432C93.7773 214.432 92.278 214.689 91.069 215.135L62.0468 198.045C62.9705 197.308 63.5122 196.45 63.5122 195.456C63.5122 192.998 60.1317 191.078 55.8323 191.078C51.528 191.078 48.1523 192.993 48.1523 195.456C48.1523 197.885 51.5329 199.834 55.8323 199.834C57.554 199.834 59.1693 199.572 60.4412 199.029L89.3811 215.994C88.2978 216.76 87.6594 217.72 87.6594 218.806C87.6594 221.172 90.8127 223.058 94.8944 223.15V234.335L50.4641 260.055V286.833L181.811 363.203L182.609 361.831L52.0552 285.94ZM55.8323 198.234C52.2631 198.234 49.7435 196.765 49.7435 195.456C49.7435 194.113 52.2631 192.678 55.8323 192.678C59.4352 192.678 61.9211 194.118 61.9211 195.456C61.9211 196.062 61.4133 196.668 60.5186 197.182C60.0059 197.468 59.3385 197.725 58.5744 197.919C57.7716 198.108 56.8479 198.234 55.8323 198.234ZM89.2506 218.806C89.2506 218.137 89.8889 217.463 90.9723 216.92C91.5139 216.634 92.1861 216.411 92.9793 216.28C93.6805 216.12 94.4785 216.023 95.3394 216.023C98.9423 216.023 101.428 217.492 101.428 218.801C101.428 219.984 99.4501 221.259 96.4855 221.516C96.1035 221.55 95.7214 221.579 95.3394 221.579C95.1798 221.579 95.054 221.579 94.8944 221.545C91.5478 221.458 89.2506 220.052 89.2506 218.806Z" fill="#CAD6F8"/>
<path d="M142.544 222.098C143.502 221.361 144.043 220.469 144.043 219.48C144.043 217.051 140.668 215.102 136.364 215.102C132.059 215.102 128.684 217.051 128.684 219.48C128.684 221.938 132.059 223.887 136.364 223.887C138.114 223.887 139.71 223.567 140.953 223.024L192.971 252.676L193.769 251.304L142.544 222.098ZM139.101 221.972C138.303 222.166 137.379 222.292 136.359 222.292C132.79 222.292 130.27 220.823 130.27 219.48C130.27 218.171 132.79 216.702 136.359 216.702C139.962 216.702 142.447 218.171 142.447 219.48C142.447 220.086 141.94 220.726 141.016 221.235C140.503 221.555 139.865 221.778 139.101 221.972Z" fill="#CAD6F8"/>
<path d="M542.645 291.982C540.701 291.982 538.916 292.365 537.576 293.068L498.596 270.542V251.978L511.253 244.628L510.455 243.256L497.005 251.052V271.468L536.082 294.057C535.347 294.726 534.965 295.526 534.965 296.355C534.965 298.59 537.707 300.35 541.436 300.67V306.58L451.332 359.524L452.13 360.896L543.032 307.501V300.694C547.142 300.597 550.329 298.745 550.329 296.35C550.325 293.897 546.949 291.982 542.645 291.982ZM543.027 299.104C542.901 299.138 542.771 299.138 542.645 299.138C542.229 299.138 541.818 299.104 541.436 299.075C538.505 298.789 536.561 297.509 536.561 296.36C536.561 295.88 536.909 295.371 537.547 294.891C537.992 294.571 538.568 294.284 539.298 294.091H539.332C540.256 293.771 541.373 293.581 542.645 293.581C546.214 293.581 548.734 295.051 548.734 296.36C548.734 297.601 546.402 299.041 543.027 299.104Z" fill="#CAD6F8"/>
<path d="M418.402 193.851C414.098 193.851 410.723 195.8 410.723 198.258C410.723 199.248 411.264 200.144 412.222 200.877L361.035 230.049L361.833 231.421L413.818 201.769C415.094 202.312 416.686 202.632 418.407 202.632C422.712 202.632 426.087 200.683 426.087 198.254C426.082 195.8 422.707 193.851 418.402 193.851ZM418.402 201.041C417.416 201.041 416.492 200.915 415.694 200.721C414.93 200.561 414.258 200.304 413.75 199.984C412.826 199.475 412.314 198.865 412.314 198.258C412.314 196.915 414.833 195.446 418.402 195.446C422.005 195.446 424.491 196.915 424.491 198.258C424.491 199.572 422.005 201.041 418.402 201.041Z" fill="#CAD6F8"/>
<path d="M466.047 246.301C461.743 246.301 458.367 244.376 458.367 241.918C458.367 239.46 461.743 237.535 466.047 237.535C470.351 237.535 473.727 239.46 473.727 241.918C473.727 244.376 470.351 246.301 466.047 246.301ZM466.047 239.135C462.463 239.135 459.963 240.599 459.963 241.918C459.963 243.236 462.463 244.701 466.047 244.701C469.631 244.701 472.131 243.236 472.131 241.918C472.131 240.604 469.631 239.135 466.047 239.135Z" fill="#CAD6F8"/>
<path d="M465.621 241.206L408.652 273.735L409.442 275.125L466.411 242.596L465.621 241.206Z" fill="#CAD6F8"/>
<path d="M530.057 264.69C525.753 264.69 522.377 266.639 522.377 269.097C522.377 270.086 522.919 270.949 523.877 271.686L472.656 300.893L473.454 302.265L525.473 272.612C526.715 273.155 528.307 273.475 530.062 273.475C534.366 273.475 537.742 271.526 537.742 269.097C537.737 266.639 534.357 264.69 530.057 264.69ZM530.057 271.88C529.037 271.88 528.113 271.754 527.315 271.56C526.551 271.366 525.879 271.114 525.371 270.823C524.476 270.314 523.969 269.703 523.969 269.097C523.969 267.754 526.454 266.285 530.057 266.285C533.626 266.285 536.146 267.754 536.146 269.097C536.141 270.411 533.626 271.88 530.057 271.88Z" fill="#CAD6F8"/>
<path d="M519.409 500.082C517.687 500.082 516.072 500.343 514.795 500.886L467.816 473.27V458.153L512.237 432.442V405.66L380.9 329.294L380.102 330.671L510.646 406.577V431.516L466.225 457.227V474.187L513.194 501.871C512.271 502.607 511.729 503.47 511.729 504.46C511.729 506.918 515.11 508.838 519.409 508.838C523.713 508.838 527.089 506.922 527.089 504.46C527.094 502.03 523.713 500.082 519.409 500.082ZM519.409 507.238C515.806 507.238 513.32 505.798 513.32 504.46C513.32 503.853 513.828 503.247 514.723 502.734C515.235 502.447 515.903 502.191 516.667 501.997C517.465 501.803 518.389 501.677 519.409 501.677C522.978 501.677 525.498 503.146 525.498 504.455C525.498 505.802 522.978 507.238 519.409 507.238Z" fill="#CAD6F8"/>
<path d="M506.988 455.957C505.203 455.957 503.578 456.277 502.302 456.883H502.268L418.92 411.701L418.156 413.073L500.643 457.809C499.782 458.512 499.303 459.375 499.303 460.335C499.303 462.793 502.684 464.713 506.983 464.713C511.287 464.713 514.663 462.798 514.663 460.335C514.663 457.872 511.292 455.957 506.988 455.957ZM506.988 463.113C503.385 463.113 500.899 461.644 500.899 460.335C500.899 459.758 501.388 459.176 502.239 458.672C502.756 458.367 503.419 458.066 504.183 457.906C505.01 457.683 505.938 457.557 506.988 457.557C510.557 457.557 513.077 459.026 513.077 460.335C513.077 461.644 510.562 463.113 506.988 463.113Z" fill="#CAD6F8"/>
<path d="M306.902 487.534L508.263 364.862L507.412 363.441L306.051 486.109L306.902 487.534Z" fill="#BFCBF2"/>
<path d="M366.247 265.204C356.589 259.614 344.687 259.633 335.049 265.253L157.791 368.595C147.456 374.621 147.481 389.593 157.835 395.585L300.61 478.589L285.168 498.743L328.839 498.734C344.31 498.729 359.515 494.661 372.926 486.928L533.817 393.229C545.608 386.364 545.594 369.288 533.793 362.437L366.247 265.204Z" fill="#C5D1F1"/>
<path d="M466.76 347.703L304.48 253.772V494.118L501.199 380.25C506.929 376.934 509.797 371.131 509.797 365.322V322.928L466.76 347.703Z" fill="#DCE4FB"/>
<path d="M134.364 332.334L132.154 322.933H64.7656V365.327C64.7656 371.135 67.6287 376.944 73.3644 380.265L270.083 494.123L270.087 253.782L134.364 332.334Z" fill="#DCE4FB"/>
<path d="M270.083 253.777L270.078 494.118C280.723 500.28 293.834 500.28 304.473 494.118V253.772C293.838 247.619 280.723 247.619 270.083 253.777Z" fill="#DCE4FB"/>
<path d="M96.6602 399.416V379.62L101.956 376.614V396.41L96.6602 399.416Z" fill="#2F3672"/>
<path d="M96.6619 379.62L89.7461 375.586L95.0417 372.58L101.958 376.614L96.6619 379.62Z" fill="#A1B7F6"/>
<path d="M89.7461 395.387V375.586L96.6619 379.62V399.416L89.7461 395.387Z" fill="#7E9BED"/>
<path d="M114.508 409.791V389.995L119.803 386.989V406.785L114.508 409.791Z" fill="#2F3672"/>
<path d="M114.51 389.995L107.594 385.966L112.889 382.956L119.805 386.989L114.51 389.995Z" fill="#A1B7F6"/>
<path d="M107.594 405.762V385.966L114.51 389.995V409.791L107.594 405.762Z" fill="#7E9BED"/>
<path d="M132.355 420.137V400.342L137.651 397.336V417.131L132.355 420.137Z" fill="#2F3672"/>
<path d="M132.354 400.342L125.434 396.308L130.734 393.302L137.65 397.336L132.354 400.342Z" fill="#A1B7F6"/>
<path d="M125.434 416.108V396.308L132.354 400.342V420.137L125.434 416.108Z" fill="#7E9BED"/>
<path d="M150.352 430.484V410.688L155.647 407.682V427.478L150.352 430.484Z" fill="#2F3672"/>
<path d="M150.35 410.688L143.43 406.654L148.725 403.648L155.646 407.682L150.35 410.688Z" fill="#A1B7F6"/>
<path d="M143.43 426.455V406.654L150.35 410.688V430.484L143.43 426.455Z" fill="#7E9BED"/>
<path d="M168.039 440.801V421.005L173.335 417.994V437.795L168.039 440.801Z" fill="#2F3672"/>
<path d="M168.041 421.005L161.125 416.971L166.421 413.965L173.336 417.994L168.041 421.005Z" fill="#A1B7F6"/>
<path d="M161.125 436.767V416.971L168.041 421.005V440.801L161.125 436.767Z" fill="#7E9BED"/>
<path d="M185.883 451.176V431.381L191.179 428.375V448.17L185.883 451.176Z" fill="#2F3672"/>
<path d="M185.885 431.381L178.969 427.347L184.264 424.341L191.18 428.375L185.885 431.381Z" fill="#A1B7F6"/>
<path d="M178.969 447.147V427.347L185.885 431.381V451.176L178.969 447.147Z" fill="#7E9BED"/>
<path d="M203.734 461.523V441.727L209.03 438.721V458.517L203.734 461.523Z" fill="#2F3672"/>
<path d="M203.733 441.727L196.812 437.693L202.113 434.687L209.029 438.721L203.733 441.727Z" fill="#A1B7F6"/>
<path d="M196.812 457.494V437.693L203.733 441.727V461.523L196.812 457.494Z" fill="#7E9BED"/>
<path d="M221.578 471.869V452.073L226.874 449.067V468.863L221.578 471.869Z" fill="#2F3672"/>
<path d="M221.577 452.073L214.656 448.04L219.952 445.034L226.873 449.067L221.577 452.073Z" fill="#A1B7F6"/>
<path d="M214.656 467.835V448.04L221.577 452.073V471.869L214.656 467.835Z" fill="#7E9BED"/>
<path d="M239.406 482.215V462.42L244.707 459.414V479.209L239.406 482.215Z" fill="#2F3672"/>
<path d="M239.408 462.42L232.492 458.386L237.788 455.38L244.708 459.414L239.408 462.42Z" fill="#A1B7F6"/>
<path d="M232.492 478.182V458.386L239.408 462.42V482.215L232.492 478.182Z" fill="#7E9BED"/>
<path d="M477.901 399.416V379.62L472.605 376.614V396.41L477.901 399.416Z" fill="#7E9BED"/>
<path d="M477.901 379.62L484.817 375.586L479.521 372.58L472.605 376.614L477.901 379.62Z" fill="#A1B7F6"/>
<path d="M484.818 395.387V375.586L477.902 379.62V399.416L484.818 395.387Z" fill="#2F3672"/>
<path d="M460.053 409.791V389.995L454.758 386.989V406.785L460.053 409.791Z" fill="#7E9BED"/>
<path d="M460.053 389.995L466.974 385.966L461.674 382.956L454.758 386.989L460.053 389.995Z" fill="#A1B7F6"/>
<path d="M466.975 405.762V385.966L460.055 389.995V409.791L466.975 405.762Z" fill="#2F3672"/>
<path d="M442.21 420.137V400.342L436.914 397.336V417.131L442.21 420.137Z" fill="#7E9BED"/>
<path d="M442.21 400.342L449.13 396.308L443.835 393.302L436.914 397.336L442.21 400.342Z" fill="#A1B7F6"/>
<path d="M449.132 416.108V396.308L442.211 400.342V420.137L449.132 416.108Z" fill="#2F3672"/>
<path d="M424.214 430.484V410.688L418.918 407.682V427.478L424.214 430.484Z" fill="#7E9BED"/>
<path d="M424.214 410.688L431.134 406.654L425.839 403.648L418.918 407.682L424.214 410.688Z" fill="#A1B7F6"/>
<path d="M431.135 426.455V406.654L424.215 410.688V430.484L431.135 426.455Z" fill="#2F3672"/>
<path d="M406.522 440.801V421.005L401.227 417.994V437.795L406.522 440.801Z" fill="#7E9BED"/>
<path d="M406.522 421.005L413.438 416.971L408.142 413.965L401.227 417.994L406.522 421.005Z" fill="#A1B7F6"/>
<path d="M413.439 436.767V416.971L406.523 421.005V440.801L413.439 436.767Z" fill="#2F3672"/>
<path d="M388.679 451.176V431.381L383.383 428.375V448.17L388.679 451.176Z" fill="#7E9BED"/>
<path d="M388.678 431.381L395.599 427.347L390.299 424.341L383.383 428.375L388.678 431.381Z" fill="#A1B7F6"/>
<path d="M395.6 447.147V427.347L388.68 431.381V451.176L395.6 447.147Z" fill="#2F3672"/>
<path d="M370.831 461.523V441.727L365.535 438.721V458.517L370.831 461.523Z" fill="#7E9BED"/>
<path d="M370.831 441.727L377.751 437.693L372.456 434.687L365.535 438.721L370.831 441.727Z" fill="#A1B7F6"/>
<path d="M377.753 457.494V437.693L370.832 441.727V461.523L377.753 457.494Z" fill="#2F3672"/>
<path d="M352.992 471.869V452.073L347.691 449.067V468.863L352.992 471.869Z" fill="#7E9BED"/>
<path d="M352.992 452.073L359.908 448.04L354.612 445.034L347.691 449.067L352.992 452.073Z" fill="#A1B7F6"/>
<path d="M359.908 467.835V448.04L352.992 452.073V471.869L359.908 467.835Z" fill="#2F3672"/>
<path d="M335.155 482.215V462.42L329.859 459.414V479.209L335.155 482.215Z" fill="#7E9BED"/>
<path d="M335.155 462.42L342.071 458.386L336.775 455.38L329.859 459.414L335.155 462.42Z" fill="#A1B7F6"/>
<path d="M342.072 478.182V458.386L335.156 462.42V482.215L342.072 478.182Z" fill="#2F3672"/>
<path d="M304.489 200.416L501.202 314.269C512.669 320.907 512.669 337.498 501.202 344.135L304.479 458.003C293.834 464.165 280.723 464.165 270.079 458.003L73.3656 344.145C61.899 337.507 61.899 320.916 73.3656 314.279L270.089 200.416C280.733 194.259 293.844 194.259 304.489 200.416Z" fill="white"/>
<path d="M304.489 194.137L501.202 307.991C512.669 314.628 512.669 331.219 501.202 337.856L304.479 451.724C293.834 457.887 280.723 457.887 270.079 451.724L73.3656 337.866C61.899 331.229 61.899 314.638 73.3656 308L270.089 194.137C280.733 187.98 293.844 187.98 304.489 194.137Z" fill="#EFF3FD"/>
<path d="M301.35 219.804L462.217 312.912C471.595 318.337 471.595 331.907 462.217 337.333L301.345 430.455C292.64 435.492 281.918 435.492 273.213 430.455L112.346 337.342C102.968 331.917 102.968 318.347 112.346 312.921L273.223 219.804C281.923 214.767 292.65 214.767 301.35 219.804Z" fill="#61D8F9"/>
<path d="M300.709 219.761L454.274 308.64C463.225 313.823 463.225 326.773 454.274 331.956L300.704 420.845C292.396 425.655 282.157 425.655 273.849 420.845L120.284 331.961C111.332 326.778 111.332 313.828 120.284 308.645L273.858 219.756C282.167 214.951 292.4 214.951 300.709 219.761Z" fill="#00BFF5"/>
<path d="M300.579 247.008C292.352 242.247 282.211 242.247 273.984 247.008V416.37C282.211 421.131 292.348 421.131 300.574 416.37L301.701 415.716V247.658L300.579 247.008Z" fill="#D7E0FA"/>
<path d="M169.069 307.734L167.361 300.466H115.266V316.805C115.266 321.295 117.481 325.784 121.915 328.354L273.99 416.37V247.008L169.069 307.734Z" fill="#CAD6F8"/>
<path d="M426.033 319.617L301.703 247.658V415.721L452.651 328.344C457.081 325.779 459.296 321.295 459.301 316.805V300.466L426.033 319.617Z" fill="#CAD6F8"/>
<path d="M300.58 205.759L452.65 293.775C461.515 298.905 461.515 311.734 452.65 316.863L300.575 404.885C292.348 409.646 282.212 409.646 273.981 404.885L121.91 316.868C113.046 311.738 113.046 298.91 121.91 293.78L273.985 205.759C282.217 200.998 292.353 200.998 300.58 205.759Z" fill="white"/>
<path d="M300.58 202.51L452.65 290.527C461.515 295.657 461.515 308.485 452.65 313.615L300.575 401.641C292.348 406.402 282.212 406.402 273.98 401.641L121.91 313.62C113.046 308.49 113.046 295.661 121.91 290.532L273.985 202.51C282.217 197.749 292.353 197.749 300.58 202.51Z" fill="#D7E0FA"/>
<path d="M299.774 207.805L431.619 284.117C439.304 288.563 439.304 299.685 431.619 304.136L299.769 380.454C292.636 384.585 283.848 384.585 276.715 380.454L144.865 304.141C137.18 299.695 137.18 288.573 144.865 284.122L276.72 207.805C283.848 203.674 292.641 203.674 299.774 207.805Z" fill="white"/>
<path d="M443.011 527.033C439.81 525.181 435.859 525.186 432.662 527.048L373.863 561.326C370.434 563.323 370.444 568.293 373.878 570.28L421.239 597.814L416.117 604.5L430.602 604.495C435.733 604.495 440.777 603.142 445.226 600.578L498.594 569.495C502.507 567.216 502.502 561.553 498.584 559.28L443.011 527.033Z" fill="#CAD6F8"/>
<path d="M456.733 552.919L426.115 535.164C419.789 531.504 411.993 531.504 405.667 535.164L389.896 543.658L388.586 538.073H348.527V563.27C348.527 566.722 350.23 570.174 353.639 572.147L404.729 601.751C411.055 605.412 418.851 605.412 425.177 601.751L477.2 572.264C480.605 570.29 482.312 566.843 482.312 563.391V538.189L456.733 552.919Z" fill="#E8EEFC"/>
<path d="M426.115 503.446L477.2 533.045C484.014 536.992 484.014 546.853 477.2 550.795L425.172 580.283C418.846 583.943 411.05 583.943 404.724 580.283L353.634 550.679C346.82 546.732 346.82 536.871 353.634 532.929L405.662 503.446C411.993 499.786 419.789 499.786 426.115 503.446Z" fill="white"/>
<path d="M426.115 499.718L477.2 529.317C484.014 533.263 484.014 543.125 477.2 547.067L425.172 576.554C418.846 580.215 411.05 580.215 404.724 576.554L353.634 546.95C346.82 543.004 346.82 533.142 353.634 529.201L405.662 499.718C411.993 496.053 419.789 496.053 426.115 499.718Z" fill="#E8EEFC"/>
<path d="M423.105 510.52L459.822 531.794C464.721 534.631 464.721 541.719 459.822 544.555L422.428 565.747C417.882 568.38 412.277 568.38 407.731 565.747L371.014 544.473C366.115 541.637 366.115 534.548 371.014 531.712L408.408 510.52C412.959 507.892 418.559 507.892 423.105 510.52Z" fill="#61D8F9"/>
<mask id="mask0_746_2894" style="mask-type:alpha" maskUnits="userSpaceOnUse" x="367" y="398" width="97" height="170">
<path d="M463.494 428.21C463.479 425.742 462.26 423.279 459.823 421.873L423.106 400.599C418.56 397.966 412.955 397.966 408.409 400.599L371.015 421.791C368.747 423.105 367.577 425.335 367.408 427.623H367.34V538.141H367.345C367.359 540.609 368.578 543.067 371.015 544.478L407.732 565.752C412.278 568.385 417.883 568.385 422.429 565.752L459.823 544.56C462.285 543.135 463.503 540.633 463.494 538.141H463.498L463.494 428.21Z" fill="url(#paint0_linear_746_2894)"/>
</mask>
<g mask="url(#mask0_746_2894)">
<path d="M463.498 428.21C463.484 425.742 462.26 423.279 459.823 421.873L423.106 400.599C418.56 397.966 412.955 397.966 408.409 400.599L371.015 421.791C368.747 423.105 367.577 425.335 367.408 427.623H367.34V538.141C367.354 540.609 368.578 543.067 371.015 544.478L407.732 565.752C412.278 568.385 417.883 568.385 422.429 565.752L459.823 544.56C462.285 543.135 463.503 540.633 463.494 538.141L463.498 428.21Z" fill="url(#paint1_linear_746_2894)"/>
</g>
<path d="M509.956 203.112C507.49 201.686 504.452 201.691 501.991 203.126L456.733 229.511C454.093 231.048 454.103 234.873 456.743 236.4L493.199 257.592L489.257 262.736H500.409C504.361 262.736 508.239 261.694 511.668 259.721L552.747 235.794C555.755 234.039 555.755 229.681 552.742 227.935L509.956 203.112Z" fill="#CAD6F8"/>
<path d="M522.671 224.386L499.907 211.184C495.201 208.459 489.408 208.459 484.702 211.184L472.974 217.502L471.997 213.347H442.211V232.085C442.211 234.655 443.478 237.22 446.012 238.689L484.001 260.7C488.706 263.425 494.5 263.425 499.206 260.7L537.891 238.776C540.425 237.312 541.692 234.742 541.692 232.177V213.439L522.671 224.386Z" fill="#E8EEFC"/>
<path d="M499.903 187.602L537.887 209.613C542.955 212.546 542.955 219.877 537.887 222.815L499.202 244.739C494.496 247.464 488.702 247.464 483.997 244.739L446.008 222.728C440.94 219.795 440.94 212.464 446.008 209.526L484.693 187.602C489.404 184.877 495.202 184.877 499.903 187.602Z" fill="white"/>
<path d="M499.903 184.829L537.887 206.84C542.955 209.773 542.955 217.104 537.887 220.037L499.202 241.961C494.496 244.686 488.702 244.686 483.997 241.961L446.008 219.95C440.94 217.017 440.94 209.681 446.008 206.748L484.693 184.824C489.404 182.104 495.202 182.104 499.903 184.829Z" fill="#E8EEFC"/>
<path d="M497.668 192.862L524.968 208.682C528.61 210.791 528.61 216.062 524.968 218.171L497.165 233.928C493.784 235.886 489.62 235.886 486.235 233.928L458.934 218.108C455.293 215.999 455.293 210.728 458.934 208.619L486.738 192.862C490.118 190.904 494.287 190.904 497.668 192.862Z" fill="#61D8F9"/>
<mask id="mask1_746_2894" style="mask-type:alpha" maskUnits="userSpaceOnUse" x="456" y="109" width="72" height="127">
<path d="M527.696 131.657C527.686 129.824 526.777 127.992 524.968 126.944L497.668 111.124C494.287 109.166 490.123 109.166 486.738 111.124L458.935 126.881C457.247 127.856 456.376 129.514 456.255 131.221H456.207V213.395H456.212C456.222 215.228 457.131 217.06 458.94 218.108L486.24 233.928C489.62 235.886 493.784 235.886 497.17 233.928L524.973 218.171C526.806 217.109 527.711 215.252 527.701 213.395H527.706L527.696 131.657Z" fill="url(#paint2_linear_746_2894)"/>
</mask>
<g mask="url(#mask1_746_2894)">
<path d="M527.701 131.657C527.691 129.824 526.782 127.992 524.968 126.944L497.668 111.124C494.287 109.166 490.123 109.166 486.738 111.124L458.935 126.881C457.247 127.856 456.376 129.514 456.255 131.221H456.207V213.395C456.217 215.228 457.126 217.06 458.94 218.108L486.24 233.928C489.62 235.886 493.784 235.886 497.17 233.928L524.973 218.171C526.806 217.109 527.711 215.252 527.701 213.395V131.657Z" fill="url(#paint3_linear_746_2894)"/>
</g>
<path d="M59.6502 410.838C57.6432 409.675 55.1718 409.68 53.1697 410.848L16.3418 432.321C14.1945 433.572 14.1994 436.685 16.3515 437.931L46.0169 455.176L42.8105 459.365H51.8832C55.0993 459.365 58.2574 458.517 61.043 456.912L94.471 437.446C96.9229 436.021 96.9181 432.472 94.4661 431.051L59.6502 410.838Z" fill="#CAD6F8"/>
<path d="M66.972 427.439L48.0237 416.448C44.1063 414.184 39.2846 414.184 35.3673 416.448L25.6078 421.708L24.7953 418.251H0V433.848C0 435.987 1.0543 438.125 3.16289 439.342L34.7821 457.663C38.6994 459.928 43.5212 459.928 47.4385 457.663L79.6381 439.414C81.7467 438.193 82.801 436.059 82.801 433.921V418.324L66.972 427.439Z" fill="#E8EEFC"/>
<path d="M48.0237 396.817L79.6429 415.139C83.8601 417.582 83.8601 423.686 79.6429 426.125L47.4433 444.374C43.526 446.638 38.7043 446.638 34.7869 444.374L3.16289 426.052C-1.0543 423.609 -1.0543 417.505 3.16289 415.066L35.3673 396.817C39.2846 394.553 44.1063 394.553 48.0237 396.817Z" fill="white"/>
<path d="M48.0237 394.509L79.6429 412.831C83.8601 415.275 83.8601 421.379 79.6429 423.817L47.4433 442.066C43.526 444.335 38.7043 444.335 34.7869 442.066L3.16289 423.745C-1.0543 421.301 -1.0543 415.197 3.16289 412.758L35.3673 394.509C39.2846 392.24 44.1063 392.24 48.0237 394.509Z" fill="#E8EEFC"/>
<path d="M46.1619 401.195L68.8873 414.363C71.9196 416.118 71.9196 420.506 68.8873 422.261L45.7411 435.381C42.9264 437.01 39.4589 437.01 36.6442 435.381L13.9188 422.208C10.8865 420.453 10.8865 416.065 13.9188 414.31L37.0649 401.195C39.8796 399.566 43.3472 399.566 46.1619 401.195Z" fill="#61D8F9"/>
<mask id="mask2_746_2894" style="mask-type:alpha" maskUnits="userSpaceOnUse" x="11" y="269" width="61" height="168">
<path d="M71.16 287.361C71.1503 285.834 70.3959 284.311 68.887 283.439L46.1616 270.271C43.3469 268.642 39.8793 268.642 37.0646 270.271L13.9185 283.385C12.516 284.2 11.7905 285.577 11.6842 286.997H11.6406V418.29H11.6455C11.6551 419.817 12.4096 421.34 13.9185 422.212L36.6439 435.381C39.4586 437.01 42.9261 437.01 45.7408 435.381L68.887 422.261C70.4104 421.379 71.1648 419.832 71.1552 418.285H71.16V287.361Z" fill="url(#paint4_linear_746_2894)"/>
</mask>
<g mask="url(#mask2_746_2894)">
<path d="M71.16 287.361C71.1503 285.834 70.3959 284.311 68.887 283.439L46.1616 270.271C43.3469 268.642 39.8793 268.642 37.0646 270.271L13.9185 283.385C12.516 284.2 11.7905 285.577 11.6842 286.997H11.6406V418.29C11.6503 419.817 12.4047 421.34 13.9136 422.212L36.6391 435.381C39.4537 437.01 42.9213 437.01 45.736 435.381L68.8821 422.261C70.4055 421.379 71.16 419.832 71.1552 418.285L71.16 287.361Z" fill="url(#paint5_linear_746_2894)"/>
</g>
<path d="M341.725 251.648C333.987 251.648 328.527 248.531 328.527 245.622C328.527 242.781 333.987 239.595 341.725 239.595C343.936 239.595 345.938 239.872 347.664 240.289C349.323 240.706 350.774 241.258 351.881 241.884C353.816 242.994 354.923 244.308 354.923 245.627C354.923 248.531 349.531 251.648 341.725 251.648Z" fill="#61D8F9"/>
<path d="M361.409 269.592C353.671 269.592 348.211 266.474 348.211 263.565C348.211 260.724 353.671 257.539 361.409 257.539C363.619 257.539 365.621 257.815 367.348 258.232C369.007 258.649 370.458 259.202 371.565 259.827C373.499 260.938 374.607 262.252 374.607 263.57C374.602 266.474 369.215 269.592 361.409 269.592Z" fill="#61D8F9"/>
<path d="M322.042 233.705C314.304 233.705 308.844 230.587 308.844 227.678C308.844 224.837 314.304 221.652 322.042 221.652C324.252 221.652 326.254 221.928 327.986 222.345C329.644 222.762 331.095 223.315 332.203 223.94C334.137 225.05 335.245 226.364 335.245 227.683C335.24 230.587 329.852 233.705 322.042 233.705Z" fill="#61D8F9"/>
<path d="M389.382 253.544L390.843 247.328L435.418 251.954V292.418C435.418 296.258 433.523 300.102 429.731 302.299L425.668 304.645L421.055 307.308L416.426 310.003L407.76 315.011L403.141 317.698L398.523 320.378L389.856 325.387L384.599 328.364L380.614 330.739L371.948 335.752L366.899 338.643L363.426 340.683L354.039 346.113L349.479 348.726L344.792 351.466L336.116 356.479L331.942 358.861L326.874 361.831L318.208 366.845L314.184 369.194L308.961 372.197L299.617 377.608V201.589L389.382 253.544Z" fill="#CAD6F8"/>
<path d="M299.613 201.589V377.608C292.576 381.68 283.9 381.68 276.863 377.608V201.584C283.9 197.512 292.576 197.512 299.613 201.589Z" fill="#DCE4FB"/>
<path d="M169.523 263.711L276.858 201.584V377.608L267.514 372.197L262.891 369.466L258.267 366.845L249.606 361.831L244.828 359.092L240.364 356.484L231.702 351.461L226.324 348.334L222.45 346.118L213.789 341.1L209.175 338.408L204.542 335.747L195.875 330.734L191.252 328.028L186.628 325.382L177.962 320.373L173.343 317.741L168.725 315.011L160.058 310.003L155.43 307.285L150.816 304.65L146.754 302.299C142.962 300.102 141.066 296.267 141.066 292.428V253.495L169.523 263.711Z" fill="#CAD6F8"/>
<path d="M276.859 169.959L146.75 245.263C139.167 249.651 139.167 260.627 146.75 265.015L276.864 340.329C283.905 344.402 292.577 344.402 299.618 340.329L429.732 265.02C437.315 260.632 437.315 249.656 429.732 245.268L299.608 169.959C292.572 165.881 283.9 165.881 276.859 169.959Z" fill="white"/>
<path d="M276.859 166.938L146.75 242.243C139.167 246.63 139.167 257.607 146.75 261.995L276.864 337.309C283.905 341.381 292.577 341.381 299.618 337.309L429.732 261.999C437.315 257.612 437.315 246.635 429.732 242.247L299.608 166.938C292.572 162.861 283.9 162.861 276.859 166.938Z" fill="#E8EEFC"/>
<path d="M406.089 252.201L297.008 189.066C291.108 185.648 283.834 185.648 277.934 189.066L168.858 252.196C167.455 253.006 166.415 254.116 165.632 255.348C162.865 250.999 163.905 244.807 168.858 241.937L277.934 178.807C283.834 175.394 291.108 175.394 297.008 178.807L406.089 241.942C411.041 244.807 412.086 251.003 409.314 255.348C408.531 254.121 407.491 253.011 406.089 252.201Z" fill="#00BFF5"/>
<path d="M406.09 258.504L297.009 321.639C291.109 325.052 283.835 325.052 277.935 321.639L168.859 258.499C167.456 257.689 166.416 256.579 165.633 255.348C166.416 254.116 167.456 253.006 168.859 252.196L277.935 189.066C283.835 185.648 291.109 185.648 297.009 189.066L406.09 252.201C407.492 253.011 408.532 254.121 409.316 255.352C408.532 256.584 407.492 257.694 406.09 258.504Z" fill="#61D8F9"/>
<path d="M260.039 268.259L268.672 273.257V258.557L260.039 268.259Z" fill="#5757CE"/>
<path d="M293.118 222.553L217.504 243.644L230.968 251.435L247.735 246.441L264.71 256.264V241.554L289.312 234.417L289.448 234.49L289.312 234.645V257.074L303.211 240.381V219.737L293.118 222.553Z" fill="#2F3672"/>
<path d="M303.211 219.737V240.381L314.813 226.452L303.211 219.737Z" fill="#1E0068"/>
<path d="M264.711 241.554V256.264L268.672 258.557V273.257L273.498 276.06L277.106 271.725V248.739L264.711 241.554Z" fill="#1E0068"/>
<path d="M277.105 248.739V271.725L289.312 257.074V234.645L277.105 248.739Z" fill="#5757CE"/>
<path d="M284.953 282.425L298.993 290.551L349.226 261.5V245.253L284.953 282.425Z" fill="#2F3672"/>
<path d="M349.227 245.253V261.5L363.266 253.379L349.227 245.253Z" fill="#1E0068"/>
<mask id="mask3_746_2894" style="mask-type:alpha" maskUnits="userSpaceOnUse" x="165" y="0" width="245" height="321">
<path d="M409.298 0.5H165.727H165.258V247.362H165.727C165.727 250.543 167.294 253.719 170.433 255.537L278.097 317.852C283.924 321.222 291.101 321.222 296.924 317.852L404.588 255.532C407.722 253.719 409.294 250.538 409.294 247.362C409.294 247.362 409.294 247.362 409.294 247.358L409.298 0.5Z" fill="url(#paint6_linear_746_2894)"/>
</mask>
<g mask="url(#mask3_746_2894)">
<path d="M409.298 0.5H165.262V247.362H165.731C165.731 250.543 167.298 253.719 170.436 255.537L278.1 317.852C283.928 321.222 291.105 321.222 296.928 317.852L404.592 255.532C407.726 253.719 409.298 250.538 409.298 247.362V0.5Z" fill="url(#paint7_linear_746_2894)"/>
<path d="M254.649 63.4604C253.038 61.8459 250.432 61.8459 248.821 63.4604C247.211 65.0749 247.211 67.6882 248.821 69.3026C250.432 70.9171 253.038 70.9171 254.649 69.3026C256.259 67.6882 256.259 65.0749 254.649 63.4604Z" fill="url(#paint8_radial_746_2894)"/>
<path d="M346.348 40.7508C344.738 39.1363 342.131 39.1363 340.52 40.7508C338.91 42.3653 338.91 44.9786 340.52 46.5931C342.131 48.2075 344.738 48.2075 346.348 46.5931C347.958 44.9786 347.958 42.3653 346.348 40.7508Z" fill="url(#paint9_radial_746_2894)"/>
<path d="M195.196 179.452C193.585 177.837 190.978 177.837 189.368 179.452C187.758 181.066 187.758 183.68 189.368 185.294C190.978 186.909 193.585 186.909 195.196 185.294C196.801 183.68 196.801 181.066 195.196 179.452Z" fill="url(#paint10_radial_746_2894)"/>
<path d="M218.614 91.4062C217.003 89.7917 214.396 89.7917 212.786 91.4062C211.176 93.0207 211.176 95.6339 212.786 97.2484C214.396 98.8629 217.003 98.8629 218.614 97.2484C220.224 95.6388 220.224 93.0207 218.614 91.4062Z" fill="url(#paint11_radial_746_2894)"/>
<path d="M313.016 146.992C311.406 145.378 308.799 145.378 307.188 146.992C305.578 148.607 305.578 151.22 307.188 152.834C308.799 154.449 311.406 154.449 313.016 152.834C314.626 151.225 314.626 148.607 313.016 146.992Z" fill="url(#paint12_radial_746_2894)"/>
<path d="M387.407 119.968C385.796 118.353 383.189 118.353 381.579 119.968C379.968 121.582 379.968 124.195 381.579 125.81C383.189 127.424 385.796 127.424 387.407 125.81C389.017 124.195 389.017 121.582 387.407 119.968Z" fill="url(#paint13_radial_746_2894)"/>
<path d="M292.36 1.71208C290.749 0.0975821 288.143 0.0975821 286.532 1.71208C284.922 3.32657 284.922 5.93982 286.532 7.55431C288.143 9.16881 290.749 9.16881 292.36 7.55431C293.97 5.93982 293.97 3.32172 292.36 1.71208Z" fill="url(#paint14_radial_746_2894)"/>
</g>
</g>
<defs>
<linearGradient id="paint0_linear_746_2894" x1="415.419" y1="398.621" x2="415.419" y2="567.722" gradientUnits="userSpaceOnUse">
<stop/>
<stop offset="0.2147"/>
<stop offset="1" stop-color="#808080"/>
</linearGradient>
<linearGradient id="paint1_linear_746_2894" x1="415.419" y1="398.621" x2="415.419" y2="567.722" gradientUnits="userSpaceOnUse">
<stop stop-color="#2ACAF7" stop-opacity="0"/>
<stop offset="0.2147" stop-color="#2ACAF7" stop-opacity="0"/>
<stop offset="1" stop-color="#2ACAF7" stop-opacity="0.4"/>
</linearGradient>
<linearGradient id="paint2_linear_746_2894" x1="491.951" y1="109.657" x2="491.951" y2="235.394" gradientUnits="userSpaceOnUse">
<stop/>
<stop offset="0.2147"/>
<stop offset="1" stop-color="#808080"/>
</linearGradient>
<linearGradient id="paint3_linear_746_2894" x1="491.951" y1="109.657" x2="491.951" y2="235.394" gradientUnits="userSpaceOnUse">
<stop stop-color="#2ACAF7" stop-opacity="0"/>
<stop offset="0.2147" stop-color="#2ACAF7" stop-opacity="0"/>
<stop offset="1" stop-color="#2ACAF7" stop-opacity="0.4"/>
</linearGradient>
<linearGradient id="paint4_linear_746_2894" x1="41.4029" y1="269.047" x2="41.4029" y2="436.6" gradientUnits="userSpaceOnUse">
<stop/>
<stop offset="0.2147"/>
<stop offset="1" stop-color="#808080"/>
</linearGradient>
<linearGradient id="paint5_linear_746_2894" x1="41.4029" y1="269.047" x2="41.4029" y2="436.6" gradientUnits="userSpaceOnUse">
<stop stop-color="#2ACAF7" stop-opacity="0"/>
<stop offset="0.2147" stop-color="#2ACAF7" stop-opacity="0"/>
<stop offset="1" stop-color="#2ACAF7" stop-opacity="0.4"/>
</linearGradient>
<linearGradient id="paint6_linear_746_2894" x1="287.28" y1="0.500124" x2="287.28" y2="320.38" gradientUnits="userSpaceOnUse">
<stop/>
<stop offset="0.2147"/>
<stop offset="1" stop-color="#808080"/>
</linearGradient>
<linearGradient id="paint7_linear_746_2894" x1="287.28" y1="0.500124" x2="287.28" y2="320.38" gradientUnits="userSpaceOnUse">
<stop stop-color="#2ACAF7" stop-opacity="0"/>
<stop offset="0.2147" stop-color="#2ACAF7" stop-opacity="0"/>
<stop offset="1" stop-color="#2ACAF7" stop-opacity="0.6"/>
</linearGradient>
<radialGradient id="paint8_radial_746_2894" cx="0" cy="0" r="1" gradientUnits="userSpaceOnUse" gradientTransform="translate(251.735 66.3815) rotate(90) scale(4.13198 4.12167)">
<stop stop-color="#38C5EA" stop-opacity="0.6"/>
<stop offset="0.46875" stop-color="#38C5EA" stop-opacity="0.89375"/>
<stop offset="1" stop-color="#38C5EA" stop-opacity="0.48"/>
</radialGradient>
<radialGradient id="paint9_radial_746_2894" cx="0" cy="0" r="1" gradientUnits="userSpaceOnUse" gradientTransform="translate(343.434 43.6719) rotate(90) scale(4.13199 4.12169)">
<stop stop-color="#38C5EA" stop-opacity="0.6"/>
<stop offset="0.46875" stop-color="#38C5EA" stop-opacity="0.89375"/>
<stop offset="1" stop-color="#38C5EA" stop-opacity="0.48"/>
</radialGradient>
<radialGradient id="paint10_radial_746_2894" cx="0" cy="0" r="1" gradientUnits="userSpaceOnUse" gradientTransform="translate(192.28 182.373) rotate(90) scale(4.13199 4.11984)">
<stop stop-color="#38C5EA" stop-opacity="0.6"/>
<stop offset="0.46875" stop-color="#38C5EA" stop-opacity="0.89375"/>
<stop offset="1" stop-color="#38C5EA" stop-opacity="0.48"/>
</radialGradient>
<radialGradient id="paint11_radial_746_2894" cx="0" cy="0" r="1" gradientUnits="userSpaceOnUse" gradientTransform="translate(215.7 94.3273) rotate(90) scale(4.13197 4.12166)">
<stop stop-color="#38C5EA" stop-opacity="0.6"/>
<stop offset="0.46875" stop-color="#38C5EA" stop-opacity="0.89375"/>
<stop offset="1" stop-color="#38C5EA" stop-opacity="0.48"/>
</radialGradient>
<radialGradient id="paint12_radial_746_2894" cx="0" cy="0" r="1" gradientUnits="userSpaceOnUse" gradientTransform="translate(310.102 149.913) rotate(90) scale(4.13199 4.12167)">
<stop stop-color="#38C5EA" stop-opacity="0.6"/>
<stop offset="0.46875" stop-color="#38C5EA" stop-opacity="0.89375"/>
<stop offset="1" stop-color="#38C5EA" stop-opacity="0.48"/>
</radialGradient>
<radialGradient id="paint13_radial_746_2894" cx="0" cy="0" r="1" gradientUnits="userSpaceOnUse" gradientTransform="translate(384.493 122.889) rotate(90) scale(4.13198 4.12166)">
<stop stop-color="#38C5EA" stop-opacity="0.6"/>
<stop offset="0.46875" stop-color="#38C5EA" stop-opacity="0.89375"/>
<stop offset="1" stop-color="#38C5EA" stop-opacity="0.48"/>
</radialGradient>
<radialGradient id="paint14_radial_746_2894" cx="0" cy="0" r="1" gradientUnits="userSpaceOnUse" gradientTransform="translate(289.446 4.63319) rotate(90) scale(4.13199 4.12167)">
<stop stop-color="#38C5EA" stop-opacity="0.6"/>
<stop offset="0.46875" stop-color="#38C5EA" stop-opacity="0.89375"/>
<stop offset="1" stop-color="#38C5EA" stop-opacity="0.48"/>
</radialGradient>
<clipPath id="clip0_746_2894">
<rect width="555" height="604" fill="white" transform="translate(0 0.5)"/>
</clipPath>
</defs>
</svg>
