<svg width="140" height="140" viewBox="0 0 140 140" fill="none" xmlns="http://www.w3.org/2000/svg">
<rect width="140" height="140" fill="white"/>
<g clip-path="url(#clip0_775_1734)">
<path d="M115.004 94.7555L53.75 131V103.924L115.004 67.6793V94.7555Z" fill="#BAC6EA"/>
<path d="M30.8672 90.3727L92.1194 54.1289L115 67.6675L53.7473 103.911L30.8672 90.3727Z" fill="#EFF3FD"/>
<path d="M53.747 131L30.8672 117.462V90.3855L53.747 103.924V131Z" fill="#D7E0FA"/>
<path d="M48.2377 123.95L36.3807 116.934C35.1046 116.18 34.0703 114.154 34.0703 112.41V99.2251C34.0703 97.4812 35.1046 96.6801 36.3807 97.4348L48.2377 104.451C49.5137 105.206 50.548 107.231 50.548 108.975V122.16C50.548 123.904 49.5137 124.705 48.2377 123.95Z" fill="#C5D0F1"/>
<g filter="url(#filter0_i_775_1734)">
<path d="M49.2737 109.727V119.903C49.2737 121.646 48.2364 122.447 46.961 121.699L41.7748 118.614L37.6597 116.174C37.5238 116.105 37.4047 116 37.2685 115.913C36.7074 115.442 36.2147 114.763 35.8913 113.979C35.5682 113.299 35.3814 112.55 35.3645 111.835C35.3477 111.783 35.3477 111.713 35.3477 111.661V101.484C35.3477 99.7413 36.3678 98.9391 37.6597 99.6884L43.7132 103.279L45.3626 104.272L46.9607 105.213C47.1138 105.3 47.2672 105.405 47.4028 105.527C48.4745 106.45 49.2737 108.193 49.2737 109.727Z" fill="#38C5EA"/>
</g>
<g filter="url(#filter1_i_775_1734)">
<path d="M44.48 111.978C44.48 113.397 43.5079 113.972 42.3085 113.262C41.1089 112.553 40.1367 110.827 40.1367 109.408C40.1367 107.988 41.1089 107.413 42.3085 108.123C43.5079 108.833 44.48 110.559 44.48 111.978Z" fill="white"/>
</g>
<g opacity="0.2">
<path opacity="0.2" d="M45.3613 104.272L35.89 113.978C35.567 113.299 35.3801 112.549 35.3633 111.835L43.7119 103.278L45.3613 104.272Z" fill="white"/>
<path opacity="0.2" d="M49.2708 109.726V110.928L41.7719 118.614L37.6568 116.174C37.5209 116.105 37.4019 116 37.2656 115.913L47.4002 105.526C48.4716 106.45 49.2708 108.193 49.2708 109.726Z" fill="white"/>
</g>
<path d="M106.947 80.1265C106.947 80.5695 106.715 80.9787 106.339 81.2002L89.4198 91.1563C88.6085 91.6336 87.5938 91.0374 87.5938 90.083V90.0829C87.5938 89.6402 87.8256 89.231 88.202 89.0096L105.121 79.0533C105.933 78.5758 106.947 79.1722 106.947 80.1265Z" fill="#0E314C"/>
<path d="M106.947 86.3462C106.947 86.7891 106.715 87.1983 106.339 87.4198L89.4198 97.3759C88.6085 97.8532 87.5938 97.257 87.5938 96.3026V96.3025C87.5938 95.8598 87.8256 95.4506 88.202 95.2292L105.121 85.2729C105.933 84.7954 106.947 85.3918 106.947 86.3462Z" fill="#0E314C"/>
<path d="M106.947 92.5658C106.947 93.0087 106.715 93.4179 106.339 93.6394L89.4198 103.595C88.6085 104.073 87.5938 103.477 87.5938 102.522V102.522C87.5938 102.079 87.8256 101.67 88.202 101.449L105.121 91.4925C105.933 91.015 106.947 91.6114 106.947 92.5658Z" fill="#0E314C"/>
<path d="M114.998 64.5171L47.8789 104.232V107.382L114.998 67.6674V64.5171Z" fill="#BAC6EA"/>
<path d="M25 90.6918L92.1179 50.9778L114.998 64.5161L47.8804 104.231L25 90.6918Z" fill="#EFF3FD"/>
<path d="M47.8804 104.232L25 90.6938V93.8442L47.8804 107.382V104.232Z" fill="#D7E0FA"/>
<path d="M97.4898 67.4906V69.4812C97.4898 71.4539 96.1996 73.4479 93.6402 74.9658C88.5215 78.0006 80.2297 78.0006 75.0902 74.9658C72.5308 73.4479 71.2617 71.4539 71.2617 69.4812V67.4906H97.4898Z" fill="#D7E0FA"/>
<path d="M93.6449 72.9836C88.5236 76.0139 80.2202 76.0136 75.0989 72.9833C69.9775 69.9529 69.9775 65.0397 75.0985 62.0097C80.2199 58.9794 88.5233 58.9794 93.6446 62.0097C98.766 65.0404 98.7663 69.9533 93.6449 72.9836Z" fill="white"/>
<path d="M94.9169 58.5608V66.3851C94.9169 67.9708 93.8796 69.5741 91.8222 70.7945C87.7071 73.2338 81.0415 73.2338 76.9099 70.7945C74.8525 69.5744 73.832 67.9711 73.832 66.3851V58.5608H94.9169Z" fill="#D7E0FA"/>
<path d="M91.8251 62.9769C87.7083 65.4128 81.0331 65.4128 76.916 62.9765C72.7989 60.5406 72.7989 56.5908 76.9157 54.1545C81.0328 51.7186 87.7079 51.7186 91.8247 54.1549C95.9422 56.5908 95.9422 60.5406 91.8251 62.9769Z" fill="#F0F1FF"/>
<path d="M90.6649 20.8145V58.6477C90.6649 59.5888 90.0525 60.5471 88.8115 61.2795C86.3629 62.7255 82.384 62.7255 79.9186 61.2795C78.6944 60.5471 78.082 59.5888 78.082 58.6477V20.8145H90.6649Z" fill="#D7E0FA"/>
<path d="M90.6649 20.8145V31.8456C86.9581 33.5015 81.8225 33.5015 78.082 31.8456V20.8145H90.6649Z" fill="#C5D0F1"/>
<path d="M88.8214 23.4435C86.3636 24.8977 82.379 24.8977 79.9215 23.4432C77.4637 21.989 77.4637 19.6313 79.9212 18.1772C82.379 16.723 86.3636 16.723 88.8211 18.1772C91.2789 19.6313 91.2789 21.9893 88.8214 23.4435Z" fill="#EFF3FD"/>
<path d="M94.9169 15.2329V23.0575C94.9169 24.6432 93.8796 26.2461 91.8222 27.4665C87.7071 29.9061 81.0415 29.9061 76.9099 27.4665C74.8525 26.2465 73.832 24.6432 73.832 23.0575V15.2329H94.9169Z" fill="#BAC6EA"/>
<path d="M91.8251 19.6489C87.7083 22.0848 81.0331 22.0848 76.916 19.6489C72.7989 17.2126 72.7989 13.2629 76.9157 10.827C81.0328 8.39068 87.7079 8.39102 91.8247 10.827C95.9422 13.2632 95.9422 17.213 91.8251 19.6489Z" fill="#EFF3FD"/>
<g filter="url(#filter2_i_775_1734)">
<path d="M90.1466 18.6546C86.9576 20.5416 81.7873 20.5416 78.5987 18.6543C75.4098 16.7674 75.4098 13.7082 78.5987 11.8213C81.7873 9.93435 86.9576 9.93435 90.1462 11.8216C93.3352 13.7086 93.3355 16.7677 90.1466 18.6546Z" fill="#BAC6EA"/>
</g>
<path d="M89.2281 18.1107C86.5468 19.697 82.1999 19.697 79.5188 18.1104C76.8375 16.524 76.8375 13.9519 79.5188 12.3652C82.1999 10.7788 86.5471 10.7788 89.2281 12.3652C91.9092 13.9519 91.9092 16.524 89.2281 18.1107Z" fill="#EFF3FD"/>
</g>
<defs>
<filter id="filter0_i_775_1734" x="35.3477" y="99.4077" width="13.9258" height="22.5714" filterUnits="userSpaceOnUse" color-interpolation-filters="sRGB">
<feFlood flood-opacity="0" result="BackgroundImageFix"/>
<feBlend mode="normal" in="SourceGraphic" in2="BackgroundImageFix" result="shape"/>
<feColorMatrix in="SourceAlpha" type="matrix" values="0 0 0 0 0 0 0 0 0 0 0 0 0 0 0 0 0 0 127 0" result="hardAlpha"/>
<feOffset dx="1" dy="-1"/>
<feComposite in2="hardAlpha" operator="arithmetic" k2="-1" k3="1"/>
<feColorMatrix type="matrix" values="0 0 0 0 0 0 0 0 0 0 0 0 0 0 0 0 0 0 0.16 0"/>
<feBlend mode="normal" in2="shape" result="effect1_innerShadow_775_1734"/>
</filter>
<filter id="filter1_i_775_1734" x="40.1367" y="107.819" width="4.34375" height="5.74792" filterUnits="userSpaceOnUse" color-interpolation-filters="sRGB">
<feFlood flood-opacity="0" result="BackgroundImageFix"/>
<feBlend mode="normal" in="SourceGraphic" in2="BackgroundImageFix" result="shape"/>
<feColorMatrix in="SourceAlpha" type="matrix" values="0 0 0 0 0 0 0 0 0 0 0 0 0 0 0 0 0 0 127 0" result="hardAlpha"/>
<feOffset dx="1" dy="-1"/>
<feComposite in2="hardAlpha" operator="arithmetic" k2="-1" k3="1"/>
<feColorMatrix type="matrix" values="0 0 0 0 0.172222 0 0 0 0 0.563889 0 0 0 0 0.666667 0 0 0 1 0"/>
<feBlend mode="normal" in2="shape" result="effect1_innerShadow_775_1734"/>
</filter>
<filter id="filter2_i_775_1734" x="76.207" y="10.4061" width="16.332" height="13.6637" filterUnits="userSpaceOnUse" color-interpolation-filters="sRGB">
<feFlood flood-opacity="0" result="BackgroundImageFix"/>
<feBlend mode="normal" in="SourceGraphic" in2="BackgroundImageFix" result="shape"/>
<feColorMatrix in="SourceAlpha" type="matrix" values="0 0 0 0 0 0 0 0 0 0 0 0 0 0 0 0 0 0 127 0" result="hardAlpha"/>
<feOffset dy="4"/>
<feGaussianBlur stdDeviation="2"/>
<feComposite in2="hardAlpha" operator="arithmetic" k2="-1" k3="1"/>
<feColorMatrix type="matrix" values="0 0 0 0 0 0 0 0 0 0 0 0 0 0 0 0 0 0 0.25 0"/>
<feBlend mode="normal" in2="shape" result="effect1_innerShadow_775_1734"/>
</filter>
<clipPath id="clip0_775_1734">
<rect width="90" height="122" fill="white" transform="translate(25 9)"/>
</clipPath>
</defs>
</svg>
