<svg width="140" height="140" viewBox="0 0 140 140" fill="none" xmlns="http://www.w3.org/2000/svg">
<rect width="140" height="140" fill="white"/>
<g clip-path="url(#clip0_775_1568)">
<path d="M20.1914 89.8476L69.3392 118.421L118.219 90.6862L68.7086 61.8979L20.1914 89.8476Z" fill="url(#paint0_linear_775_1568)"/>
<path d="M20.1914 105.969L69.3392 134.547V118.421L20.1914 89.8477V105.969Z" fill="#EFF3FD"/>
<path d="M69.3398 134.615L118.461 106.671V90.4764L69.3398 118.421V134.615Z" fill="#C5D0F1"/>
<path d="M72.2578 129.595L97.9613 114.972V105.492L72.2578 120.114V129.595Z" fill="url(#paint1_linear_775_1568)"/>
<path d="M97.0734 114.082L72.2578 128.201V129.595L97.9613 114.972V105.492L97.0734 106V114.082Z" fill="#AEBADE"/>
<path d="M73.9023 122.032L75.3052 121.235V119.826L73.9023 120.622V122.032Z" fill="#0E314C"/>
<path d="M73.9023 124.086L75.3052 123.29V121.88L73.9023 122.677V124.086Z" fill="#0E314C"/>
<path d="M73.9023 126.146L75.3052 125.344V123.934L73.9023 124.731V126.146Z" fill="#0E314C"/>
<path d="M75.8984 120.911L77.2961 120.119V118.704L75.8984 119.501V120.911Z" fill="#0E314C"/>
<path d="M75.8984 122.97L77.2961 122.173V120.758L75.8984 121.56V122.97Z" fill="#0E314C"/>
<path d="M75.8984 125.025L77.2961 124.233V122.818L75.8984 123.615V125.025Z" fill="#0E314C"/>
<path d="M77.8906 119.799L79.2935 119.003V117.588L77.8906 118.384V119.799Z" fill="#0E314C"/>
<path d="M77.8906 121.854L79.2935 121.057V119.642L77.8906 120.439V121.854Z" fill="#0E314C"/>
<path d="M77.8906 123.908L79.2935 123.112V121.697L77.8906 122.493V123.908Z" fill="#0E314C"/>
<path d="M79.8828 118.678L81.2857 117.881V116.471L79.8828 117.268V118.678Z" fill="#0E314C"/>
<path d="M79.8828 120.732L81.2857 119.936V118.526L79.8828 119.323V120.732Z" fill="#0E314C"/>
<path d="M79.8828 122.792L81.2857 121.99V120.58L79.8828 121.377V122.792Z" fill="#0E314C"/>
<path d="M81.8203 117.577L83.2232 116.775V115.365L81.8203 116.162V117.577Z" fill="#0E314C"/>
<path d="M81.8203 121.686L83.2232 120.884V119.474L81.8203 120.271V121.686Z" fill="#0E314C"/>
<path d="M83.8203 118.51L85.2179 117.713V116.298L83.8203 117.1V118.51Z" fill="#0E314C"/>
<path d="M83.8203 120.57L85.2179 119.773V118.358L83.8203 119.155V120.57Z" fill="#0E314C"/>
<path d="M85.8164 115.339L87.2193 114.543V113.128L85.8164 113.924V115.339Z" fill="#0E314C"/>
<path d="M85.8164 119.448L87.2193 118.652V117.237L85.8164 118.033V119.448Z" fill="#0E314C"/>
<path d="M87.8125 116.272L89.2101 115.476V114.066L87.8125 114.862V116.272Z" fill="#0E314C"/>
<path d="M20.1914 70.5612L69.3392 99.1398L118.219 71.3945L68.7086 42.6167L20.1914 70.5612Z" fill="url(#paint2_linear_775_1568)"/>
<path d="M20.1914 86.6874L69.3392 115.261V99.1398L20.1914 70.5612V86.6874Z" fill="#EFF3FD"/>
<path d="M69.3398 115.324L118.461 87.3897V71.1901L69.3398 99.1398V115.324Z" fill="#C5D0F1"/>
<path d="M23.0938 85.613L41.8565 96.2834V86.8079L23.0938 76.1322V85.613Z" fill="#0E314C"/>
<path d="M25.1602 86.7817L26.584 87.594V78.1185L25.1602 77.3062V86.7817Z" fill="#38C5EA"/>
<path d="M25.1602 86.7817L26.584 87.5941V84.9055L25.1602 84.0984V86.7817Z" fill="url(#paint3_linear_775_1568)"/>
<path d="M25.1602 81.3154L26.584 82.1225V78.1185L25.1602 77.3062V81.3154Z" fill="url(#paint4_linear_775_1568)"/>
<path d="M27.5 88.1129L28.9239 88.9252V79.4444L27.5 78.6373V88.1129Z" fill="#38C5EA"/>
<path d="M27.5 81.3259L28.9239 82.133V79.4444L27.5 78.6373V81.3259Z" fill="url(#paint5_linear_775_1568)"/>
<path d="M27.5 88.1128L28.9239 88.9251V84.9159L27.5 84.1088V88.1128Z" fill="url(#paint6_linear_775_1568)"/>
<path d="M29.8281 89.4283L31.252 90.2354V80.7546L29.8281 79.9475V89.4283Z" fill="#38C5EA"/>
<path d="M29.8281 89.4283L31.252 90.2354V87.5468L29.8281 86.7345V89.4283Z" fill="url(#paint7_linear_775_1568)"/>
<path d="M29.8281 83.9515L31.252 84.7639V80.7546L29.8281 79.9475V83.9515Z" fill="url(#paint8_linear_775_1568)"/>
<path d="M32.1719 90.7544L33.5958 91.5614V82.0859L32.1719 81.2736V90.7544Z" fill="#38C5EA"/>
<path d="M32.1719 83.9621L33.5958 84.7745V82.0859L32.1719 81.2736V83.9621Z" fill="url(#paint9_linear_775_1568)"/>
<path d="M32.1719 90.7544L33.5958 91.5615V87.5575L32.1719 86.7504V90.7544Z" fill="url(#paint10_linear_775_1568)"/>
<path d="M34.4961 92.0698L35.9147 92.8769V83.3961L34.4961 82.589V92.0698Z" fill="#38C5EA"/>
<path d="M34.4961 92.0698L35.9147 92.8769V90.1883L34.4961 89.376V92.0698Z" fill="url(#paint11_linear_775_1568)"/>
<path d="M34.4961 86.593L35.9147 87.4001V83.3961L34.4961 82.589V86.593Z" fill="url(#paint12_linear_775_1568)"/>
<path d="M36.8398 93.3957L38.2637 94.2028V84.722L36.8398 83.9202V93.3957Z" fill="#38C5EA"/>
<path d="M36.8398 86.6035L38.2637 87.4106V84.722L36.8398 83.9202V86.6035Z" fill="url(#paint13_linear_775_1568)"/>
<path d="M36.8398 93.3958L38.2637 94.2029V90.1988L36.8398 89.3865V93.3958Z" fill="url(#paint14_linear_775_1568)"/>
<path d="M39.1641 94.706L40.588 95.5183V86.0376L39.1641 85.2252V94.706Z" fill="#38C5EA"/>
<path d="M39.1641 94.706L40.588 95.5184V92.8246L39.1641 92.0175V94.706Z" fill="url(#paint15_linear_775_1568)"/>
<path d="M39.1641 89.2345L40.588 90.0416V86.0376L39.1641 85.2252V89.2345Z" fill="url(#paint16_linear_775_1568)"/>
<path d="M23.987 76.6406L23.0938 76.1322V85.613L41.8565 96.2834V94.8894L23.987 84.722V76.6406Z" fill="#C4CFF3"/>
<path d="M20.1914 51.2747L69.3392 79.8533L118.219 52.108L68.7086 23.325L20.1914 51.2747Z" fill="url(#paint17_linear_775_1568)"/>
<path d="M20.1914 67.3957L69.3392 95.969V79.8533L20.1914 51.2747V67.3957Z" fill="#EFF3FD"/>
<path d="M69.3398 96.0424L118.461 68.1032V51.9036L69.3398 79.8533V96.0424Z" fill="#C5D0F1"/>
<path d="M72.2578 91.0216L97.9613 76.3995V66.9187L72.2578 81.546V91.0216Z" fill="url(#paint18_linear_775_1568)"/>
<path d="M97.0734 75.5138L72.2578 89.6222V91.0216L97.9613 76.3995V66.9187L97.0734 67.4271V75.5138Z" fill="#AEBADE"/>
<path d="M73.9023 83.3017L75.3052 82.5051V81.0901L73.9023 81.8867V83.3017Z" fill="#0E314C"/>
<path d="M73.9023 85.3563L75.3052 84.5597V83.1447L73.9023 83.9413V85.3563Z" fill="#0E314C"/>
<path d="M73.9023 87.4106L75.3052 86.614V85.199L73.9023 85.9956V87.4106Z" fill="#0E314C"/>
<path d="M75.8984 82.1802L77.2961 81.3836V79.9738L75.8984 80.7704V82.1802Z" fill="#0E314C"/>
<path d="M75.8984 84.2346L77.2961 83.438V82.0282L75.8984 82.8248V84.2346Z" fill="#0E314C"/>
<path d="M75.8984 86.2892L77.2961 85.4926V84.0828L75.8984 84.8794V86.2892Z" fill="#0E314C"/>
<path d="M77.8906 81.0587L79.2935 80.2621V78.8523L77.8906 79.6489V81.0587Z" fill="#0E314C"/>
<path d="M77.8906 83.1183L79.2935 82.3217V80.9066L77.8906 81.7032V83.1183Z" fill="#0E314C"/>
<path d="M77.8906 85.1781L79.2935 84.3762V82.9664L77.8906 83.763V85.1781Z" fill="#0E314C"/>
<path d="M79.8828 79.9424L81.2857 79.151V77.736L79.8828 78.5326V79.9424Z" fill="#0E314C"/>
<path d="M79.8828 81.9968L81.2857 81.2055V79.7904L79.8828 80.587V81.9968Z" fill="#0E314C"/>
<path d="M79.8828 84.0513L81.2857 83.2599V81.8448L79.8828 82.6415V84.0513Z" fill="#0E314C"/>
<path d="M81.8203 78.8418L83.2232 78.0452V76.6249L81.8203 77.4267V78.8418Z" fill="#0E314C"/>
<path d="M81.8203 82.9505L83.2232 82.1539V80.7389L81.8203 81.5355V82.9505Z" fill="#0E314C"/>
<path d="M83.8203 79.7746L85.2179 78.978V77.5682L83.8203 78.3649V79.7746Z" fill="#0E314C"/>
<path d="M83.8203 81.8291L85.2179 81.0325V79.6227L83.8203 80.4193V81.8291Z" fill="#0E314C"/>
<path d="M85.8164 76.604L87.2193 75.8074V74.3923L85.8164 75.1889V76.604Z" fill="#0E314C"/>
<path d="M85.8164 80.718L87.2193 79.9214V78.5011L85.8164 79.303V80.718Z" fill="#0E314C"/>
<path d="M87.8125 77.542L89.2101 76.7454V75.3356L87.8125 76.127V77.542Z" fill="#0E314C"/>
<path d="M20.1914 31.9881L69.3392 60.5615L118.219 32.8267L68.7086 4.03845L20.1914 31.9881Z" fill="url(#paint19_linear_775_1568)"/>
<path d="M20.1914 48.1091L69.3392 76.6878V60.5615L20.1914 31.9882V48.1091Z" fill="#EFF3FD"/>
<path d="M69.3398 76.7507L118.461 48.8114V32.6171L69.3398 60.5615V76.7507Z" fill="#C5D0F1"/>
<path d="M23.0938 46.9351L41.8565 57.6056V48.13L23.0938 37.4543V46.9351Z" fill="#0E314C"/>
<path d="M25.1602 48.1091L26.584 48.9214V39.4406L25.1602 38.6335V48.1091Z" fill="#38C5EA"/>
<path d="M25.1602 48.1091L26.584 48.9215V46.2329L25.1602 45.4205V48.1091Z" fill="url(#paint20_linear_775_1568)"/>
<path d="M25.1602 42.6428L26.584 43.4499V39.4406L25.1602 38.6335V42.6428Z" fill="url(#paint21_linear_775_1568)"/>
<path d="M27.5 49.4403L28.9239 50.2473V40.7666L27.5 39.9595V49.4403Z" fill="#38C5EA"/>
<path d="M27.5 42.648L28.9239 43.4551V40.7666L27.5 39.9595V42.648Z" fill="url(#paint22_linear_775_1568)"/>
<path d="M27.5 49.4403L28.9239 50.2474V46.2434L27.5 45.431V49.4403Z" fill="url(#paint23_linear_775_1568)"/>
<path d="M29.8281 50.7504L31.252 51.5628V42.082L29.8281 41.2697V50.7504Z" fill="#38C5EA"/>
<path d="M29.8281 50.7505L31.252 51.5628V48.869L29.8281 48.0619V50.7505Z" fill="url(#paint24_linear_775_1568)"/>
<path d="M29.8281 45.2789L31.252 46.086V42.082L29.8281 41.2697V45.2789Z" fill="url(#paint25_linear_775_1568)"/>
<path d="M32.1719 52.0817L33.5958 52.8888V43.4133L32.1719 42.601V52.0817Z" fill="#38C5EA"/>
<path d="M32.1719 45.2895L33.5958 46.0966V43.4133L32.1719 42.601V45.2895Z" fill="url(#paint26_linear_775_1568)"/>
<path d="M32.1719 52.0818L33.5958 52.8889V48.8796L32.1719 48.0725V52.0818Z" fill="url(#paint27_linear_775_1568)"/>
<path d="M34.4961 53.3919L35.9147 54.199V44.7182L34.4961 43.9111V53.3919Z" fill="#38C5EA"/>
<path d="M34.4961 53.3919L35.9147 54.199V51.5105L34.4961 50.7034V53.3919Z" fill="url(#paint28_linear_775_1568)"/>
<path d="M34.4961 47.9152L35.9147 48.7275V44.7182L34.4961 43.9111V47.9152Z" fill="url(#paint29_linear_775_1568)"/>
<path d="M36.8398 54.7178L38.2637 55.5302V46.0494L36.8398 45.2423V54.7178Z" fill="#38C5EA"/>
<path d="M36.8398 47.9309L38.2637 48.738V46.0494L36.8398 45.2423V47.9309Z" fill="url(#paint30_linear_775_1568)"/>
<path d="M36.8398 54.7179L38.2637 55.5303V51.521L36.8398 50.7139V54.7179Z" fill="url(#paint31_linear_775_1568)"/>
<path d="M39.1641 56.0334L40.588 56.8405V47.3597L39.1641 46.5526V56.0334Z" fill="#38C5EA"/>
<path d="M39.1641 56.0334L40.588 56.8405V54.1519L39.1641 53.3396V56.0334Z" fill="url(#paint32_linear_775_1568)"/>
<path d="M39.1641 50.5567L40.588 51.369V47.3597L39.1641 46.5526V50.5567Z" fill="url(#paint33_linear_775_1568)"/>
<path d="M23.987 37.968L23.0938 37.4543V46.9351L41.8565 57.6056V56.2115L23.987 46.0442V37.968Z" fill="#C4D0F4"/>
<path d="M31.707 28.4401L69.3323 50.3156L106.758 29.0795L68.8542 7.0415L31.707 28.4401Z" fill="url(#paint34_linear_775_1568)"/>
<path d="M31.707 31.7838L69.3323 53.6645V50.3156L31.707 28.4401V31.7838Z" fill="#EFF3FD"/>
<path d="M69.332 53.7169L106.942 32.3236V28.9222L69.332 50.3156V53.7169Z" fill="#C5D0F1"/>
</g>
<defs>
<linearGradient id="paint0_linear_775_1568" x1="20.1914" y1="90.1608" x2="118.219" y2="90.1608" gradientUnits="userSpaceOnUse">
<stop offset="8e-08" stop-color="#C8D6F9"/>
<stop offset="1" stop-color="#BAC1E8"/>
</linearGradient>
<linearGradient id="paint1_linear_775_1568" x1="72.2597" y1="117.543" x2="97.9631" y2="117.543" gradientUnits="userSpaceOnUse">
<stop offset="8e-08" stop-color="white"/>
<stop offset="1" stop-color="#BAC1E8"/>
</linearGradient>
<linearGradient id="paint2_linear_775_1568" x1="20.1914" y1="70.8772" x2="118.219" y2="70.8772" gradientUnits="userSpaceOnUse">
<stop offset="8e-08" stop-color="#C8D6F9"/>
<stop offset="1" stop-color="#BAC1E8"/>
</linearGradient>
<linearGradient id="paint3_linear_775_1568" x1="25.1603" y1="85.8458" x2="26.5836" y2="85.8458" gradientUnits="userSpaceOnUse">
<stop offset="8e-08" stop-color="#C8D6F9"/>
<stop offset="1" stop-color="#BAC1E8"/>
</linearGradient>
<linearGradient id="paint4_linear_775_1568" x1="25.1603" y1="79.7151" x2="26.5836" y2="79.7151" gradientUnits="userSpaceOnUse">
<stop offset="8e-08" stop-color="#D82C53"/>
<stop offset="1" stop-color="#FF5774"/>
</linearGradient>
<linearGradient id="paint5_linear_775_1568" x1="27.5006" y1="80.3845" x2="28.9234" y2="80.3845" gradientUnits="userSpaceOnUse">
<stop offset="8e-08" stop-color="#C8D6F9"/>
<stop offset="1" stop-color="#BAC1E8"/>
</linearGradient>
<linearGradient id="paint6_linear_775_1568" x1="27.5006" y1="86.5174" x2="28.9234" y2="86.5174" gradientUnits="userSpaceOnUse">
<stop offset="8e-08" stop-color="#D82C53"/>
<stop offset="1" stop-color="#FF5774"/>
</linearGradient>
<linearGradient id="paint7_linear_775_1568" x1="29.8265" y1="88.4856" x2="31.2499" y2="88.4856" gradientUnits="userSpaceOnUse">
<stop offset="8e-08" stop-color="#C8D6F9"/>
<stop offset="1" stop-color="#BAC1E8"/>
</linearGradient>
<linearGradient id="paint8_linear_775_1568" x1="29.8265" y1="82.3549" x2="31.2499" y2="82.3549" gradientUnits="userSpaceOnUse">
<stop offset="8e-08" stop-color="#D82C53"/>
<stop offset="1" stop-color="#FF5774"/>
</linearGradient>
<linearGradient id="paint9_linear_775_1568" x1="32.1707" y1="83.0245" x2="33.5936" y2="83.0245" gradientUnits="userSpaceOnUse">
<stop offset="8e-08" stop-color="#C8D6F9"/>
<stop offset="1" stop-color="#BAC1E8"/>
</linearGradient>
<linearGradient id="paint10_linear_775_1568" x1="32.1707" y1="89.1555" x2="33.5936" y2="89.1555" gradientUnits="userSpaceOnUse">
<stop offset="8e-08" stop-color="#D82C53"/>
<stop offset="1" stop-color="#FF5774"/>
</linearGradient>
<linearGradient id="paint11_linear_775_1568" x1="34.498" y1="91.1258" x2="35.9167" y2="91.1258" gradientUnits="userSpaceOnUse">
<stop offset="8e-08" stop-color="#C8D6F9"/>
<stop offset="1" stop-color="#BAC1E8"/>
</linearGradient>
<linearGradient id="paint12_linear_775_1568" x1="34.498" y1="84.9949" x2="35.9167" y2="84.9949" gradientUnits="userSpaceOnUse">
<stop offset="8e-08" stop-color="#D82C53"/>
<stop offset="1" stop-color="#FF5774"/>
</linearGradient>
<linearGradient id="paint13_linear_775_1568" x1="36.8422" y1="85.6646" x2="38.265" y2="85.6646" gradientUnits="userSpaceOnUse">
<stop offset="8e-08" stop-color="#C8D6F9"/>
<stop offset="1" stop-color="#BAC1E8"/>
</linearGradient>
<linearGradient id="paint14_linear_775_1568" x1="36.8422" y1="91.7953" x2="38.265" y2="91.7953" gradientUnits="userSpaceOnUse">
<stop offset="8e-08" stop-color="#D82C53"/>
<stop offset="1" stop-color="#FF5774"/>
</linearGradient>
<linearGradient id="paint15_linear_775_1568" x1="39.1649" y1="93.7658" x2="40.5882" y2="93.7658" gradientUnits="userSpaceOnUse">
<stop offset="8e-08" stop-color="#C8D6F9"/>
<stop offset="1" stop-color="#BAC1E8"/>
</linearGradient>
<linearGradient id="paint16_linear_775_1568" x1="39.1649" y1="87.6328" x2="40.5882" y2="87.6328" gradientUnits="userSpaceOnUse">
<stop offset="8e-08" stop-color="#D82C53"/>
<stop offset="1" stop-color="#FF5774"/>
</linearGradient>
<linearGradient id="paint17_linear_775_1568" x1="20.1914" y1="51.5891" x2="118.219" y2="51.5891" gradientUnits="userSpaceOnUse">
<stop offset="8e-08" stop-color="#C8D6F9"/>
<stop offset="1" stop-color="#BAC1E8"/>
</linearGradient>
<linearGradient id="paint18_linear_775_1568" x1="72.2597" y1="78.9694" x2="97.9631" y2="78.9694" gradientUnits="userSpaceOnUse">
<stop offset="8e-08" stop-color="white"/>
<stop offset="1" stop-color="#BAC1E8"/>
</linearGradient>
<linearGradient id="paint19_linear_775_1568" x1="20.1914" y1="32.3011" x2="118.219" y2="32.3011" gradientUnits="userSpaceOnUse">
<stop offset="8e-08" stop-color="#C8D6F9"/>
<stop offset="1" stop-color="#BAC1E8"/>
</linearGradient>
<linearGradient id="paint20_linear_775_1568" x1="25.1603" y1="47.1714" x2="26.5836" y2="47.1714" gradientUnits="userSpaceOnUse">
<stop offset="8e-08" stop-color="#C8D6F9"/>
<stop offset="1" stop-color="#BAC1E8"/>
</linearGradient>
<linearGradient id="paint21_linear_775_1568" x1="25.1603" y1="41.0404" x2="26.5836" y2="41.0404" gradientUnits="userSpaceOnUse">
<stop offset="8e-08" stop-color="#D82C53"/>
<stop offset="1" stop-color="#FF5774"/>
</linearGradient>
<linearGradient id="paint22_linear_775_1568" x1="27.5006" y1="41.7076" x2="28.9234" y2="41.7076" gradientUnits="userSpaceOnUse">
<stop offset="8e-08" stop-color="#C8D6F9"/>
<stop offset="1" stop-color="#BAC1E8"/>
</linearGradient>
<linearGradient id="paint23_linear_775_1568" x1="27.5006" y1="47.8406" x2="28.9234" y2="47.8406" gradientUnits="userSpaceOnUse">
<stop offset="8e-08" stop-color="#D82C53"/>
<stop offset="1" stop-color="#FF5774"/>
</linearGradient>
<linearGradient id="paint24_linear_775_1568" x1="29.8265" y1="49.8133" x2="31.2499" y2="49.8133" gradientUnits="userSpaceOnUse">
<stop offset="8e-08" stop-color="#C8D6F9"/>
<stop offset="1" stop-color="#BAC1E8"/>
</linearGradient>
<linearGradient id="paint25_linear_775_1568" x1="29.8265" y1="43.6779" x2="31.2499" y2="43.6779" gradientUnits="userSpaceOnUse">
<stop offset="8e-08" stop-color="#D82C53"/>
<stop offset="1" stop-color="#FF5774"/>
</linearGradient>
<linearGradient id="paint26_linear_775_1568" x1="32.1707" y1="44.3498" x2="33.5936" y2="44.3498" gradientUnits="userSpaceOnUse">
<stop offset="8e-08" stop-color="#C8D6F9"/>
<stop offset="1" stop-color="#BAC1E8"/>
</linearGradient>
<linearGradient id="paint27_linear_775_1568" x1="32.1707" y1="50.4808" x2="33.5936" y2="50.4808" gradientUnits="userSpaceOnUse">
<stop offset="8e-08" stop-color="#D82C53"/>
<stop offset="1" stop-color="#FF5774"/>
</linearGradient>
<linearGradient id="paint28_linear_775_1568" x1="34.498" y1="52.4512" x2="35.9167" y2="52.4512" gradientUnits="userSpaceOnUse">
<stop offset="8e-08" stop-color="#C8D6F9"/>
<stop offset="1" stop-color="#BAC1E8"/>
</linearGradient>
<linearGradient id="paint29_linear_775_1568" x1="34.498" y1="46.3202" x2="35.9167" y2="46.3202" gradientUnits="userSpaceOnUse">
<stop offset="8e-08" stop-color="#D82C53"/>
<stop offset="1" stop-color="#FF5774"/>
</linearGradient>
<linearGradient id="paint30_linear_775_1568" x1="36.8422" y1="46.9899" x2="38.265" y2="46.9899" gradientUnits="userSpaceOnUse">
<stop offset="8e-08" stop-color="#C8D6F9"/>
<stop offset="1" stop-color="#BAC1E8"/>
</linearGradient>
<linearGradient id="paint31_linear_775_1568" x1="36.8422" y1="53.1206" x2="38.265" y2="53.1206" gradientUnits="userSpaceOnUse">
<stop offset="8e-08" stop-color="#D82C53"/>
<stop offset="1" stop-color="#FF5774"/>
</linearGradient>
<linearGradient id="paint32_linear_775_1568" x1="39.1649" y1="55.0891" x2="40.5882" y2="55.0891" gradientUnits="userSpaceOnUse">
<stop offset="8e-08" stop-color="#C8D6F9"/>
<stop offset="1" stop-color="#BAC1E8"/>
</linearGradient>
<linearGradient id="paint33_linear_775_1568" x1="39.1649" y1="48.9604" x2="40.5882" y2="48.9604" gradientUnits="userSpaceOnUse">
<stop offset="8e-08" stop-color="#D82C53"/>
<stop offset="1" stop-color="#FF5774"/>
</linearGradient>
<linearGradient id="paint34_linear_775_1568" x1="31.7059" y1="28.6804" x2="106.759" y2="28.6804" gradientUnits="userSpaceOnUse">
<stop stop-color="#EFF3FD"/>
<stop offset="1" stop-color="#BDC6EC"/>
</linearGradient>
<clipPath id="clip0_775_1568">
<rect width="98.2692" height="130.577" fill="white" transform="translate(20.1914 4.03845)"/>
</clipPath>
</defs>
</svg>
