<svg width="444" height="569" viewBox="0 0 444 569" fill="none" xmlns="http://www.w3.org/2000/svg">
<g clip-path="url(#clip0_765_60)">
<path d="M234.777 385.162C228.232 381.385 220.165 381.398 213.634 385.197L93.4898 454.977C86.4833 459.044 86.504 469.159 93.5174 473.205L190.286 529.257L179.821 542.868L209.417 542.861C219.903 542.861 230.21 540.109 239.297 534.886L348.342 471.615C356.334 466.977 356.327 455.452 348.328 450.821L234.777 385.162Z" fill="#C5D0F1"/>
<path d="M195.603 425.044L197.677 426.159V536.84C183.746 544.877 166.578 544.877 152.641 536.84V424.026C166.185 417.118 182.348 417.4 195.603 425.044Z" fill="#3C3B95"/>
<path d="M230.335 443.685L233.229 431.423L321.454 439.612V452.403C321.454 459.979 317.707 467.555 310.197 471.884L197.68 536.833V426.159L230.335 443.685Z" fill="#1E0068"/>
<path d="M83.1392 463.998L150.572 425.044C151.248 424.659 151.957 424.377 152.646 424.026V536.833L38.0619 472.138C30.5594 467.81 26.8047 460.241 26.8047 452.672V439.901L83.1392 463.998Z" fill="#1E0068"/>
<path d="M150.574 352.065L38.0637 417.014C23.0517 425.671 23.0517 447.312 38.0637 455.968L152.641 520.663C166.571 528.7 183.74 528.7 197.677 520.663L310.194 455.713C325.206 447.057 325.206 425.416 310.194 416.76L195.61 352.065C181.673 344.028 164.504 344.028 150.574 352.065Z" fill="#7E9BED"/>
<path d="M150.574 347.262L38.0637 412.212C23.0517 420.868 23.0517 442.509 38.0637 451.165L152.641 515.86C166.571 523.897 183.74 523.897 197.677 515.86L310.194 450.91C325.206 442.254 325.206 420.613 310.194 411.957L195.61 347.262C181.673 339.225 164.504 339.225 150.574 347.262Z" fill="#3C3B95"/>
<path d="M193.493 363.012L195.36 364.017V498.128C182.794 505.374 167.32 505.374 154.754 498.128V362.09C166.969 355.863 181.54 356.118 193.493 363.012Z" fill="#DCE4FB"/>
<path d="M224.818 379.823L227.423 368.765L306.981 376.148V421.976C306.981 428.808 303.598 435.641 296.826 439.543L195.359 498.121V364.01L224.818 379.823Z" fill="#CAD6F8"/>
<path d="M41.2578 376.403V422.217C41.2578 429.036 44.6405 435.862 51.4059 439.777L154.76 498.128V362.09C154.127 362.428 153.493 362.655 152.893 363.026L92.0877 398.14L41.2578 376.403Z" fill="#CAD6F8"/>
<path d="M152.879 298.578L51.4189 357.15C37.8812 364.953 37.8812 384.467 51.4189 392.277L154.753 450.621C167.319 457.867 182.799 457.867 195.366 450.621L296.832 392.043C310.37 384.24 310.37 364.719 296.832 356.916L193.492 298.572C180.925 291.333 165.445 291.333 152.879 298.578Z" fill="white"/>
<path d="M152.879 292.867L51.4189 351.438C37.8812 359.241 37.8812 378.756 51.4189 386.566L154.753 444.91C167.319 452.156 182.799 452.156 195.366 444.91L296.832 386.332C310.37 378.529 310.37 359.008 296.832 351.204L193.492 292.86C180.925 285.622 165.445 285.622 152.879 292.867Z" fill="#E8EEFC"/>
<path d="M245.748 405.888C245.872 405.888 245.996 405.86 246.106 405.792L284.811 384.495C285.169 384.295 285.3 383.841 285.1 383.483C284.9 383.126 284.453 382.995 284.088 383.194L245.383 404.491C245.025 404.691 244.894 405.145 245.094 405.503C245.231 405.743 245.486 405.888 245.748 405.888Z" fill="#CAD6F8"/>
<path d="M174.958 439.433C181.4 439.433 187.834 437.857 193.573 434.699L226.842 416.388C227.2 416.189 227.331 415.735 227.132 415.377C226.939 415.019 226.484 414.888 226.119 415.088L192.85 433.398C181.813 439.467 168.096 439.467 157.053 433.398L138.024 423.159C137.666 422.96 137.211 423.104 137.018 423.462C136.826 423.82 136.956 424.274 137.322 424.467L156.343 434.706C162.089 437.857 168.524 439.433 174.958 439.433Z" fill="#CAD6F8"/>
<path d="M121.114 415.638C121.382 415.638 121.637 415.494 121.768 415.246C121.961 414.888 121.83 414.434 121.465 414.242L64.1453 383.394C63.7871 383.194 63.3324 383.332 63.1395 383.697C62.9466 384.054 63.0775 384.509 63.4426 384.701L120.762 415.549C120.873 415.611 120.997 415.638 121.114 415.638Z" fill="#CAD6F8"/>
<path d="M69.2989 351.652C69.4229 351.652 69.5469 351.624 69.6571 351.555L87.356 341.819C87.7142 341.619 87.8451 341.165 87.6453 340.807C87.4524 340.449 86.9977 340.319 86.6326 340.518L68.9337 350.262C68.5755 350.461 68.4446 350.915 68.6444 351.273C68.7822 351.514 69.0371 351.652 69.2989 351.652Z" fill="#CAD6F8"/>
<path d="M96.6692 336.348C96.7932 336.348 96.9172 336.321 97.0274 336.259L155.381 304.386C155.739 304.187 155.87 303.732 155.677 303.375C155.477 303.01 155.015 302.886 154.664 303.079L96.311 334.952C95.9527 335.151 95.8218 335.605 96.0147 335.963C96.1525 336.211 96.4074 336.348 96.6692 336.348Z" fill="#CAD6F8"/>
<path d="M208.685 313.703C208.953 313.703 209.208 313.558 209.339 313.311C209.532 312.953 209.401 312.499 209.036 312.306L191.895 303.079C185.716 299.679 178.654 298.035 171.537 298.372C171.124 298.393 170.807 298.737 170.821 299.15C170.841 299.549 171.172 299.865 171.565 299.865C178.468 299.542 185.226 301.124 191.179 304.393L208.327 313.62C208.444 313.675 208.568 313.703 208.685 313.703Z" fill="#CAD6F8"/>
<path d="M265.098 344.069C265.367 344.069 265.622 343.924 265.753 343.677C265.946 343.319 265.815 342.865 265.45 342.672L222.708 319.669C222.35 319.469 221.895 319.614 221.702 319.971C221.509 320.329 221.64 320.783 222.005 320.976L264.747 343.979C264.857 344.041 264.981 344.069 265.098 344.069Z" fill="#CAD6F8"/>
<path d="M46.2249 35.4419V120.718C19.5148 136.084 3.38672 156.135 3.38672 178.065V92.8433C3.38672 70.9135 19.5148 50.8622 46.2249 35.4419Z" fill="url(#paint0_linear_765_60)"/>
<path d="M22.2173 35.6276C22.3895 35.6276 22.5548 35.5726 22.6926 35.4556C27.8321 31.2031 33.7501 27.1296 40.2812 23.3588C40.6395 23.1523 40.7566 22.6982 40.5568 22.3404C40.3501 21.9826 39.8885 21.8656 39.5372 22.0651C32.9371 25.8772 26.9503 29.9921 21.7488 34.3064C21.4319 34.5679 21.3905 35.0427 21.6523 35.3524C21.7901 35.5381 22.0037 35.6276 22.2173 35.6276Z" fill="#CAD6F8"/>
<path d="M9.10552 48.908C9.32598 48.908 9.54644 48.8117 9.69112 48.6259C11.2757 46.6029 13.0531 44.5661 14.9684 42.5844C15.2508 42.2885 15.2508 41.8137 14.9477 41.5316C14.6446 41.2495 14.1761 41.2495 13.8936 41.5522C11.9439 43.5752 10.132 45.6464 8.51303 47.7107C8.25812 48.0341 8.32013 48.5021 8.64393 48.7567C8.78172 48.853 8.94017 48.908 9.10552 48.908Z" fill="#61D8F9"/>
<path d="M9.10552 38.1735C9.32598 38.1735 9.54644 38.0772 9.69112 37.8914C16.9112 28.6846 27.2039 20.1797 40.2731 12.6312C40.6313 12.4248 40.7485 11.9706 40.5487 11.6128C40.342 11.255 39.8804 11.138 39.529 11.3376C26.2945 18.9824 15.8571 27.6043 8.51303 36.9694C8.25812 37.2928 8.32013 37.7607 8.64393 38.0153C8.78172 38.1185 8.94017 38.1735 9.10552 38.1735Z" fill="#61D8F9"/>
<path d="M31.7984 7.03013C31.9431 7.03013 32.0877 6.98884 32.2118 6.89939C34.7402 5.20666 37.4477 3.52081 40.2723 1.89001C40.6306 1.68358 40.7477 1.22943 40.5479 0.87162C40.3412 0.513808 39.8796 0.39683 39.5283 0.59638C36.6761 2.24094 33.941 3.94743 31.385 5.66769C31.0406 5.89476 30.951 6.35579 31.1852 6.69984C31.323 6.91315 31.5642 7.03013 31.7984 7.03013Z" fill="#61D8F9"/>
<path d="M9.10552 27.4391C9.32598 27.4391 9.54644 27.3427 9.69112 27.1569C13.7834 21.9411 18.9367 16.8836 25.0062 12.1288C25.33 11.8742 25.3851 11.4063 25.1302 11.0829C24.8822 10.7595 24.4137 10.6976 24.083 10.959C17.917 15.7826 12.6811 20.9228 8.51303 26.2418C8.25812 26.5652 8.32013 27.0331 8.64393 27.2877C8.78172 27.384 8.94017 27.4391 9.10552 27.4391Z" fill="#CAD6F8"/>
<path opacity="0.53" d="M67.7852 25.5881V110.823C96.2176 100.192 131.298 93.7445 169.376 93.2422V8.00708C131.298 8.50251 96.2176 14.9569 67.7852 25.5881Z" fill="url(#paint1_linear_765_60)"/>
<path d="M356.758 130.152V215.373C356.758 188.125 331.825 163.793 292.707 147.63V62.3535C331.825 78.517 356.758 102.848 356.758 130.152Z" fill="url(#paint2_linear_765_60)"/>
<path d="M322.553 18.0123C322.794 18.0123 323.029 17.8953 323.173 17.682C323.401 17.3448 323.311 16.8769 322.967 16.6498C321.182 15.4594 319.35 14.2965 317.524 13.1956C317.173 12.9823 316.711 13.0923 316.498 13.4502C316.284 13.8011 316.401 14.2621 316.752 14.4686C318.557 15.5557 320.369 16.7049 322.14 17.8884C322.264 17.971 322.409 18.0123 322.553 18.0123Z" fill="#CAD6F8"/>
<path d="M311.923 11.5716C312.185 11.5716 312.44 11.434 312.578 11.1862C312.777 10.8284 312.646 10.3743 312.288 10.1747C306.549 7.00946 300.308 4.02998 293.742 1.31887C293.363 1.16748 292.922 1.34639 292.764 1.72485C292.605 2.1033 292.791 2.54369 293.17 2.70195C299.681 5.39243 305.874 8.34438 311.565 11.4821C311.682 11.5441 311.799 11.5716 311.923 11.5716Z" fill="#61D8F9"/>
<path d="M322.554 27.9553C322.795 27.9553 323.03 27.8383 323.174 27.625C323.402 27.2809 323.312 26.8199 322.968 26.5928C314.501 20.9366 304.669 15.7759 293.743 11.2619C293.364 11.1105 292.923 11.2826 292.765 11.6679C292.606 12.0464 292.785 12.4867 293.171 12.645C304.008 17.1245 313.757 22.2303 322.141 27.8314C322.265 27.914 322.41 27.9553 322.554 27.9553Z" fill="#CAD6F8"/>
<path d="M322.551 37.8915C322.792 37.8915 323.027 37.7746 323.171 37.5613C323.399 37.2241 323.309 36.7562 322.965 36.5291C317.288 32.7377 310.936 29.1389 304.101 25.836C303.736 25.6571 303.282 25.8085 303.102 26.1801C302.923 26.5516 303.075 26.9989 303.447 27.1778C310.226 30.4532 316.509 34.0175 322.138 37.7746C322.262 37.8503 322.407 37.8915 322.551 37.8915Z" fill="#61D8F9"/>
<path d="M297.4 24.3154C297.683 24.3154 297.958 24.1502 298.082 23.8681C298.248 23.4896 298.082 23.0561 297.703 22.8841C296.401 22.313 295.085 21.7487 293.742 21.1983C293.363 21.0469 292.922 21.2258 292.764 21.6042C292.605 21.9827 292.791 22.4231 293.17 22.5813C294.493 23.1318 295.809 23.6823 297.097 24.2534C297.194 24.2947 297.297 24.3154 297.4 24.3154Z" fill="#CAD6F8"/>
<path d="M322.553 48.5709C322.794 48.5709 323.029 48.4539 323.173 48.2406C323.401 47.8965 323.311 47.4355 322.967 47.2084C321.182 46.018 319.35 44.8551 317.524 43.7542C317.173 43.5408 316.711 43.6509 316.498 44.0088C316.284 44.3597 316.401 44.8207 316.752 45.0271C318.557 46.1143 320.369 47.2635 322.14 48.447C322.264 48.5296 322.409 48.5709 322.553 48.5709Z" fill="#CAD6F8"/>
<path d="M311.923 42.1302C312.185 42.1302 312.44 41.9925 312.578 41.7448C312.777 41.387 312.646 40.9329 312.288 40.7333C306.549 37.5681 300.308 34.5886 293.742 31.8775C293.363 31.7261 292.922 31.905 292.764 32.2834C292.605 32.6619 292.791 33.1023 293.17 33.2605C299.681 35.951 305.874 38.903 311.565 42.0407C311.682 42.1026 311.799 42.1302 311.923 42.1302Z" fill="#CAD6F8"/>
<path d="M322.554 58.5138C322.795 58.5138 323.03 58.3969 323.174 58.1836C323.402 57.8464 323.312 57.3785 322.968 57.1514C314.501 51.4952 304.669 46.3345 293.743 41.8205C293.364 41.6691 292.923 41.8412 292.765 42.2265C292.606 42.605 292.785 43.0453 293.171 43.2036C304.008 47.6831 313.757 52.7888 322.141 58.39C322.265 58.4726 322.41 58.5138 322.554 58.5138Z" fill="#61D8F9"/>
<path d="M322.551 68.4501C322.792 68.4501 323.027 68.3332 323.171 68.1199C323.399 67.7758 323.309 67.3148 322.965 67.0877C317.288 63.2963 310.936 59.6975 304.101 56.3946C303.736 56.2157 303.282 56.3671 303.102 56.7387C302.923 57.1102 303.075 57.5575 303.447 57.7364C310.226 61.0118 316.509 64.5761 322.138 68.3332C322.262 68.4089 322.407 68.4501 322.551 68.4501Z" fill="#CAD6F8"/>
<path d="M297.4 54.874C297.683 54.874 297.958 54.7088 298.082 54.4267C298.248 54.0482 298.082 53.6147 297.703 53.4427C296.401 52.8716 295.085 52.3073 293.742 51.7569C293.363 51.6055 292.922 51.7844 292.764 52.1628C292.605 52.5413 292.791 52.9817 293.17 53.1399C294.493 53.6904 295.809 54.2409 297.097 54.812C297.194 54.8533 297.297 54.874 297.4 54.874Z" fill="#CAD6F8"/>
<path d="M3.38672 85.6526V174.59C3.38672 194.201 16.3043 212.311 38.123 226.947V138.058C16.3043 123.416 3.38672 105.291 3.38672 85.6526Z" fill="url(#paint3_linear_765_60)"/>
<path d="M31.8 258.641C32.0411 258.641 32.2754 258.524 32.42 258.311C32.6474 257.967 32.5578 257.506 32.2134 257.272C16.9534 247.033 6.59174 235.562 1.43159 223.17C1.27314 222.784 0.832216 222.598 0.46019 222.77C0.0812736 222.929 -0.10474 223.362 0.0606055 223.741C5.33787 236.409 15.8717 248.099 31.3866 258.51C31.5106 258.6 31.6622 258.641 31.8 258.641Z" fill="#61D8F9"/>
<path d="M31.8023 273.298C32.0434 273.298 32.2776 273.181 32.4223 272.967C32.6497 272.623 32.5601 272.162 32.2225 271.935C26.3872 268.02 21.1995 263.857 16.7903 259.549C16.494 259.26 16.0256 259.267 15.7362 259.563C15.4469 259.859 15.4538 260.327 15.75 260.616C20.2212 264.985 25.4847 269.203 31.3889 273.167C31.5129 273.256 31.6645 273.298 31.8023 273.298Z" fill="#CAD6F8"/>
<path d="M8.97546 252.723C9.13392 252.723 9.29927 252.668 9.43016 252.565C9.75397 252.311 9.81597 251.843 9.56106 251.519C6.10259 247.081 3.36751 242.478 1.43159 237.826C1.27314 237.448 0.832216 237.255 0.46019 237.427C0.0812736 237.585 -0.10474 238.019 0.0606055 238.397C2.04475 243.173 4.84873 247.893 8.38987 252.428C8.52766 252.62 8.74812 252.723 8.97546 252.723Z" fill="#61D8F9"/>
<path d="M174.128 334.979C144.759 334.979 120.949 347.324 120.949 362.551C120.949 369.164 125.434 375.233 132.923 379.981C142.671 386.174 157.511 390.123 174.128 390.123C203.498 390.123 227.308 377.779 227.308 362.551C227.308 347.324 203.498 334.979 174.128 334.979Z" fill="#EAEFFC"/>
<path d="M102.879 204.212C121.763 204.501 139.055 211.486 152.407 222.942C153.454 223.83 154.439 224.752 155.424 225.674C156.409 226.596 157.36 227.546 158.318 228.564C159.241 229.548 160.13 230.532 161.018 231.578C172.717 245.23 179.744 262.949 179.682 282.284C179.682 282.284 179.647 284.472 179.62 288.188C179.461 308.955 175.803 329.399 168.872 348.769C167.791 351.782 166.647 354.734 165.441 357.693C164.808 359.248 164.139 360.838 163.437 362.359C162.741 363.914 162.004 365.469 161.273 366.996C161.687 367.093 162.072 367.148 162.451 367.217C183.967 371.249 207.494 363.659 221.039 343.216L221.294 342.837C241.101 312.925 251.814 277.908 252.096 242.03C252.131 238.349 252.158 236.154 252.158 236.154C252.22 216.784 245.2 199.1 233.495 185.448C219.22 168.651 197.89 158.013 174.108 158.013C160.088 158.013 146.93 161.695 135.548 168.176C133.034 169.635 130.622 171.19 128.266 172.911C124.959 175.257 121.845 177.927 118.917 180.851C117.14 182.565 115.418 184.471 113.861 186.404C109.665 191.455 106.138 197.104 103.368 203.139C103.196 203.476 103.037 203.827 102.879 204.212Z" fill="#E2E9FB"/>
<path d="M96.0703 235.927C96.0703 235.927 96.0703 237.702 96.0703 240.723C96.1048 277.206 106.88 312.926 127.1 343.312C135.588 356.076 147.954 363.948 161.271 366.996C162.002 365.476 162.732 363.914 163.435 362.359C164.137 360.838 164.806 359.248 165.44 357.693C166.645 354.741 167.789 351.789 168.87 348.769C175.801 329.399 179.453 308.955 179.618 288.188C179.652 284.473 179.68 282.284 179.68 282.284C179.742 262.949 172.715 245.23 161.017 231.578C160.128 230.532 159.239 229.548 158.316 228.564C157.393 227.58 156.408 226.631 155.422 225.674C154.437 224.752 153.452 223.83 152.405 222.943C139.053 211.479 121.761 204.495 102.877 204.212C98.5229 213.922 96.0703 224.594 96.0703 235.927Z" fill="#A8BCF3"/>
<path d="M129.74 275.995C129.823 272.197 132.138 270.174 135.052 271.068L134.652 246.675C131.469 244.914 128.996 240.386 129.093 236.333C129.189 232.156 131.959 230.092 135.286 231.723C138.614 233.353 141.232 238.067 141.142 242.244C141.059 246.042 138.745 248.065 135.83 247.171L136.23 271.564C139.413 273.325 141.886 277.853 141.79 281.906C141.707 285.704 139.392 287.727 136.478 286.833L136.878 311.226C140.06 312.987 142.534 317.515 142.437 321.568C142.341 325.745 139.571 327.809 136.244 326.178C132.916 324.548 130.298 319.834 130.388 315.657C130.47 311.859 132.785 309.836 135.699 310.73L135.3 286.337C132.117 284.576 129.644 280.048 129.74 275.995Z" fill="#3C3B95"/>
<path d="M102.879 204.212C121.666 204.591 139.055 211.582 152.407 222.942C153.454 223.83 154.439 224.752 155.424 225.674C156.409 226.624 157.395 227.58 158.318 228.564C159.241 229.548 160.13 230.532 161.018 231.578C172.717 245.23 179.744 262.948 179.682 282.284C179.682 282.284 179.647 284.472 179.62 288.188C179.461 308.728 175.707 329.371 168.872 348.768C167.791 351.782 166.647 354.734 165.441 357.693C164.808 359.283 164.139 360.838 163.437 362.358C162.768 363.914 162.038 365.469 161.308 366.996C161.687 367.093 162.072 367.155 162.451 367.216C174.212 342.452 180.508 315.148 180.729 288.188L180.791 282.284C180.853 263.458 174.115 245.168 161.845 230.849C147.35 213.797 126.082 203.703 103.382 203.132C103.196 203.476 103.037 203.827 102.879 204.212Z" fill="#7E9BED"/>
<path d="M131.146 48.2335C130.567 47.3184 130.574 46.2174 131.043 45.3229L106.958 7.09196C106.524 6.41074 106.73 5.50244 107.419 5.07582C108.101 4.6492 109.011 4.84875 109.438 5.53685L133.516 43.7678C134.522 43.7333 135.521 44.2081 136.1 45.1233C136.1 45.1233 142.583 55.4724 142.665 55.5962C143.141 56.3531 142.431 57.6605 141.074 58.5069C139.717 59.3601 138.228 59.4358 137.753 58.6789C137.677 58.555 131.146 48.2335 131.146 48.2335Z" fill="#3C3B95"/>
<path d="M126.315 176.234C123.311 179.241 122.932 184.072 125.495 187.464C133.769 198.425 152.212 206.043 173.596 206.043C184.185 206.043 193.982 203.992 202.318 200.923C203.152 200.62 203.972 200.304 204.764 199.939C212.494 196.561 218.618 191.943 222.346 186.583C224.695 183.205 224.22 178.526 221.271 175.642C209.118 163.766 192.466 156.444 174.099 156.444C155.463 156.444 138.578 163.979 126.356 176.186L126.315 176.234Z" fill="#EAEFFC"/>
<path d="M100.66 120.794C100.66 156.527 126.44 186.26 160.398 192.473C161.893 192.728 163.395 192.955 164.917 193.141C167.749 193.464 170.656 193.65 173.577 193.65C188.231 193.65 201.748 189.115 213.322 181.87C214.459 181.154 215.582 180.397 216.684 179.592C234.79 166.339 246.543 144.939 246.543 120.801C246.543 120.25 246.543 119.652 246.522 119.101C246.502 117.835 246.405 116.548 246.336 115.303C246.288 114.518 246.198 113.761 246.13 112.977C246.04 112.124 245.923 111.277 245.806 110.445C245.62 109.13 245.413 107.844 245.137 106.557C245.117 106.33 245.069 106.096 245 105.869C244.559 103.729 244.008 101.609 243.367 99.5383C243.139 98.8227 242.898 98.1002 242.65 97.3845C242.34 96.4694 242.03 95.5542 241.658 94.6803C231.2 67.342 204.655 47.9238 173.577 47.9238C171.759 47.9238 169.919 48.0339 168.142 48.1509C167.591 48.1853 167.06 48.2197 166.53 48.2885C165.565 48.3573 164.601 48.4743 163.657 48.6119C163.057 48.6807 162.472 48.7771 161.872 48.8665C127.177 54.4539 100.66 84.5239 100.66 120.794Z" fill="#E2E9FB"/>
<path d="M163.656 48.6051C189.967 51.7841 213.019 69.4064 222.602 94.467C222.946 95.3409 223.27 96.2423 223.573 97.1575C224.862 100.791 225.805 104.568 226.453 108.456C226.818 110.575 227.073 112.736 227.238 114.924C227.328 116.17 227.397 117.436 227.424 118.695C227.445 119.246 227.445 119.824 227.445 120.374C227.445 125.645 226.866 130.847 225.743 135.904C226.184 135.746 226.618 135.609 227.032 135.443C228.065 130.517 228.596 125.48 228.596 120.374C228.596 119.796 228.596 119.197 228.575 118.647C228.554 117.401 228.485 116.094 228.389 114.849C228.23 112.55 227.948 110.273 227.562 108.036C226.915 104.169 225.95 100.398 224.662 96.7859C224.359 95.8639 224.042 94.9418 223.697 94.0473C215.023 71.4225 195.527 54.7429 172.523 49.0799C169.629 48.3711 166.598 48.1853 163.656 48.6051Z" fill="#7E9BED"/>
<path d="M182.61 121.826L187.081 133.537C188.741 137.907 193.047 140.694 197.705 140.487C209.754 139.937 218.876 138.23 225.744 135.911C226.185 135.753 226.619 135.615 227.033 135.45C244.566 129.078 246.53 118.695 246.295 115.158C245.889 108.965 244.635 102.999 242.658 97.3845C239.661 102.105 234.204 105.539 227.57 108.05C227.198 108.188 226.833 108.325 226.461 108.463C214.411 112.764 198.931 114.147 187.453 114.539C183.74 114.649 181.294 118.372 182.61 121.826Z" fill="#3C3B95"/>
<path d="M231.769 114.525C233.994 116.479 235.469 119.748 235.641 124.103C236.013 133.606 230.233 144.416 222.723 148.256C220.684 149.295 218.734 149.673 216.957 149.542C219.589 151.854 223.295 152.315 227.367 150.237C234.876 146.398 240.67 135.581 240.298 126.071C240.023 119.142 236.537 114.869 231.769 114.525Z" fill="#1C1C5D"/>
<path d="M235.641 124.103C235.999 133.592 230.205 144.437 222.724 148.256C220.657 149.288 218.769 149.701 216.957 149.543C215.304 148.098 214.064 145.882 213.444 143.047C213.237 142.118 216.316 140.886 216.261 139.806C215.903 130.778 217.88 120.821 224.804 116.541C225.217 116.287 225.631 116.025 226.044 115.819C228.056 114.787 230.019 114.429 231.776 114.532C233.988 116.486 235.483 119.72 235.641 124.103Z" fill="#3C3B95"/>
<path d="M230.786 125.149C231.048 132.319 226.707 140.411 221.079 143.301C218.137 144.795 215.402 144.588 213.438 143.04C213.232 142.111 213.128 141.079 213.08 139.998C212.722 130.971 217.882 120.814 224.799 116.534C228.202 116.947 230.579 120.147 230.786 125.149Z" fill="#61D8F9"/>
<path d="M136.257 94.2607C131.883 92.1413 127.604 91.0679 123.54 91.0679L123.037 91.0748C109.623 91.3706 100.756 103.247 100.453 121.331C100.04 145.916 115.651 173.633 135.265 183.115C139.64 185.235 143.918 186.308 147.983 186.308L148.486 186.301C161.9 186.005 170.766 174.129 171.07 156.045C171.483 131.459 155.865 103.743 136.257 94.2607ZM148.459 185.111C148.3 185.111 148.142 185.118 147.983 185.118C144.104 185.118 140.005 184.085 135.789 182.049C116.561 172.745 101.253 145.524 101.659 121.358C101.955 103.97 110.353 92.5542 123.071 92.2789C123.23 92.2721 123.388 92.272 123.547 92.272C127.425 92.272 131.524 93.3042 135.741 95.341C154.969 104.644 170.277 131.865 169.871 156.032C169.575 173.413 161.176 184.829 148.459 185.111Z" fill="#7E9BED"/>
<path d="M127.592 119.383C125.14 121.537 123.514 125.142 123.328 129.945C122.921 140.425 129.294 152.336 137.575 156.568C139.821 157.717 141.977 158.13 143.934 157.986C141.033 160.532 136.948 161.048 132.463 158.749C124.182 154.517 117.795 142.586 118.202 132.106C118.491 124.468 122.336 119.762 127.592 119.383Z" fill="#1C1C5D"/>
<path d="M127.592 119.383C129.528 119.266 131.692 119.665 133.91 120.801C134.365 121.028 134.819 121.31 135.274 121.599C142.901 126.319 148.598 137.521 148.199 147.471C148.143 148.669 148.026 149.804 147.799 150.829C147.117 153.953 145.746 156.403 143.92 157.992C141.929 158.164 139.842 157.71 137.561 156.575C129.308 152.371 122.921 140.411 123.314 129.952C123.493 125.108 125.147 121.544 127.592 119.383Z" fill="#3C3B95"/>
<path d="M195.602 161.103V249.978C239.576 245.808 277.799 233.47 303.703 216.337V127.455C277.792 144.595 239.576 156.933 195.602 161.103Z" fill="url(#paint4_linear_765_60)"/>
<path d="M195.615 265.983C220.692 263.609 243.965 258.655 264.846 251.251C265.232 251.113 265.439 250.687 265.301 250.301C265.17 249.916 264.743 249.71 264.35 249.847C243.586 257.203 220.437 262.13 195.553 264.49C195.14 264.531 194.843 264.889 194.878 265.302C194.905 265.694 195.229 265.983 195.615 265.983Z" fill="#CAD6F8"/>
<path d="M157.746 245.801V334.676C117.602 334.16 80.8263 326.963 51.6016 315.313V226.383C80.8263 238.088 117.602 245.285 157.746 245.801Z" fill="url(#paint5_linear_765_60)"/>
<path d="M86.9978 211.575C87.3354 211.575 87.6385 211.348 87.7212 211.004C87.8177 210.605 87.5697 210.199 87.1701 210.109C74.6245 207.157 62.7541 203.448 51.8758 199.093C51.5037 198.941 51.0628 199.127 50.9044 199.506C50.7528 199.884 50.9388 200.318 51.3177 200.476C62.2581 204.859 74.2043 208.589 86.8187 211.561C86.8807 211.575 86.9427 211.575 86.9978 211.575Z" fill="#CAD6F8"/>
<path d="M86.9965 200.517C87.334 200.517 87.6372 200.29 87.7199 199.946C87.8163 199.547 87.5683 199.141 87.1687 199.051C84.096 198.329 81.0234 197.551 78.0334 196.733C77.6407 196.622 77.2204 196.863 77.1171 197.256C77.0069 197.655 77.2411 198.061 77.6407 198.171C80.6444 198.99 83.7309 199.774 86.8242 200.496C86.8793 200.51 86.9413 200.517 86.9965 200.517Z" fill="#CAD6F8"/>
<path d="M71.5381 196.395C71.8619 196.395 72.1581 196.189 72.2546 195.866C72.3717 195.473 72.1512 195.054 71.7516 194.937C64.8623 192.872 58.1727 190.547 51.8758 188.028C51.5037 187.877 51.0628 188.062 50.9044 188.441C50.7528 188.819 50.9388 189.253 51.3177 189.411C57.656 191.943 64.3869 194.29 71.3176 196.361C71.3934 196.389 71.4692 196.395 71.5381 196.395Z" fill="#61D8F9"/>
<path d="M86.9978 189.453C87.3354 189.453 87.6385 189.225 87.7212 188.881C87.8177 188.482 87.5697 188.076 87.1701 187.987C74.6245 185.035 62.7541 181.326 51.8758 176.97C51.5037 176.819 51.0628 177.005 50.9044 177.39C50.7528 177.769 50.9388 178.202 51.3177 178.36C62.2581 182.744 74.2043 186.473 86.8187 189.446C86.8807 189.446 86.9427 189.453 86.9978 189.453Z" fill="#CAD6F8"/>
<path d="M328.381 251.877V327.623C310.379 339.555 287.989 349.822 262.581 357.859C243.063 363.983 221.637 368.758 198.93 371.944V296.191C251.268 288.794 296.518 272.961 328.381 251.877Z" fill="url(#paint6_linear_765_60)"/>
<path d="M319.162 248.739C319.293 248.739 319.424 248.705 319.541 248.636C322.724 246.771 325.838 244.838 328.8 242.87C329.145 242.643 329.241 242.182 329.007 241.838C328.78 241.487 328.311 241.404 327.973 241.631C325.032 243.578 321.938 245.498 318.783 247.349C318.432 247.556 318.308 248.017 318.514 248.368C318.652 248.608 318.9 248.739 319.162 248.739Z" fill="#CAD6F8"/>
<path d="M285.177 265.157C285.274 265.157 285.363 265.137 285.453 265.102C295.077 261.263 304.206 257.038 312.583 252.531C312.948 252.338 313.079 251.884 312.886 251.526C312.694 251.161 312.232 251.031 311.881 251.223C303.551 255.703 294.478 259.907 284.902 263.719C284.523 263.871 284.33 264.304 284.482 264.69C284.606 264.979 284.881 265.157 285.177 265.157Z" fill="#61D8F9"/>
<path d="M301.463 247.583C301.573 247.583 301.676 247.563 301.78 247.508C311.556 242.856 320.643 237.771 328.786 232.383C329.131 232.156 329.227 231.695 328.993 231.351C328.766 231.007 328.297 230.917 327.959 231.144C319.871 236.491 310.846 241.542 301.132 246.166C300.76 246.345 300.602 246.785 300.781 247.157C300.919 247.432 301.187 247.583 301.463 247.583Z" fill="#61D8F9"/>
<path d="M285.177 254.678C285.274 254.678 285.363 254.657 285.453 254.622C288.346 253.466 291.254 252.255 294.099 251.01C294.478 250.845 294.65 250.404 294.485 250.026C294.313 249.647 293.886 249.482 293.5 249.641C290.675 250.879 287.782 252.083 284.902 253.233C284.523 253.384 284.33 253.817 284.482 254.203C284.606 254.499 284.881 254.678 285.177 254.678Z" fill="#CAD6F8"/>
<path d="M321.524 226.369C321.655 226.369 321.793 226.335 321.91 226.259C324.245 224.848 326.56 223.383 328.792 221.91C329.137 221.683 329.233 221.222 328.999 220.878C328.772 220.534 328.303 220.438 327.966 220.672C325.754 222.137 323.453 223.582 321.131 224.986C320.78 225.199 320.663 225.654 320.876 226.004C321.028 226.238 321.276 226.369 321.524 226.369Z" fill="#CAD6F8"/>
<path d="M285.178 244.198C285.275 244.198 285.364 244.177 285.454 244.143C296.346 239.801 306.583 234.964 315.877 229.768C316.236 229.569 316.366 229.115 316.16 228.757C315.96 228.392 315.498 228.261 315.147 228.475C305.915 233.642 295.74 238.445 284.903 242.767C284.524 242.918 284.331 243.352 284.489 243.737C284.599 244.019 284.882 244.198 285.178 244.198Z" fill="#61D8F9"/>
<path d="M264.325 56.4702C265.958 54.8394 268.596 54.8394 270.229 56.4702C271.862 58.101 271.862 60.7364 270.229 62.3672C268.596 63.998 265.958 63.998 264.325 62.3672C262.699 60.7364 262.699 58.0941 264.325 56.4702Z" fill="#2ACAF7"/>
<path d="M58.3249 145.029C59.9577 143.398 62.5963 143.398 64.2291 145.029C65.8619 146.66 65.8619 149.295 64.2291 150.926C62.5963 152.557 59.9577 152.557 58.3249 150.926C56.699 149.295 56.699 146.66 58.3249 145.029Z" fill="#2ACAF7"/>
<path d="M366.143 235.762C367.775 234.131 370.414 234.131 372.047 235.762C373.68 237.392 373.68 240.028 372.047 241.659C370.414 243.289 367.775 243.289 366.143 241.659C364.51 240.028 364.51 237.386 366.143 235.762Z" fill="#2ACAF7"/>
<path d="M8.05271 304.441C9.6855 302.81 12.3241 302.81 13.9569 304.441C15.5897 306.072 15.5897 308.707 13.9569 310.338C12.3241 311.969 9.6855 311.969 8.05271 310.338C6.41993 308.707 6.41993 306.065 8.05271 304.441Z" fill="#2ACAF7"/>
<path d="M321.885 358.134C323.518 356.503 326.156 356.503 327.789 358.134C329.422 359.765 329.422 362.4 327.789 364.031C326.156 365.662 323.518 365.662 321.885 364.031C320.252 362.4 320.252 359.765 321.885 358.134Z" fill="#2ACAF7"/>
<path d="M390.269 568.5C419.944 568.5 444 556.54 444 541.788C444 527.035 419.944 515.076 390.269 515.076C360.595 515.076 336.539 527.035 336.539 541.788C336.539 556.54 360.595 568.5 390.269 568.5Z" fill="#EAEFFC"/>
<path d="M383.98 394.128L387.563 453.78C387.715 457.048 388.293 460.289 389.203 463.406L403.36 517.663C401.721 516.652 399.323 515.537 397.628 515.447C397.022 515.42 396.443 515.385 395.872 515.385H394.873C393.178 515.413 391.717 516.535 391.207 518.083C391.145 518.324 391.083 518.565 391.056 518.778C391.056 518.778 391.056 522.776 395.968 526.374C396.664 526.891 397.608 527.524 398.607 528.164C401.397 529.918 403.973 531.948 406.364 534.219C407.701 535.457 409.216 536.366 411.214 536.462C414.218 536.613 416.726 534.129 416.485 531.136C416.457 530.833 416.423 530.29 416.361 529.746C416.333 529.505 416.299 529.265 416.271 529.017C416.243 528.714 415.789 525.686 415.575 524.386C415.093 521.448 414.79 518.509 414.666 515.544C414.032 502.711 411.938 470.315 406.454 452.397L414.087 387.633L383.98 394.128Z" fill="#F8AFAC"/>
<path d="M363.64 539.132L373.258 538.348C375.883 538.299 378.328 537.15 380.037 535.244C380.829 534.363 381.105 533.152 380.836 531.996C375.511 508.869 348.911 385.74 362.187 357.776C377.013 326.557 409.165 351.39 409.165 351.39C409.165 351.39 418.831 374.277 414.071 387.619C409.799 399.599 391.108 404.574 391.108 404.574L387.801 458.679C391.005 478.09 393.85 537.481 394.877 543.171C395.345 545.758 394.815 549.385 393.733 550.995C391.315 554.6 385.845 553.327 381.622 552.474L369.117 550.018C364.522 549.089 361.518 545.868 360.692 543.075C360.485 541.196 361.773 539.469 363.64 539.132Z" fill="#FBB2B8"/>
<path d="M391.198 518.076C391.136 518.317 391.074 518.558 391.047 518.771C391.047 518.771 391.047 521.193 393.382 523.98C393.203 521.468 393.052 518.805 392.838 516.019C392.08 516.473 391.502 517.202 391.198 518.076Z" fill="#535873"/>
<path d="M391.047 518.778C391.047 518.778 391.047 522.776 395.959 526.374C396.655 526.891 397.599 527.524 398.598 528.164C401.388 529.918 403.964 531.948 406.355 534.219C407.692 535.457 409.207 536.366 411.205 536.462C414.209 536.613 416.889 535.65 416.476 531.136C416.448 530.833 416.414 530.29 416.352 529.746C416.324 529.505 416.29 529.264 416.262 529.017C416.2 528.686 416.2 528.501 416.172 528.322C415.807 529.836 414.14 530.228 412.838 530.166C410.868 530.076 409.131 529.602 407.795 528.363C405.397 526.092 388.229 516.301 398.853 515.661L397.592 515.454C392.494 514.856 391.708 516.542 391.198 518.09C391.136 518.324 391.081 518.565 391.047 518.778Z" fill="#1C1C5D"/>
<path d="M414.079 387.626C415.96 382.327 415.602 375.557 414.417 369.288C412.687 359.751 409.174 351.397 409.174 351.397C409.174 351.397 378.227 327.176 362.195 357.783C360.652 360.721 359.557 364.595 358.861 369.254C351.889 414.482 380.135 531.549 380.135 531.549C380.562 532.368 381.623 532.939 382.987 533.304C383.228 533.393 383.504 533.455 383.773 533.483C387.383 534.15 392.564 533.393 394.472 531.088C394.472 531.088 389.718 470.301 387.81 458.679L387.893 457.213C388.168 459.305 388.623 461.37 389.195 463.399L402.078 513.927C402.684 514.656 404.076 515.317 405.805 515.743C406.081 515.805 406.349 515.867 406.625 515.922C409.656 516.5 413.294 516.197 414.927 513.982C414.927 513.982 415.388 469.372 406.439 452.376L414.079 387.626Z" fill="#3C3B95"/>
<path d="M363.641 539.132L369.814 538.63C367.354 539.318 366.534 541.561 369.014 543.274C371.846 545.229 394.794 548.449 394.884 543.178C394.987 544.217 395.036 545.05 395.063 545.462C395.18 547.396 394.781 549.371 393.74 551.002C391.357 554.752 385.852 553.334 381.629 552.481L369.125 550.025C364.529 549.096 361.526 545.875 360.699 543.082C360.485 541.196 361.774 539.469 363.641 539.132Z" fill="#1C1C5D"/>
<path d="M370.178 334.146C370.178 334.146 419.01 344 426.134 333.41C429.324 328.676 411.68 276.628 411.68 276.628L408.077 273.552L395.703 276.779C394.057 277.199 391.749 274.667 391.749 274.667C393.623 281.3 403.44 313.613 405.755 321.189C406.12 322.366 369.848 324.024 369.848 324.024C372.597 324.85 372.81 333.073 370.178 334.146Z" fill="#CAD6F8"/>
<path d="M391.111 275.059C388.569 277.88 385.021 279.731 381.135 280.11C379.42 280.089 377.787 279.89 376.195 279.463C373.233 278.658 368.169 277.007 365.613 276.14C366.461 275.617 367.329 275.073 368.211 274.571L382.403 266.396L389.375 268.811C391.979 269.72 392.95 273.022 391.111 275.059Z" fill="#FBB2B8"/>
<path d="M360.327 254.402C363.558 267.896 372.659 268.873 381.016 264.476C390.33 259.577 395.752 248.244 396.028 240.097C396.448 227.677 388.346 219.86 378.04 219.516C354.547 218.717 359.204 249.73 360.327 254.402Z" fill="#FBB2B8"/>
<path d="M390.495 246.909V273.965C390.495 275.231 389.324 276.449 387.181 277.227C383.475 278.589 378.266 278.252 375.49 276.449C374.367 275.72 373.829 274.846 373.829 273.965C373.781 273.965 373.781 246.909 373.781 246.909H390.495Z" fill="#FBB2B8"/>
<path d="M316.422 324.541L311.2 332.997C308.135 330.885 306.261 329.495 306.261 329.495C304.848 329.116 301.693 328.38 298.765 326.887C294.721 324.823 293.756 319.462 296.774 316.063L297.291 315.485C297.291 315.485 293.646 312.175 292.778 311.425C291.814 310.579 291.4 309.629 291.8 308.928C292.565 307.558 293.977 308.191 295.169 309.01C297.401 310.531 304.146 315.017 304.146 315.017C305.034 315.643 305.82 316.387 306.46 317.274L307.728 318.988C309.14 320.859 311.035 322.332 313.233 323.212C313.24 323.212 314.445 323.735 316.422 324.541Z" fill="#FBB2B8"/>
<path d="M410.691 318.891L414.749 284.94C414.853 271.151 405.407 265.598 395.914 266.843C394.074 267.07 392.262 267.531 390.478 268.295C389.741 268.598 384.071 265.494 383.334 265.845C383.334 265.845 365.242 276.346 365.063 276.449C360.75 279.078 357.23 281.493 354.598 284.403C351.994 287.287 350.285 290.645 349.7 295.11C349.7 295.11 345.594 329.591 344.829 333.52C344.526 335.151 312.091 322.689 312.091 322.689C309.969 323.453 307.371 328.421 307.881 330.616C307.881 330.616 344.423 357.273 356.493 348.459C357.526 347.681 358.718 345.018 359.931 341.303C354.894 365.469 357.623 421.377 358.367 434.134C358.47 435.916 359.4 437.547 360.936 438.469C373.289 445.908 400.647 445.165 410.195 438.793C411.945 437.623 413.068 435.751 413.365 433.666C414.701 424.349 419.613 387.398 416.52 367.127C415.259 358.911 409.699 327.148 410.691 318.891Z" fill="#E8EEFC"/>
<path d="M360.467 227.119C365.951 219.66 387.102 214.995 401.652 226.245C402.396 226.823 403.023 227.518 403.857 227.965C407.522 229.92 410.794 233.388 412.882 238.026C414.687 242.051 415.307 246.296 414.928 250.212C414.749 252.056 415.403 253.824 416.623 255.228C416.699 255.311 416.788 255.428 416.898 255.565C420.109 259.632 420.949 265.095 419.151 269.953C417.725 273.814 416.347 278.658 416.182 282.587C415.927 288.601 412.696 294.092 407.432 297.03C403.113 299.445 397.89 301.152 392.813 299.803C380.853 296.624 383.237 284.293 369.899 278.383C363.134 275.383 367.736 259.907 371.139 256.054C368.494 253.439 367.391 251.265 366 248.003C365.393 246.592 364.415 245.347 363.078 244.576C362.817 244.425 362.569 244.267 362.321 244.088C357.195 240.482 356.279 232.81 360.467 227.119Z" fill="#1E0068"/>
<path d="M366.928 251.326C364.772 254.196 364.531 257.657 366.398 259.054C368.265 260.451 371.524 259.26 373.68 256.391C375.836 253.522 376.078 250.06 374.211 248.663C372.35 247.267 369.092 248.457 366.928 251.326Z" fill="#FBB2B8"/>
<path d="M359.93 341.303L365.614 314.026C365.614 314.026 369.582 331.305 365.614 346.085C363.919 352.381 357.719 355.684 357.719 355.684C358.525 349.381 359.93 341.303 359.93 341.303Z" fill="#CAD6F8"/>
</g>
<defs>
<linearGradient id="paint0_linear_765_60" x1="24.8058" y1="35.4419" x2="24.8058" y2="178.065" gradientUnits="userSpaceOnUse">
<stop stop-color="#61D8F9"/>
<stop offset="1" stop-color="#61D8F9" stop-opacity="0"/>
</linearGradient>
<linearGradient id="paint1_linear_765_60" x1="118.581" y1="8.00708" x2="118.581" y2="110.823" gradientUnits="userSpaceOnUse">
<stop stop-color="#A0B3ED"/>
<stop offset="1" stop-color="#A0B3ED" stop-opacity="0"/>
</linearGradient>
<linearGradient id="paint2_linear_765_60" x1="324.732" y1="62.3535" x2="324.732" y2="215.373" gradientUnits="userSpaceOnUse">
<stop stop-color="#61D8F9"/>
<stop offset="1" stop-color="#61D8F9" stop-opacity="0"/>
</linearGradient>
<linearGradient id="paint3_linear_765_60" x1="20.7549" y1="85.6526" x2="20.7549" y2="226.947" gradientUnits="userSpaceOnUse">
<stop stop-color="#CAD6F8"/>
<stop offset="1" stop-color="#CAD6F8" stop-opacity="0"/>
</linearGradient>
<linearGradient id="paint4_linear_765_60" x1="249.652" y1="127.455" x2="249.652" y2="249.978" gradientUnits="userSpaceOnUse">
<stop stop-color="#CAD6F8"/>
<stop offset="1" stop-color="#CAD6F8" stop-opacity="0"/>
</linearGradient>
<linearGradient id="paint5_linear_765_60" x1="104.674" y1="226.383" x2="104.674" y2="334.676" gradientUnits="userSpaceOnUse">
<stop stop-color="#61D8F9"/>
<stop offset="1" stop-color="#61D8F9" stop-opacity="0"/>
</linearGradient>
<linearGradient id="paint6_linear_765_60" x1="263.655" y1="251.877" x2="263.655" y2="371.944" gradientUnits="userSpaceOnUse">
<stop stop-color="#CAD6F8"/>
<stop offset="1" stop-color="#CAD6F8" stop-opacity="0"/>
</linearGradient>
<clipPath id="clip0_765_60">
<rect width="444" height="568" fill="white" transform="translate(0 0.5)"/>
</clipPath>
</defs>
</svg>
