<svg width="466" height="458" viewBox="0 0 466 458" fill="none" xmlns="http://www.w3.org/2000/svg">
<path d="M368.405 248.458C363.062 245.37 356.479 245.376 351.141 248.487L253.077 305.604C247.357 308.933 247.375 317.207 253.1 320.524L332.092 366.402L323.548 377.541L347.706 377.535C356.268 377.535 364.677 375.283 372.099 371.007L461.109 319.219C467.633 315.425 467.627 305.986 461.097 302.199L368.405 248.458Z" fill="#B6C6EE"/>
<path d="M311.136 266.889L309.633 267.7V373.195C319.745 379.04 332.199 379.04 342.305 373.195V266.148C332.481 261.119 320.755 261.325 311.136 266.889Z" fill="#DCE4FB"/>
<path d="M285.933 280.45L283.836 271.529H219.824V311.755C219.824 317.266 222.543 322.776 227.992 325.929L309.632 373.183V267.7L285.933 280.45Z" fill="#CAD6F8"/>
<path d="M392.734 295.23L343.808 266.889C343.321 266.606 342.804 266.401 342.305 266.148V373.189L425.442 326.117C430.886 322.971 433.61 317.46 433.61 311.955V271.723L392.734 295.23Z" fill="#CAD6F8"/>
<path d="M343.804 216.253L425.438 263.507C436.331 269.806 436.331 285.549 425.438 291.848L342.301 338.92C332.189 344.766 319.734 344.766 309.628 338.92L227.994 291.666C217.101 285.367 217.101 269.624 227.994 263.325L311.137 216.259C321.237 210.407 333.692 210.407 343.804 216.253Z" fill="white"/>
<path d="M343.804 210.301L425.438 257.556C436.331 263.854 436.331 279.598 425.438 285.896L342.301 332.963C332.189 338.808 319.734 338.808 309.628 332.963L227.994 285.708C217.101 279.41 217.101 263.666 227.994 257.367L311.137 210.301C321.237 204.456 333.692 204.456 343.804 210.301Z" fill="#E8EEFC"/>
<path d="M338.999 227.55L397.673 261.514C405.5 266.042 405.5 277.357 397.673 281.88L337.918 315.713C330.654 319.912 321.699 319.912 314.436 315.713L255.761 281.75C247.934 277.222 247.934 265.907 255.761 261.384L315.516 227.556C322.78 223.345 331.735 223.345 338.999 227.55Z" fill="#2ACAF7"/>
<path d="M338.987 9.69619L397.661 43.6593C405.489 48.1877 405.489 59.5029 397.661 64.0254L337.906 97.8592C330.643 102.058 321.688 102.058 314.424 97.8592L255.75 63.896C247.922 59.3676 247.922 48.0525 255.75 43.5299L315.504 9.70208C322.768 5.49124 331.723 5.49124 338.987 9.69619Z" fill="#2ACAF7"/>
<path d="M336.932 17.076L385.783 45.353C392.3 49.1232 392.3 58.544 385.783 62.3093L336.032 90.4786C329.984 93.9746 322.529 93.9746 316.481 90.4786L267.63 62.2016C261.113 58.4314 261.113 49.0106 267.63 45.2453L317.38 17.0809C323.428 13.5751 330.884 13.5751 336.932 17.076Z" fill="#A7E9FB"/>
<mask id="mask0_775_341" style="mask-type:alpha" maskUnits="userSpaceOnUse" x="249" y="6" width="155" height="313">
<path d="M403.525 53.7769C403.501 49.8366 401.552 45.9081 397.665 43.6556L338.99 9.69252C331.727 5.49344 322.772 5.49344 315.508 9.69252L255.753 43.5204C252.13 45.614 250.257 49.1721 249.992 52.836H249.887V271.629H249.893C249.916 275.569 251.866 279.498 255.753 281.744L314.427 315.708C321.691 319.907 330.646 319.907 337.91 315.708L397.665 281.874C401.599 279.598 403.548 275.605 403.525 271.623H403.531V53.7769H403.525Z" fill="url(#paint0_linear_775_341)"/>
</mask>
<g mask="url(#mask0_775_341)">
<path d="M403.541 53.7769C403.517 49.8366 401.562 45.9081 397.669 43.6556L338.994 9.69252C331.73 5.49344 322.775 5.49344 315.512 9.69252L255.757 43.5204C252.134 45.614 250.261 49.1721 249.996 52.836C249.891 52.836 249.891 271.629 249.891 271.629C249.914 275.569 251.87 279.498 255.763 281.744L314.437 315.708C321.701 319.907 330.656 319.907 337.92 315.708L397.674 281.874C401.609 279.598 403.558 275.605 403.535 271.623L403.541 53.7769Z" fill="url(#paint1_linear_775_341)"/>
</g>
<path d="M45.7967 307.062C71.0895 307.062 91.5934 296.841 91.5934 284.232C91.5934 271.623 71.0895 261.402 45.7967 261.402C20.5039 261.402 0 271.623 0 284.232C0 296.841 20.5039 307.062 45.7967 307.062Z" fill="#EAEFFC"/>
<path d="M75.9784 142.493C76.4834 146.192 75.5203 149.985 73.1304 152.855C72.6606 153.42 72.2496 153.826 71.9853 153.902C67.9864 155.014 65.9899 140.734 65.9899 140.734C65.9899 140.734 64.9975 143.763 64.7509 144.775C64.4514 145.921 63.4707 146.457 62.6897 146.41C60.9927 146.304 61.0573 144.633 61.3568 143.81L62.3727 136.471C62.5136 135.453 62.8307 134.489 63.277 133.606L64.1754 131.813C65.1267 129.884 65.5671 127.684 65.3733 125.491L64.9505 120.351L72.2848 121.627L74.0171 128.637C74.5397 131.148 74.9273 133.901 75.1739 136.629L75.9784 142.493Z" fill="#FBB2B8"/>
<path d="M70.9756 102.002C70.8933 101.396 70.8288 100.802 70.7818 100.196C70.3942 94.574 68.3037 64.5865 67.9749 59.0818L48.0508 62.928C48.0508 62.928 54.4044 104.231 54.7039 105.566L63.2537 137.006C66.6595 139.035 74.3168 136.694 76.6656 133.565L70.9756 102.002Z" fill="#CAD6F8"/>
<path d="M22.3766 274.552C23.8564 269.759 27.6028 266.66 30.7444 267.63C33.886 268.601 34.2853 273.023 33.7509 278.069C33.6511 279.01 33.1109 279.81 32.6881 280.574C31.7955 282.18 31.3786 283.997 31.3962 285.832C31.4138 287.243 31.1966 288.755 30.7268 290.284C29.7168 293.554 26.4578 295.718 24.0619 296.906C22.0537 297.906 19.6226 297.03 18.6654 294.995C17.3383 292.16 16.6689 287.879 18.548 284.479C19.3173 283.091 22.0948 275.458 22.3766 274.552Z" fill="#1C1C5D"/>
<path d="M56.8632 269.447C57.6324 270 58.7305 271.306 59.5291 272.141C61.3847 274.093 63.9743 275.234 66.6109 276.164C70.2575 277.446 73.2053 277.722 75.3075 277.181C77.3393 276.652 78.2025 274.246 77.0046 272.523C75.8478 270.853 73.6927 268.624 70.8212 266.107C69.177 264.666 67.6444 263.349 66.4171 262.302C64.6731 260.82 63.5691 258.714 63.3636 256.438C63.2462 255.192 63.0935 254.068 62.8997 253.998C58.4487 252.304 52.1068 253.239 50.9734 255.392C50.9734 255.392 49.7109 262.014 49.7109 263.655C49.7109 264.695 50.028 266.43 51.9423 267.166C53.1403 267.618 55.0663 268.159 56.8632 269.447Z" fill="#1C1C5D"/>
<path d="M16.7734 95.7385L20.9368 274.77C20.9368 278.828 36.2571 279.204 36.2102 273.946L41.6712 161.189H44.7013L48.0601 256.721C48.1541 261.596 64.8779 260.255 64.1732 256.344L66.5632 123.191C66.6102 120.874 66.387 118.557 65.9055 116.287L16.7734 95.7385Z" fill="#3C3B95"/>
<path d="M66.3195 114.199L68.592 186.789C68.6331 188.124 67.6583 189.006 66.7481 189.983C57.6816 199.71 22.5545 196.552 17.7805 191.817C16.7353 190.782 15.8133 189.624 15.7781 188.177L16.4006 118.475L17.3284 91.1866L8.22656 72.0085C8.2618 62.1578 16.2714 56.1003 24.6744 51.2307C25.3379 50.8485 25.9721 50.4486 26.6768 50.0781C26.8236 49.9663 27.0467 49.8546 27.2346 49.7428L39.9654 42.4562C40.5996 42.1563 45.3501 44.7616 45.9784 44.5381C47.6109 43.8324 49.3197 43.4207 51.0285 43.2737C58.8619 42.4915 68.3278 50.0016 68.2866 60.7816L65.3565 94.4212C64.9454 99.1437 65.057 103.902 65.6559 108.583C65.9084 110.447 66.1668 112.341 66.3195 114.199Z" fill="#E8EEFC"/>
<path d="M49.2783 135.724C39.9652 137.247 25.414 132.042 16.7292 128.919L16.4297 119.18L45.3088 127.208L49.2783 135.724Z" fill="#CAD6F8"/>
<path d="M33.9153 117.963C31.4255 117.64 27.5323 120.604 25.3479 119.757L22.5469 112.394L24.9251 77.825L29.8518 105.883L33.9447 117.922L33.9153 117.963Z" fill="#CAD6F8"/>
<path d="M31.8165 47.6432L31.8928 47.408L31.9868 26.7478L46.0564 26.8125L45.9624 46.5905C45.9624 46.5905 46.8374 46.8728 47.2426 47.0375C48.2291 47.4491 48.2056 48.4136 47.7711 49.4781L44.1538 51.6247C44.1538 51.6247 36.6258 53.3831 34.3944 52.6833C32.2804 52.0246 31.1177 49.7545 31.8165 47.6432Z" fill="#FBB2B8"/>
<path d="M35.9247 26.5539C39.4774 30.8353 40.229 36.0812 37.5983 38.2689C34.9676 40.4567 30.5576 39.1746 26.4002 34.4816C21.1094 28.5064 21.1094 22.1372 21.1094 22.1372C21.1094 22.1372 32.3721 22.2725 35.9247 26.5539Z" fill="#1C1C5D"/>
<path d="M46.0522 29.512L45.9758 45.7378C45.97 47.4198 42.5348 48.4843 39.7279 47.3257C35.4471 45.5614 31.9239 42.168 31.9415 38.5276L31.9826 29.4414L46.0522 29.512Z" fill="#EF9B9B"/>
<path d="M48.4116 56.9588L44.1602 51.6305C44.1602 51.6305 45.7985 50.0779 45.8631 48.4842L45.9864 44.5674L47.0551 45.1614C48.3176 45.8553 49.3452 47.3197 49.3452 48.9429C49.3452 53.783 48.4116 56.9588 48.4116 56.9588Z" fill="#CAD6F8"/>
<path d="M43.8593 58.7291L44.1529 51.6307C44.1529 51.6307 38.7916 52.5599 34.9395 50.1957C32.9782 48.996 31.8978 46.3848 31.8978 46.3848L29.5078 48.5431C30.4591 57.4882 43.8593 58.7291 43.8593 58.7291Z" fill="#CAD6F8"/>
<path d="M55.0699 34.6814C52.8385 46.1789 45.2224 47.3257 38.0349 43.9206C33.1904 41.6269 29.0329 38.0983 27.9525 33.023C27.2478 29.7413 24.7463 26.6185 24.5349 23.9014C23.7363 13.4449 30.2661 6.56407 38.9216 5.89951C58.646 4.3822 55.8392 30.6999 55.0699 34.6814Z" fill="#FBB2B8"/>
<path d="M20.8605 14.7269C21.6884 5.77005 32.2406 -2.59281 44.9362 0.753512C51.6245 2.51783 56.1402 3.78814 57.1267 8.78704C58.4244 15.3444 54.8366 18.926 54.8366 18.926L54.6428 18.0791C54.3081 16.5618 52.8459 15.6502 51.3015 15.7796C48.0719 16.0501 43.4623 15.8031 39.9331 17.4204C38.2948 18.1732 36.357 17.8674 34.9066 16.797L32.0292 14.674L35.0651 18.2144C35.9283 19.22 36.1221 20.6139 35.623 21.8371C35.5231 22.0841 35.4527 22.3782 35.3705 22.6487L26.7854 17.3616C24.7537 16.109 22.1347 17.5675 22.123 19.9552L22.0995 25.4657C21.0542 22.978 20.42 19.52 20.8605 14.7269Z" fill="#1C1C5D"/>
<path d="M26.7934 17.3675L35.3784 22.6545C35.1435 23.4073 34.9556 24.2248 34.8734 25.1657C34.7207 26.8536 33.2292 25.795 31.6203 25.2657C30.6396 24.9423 29.5533 26.6948 29.1129 26.1185C28.0324 24.7129 26.2766 24.4424 26.0887 25.4716C25.5837 28.1945 25.6189 29.6236 25.8362 30.3705C24.6089 29.453 23.1585 27.9357 22.1133 25.4716L22.1368 19.961C22.1485 17.5733 24.7616 16.1148 26.7934 17.3675Z" fill="#1C1C5D"/>
<path d="M72.9251 101.055L103.337 83.7411C104.717 82.959 106.355 84.2234 105.95 85.7583L94.8751 127.843C94.3055 130.013 92.8845 131.866 90.9408 132.989L60.3588 150.579C58.9788 151.373 57.3287 150.103 57.7398 148.562L68.9614 106.207C69.5428 104.025 70.9697 102.172 72.9251 101.055Z" fill="#3C3B95"/>
<path d="M43.082 133.483C45.5836 134.418 47.7151 135.241 49.3182 135.877C50.3635 136.288 58.4318 136.623 62.877 136.776C65.0438 136.853 72.2136 134.271 73.1473 133.412C78.5614 128.472 69.5242 123.615 69.5242 123.615C68.5905 119.127 58.3554 127.955 53.8398 127.278C53.3524 127.202 52.8298 127.131 52.0077 126.831C50.3282 126.273 48.5725 125.52 46.7815 124.626L43.082 133.483Z" fill="#FBB2B8"/>
<path d="M52.0041 126.467C49.5966 127.202 47.8878 134.271 49.2853 136.335C49.2853 136.335 18.7679 129.66 11.4806 120.486C7.93385 116.016 8.15112 87.4167 8.22746 72.0025C8.25095 67.3623 11.9621 63.8631 16.5894 64.0807C20.7175 64.2747 24.0235 67.5681 24.2173 71.7025C24.6577 80.9887 25.2977 105.836 25.3917 109.5C25.3858 109.982 25.7264 110.3 26.1492 110.535C27.9695 111.547 52.0041 126.467 52.0041 126.467Z" fill="#E8EEFC"/>
<path d="M55.3028 21.0727C53.5236 22.8488 51.6034 23.3075 47.3579 23.9544C42.3255 24.719 28.2617 23.631 28.2617 23.631L29.9999 25.1189C30.9923 25.9716 31.8378 26.9832 32.4896 28.1182C32.5542 28.2359 32.6247 28.3535 32.6952 28.4711C34.0869 30.9117 36.5003 32.5996 39.2661 33.0583C39.2661 33.0583 51.392 34.8168 56.9059 29.5591C57.6106 28.8887 57.7985 27.8359 57.728 26.8656L57.3229 22.4548C57.2348 21.5432 56.4009 20.8963 55.4966 21.0433L55.3028 21.0727Z" fill="#5E81F4"/>
<path d="M41.0713 28.812C41.1241 29.0826 41.3473 29.2884 41.6232 29.3119C42.2927 29.3766 43.6256 29.4766 45.2581 29.4413C48.0826 29.3825 51.8642 28.9238 54.7709 27.2418C54.9765 27.1242 55.0822 26.8948 55.0587 26.6596C55.0117 26.2361 54.5537 26.0009 54.1837 26.2126C50.2083 28.4768 43.9604 28.2357 41.7348 28.0593C41.3179 28.0299 40.9891 28.4004 41.0713 28.812Z" fill="#CAD6F8"/>
<path d="M31.705 25.895C33.4784 28.4239 33.5841 31.4056 31.9458 32.5583C30.3074 33.7109 27.5417 32.5935 25.7742 30.0706C24.0008 27.5417 23.8951 24.56 25.5334 23.4073C27.1717 22.2547 29.9375 23.3662 31.705 25.895Z" fill="#FBB2B8"/>
<path d="M189.282 93.7331C189.282 93.7331 194.362 91.5395 195.137 91.2748C195.718 91.0749 196.335 90.969 196.957 90.969C197.897 90.969 198.854 91.2101 199.746 91.7218L216.893 101.62L217.862 97.6381C218.332 95.7033 217.474 93.6919 215.754 92.698L170.914 66.7743C168.847 65.5805 166.211 66.7097 165.647 69.0327L157.326 103.319C156.856 105.254 157.72 107.265 159.44 108.259L180.468 120.38L186.006 97.5735C186.452 95.7444 187.72 94.3918 189.282 93.7331Z" fill="#DDE5FB"/>
<path d="M196.957 92.3748C195.706 92.3748 194.479 93.0746 193.27 93.598C193.61 93.7156 193.921 93.8568 194.25 94.045L215.719 106.46L216.553 103.043L199.054 92.9452C198.396 92.563 197.691 92.3748 196.957 92.3748Z" fill="#DDE5FB"/>
<path d="M196.958 92.3746C197.692 92.3746 198.396 92.5628 199.048 92.9392L216.547 103.037L216.894 101.62L199.747 91.7218C198.854 91.2042 197.897 90.969 196.958 90.969C196.335 90.969 195.719 91.0749 195.137 91.2748C194.368 91.5395 189.283 93.7331 189.283 93.7331C187.721 94.3918 186.452 95.7444 186.006 97.5793L180.469 120.386L204.274 134.107C206.341 135.3 208.966 134.171 209.53 131.848L215.707 106.466L194.239 94.0507C193.916 93.8625 193.575 93.739 193.235 93.6214C194.45 93.0921 195.707 92.3746 196.958 92.3746Z" fill="#A3B9F2"/>
<path d="M216.893 101.625L216.547 103.043L219.618 104.813L219.964 103.396L216.893 101.625Z" fill="#00BFF5"/>
<path d="M234.059 153.085L261.271 168.817L267.712 142.346C268.446 139.323 267.102 136.171 264.412 134.618L215.709 106.46L209.531 131.842C208.968 134.165 206.343 135.289 204.276 134.101L180.47 120.38L172.983 151.232C172.249 154.261 173.6 157.407 176.295 158.966L221.587 185.066L228.804 155.343C229.356 153.02 231.992 151.891 234.059 153.085Z" fill="#61D8F9"/>
<path d="M212.02 131.29C211.48 131.631 209.154 133.201 208.215 133.836C208.837 133.36 209.325 132.683 209.53 131.842L215.708 106.46L218.843 108.277L213.805 128.978C213.553 130.025 212.842 130.772 212.02 131.29Z" fill="#00BFF5"/>
<path d="M272.926 141.887C273.93 137.776 272.098 133.489 268.44 131.378L219.96 103.396L219.613 104.813L267.741 132.589C270.848 134.383 272.421 138.065 271.57 141.552L264.47 170.669L265.733 171.398L272.926 141.887Z" fill="#00BFF5"/>
<path d="M254.523 196.305C255.616 195.699 256.784 194.981 257.113 194.811C258.152 194.264 258.945 193.288 259.239 192.076L264.459 170.663L261.265 168.817L254.682 195.864C254.653 196.022 254.576 196.158 254.523 196.305Z" fill="#DDE5FB"/>
<path d="M278.898 179.014L265.733 171.398L260.607 192.411C260.201 194.07 259.127 195.334 257.77 196.052C257.154 196.375 251.951 199.381 251.951 199.381C250.313 200.298 248.263 200.445 246.455 199.404L221.58 185.066L220.471 189.63C220.001 191.565 220.864 193.576 222.585 194.57L267.424 220.411C269.491 221.599 272.122 220.476 272.686 218.153L281.006 183.955C281.476 182.02 280.619 180.008 278.898 179.014Z" fill="#A3B5F6"/>
<path d="M264.466 170.669L259.246 192.082C258.952 193.294 258.159 194.264 257.12 194.817C256.791 194.987 255.623 195.705 254.531 196.311C254.577 196.164 254.654 196.028 254.695 195.875L261.278 168.828L234.066 153.097C231.999 151.903 229.363 153.032 228.799 155.355L221.582 185.078L246.456 199.416C248.265 200.457 250.314 200.31 251.953 199.392C251.953 199.392 257.155 196.387 257.772 196.064C259.128 195.352 260.203 194.082 260.608 192.423L265.735 171.41L264.466 170.669Z" fill="#00BFF5"/>
<path d="M202.717 149.827C202.6 149.827 202.483 149.797 202.371 149.738L186.311 140.658C185.976 140.464 185.859 140.041 186.047 139.705C186.234 139.37 186.663 139.252 187.004 139.441L203.064 148.521C203.399 148.715 203.516 149.139 203.328 149.48C203.199 149.697 202.958 149.827 202.717 149.827Z" fill="#00BFF5"/>
<path d="M233.661 144.51C233.543 144.51 233.426 144.481 233.314 144.422L217.248 135.341C216.914 135.147 216.796 134.724 216.984 134.383C217.178 134.042 217.601 133.93 217.941 134.118L234.007 143.199C234.342 143.393 234.459 143.816 234.272 144.151C234.142 144.381 233.902 144.51 233.661 144.51Z" fill="#00BFF5"/>
<path d="M235.184 138.117C235.067 138.117 234.949 138.088 234.838 138.029L218.772 128.949C218.437 128.755 218.32 128.331 218.507 127.99C218.701 127.649 219.124 127.537 219.459 127.726L235.525 136.806C235.86 137 235.977 137.423 235.789 137.759C235.666 137.988 235.425 138.117 235.184 138.117Z" fill="#00BFF5"/>
<path d="M236.704 131.719C236.586 131.719 236.469 131.689 236.357 131.631L220.291 122.55C219.957 122.356 219.839 121.933 220.027 121.592C220.221 121.251 220.644 121.139 220.984 121.327L237.05 130.407C237.385 130.601 237.502 131.025 237.315 131.366C237.185 131.589 236.95 131.719 236.704 131.719Z" fill="#00BFF5"/>
<path d="M206.209 159.525C206.092 159.525 205.975 159.495 205.863 159.436L184.483 147.351C184.148 147.157 184.03 146.733 184.218 146.392C184.412 146.057 184.835 145.939 185.17 146.127L206.55 158.213C206.885 158.407 207.002 158.831 206.814 159.166C206.691 159.395 206.456 159.525 206.209 159.525Z" fill="#00BFF5"/>
<path d="M222.01 152.544C221.893 152.544 221.775 152.514 221.664 152.456L187.799 133.313C187.464 133.119 187.347 132.695 187.535 132.36C187.729 132.019 188.151 131.907 188.486 132.095L222.351 151.238C222.685 151.432 222.803 151.856 222.615 152.197C222.492 152.414 222.251 152.544 222.01 152.544Z" fill="#00BFF5"/>
<path d="M254.597 155.908C254.479 155.908 254.356 155.878 254.25 155.819L239.012 147.174C238.736 147.016 238.601 146.704 238.677 146.398L240.351 139.523C240.404 139.311 240.551 139.135 240.75 139.047C240.95 138.964 241.179 138.97 241.373 139.082L256.623 147.645C256.899 147.798 257.034 148.115 256.963 148.421L255.278 155.378C255.225 155.59 255.078 155.772 254.879 155.855C254.785 155.884 254.691 155.908 254.597 155.908ZM240.163 146.21L254.133 154.137L255.477 148.598L241.496 140.746L240.163 146.21Z" fill="#00BFF5"/>
<path d="M143.777 445.385C169.07 445.385 189.574 435.164 189.574 422.555C189.574 409.946 169.07 399.725 143.777 399.725C118.484 399.725 97.9805 409.946 97.9805 422.555C97.9805 435.164 118.484 445.385 143.777 445.385Z" fill="#EAEFFC"/>
<path d="M222.602 130.219C221.433 130.184 220.506 130.566 219.713 131.607C218.245 132.083 215.884 133.595 215.35 135.518C214.81 137.441 214.146 140.405 214.146 140.405C213.911 141.499 214.81 145.869 214.81 145.869C214.352 146.28 213.923 146.662 213.107 147.174C211.991 147.898 210.875 148.568 209.789 149.262L216.501 157.825C217.3 157.054 218.069 156.366 218.768 155.737C219.684 154.914 225.796 148.609 228.997 144.969C230.553 143.193 233.372 135.359 233.33 134.018C232.931 126.043 222.602 130.219 222.602 130.219Z" fill="#FBB2B8"/>
<path d="M136.438 403.453C136.438 403.453 136.438 407.164 131.887 410.51C131.241 410.987 130.372 411.581 129.444 412.169C126.861 413.798 123.367 416.803 121.147 418.914C119.914 420.067 118.505 420.914 116.655 420.996C113.877 421.137 111.388 420.243 111.769 416.044C111.793 415.762 111.828 415.256 111.881 414.751C111.91 414.527 111.94 414.298 111.963 414.074C112.022 413.763 112.192 405.988 112.221 405.817C112.556 407.223 114.512 401.736 115.715 401.677C117.542 401.595 117.283 405.953 118.522 404.8C120.742 402.689 123.114 403.653 129.204 400.542L130.372 400.354C135.099 399.795 135.822 401.365 136.297 402.8C136.356 403.03 136.409 403.253 136.438 403.453Z" fill="#1C1C5D"/>
<path d="M172.058 422.649C172.058 422.649 167.777 422.231 166.344 422.178C162.973 422.055 155.604 419.938 153.308 421.532C150.689 423.343 144.875 424.866 144.793 419.973C144.793 419.949 141.481 421.067 141.47 421.049C141.405 422.09 141.111 428.148 141.088 428.53C140.982 430.324 141.346 432.159 142.309 433.676C144.517 437.157 151.364 435.129 155.281 434.34L166.984 432.77C171.241 431.912 174.025 428.912 174.794 426.319C174.982 424.566 173.79 422.961 172.058 422.649Z" fill="#1C1C5D"/>
<path d="M110.019 254.445L108.639 259.526C108.298 260.784 108.063 262.066 107.94 263.36C107.347 269.447 107.282 275.569 107.728 281.668L108.715 295L110.03 404.659C109.731 409.064 126.989 409.434 126.936 404.147L131.105 294.771L136.202 297.494L139.878 420.526C139.878 425.054 156.996 425.395 157.136 419.943C157.136 419.943 160.219 289.59 160.724 269.124C161.088 254.709 134.928 258.579 134.928 257.967L148.493 247.352L110.019 254.445Z" fill="#3C3B95"/>
<path d="M145.715 232.532C145.715 232.532 97.7334 241.095 91.0039 230.544C87.9915 225.827 105.766 177.515 105.766 177.515L110.018 172.245L122.044 175.691C123.647 176.138 125.961 173.709 125.961 173.709C123.982 180.173 113.647 211.642 111.21 219.023C110.828 220.17 146.261 222.616 146.261 222.616C143.565 223.363 143.166 231.414 145.715 232.532Z" fill="#CAD6F8"/>
<path d="M107.844 235.166C105.735 249.598 104.919 264.207 105.389 278.786L106.305 324.988C106.328 326.182 106.839 327.317 107.714 328.134C118.977 338.696 150.51 334.321 161.033 328.163C162.513 327.299 163.388 325.688 163.335 323.97C162.983 313.067 161.262 260.184 160.728 248.969C160.387 241.712 161.744 216.429 163.423 209.313C163.505 208.972 163.593 208.631 163.676 208.26C164.756 203.591 167.827 199.639 172.085 197.445C178.221 194.258 191.069 188.876 195.127 187C197.658 185.86 199.842 184.072 201.492 181.819L221.78 155.066C224.023 152.361 214.223 143.939 211.58 145.986L188.08 170.886L174.428 175.397C171.421 176.391 168.203 176.679 165.103 176.068C159.09 174.885 153.006 175.721 152.618 175.609C150.54 175.003 148.526 174.127 146.623 173.074C145.002 172.192 143.869 171.539 143.869 171.539L134.603 166.617C134.262 166.446 132.9 167.07 131.508 167.728C130.087 168.41 128.637 169.122 128.155 169.122C126.223 168.41 124.35 167.981 122.471 167.869C121.731 167.811 120.968 167.84 120.257 167.869C112.271 168.269 104.314 173.674 104.684 184.377L108.807 227.121C108.865 227.809 108.442 231.055 107.844 235.166Z" fill="#E8EEFC"/>
<path d="M154.939 156.26C152.549 168.099 144.686 169.228 137.299 165.658C129.066 161.677 124.016 151.991 123.529 144.904C122.783 134.112 129.571 127.061 138.508 126.443C158.861 125.032 155.767 152.155 154.939 156.26Z" fill="#FBB2B8"/>
<path d="M128.531 150.661L129.359 174.203C129.4 175.303 130.451 176.326 132.336 176.938C135.59 178.008 140.105 177.555 142.46 175.903C143.411 175.232 143.846 174.456 143.822 173.692C143.863 173.692 143.035 150.15 143.035 150.15L128.531 150.661Z" fill="#FBB2B8"/>
<path d="M129.254 170.075L129.559 173.839L126.617 171.445L128.261 168.969H129.16L129.254 170.075Z" fill="#93ACF1"/>
<path d="M151.815 175.497C151.815 175.497 149.836 172.098 147.446 171.245C145.056 170.393 127.675 173.827 127.675 171.092C127.675 170.263 129.225 169.752 129.225 169.752L129.114 167.329C129.114 167.329 126.459 168.687 125.602 169.493C124.046 170.969 123.112 174.515 125.678 176.779C133.03 183.272 151.815 175.497 151.815 175.497Z" fill="#CAD6F8"/>
<path d="M152.656 125.726C147.536 121.409 137.841 121.533 133.859 122.497C109.103 126.92 117.652 151.191 119.643 154.672C125.251 164.464 129.584 165.382 133.859 164.905C137.318 164.523 140.742 162.741 143.231 159.824C145.011 157.742 145.985 153.99 147.113 152.067C147.113 152.067 149.926 152.414 149.72 150.268C149.274 145.574 152.956 137.958 152.956 137.958C156.89 136.359 156.684 129.125 152.656 125.726Z" fill="#1C1C5D"/>
<path d="M149.112 153.778C151.073 156.207 151.384 159.212 149.805 160.489C148.231 161.765 145.365 160.83 143.404 158.395C141.443 155.966 141.132 152.961 142.711 151.685C144.291 150.414 147.156 151.35 149.112 153.778Z" fill="#FBB2B8"/>
<defs>
<linearGradient id="paint0_linear_775_341" x1="326.708" y1="6.54539" x2="326.708" y2="318.864" gradientUnits="userSpaceOnUse">
<stop/>
<stop offset="0.3925"/>
<stop offset="1" stop-color="#808080"/>
</linearGradient>
<linearGradient id="paint1_linear_775_341" x1="326.712" y1="6.54539" x2="326.712" y2="318.864" gradientUnits="userSpaceOnUse">
<stop stop-color="#2ACAF7" stop-opacity="0"/>
<stop offset="0.3925" stop-color="#2ACAF7" stop-opacity="0.4"/>
<stop offset="1" stop-color="#2ACAF7"/>
</linearGradient>
</defs>
</svg>
