<svg xmlns="http://www.w3.org/2000/svg" xmlns:xlink="http://www.w3.org/1999/xlink" viewBox="0 0 450 420"><defs><style>.cls-1{fill:#d4e2fc;}.cls-2{fill:#cddcfb;}.cls-3{fill:url(#linear-gradient);}.cls-4{fill:url(#linear-gradient-2);}.cls-5{fill:url(#linear-gradient-3);}.cls-6{fill:url(#linear-gradient-4);}.cls-7{fill:url(#linear-gradient-5);}.cls-8{fill:url(#linear-gradient-6);}.cls-9{fill:url(#linear-gradient-7);}.cls-10{fill:url(#linear-gradient-8);}.cls-11{fill:url(#linear-gradient-9);}.cls-12{fill:url(#linear-gradient-10);}.cls-13{isolation:isolate;}.cls-14,.cls-15{opacity:0.58;}.cls-14{fill:url(#linear-gradient-11);}.cls-15{fill:url(#linear-gradient-12);}.cls-16{fill:url(#linear-gradient-13);}.cls-17{fill:url(#linear-gradient-14);}.cls-18{fill:url(#linear-gradient-15);}.cls-19,.cls-316{opacity:0.1;}.cls-20{fill:url(#linear-gradient-16);}.cls-21{opacity:0.25;}.cls-22{fill:url(#linear-gradient-17);}.cls-23,.cls-314{opacity:0.4;}.cls-24{fill:url(#linear-gradient-18);}.cls-25{opacity:0.55;}.cls-26{fill:url(#linear-gradient-19);}.cls-27{opacity:0.7;}.cls-28{fill:url(#linear-gradient-20);}.cls-29{opacity:0.85;}.cls-30{fill:url(#linear-gradient-21);}.cls-31{fill:url(#linear-gradient-22);}.cls-32{clip-path:url(#clip-path);}.cls-33{clip-path:url(#clip-path-2);}.cls-34{clip-path:url(#clip-path-3);}.cls-35{fill:#f1f1f1;}.cls-36{fill:#38c5ea;}.cls-37{fill:url(#linear-gradient-23);}.cls-38{fill:#37404a;}.cls-39{fill:#777;}.cls-40{fill:#cbcbcb;}.cls-41{fill:#242a31;mix-blend-mode:screen;}.cls-42{fill:#ecf5fe;}.cls-43{fill:url(#linear-gradient-24);}.cls-314,.cls-315,.cls-316,.cls-317,.cls-44{fill:#eff6fe;}.cls-45{fill:url(#linear-gradient-25);}.cls-46{fill:url(#linear-gradient-26);}.cls-47{fill:url(#linear-gradient-27);}.cls-48{fill:url(#linear-gradient-28);}.cls-49{fill:url(#linear-gradient-29);}.cls-50{opacity:0.61;}.cls-51{opacity:0.3;}.cls-52{clip-path:url(#clip-path-4);}.cls-53{fill:url(#linear-gradient-31);}.cls-54{fill:url(#linear-gradient-32);}.cls-55{fill:url(#linear-gradient-33);}.cls-56{fill:url(#linear-gradient-34);}.cls-57{clip-path:url(#clip-path-5);}.cls-58{fill:url(#linear-gradient-36);}.cls-59{fill:url(#linear-gradient-37);}.cls-60{fill:url(#linear-gradient-38);}.cls-61{fill:url(#linear-gradient-39);}.cls-62{fill:url(#linear-gradient-40);}.cls-63{fill:url(#linear-gradient-41);}.cls-64{fill:url(#linear-gradient-42);}.cls-65{clip-path:url(#clip-path-6);}.cls-66{clip-path:url(#clip-path-7);}.cls-67{fill:url(#linear-gradient-47);}.cls-68{fill:url(#linear-gradient-48);}.cls-69{clip-path:url(#clip-path-8);}.cls-70{fill:url(#linear-gradient-51);}.cls-71{fill:url(#linear-gradient-52);}.cls-72{fill:url(#linear-gradient-53);}.cls-73{fill:url(#linear-gradient-54);}.cls-74{opacity:0.69;}.cls-75{fill:#e6f1fe;}.cls-76{clip-path:url(#clip-path-9);}.cls-77{fill:url(#linear-gradient-57);}.cls-78{fill:url(#linear-gradient-58);}.cls-79{clip-path:url(#clip-path-10);}.cls-80{fill:url(#linear-gradient-60);}.cls-81{fill:url(#linear-gradient-61);}.cls-82{fill:url(#linear-gradient-62);}.cls-83{fill:url(#linear-gradient-63);}.cls-84{fill:url(#linear-gradient-64);}.cls-85{clip-path:url(#clip-path-11);}.cls-86{fill:url(#linear-gradient-66);}.cls-87{fill:url(#linear-gradient-67);}.cls-88{clip-path:url(#clip-path-12);}.cls-89{fill:url(#linear-gradient-70);}.cls-90{fill:url(#linear-gradient-71);}.cls-91{clip-path:url(#clip-path-13);}.cls-92{fill:url(#linear-gradient-73);}.cls-93{fill:url(#linear-gradient-74);}.cls-300,.cls-94{opacity:0.6;}.cls-95{fill:url(#linear-gradient-75);}.cls-96{fill:url(#linear-gradient-76);}.cls-97{fill:url(#linear-gradient-77);}.cls-98{fill:url(#linear-gradient-78);}.cls-99{fill:url(#linear-gradient-79);}.cls-100{fill:url(#linear-gradient-80);}.cls-101{fill:url(#linear-gradient-81);}.cls-102{fill:url(#linear-gradient-82);}.cls-103{fill:url(#linear-gradient-83);}.cls-104{fill:url(#linear-gradient-84);}.cls-105{fill:url(#linear-gradient-85);}.cls-106{fill:url(#linear-gradient-86);}.cls-107{fill:url(#linear-gradient-87);}.cls-108{fill:url(#linear-gradient-88);}.cls-109{fill:url(#linear-gradient-89);}.cls-110{fill:url(#linear-gradient-90);}.cls-111{fill:url(#linear-gradient-91);}.cls-112{fill:url(#linear-gradient-92);}.cls-113{fill:url(#linear-gradient-93);}.cls-114{fill:url(#linear-gradient-94);}.cls-115{fill:url(#linear-gradient-95);}.cls-116{fill:url(#linear-gradient-96);}.cls-117{fill:url(#linear-gradient-97);}.cls-118{fill:url(#linear-gradient-98);}.cls-119{fill:url(#linear-gradient-99);}.cls-120{fill:url(#linear-gradient-100);}.cls-121{fill:url(#linear-gradient-101);}.cls-122{fill:url(#linear-gradient-102);}.cls-123{fill:url(#linear-gradient-103);}.cls-124{fill:url(#linear-gradient-104);}.cls-125{fill:url(#linear-gradient-105);}.cls-126{fill:url(#linear-gradient-106);}.cls-127{fill:url(#linear-gradient-107);}.cls-128{fill:url(#linear-gradient-108);}.cls-129{fill:url(#linear-gradient-109);}.cls-130{fill:url(#linear-gradient-110);}.cls-131{fill:url(#linear-gradient-111);}.cls-132{fill:url(#linear-gradient-112);}.cls-133{fill:url(#linear-gradient-113);}.cls-134{fill:url(#linear-gradient-114);}.cls-135{fill:url(#linear-gradient-115);}.cls-136{fill:url(#linear-gradient-116);}.cls-137{fill:url(#linear-gradient-117);}.cls-138{fill:url(#linear-gradient-118);}.cls-139{fill:url(#linear-gradient-119);}.cls-140{fill:url(#linear-gradient-120);}.cls-141{fill:url(#linear-gradient-121);}.cls-142{fill:url(#linear-gradient-122);}.cls-143{fill:url(#linear-gradient-123);}.cls-144{fill:url(#linear-gradient-124);}.cls-145{fill:url(#linear-gradient-125);}.cls-146{fill:url(#linear-gradient-126);}.cls-147{fill:url(#linear-gradient-127);}.cls-148{fill:url(#linear-gradient-128);}.cls-149{fill:url(#linear-gradient-129);}.cls-150{fill:url(#linear-gradient-130);}.cls-151{fill:url(#linear-gradient-131);}.cls-152{fill:url(#linear-gradient-132);}.cls-153{fill:url(#linear-gradient-133);}.cls-154{fill:url(#linear-gradient-134);}.cls-155{fill:url(#linear-gradient-135);}.cls-156{fill:url(#linear-gradient-136);}.cls-157{fill:url(#linear-gradient-137);}.cls-158{fill:url(#linear-gradient-138);}.cls-159{fill:url(#linear-gradient-139);}.cls-160{fill:url(#linear-gradient-140);}.cls-161{fill:url(#linear-gradient-141);}.cls-162{fill:url(#linear-gradient-142);}.cls-163{fill:url(#linear-gradient-143);}.cls-164{fill:url(#linear-gradient-144);}.cls-165{fill:url(#linear-gradient-145);}.cls-166{fill:url(#linear-gradient-146);}.cls-167{fill:url(#linear-gradient-147);}.cls-168{fill:url(#linear-gradient-148);}.cls-169{fill:url(#linear-gradient-149);}.cls-170{fill:url(#linear-gradient-150);}.cls-171{fill:url(#linear-gradient-151);}.cls-172{fill:url(#linear-gradient-152);}.cls-173{fill:url(#linear-gradient-153);}.cls-174{fill:url(#linear-gradient-154);}.cls-175{fill:url(#linear-gradient-155);}.cls-176{fill:url(#linear-gradient-156);}.cls-177{fill:url(#linear-gradient-157);}.cls-178{fill:url(#linear-gradient-158);}.cls-179{fill:url(#linear-gradient-159);}.cls-180{fill:url(#linear-gradient-160);}.cls-181{fill:url(#linear-gradient-161);}.cls-182{fill:url(#linear-gradient-162);}.cls-183{fill:url(#linear-gradient-163);}.cls-184{fill:url(#linear-gradient-164);}.cls-185{fill:url(#linear-gradient-165);}.cls-186{fill:url(#linear-gradient-166);}.cls-187{fill:url(#linear-gradient-167);}.cls-188{fill:url(#linear-gradient-168);}.cls-189{fill:url(#linear-gradient-169);}.cls-190{fill:url(#linear-gradient-170);}.cls-191{fill:url(#linear-gradient-171);}.cls-192{fill:url(#linear-gradient-172);}.cls-193{fill:url(#linear-gradient-173);}.cls-194{fill:url(#linear-gradient-174);}.cls-195{fill:url(#linear-gradient-175);}.cls-196{fill:url(#linear-gradient-176);}.cls-197{fill:url(#linear-gradient-177);}.cls-198{fill:url(#linear-gradient-178);}.cls-199{fill:url(#linear-gradient-179);}.cls-200{fill:url(#linear-gradient-180);}.cls-201{fill:url(#linear-gradient-181);}.cls-202{fill:url(#linear-gradient-182);}.cls-203{fill:url(#linear-gradient-183);}.cls-204{fill:url(#linear-gradient-184);}.cls-205{fill:url(#linear-gradient-185);}.cls-206{fill:url(#linear-gradient-186);}.cls-207{fill:url(#linear-gradient-187);}.cls-208{fill:url(#linear-gradient-188);}.cls-209{fill:url(#linear-gradient-189);}.cls-210{fill:url(#linear-gradient-190);}.cls-211{fill:url(#linear-gradient-191);}.cls-212{fill:url(#linear-gradient-192);}.cls-213{fill:url(#linear-gradient-193);}.cls-214{fill:url(#linear-gradient-194);}.cls-215{fill:url(#linear-gradient-195);}.cls-216{fill:url(#linear-gradient-196);}.cls-217{fill:url(#linear-gradient-197);}.cls-218{fill:url(#linear-gradient-198);}.cls-219{fill:url(#linear-gradient-199);}.cls-220{fill:url(#linear-gradient-200);}.cls-221{fill:url(#linear-gradient-201);}.cls-222{fill:url(#linear-gradient-202);}.cls-223{fill:url(#linear-gradient-203);}.cls-224{fill:url(#linear-gradient-204);}.cls-225{fill:url(#linear-gradient-205);}.cls-226{fill:url(#linear-gradient-206);}.cls-227{fill:url(#linear-gradient-207);}.cls-228{fill:url(#linear-gradient-208);}.cls-229{fill:url(#linear-gradient-209);}.cls-230{fill:url(#linear-gradient-210);}.cls-231{fill:url(#linear-gradient-211);}.cls-232{fill:url(#linear-gradient-212);}.cls-233{fill:url(#linear-gradient-213);}.cls-234{fill:url(#linear-gradient-214);}.cls-235{fill:url(#linear-gradient-215);}.cls-236{fill:url(#linear-gradient-216);}.cls-237{fill:url(#linear-gradient-217);}.cls-238{fill:url(#linear-gradient-218);}.cls-239{fill:url(#linear-gradient-219);}.cls-240{fill:url(#linear-gradient-220);}.cls-241{fill:url(#linear-gradient-221);}.cls-242{fill:url(#linear-gradient-222);}.cls-243{fill:url(#linear-gradient-223);}.cls-244{fill:url(#linear-gradient-224);}.cls-245{fill:url(#linear-gradient-225);}.cls-246{fill:url(#linear-gradient-226);}.cls-247{fill:url(#linear-gradient-227);}.cls-248{fill:url(#linear-gradient-228);}.cls-249{fill:url(#linear-gradient-229);}.cls-250{fill:url(#linear-gradient-230);}.cls-251{fill:url(#linear-gradient-231);}.cls-252{fill:url(#linear-gradient-232);}.cls-253{fill:url(#linear-gradient-233);}.cls-254{fill:url(#linear-gradient-234);}.cls-255{fill:url(#linear-gradient-235);}.cls-256{fill:url(#linear-gradient-236);}.cls-257{fill:url(#linear-gradient-237);}.cls-258{fill:url(#linear-gradient-238);}.cls-259{fill:url(#linear-gradient-239);}.cls-260{fill:url(#linear-gradient-240);}.cls-261{fill:url(#linear-gradient-241);}.cls-262{fill:url(#linear-gradient-242);}.cls-263{fill:url(#linear-gradient-243);}.cls-264{fill:url(#linear-gradient-244);}.cls-265{fill:url(#linear-gradient-245);}.cls-266{fill:url(#linear-gradient-246);}.cls-267{fill:url(#linear-gradient-247);}.cls-268{fill:url(#linear-gradient-248);}.cls-269{fill:url(#linear-gradient-249);}.cls-270{fill:url(#linear-gradient-250);}.cls-271{fill:url(#linear-gradient-251);}.cls-272{fill:url(#linear-gradient-252);}.cls-273{fill:url(#linear-gradient-253);}.cls-274{fill:url(#linear-gradient-254);}.cls-275{fill:url(#linear-gradient-255);}.cls-276{fill:url(#linear-gradient-256);}.cls-277{fill:url(#linear-gradient-257);}.cls-278{fill:url(#linear-gradient-258);}.cls-279{fill:url(#linear-gradient-259);}.cls-280{fill:url(#linear-gradient-260);}.cls-281{fill:url(#linear-gradient-261);}.cls-282{fill:url(#linear-gradient-262);}.cls-283{fill:url(#linear-gradient-263);}.cls-284{fill:url(#linear-gradient-264);}.cls-285{fill:url(#linear-gradient-265);}.cls-286{fill:url(#linear-gradient-266);}.cls-287{fill:url(#linear-gradient-267);}.cls-288{fill:url(#linear-gradient-268);}.cls-289{fill:url(#linear-gradient-269);}.cls-290{fill:url(#linear-gradient-270);}.cls-291{fill:url(#linear-gradient-271);}.cls-292{fill:url(#linear-gradient-272);}.cls-293{fill:url(#linear-gradient-273);}.cls-294{fill:url(#linear-gradient-274);}.cls-295{fill:url(#linear-gradient-275);}.cls-296{fill:url(#linear-gradient-276);}.cls-297{fill:url(#linear-gradient-277);}.cls-298{fill:url(#linear-gradient-278);}.cls-299{fill:url(#linear-gradient-279);}.cls-300{fill:url(#linear-gradient-280);}.cls-301{fill:url(#linear-gradient-281);}.cls-302{fill:url(#linear-gradient-282);}.cls-303{opacity:0.64;}.cls-304{fill:url(#linear-gradient-283);}.cls-305{fill:url(#linear-gradient-284);}.cls-306{fill:url(#linear-gradient-285);}.cls-307{fill:#b5b3c4;}.cls-308{fill:#fbc70e;}.cls-309{fill:url(#linear-gradient-286);}.cls-310{fill:url(#linear-gradient-287);}.cls-311{fill:url(#linear-gradient-288);}.cls-312{fill:#ffb700;}.cls-313{mix-blend-mode:overlay;}.cls-315{opacity:0.3;}.cls-317{opacity:0.5;}</style><linearGradient id="linear-gradient" x1="112.49" y1="223.74" x2="114.4" y2="223.74" gradientUnits="userSpaceOnUse"><stop offset="0" stop-color="#0984bd"/><stop offset="1" stop-color="#56a5d7"/></linearGradient><linearGradient id="linear-gradient-2" x1="223.66" y1="237.86" x2="225.6" y2="237.86" xlink:href="#linear-gradient"/><linearGradient id="linear-gradient-3" x1="176.44" y1="261.68" x2="185.7" y2="261.68" xlink:href="#linear-gradient"/><linearGradient id="linear-gradient-4" x1="246.39" y1="268.14" x2="289.37" y2="268.14" gradientUnits="userSpaceOnUse"><stop offset="0.05" stop-color="#14416a"/><stop offset="1" stop-color="#004f98"/></linearGradient><linearGradient id="linear-gradient-5" x1="246.39" y1="266.36" x2="289.37" y2="266.36" xlink:href="#linear-gradient-4"/><linearGradient id="linear-gradient-6" x1="218.31" y1="128.31" x2="224.71" y2="128.31" xlink:href="#linear-gradient"/><linearGradient id="linear-gradient-7" x1="320.78" y1="264.65" x2="325.48" y2="264.65" xlink:href="#linear-gradient"/><linearGradient id="linear-gradient-8" x1="318.12" y1="188.05" x2="325.68" y2="188.05" xlink:href="#linear-gradient"/><linearGradient id="linear-gradient-9" x1="226.52" y1="230.71" x2="230.03" y2="230.71" xlink:href="#linear-gradient"/><linearGradient id="linear-gradient-10" x1="223.37" y1="181.59" x2="230.15" y2="181.59" xlink:href="#linear-gradient"/><linearGradient id="linear-gradient-11" x1="158.69" y1="187.33" x2="225.45" y2="187.33" gradientUnits="userSpaceOnUse"><stop offset="0" stop-color="#abd1ec"/><stop offset="1" stop-color="#2a92c8"/></linearGradient><linearGradient id="linear-gradient-12" x1="160.1" y1="187.07" x2="225.45" y2="187.07" xlink:href="#linear-gradient-11"/><linearGradient id="linear-gradient-13" x1="225.56" y1="292.32" x2="401.73" y2="292.32" gradientUnits="userSpaceOnUse"><stop offset="0" stop-color="#abd1ec"/><stop offset="0.57" stop-color="#eef6fb"/></linearGradient><linearGradient id="linear-gradient-14" x1="48.27" y1="292.32" x2="225.61" y2="292.32" xlink:href="#linear-gradient-13"/><linearGradient id="linear-gradient-15" x1="48.32" y1="233.05" x2="401.73" y2="233.05" xlink:href="#linear-gradient-13"/><linearGradient id="linear-gradient-16" x1="226.09" y1="135.71" x2="371.48" y2="135.71" gradientUnits="userSpaceOnUse"><stop offset="0" stop-color="#abd1ec"/><stop offset="1" stop-color="#abd1ec"/></linearGradient><linearGradient id="linear-gradient-17" x1="218.86" y1="139.86" x2="364.25" y2="139.86" xlink:href="#linear-gradient-16"/><linearGradient id="linear-gradient-18" x1="211.63" y1="144.01" x2="357.02" y2="144.01" xlink:href="#linear-gradient-16"/><linearGradient id="linear-gradient-19" x1="204.4" y1="148.17" x2="349.79" y2="148.17" xlink:href="#linear-gradient-16"/><linearGradient id="linear-gradient-20" x1="197.17" y1="152.32" x2="342.56" y2="152.32" xlink:href="#linear-gradient-16"/><linearGradient id="linear-gradient-21" x1="189.94" y1="156.48" x2="335.33" y2="156.48" xlink:href="#linear-gradient-16"/><linearGradient id="linear-gradient-22" x1="182.71" y1="160.63" x2="328.11" y2="160.63" xlink:href="#linear-gradient-16"/><clipPath id="clip-path"><path class="cls-1" d="M240.45,264.37v-2.32a2.12,2.12,0,0,1-1.27,1.76v2.33A2.16,2.16,0,0,0,240.45,264.37Z"/></clipPath><clipPath id="clip-path-2"><path class="cls-2" d="M181.56,272.75v2.33a2.11,2.11,0,0,0,1.24,1.74v-2.33A2.13,2.13,0,0,1,181.56,272.75Z"/></clipPath><clipPath id="clip-path-3"><path class="cls-1" d="M198.67,283.71V286a6.69,6.69,0,0,0,6,0v-2.33A6.65,6.65,0,0,1,198.67,283.71Z"/></clipPath><linearGradient id="linear-gradient-23" x1="213.79" y1="258.77" x2="238.13" y2="258.77" xlink:href="#linear-gradient-4"/><linearGradient id="linear-gradient-24" x1="190.78" y1="104.72" x2="227.55" y2="104.72" xlink:href="#linear-gradient"/><linearGradient id="linear-gradient-25" x1="255.6" y1="125.08" x2="308.02" y2="125.08" xlink:href="#linear-gradient"/><linearGradient id="linear-gradient-26" x1="226.08" y1="92.61" x2="267.89" y2="92.61" xlink:href="#linear-gradient"/><linearGradient id="linear-gradient-27" x1="295.73" y1="188.59" x2="340.39" y2="188.59" xlink:href="#linear-gradient"/><linearGradient id="linear-gradient-28" x1="235.53" y1="146.77" x2="253.48" y2="146.77" gradientUnits="userSpaceOnUse"><stop offset="0" stop-color="#f57454"/><stop offset="1" stop-color="#f7947c"/></linearGradient><linearGradient id="linear-gradient-29" x1="253.53" y1="158.89" x2="271.48" y2="158.89" xlink:href="#linear-gradient-28"/><clipPath id="clip-path-4"><path class="cls-6" d="M246.39,260.52v3c0,3.17,2.09,6.33,6.25,8.74,8.36,4.86,22,4.86,30.39,0,4.23-2.44,6.35-5.65,6.34-8.86v-3c0,3.21-2.1,6.42-6.34,8.87-8.42,4.86-22,4.86-30.39,0C248.47,266.84,246.39,263.68,246.39,260.52Z"/></clipPath><linearGradient id="linear-gradient-31" x1="246.39" y1="264.44" x2="248.11" y2="264.44" xlink:href="#linear-gradient-4"/><linearGradient id="linear-gradient-32" x1="248.1" y1="270.63" x2="267.47" y2="270.63" xlink:href="#linear-gradient-4"/><linearGradient id="linear-gradient-33" x1="267.46" y1="268.14" x2="289.37" y2="268.14" xlink:href="#linear-gradient-4"/><linearGradient id="linear-gradient-34" x1="246.39" y1="260.45" x2="289.36" y2="260.45" xlink:href="#linear-gradient-4"/><clipPath id="clip-path-5"><path class="cls-7" d="M246.39,258.73v3c0,3.16,2.09,6.32,6.25,8.74,8.36,4.86,22,4.86,30.39,0,4.23-2.45,6.35-5.66,6.34-8.86v-3c0,3.21-2.1,6.42-6.34,8.87-8.42,4.86-22,4.86-30.39,0C248.47,265.06,246.39,261.9,246.39,258.73Z"/></clipPath><linearGradient id="linear-gradient-36" x1="246.39" y1="262.66" x2="248.11" y2="262.66" xlink:href="#linear-gradient-4"/><linearGradient id="linear-gradient-37" x1="248.1" y1="268.85" x2="267.47" y2="268.85" xlink:href="#linear-gradient-4"/><linearGradient id="linear-gradient-38" x1="267.36" y1="266.08" x2="289.27" y2="266.08" xlink:href="#linear-gradient-4"/><linearGradient id="linear-gradient-39" x1="246.39" y1="258.67" x2="289.36" y2="258.67" xlink:href="#linear-gradient-4"/><linearGradient id="linear-gradient-40" x1="272.23" y1="243.12" x2="283.79" y2="243.12" xlink:href="#linear-gradient-4"/><linearGradient id="linear-gradient-41" x1="253.98" y1="219.73" x2="277.39" y2="219.73" xlink:href="#linear-gradient-4"/><linearGradient id="linear-gradient-42" x1="253.98" y1="239.38" x2="278.63" y2="239.38" xlink:href="#linear-gradient-4"/><clipPath id="clip-path-6"><path class="cls-8" d="M221.83,127.28l-3.52,2a2.88,2.88,0,0,1,2.88.29l3.52-2A2.83,2.83,0,0,0,221.83,127.28Z"/></clipPath><clipPath id="clip-path-7"><path class="cls-9" d="M320.78,267l3.51-2a2.84,2.84,0,0,0,1.19-2.6L322,264.38A2.81,2.81,0,0,1,320.78,267Z"/></clipPath><linearGradient id="linear-gradient-47" x1="321.96" y1="227.45" x2="325.68" y2="227.45" xlink:href="#linear-gradient"/><linearGradient id="linear-gradient-48" x1="221.19" y1="156.57" x2="321.64" y2="156.57" xlink:href="#linear-gradient"/><clipPath id="clip-path-8"><path class="cls-10" d="M322.16,192.57l3.52-2a8.88,8.88,0,0,0-4-7l-3.52,2A8.88,8.88,0,0,1,322.16,192.57Z"/></clipPath><linearGradient id="linear-gradient-51" x1="329.8" y1="246.92" x2="217.73" y2="156.21" xlink:href="#linear-gradient-13"/><linearGradient id="linear-gradient-52" x1="219.09" y1="233.2" x2="319.81" y2="233.2" xlink:href="#linear-gradient"/><linearGradient id="linear-gradient-53" x1="219.1" y1="195.34" x2="320" y2="195.34" xlink:href="#linear-gradient-16"/><linearGradient id="linear-gradient-54" x1="220.64" y1="194.88" x2="320" y2="194.88" xlink:href="#linear-gradient-28"/><clipPath id="clip-path-9"><path class="cls-11" d="M226.52,232.83l2.15-1.25a3.29,3.29,0,0,0,1.36-3l-2.16,1.25A3.24,3.24,0,0,1,226.52,232.83Z"/></clipPath><linearGradient id="linear-gradient-57" x1="227.87" y1="207.41" x2="230.15" y2="207.41" xlink:href="#linear-gradient"/><linearGradient id="linear-gradient-58" x1="160.92" y1="159.56" x2="225.53" y2="159.56" xlink:href="#linear-gradient"/><clipPath id="clip-path-10"><path class="cls-12" d="M228,186.23l2.16-1.26a10.2,10.2,0,0,0-4.62-8l-2.16,1.26A10.17,10.17,0,0,1,228,186.23Z"/></clipPath><linearGradient id="linear-gradient-60" x1="227.18" y1="183.84" x2="230.15" y2="183.84" xlink:href="#linear-gradient"/><linearGradient id="linear-gradient-61" x1="225.62" y1="180.82" x2="229.33" y2="180.82" xlink:href="#linear-gradient"/><linearGradient id="linear-gradient-62" x1="223.37" y1="178.57" x2="227.77" y2="178.57" xlink:href="#linear-gradient"/><linearGradient id="linear-gradient-63" x1="156.14" y1="187.33" x2="227.99" y2="187.33" xlink:href="#linear-gradient-13"/><linearGradient id="linear-gradient-64" x1="157.62" y1="141.21" x2="163.07" y2="141.21" xlink:href="#linear-gradient"/><clipPath id="clip-path-11"><path class="cls-3" d="M112.49,221.16v2.5a3.22,3.22,0,0,0,1.9,2.65v-2.49A3.27,3.27,0,0,1,112.49,221.16Z"/></clipPath><linearGradient id="linear-gradient-66" x1="112.49" y1="222.86" x2="112.69" y2="222.86" xlink:href="#linear-gradient"/><linearGradient id="linear-gradient-67" x1="112.68" y1="224.18" x2="114.4" y2="224.18" xlink:href="#linear-gradient"/><clipPath id="clip-path-12"><path class="cls-4" d="M225.6,237.75v-2.49a3.28,3.28,0,0,1-1.93,2.7v2.49A3.28,3.28,0,0,0,225.6,237.75Z"/></clipPath><linearGradient id="linear-gradient-70" x1="114.39" y1="243.1" x2="176.44" y2="243.1" xlink:href="#linear-gradient"/><linearGradient id="linear-gradient-71" x1="185.69" y1="250.17" x2="223.66" y2="250.17" xlink:href="#linear-gradient"/><clipPath id="clip-path-13"><path class="cls-5" d="M176.44,259.88v2.49a10.21,10.21,0,0,0,9.26,0v-2.49A10.19,10.19,0,0,1,176.44,259.88Z"/></clipPath><linearGradient id="linear-gradient-73" x1="176.44" y1="261.68" x2="181.18" y2="261.68" xlink:href="#linear-gradient"/><linearGradient id="linear-gradient-74" x1="181.18" y1="261.68" x2="185.7" y2="261.68" xlink:href="#linear-gradient"/><linearGradient id="linear-gradient-75" x1="127.11" y1="224.84" x2="221.81" y2="224.84" xlink:href="#linear-gradient"/><linearGradient id="linear-gradient-76" x1="127.14" y1="225.26" x2="221.73" y2="225.26" xlink:href="#linear-gradient-16"/><linearGradient id="linear-gradient-77" x1="153.75" y1="202.67" x2="157.5" y2="202.67" xlink:href="#linear-gradient-4"/><linearGradient id="linear-gradient-78" x1="157.5" y1="202.67" x2="161.27" y2="202.67" xlink:href="#linear-gradient-4"/><linearGradient id="linear-gradient-79" x1="158.46" y1="205.4" x2="162.2" y2="205.4" xlink:href="#linear-gradient-4"/><linearGradient id="linear-gradient-80" x1="162.2" y1="205.4" x2="165.97" y2="205.4" xlink:href="#linear-gradient-4"/><linearGradient id="linear-gradient-81" x1="163.16" y1="208.13" x2="166.91" y2="208.13" xlink:href="#linear-gradient-4"/><linearGradient id="linear-gradient-82" x1="166.91" y1="208.14" x2="170.68" y2="208.14" xlink:href="#linear-gradient-4"/><linearGradient id="linear-gradient-83" x1="167.87" y1="210.87" x2="171.61" y2="210.87" xlink:href="#linear-gradient-4"/><linearGradient id="linear-gradient-84" x1="171.61" y1="210.87" x2="175.38" y2="210.87" xlink:href="#linear-gradient-4"/><linearGradient id="linear-gradient-85" x1="172.57" y1="213.6" x2="176.32" y2="213.6" xlink:href="#linear-gradient-4"/><linearGradient id="linear-gradient-86" x1="176.32" y1="213.6" x2="180.09" y2="213.6" xlink:href="#linear-gradient-4"/><linearGradient id="linear-gradient-87" x1="177.28" y1="216.34" x2="181.03" y2="216.34" xlink:href="#linear-gradient-4"/><linearGradient id="linear-gradient-88" x1="181.03" y1="216.34" x2="184.8" y2="216.34" xlink:href="#linear-gradient-4"/><linearGradient id="linear-gradient-89" x1="181.98" y1="219.07" x2="185.73" y2="219.07" xlink:href="#linear-gradient-4"/><linearGradient id="linear-gradient-90" x1="185.73" y1="219.07" x2="189.5" y2="219.07" xlink:href="#linear-gradient-4"/><linearGradient id="linear-gradient-91" x1="186.69" y1="221.81" x2="190.44" y2="221.81" xlink:href="#linear-gradient-4"/><linearGradient id="linear-gradient-92" x1="190.44" y1="221.81" x2="194.21" y2="221.81" xlink:href="#linear-gradient-4"/><linearGradient id="linear-gradient-93" x1="191.39" y1="224.54" x2="195.14" y2="224.54" xlink:href="#linear-gradient-4"/><linearGradient id="linear-gradient-94" x1="195.14" y1="224.54" x2="198.91" y2="224.54" xlink:href="#linear-gradient-4"/><linearGradient id="linear-gradient-95" x1="196.1" y1="227.28" x2="199.85" y2="227.28" xlink:href="#linear-gradient-4"/><linearGradient id="linear-gradient-96" x1="199.85" y1="227.28" x2="203.62" y2="227.28" xlink:href="#linear-gradient-4"/><linearGradient id="linear-gradient-97" x1="200.81" y1="230.01" x2="204.55" y2="230.01" xlink:href="#linear-gradient-4"/><linearGradient id="linear-gradient-98" x1="204.55" y1="230.01" x2="208.32" y2="230.01" xlink:href="#linear-gradient-4"/><linearGradient id="linear-gradient-99" x1="205.51" y1="232.75" x2="209.26" y2="232.75" xlink:href="#linear-gradient-4"/><linearGradient id="linear-gradient-100" x1="209.26" y1="232.75" x2="213.03" y2="232.75" xlink:href="#linear-gradient-4"/><linearGradient id="linear-gradient-101" x1="210.22" y1="235.48" x2="213.97" y2="235.48" xlink:href="#linear-gradient-4"/><linearGradient id="linear-gradient-102" x1="213.97" y1="235.48" x2="217.74" y2="235.48" xlink:href="#linear-gradient-4"/><linearGradient id="linear-gradient-103" x1="149.25" y1="206.63" x2="156.88" y2="206.63" xlink:href="#linear-gradient-4"/><linearGradient id="linear-gradient-104" x1="156.88" y1="207.76" x2="160.65" y2="207.76" xlink:href="#linear-gradient-4"/><linearGradient id="linear-gradient-105" x1="157.73" y1="210.43" x2="161.48" y2="210.43" xlink:href="#linear-gradient-4"/><linearGradient id="linear-gradient-106" x1="161.47" y1="210.43" x2="165.24" y2="210.43" xlink:href="#linear-gradient-4"/><linearGradient id="linear-gradient-107" x1="162.21" y1="213.04" x2="165.96" y2="213.04" xlink:href="#linear-gradient-4"/><linearGradient id="linear-gradient-108" x1="165.96" y1="213.04" x2="169.73" y2="213.04" xlink:href="#linear-gradient-4"/><linearGradient id="linear-gradient-109" x1="166.7" y1="215.65" x2="170.45" y2="215.65" xlink:href="#linear-gradient-4"/><linearGradient id="linear-gradient-110" x1="170.45" y1="215.65" x2="174.22" y2="215.65" xlink:href="#linear-gradient-4"/><linearGradient id="linear-gradient-111" x1="171.19" y1="218.26" x2="174.94" y2="218.26" xlink:href="#linear-gradient-4"/><linearGradient id="linear-gradient-112" x1="174.94" y1="218.26" x2="178.71" y2="218.26" xlink:href="#linear-gradient-4"/><linearGradient id="linear-gradient-113" x1="175.68" y1="220.87" x2="179.43" y2="220.87" xlink:href="#linear-gradient-4"/><linearGradient id="linear-gradient-114" x1="179.43" y1="220.87" x2="183.2" y2="220.87" xlink:href="#linear-gradient-4"/><linearGradient id="linear-gradient-115" x1="180.17" y1="223.48" x2="183.92" y2="223.48" xlink:href="#linear-gradient-4"/><linearGradient id="linear-gradient-116" x1="183.92" y1="223.48" x2="187.69" y2="223.48" xlink:href="#linear-gradient-4"/><linearGradient id="linear-gradient-117" x1="184.66" y1="226.09" x2="188.41" y2="226.09" xlink:href="#linear-gradient-4"/><linearGradient id="linear-gradient-118" x1="188.41" y1="226.09" x2="192.18" y2="226.09" xlink:href="#linear-gradient-4"/><linearGradient id="linear-gradient-119" x1="189.15" y1="228.69" x2="192.9" y2="228.69" xlink:href="#linear-gradient-4"/><linearGradient id="linear-gradient-120" x1="192.9" y1="228.69" x2="196.67" y2="228.69" xlink:href="#linear-gradient-4"/><linearGradient id="linear-gradient-121" x1="193.64" y1="231.3" x2="197.39" y2="231.3" xlink:href="#linear-gradient-4"/><linearGradient id="linear-gradient-122" x1="197.39" y1="231.3" x2="201.16" y2="231.3" xlink:href="#linear-gradient-4"/><linearGradient id="linear-gradient-123" x1="198.13" y1="233.91" x2="201.88" y2="233.91" xlink:href="#linear-gradient-4"/><linearGradient id="linear-gradient-124" x1="201.87" y1="233.91" x2="205.64" y2="233.91" xlink:href="#linear-gradient-4"/><linearGradient id="linear-gradient-125" x1="202.66" y1="237.38" x2="209.28" y2="237.38" xlink:href="#linear-gradient-4"/><linearGradient id="linear-gradient-126" x1="209.28" y1="238.21" x2="213.05" y2="238.21" xlink:href="#linear-gradient-4"/><linearGradient id="linear-gradient-127" x1="144.54" y1="209.9" x2="154.04" y2="209.9" xlink:href="#linear-gradient-4"/><linearGradient id="linear-gradient-128" x1="154.03" y1="211.57" x2="157.81" y2="211.57" xlink:href="#linear-gradient-4"/><linearGradient id="linear-gradient-129" x1="154.89" y1="214.24" x2="158.63" y2="214.24" xlink:href="#linear-gradient-4"/><linearGradient id="linear-gradient-130" x1="158.63" y1="214.24" x2="162.41" y2="214.24" xlink:href="#linear-gradient-4"/><linearGradient id="linear-gradient-131" x1="159.31" y1="216.81" x2="163.06" y2="216.81" xlink:href="#linear-gradient-4"/><linearGradient id="linear-gradient-132" x1="163.06" y1="216.81" x2="166.83" y2="216.81" xlink:href="#linear-gradient-4"/><linearGradient id="linear-gradient-133" x1="163.74" y1="219.38" x2="167.48" y2="219.38" xlink:href="#linear-gradient-4"/><linearGradient id="linear-gradient-134" x1="167.48" y1="219.38" x2="171.25" y2="219.38" xlink:href="#linear-gradient-4"/><linearGradient id="linear-gradient-135" x1="168.16" y1="221.96" x2="171.91" y2="221.96" xlink:href="#linear-gradient-4"/><linearGradient id="linear-gradient-136" x1="171.9" y1="221.95" x2="175.68" y2="221.95" xlink:href="#linear-gradient-4"/><linearGradient id="linear-gradient-137" x1="172.58" y1="224.53" x2="176.33" y2="224.53" xlink:href="#linear-gradient-4"/><linearGradient id="linear-gradient-138" x1="176.33" y1="224.53" x2="180.1" y2="224.53" xlink:href="#linear-gradient-4"/><linearGradient id="linear-gradient-139" x1="177.01" y1="227.1" x2="180.75" y2="227.1" xlink:href="#linear-gradient-4"/><linearGradient id="linear-gradient-140" x1="180.75" y1="227.1" x2="184.53" y2="227.1" xlink:href="#linear-gradient-4"/><linearGradient id="linear-gradient-141" x1="181.43" y1="229.67" x2="185.18" y2="229.67" xlink:href="#linear-gradient-4"/><linearGradient id="linear-gradient-142" x1="185.18" y1="229.67" x2="188.95" y2="229.67" xlink:href="#linear-gradient-4"/><linearGradient id="linear-gradient-143" x1="185.86" y1="232.24" x2="189.6" y2="232.24" xlink:href="#linear-gradient-4"/><linearGradient id="linear-gradient-144" x1="189.6" y1="232.24" x2="193.38" y2="232.24" xlink:href="#linear-gradient-4"/><linearGradient id="linear-gradient-145" x1="190.28" y1="234.81" x2="194.03" y2="234.81" xlink:href="#linear-gradient-4"/><linearGradient id="linear-gradient-146" x1="194.03" y1="234.81" x2="197.8" y2="234.81" xlink:href="#linear-gradient-4"/><linearGradient id="linear-gradient-147" x1="195.01" y1="239.25" x2="204.56" y2="239.25" xlink:href="#linear-gradient-4"/><linearGradient id="linear-gradient-148" x1="204.56" y1="240.93" x2="208.34" y2="240.93" xlink:href="#linear-gradient-4"/><linearGradient id="linear-gradient-149" x1="144.65" y1="213.2" x2="146.8" y2="213.2" xlink:href="#linear-gradient-4"/><linearGradient id="linear-gradient-150" x1="146.8" y1="212.76" x2="150.5" y2="212.76" xlink:href="#linear-gradient-4"/><linearGradient id="linear-gradient-151" x1="139.87" y1="213.96" x2="144.65" y2="213.96" xlink:href="#linear-gradient-4"/><linearGradient id="linear-gradient-152" x1="135.12" y1="213.96" x2="139.87" y2="213.96" xlink:href="#linear-gradient-4"/><linearGradient id="linear-gradient-153" x1="151.33" y1="215.46" x2="155.11" y2="215.46" xlink:href="#linear-gradient-4"/><linearGradient id="linear-gradient-154" x1="147.59" y1="215.46" x2="151.33" y2="215.46" xlink:href="#linear-gradient-4"/><linearGradient id="linear-gradient-155" x1="144.56" y1="216.97" x2="148.33" y2="216.97" xlink:href="#linear-gradient-4"/><linearGradient id="linear-gradient-156" x1="140.81" y1="216.97" x2="144.56" y2="216.97" xlink:href="#linear-gradient-4"/><linearGradient id="linear-gradient-157" x1="130.24" y1="218.15" x2="139.74" y2="218.15" xlink:href="#linear-gradient-4"/><linearGradient id="linear-gradient-158" x1="139.74" y1="219.82" x2="143.51" y2="219.82" xlink:href="#linear-gradient-4"/><linearGradient id="linear-gradient-159" x1="152.05" y1="218.05" x2="155.8" y2="218.05" xlink:href="#linear-gradient-4"/><linearGradient id="linear-gradient-160" x1="155.8" y1="218.05" x2="159.57" y2="218.05" xlink:href="#linear-gradient-4"/><linearGradient id="linear-gradient-161" x1="156.52" y1="220.65" x2="160.27" y2="220.65" xlink:href="#linear-gradient-4"/><linearGradient id="linear-gradient-162" x1="160.27" y1="220.65" x2="164.04" y2="220.65" xlink:href="#linear-gradient-4"/><linearGradient id="linear-gradient-163" x1="160.99" y1="223.24" x2="164.74" y2="223.24" xlink:href="#linear-gradient-4"/><linearGradient id="linear-gradient-164" x1="164.73" y1="223.24" x2="168.51" y2="223.24" xlink:href="#linear-gradient-4"/><linearGradient id="linear-gradient-165" x1="165.45" y1="225.84" x2="169.2" y2="225.84" xlink:href="#linear-gradient-4"/><linearGradient id="linear-gradient-166" x1="169.2" y1="225.84" x2="172.97" y2="225.84" xlink:href="#linear-gradient-4"/><linearGradient id="linear-gradient-167" x1="169.92" y1="228.43" x2="173.67" y2="228.43" xlink:href="#linear-gradient-4"/><linearGradient id="linear-gradient-168" x1="173.67" y1="228.43" x2="177.44" y2="228.43" xlink:href="#linear-gradient-4"/><linearGradient id="linear-gradient-169" x1="174.39" y1="231.03" x2="178.13" y2="231.03" xlink:href="#linear-gradient-4"/><linearGradient id="linear-gradient-170" x1="178.13" y1="231.03" x2="181.91" y2="231.03" xlink:href="#linear-gradient-4"/><linearGradient id="linear-gradient-171" x1="178.85" y1="233.63" x2="182.6" y2="233.63" xlink:href="#linear-gradient-4"/><linearGradient id="linear-gradient-172" x1="182.6" y1="233.63" x2="186.37" y2="233.63" xlink:href="#linear-gradient-4"/><linearGradient id="linear-gradient-173" x1="183.32" y1="236.22" x2="187.07" y2="236.22" xlink:href="#linear-gradient-4"/><linearGradient id="linear-gradient-174" x1="187.07" y1="236.22" x2="190.84" y2="236.22" xlink:href="#linear-gradient-4"/><linearGradient id="linear-gradient-175" x1="187.78" y1="238.82" x2="191.53" y2="238.82" xlink:href="#linear-gradient-4"/><linearGradient id="linear-gradient-176" x1="191.53" y1="238.82" x2="195.31" y2="238.82" xlink:href="#linear-gradient-4"/><linearGradient id="linear-gradient-177" x1="192.45" y1="242.59" x2="199.85" y2="242.59" xlink:href="#linear-gradient-4"/><linearGradient id="linear-gradient-178" x1="199.85" y1="243.65" x2="203.63" y2="243.65" xlink:href="#linear-gradient-4"/><linearGradient id="linear-gradient-179" x1="145.27" y1="219.57" x2="149.02" y2="219.57" xlink:href="#linear-gradient-4"/><linearGradient id="linear-gradient-180" x1="149.02" y1="219.57" x2="152.8" y2="219.57" xlink:href="#linear-gradient-4"/><linearGradient id="linear-gradient-181" x1="149.74" y1="222.17" x2="153.49" y2="222.17" xlink:href="#linear-gradient-4"/><linearGradient id="linear-gradient-182" x1="153.49" y1="222.17" x2="157.26" y2="222.17" xlink:href="#linear-gradient-4"/><linearGradient id="linear-gradient-183" x1="154.21" y1="224.76" x2="157.96" y2="224.76" xlink:href="#linear-gradient-4"/><linearGradient id="linear-gradient-184" x1="157.95" y1="224.76" x2="161.73" y2="224.76" xlink:href="#linear-gradient-4"/><linearGradient id="linear-gradient-185" x1="158.68" y1="227.36" x2="162.42" y2="227.36" xlink:href="#linear-gradient-4"/><linearGradient id="linear-gradient-186" x1="162.42" y1="227.36" x2="166.2" y2="227.36" xlink:href="#linear-gradient-4"/><linearGradient id="linear-gradient-187" x1="163.14" y1="229.95" x2="166.89" y2="229.95" xlink:href="#linear-gradient-4"/><linearGradient id="linear-gradient-188" x1="166.89" y1="229.95" x2="170.66" y2="229.95" xlink:href="#linear-gradient-4"/><linearGradient id="linear-gradient-189" x1="167.61" y1="232.55" x2="171.36" y2="232.55" xlink:href="#linear-gradient-4"/><linearGradient id="linear-gradient-190" x1="171.36" y1="232.55" x2="175.13" y2="232.55" xlink:href="#linear-gradient-4"/><linearGradient id="linear-gradient-191" x1="172.07" y1="235.14" x2="175.82" y2="235.14" xlink:href="#linear-gradient-4"/><linearGradient id="linear-gradient-192" x1="175.82" y1="235.14" x2="179.59" y2="235.14" xlink:href="#linear-gradient-4"/><linearGradient id="linear-gradient-193" x1="176.54" y1="237.74" x2="180.29" y2="237.74" xlink:href="#linear-gradient-4"/><linearGradient id="linear-gradient-194" x1="180.29" y1="237.74" x2="184.06" y2="237.74" xlink:href="#linear-gradient-4"/><linearGradient id="linear-gradient-195" x1="181.01" y1="240.33" x2="184.75" y2="240.33" xlink:href="#linear-gradient-4"/><linearGradient id="linear-gradient-196" x1="184.75" y1="240.33" x2="188.53" y2="240.33" xlink:href="#linear-gradient-4"/><linearGradient id="linear-gradient-197" x1="185.59" y1="244.69" x2="195.14" y2="244.69" xlink:href="#linear-gradient-4"/><linearGradient id="linear-gradient-198" x1="195.14" y1="246.37" x2="198.92" y2="246.37" xlink:href="#linear-gradient-4"/><linearGradient id="linear-gradient-199" x1="140.59" y1="222.5" x2="144.34" y2="222.5" xlink:href="#linear-gradient-4"/><linearGradient id="linear-gradient-200" x1="144.34" y1="222.5" x2="148.11" y2="222.5" xlink:href="#linear-gradient-4"/><linearGradient id="linear-gradient-201" x1="145.03" y1="225.07" x2="148.78" y2="225.07" xlink:href="#linear-gradient-4"/><linearGradient id="linear-gradient-202" x1="148.77" y1="225.07" x2="152.55" y2="225.07" xlink:href="#linear-gradient-4"/><linearGradient id="linear-gradient-203" x1="149.46" y1="227.65" x2="153.21" y2="227.65" xlink:href="#linear-gradient-4"/><linearGradient id="linear-gradient-204" x1="153.2" y1="227.65" x2="156.98" y2="227.65" xlink:href="#linear-gradient-4"/><linearGradient id="linear-gradient-205" x1="153.89" y1="230.23" x2="157.64" y2="230.23" xlink:href="#linear-gradient-4"/><linearGradient id="linear-gradient-206" x1="157.64" y1="230.23" x2="161.41" y2="230.23" xlink:href="#linear-gradient-4"/><linearGradient id="linear-gradient-207" x1="158.31" y1="236.64" x2="175.31" y2="236.64" xlink:href="#linear-gradient-4"/><linearGradient id="linear-gradient-208" x1="175.31" y1="240.5" x2="179.08" y2="240.5" xlink:href="#linear-gradient-4"/><linearGradient id="linear-gradient-209" x1="176.2" y1="243.19" x2="179.95" y2="243.19" xlink:href="#linear-gradient-4"/><linearGradient id="linear-gradient-210" x1="179.94" y1="243.19" x2="183.72" y2="243.19" xlink:href="#linear-gradient-4"/><linearGradient id="linear-gradient-211" x1="180.72" y1="247.5" x2="190.27" y2="247.5" xlink:href="#linear-gradient-4"/><linearGradient id="linear-gradient-212" x1="190.27" y1="249.19" x2="194.04" y2="249.19" xlink:href="#linear-gradient-4"/><linearGradient id="linear-gradient-213" x1="153.75" y1="201.37" x2="161.27" y2="201.37" xlink:href="#linear-gradient-4"/><linearGradient id="linear-gradient-214" x1="158.46" y1="204.1" x2="165.97" y2="204.1" xlink:href="#linear-gradient-4"/><linearGradient id="linear-gradient-215" x1="163.16" y1="206.84" x2="170.68" y2="206.84" xlink:href="#linear-gradient-4"/><linearGradient id="linear-gradient-216" x1="167.87" y1="209.57" x2="175.38" y2="209.57" xlink:href="#linear-gradient-4"/><linearGradient id="linear-gradient-217" x1="172.57" y1="212.31" x2="180.09" y2="212.31" xlink:href="#linear-gradient-4"/><linearGradient id="linear-gradient-218" x1="177.28" y1="215.04" x2="184.8" y2="215.04" xlink:href="#linear-gradient-4"/><linearGradient id="linear-gradient-219" x1="181.98" y1="217.78" x2="189.5" y2="217.78" xlink:href="#linear-gradient-4"/><linearGradient id="linear-gradient-220" x1="186.69" y1="220.51" x2="194.21" y2="220.51" xlink:href="#linear-gradient-4"/><linearGradient id="linear-gradient-221" x1="191.39" y1="223.25" x2="198.91" y2="223.25" xlink:href="#linear-gradient-4"/><linearGradient id="linear-gradient-222" x1="196.1" y1="225.98" x2="203.62" y2="225.98" xlink:href="#linear-gradient-4"/><linearGradient id="linear-gradient-223" x1="200.81" y1="228.72" x2="208.32" y2="228.72" xlink:href="#linear-gradient-4"/><linearGradient id="linear-gradient-224" x1="205.51" y1="231.45" x2="213.03" y2="231.45" xlink:href="#linear-gradient-4"/><linearGradient id="linear-gradient-225" x1="210.22" y1="234.19" x2="217.74" y2="234.19" xlink:href="#linear-gradient-4"/><linearGradient id="linear-gradient-226" x1="149.25" y1="205.34" x2="160.65" y2="205.34" xlink:href="#linear-gradient-4"/><linearGradient id="linear-gradient-227" x1="157.73" y1="209.14" x2="165.24" y2="209.14" xlink:href="#linear-gradient-4"/><linearGradient id="linear-gradient-228" x1="162.21" y1="211.75" x2="169.73" y2="211.75" xlink:href="#linear-gradient-4"/><linearGradient id="linear-gradient-229" x1="166.7" y1="214.35" x2="174.22" y2="214.35" xlink:href="#linear-gradient-4"/><linearGradient id="linear-gradient-230" x1="171.19" y1="216.96" x2="178.71" y2="216.96" xlink:href="#linear-gradient-4"/><linearGradient id="linear-gradient-231" x1="175.68" y1="219.57" x2="183.2" y2="219.57" xlink:href="#linear-gradient-4"/><linearGradient id="linear-gradient-232" x1="180.17" y1="222.18" x2="187.69" y2="222.18" xlink:href="#linear-gradient-4"/><linearGradient id="linear-gradient-233" x1="184.66" y1="224.79" x2="192.18" y2="224.79" xlink:href="#linear-gradient-4"/><linearGradient id="linear-gradient-234" x1="189.15" y1="227.4" x2="196.67" y2="227.4" xlink:href="#linear-gradient-4"/><linearGradient id="linear-gradient-235" x1="193.64" y1="230.01" x2="201.15" y2="230.01" xlink:href="#linear-gradient-4"/><linearGradient id="linear-gradient-236" x1="198.13" y1="232.61" x2="205.64" y2="232.61" xlink:href="#linear-gradient-4"/><linearGradient id="linear-gradient-237" x1="202.66" y1="236.08" x2="213.05" y2="236.08" xlink:href="#linear-gradient-4"/><linearGradient id="linear-gradient-238" x1="144.54" y1="208.6" x2="157.81" y2="208.6" xlink:href="#linear-gradient-4"/><linearGradient id="linear-gradient-239" x1="154.89" y1="212.95" x2="162.41" y2="212.95" xlink:href="#linear-gradient-4"/><linearGradient id="linear-gradient-240" x1="159.31" y1="215.52" x2="166.83" y2="215.52" xlink:href="#linear-gradient-4"/><linearGradient id="linear-gradient-241" x1="163.74" y1="218.09" x2="171.25" y2="218.09" xlink:href="#linear-gradient-4"/><linearGradient id="linear-gradient-242" x1="168.16" y1="220.66" x2="175.68" y2="220.66" xlink:href="#linear-gradient-4"/><linearGradient id="linear-gradient-243" x1="172.58" y1="223.23" x2="180.1" y2="223.23" xlink:href="#linear-gradient-4"/><linearGradient id="linear-gradient-244" x1="177.01" y1="225.8" x2="184.53" y2="225.8" xlink:href="#linear-gradient-4"/><linearGradient id="linear-gradient-245" x1="181.43" y1="228.37" x2="188.95" y2="228.37" xlink:href="#linear-gradient-4"/><linearGradient id="linear-gradient-246" x1="185.86" y1="230.94" x2="193.38" y2="230.94" xlink:href="#linear-gradient-4"/><linearGradient id="linear-gradient-247" x1="190.28" y1="233.51" x2="197.8" y2="233.51" xlink:href="#linear-gradient-4"/><linearGradient id="linear-gradient-248" x1="195.01" y1="237.95" x2="208.34" y2="237.95" xlink:href="#linear-gradient-4"/><linearGradient id="linear-gradient-249" x1="135.12" y1="211.3" x2="150.5" y2="211.3" xlink:href="#linear-gradient-4"/><linearGradient id="linear-gradient-250" x1="147.59" y1="214.16" x2="155.11" y2="214.16" xlink:href="#linear-gradient-4"/><linearGradient id="linear-gradient-251" x1="140.81" y1="215.68" x2="148.33" y2="215.68" xlink:href="#linear-gradient-4"/><linearGradient id="linear-gradient-252" x1="130.24" y1="216.86" x2="143.51" y2="216.86" xlink:href="#linear-gradient-4"/><linearGradient id="linear-gradient-253" x1="152.05" y1="216.76" x2="159.57" y2="216.76" xlink:href="#linear-gradient-4"/><linearGradient id="linear-gradient-254" x1="156.52" y1="219.35" x2="164.04" y2="219.35" xlink:href="#linear-gradient-4"/><linearGradient id="linear-gradient-255" x1="160.99" y1="221.95" x2="168.51" y2="221.95" xlink:href="#linear-gradient-4"/><linearGradient id="linear-gradient-256" x1="165.45" y1="224.54" x2="172.97" y2="224.54" xlink:href="#linear-gradient-4"/><linearGradient id="linear-gradient-257" x1="169.92" y1="227.14" x2="177.44" y2="227.14" xlink:href="#linear-gradient-4"/><linearGradient id="linear-gradient-258" x1="174.39" y1="229.73" x2="181.9" y2="229.73" xlink:href="#linear-gradient-4"/><linearGradient id="linear-gradient-259" x1="178.85" y1="232.33" x2="186.37" y2="232.33" xlink:href="#linear-gradient-4"/><linearGradient id="linear-gradient-260" x1="183.32" y1="234.93" x2="190.84" y2="234.93" xlink:href="#linear-gradient-4"/><linearGradient id="linear-gradient-261" x1="187.78" y1="237.52" x2="195.3" y2="237.52" xlink:href="#linear-gradient-4"/><linearGradient id="linear-gradient-262" x1="192.45" y1="241.29" x2="203.63" y2="241.29" xlink:href="#linear-gradient-4"/><linearGradient id="linear-gradient-263" x1="145.27" y1="218.27" x2="152.8" y2="218.27" xlink:href="#linear-gradient-4"/><linearGradient id="linear-gradient-264" x1="149.74" y1="220.87" x2="157.26" y2="220.87" xlink:href="#linear-gradient-4"/><linearGradient id="linear-gradient-265" x1="154.21" y1="223.46" x2="161.73" y2="223.46" xlink:href="#linear-gradient-4"/><linearGradient id="linear-gradient-266" x1="158.68" y1="226.06" x2="166.2" y2="226.06" xlink:href="#linear-gradient-4"/><linearGradient id="linear-gradient-267" x1="163.14" y1="228.66" x2="170.66" y2="228.66" xlink:href="#linear-gradient-4"/><linearGradient id="linear-gradient-268" x1="167.61" y1="231.25" x2="175.13" y2="231.25" xlink:href="#linear-gradient-4"/><linearGradient id="linear-gradient-269" x1="172.07" y1="233.85" x2="179.59" y2="233.85" xlink:href="#linear-gradient-4"/><linearGradient id="linear-gradient-270" x1="176.54" y1="236.44" x2="184.06" y2="236.44" xlink:href="#linear-gradient-4"/><linearGradient id="linear-gradient-271" x1="181.01" y1="239.04" x2="188.53" y2="239.04" xlink:href="#linear-gradient-4"/><linearGradient id="linear-gradient-272" x1="185.59" y1="243.39" x2="198.92" y2="243.39" xlink:href="#linear-gradient-4"/><linearGradient id="linear-gradient-273" x1="140.59" y1="221.2" x2="148.11" y2="221.2" xlink:href="#linear-gradient-4"/><linearGradient id="linear-gradient-274" x1="145.03" y1="223.78" x2="152.55" y2="223.78" xlink:href="#linear-gradient-4"/><linearGradient id="linear-gradient-275" x1="149.46" y1="226.35" x2="156.98" y2="226.35" xlink:href="#linear-gradient-4"/><linearGradient id="linear-gradient-276" x1="153.89" y1="228.93" x2="161.41" y2="228.93" xlink:href="#linear-gradient-4"/><linearGradient id="linear-gradient-277" x1="158.31" y1="235.35" x2="179.08" y2="235.35" xlink:href="#linear-gradient-4"/><linearGradient id="linear-gradient-278" x1="176.2" y1="241.89" x2="183.72" y2="241.89" xlink:href="#linear-gradient-4"/><linearGradient id="linear-gradient-279" x1="180.72" y1="246.2" x2="194.04" y2="246.2" xlink:href="#linear-gradient-4"/><linearGradient id="linear-gradient-280" x1="140.88" y1="239.2" x2="166.21" y2="239.2" xlink:href="#linear-gradient"/><linearGradient id="linear-gradient-281" x1="141.01" y1="239.59" x2="166.08" y2="239.59" xlink:href="#linear-gradient-16"/><linearGradient id="linear-gradient-282" x1="176.33" y1="169.33" x2="198.37" y2="169.33" gradientUnits="userSpaceOnUse"><stop offset="0" stop-color="#fab371"/><stop offset="1" stop-color="#fcd5b0"/></linearGradient><linearGradient id="linear-gradient-283" x1="210.53" y1="195.48" x2="211.59" y2="195.48" xlink:href="#linear-gradient-28"/><linearGradient id="linear-gradient-284" x1="198.79" y1="176.46" x2="211.59" y2="176.46" xlink:href="#linear-gradient-282"/><linearGradient id="linear-gradient-285" x1="176.25" y1="187.44" x2="210.62" y2="187.44" xlink:href="#linear-gradient-282"/><linearGradient id="linear-gradient-286" x1="207.34" y1="199.87" x2="208.38" y2="199.87" xlink:href="#linear-gradient-28"/><linearGradient id="linear-gradient-287" x1="173.13" y1="176.94" x2="208.38" y2="176.94" xlink:href="#linear-gradient-282"/><linearGradient id="linear-gradient-288" x1="173.06" y1="190.26" x2="207.42" y2="190.26" xlink:href="#linear-gradient-282"/></defs><g class="cls-13"><g id="Layer_1" data-name="Layer 1"><path class="cls-14" d="M158.69,188.45a7.7,7.7,0,0,0,3.35,5.79l62.45,36.06a2.15,2.15,0,0,0,.72.29,2,2,0,0,0,.11-.75v-.39l.13-43.23a7.8,7.8,0,0,0-3.35-5.8L160.23,144.7l-.59-.34a2,2,0,0,0-.72-.28,1.93,1.93,0,0,0-.11.74Z"/><path class="cls-15" d="M160.1,187.93a7.73,7.73,0,0,0,3.35,5.79l61.87,35.73.13-43.23a7.8,7.8,0,0,0-3.35-5.8L160.23,144.7Z"/><g id="bg"><g class="cls-13"><polygon class="cls-16" points="401.73 233.05 401.68 249.24 225.56 351.59 225.6 335.4 401.73 233.05"/><polygon class="cls-17" points="225.6 335.4 225.56 351.59 48.27 249.23 48.32 233.04 225.6 335.4"/><polygon class="cls-18" points="401.73 233.05 225.6 335.4 48.32 233.04 224.44 130.69 401.73 233.05"/></g></g><g class="cls-19"><path class="cls-20" d="M299,74.1c-19.41-11.21-35.75-5.29-40.33,12.79a41.88,41.88,0,0,0-4.81-3.25c-15.27-8.82-27.7-1.74-27.74,15.81-.05,16.45,10.78,36.25,24.71,45.93l92.93,53.83C359,208,371.43,201,371.48,183.4s-12.29-38.94-27.57-47.76a33.61,33.61,0,0,0-4.81-2.29C334.64,110,318.39,85.31,299,74.1Z"/></g><g class="cls-21"><path class="cls-22" d="M291.74,78.25C272.33,67.05,256,73,251.41,91.05a42,42,0,0,0-4.81-3.26c-15.27-8.82-27.69-1.74-27.74,15.82-.05,16.44,10.78,36.24,24.71,45.93l92.93,53.82c15.28,8.82,27.7,1.74,27.75-15.81S352,148.62,336.68,139.8a32.19,32.19,0,0,0-4.81-2.3C327.41,114.19,311.16,89.46,291.74,78.25Z"/></g><g class="cls-23"><path class="cls-24" d="M284.51,82.41c-19.41-11.21-35.75-5.3-40.33,12.79a43.31,43.31,0,0,0-4.81-3.26c-15.27-8.82-27.69-1.73-27.74,15.82,0,16.44,10.78,36.24,24.71,45.93l92.93,53.82c15.28,8.82,27.7,1.75,27.75-15.81S344.73,152.77,329.45,144a31.15,31.15,0,0,0-4.81-2.29C320.18,118.35,303.93,93.62,284.51,82.41Z"/></g><g class="cls-25"><path class="cls-26" d="M277.28,86.56C257.87,75.35,241.53,81.27,237,99.35a41.88,41.88,0,0,0-4.81-3.25c-15.27-8.82-27.69-1.74-27.74,15.81-.05,16.45,10.78,36.25,24.71,45.94L322,211.67c15.28,8.82,27.7,1.74,27.75-15.81s-12.29-38.93-27.56-47.75a33.15,33.15,0,0,0-4.81-2.3C313,122.5,296.7,97.77,277.28,86.56Z"/></g><g class="cls-27"><path class="cls-28" d="M270.06,90.72c-19.42-11.21-35.76-5.3-40.34,12.79a42.77,42.77,0,0,0-4.8-3.26c-15.28-8.82-27.7-1.74-27.75,15.82,0,16.44,10.78,36.24,24.71,45.93l92.94,53.82c15.27,8.82,27.69,1.74,27.74-15.81S330.27,161.08,315,152.26a33.15,33.15,0,0,0-4.81-2.3C305.72,126.66,289.47,101.92,270.06,90.72Z"/></g><g class="cls-29"><path class="cls-30" d="M262.83,94.87c-19.42-11.21-35.76-5.29-40.34,12.79a41.77,41.77,0,0,0-4.8-3.25c-15.28-8.82-27.7-1.74-27.75,15.81-.05,16.44,10.78,36.25,24.71,45.93L307.59,220c15.27,8.82,27.69,1.74,27.74-15.82S323,165.23,307.77,156.41a33.61,33.61,0,0,0-4.81-2.29C298.49,130.81,282.24,106.08,262.83,94.87Z"/></g><path class="cls-31" d="M255.6,99c-19.42-11.21-35.76-5.29-40.33,12.8a42.87,42.87,0,0,0-4.81-3.26c-15.28-8.82-27.7-1.74-27.75,15.82-.05,16.44,10.78,36.24,24.71,45.93l92.94,53.82c15.27,8.82,27.7,1.74,27.74-15.81s-12.29-38.93-27.56-47.75a32.66,32.66,0,0,0-4.81-2.3C291.26,135,275,110.23,255.6,99Z"/><g id="phone"><g class="cls-13"><path class="cls-1" d="M240.45,264.37v-2.32a2.12,2.12,0,0,1-1.27,1.76v2.33A2.16,2.16,0,0,0,240.45,264.37Z"/><g class="cls-32"><g class="cls-13"><path class="cls-1" d="M239.18,263.81v2.33a2.16,2.16,0,0,0,1.26-1.77v-2.32a2.12,2.12,0,0,1-1.27,1.76Z"/></g></g><path class="cls-2" d="M181.56,272.75v2.33a2.11,2.11,0,0,0,1.24,1.74v-2.33A2.13,2.13,0,0,1,181.56,272.75Z"/><g class="cls-33"><g class="cls-13"><path class="cls-2" d="M181.56,272.75v2.33a1.54,1.54,0,0,0,.15.65V273.4a1.51,1.51,0,0,1-.15-.65Z"/><path class="cls-2" d="M181.71,273.4v2.33a2.48,2.48,0,0,0,1,1v-2.32a2.57,2.57,0,0,1-1-1Z"/><path class="cls-2" d="M182.69,274.43v2.32l.11.07v-2.33l-.11-.06Z"/></g></g><polygon class="cls-2" points="182.8 274.49 182.81 276.82 198.68 286.04 198.67 283.71 182.8 274.49"/><polygon class="cls-1" points="204.72 283.71 204.72 286.04 239.19 266.14 239.19 263.81 204.72 283.71"/><g class="cls-13"><path class="cls-1" d="M198.67,283.71V286a6.69,6.69,0,0,0,6,0v-2.33A6.65,6.65,0,0,1,198.67,283.71Z"/><g class="cls-34"><g class="cls-13"><path class="cls-2" d="M198.67,283.71V286a6.14,6.14,0,0,0,2.7.72v-2.33a5.88,5.88,0,0,1-2.7-.72Z"/><path class="cls-1" d="M201.37,284.43v2.33a7.43,7.43,0,0,0,2-.2v-2.32a7,7,0,0,1-2,.19Z"/><path class="cls-1" d="M203.37,284.24v2.32a5.12,5.12,0,0,0,1.34-.52v-2.33a5.21,5.21,0,0,1-1.35.53Z"/></g></g></g><path class="cls-1" d="M182.82,271c-1.67,1-1.68,2.54,0,3.5l15.87,9.22a6.65,6.65,0,0,0,6.05,0l34.46-19.9c1.68-1,1.69-2.53,0-3.5l-15.86-9.22a6.65,6.65,0,0,0-6.05,0Z"/></g><path class="cls-35" d="M182.82,271l3-1.75,22,12.68-3.1,1.79a6.65,6.65,0,0,1-6.05,0l-15.87-9.22C181.14,273.53,181.15,272,182.82,271Z"/><path class="cls-35" d="M217.29,251.09a6.65,6.65,0,0,1,6.05,0l15.86,9.22c1.67,1,1.66,2.54,0,3.5l-1.05.61-22-12.68Z"/><polygon class="cls-36" points="185.85 269.24 207.82 281.92 231.21 268.42 234.23 266.67 235.75 265.8 238.13 264.42 232.58 261.22 228.28 258.74 216.16 251.74 213.79 253.11 185.85 269.24"/><polygon class="cls-37" points="213.79 253.11 235.75 265.8 238.13 264.42 232.58 261.22 228.28 258.74 216.16 251.74 213.79 253.11"/><path class="cls-35" d="M230.68,261.77l-.11.22s0,.05.06.06l.27,0a.61.61,0,0,0,0,.12l-.19.11s0,.05,0,.06l.27.16a.11.11,0,0,0,.11,0l.2-.11a.64.64,0,0,0,.2,0l.08.16s0,0,.09,0l.38-.06s.06,0,0,0l-.08-.17.07,0,.07,0,.29,0s.08,0,.09,0l.1-.21s0,0-.05-.06l-.3,0a.18.18,0,0,0-.05-.11l.22-.12s0-.05,0-.06l-.28-.16a.09.09,0,0,0-.1,0l-.22.12-.18,0-.08-.17a.08.08,0,0,0-.09,0l-.38.06s-.06,0,0,.05l.07.17-.08,0-.06,0-.28-.05S230.69,261.75,230.68,261.77Zm.7.14a.51.51,0,0,1,.48,0,.14.14,0,0,1,0,.27.51.51,0,0,1-.48,0A.14.14,0,0,1,231.38,261.91Z"/><path class="cls-35" d="M225.67,257.61c.54.31.72.76.54,1.16l-.21,0c.16-.36,0-.76-.49-1a2.8,2.8,0,0,0-1.8-.28l-.06-.12A3.19,3.19,0,0,1,225.67,257.61Z"/><path class="cls-35" d="M225.2,257.88c.37.21.5.52.37.79l-.21,0c.11-.23,0-.49-.31-.67a1.85,1.85,0,0,0-1.17-.19l-.06-.12A2.2,2.2,0,0,1,225.2,257.88Z"/><path class="cls-35" d="M224.73,258.15c.21.11.27.28.2.42l-.21,0c.05-.1,0-.22-.14-.31a.86.86,0,0,0-.53-.08L224,258A1.15,1.15,0,0,1,224.73,258.15Z"/><path class="cls-35" d="M224,258.6a.49.49,0,0,0,.41,0,.18.18,0,0,0,.07-.08s0-.11-.07-.16a.53.53,0,0,0-.28,0l-.13,0A.13.13,0,0,0,224,258.6Z"/><path class="cls-35" d="M235.44,265l-.15-.08,1.36-.79.1.06c-.06.07-.09.15.06.24l-.13.07a.29.29,0,0,1-.13-.14Z"/><path class="cls-35" d="M235.4,264.59a.65.65,0,0,1-.66,0c-.21-.12-.17-.26,0-.38l.71-.41a.61.61,0,0,1,.65,0c.21.12.18.25,0,.37Zm.56-.5c.12-.07.15-.14,0-.21a.36.36,0,0,0-.36,0l-.72.42c-.13.07-.15.14,0,.21a.36.36,0,0,0,.36,0Z"/><path class="cls-35" d="M235.23,263.8l-.19.11-.15-.09.19-.11Zm-.74.43-.19.11-.15-.09.19-.11Z"/><path class="cls-35" d="M235.07,263.19c.21.12.16.26,0,.38l-.11.06-.15-.08.12-.07c.12-.07.16-.15.05-.21a.38.38,0,0,0-.38,0c-.38.22,0,.54-.45.79l-.11.07-.6-.34.14-.08.44.25h0c.31-.18,0-.53.4-.77A.65.65,0,0,1,235.07,263.19Z"/><path class="cls-35" d="M234.32,262.76c.21.12.17.25,0,.38l-.7.4a.63.63,0,0,1-.65,0c-.21-.12-.18-.26,0-.38l.2-.12a.58.58,0,0,1,.58,0c.11.06.13.14.08.21l.3-.18c.15-.08.17-.15.06-.22a.36.36,0,0,0-.36,0l0,0-.14-.08h0A.59.59,0,0,1,234.32,262.76Zm-.66.37a.36.36,0,0,0-.36,0l-.2.12c-.12.07-.15.15,0,.21a.36.36,0,0,0,.36,0l.21-.12C233.75,263.27,233.77,263.2,233.66,263.13Z"/><path class="cls-35" d="M219.48,255.46l.14-.08.11.07,1-.55.16.09-.52.8-.14.08-.44-.26-.28.16-.15-.09.28-.15Zm1.06-.31-.66.38.3.17Z"/><path class="cls-35" d="M219,255.49l-.15-.08.88-.92.13-.07.62.35-.13.08-.47-.27Z"/><path class="cls-35" d="M219.52,254.22c.13.08.1.16,0,.24l-.43.25a.4.4,0,0,1-.41,0c-.13-.07-.11-.16,0-.24l.43-.25A.42.42,0,0,1,219.52,254.22Zm-.09.05a.2.2,0,0,0-.22,0l-.45.25c-.07.05-.09.09,0,.13a.22.22,0,0,0,.22,0l.44-.26C219.48,254.36,219.5,254.31,219.43,254.27Zm-.47-.37-.83,1.1L218,255l.83-1.1Zm-.62.23c.13.07.11.16,0,.24l-.43.24a.42.42,0,0,1-.42,0c-.13-.08-.1-.17,0-.24l.43-.25A.4.4,0,0,1,218.34,254.13Zm-.09.05a.22.22,0,0,0-.22,0l-.44.26c-.08,0-.1.09,0,.13a.22.22,0,0,0,.22,0l.44-.25C218.3,254.26,218.32,254.22,218.25,254.18Z"/><path class="cls-35" d="M215.13,253.74l1.85-1.07,1.05.61-1.85,1.07Zm1.85-.9-1.56.9.76.44,1.57-.9Z"/><polygon class="cls-35" points="215.28 253.74 216.18 254.26 216.94 253.82 216.04 253.3 215.28 253.74"/><polygon class="cls-35" points="217.19 252.89 217.66 253.16 217.95 252.99 217.48 252.72 217.19 252.89"/><polygon class="cls-35" points="221.65 257.36 222.13 257.63 223.05 257.1 222.57 256.82 221.65 257.36"/><polygon class="cls-35" points="220.95 256.95 221.43 257.23 222.7 256.5 222.22 256.22 220.95 256.95"/><polygon class="cls-35" points="220.26 256.55 220.74 256.83 222.61 255.75 222.13 255.47 220.26 256.55"/><path class="cls-38" d="M226,255.45l3.92,2.27a1.15,1.15,0,0,0,1,0h0c.27-.16.27-.42,0-.57L227,254.88a1.15,1.15,0,0,0-1,0h0C225.74,255,225.74,255.3,226,255.45Z"/><path class="cls-38" d="M224.08,253.76a1.55,1.55,0,0,1,1.39,0c.39.23.39.59,0,.81a1.55,1.55,0,0,1-1.39,0C223.69,254.35,223.69,254,224.08,253.76Z"/><path class="cls-38" d="M231.7,258.17a.77.77,0,0,1,.72,0,.22.22,0,0,1,0,.41.77.77,0,0,1-.72,0A.22.22,0,0,1,231.7,258.17Z"/><path class="cls-38" d="M232.94,258.88a.83.83,0,0,1,.72,0c.2.12.2.31,0,.42a.76.76,0,0,1-.72,0C232.74,259.19,232.74,259,232.94,258.88Z"/><path class="cls-2" d="M194.79,279.59l-4.68-2.7h0a.4.4,0,0,1-.23-.34.38.38,0,0,1,.23-.33l2.06-1.19a.92.92,0,0,1,.88,0l4.68,2.7a.37.37,0,0,1,0,.67l-2.06,1.19a.94.94,0,0,1-.88,0Zm-2.48-4.32-2.06,1.19c-.06,0-.08.07-.08.09s0,.06.08.09l4.68,2.71a.7.7,0,0,0,.6,0l2.06-1.19c.06,0,.08-.07.08-.09s0-.06-.08-.09l-4.68-2.71a.68.68,0,0,0-.6,0Z"/><polygon class="cls-39" points="189.55 278.88 190.63 279.51 189.31 280.14 189.31 278.74 189.55 278.88"/><polygon class="cls-1" points="191.36 279.92 191.36 281.33 189.31 280.14 190.63 279.51 191.36 279.92"/><polygon class="cls-38" points="189.55 278.88 189.55 280.03 191.36 281.07 191.36 279.92 189.55 278.88"/><polygon class="cls-40" points="233.19 269.2 237.13 266.92 237.13 265.61 233.19 267.88 233.19 269.2"/><polygon class="cls-41" points="223.81 256.15 228.07 270.23 222.94 273.19 216.5 251.93 223.81 256.15"/><polygon class="cls-41" points="231.21 268.42 228.28 258.74 232.58 261.22 234.23 266.67 231.21 268.42"/><path class="cls-42" d="M214.65,270.46l1.44-2.92.92.55a2.15,2.15,0,0,0-.61-2.49c-1.45-1.43-4.43-2-7.08-1.42a1.39,1.39,0,0,1-1.37-.35c-.21-.31.05-.66.6-.79,3.63-.82,7.69,0,9.67,1.94a2.93,2.93,0,0,1,.45,4.09l1.08.65Z"/><path class="cls-42" d="M202.26,265.13l5-1-1,3-1.08-.54a2.13,2.13,0,0,0,.55,2.63c1.36,1.34,4.19,2,6.74,1.49a1.34,1.34,0,0,1,1.33.4c.17.32-.13.66-.69.76a12.28,12.28,0,0,1-8-1.13,5.6,5.6,0,0,1-1.21-.9,2.94,2.94,0,0,1-.44-4.11Z"/></g><path class="cls-43" d="M203.07,99.49l-12.29,7.14c5-2.92,12-2.51,19.68,1.93a42.87,42.87,0,0,1,4.81,3.26l12.28-7.14a41.87,41.87,0,0,0-4.8-3.26C215.06,97,208.1,96.57,203.07,99.49Z"/><path class="cls-44" d="M255.6,99c-19.42-11.21-35.76-5.29-40.33,12.8a42.87,42.87,0,0,0-4.81-3.26c-15.28-8.82-27.7-1.74-27.75,15.82-.05,16.44,10.78,36.24,24.71,45.93l92.94,53.82c15.27,8.82,27.7,1.74,27.74-15.81s-12.29-38.93-27.56-47.75a32.66,32.66,0,0,0-4.81-2.3C291.26,135,275,110.23,255.6,99Z"/><path class="cls-36" d="M301.67,221.87l-92.81-53.75-.06,0c-13.21-9.26-23.52-28.45-23.47-43.7,0-10.64,4.78-17,12.72-17a22.79,22.79,0,0,1,11.1,3.45,38.91,38.91,0,0,1,4.51,3l3.16,2.46,1-3.88C220.5,101.81,227.31,96,237,96c5.27,0,11.25,1.84,17.3,5.34,18.44,10.65,34.43,34.28,38.87,57.47l.28,1.44,1.37.52a31,31,0,0,1,4.42,2.11c14.53,8.39,26.31,28.79,26.26,45.48,0,10.64-4.79,17-12.72,17A22.87,22.87,0,0,1,301.67,221.87Zm-82.18-109-1.64,6.46-5.26-4.09a37.77,37.77,0,0,0-4.31-2.93,21.26,21.26,0,0,0-10.23-3.2c-6.85,0-11,5.7-11,15.26,0,14.72,9.93,33.27,22.7,42.24l92.77,53.73a21.14,21.14,0,0,0,10.23,3.21c6.85,0,11-5.71,11-15.26,0-16.14-11.35-35.86-25.39-44a28.63,28.63,0,0,0-4.17-2l-2.28-.86-.46-2.4c-4.36-22.73-20-45.88-38-56.29C247.63,99.46,242,97.69,237,97.69,228.18,97.69,222,103.09,219.49,112.89Z"/><path class="cls-45" d="M295.73,158.27,308,151.13c-4.47-23.31-20.72-48-40.13-59.25L255.6,99C275,110.23,291.26,135,295.73,158.27Z"/><path class="cls-46" d="M238.37,89l-12.29,7.14c7.55-4.38,18-3.76,29.52,2.89l12.29-7.14C256.36,85.23,245.91,84.61,238.37,89Z"/><path class="cls-47" d="M320,226.06l12.29-7.14c5-2.89,8-9,8.06-17.74.05-17.56-12.29-38.93-27.56-47.75a33.15,33.15,0,0,0-4.81-2.3l-12.29,7.14a32.66,32.66,0,0,1,4.81,2.3c15.27,8.82,27.61,30.2,27.56,47.75C328.08,217,325,223.17,320,226.06Z"/><polygon class="cls-48" points="247.51 127.03 241.51 123.56 241.51 150.3 235.53 146.85 244.51 169.98 253.48 157.21 247.51 153.76 247.51 127.03"/><polygon class="cls-49" points="271.48 158.81 262.51 135.69 253.53 148.45 259.51 151.9 259.51 178.64 265.51 182.1 265.51 155.36 271.48 158.81"/><g class="cls-50"><g class="cls-51"><g class="cls-13"><path class="cls-6" d="M246.39,260.52v3c0,3.17,2.09,6.33,6.25,8.74,8.36,4.86,22,4.86,30.39,0,4.23-2.44,6.35-5.65,6.34-8.86v-3c0,3.21-2.1,6.42-6.34,8.87-8.42,4.86-22,4.86-30.39,0C248.47,266.84,246.39,263.68,246.39,260.52Z"/><g class="cls-52"><g class="cls-13"><path class="cls-53" d="M246.39,260.52v3a8.23,8.23,0,0,0,1.72,4.86v-3a8.18,8.18,0,0,1-1.71-4.86Z"/><path class="cls-54" d="M248.1,265.38v3a14.74,14.74,0,0,0,4.53,3.88,30.69,30.69,0,0,0,14.83,3.65v-3a30.72,30.72,0,0,1-14.83-3.64,14.88,14.88,0,0,1-4.53-3.88Z"/><path class="cls-55" d="M267.46,272.9v3A31.31,31.31,0,0,0,283,272.24c4.23-2.44,6.35-5.65,6.34-8.86v-3c0,3.21-2.1,6.42-6.34,8.87a31.28,31.28,0,0,1-15.56,3.64Z"/></g></g></g><path class="cls-56" d="M252.73,251.65c-8.42,4.86-8.46,12.75-.1,17.61s22,4.86,30.39,0,8.46-12.75.1-17.61S261.15,246.79,252.73,251.65Z"/></g></g><g class="cls-13"><path class="cls-7" d="M246.39,258.73v3c0,3.16,2.09,6.32,6.25,8.74,8.36,4.86,22,4.86,30.39,0,4.23-2.45,6.35-5.66,6.34-8.86v-3c0,3.21-2.1,6.42-6.34,8.87-8.42,4.86-22,4.86-30.39,0C248.47,265.06,246.39,261.9,246.39,258.73Z"/><g class="cls-57"><g class="cls-13"><path class="cls-58" d="M246.39,258.73v3a8.23,8.23,0,0,0,1.72,4.86v-3a8.13,8.13,0,0,1-1.71-4.86Z"/><path class="cls-59" d="M248.1,263.59v3a14.74,14.74,0,0,0,4.53,3.88,30.69,30.69,0,0,0,14.83,3.64v-3a30.72,30.72,0,0,1-14.83-3.65,14.74,14.74,0,0,1-4.53-3.88Z"/><path class="cls-60" d="M267.36,270.84v3a31.14,31.14,0,0,0,15.55-3.64c4.24-2.45,6.36-5.66,6.35-8.86v-3c0,3.21-2.11,6.42-6.35,8.87a31.24,31.24,0,0,1-15.55,3.64Z"/></g></g></g><path class="cls-61" d="M252.73,249.87c-8.42,4.86-8.46,12.74-.1,17.6s22,4.87,30.39,0,8.46-12.75.1-17.61S261.15,245,252.73,249.87Z"/><g class="cls-13"><polygon class="cls-62" points="278.63 262.77 283.79 259.77 277.39 223.47 272.23 226.47 278.63 262.77"/><polygon class="cls-63" points="272.23 226.47 277.39 223.47 259.15 212.99 253.99 215.99 272.23 226.47"/><polygon class="cls-64" points="253.99 215.99 260.39 252.29 278.63 262.77 272.23 226.47 253.99 215.99"/></g><path class="cls-8" d="M221.83,127.28l-3.52,2a2.88,2.88,0,0,1,2.88.29l3.52-2A2.83,2.83,0,0,0,221.83,127.28Z"/><g class="cls-65"><g class="cls-13"><path class="cls-8" d="M221.19,129.61l3.52-2a2.83,2.83,0,0,0-2.88-.29l-3.52,2a2.88,2.88,0,0,1,2.88.29Z"/></g></g><path class="cls-9" d="M320.78,267l3.51-2a2.84,2.84,0,0,0,1.19-2.6L322,264.38A2.81,2.81,0,0,1,320.78,267Z"/><g class="cls-66"><g class="cls-13"><path class="cls-9" d="M320.78,267l3.51-2a2.84,2.84,0,0,0,1.19-2.6L322,264.38a2.81,2.81,0,0,1-1.18,2.59Z"/></g></g><polygon class="cls-67" points="321.96 264.38 325.48 262.33 325.68 190.52 322.16 192.57 321.96 264.38"/><polygon class="cls-68" points="318.13 185.57 321.64 183.53 224.71 127.56 221.19 129.61 318.13 185.57"/><path class="cls-10" d="M322.16,192.57l3.52-2a8.88,8.88,0,0,0-4-7l-3.52,2A8.88,8.88,0,0,1,322.16,192.57Z"/><g class="cls-69"><g class="cls-13"><path class="cls-10" d="M322.16,192.57l3.52-2a8.88,8.88,0,0,0-4-7l-3.52,2a8.88,8.88,0,0,1,4,7Z"/></g></g><path class="cls-70" d="M221.19,129.61c-2.24-1.29-4.05-.26-4.06,2.31l-.2,71.81a8.87,8.87,0,0,0,4,7l96.93,56c2.24,1.29,4.06.26,4.07-2.31l.2-71.81a8.88,8.88,0,0,0-4-7Z"/><path class="cls-71" d="M319.81,259.46v4.91a1.89,1.89,0,0,1-.12.71,1.8,1.8,0,0,1-.7-.26l-96.93-56a6.71,6.71,0,0,1-3-5.11v-2.43Z"/><path class="cls-72" d="M219.1,201.31l100.71,58.15v-1.6l.19-65.3a6.77,6.77,0,0,0-3-5.12L220.83,131.9l-.72-.42a1.64,1.64,0,0,0-.7-.26,1.89,1.89,0,0,0-.12.71Z"/><path class="cls-73" d="M220.64,200.59l92.74,53.55,6.43,3.71.05-16.06.05-18.37,0-15.21.05-15.65a6.73,6.73,0,0,0-3-5.11l-15.54-9-18.72-10.81h0l-19.24-11.1L235,140.07l-14.16-8.17Z"/><g class="cls-74"><path class="cls-75" d="M289.72,226.87a11.57,11.57,0,0,1-5.69-1.72l-38-22c-6.07-4.22-10.64-12.72-10.62-19.77,0-3.92,1.41-6.88,3.94-8.33s5.83-1.18,9.25.8c.23.13.45.26.67.41a10.34,10.34,0,0,1,5.52-6c3.46-1.46,7.8-.85,12.24,1.71h0c7.89,4.55,14.74,14.49,16.84,24.36a13.22,13.22,0,0,1,1.5.76c6.57,3.79,11.9,13,11.87,20.57,0,3.91-1.4,6.87-3.93,8.33A7.14,7.14,0,0,1,289.72,226.87Zm-42.33-25.82L285.28,223c2.62,1.51,5,1.8,6.76.8s2.68-3.19,2.69-6.18c0-6.75-4.75-15-10.63-18.4a11.36,11.36,0,0,0-1.77-.85l-.66-.25-.13-.69c-1.8-9.42-8.29-19-15.78-23.34-3.74-2.16-7.3-2.71-10-1.56-2.26.95-3.85,3-4.61,6l-.47,1.86-1.5-1.18a16.64,16.64,0,0,0-1.82-1.23c-2.63-1.52-5-1.8-6.77-.8s-2.68,3.19-2.69,6.18C237.86,189.54,242,197.3,247.39,201.05Z"/></g><g class="cls-74"><path class="cls-44" d="M273,197.88a1.17,1.17,0,0,0,.38.14c.62.12,1-.47.75-1.31a20.79,20.79,0,0,0-6.19-10.24c-4.26-3.74-8.62-3.81-10.38-.18a2.22,2.22,0,0,0,.61,2.17c.61.65,1.31.74,1.57.2,1.29-2.67,4.49-2.61,7.6.13a15.17,15.17,0,0,1,4.53,7.5A2.68,2.68,0,0,0,273,197.88Z"/><polygon class="cls-44" points="275.69 197.1 272.65 201.23 269.75 193.57 275.69 197.1"/><path class="cls-44" d="M265.41,206.28c3.27,1.89,6.4,1.59,7.94-1a2.11,2.11,0,0,0-.52-2.15c-.58-.68-1.3-.83-1.6-.33-1.38,2.3-4.51,2.11-7.43-.46a15.21,15.21,0,0,1-4.56-7.62,2.4,2.4,0,0,0-1.5-1.76c-.62-.13-1,.44-.77,1.28a20.73,20.73,0,0,0,6.23,10.42A13.5,13.5,0,0,0,265.41,206.28Z"/><polygon class="cls-44" points="255.4 194.17 257.99 189.5 261.32 197.1 255.4 194.17"/></g><path class="cls-11" d="M226.52,232.83l2.15-1.25a3.29,3.29,0,0,0,1.36-3l-2.16,1.25A3.24,3.24,0,0,1,226.52,232.83Z"/><g class="cls-76"><g class="cls-13"><path class="cls-11" d="M226.52,232.83l2.15-1.25a3.29,3.29,0,0,0,1.36-3l-2.16,1.25a3.24,3.24,0,0,1-1.35,3Z"/></g></g><polygon class="cls-77" points="227.87 229.85 230.03 228.6 230.15 184.97 227.99 186.23 227.87 229.85"/><polygon class="cls-78" points="223.37 178.22 225.53 176.96 163.07 140.91 160.92 142.16 223.37 178.22"/><path class="cls-12" d="M228,186.23l2.16-1.26a10.2,10.2,0,0,0-4.62-8l-2.16,1.26A10.17,10.17,0,0,1,228,186.23Z"/><g class="cls-79"><g class="cls-13"><path class="cls-80" d="M228,186.23l2.16-1.26a8.76,8.76,0,0,0-.82-3.51l-2.15,1.25a8.78,8.78,0,0,1,.81,3.52Z"/><path class="cls-81" d="M227.18,182.71l2.15-1.25a10.91,10.91,0,0,0-1.56-2.53l-2.15,1.25a11.72,11.72,0,0,1,1.56,2.53Z"/><path class="cls-82" d="M225.62,180.18l2.15-1.25a8.43,8.43,0,0,0-2.24-2l-2.16,1.26a8.42,8.42,0,0,1,2.25,2Z"/></g></g><path class="cls-83" d="M160.92,142.16c-2.56-1.48-4.65-.3-4.66,2.65l-.12,43.63a10.2,10.2,0,0,0,4.62,8l62.46,36.06c2.56,1.48,4.64.29,4.65-2.66l.12-43.62a10.17,10.17,0,0,0-4.62-8Z"/><path class="cls-84" d="M159.77,140.58l-2.15,1.26a3.23,3.23,0,0,1,3.3.32l2.15-1.25A3.26,3.26,0,0,0,159.77,140.58Z"/><path class="cls-3" d="M112.49,221.16v2.5a3.22,3.22,0,0,0,1.9,2.65v-2.49A3.27,3.27,0,0,1,112.49,221.16Z"/><g class="cls-85"><g class="cls-13"><path class="cls-86" d="M112.49,221.16v2.5a2.16,2.16,0,0,0,.19.89v-2.49a2.42,2.42,0,0,1-.19-.9Z"/><path class="cls-87" d="M112.68,222.06v2.49a3.82,3.82,0,0,0,1.71,1.76v-2.49a3.87,3.87,0,0,1-1.71-1.76Z"/></g></g><path class="cls-4" d="M225.6,237.75v-2.49a3.28,3.28,0,0,1-1.93,2.7v2.49A3.28,3.28,0,0,0,225.6,237.75Z"/><g class="cls-88"><g class="cls-13"><path class="cls-4" d="M223.66,238v2.49a3.28,3.28,0,0,0,1.94-2.7v-2.49a3.28,3.28,0,0,1-1.93,2.7Z"/></g></g><polygon class="cls-89" points="114.39 223.82 114.4 226.31 176.44 262.37 176.44 259.88 114.39 223.82"/><polygon class="cls-90" points="185.69 259.88 185.7 262.37 223.66 240.45 223.66 237.96 185.69 259.88"/><path class="cls-5" d="M176.44,259.88v2.49a10.21,10.21,0,0,0,9.26,0v-2.49A10.19,10.19,0,0,1,176.44,259.88Z"/><g class="cls-91"><g class="cls-13"><path class="cls-92" d="M176.44,259.88v2.49a9.44,9.44,0,0,0,4.74,1.11V261a9.39,9.39,0,0,1-4.74-1.11Z"/><path class="cls-93" d="M181.18,261v2.49a9.48,9.48,0,0,0,4.52-1.11v-2.49a9.47,9.47,0,0,1-4.51,1.11Z"/></g></g><path class="cls-75" d="M114.42,218.46c-2.56,1.48-2.57,3.88,0,5.36l62.05,36.06a10.19,10.19,0,0,0,9.25,0l38-21.92c2.56-1.48,2.57-3.88,0-5.36l-62.05-36.06a10.19,10.19,0,0,0-9.25,0Z"/><g class="cls-94"><path class="cls-95" d="M127.14,215.36a2.76,2.76,0,0,0,1.47,1.78l59,34.25a8.09,8.09,0,0,0,7.33,0l25.33-14.61a3,3,0,0,0,1.46-1.62c.28-.92-.2-1.91-1.43-2.62l-59-34.25a8.07,8.07,0,0,0-7.32,0L128.64,212.9A2.41,2.41,0,0,0,127.14,215.36Z"/></g><path class="cls-96" d="M127.14,215.36a2.76,2.76,0,0,0,1.47,1.78l59,34.25a8.09,8.09,0,0,0,7.33,0l25.33-14.61a3,3,0,0,0,1.46-1.62,2.82,2.82,0,0,0-1.47-1.78l-59-34.25a8.09,8.09,0,0,0-7.33,0l-25.34,14.61A2.94,2.94,0,0,0,127.14,215.36Z"/><g class="cls-13"><polygon class="cls-97" points="153.75 201.37 153.75 201.78 157.5 203.96 157.5 203.55 153.75 201.37"/><polygon class="cls-98" points="157.5 203.55 157.5 203.96 161.27 201.79 161.27 201.37 157.5 203.55"/></g><g class="cls-13"><polygon class="cls-99" points="158.46 204.1 158.46 204.52 162.21 206.7 162.2 206.28 158.46 204.1"/><polygon class="cls-100" points="162.2 206.28 162.21 206.7 165.97 204.52 165.97 204.1 162.2 206.28"/></g><g class="cls-13"><polygon class="cls-101" points="163.16 206.84 163.16 207.25 166.91 209.43 166.91 209.02 163.16 206.84"/><polygon class="cls-102" points="166.91 209.02 166.91 209.43 170.68 207.25 170.68 206.84 166.91 209.02"/></g><g class="cls-13"><polygon class="cls-103" points="167.87 209.57 167.87 209.99 171.62 212.17 171.61 211.75 167.87 209.57"/><polygon class="cls-104" points="171.61 211.75 171.62 212.17 175.38 209.99 175.38 209.57 171.61 211.75"/></g><g class="cls-13"><polygon class="cls-105" points="172.57 212.31 172.57 212.72 176.32 214.9 176.32 214.49 172.57 212.31"/><polygon class="cls-106" points="176.32 214.49 176.32 214.9 180.09 212.72 180.09 212.31 176.32 214.49"/></g><g class="cls-13"><polygon class="cls-107" points="177.28 215.04 177.28 215.46 181.03 217.64 181.03 217.22 177.28 215.04"/><polygon class="cls-108" points="181.03 217.22 181.03 217.64 184.8 215.46 184.8 215.04 181.03 217.22"/></g><g class="cls-13"><polygon class="cls-109" points="181.99 217.78 181.99 218.19 185.73 220.37 185.73 219.96 181.99 217.78"/><polygon class="cls-110" points="185.73 219.96 185.73 220.37 189.5 218.19 189.5 217.78 185.73 219.96"/></g><g class="cls-13"><polygon class="cls-111" points="186.69 220.51 186.69 220.93 190.44 223.1 190.44 222.69 186.69 220.51"/><polygon class="cls-112" points="190.44 222.69 190.44 223.1 194.21 220.93 194.21 220.51 190.44 222.69"/></g><g class="cls-13"><polygon class="cls-113" points="191.4 223.25 191.4 223.66 195.14 225.84 195.14 225.42 191.4 223.25"/><polygon class="cls-114" points="195.14 225.42 195.14 225.84 198.91 223.66 198.91 223.25 195.14 225.42"/></g><g class="cls-13"><polygon class="cls-115" points="196.1 225.98 196.1 226.4 199.85 228.57 199.85 228.16 196.1 225.98"/><polygon class="cls-116" points="199.85 228.16 199.85 228.57 203.62 226.4 203.62 225.98 199.85 228.16"/></g><g class="cls-13"><polygon class="cls-117" points="200.81 228.72 200.81 229.13 204.55 231.31 204.55 230.89 200.81 228.72"/><polygon class="cls-118" points="204.55 230.89 204.55 231.31 208.32 229.13 208.32 228.72 204.55 230.89"/></g><g class="cls-13"><polygon class="cls-119" points="205.51 231.45 205.51 231.87 209.26 234.04 209.26 233.63 205.51 231.45"/><polygon class="cls-120" points="209.26 233.63 209.26 234.04 213.03 231.87 213.03 231.45 209.26 233.63"/></g><g class="cls-13"><polygon class="cls-121" points="210.22 234.19 210.22 234.6 213.97 236.78 213.97 236.36 210.22 234.19"/><polygon class="cls-122" points="213.97 236.36 213.97 236.78 217.74 234.6 217.74 234.19 213.97 236.36"/></g><g class="cls-13"><polygon class="cls-123" points="149.25 204.21 149.25 204.63 156.88 209.06 156.88 208.64 149.25 204.21"/><polygon class="cls-124" points="156.88 208.64 156.88 209.06 160.65 206.88 160.65 206.47 156.88 208.64"/></g><g class="cls-13"><polygon class="cls-125" points="157.73 209.14 157.73 209.55 161.47 211.73 161.47 211.31 157.73 209.14"/><polygon class="cls-126" points="161.47 211.31 161.47 211.73 165.25 209.55 165.24 209.14 161.47 211.31"/></g><g class="cls-13"><polygon class="cls-127" points="162.22 211.75 162.22 212.16 165.96 214.34 165.96 213.92 162.22 211.75"/><polygon class="cls-128" points="165.96 213.92 165.96 214.34 169.73 212.16 169.73 211.75 165.96 213.92"/></g><g class="cls-13"><polygon class="cls-129" points="166.7 214.35 166.7 214.77 170.45 216.95 170.45 216.53 166.7 214.35"/><polygon class="cls-130" points="170.45 216.53 170.45 216.95 174.22 214.77 174.22 214.35 170.45 216.53"/></g><g class="cls-13"><polygon class="cls-131" points="171.19 216.96 171.2 217.38 174.94 219.56 174.94 219.14 171.19 216.96"/><polygon class="cls-132" points="174.94 219.14 174.94 219.56 178.71 217.38 178.71 216.96 174.94 219.14"/></g><g class="cls-13"><polygon class="cls-133" points="175.68 219.57 175.68 219.99 179.43 222.16 179.43 221.75 175.68 219.57"/><polygon class="cls-134" points="179.43 221.75 179.43 222.16 183.2 219.99 183.2 219.57 179.43 221.75"/></g><g class="cls-13"><polygon class="cls-135" points="180.17 222.18 180.17 222.6 183.92 224.77 183.92 224.36 180.17 222.18"/><polygon class="cls-136" points="183.92 224.36 183.92 224.77 187.69 222.6 187.69 222.18 183.92 224.36"/></g><g class="cls-13"><polygon class="cls-137" points="184.66 224.79 184.66 225.2 188.41 227.38 188.41 226.97 184.66 224.79"/><polygon class="cls-138" points="188.41 226.97 188.41 227.38 192.18 225.21 192.18 224.79 188.41 226.97"/></g><g class="cls-13"><polygon class="cls-139" points="189.15 227.4 189.15 227.81 192.9 229.99 192.9 229.57 189.15 227.4"/><polygon class="cls-140" points="192.9 229.57 192.9 229.99 196.67 227.81 196.67 227.4 192.9 229.57"/></g><g class="cls-13"><polygon class="cls-141" points="193.64 230.01 193.64 230.42 197.39 232.6 197.38 232.18 193.64 230.01"/><polygon class="cls-142" points="197.38 232.18 197.39 232.6 201.16 230.42 201.16 230.01 197.38 232.18"/></g><g class="cls-13"><polygon class="cls-143" points="198.13 232.61 198.13 233.03 201.88 235.21 201.87 234.79 198.13 232.61"/><polygon class="cls-144" points="201.87 234.79 201.88 235.21 205.64 233.03 205.64 232.62 201.87 234.79"/></g><g class="cls-13"><polygon class="cls-145" points="202.66 235.25 202.66 235.66 209.28 239.51 209.28 239.09 202.66 235.25"/><polygon class="cls-146" points="209.28 239.09 209.28 239.51 213.05 237.33 213.04 236.92 209.28 239.09"/></g><g class="cls-13"><polygon class="cls-147" points="144.54 206.93 144.54 207.35 154.04 212.87 154.03 212.45 144.54 206.93"/><polygon class="cls-148" points="154.03 212.45 154.04 212.87 157.81 210.69 157.81 210.27 154.03 212.45"/></g><g class="cls-13"><polygon class="cls-149" points="154.89 212.95 154.89 213.36 158.63 215.54 158.63 215.12 154.89 212.95"/><polygon class="cls-150" points="158.63 215.12 158.63 215.54 162.41 213.36 162.41 212.94 158.63 215.12"/></g><g class="cls-13"><polygon class="cls-151" points="159.31 215.52 159.31 215.93 163.06 218.11 163.06 217.69 159.31 215.52"/><polygon class="cls-152" points="163.06 217.69 163.06 218.11 166.83 215.93 166.83 215.52 163.06 217.69"/></g><g class="cls-13"><polygon class="cls-153" points="163.74 218.09 163.74 218.5 167.48 220.68 167.48 220.26 163.74 218.09"/><polygon class="cls-154" points="167.48 220.26 167.48 220.68 171.25 218.5 171.25 218.09 167.48 220.26"/></g><g class="cls-13"><polygon class="cls-155" points="168.16 220.66 168.16 221.07 171.91 223.25 171.91 222.84 168.16 220.66"/><polygon class="cls-156" points="171.91 222.84 171.91 223.25 175.68 221.07 175.68 220.66 171.91 222.84"/></g><g class="cls-13"><polygon class="cls-157" points="172.58 223.23 172.59 223.65 176.33 225.82 176.33 225.41 172.58 223.23"/><polygon class="cls-158" points="176.33 225.41 176.33 225.82 180.1 223.64 180.1 223.23 176.33 225.41"/></g><g class="cls-13"><polygon class="cls-159" points="177.01 225.8 177.01 226.22 180.75 228.39 180.75 227.98 177.01 225.8"/><polygon class="cls-160" points="180.75 227.98 180.75 228.39 184.53 226.22 184.53 225.8 180.75 227.98"/></g><g class="cls-13"><polygon class="cls-161" points="181.43 228.37 181.43 228.79 185.18 230.96 185.18 230.55 181.43 228.37"/><polygon class="cls-162" points="185.18 230.55 185.18 230.96 188.95 228.79 188.95 228.37 185.18 230.55"/></g><g class="cls-13"><polygon class="cls-163" points="185.85 230.94 185.86 231.36 189.6 233.54 189.6 233.12 185.85 230.94"/><polygon class="cls-164" points="189.6 233.12 189.6 233.54 193.38 231.36 193.38 230.94 189.6 233.12"/></g><g class="cls-13"><polygon class="cls-165" points="190.28 233.51 190.28 233.93 194.03 236.11 194.03 235.69 190.28 233.51"/><polygon class="cls-166" points="194.03 235.69 194.03 236.11 197.8 233.93 197.8 233.51 194.03 235.69"/></g><g class="cls-13"><polygon class="cls-167" points="195.01 236.26 195.01 236.68 204.56 242.23 204.56 241.81 195.01 236.26"/><polygon class="cls-168" points="204.56 241.81 204.56 242.23 208.34 240.05 208.34 239.64 204.56 241.81"/></g><g class="cls-13"><polygon class="cls-169" points="144.65 212.37 144.65 212.79 146.8 214.04 146.8 213.62 144.65 212.37"/><polygon class="cls-170" points="146.8 213.62 146.8 214.04 150.5 211.9 150.5 211.48 146.8 213.62"/><polygon class="cls-171" points="139.87 215.13 139.87 215.55 144.65 212.79 144.65 212.37 139.87 215.13"/><polygon class="cls-172" points="135.12 212.37 135.12 212.79 139.87 215.55 139.87 215.13 135.12 212.37"/><polygon class="cls-173" points="151.33 216.34 151.33 216.75 155.11 214.57 155.11 214.16 151.33 216.34"/><polygon class="cls-174" points="147.59 214.16 147.59 214.58 151.33 216.75 151.33 216.34 147.59 214.16"/><polygon class="cls-175" points="144.56 217.86 144.56 218.27 148.33 216.09 148.33 215.68 144.56 217.86"/><polygon class="cls-176" points="140.81 215.68 140.81 216.09 144.56 218.27 144.56 217.86 140.81 215.68"/></g><g class="cls-13"><polygon class="cls-177" points="130.24 215.19 130.24 215.6 139.74 221.12 139.74 220.71 130.24 215.19"/><polygon class="cls-178" points="139.74 220.71 139.74 221.12 143.51 218.94 143.51 218.53 139.74 220.71"/></g><g class="cls-13"><polygon class="cls-179" points="152.05 216.76 152.06 217.17 155.8 219.35 155.8 218.93 152.05 216.76"/><polygon class="cls-180" points="155.8 218.93 155.8 219.35 159.57 217.17 159.57 216.75 155.8 218.93"/></g><g class="cls-13"><polygon class="cls-181" points="156.52 219.35 156.52 219.77 160.27 221.94 160.27 221.53 156.52 219.35"/><polygon class="cls-182" points="160.27 221.53 160.27 221.94 164.04 219.77 164.04 219.35 160.27 221.53"/></g><g class="cls-13"><polygon class="cls-183" points="160.99 221.95 160.99 222.36 164.74 224.54 164.73 224.13 160.99 221.95"/><polygon class="cls-184" points="164.73 224.13 164.74 224.54 168.51 222.36 168.51 221.95 164.73 224.13"/></g><g class="cls-13"><polygon class="cls-185" points="165.45 224.54 165.45 224.96 169.2 227.14 169.2 226.72 165.45 224.54"/><polygon class="cls-186" points="169.2 226.72 169.2 227.14 172.97 224.96 172.97 224.54 169.2 226.72"/></g><g class="cls-13"><polygon class="cls-187" points="169.92 227.14 169.92 227.55 173.67 229.73 173.67 229.32 169.92 227.14"/><polygon class="cls-188" points="173.67 229.32 173.67 229.73 177.44 227.55 177.44 227.14 173.67 229.32"/></g><g class="cls-13"><polygon class="cls-189" points="174.39 229.74 174.39 230.15 178.13 232.33 178.13 231.91 174.39 229.74"/><polygon class="cls-190" points="178.13 231.91 178.13 232.33 181.91 230.15 181.9 229.73 178.13 231.91"/></g><g class="cls-13"><polygon class="cls-191" points="178.85 232.33 178.85 232.75 182.6 234.92 182.6 234.51 178.85 232.33"/><polygon class="cls-192" points="182.6 234.51 182.6 234.92 186.37 232.74 186.37 232.33 182.6 234.51"/></g><g class="cls-13"><polygon class="cls-193" points="183.32 234.93 183.32 235.34 187.07 237.52 187.07 237.1 183.32 234.93"/><polygon class="cls-194" points="187.07 237.1 187.07 237.52 190.84 235.34 190.84 234.93 187.07 237.1"/></g><g class="cls-13"><polygon class="cls-195" points="187.78 237.52 187.79 237.94 191.53 240.11 191.53 239.7 187.78 237.52"/><polygon class="cls-196" points="191.53 239.7 191.53 240.11 195.31 237.94 195.31 237.52 191.53 239.7"/></g><g class="cls-13"><polygon class="cls-197" points="192.45 240.23 192.45 240.65 199.85 244.95 199.85 244.53 192.45 240.23"/><polygon class="cls-198" points="199.85 244.53 199.85 244.95 203.63 242.77 203.63 242.36 199.85 244.53"/></g><g class="cls-13"><polygon class="cls-199" points="145.28 218.27 145.28 218.69 149.02 220.87 149.02 220.45 145.28 218.27"/><polygon class="cls-200" points="149.02 220.45 149.02 220.87 152.8 218.69 152.79 218.27 149.02 220.45"/></g><g class="cls-13"><polygon class="cls-201" points="149.74 220.87 149.75 221.29 153.49 223.46 153.49 223.05 149.74 220.87"/><polygon class="cls-202" points="153.49 223.05 153.49 223.46 157.26 221.28 157.26 220.87 153.49 223.05"/></g><g class="cls-13"><polygon class="cls-203" points="154.21 223.47 154.21 223.88 157.96 226.06 157.96 225.64 154.21 223.47"/><polygon class="cls-204" points="157.96 225.64 157.96 226.06 161.73 223.88 161.73 223.46 157.96 225.64"/></g><g class="cls-13"><polygon class="cls-205" points="158.68 226.06 158.68 226.48 162.43 228.66 162.42 228.24 158.68 226.06"/><polygon class="cls-206" points="162.42 228.24 162.43 228.66 166.2 226.48 166.2 226.06 162.42 228.24"/></g><g class="cls-13"><polygon class="cls-207" points="163.14 228.66 163.14 229.07 166.89 231.25 166.89 230.83 163.14 228.66"/><polygon class="cls-208" points="166.89 230.83 166.89 231.25 170.66 229.07 170.66 228.66 166.89 230.83"/></g><g class="cls-13"><polygon class="cls-209" points="167.61 231.25 167.61 231.67 171.36 233.84 171.36 233.43 167.61 231.25"/><polygon class="cls-210" points="171.36 233.43 171.36 233.84 175.13 231.67 175.13 231.25 171.36 233.43"/></g><g class="cls-13"><polygon class="cls-211" points="172.07 233.85 172.07 234.26 175.82 236.44 175.82 236.03 172.07 233.85"/><polygon class="cls-212" points="175.82 236.03 175.82 236.44 179.59 234.26 179.59 233.85 175.82 236.03"/></g><g class="cls-13"><polygon class="cls-213" points="176.54 236.44 176.54 236.86 180.29 239.03 180.29 238.62 176.54 236.44"/><polygon class="cls-214" points="180.29 238.62 180.29 239.03 184.06 236.86 184.06 236.44 180.29 238.62"/></g><g class="cls-13"><polygon class="cls-215" points="181.01 239.04 181.01 239.46 184.75 241.63 184.75 241.22 181.01 239.04"/><polygon class="cls-216" points="184.75 241.22 184.75 241.63 188.53 239.45 188.53 239.04 184.75 241.22"/></g><g class="cls-13"><polygon class="cls-217" points="185.59 241.7 185.59 242.12 195.14 247.67 195.14 247.25 185.59 241.7"/><polygon class="cls-218" points="195.14 247.25 195.14 247.67 198.92 245.49 198.92 245.07 195.14 247.25"/></g><g class="cls-13"><polygon class="cls-219" points="140.59 221.2 140.59 221.62 144.34 223.79 144.34 223.38 140.59 221.2"/><polygon class="cls-220" points="144.34 223.38 144.34 223.79 148.12 221.62 148.11 221.2 144.34 223.38"/></g><g class="cls-13"><polygon class="cls-221" points="145.03 223.78 145.03 224.19 148.78 226.37 148.78 225.96 145.03 223.78"/><polygon class="cls-222" points="148.78 225.96 148.78 226.37 152.55 224.19 152.55 223.78 148.78 225.96"/></g><g class="cls-13"><polygon class="cls-223" points="149.46 226.35 149.46 226.77 153.21 228.95 153.21 228.53 149.46 226.35"/><polygon class="cls-224" points="153.21 228.53 153.21 228.95 156.98 226.77 156.98 226.35 153.21 228.53"/></g><g class="cls-13"><polygon class="cls-225" points="153.89 228.93 153.89 229.34 157.64 231.52 157.64 231.11 153.89 228.93"/><polygon class="cls-226" points="157.64 231.11 157.64 231.52 161.41 229.34 161.41 228.93 157.64 231.11"/></g><g class="cls-13"><polygon class="cls-227" points="158.31 231.5 158.31 231.91 175.31 241.79 175.31 241.38 158.31 231.5"/><polygon class="cls-228" points="175.31 241.38 175.31 241.79 179.09 239.61 179.08 239.2 175.31 241.38"/></g><g class="cls-13"><polygon class="cls-229" points="176.2 241.89 176.2 242.31 179.95 244.49 179.94 244.07 176.2 241.89"/><polygon class="cls-230" points="179.94 244.07 179.95 244.49 183.72 242.31 183.72 241.89 179.94 244.07"/></g><g class="cls-13"><polygon class="cls-231" points="180.72 244.52 180.72 244.94 190.27 250.48 190.27 250.07 180.72 244.52"/><polygon class="cls-232" points="190.27 250.07 190.27 250.48 194.04 248.31 194.04 247.89 190.27 250.07"/></g><polygon class="cls-233" points="153.75 201.37 157.5 203.55 161.27 201.37 157.52 199.19 153.75 201.37"/><polygon class="cls-234" points="158.46 204.1 162.2 206.28 165.97 204.1 162.22 201.93 158.46 204.1"/><polygon class="cls-235" points="163.16 206.84 166.91 209.02 170.68 206.84 166.93 204.66 163.16 206.84"/><polygon class="cls-236" points="167.87 209.57 171.61 211.75 175.38 209.57 171.64 207.4 167.87 209.57"/><polygon class="cls-237" points="172.57 212.31 176.32 214.49 180.09 212.31 176.34 210.13 172.57 212.31"/><polygon class="cls-238" points="177.28 215.04 181.03 217.22 184.8 215.04 181.05 212.87 177.28 215.04"/><polygon class="cls-239" points="181.99 217.78 185.73 219.96 189.5 217.78 185.75 215.6 181.99 217.78"/><polygon class="cls-240" points="186.69 220.51 190.44 222.69 194.21 220.51 190.46 218.34 186.69 220.51"/><polygon class="cls-241" points="191.4 223.25 195.14 225.42 198.91 223.25 195.16 221.07 191.4 223.25"/><polygon class="cls-242" points="196.1 225.98 199.85 228.16 203.62 225.98 199.87 223.81 196.1 225.98"/><polygon class="cls-243" points="200.81 228.72 204.55 230.89 208.32 228.72 204.58 226.54 200.81 228.72"/><polygon class="cls-244" points="205.51 231.45 209.26 233.63 213.03 231.45 209.28 229.28 205.51 231.45"/><polygon class="cls-245" points="210.22 234.19 213.97 236.36 217.74 234.19 213.99 232.01 210.22 234.19"/><polygon class="cls-246" points="149.25 204.21 156.88 208.64 160.65 206.47 153.02 202.03 149.25 204.21"/><polygon class="cls-247" points="157.73 209.14 161.47 211.31 165.24 209.14 161.5 206.96 157.73 209.14"/><polygon class="cls-248" points="162.22 211.75 165.96 213.92 169.73 211.75 165.98 209.57 162.22 211.75"/><polygon class="cls-249" points="166.7 214.35 170.45 216.53 174.22 214.35 170.47 212.18 166.7 214.35"/><polygon class="cls-250" points="171.19 216.96 174.94 219.14 178.71 216.96 174.96 214.79 171.19 216.96"/><polygon class="cls-251" points="175.68 219.57 179.43 221.75 183.2 219.57 179.45 217.4 175.68 219.57"/><polygon class="cls-252" points="180.17 222.18 183.92 224.36 187.69 222.18 183.94 220 180.17 222.18"/><polygon class="cls-253" points="184.66 224.79 188.41 226.97 192.18 224.79 188.43 222.61 184.66 224.79"/><polygon class="cls-254" points="189.15 227.4 192.9 229.57 196.67 227.4 192.92 225.22 189.15 227.4"/><polygon class="cls-255" points="193.64 230.01 197.38 232.18 201.16 230.01 197.41 227.83 193.64 230.01"/><polygon class="cls-256" points="198.13 232.61 201.87 234.79 205.64 232.62 201.9 230.44 198.13 232.61"/><polygon class="cls-257" points="202.66 235.25 209.28 239.09 213.04 236.92 206.43 233.07 202.66 235.25"/><polygon class="cls-258" points="144.54 206.93 154.03 212.45 157.81 210.27 148.31 204.75 144.54 206.93"/><polygon class="cls-259" points="154.89 212.95 158.63 215.12 162.41 212.94 158.66 210.77 154.89 212.95"/><polygon class="cls-260" points="159.31 215.52 163.06 217.69 166.83 215.52 163.09 213.34 159.31 215.52"/><polygon class="cls-261" points="163.74 218.09 167.48 220.26 171.25 218.09 167.51 215.91 163.74 218.09"/><polygon class="cls-262" points="168.16 220.66 171.91 222.84 175.68 220.66 171.93 218.48 168.16 220.66"/><polygon class="cls-263" points="172.58 223.23 176.33 225.41 180.1 223.23 176.36 221.05 172.58 223.23"/><polygon class="cls-264" points="177.01 225.8 180.75 227.98 184.53 225.8 180.78 223.62 177.01 225.8"/><polygon class="cls-265" points="181.43 228.37 185.18 230.55 188.95 228.37 185.2 226.19 181.43 228.37"/><polygon class="cls-266" points="185.85 230.94 189.6 233.12 193.38 230.94 189.63 228.76 185.85 230.94"/><polygon class="cls-267" points="190.28 233.51 194.03 235.69 197.8 233.51 194.05 231.34 190.28 233.51"/><polygon class="cls-268" points="195.01 236.26 204.56 241.81 208.34 239.64 198.79 234.09 195.01 236.26"/><polygon class="cls-269" points="135.12 212.37 139.87 215.13 144.65 212.37 146.8 213.62 150.5 211.48 143.6 207.47 135.12 212.37"/><polygon class="cls-270" points="147.59 214.16 151.33 216.34 155.11 214.16 151.36 211.98 147.59 214.16"/><polygon class="cls-271" points="140.81 215.68 144.56 217.86 148.33 215.68 144.58 213.5 140.81 215.68"/><polygon class="cls-272" points="130.24 215.19 139.74 220.71 143.51 218.53 134.01 213.01 130.24 215.19"/><polygon class="cls-273" points="152.05 216.76 155.8 218.93 159.57 216.75 155.83 214.58 152.05 216.76"/><polygon class="cls-274" points="156.52 219.35 160.27 221.53 164.04 219.35 160.29 217.17 156.52 219.35"/><polygon class="cls-275" points="160.99 221.95 164.73 224.13 168.51 221.95 164.76 219.77 160.99 221.95"/><polygon class="cls-276" points="165.45 224.54 169.2 226.72 172.97 224.54 169.22 222.36 165.45 224.54"/><polygon class="cls-277" points="169.92 227.14 173.67 229.32 177.44 227.14 173.69 224.96 169.92 227.14"/><polygon class="cls-278" points="174.39 229.74 178.13 231.91 181.9 229.73 178.16 227.56 174.39 229.74"/><polygon class="cls-279" points="178.85 232.33 182.6 234.51 186.37 232.33 182.63 230.15 178.85 232.33"/><polygon class="cls-280" points="183.32 234.93 187.07 237.1 190.84 234.93 187.09 232.75 183.32 234.93"/><polygon class="cls-281" points="187.78 237.52 191.53 239.7 195.31 237.52 191.56 235.34 187.78 237.52"/><polygon class="cls-282" points="192.45 240.23 199.85 244.53 203.63 242.36 196.22 238.06 192.45 240.23"/><polygon class="cls-283" points="145.28 218.27 149.02 220.45 152.79 218.27 149.05 216.09 145.28 218.27"/><polygon class="cls-284" points="149.74 220.87 153.49 223.05 157.26 220.87 153.52 218.69 149.74 220.87"/><polygon class="cls-285" points="154.21 223.47 157.96 225.64 161.73 223.46 157.98 221.29 154.21 223.47"/><polygon class="cls-286" points="158.68 226.06 162.42 228.24 166.2 226.06 162.45 223.88 158.68 226.06"/><polygon class="cls-287" points="163.14 228.66 166.89 230.83 170.66 228.66 166.91 226.48 163.14 228.66"/><polygon class="cls-288" points="167.61 231.25 171.36 233.43 175.13 231.25 171.38 229.07 167.61 231.25"/><polygon class="cls-289" points="172.07 233.85 175.82 236.03 179.59 233.85 175.85 231.67 172.07 233.85"/><polygon class="cls-290" points="176.54 236.44 180.29 238.62 184.06 236.44 180.31 234.27 176.54 236.44"/><polygon class="cls-291" points="181.01 239.04 184.75 241.22 188.53 239.04 184.78 236.86 181.01 239.04"/><polygon class="cls-292" points="185.59 241.7 195.14 247.25 198.92 245.07 189.37 239.53 185.59 241.7"/><polygon class="cls-293" points="140.59 221.2 144.34 223.38 148.11 221.2 144.37 219.02 140.59 221.2"/><polygon class="cls-294" points="145.03 223.78 148.78 225.96 152.55 223.78 148.8 221.6 145.03 223.78"/><polygon class="cls-295" points="149.46 226.35 153.21 228.53 156.98 226.35 153.23 224.18 149.46 226.35"/><polygon class="cls-296" points="153.89 228.93 157.64 231.11 161.41 228.93 157.66 226.75 153.89 228.93"/><polygon class="cls-297" points="158.31 231.5 175.31 241.38 179.08 239.2 162.08 229.32 158.31 231.5"/><polygon class="cls-298" points="176.2 241.89 179.94 244.07 183.72 241.89 179.97 239.71 176.2 241.89"/><polygon class="cls-299" points="180.72 244.52 190.27 250.07 194.04 247.89 184.49 242.34 180.72 244.52"/><path class="cls-300" d="M141,237.32a1.09,1.09,0,0,0,.41.38l14.73,8.5a2.92,2.92,0,0,0,2.64,0l6.87-4a1.19,1.19,0,0,0,.42-.37c.26-.38.12-.84-.42-1.15l-14.73-8.51a3,3,0,0,0-2.63,0l-6.88,4C140.89,236.48,140.75,236.94,141,237.32Z"/><path class="cls-301" d="M141,237.32a1.09,1.09,0,0,0,.41.38l14.73,8.5a2.92,2.92,0,0,0,2.64,0l6.87-4a1.19,1.19,0,0,0,.42-.37,1.29,1.29,0,0,0-.42-.37L150.93,233a2.84,2.84,0,0,0-2.63,0l-6.88,4A1.16,1.16,0,0,0,141,237.32Z"/><polygon class="cls-302" points="197.4 175.7 198.37 175.13 177.29 162.97 176.33 163.53 197.4 175.7"/><g class="cls-303"><polygon class="cls-304" points="210.53 211.36 211.5 210.79 211.59 179.6 210.62 180.16 210.53 211.36"/></g><polygon class="cls-305" points="210.62 180.16 211.59 179.6 199.75 172.77 198.79 173.33 210.62 180.16"/><polygon class="cls-306" points="198.79 173.33 197.4 175.7 176.33 163.53 176.25 191.56 210.53 211.36 210.62 180.16 198.79 173.33"/><g class="cls-13"><polygon class="cls-1" points="207.3 211.81 209.88 210.31 209.95 184.65 207.37 186.14 207.3 211.81"/><polygon class="cls-42" points="207.37 186.14 209.95 184.65 177.18 165.73 174.6 167.23 207.37 186.14"/><polygon class="cls-307" points="174.6 167.23 174.53 192.9 207.3 211.81 207.37 186.14 174.6 167.23"/></g><polygon class="cls-308" points="210.54 208.04 210.54 209.02 210.56 209.02 210.56 209.43 211.5 209.43 211.5 210.04 207.34 212.44 207.34 209.96 210.54 208.04"/><g class="cls-303"><polygon class="cls-309" points="207.34 213.19 208.31 212.63 208.38 186.56 207.42 187.12 207.34 213.19"/></g><polygon class="cls-310" points="207.42 187.12 208.38 186.56 174.1 166.76 173.13 167.32 207.42 187.12"/><polygon class="cls-311" points="173.13 167.32 173.06 193.4 207.34 213.19 207.42 187.12 173.13 167.32"/><polygon class="cls-312" points="207.34 213.19 211.5 210.79 211.5 208.22 207.34 210.71 207.34 213.19"/><path class="cls-42" d="M183.87,185.26a1.58,1.58,0,0,1-.3-.24,1.87,1.87,0,0,1-.6-1.73,3.75,3.75,0,0,1,4.94-2.47c3.39.94,6.88,4.9,8.28,9.42.21.68,0,1.2-.49,1.16s-1-.61-1.25-1.29c-1-3.3-3.58-6.2-6.06-6.89a2.75,2.75,0,0,0-3.62,1.81C184.64,185.41,184.27,185.49,183.87,185.26Z"/><polygon class="cls-42" points="181.71 182.14 184.14 188.24 186.45 184.79 181.71 182.14"/><path class="cls-42" d="M189.91,198.94a15.76,15.76,0,0,1-6.33-8.09c-.24-.68-.06-1.24.41-1.25s1,.54,1.28,1.22c1.1,3.11,3.59,5.83,5.93,6.47a2.73,2.73,0,0,0,3.63-1.88c.16-.48.7-.5,1.2,0a1.9,1.9,0,0,1,.61,1.73,3.74,3.74,0,0,1-5,2.57A7.46,7.46,0,0,1,189.91,198.94Z"/><polygon class="cls-42" points="197.9 198.5 195.83 192.38 193.17 195.38 197.9 198.5"/><g class="cls-313"><polygon class="cls-314" points="303.16 99.01 300.82 97.66 300.82 94.95 303.16 96.31 303.16 99.01"/><polygon class="cls-315" points="336.25 120.47 333.91 119.12 333.91 116.42 336.25 117.77 336.25 120.47"/><polygon class="cls-44" points="335.08 181.9 332.74 180.55 332.74 177.85 335.08 179.2 335.08 181.9"/><polygon class="cls-316" points="212.39 104.21 210.05 102.86 210.05 100.16 212.39 101.51 212.39 104.21"/><polygon class="cls-44" points="355.29 218.77 352.94 217.42 352.94 214.72 355.29 216.07 355.29 218.77"/><polygon class="cls-317" points="351.24 181.6 348.89 180.25 348.89 177.55 351.24 178.9 351.24 181.6"/><polygon class="cls-44" points="262.56 96.98 260.22 95.63 260.22 92.93 262.56 94.28 262.56 96.98"/><polygon class="cls-44" points="324.92 154.95 322.58 153.6 322.58 150.89 324.92 152.25 324.92 154.95"/><polygon class="cls-44" points="304.33 126.69 301.99 125.33 301.99 122.63 304.33 123.98 304.33 126.69"/></g></g></g></svg>