<svg xmlns="http://www.w3.org/2000/svg" xmlns:xlink="http://www.w3.org/1999/xlink" viewBox="0 0 450 420"><defs><style>.cls-1,.cls-17,.cls-26{fill:none;}.cls-2{isolation:isolate;}.cls-3{opacity:0.3;}.cls-23,.cls-3,.cls-4,.cls-57{mix-blend-mode:multiply;}.cls-4,.cls-57{fill:#ccc;}.cls-5{fill:url(#linear-gradient);}.cls-6{fill:url(#linear-gradient-2);}.cls-7{fill:#2e3665;}.cls-8{fill:url(#linear-gradient-3);}.cls-9{fill:#195ea8;}.cls-10{fill:#12428e;}.cls-11{clip-path:url(#clip-path);}.cls-12{fill:#12203f;}.cls-13{fill:url(#linear-gradient-4);}.cls-14{fill:#6698db;}.cls-15{fill:#c2deff;}.cls-16{fill:#fff;}.cls-17{stroke:#4470c2;stroke-width:0.2px;}.cls-17,.cls-26{stroke-miterlimit:10;}.cls-18{fill:#f171a5;}.cls-19{fill:url(#linear-gradient-5);}.cls-20{fill:url(#linear-gradient-6);}.cls-21{fill:url(#linear-gradient-7);}.cls-22{fill:url(#linear-gradient-8);}.cls-23{fill:#999;opacity:0.1;}.cls-24{fill:#38c5ea;}.cls-25{fill:url(#linear-gradient-9);}.cls-26{stroke-width:2px;stroke:url(#linear-gradient-10);}.cls-27{fill:url(#linear-gradient-11);}.cls-28{fill:url(#linear-gradient-12);}.cls-29{fill:url(#linear-gradient-13);}.cls-30{fill:url(#linear-gradient-14);}.cls-31{opacity:0.05;mix-blend-mode:hard-light;}.cls-32{fill:url(#linear-gradient-15);}.cls-33{fill:#fff7ff;}.cls-34{fill:#b3b3b3;}.cls-35{fill:url(#linear-gradient-16);}.cls-36{fill:url(#linear-gradient-17);}.cls-37{fill:url(#linear-gradient-18);}.cls-38{fill:url(#linear-gradient-19);}.cls-39{fill:url(#linear-gradient-20);}.cls-40{fill:url(#linear-gradient-21);}.cls-41{fill:url(#linear-gradient-22);}.cls-42{fill:url(#linear-gradient-23);}.cls-43{fill:url(#linear-gradient-24);}.cls-44{fill:url(#linear-gradient-25);}.cls-45{fill:url(#linear-gradient-26);}.cls-46{fill:url(#linear-gradient-27);}.cls-47{fill:url(#linear-gradient-28);}.cls-48{fill:url(#linear-gradient-29);}.cls-49{fill:url(#linear-gradient-30);}.cls-50{fill:url(#linear-gradient-31);}.cls-51{fill:url(#linear-gradient-32);}.cls-52{fill:url(#linear-gradient-33);}.cls-53{fill:url(#linear-gradient-34);}.cls-54{fill:#071022;}.cls-55{fill:url(#linear-gradient-35);}.cls-56{fill:url(#linear-gradient-36);}.cls-57{opacity:0.4;}.cls-58{fill:url(#linear-gradient-37);}.cls-59{fill:url(#linear-gradient-38);}.cls-60{fill:url(#linear-gradient-39);}.cls-61{fill:url(#linear-gradient-40);}.cls-62{fill:url(#linear-gradient-41);}.cls-63{fill:url(#linear-gradient-42);}.cls-64{fill:url(#linear-gradient-43);}.cls-65{fill:url(#linear-gradient-44);}.cls-66{fill:url(#linear-gradient-45);}</style><linearGradient id="linear-gradient" x1="83.04" y1="273.54" x2="376.93" y2="273.54" gradientUnits="userSpaceOnUse"><stop offset="0" stop-color="#0984bd"/><stop offset="1" stop-color="#56a5d7"/></linearGradient><linearGradient id="linear-gradient-2" x1="189.36" y1="170.44" x2="383.19" y2="170.44" xlink:href="#linear-gradient"/><linearGradient id="linear-gradient-3" x1="195.55" y1="170.47" x2="373.1" y2="170.47" gradientUnits="userSpaceOnUse"><stop offset="0" stop-color="#56a5d7"/><stop offset="1" stop-color="#0984bd"/></linearGradient><clipPath id="clip-path"><path class="cls-1" d="M335.55,162.7l-73.48-42.42a3.66,3.66,0,0,0-5.48,3.16l-.21,74.1a9.32,9.32,0,0,0,4.65,8.09l76.76,44.31a3,3,0,0,0,4.57-2.63l.21-72.41A14.07,14.07,0,0,0,335.55,162.7Z"/></clipPath><linearGradient id="linear-gradient-4" x1="286.62" y1="171.36" x2="310.25" y2="171.36" gradientUnits="userSpaceOnUse"><stop offset="0" stop-color="#ffaa90"/><stop offset="0.6" stop-color="#ffd5c5"/></linearGradient><linearGradient id="linear-gradient-5" x1="263.04" y1="176.23" x2="273.09" y2="176.23" xlink:href="#linear-gradient-4"/><linearGradient id="linear-gradient-6" x1="266.85" y1="193.02" x2="295.45" y2="193.02" gradientUnits="userSpaceOnUse"><stop offset="0" stop-color="#abd1ec"/><stop offset="0.57" stop-color="#eef6fb"/></linearGradient><linearGradient id="linear-gradient-7" x1="276.47" y1="196.6" x2="295.45" y2="196.6" xlink:href="#linear-gradient-6"/><linearGradient id="linear-gradient-8" x1="285.55" y1="218.2" x2="317.86" y2="218.2" xlink:href="#linear-gradient-6"/><linearGradient id="linear-gradient-9" x1="307.34" y1="218.05" x2="320.89" y2="218.05" xlink:href="#linear-gradient-6"/><linearGradient id="linear-gradient-10" x1="255.38" y1="185.07" x2="343.57" y2="185.07" gradientUnits="userSpaceOnUse"><stop offset="0" stop-color="#38c5ea"/><stop offset="0.21" stop-color="#3bc6ea"/><stop offset="0.36" stop-color="#44c8eb"/><stop offset="0.48" stop-color="#53cded"/><stop offset="0.6" stop-color="#69d3ef"/><stop offset="0.71" stop-color="#85dcf2"/><stop offset="0.81" stop-color="#a8e6f6"/><stop offset="0.91" stop-color="#d0f1fa"/><stop offset="1" stop-color="#fff"/></linearGradient><linearGradient id="linear-gradient-11" x1="225.72" y1="119.06" x2="244.85" y2="119.06" xlink:href="#linear-gradient-4"/><linearGradient id="linear-gradient-12" x1="225.72" y1="179.68" x2="244.85" y2="179.68" xlink:href="#linear-gradient-4"/><linearGradient id="linear-gradient-13" x1="225.72" y1="149.37" x2="244.85" y2="149.37" gradientTransform="matrix(0.86, 0.5, -0.5, 0.86, 106.91, -98)" xlink:href="#linear-gradient-10"/><linearGradient id="linear-gradient-14" x1="199.41" y1="122.06" x2="369.55" y2="122.06" gradientUnits="userSpaceOnUse"><stop offset="0.05" stop-color="#14416a"/><stop offset="1" stop-color="#004f98"/></linearGradient><linearGradient id="linear-gradient-15" x1="83.64" y1="270.03" x2="376.47" y2="270.03" xlink:href="#linear-gradient-6"/><linearGradient id="linear-gradient-16" x1="67.56" y1="337.19" x2="177.84" y2="337.19" gradientUnits="userSpaceOnUse"><stop offset="0" stop-color="#f57454"/><stop offset="1" stop-color="#f7947c"/></linearGradient><linearGradient id="linear-gradient-17" x1="162.01" y1="319.02" x2="167.68" y2="319.02" xlink:href="#linear-gradient-16"/><linearGradient id="linear-gradient-18" x1="77.5" y1="319.03" x2="83.24" y2="319.03" xlink:href="#linear-gradient-16"/><linearGradient id="linear-gradient-19" x1="67.56" y1="333.61" x2="177.84" y2="333.61" gradientUnits="userSpaceOnUse"><stop offset="0" stop-color="#fab371"/><stop offset="1" stop-color="#fcd5b0"/></linearGradient><linearGradient id="linear-gradient-20" x1="89.99" y1="359.87" x2="99.12" y2="359.87" xlink:href="#linear-gradient-16"/><linearGradient id="linear-gradient-21" x1="111.75" y1="364.29" x2="114.22" y2="364.29" xlink:href="#linear-gradient-16"/><linearGradient id="linear-gradient-22" x1="131.53" y1="364.29" x2="133.94" y2="364.29" xlink:href="#linear-gradient-16"/><linearGradient id="linear-gradient-23" x1="146.54" y1="359.87" x2="155.7" y2="359.87" xlink:href="#linear-gradient-16"/><linearGradient id="linear-gradient-24" x1="167.35" y1="341.12" x2="177.84" y2="341.12" xlink:href="#linear-gradient-16"/><linearGradient id="linear-gradient-25" x1="67.62" y1="341.12" x2="78.12" y2="341.12" xlink:href="#linear-gradient-16"/><linearGradient id="linear-gradient-26" x1="77.72" y1="357.97" x2="89.99" y2="357.97" xlink:href="#linear-gradient-16"/><linearGradient id="linear-gradient-27" x1="155.7" y1="357.98" x2="167.9" y2="357.98" xlink:href="#linear-gradient-16"/><linearGradient id="linear-gradient-28" x1="96.42" y1="205.39" x2="109.71" y2="205.39" xlink:href="#linear-gradient-19"/><linearGradient id="linear-gradient-29" x1="92.86" y1="331.25" x2="149.7" y2="331.25" xlink:href="#linear-gradient-16"/><linearGradient id="linear-gradient-30" x1="121.48" y1="333.93" x2="141.15" y2="333.93" xlink:href="#linear-gradient-6"/><linearGradient id="linear-gradient-31" x1="124.72" y1="331.07" x2="136.3" y2="331.07" xlink:href="#linear-gradient-19"/><linearGradient id="linear-gradient-32" x1="102.11" y1="324.44" x2="121.79" y2="324.44" xlink:href="#linear-gradient-6"/><linearGradient id="linear-gradient-33" x1="105.36" y1="321.59" x2="116.94" y2="321.59" xlink:href="#linear-gradient-19"/><linearGradient id="linear-gradient-34" x1="99.96" y1="281.17" x2="119.86" y2="281.17" xlink:href="#linear-gradient-14"/><linearGradient id="linear-gradient-35" x1="107.68" y1="284.43" x2="131.81" y2="284.43" xlink:href="#linear-gradient-14"/><linearGradient id="linear-gradient-36" x1="97.48" y1="208.67" x2="132.11" y2="208.67" xlink:href="#linear-gradient-16"/><linearGradient id="linear-gradient-37" x1="150.72" y1="233.18" x2="164.6" y2="233.18" xlink:href="#linear-gradient-4"/><linearGradient id="linear-gradient-38" x1="117.92" y1="206.09" x2="155.55" y2="206.09" xlink:href="#linear-gradient-19"/><linearGradient id="linear-gradient-39" x1="106.53" y1="160.19" x2="128.15" y2="160.19" xlink:href="#linear-gradient-4"/><linearGradient id="linear-gradient-40" x1="106.53" y1="157.74" x2="126.6" y2="157.74" xlink:href="#linear-gradient-4"/><linearGradient id="linear-gradient-41" x1="106.89" y1="172.85" x2="118.54" y2="172.85" xlink:href="#linear-gradient-19"/><linearGradient id="linear-gradient-42" x1="109.63" y1="113.42" x2="128.01" y2="113.42" xlink:href="#linear-gradient-4"/><linearGradient id="linear-gradient-43" x1="112.86" y1="110.92" x2="115.65" y2="110.92" xlink:href="#linear-gradient-4"/><linearGradient id="linear-gradient-44" x1="117.42" y1="113.55" x2="120.22" y2="113.55" xlink:href="#linear-gradient-4"/><linearGradient id="linear-gradient-45" x1="121.98" y1="116.18" x2="124.78" y2="116.18" xlink:href="#linear-gradient-4"/></defs><g class="cls-2"><g id="_2" data-name="2"><g class="cls-3"><path class="cls-4" d="M374.3,300.66,269,361.8a8.4,8.4,0,0,1-8.4,0l-174-101.26a8.37,8.37,0,0,1,0-14.49l106.45-61.83a8.38,8.38,0,0,1,8.4,0L373.76,293.09C378.34,295.66,378,298.37,374.3,300.66Z"/></g><path class="cls-5" d="M376.3,291.53s-5.1.5-6.83-.42l-176.6-102.9a8,8,0,0,0-8,0L87.62,240.86c-6.8,4.74-5.37,14.66-.07,17.72L261.26,358.87a8,8,0,0,0,8,0l106-61.58c2.5-1.57,1.72-4.2,1.1-5.75Z"/><path class="cls-6" d="M189.38,59.1,192,179.27A8.94,8.94,0,0,0,196.4,187L369.94,289.4c5.78,3.38,12.91-2,12.93-8.76l.32-117a8.88,8.88,0,0,0-4.34-7.67L202.59,51.77C196.69,48.28,189,51.93,189.38,59.1Z"/><path class="cls-7" d="M189.31,58.42,189,180.81a9,9,0,0,0,4.44,7.74l173.49,101.2a8.69,8.69,0,0,0,13-7.57l.33-117a8.9,8.9,0,0,0-4.35-7.66L199,53A6.41,6.41,0,0,0,189.31,58.42Z"/><polygon class="cls-8" points="195.92 59.3 195.55 179.19 372.74 281.63 373.1 162.96 195.92 59.3"/><polygon class="cls-9" points="199.45 66.4 199.1 175.31 369.21 273.65 369.55 165.91 199.45 66.4"/><path class="cls-10" d="M273.31,192.52c-11.35-6.55-20.5-22.4-20.46-35.44s9.25-18.27,20.59-11.72,20.51,22.41,20.47,35.42-9.27,18.28-20.6,11.74m5.05-61.15-9.73-5.61-1.4,7.9a19.79,19.79,0,0,0-8.87-.9l-6.29-8.67L245.16,128l4.37,9.8a19.18,19.18,0,0,0-3.71,8.05l-7.57-2.79,0,11.16,7.57,5.94a57.72,57.72,0,0,0,3.65,12.31L245,177.2l6.86,11.88,6.33-1.38a59.08,59.08,0,0,0,8.84,9.33l1.35,9.48,9.73,5.62,1.37-7.91a20,20,0,0,0,8.89.9l6.3,8.67,6.9-3.93-4.37-9.79a19.43,19.43,0,0,0,3.72-8l7.55,2.79,0-11.17L301,177.71a58.08,58.08,0,0,0-3.66-12.3l4.41-4.74-6.86-11.86-6.32,1.38a58.91,58.91,0,0,0-8.87-9.34l-1.32-9.48"/><path class="cls-10" d="M273.41,156.85c-5.81-3.36-10.53-.65-10.54,6s4.66,14.79,10.47,18.15,10.53.67,10.55-6-4.68-14.8-10.48-18.15"/><g class="cls-11"><path class="cls-12" d="M287.58,162.16a5.75,5.75,0,0,1-1.18-1.79,16,16,0,0,1-1-2.49c-.46-1.4-.66-3.08.26-4.23a1.14,1.14,0,0,1,.62-.44,1.29,1.29,0,0,1,.58.07,3.41,3.41,0,0,1,.83.42c.31.23.4.49.72.17.48-.47.93-1,1.41-1.42,2.83-2.7,6.6-4.78,10.61-3.89l.58.14a2.28,2.28,0,0,1,1.34,1,2,2,0,0,0,1.29,1,20.2,20.2,0,0,1,2.54.56,7.76,7.76,0,0,1,4.28,2.62,4.41,4.41,0,0,1,.41,3.33c.07-.52,1.34.05,1.5.17a5.8,5.8,0,0,1,1.93,2.76,4.77,4.77,0,0,1-.18,3c-.81,2.82-1.31,6.24-3.53,10-1.16,2-3.81,4.94-4.13,4.71Z"/><path class="cls-13" d="M297.85,181.35a14.37,14.37,0,0,1-3,.48c-9.72-1-8.26-11.45-7.94-17.32.11-2.1.05-4.77,1.7-6.34a1.78,1.78,0,0,1,.64-.42,2.44,2.44,0,0,1,2,.63,14.89,14.89,0,0,0,4.31,2.11,16.2,16.2,0,0,0,4.71.31,2.62,2.62,0,0,1,2.51,1.31c.45,1.17-1.37,2.74-.32,3.81.65.67,1.36.83,1.65,1.84a7,7,0,0,1,.13,2,.77.77,0,0,0,1,.84c1.13-.37.75-2.17,1.11-3a2.41,2.41,0,0,1,2.53-1.45c2.68-.07,1.16,8.16-1.84,8.94,0,0-.44,4-.84,8.62-.15,1.77-4.14,1.41-5.64,1.1-.6-.12-2.59-.88-2.59-1.65S297.83,181.33,297.85,181.35Z"/><path class="cls-14" d="M297.25,178.29c-.05-.39.31-.5.61-.61l1.31-.5a24.17,24.17,0,0,0,3.72-1.73,17.8,17.8,0,0,0,2.45-1.78c.38-.32.75-.65,1.11-1a6.4,6.4,0,0,1,1-.91.52.52,0,0,1,.73.22c.31.53-.34,1-.66,1.36q-.72.75-1.5,1.44a19.8,19.8,0,0,1-6.9,4,3.84,3.84,0,0,1-1.21.16.7.7,0,0,1-.67-.46A.55.55,0,0,1,297.25,178.29Z"/><path class="cls-12" d="M293.42,179.88a1.54,1.54,0,0,0,1.73.87,8.29,8.29,0,0,0,2.71-.92,1.48,1.48,0,0,0,.45-2.52,2.65,2.65,0,0,0-1.9-.16,12.3,12.3,0,0,0-2,.49,2.51,2.51,0,0,0-.65.28,1.59,1.59,0,0,0-.46,1.62A1.69,1.69,0,0,0,293.42,179.88Z"/><path class="cls-15" d="M307.66,166.27c1.43-.82,2.58-.16,2.59,1.48a5.69,5.69,0,0,1-2.58,4.46c-1.42.82-2.57.16-2.58-1.49a5.69,5.69,0,0,1,2.57-4.45"/><polygon class="cls-15" points="308.42 173.89 305.94 172.43 309.5 166.1 312.08 167.6 308.42 173.89"/><path class="cls-15" d="M310.27,167.8c1.43-.83,2.59-.16,2.59,1.47a5.64,5.64,0,0,1-2.57,4.46c-1.42.82-2.58.16-2.58-1.48a5.65,5.65,0,0,1,2.56-4.45"/><path class="cls-16" d="M310.27,168c1.35-.77,2.44-.14,2.45,1.4a5.34,5.34,0,0,1-2.43,4.2c-1.34.78-2.43.16-2.44-1.39a5.38,5.38,0,0,1,2.42-4.21"/><path class="cls-17" d="M310.28,168.36c1.1-.67,2-.13,2,1.2a4.65,4.65,0,0,1-2,3.61c-1.1.66-2,.13-2-1.2a4.63,4.63,0,0,1,2-3.61"/><path class="cls-15" d="M306.63,169s.85-6.34-1.54-9.84c-3.26-4.77-12.07-7.28-15.36-6.66a6.75,6.75,0,0,1,3.84-2.88,19.9,19.9,0,0,1,13.81,7.28c1.83,2.29,2.33,6.77,2.4,10Z"/><path class="cls-18" d="M272.28,179.73s-4.37-.62-5.43,2.79C266.85,182.52,271.6,184.24,272.28,179.73Z"/><path class="cls-19" d="M272.35,181.15a5.16,5.16,0,0,1-.18-4.83,11.83,11.83,0,0,0,.83-2.06c.11-.43.2-1.17-.17-1.5-.93-.85-1.73.9-2,1.47-.51,1-1.13-.36-1.33-.81a13.7,13.7,0,0,1-.75-2.24c-.15-.57-.2-1.41-.89-1.59a.69.69,0,0,0-.82.39,2.78,2.78,0,0,0-.82-.54,1,1,0,0,0-.94.08,1.38,1.38,0,0,0-.36,1.17,1.47,1.47,0,0,0-1-.09c-.49.16-.46.94-.42,1.46a.41.41,0,0,0-.36.3,3.59,3.59,0,0,0,0,1.18,11,11,0,0,0,1.32,4.15,25.68,25.68,0,0,0,3.53,5.29s.09.12.1.11l4.76-1.17Z"/><path class="cls-20" d="M295,193.42c0-.08-.09-.16-.14-.24a24.47,24.47,0,0,1-1.58-4c-.36-.86-.95-2.44-2.13-2.35a2.73,2.73,0,0,0-1.33.6,37.73,37.73,0,0,0-4.78,4.25c-.92.91-2.88,3.9-4.45,3.06a2.83,2.83,0,0,1-.9-.89c-1.85-2.57-7.45-14.17-7.45-14.17s-.06,1.32-2.31,2.28a6.73,6.73,0,0,1-3.12.51S271.13,195.94,274,202c1.12,2.32,2.6,4.36,5.42,4.32,2.58,0,5-1.58,7-3s3.92-3,5.84-4.57a11.38,11.38,0,0,0,2.64-2.54,2.58,2.58,0,0,0,.37-2.21A3.55,3.55,0,0,0,295,193.42Z"/><path class="cls-21" d="M295,193.42c0-.08-.09-.16-.14-.24a24.47,24.47,0,0,1-1.58-4c-.36-.86-.95-2.44-2.13-2.35a2.73,2.73,0,0,0-1.33.6c-.43.29-.83.61-1.23.93-.3.5-.58,1-.81,1.47a50.92,50.92,0,0,0-2.48,6.82,17,17,0,0,1-3.57,6.66,6.44,6.44,0,0,1-5.3,1.95,4.53,4.53,0,0,0,3,1c2.58,0,5-1.58,7-3s3.92-3,5.84-4.57a11.38,11.38,0,0,0,2.64-2.54,2.58,2.58,0,0,0,.37-2.21A3.55,3.55,0,0,0,295,193.42Z"/><path class="cls-22" d="M285.94,245.2a7.45,7.45,0,0,1-.35-2.1c-.19-10.54.34-21.31.68-31.93.24-7.68-1.45-18.18,3.93-24.31,6.05-6.89,20.55-3.25,24.79,4.36a26.33,26.33,0,0,1,2.85,11.36c.35,6.25-4,18.3-3.89,47.17,0,.39-2.72,1.4-3,1.53a24.7,24.7,0,0,1-7.93,1.88C297.54,253.51,287.9,251.17,285.94,245.2Z"/><path class="cls-23" d="M317.84,202.58c-.07-1.13-.18-2.25-.34-3.38a16.23,16.23,0,0,0-2.26-1.09,6.75,6.75,0,0,0-.68-.21.22.22,0,0,0-.05-.19c-1-1.12-4.17-1.42-4.83.27a3.65,3.65,0,0,0-.17,1.4c.09,5.85.23,11.72-.07,17.58-.28,5.61-.72,11.75-2.63,17.08-1,2.86-2.73,5.53-5.51,6.87-3,1.44-6.46,1.59-9.72,1.41a35.78,35.78,0,0,1-6-.93c0,.57,0,1.14,0,1.71a7.45,7.45,0,0,0,.35,2.1c2,6,11.6,8.31,17.07,8a24.7,24.7,0,0,0,7.93-1.88c.29-.13,3-1.14,3-1.53C313.82,220.88,318.19,208.83,317.84,202.58Z"/><path class="cls-24" d="M300.22,183.2a8.92,8.92,0,0,1,.75,3.11,19.77,19.77,0,0,0,6.22-1.51l-.9-2.32S304.44,183.7,300.22,183.2Z"/><path class="cls-25" d="M320.62,212.76l0-.24a74.47,74.47,0,0,0-2.32-11.45c-.91-3.31-1.53-7.56-3.56-10.38-1-1.47-3.1-3-5-2.44s-2.24,2.57-2.35,4.22c-.17,2.69.64,5.68,1.08,8.32,1.09,6.49,3.41,13.12,3.5,19.72a8.13,8.13,0,0,1-.12,1.2c-1.27,8.41-2.09,17-3.94,25.32a.61.61,0,0,0,.57.76,33.53,33.53,0,0,0,4.91.15c.92-.06,2.88,0,3.52-.79a3,3,0,0,0,.5-1.48c.16-1,.09-2.06.3-3.1.27-1.36.54-2.72.8-4.08.52-2.72,1-5.45,1.4-8.19A71.08,71.08,0,0,0,320.62,212.76Z"/><path class="cls-24" d="M300.22,183.2a4.68,4.68,0,0,1-2.3-.93l-1.4,1.19a13.9,13.9,0,0,0,1.63,2A9,9,0,0,1,300.22,183.2Z"/></g><path class="cls-16" d="M265,153.36a1.13,1.13,0,0,1-.51-.88l0-9.39c0-.33.23-.46.51-.3l11.87,6.86a1.08,1.08,0,0,1,.5.88l0,9.39c0,.33-.23.46-.51.29l-7.05-4.07a1,1,0,0,0-1-.1l-2.05,1.12V156a3,3,0,0,0-1.35-2.34l-.46-.27m11.9-4.68-11.87-6.86c-.75-.43-1.36-.08-1.36.78l0,9.39a3,3,0,0,0,1.36,2.34l.46.27a1.13,1.13,0,0,1,.51.88v1.29a1.81,1.81,0,0,0,.5,1.15,1.36,1.36,0,0,0,.31.25.57.57,0,0,0,.57.06l2.12-1.16a.36.36,0,0,1,.35.05l7.05,4.07c.75.43,1.36.08,1.36-.78l0-9.39a3,3,0,0,0-1.35-2.34"/><path class="cls-16" d="M267.35,148.24c-.62-.36-1.12-.07-1.12.63a2.45,2.45,0,0,0,1.11,1.92c.61.35,1.11.07,1.11-.64a2.43,2.43,0,0,0-1.1-1.91"/><path class="cls-16" d="M271,150.33c-.61-.36-1.11-.07-1.11.63a2.41,2.41,0,0,0,1.1,1.92c.62.36,1.12.07,1.12-.63a2.45,2.45,0,0,0-1.11-1.92"/><path class="cls-16" d="M274.59,152.42c-.61-.35-1.11-.07-1.11.64a2.42,2.42,0,0,0,1.11,1.91c.61.36,1.11.07,1.11-.63a2.42,2.42,0,0,0-1.11-1.92"/><path class="cls-26" d="M335.55,162.7l-73.48-42.42a3.66,3.66,0,0,0-5.48,3.16l-.21,74.1a9.32,9.32,0,0,0,4.65,8.09l76.76,44.31a3,3,0,0,0,4.57-2.63l.21-72.41A14.07,14.07,0,0,0,335.55,162.7Z"/><path class="cls-27" d="M235.32,108.07c-5.29-3-9.58-.6-9.6,5.47S230,127,235.25,130.05s9.58.6,9.6-5.47S240.6,111.12,235.32,108.07Z"/><path class="cls-16" d="M235.27,122.58c-.91-.53-1.67-.1-1.67,1a3.69,3.69,0,0,0,1.66,2.89c.92.53,1.68.1,1.68-1a3.69,3.69,0,0,0-1.67-2.88m.25-10.75c-2-1.13-3.67-1-4.45.69l2.43,3a1.19,1.19,0,0,1,1.9-.6,2.24,2.24,0,0,1,1.3,1.92c0,1.78-2.82,1.07-2.83,3.43l2.82,1.63c0-1.4,2.82-.71,2.83-3.72a8,8,0,0,0-4-6.35"/><path class="cls-28" d="M235.32,168.69c-5.29-3.05-9.58-.61-9.6,5.46s4.25,13.47,9.53,16.52,9.58.6,9.6-5.47-4.25-13.47-9.53-16.51"/><path class="cls-16" d="M235.27,183.44a7.2,7.2,0,0,1-3.26-5.65c0-2.08,1.48-2.91,3.28-1.87a7.16,7.16,0,0,1,3.26,5.65c0,2.07-1.47,2.91-3.28,1.87m.81-9.75-1.55-.89-.23,1.26a3.2,3.2,0,0,0-1.41-.15l-1-1.38-1.1.63.69,1.56a3.1,3.1,0,0,0-.59,1.28l-1.2-.44v1.77l1.21.95a9.1,9.1,0,0,0,.58,2l-.7.75,1.09,1.9,1-.22a9,9,0,0,0,1.41,1.48l.21,1.51,1.55.9.22-1.26a3.09,3.09,0,0,0,1.42.14l1,1.38,1.1-.62-.7-1.56a3.23,3.23,0,0,0,.6-1.28l1.2.44V182l-1.2-.94a8.94,8.94,0,0,0-.58-2l.7-.76-1.09-1.89-1,.22a9.54,9.54,0,0,0-1.41-1.49l-.21-1.51"/><path class="cls-16" d="M235.29,177.75c-.93-.53-1.68-.1-1.68,1a3.65,3.65,0,0,0,1.67,2.89c.92.54,1.68.11,1.68-1a3.71,3.71,0,0,0-1.67-2.89"/><ellipse class="cls-29" cx="235.28" cy="149.37" rx="7.81" ry="13.48" transform="translate(-43.19 138.44) rotate(-30.16)"/><path class="cls-16" d="M231,151.27l3.52-1.74.23.4a1.44,1.44,0,0,0,.5.51.58.58,0,0,0,.5.07l.23-.12,3.49,5.77L231,151.27m-.4-.87,0-7.51,3.42,5.82-3.44,1.69m9.29,5.39-3.43-5.67,3.45-1.87,0,7.54m-.3-9-8.64-5c-.4-.22-.74-.15-.9.14h0a.86.86,0,0,0-.11.45l0,7.91a2.16,2.16,0,0,0,1,1.71l8.64,5a.75.75,0,0,0,.63.1h0l.12-.06h0a.76.76,0,0,0,.09-.09h0a.85.85,0,0,0,.14-.5l0-7.91a1.89,1.89,0,0,0-.1-.56h0a2.21,2.21,0,0,0-.89-1.17"/><polygon class="cls-30" points="199.41 79.38 369.52 177.72 369.55 165.91 199.45 66.4 199.41 79.38"/><path class="cls-24" d="M365.67,166.71,204.4,72.36a1.54,1.54,0,0,0-2.32,1.33v2.72a2.5,2.5,0,0,0,1.24,2.16l161.36,93.28a1.48,1.48,0,0,0,2.22-1.27v-1.73A2.45,2.45,0,0,0,365.67,166.71Z"/><g class="cls-31"><polygon class="cls-16" points="218.39 72.45 195.84 82.87 195.58 168.94 300.47 120.47 218.39 72.45"/><polygon class="cls-16" points="314.15 128.47 199.49 181.47 220.65 193.7 335.18 140.77 314.15 128.47"/><polygon class="cls-16" points="348.86 148.78 234.42 201.66 317.05 249.43 372.92 223.61 373.1 162.96 348.86 148.78"/><polygon class="cls-16" points="351.98 269.63 372.81 260.01 372.88 237.96 330.82 257.39 351.98 269.63"/></g><path class="cls-32" d="M375.49,294,269,355.47a8,8,0,0,1-8,0L87.6,254.64a8,8,0,0,1,0-13.78l97.53-56.28a8,8,0,0,1,8,0l182.37,106A2,2,0,0,1,375.49,294Z"/><path class="cls-33" d="M229.66,298.08l-26.61,15.75a2.15,2.15,0,0,1-2.15,0l-46.6-26.91a2.14,2.14,0,0,1,0-3.7l25.5-14.43a2.15,2.15,0,0,1,2.14,0l47.72,28.37A.53.53,0,0,1,229.66,298.08Z"/><path class="cls-14" d="M190,200.52l5.91,3.4a3,3,0,0,0,2.62,0l3-1.72c.74-.42.76-1.09.05-1.5l-5.92-3.38a2.92,2.92,0,0,0-2.61,0l-3,1.7C189.29,199.44,189.27,200.11,190,200.52Z"/><path class="cls-14" d="M200.39,206.51l6,3.44a2.89,2.89,0,0,0,2.64,0l3-1.74c.73-.42.75-1.1,0-1.51l-6-3.42a2.91,2.91,0,0,0-2.62,0l-3,1.73C199.7,205.43,199.68,206.1,200.39,206.51Z"/><path class="cls-14" d="M210.94,212.58l6.06,3.49a3,3,0,0,0,2.66,0l3-1.75c.74-.43.75-1.11,0-1.53l-6.06-3.46a2.94,2.94,0,0,0-2.65,0l-3,1.74C210.24,211.49,210.22,212.17,210.94,212.58Z"/><path class="cls-14" d="M221.62,218.73l6.13,3.52a3,3,0,0,0,2.68,0l3-1.76c.74-.44.75-1.13,0-1.55l-6.14-3.51a2.93,2.93,0,0,0-2.66,0l-3,1.76C220.9,217.62,220.89,218.31,221.62,218.73Z"/><path class="cls-14" d="M232.43,225l6.21,3.56a3,3,0,0,0,2.7,0l3-1.79a.83.83,0,0,0,0-1.56l-6.22-3.55a3,3,0,0,0-2.68,0l-3,1.77A.83.83,0,0,0,232.43,225Z"/><path class="cls-14" d="M243.38,231.24l6.28,3.62a3,3,0,0,0,2.72,0l3.05-1.8a.83.83,0,0,0,0-1.58l-6.29-3.59a3,3,0,0,0-2.7,0l-3,1.79A.83.83,0,0,0,243.38,231.24Z"/><path class="cls-14" d="M254.46,237.62l6.36,3.65a3,3,0,0,0,2.74,0l3.06-1.81c.75-.45.73-1.16,0-1.6l-6.37-3.64a3,3,0,0,0-2.72,0L254.44,236C253.69,236.47,253.7,237.18,254.46,237.62Z"/><path class="cls-14" d="M265.68,244.07l6.43,3.7a3,3,0,0,0,2.77,0l3.07-1.84c.75-.45.73-1.17,0-1.61l-6.45-3.69a3,3,0,0,0-2.75,0l-3.06,1.82A.85.85,0,0,0,265.68,244.07Z"/><path class="cls-14" d="M277,250.61l6.52,3.75a3.05,3.05,0,0,0,2.79,0l3.08-1.85c.75-.45.73-1.18-.05-1.63l-6.53-3.73a3,3,0,0,0-2.77,0L277,249C276.24,249.43,276.26,250.16,277,250.61Z"/><path class="cls-14" d="M288.54,257.22l6.6,3.8a3,3,0,0,0,2.81,0l3.09-1.87c.75-.46.72-1.2-.07-1.65l-6.61-3.78a3,3,0,0,0-2.79,0l-3.09,1.85C287.73,256,287.75,256.77,288.54,257.22Z"/><path class="cls-14" d="M300.19,263.93l6.69,3.84a3,3,0,0,0,2.83,0l3.09-1.88c.76-.47.73-1.21-.08-1.67l-6.7-3.83a3.06,3.06,0,0,0-2.81,0l-3.09,1.88C299.36,262.73,299.39,263.47,300.19,263.93Z"/><path class="cls-14" d="M312,270.72l6.77,3.89a3.06,3.06,0,0,0,2.85,0l3.11-1.9c.76-.47.72-1.22-.09-1.69l-6.79-3.88a3,3,0,0,0-2.83,0l-3.1,1.89C311.15,269.5,311.18,270.25,312,270.72Z"/><path class="cls-14" d="M323.94,277.59l6.86,4a3.12,3.12,0,0,0,2.88,0l3.11-1.92c.77-.47.72-1.23-.11-1.71L329.81,274a3.08,3.08,0,0,0-2.86,0l-3.11,1.9C323.08,276.36,323.12,277.12,323.94,277.59Z"/><path class="cls-14" d="M348.9,284.9l-7-4a3.11,3.11,0,0,0-2.89,0l-3.12,1.93c-.76.47-.71,1.24.12,1.72l6.95,4a3.1,3.1,0,0,0,2.9,0l3.12-1.94C349.79,286.15,349.73,285.37,348.9,284.9Z"/><path class="cls-14" d="M180.14,206.49l5.41,3.15a3.61,3.61,0,0,0,3.28,0l5.46-3.12c.92-.53,1-1.37.06-1.88l-5.43-3.13a3.61,3.61,0,0,0-3.25,0l-5.45,3.1C179.3,205.14,179.26,206,180.14,206.49Z"/><path class="cls-14" d="M204.44,210.42l-5.5-3.17a3.64,3.64,0,0,0-3.28,0l-5.46,3.13c-.92.53-1,1.38-.07,1.9l5.48,3.19a3.66,3.66,0,0,0,3.3,0l5.47-3.15C205.31,211.78,205.33,210.93,204.44,210.42Z"/><path class="cls-14" d="M214.64,216.29l-5.56-3.2a3.65,3.65,0,0,0-3.3,0l-5.48,3.16c-.93.53-1,1.39-.06,1.91l5.54,3.23a3.69,3.69,0,0,0,3.33,0l5.49-3.18C215.53,217.67,215.54,216.82,214.64,216.29Z"/><path class="cls-14" d="M185,221.17l5.5,3.24a3.61,3.61,0,0,0,3.31,0l5.52-3.19c.93-.54,1-1.4.06-1.92l-5.51-3.22a3.69,3.69,0,0,0-3.3,0l-5.5,3.16C184.12,219.79,184.08,220.65,185,221.17Z"/><path class="cls-14" d="M169.93,212.31,180,218.25a3.6,3.6,0,0,0,3.29,0l5.5-3.15c.93-.54,1-1.39.07-1.9l-10.11-5.9a3.58,3.58,0,0,0-3.25,0L170,210.42C169.1,211,169.06,211.8,169.93,212.31Z"/><path class="cls-14" d="M209.57,225.23,204,222a3.63,3.63,0,0,0-3.32,0l-5.51,3.19c-.94.54-1,1.41-.07,1.94l5.56,3.28a3.68,3.68,0,0,0,3.34,0l5.53-3.22C210.46,226.63,210.48,225.76,209.57,225.23Z"/><path class="cls-14" d="M219.9,231.25,214.26,228a3.7,3.7,0,0,0-3.35,0l-5.53,3.22c-.94.55-1,1.42,0,2l5.62,3.31a3.68,3.68,0,0,0,3.37,0l5.55-3.25C220.8,232.67,220.82,231.79,219.9,231.25Z"/><path class="cls-14" d="M230.35,237.35,224.64,234a3.66,3.66,0,0,0-3.36,0l-5.56,3.24c-.94.55-.95,1.44,0,2l5.69,3.35a3.69,3.69,0,0,0,3.39,0l5.56-3.27C231.27,238.78,231.28,237.89,230.35,237.35Z"/><path class="cls-14" d="M240.93,243.51l-5.78-3.36a3.69,3.69,0,0,0-3.39,0l-5.57,3.28a1.06,1.06,0,0,0,0,2l5.76,3.4a3.7,3.7,0,0,0,3.41,0l5.59-3.3A1.07,1.07,0,0,0,240.93,243.51Z"/><path class="cls-14" d="M251.64,249.76l-5.85-3.41a3.72,3.72,0,0,0-3.42,0l-5.59,3.3a1.07,1.07,0,0,0,0,2l5.83,3.44a3.73,3.73,0,0,0,3.44,0l5.6-3.33A1.07,1.07,0,0,0,251.64,249.76Z"/><path class="cls-14" d="M262.47,256.07l-5.92-3.45a3.73,3.73,0,0,0-3.44,0l-5.6,3.33a1.09,1.09,0,0,0,0,2l5.91,3.48a3.71,3.71,0,0,0,3.46,0l5.62-3.36A1.09,1.09,0,0,0,262.47,256.07Z"/><path class="cls-14" d="M273.44,262.47l-6-3.5a3.76,3.76,0,0,0-3.47,0l-5.62,3.36a1.1,1.1,0,0,0,0,2.07l6,3.51a3.72,3.72,0,0,0,3.49,0l5.63-3.39A1.1,1.1,0,0,0,273.44,262.47Z"/><path class="cls-14" d="M269.38,270.88l6.05,3.57a3.78,3.78,0,0,0,3.52,0L284.6,271a1.11,1.11,0,0,0-.06-2.09l-6.07-3.54a3.75,3.75,0,0,0-3.49,0l-5.64,3.39A1.11,1.11,0,0,0,269.38,270.88Z"/><path class="cls-14" d="M295.85,277.6c1-.58.93-1.53-.07-2.11l-6.14-3.58a3.8,3.8,0,0,0-3.53,0l-5.65,3.43c-1,.58-.93,1.52.05,2.1l6.13,3.61a3.78,3.78,0,0,0,3.55,0Z"/><path class="cls-14" d="M307.25,284.26c1-.59.91-1.55-.1-2.14l-6.21-3.62a3.78,3.78,0,0,0-3.55,0L291.72,282c-1,.59-.93,1.54.07,2.13l6.2,3.65a3.79,3.79,0,0,0,3.57,0Z"/><path class="cls-14" d="M303.2,290.8l6.28,3.7a3.82,3.82,0,0,0,3.6,0l5.7-3.52c1-.59.92-1.56-.11-2.15l-6.29-3.67a3.84,3.84,0,0,0-3.58,0l-5.69,3.49C302.15,289.24,302.19,290.21,303.2,290.8Z"/><path class="cls-14" d="M177.33,226.7c-.94.54-1,1.41-.1,1.94l5.5,3.27a3.58,3.58,0,0,0,3.32,0l5.56-3.21c.93-.54,1-1.41.07-1.94l-5.51-3.25a3.64,3.64,0,0,0-3.31,0Z"/><path class="cls-14" d="M159.67,218.17l12.76,7.6a3.59,3.59,0,0,0,3.3,0l5.53-3.18c.93-.54,1-1.4.09-1.92l-12.8-7.55a3.57,3.57,0,0,0-3.26,0l-5.51,3.14C158.85,216.8,158.8,217.65,159.67,218.17Z"/><path class="cls-14" d="M187.43,232.71c-.94.54-1,1.42-.08,2l5.56,3.31a3.64,3.64,0,0,0,3.35,0l5.57-3.24c.94-.54,1-1.42.06-2l-5.58-3.29a3.66,3.66,0,0,0-3.33,0Z"/><path class="cls-14" d="M197.59,240.77l5.62,3.35a3.67,3.67,0,0,0,3.38,0l5.58-3.27c1-.55,1-1.44.05-2l-5.65-3.33a3.64,3.64,0,0,0-3.35,0l-5.57,3.24C196.71,239.34,196.68,240.22,197.59,240.77Z"/><path class="cls-14" d="M207.94,246.94l5.7,3.39a3.68,3.68,0,0,0,3.4,0l5.6-3.3a1.06,1.06,0,0,0,0-2L217,241.66a3.67,3.67,0,0,0-3.38,0L208,244.94C207.05,245.5,207,246.39,207.94,246.94Z"/><path class="cls-14" d="M218.43,253.19l5.76,3.43a3.66,3.66,0,0,0,3.42,0l5.62-3.32a1.08,1.08,0,0,0,0-2l-5.78-3.4a3.65,3.65,0,0,0-3.4,0l-5.61,3.3C217.51,251.73,217.49,252.63,218.43,253.19Z"/><path class="cls-14" d="M229,259.51l5.84,3.47a3.69,3.69,0,0,0,3.45,0l5.64-3.36a1.08,1.08,0,0,0,0-2l-5.84-3.45a3.71,3.71,0,0,0-3.43,0l-5.63,3.33A1.09,1.09,0,0,0,229,259.51Z"/><path class="cls-14" d="M239.77,265.91l5.91,3.52a3.71,3.71,0,0,0,3.47,0l5.66-3.38a1.1,1.1,0,0,0,0-2.07l-5.92-3.49a3.72,3.72,0,0,0-3.45,0l-5.64,3.36A1.1,1.1,0,0,0,239.77,265.91Z"/><path class="cls-14" d="M250.64,272.38l6,3.57a3.74,3.74,0,0,0,3.5,0l5.67-3.42a1.11,1.11,0,0,0,0-2.09l-6-3.53a3.75,3.75,0,0,0-3.48,0l-5.66,3.39A1.11,1.11,0,0,0,250.64,272.38Z"/><path class="cls-14" d="M261.64,278.94l6.05,3.61a3.79,3.79,0,0,0,3.54,0l5.68-3.45c1-.58.94-1.52-.05-2.11l-6.06-3.58a3.82,3.82,0,0,0-3.51,0l-5.67,3.43A1.12,1.12,0,0,0,261.64,278.94Z"/><path class="cls-14" d="M272.78,285.58l6.13,3.65a3.8,3.8,0,0,0,3.56,0l5.7-3.48c1-.59.94-1.55-.06-2.14L282,280a3.77,3.77,0,0,0-3.53,0l-5.69,3.45A1.14,1.14,0,0,0,272.78,285.58Z"/><path class="cls-14" d="M293.85,296l5.72-3.52c1-.59.93-1.55-.08-2.15l-6.22-3.67a3.8,3.8,0,0,0-3.56,0L284,290.15c-1,.59-.94,1.55.06,2.15l6.2,3.7A3.83,3.83,0,0,0,293.85,296Z"/><path class="cls-14" d="M319.68,302.25l-14.83-8.75a3.83,3.83,0,0,0-3.59,0L295.54,297c-1,.6-.94,1.57.07,2.18L310.4,308a3.88,3.88,0,0,0,3.64,0l5.75-3.57C320.76,303.84,320.71,302.86,319.68,302.25Z"/><path class="cls-14" d="M172.11,237.78l5.51,3.32a3.59,3.59,0,0,0,3.34,0l5.59-3.24c.95-.55,1-1.43.08-2l-5.53-3.3a3.63,3.63,0,0,0-3.32,0l-5.58,3.22C171.26,236.37,171.21,237.24,172.11,237.78Z"/><path class="cls-14" d="M153.54,228.65l-6.44-3.89a2.36,2.36,0,0,0-2.15,0l-8.18,4.67c-.63.35-.67.92-.1,1.27l6.42,3.93a2.35,2.35,0,0,0,2.16,0l8.21-4.71C154.08,229.57,154.12,229,153.54,228.65Z"/><path class="cls-14" d="M163.52,234.68,157,230.75a2.34,2.34,0,0,0-2.17,0l-8.21,4.7c-.63.36-.67.94-.09,1.29l6.49,4a2.36,2.36,0,0,0,2.19,0l8.23-4.74C164.07,235.61,164.11,235,163.52,234.68Z"/><path class="cls-14" d="M173.62,240.79l-6.59-4a2.38,2.38,0,0,0-2.19,0l-8.23,4.75c-.63.36-.66.94-.08,1.3l6.57,4a2.38,2.38,0,0,0,2.2,0l8.26-4.79C174.18,241.72,174.21,241.14,173.62,240.79Z"/><path class="cls-14" d="M186.19,248.38l-9-5.45a2.38,2.38,0,0,0-2.2,0l-8.27,4.79c-.62.36-.65,1-.07,1.31l9,5.5a2.39,2.39,0,0,0,2.22,0l8.29-4.83C186.77,249.33,186.79,248.74,186.19,248.38Z"/><path class="cls-14" d="M253.07,288.8l-9.73-5.88a2.45,2.45,0,0,0-2.31,0L232.6,288a.75.75,0,0,0,0,1.4l9.71,5.94a2.47,2.47,0,0,0,2.33,0l8.45-5.12A.75.75,0,0,0,253.07,288.8Z"/><path class="cls-14" d="M264.32,295.6l-7.19-4.35a2.49,2.49,0,0,0-2.33,0l-8.46,5.13a.77.77,0,0,0,0,1.42l7.17,4.39a2.51,2.51,0,0,0,2.35,0l8.48-5.17A.76.76,0,0,0,264.32,295.6Z"/><path class="cls-14" d="M270.33,305.82l-7.27-4.43a2.48,2.48,0,0,0-2.35,0l-3.08,1.88a.77.77,0,0,0,0,1.43l7.26,4.44a2.46,2.46,0,0,0,2.37,0l3.09-1.89A.77.77,0,0,0,270.33,305.82Z"/><path class="cls-14" d="M293.42,319.85,286,315.32a2.5,2.5,0,0,0-2.39,0l-3.1,1.92a.79.79,0,0,0,0,1.47l7.45,4.55a2.5,2.5,0,0,0,2.4,0l3.11-1.93A.8.8,0,0,0,293.42,319.85Z"/><path class="cls-14" d="M281.8,312.79l-7.36-4.48a2.49,2.49,0,0,0-2.37,0L269,310.2a.78.78,0,0,0,0,1.45l7.36,4.5a2.48,2.48,0,0,0,2.38,0l3.1-1.91C282.49,313.85,282.47,313.2,281.8,312.79Z"/><path class="cls-14" d="M275,307.94l7.37,4.48a2.51,2.51,0,0,0,2.38,0l3.09-1.91c.64-.39.62-1-.05-1.45l-7.37-4.45a2.49,2.49,0,0,0-2.37,0L275,306.5A.77.77,0,0,0,275,307.94Z"/><path class="cls-14" d="M239,280.3l-49.26-29.77a2.39,2.39,0,0,0-2.22,0l-8.3,4.84c-.63.37-.66,1-.06,1.33l49.11,30a2.45,2.45,0,0,0,2.31,0l8.42-5.06A.74.74,0,0,0,239,280.3Z"/><path class="cls-14" d="M149.35,224.06l17.5,10.55a3.58,3.58,0,0,0,3.32,0l5.57-3.21c.94-.54,1-1.41.09-1.94L158.28,219a3.59,3.59,0,0,0-3.27,0l-5.53,3.16C148.54,222.68,148.48,223.53,149.35,224.06Z"/><path class="cls-14" d="M182.25,243.9l5.58,3.36a3.62,3.62,0,0,0,3.37,0l5.6-3.27c.95-.55,1-1.44.07-2l-5.59-3.34a3.67,3.67,0,0,0-3.35,0l-5.59,3.25C181.39,242.47,181.35,243.36,182.25,243.9Z"/><path class="cls-14" d="M192.52,250.09l5.64,3.41a3.66,3.66,0,0,0,3.39,0l5.63-3.31c.95-.55,1-1.45,0-2l-5.66-3.38a3.65,3.65,0,0,0-3.37,0l-5.61,3.28C191.64,248.65,191.61,249.54,192.52,250.09Z"/><path class="cls-14" d="M202.91,256.36l5.71,3.44a3.69,3.69,0,0,0,3.42,0l5.64-3.34c1-.56,1-1.47,0-2L212,251a3.68,3.68,0,0,0-3.4,0L203,254.34C202,254.9,202,255.8,202.91,256.36Z"/><path class="cls-14" d="M213.42,262.7l5.78,3.49a3.72,3.72,0,0,0,3.45,0l5.66-3.36a1.09,1.09,0,0,0,0-2.05l-5.8-3.46a3.69,3.69,0,0,0-3.42,0l-5.65,3.34A1.09,1.09,0,0,0,213.42,262.7Z"/><path class="cls-14" d="M224.07,269.12l5.85,3.53a3.73,3.73,0,0,0,3.47,0l5.68-3.4a1.1,1.1,0,0,0,0-2.07l-5.87-3.5a3.7,3.7,0,0,0-3.44,0l-5.67,3.36A1.11,1.11,0,0,0,224.07,269.12Z"/><path class="cls-14" d="M234.84,275.61l5.92,3.58a3.74,3.74,0,0,0,3.5,0l5.7-3.42a1.12,1.12,0,0,0,0-2.09L244,270.13a3.75,3.75,0,0,0-3.48,0l-5.68,3.4A1.11,1.11,0,0,0,234.84,275.61Z"/><path class="cls-14" d="M245.74,282.19l6,3.62a3.72,3.72,0,0,0,3.52,0l5.72-3.45a1.13,1.13,0,0,0,0-2.11l-6-3.59a3.77,3.77,0,0,0-3.5,0l-5.7,3.43A1.13,1.13,0,0,0,245.74,282.19Z"/><path class="cls-14" d="M256.78,288.85l6.08,3.66a3.75,3.75,0,0,0,3.55,0l5.73-3.49a1.14,1.14,0,0,0,0-2.13L266,283.26a3.77,3.77,0,0,0-3.53,0l-5.72,3.46A1.14,1.14,0,0,0,256.78,288.85Z"/><path class="cls-14" d="M283.38,293.63,277.21,290a3.78,3.78,0,0,0-3.55,0l-5.74,3.49a1.16,1.16,0,0,0,0,2.16l6.15,3.71a3.79,3.79,0,0,0,3.58,0l5.75-3.52C284.41,295.2,284.38,294.23,283.38,293.63Z"/><path class="cls-14" d="M309.22,309.06l-20.66-12.34a3.81,3.81,0,0,0-3.58,0l-5.76,3.53c-1,.59-1,1.57.06,2.18l20.61,12.43a3.82,3.82,0,0,0,3.64,0l5.79-3.6C310.3,310.67,310.25,309.67,309.22,309.06Z"/><path class="cls-14" d="M330.33,295.64,324,291.92a3.85,3.85,0,0,0-3.6,0l-5.71,3.52c-1,.6-.92,1.58.11,2.18l6.36,3.74a3.86,3.86,0,0,0,3.63,0l5.72-3.55C331.43,297.22,331.37,296.24,330.33,295.64Z"/><path class="cls-14" d="M225,222.24,219.33,219a3.67,3.67,0,0,0-3.32,0l-5.5,3.18c-.93.54-.95,1.41,0,1.93l5.61,3.27a3.68,3.68,0,0,0,3.34,0l5.51-3.21C225.86,223.64,225.87,222.77,225,222.24Z"/><path class="cls-14" d="M235.4,228.26,229.71,225a3.7,3.7,0,0,0-3.35,0l-5.51,3.21c-.94.55-.95,1.42,0,2l5.67,3.3a3.68,3.68,0,0,0,3.37,0l5.53-3.23C236.32,229.67,236.33,228.79,235.4,228.26Z"/><path class="cls-14" d="M246,234.35,240.21,231a3.7,3.7,0,0,0-3.38,0l-5.53,3.24a1,1,0,0,0,0,2l5.74,3.35a3.71,3.71,0,0,0,3.4,0l5.54-3.26C246.91,235.77,246.91,234.89,246,234.35Z"/><path class="cls-14" d="M256.66,240.51l-5.83-3.36a3.74,3.74,0,0,0-3.4,0l-5.54,3.27a1.05,1.05,0,0,0,0,2l5.81,3.39a3.72,3.72,0,0,0,3.42,0l5.56-3.29A1.06,1.06,0,0,0,256.66,240.51Z"/><path class="cls-14" d="M267.48,246.75l-5.9-3.4a3.72,3.72,0,0,0-3.42,0l-5.56,3.3a1.07,1.07,0,0,0,0,2l5.89,3.43a3.73,3.73,0,0,0,3.44,0l5.58-3.32A1.07,1.07,0,0,0,267.48,246.75Z"/><path class="cls-14" d="M278.44,253.06l-6-3.44a3.77,3.77,0,0,0-3.46,0L263.44,253a1.08,1.08,0,0,0,0,2l5.95,3.47a3.75,3.75,0,0,0,3.48,0l5.59-3.35C279.43,254.53,279.41,253.62,278.44,253.06Z"/><path class="cls-14" d="M289.53,259.45l-6-3.49a3.78,3.78,0,0,0-3.48,0l-5.59,3.36c-1,.57-.93,1.49,0,2.06l6,3.51a3.77,3.77,0,0,0,3.5,0l5.61-3.38C290.54,260.94,290.51,260,289.53,259.45Z"/><path class="cls-14" d="M300.75,265.91l-6.12-3.52a3.82,3.82,0,0,0-3.51,0l-5.61,3.39c-.95.58-.92,1.51.06,2.08l6.11,3.56a3.86,3.86,0,0,0,3.53,0l5.62-3.42C301.78,267.42,301.75,266.49,300.75,265.91Z"/><path class="cls-14" d="M303,278a3.83,3.83,0,0,0,3.56,0l5.64-3.45c1-.58.91-1.53-.1-2.11l-6.19-3.57a3.85,3.85,0,0,0-3.54,0l-5.63,3.42c-.95.58-.91,1.53.08,2.11Z"/><path class="cls-14" d="M323.61,279.09l-6.27-3.61a3.83,3.83,0,0,0-3.56,0l-5.64,3.46c-1,.58-.92,1.53.09,2.12l6.26,3.64a3.81,3.81,0,0,0,3.58,0l5.66-3.48C324.69,280.63,324.63,279.68,323.61,279.09Z"/><path class="cls-14" d="M341.88,289.62l-13.36-7.7a2.42,2.42,0,0,0-2.28,0l-6.92,4.26c-.62.37-.58,1,.07,1.36l13.33,7.76a2.45,2.45,0,0,0,2.31,0l7-4.31C342.59,290.62,342.55,290,341.88,289.62Z"/><path class="cls-33" d="M190,200.06l5.91,3.4a2.88,2.88,0,0,0,2.62,0l3-1.72c.74-.42.76-1.09.05-1.49l-5.92-3.39a2.92,2.92,0,0,0-2.61,0l-3,1.71C189.29,199,189.27,199.66,190,200.06Z"/><path class="cls-33" d="M200.39,206.06l6,3.44a3,3,0,0,0,2.64,0l3-1.74c.73-.43.75-1.1,0-1.51l-6-3.43a2.91,2.91,0,0,0-2.62,0l-3,1.72C199.7,205,199.68,205.65,200.39,206.06Z"/><path class="cls-33" d="M210.94,212.13l6.06,3.48a2.93,2.93,0,0,0,2.66,0l3-1.75c.74-.43.75-1.12,0-1.53l-6.06-3.47a3,3,0,0,0-2.65,0l-3,1.74C210.24,211,210.22,211.71,210.94,212.13Z"/><path class="cls-33" d="M221.62,218.27l6.13,3.53a3,3,0,0,0,2.68,0l3-1.77c.74-.43.75-1.12,0-1.54L227.33,215a2.93,2.93,0,0,0-2.66,0l-3,1.75C220.9,217.16,220.89,217.85,221.62,218.27Z"/><path class="cls-33" d="M232.43,224.49l6.21,3.57a3,3,0,0,0,2.7,0l3-1.78c.74-.44.74-1.14,0-1.56l-6.22-3.55a2.92,2.92,0,0,0-2.68,0l-3,1.77C231.7,223.37,231.69,224.07,232.43,224.49Z"/><path class="cls-33" d="M243.38,230.79l6.28,3.61a3,3,0,0,0,2.72,0l3.05-1.8a.83.83,0,0,0,0-1.58l-6.29-3.6a3,3,0,0,0-2.7,0l-3,1.79A.83.83,0,0,0,243.38,230.79Z"/><path class="cls-33" d="M254.46,237.16l6.36,3.66a3,3,0,0,0,2.74,0l3.06-1.82c.75-.44.73-1.16,0-1.59l-6.37-3.64a3,3,0,0,0-2.72,0l-3.06,1.8A.84.84,0,0,0,254.46,237.16Z"/><path class="cls-33" d="M265.68,243.62l6.43,3.7a3,3,0,0,0,2.77,0l3.07-1.83c.75-.45.73-1.17,0-1.62l-6.45-3.68a3,3,0,0,0-2.75,0L265.65,242A.85.85,0,0,0,265.68,243.62Z"/><path class="cls-33" d="M277,250.15l6.52,3.75a3.05,3.05,0,0,0,2.79,0l3.08-1.86c.75-.45.73-1.18-.05-1.63l-6.53-3.73a3,3,0,0,0-2.77,0L277,248.53A.86.86,0,0,0,277,250.15Z"/><path class="cls-33" d="M288.54,256.77l6.6,3.8a3.06,3.06,0,0,0,2.81,0L301,258.7c.75-.46.72-1.2-.07-1.65l-6.61-3.78a3.05,3.05,0,0,0-2.79,0l-3.09,1.86C287.73,255.58,287.75,256.32,288.54,256.77Z"/><path class="cls-33" d="M300.19,263.47l6.69,3.85a3.07,3.07,0,0,0,2.83,0l3.09-1.89c.76-.46.73-1.21-.08-1.67l-6.7-3.82a3,3,0,0,0-2.81,0l-3.09,1.87C299.36,262.27,299.39,263,300.19,263.47Z"/><path class="cls-33" d="M312,270.26l6.77,3.9a3.06,3.06,0,0,0,2.85,0l3.11-1.91c.76-.46.72-1.22-.09-1.68l-6.79-3.88a3.07,3.07,0,0,0-2.83,0l-3.1,1.89C311.15,269.05,311.18,269.8,312,270.26Z"/><path class="cls-33" d="M323.94,277.14l6.86,3.94a3.09,3.09,0,0,0,2.88,0l3.11-1.92c.77-.48.72-1.24-.11-1.71l-6.87-3.93a3.08,3.08,0,0,0-2.86,0l-3.11,1.91C323.08,275.91,323.12,276.67,323.94,277.14Z"/><path class="cls-33" d="M348.9,284.44l-7-4a3.14,3.14,0,0,0-2.89,0l-3.12,1.93c-.76.47-.71,1.24.12,1.71l6.95,4a3.13,3.13,0,0,0,2.9,0l3.12-1.94C349.79,285.69,349.73,284.92,348.9,284.44Z"/><path class="cls-33" d="M180.14,206l5.41,3.16a3.64,3.64,0,0,0,3.28,0l5.46-3.13c.92-.53,1-1.37.06-1.88L188.92,201a3.64,3.64,0,0,0-3.25,0l-5.45,3.11C179.3,204.69,179.26,205.52,180.14,206Z"/><path class="cls-33" d="M204.44,210l-5.5-3.16a3.61,3.61,0,0,0-3.28,0L190.2,210c-.92.53-1,1.38-.07,1.89l5.48,3.19a3.62,3.62,0,0,0,3.3,0l5.47-3.15C205.31,211.33,205.33,210.48,204.44,210Z"/><path class="cls-33" d="M214.64,215.84l-5.56-3.2a3.65,3.65,0,0,0-3.3,0l-5.48,3.16c-.93.54-1,1.39-.06,1.92l5.54,3.22a3.66,3.66,0,0,0,3.33,0l5.49-3.18C215.53,217.22,215.54,216.36,214.64,215.84Z"/><path class="cls-33" d="M185,220.72l5.5,3.23a3.61,3.61,0,0,0,3.31,0l5.52-3.18c.93-.54,1-1.4.06-1.93l-5.51-3.21a3.62,3.62,0,0,0-3.3,0l-5.5,3.16C184.12,219.33,184.08,220.19,185,220.72Z"/><path class="cls-33" d="M169.93,211.86,180,217.8a3.63,3.63,0,0,0,3.29,0l5.5-3.16c.93-.53,1-1.38.07-1.9l-10.11-5.89a3.58,3.58,0,0,0-3.25,0L170,210C169.1,210.5,169.06,211.34,169.93,211.86Z"/><path class="cls-33" d="M209.57,224.78,204,221.52a3.67,3.67,0,0,0-3.32,0l-5.51,3.19c-.94.54-1,1.41-.07,1.94l5.56,3.27a3.65,3.65,0,0,0,3.34,0l5.53-3.21C210.46,226.17,210.48,225.31,209.57,224.78Z"/><path class="cls-33" d="M219.9,230.8l-5.64-3.29a3.7,3.7,0,0,0-3.35,0l-5.53,3.22c-.94.54-1,1.42,0,1.95L211,236a3.68,3.68,0,0,0,3.37,0l5.55-3.24C220.8,232.21,220.82,231.33,219.9,230.8Z"/><path class="cls-33" d="M230.35,236.89l-5.71-3.33a3.69,3.69,0,0,0-3.36,0l-5.56,3.25a1.05,1.05,0,0,0,0,2l5.69,3.35a3.66,3.66,0,0,0,3.39,0l5.56-3.27C231.27,238.32,231.28,237.43,230.35,236.89Z"/><path class="cls-33" d="M240.93,243.06l-5.78-3.37a3.69,3.69,0,0,0-3.39,0L226.19,243a1.06,1.06,0,0,0,0,2l5.76,3.39a3.67,3.67,0,0,0,3.41,0l5.59-3.3A1.06,1.06,0,0,0,240.93,243.06Z"/><path class="cls-33" d="M251.64,249.3l-5.85-3.41a3.75,3.75,0,0,0-3.42,0l-5.59,3.31a1.07,1.07,0,0,0,0,2l5.83,3.43a3.7,3.7,0,0,0,3.44,0l5.6-3.33A1.07,1.07,0,0,0,251.64,249.3Z"/><path class="cls-33" d="M262.47,255.62l-5.92-3.45a3.7,3.7,0,0,0-3.44,0l-5.6,3.33a1.09,1.09,0,0,0,0,2l5.91,3.48a3.74,3.74,0,0,0,3.46,0l5.62-3.36A1.08,1.08,0,0,0,262.47,255.62Z"/><path class="cls-33" d="M273.44,262l-6-3.49a3.73,3.73,0,0,0-3.47,0l-5.62,3.36a1.09,1.09,0,0,0,0,2.06l6,3.52a3.78,3.78,0,0,0,3.49,0l5.63-3.39A1.1,1.1,0,0,0,273.44,262Z"/><path class="cls-33" d="M269.38,270.43l6.05,3.56a3.78,3.78,0,0,0,3.52,0l5.65-3.42c.95-.58.93-1.51-.06-2.09L278.47,265a3.78,3.78,0,0,0-3.49,0l-5.64,3.4A1.11,1.11,0,0,0,269.38,270.43Z"/><path class="cls-33" d="M295.85,277.15c1-.59.93-1.53-.07-2.12l-6.14-3.57a3.8,3.8,0,0,0-3.53,0l-5.65,3.42c-1,.58-.93,1.52.05,2.11l6.13,3.6a3.81,3.81,0,0,0,3.55,0Z"/><path class="cls-33" d="M307.25,283.8c1-.59.91-1.54-.1-2.13L300.94,278a3.84,3.84,0,0,0-3.55,0l-5.67,3.46c-1,.58-.93,1.54.07,2.13l6.2,3.65a3.82,3.82,0,0,0,3.57,0Z"/><path class="cls-33" d="M303.2,290.35l6.28,3.7a3.85,3.85,0,0,0,3.6,0l5.7-3.52c1-.59.92-1.56-.11-2.16l-6.29-3.67a3.84,3.84,0,0,0-3.58,0l-5.69,3.49C302.15,288.79,302.19,289.75,303.2,290.35Z"/><path class="cls-33" d="M177.33,226.25c-.94.54-1,1.4-.1,1.93l5.5,3.28a3.63,3.63,0,0,0,3.32,0l5.56-3.21c.93-.54,1-1.41.07-1.94L186.17,223a3.61,3.61,0,0,0-3.31,0Z"/><path class="cls-33" d="M159.67,217.71l12.76,7.61a3.62,3.62,0,0,0,3.3,0l5.53-3.18c.93-.54,1-1.4.09-1.92l-12.8-7.55a3.6,3.6,0,0,0-3.26,0l-5.51,3.14C158.85,216.34,158.8,217.19,159.67,217.71Z"/><path class="cls-33" d="M187.43,232.25c-.94.55-1,1.43-.08,2l5.56,3.32a3.67,3.67,0,0,0,3.35,0l5.57-3.24c.94-.55,1-1.43.06-2L196.31,229a3.66,3.66,0,0,0-3.33,0Z"/><path class="cls-33" d="M197.59,240.31l5.62,3.35a3.67,3.67,0,0,0,3.38,0l5.58-3.27c1-.55,1-1.44.05-2l-5.65-3.33a3.67,3.67,0,0,0-3.35,0l-5.57,3.24C196.71,238.88,196.68,239.77,197.59,240.31Z"/><path class="cls-33" d="M207.94,246.48l5.7,3.4a3.68,3.68,0,0,0,3.4,0l5.6-3.3c1-.56,1-1.45,0-2L217,241.2a3.67,3.67,0,0,0-3.38,0L208,244.49C207.05,245,207,245.94,207.94,246.48Z"/><path class="cls-33" d="M218.43,252.73l5.76,3.44a3.69,3.69,0,0,0,3.42,0l5.62-3.33a1.07,1.07,0,0,0,0-2l-5.78-3.41a3.71,3.71,0,0,0-3.4,0l-5.61,3.3C217.51,251.27,217.49,252.18,218.43,252.73Z"/><path class="cls-33" d="M229,259.05l5.84,3.48a3.72,3.72,0,0,0,3.45,0l5.64-3.36a1.08,1.08,0,0,0,0-2l-5.84-3.45a3.71,3.71,0,0,0-3.43,0L229.05,257A1.09,1.09,0,0,0,229,259.05Z"/><path class="cls-33" d="M239.77,265.45l5.91,3.52a3.73,3.73,0,0,0,3.47,0l5.66-3.39a1.1,1.1,0,0,0,0-2.06L248.87,260a3.69,3.69,0,0,0-3.45,0l-5.64,3.36A1.1,1.1,0,0,0,239.77,265.45Z"/><path class="cls-33" d="M250.64,271.93l6,3.56a3.74,3.74,0,0,0,3.5,0l5.67-3.41a1.11,1.11,0,0,0,0-2.09l-6-3.54a3.73,3.73,0,0,0-3.48,0l-5.66,3.39A1.11,1.11,0,0,0,250.64,271.93Z"/><path class="cls-33" d="M261.64,278.49l6.05,3.6a3.79,3.79,0,0,0,3.54,0l5.68-3.45c1-.58.94-1.53-.05-2.11L270.8,273a3.76,3.76,0,0,0-3.51,0l-5.67,3.42A1.13,1.13,0,0,0,261.64,278.49Z"/><path class="cls-33" d="M272.78,285.12l6.13,3.66a3.8,3.8,0,0,0,3.56,0l5.7-3.48c1-.59.94-1.54-.06-2.13L282,279.55a3.77,3.77,0,0,0-3.53,0L272.74,283A1.13,1.13,0,0,0,272.78,285.12Z"/><path class="cls-33" d="M293.85,295.55l5.72-3.51c1-.59.93-1.56-.08-2.16l-6.22-3.66a3.77,3.77,0,0,0-3.56,0L284,289.69c-1,.6-.94,1.56.06,2.16l6.2,3.69A3.81,3.81,0,0,0,293.85,295.55Z"/><path class="cls-33" d="M319.68,301.79l-14.83-8.74a3.81,3.81,0,0,0-3.59,0l-5.72,3.52c-1,.59-.94,1.57.07,2.17l14.79,8.81a3.82,3.82,0,0,0,3.64,0l5.75-3.57C320.76,303.39,320.71,302.4,319.68,301.79Z"/><path class="cls-33" d="M172.11,237.33l5.51,3.32a3.62,3.62,0,0,0,3.34,0l5.59-3.25c.95-.55,1-1.43.08-2l-5.53-3.3a3.58,3.58,0,0,0-3.32,0l-5.58,3.22C171.26,235.91,171.21,236.79,172.11,237.33Z"/><path class="cls-33" d="M153.54,228.2l-6.44-3.89a2.33,2.33,0,0,0-2.15,0L136.77,229c-.63.35-.67.92-.1,1.27l6.42,3.92a2.32,2.32,0,0,0,2.16,0l8.21-4.7C154.08,229.12,154.12,228.55,153.54,228.2Z"/><path class="cls-33" d="M163.52,234.23,157,230.29a2.37,2.37,0,0,0-2.17,0L146.63,235c-.63.36-.67.93-.09,1.28l6.49,4a2.38,2.38,0,0,0,2.19,0l8.23-4.75C164.07,235.16,164.11,234.58,163.52,234.23Z"/><path class="cls-33" d="M173.62,240.33l-6.59-4a2.36,2.36,0,0,0-2.19,0l-8.23,4.75c-.63.36-.66.94-.08,1.29l6.57,4a2.35,2.35,0,0,0,2.2,0l8.26-4.78C174.18,241.27,174.21,240.69,173.62,240.33Z"/><path class="cls-33" d="M186.19,247.93l-9-5.46a2.41,2.41,0,0,0-2.2,0l-8.27,4.79c-.62.37-.65.95-.07,1.31l9,5.51a2.39,2.39,0,0,0,2.22,0l8.29-4.84C186.77,248.88,186.79,248.29,186.19,247.93Z"/><path class="cls-33" d="M253.07,288.34l-9.73-5.88a2.48,2.48,0,0,0-2.31,0l-8.43,5.07a.75.75,0,0,0,0,1.4l9.71,5.93a2.47,2.47,0,0,0,2.33,0l8.45-5.12A.76.76,0,0,0,253.07,288.34Z"/><path class="cls-33" d="M264.32,295.14l-7.19-4.34a2.47,2.47,0,0,0-2.33,0l-8.46,5.13a.77.77,0,0,0,0,1.42l7.17,4.38a2.48,2.48,0,0,0,2.35,0l8.48-5.17A.76.76,0,0,0,264.32,295.14Z"/><path class="cls-33" d="M270.33,305.36l-7.27-4.42a2.48,2.48,0,0,0-2.35,0l-3.08,1.88a.78.78,0,0,0,0,1.44l7.26,4.44a2.49,2.49,0,0,0,2.37,0l3.09-1.9A.77.77,0,0,0,270.33,305.36Z"/><path class="cls-33" d="M293.42,319.4,286,314.86a2.53,2.53,0,0,0-2.39,0l-3.1,1.92c-.65.4-.63,1.05,0,1.46l7.45,4.56a2.52,2.52,0,0,0,2.4,0l3.11-1.94C294.12,320.47,294.1,319.81,293.42,319.4Z"/><path class="cls-33" d="M281.8,312.34l-7.36-4.48a2.49,2.49,0,0,0-2.37,0L269,309.74a.79.79,0,0,0,0,1.46l7.36,4.49a2.48,2.48,0,0,0,2.38,0l3.1-1.92A.78.78,0,0,0,281.8,312.34Z"/><path class="cls-33" d="M275,307.49l7.37,4.47a2.48,2.48,0,0,0,2.38,0l3.09-1.91a.78.78,0,0,0-.05-1.45l-7.37-4.46a2.52,2.52,0,0,0-2.37,0L275,306A.78.78,0,0,0,275,307.49Z"/><path class="cls-33" d="M239,279.85l-49.26-29.77a2.39,2.39,0,0,0-2.22,0l-8.3,4.85c-.63.36-.66,1-.06,1.32l49.11,30a2.43,2.43,0,0,0,2.31,0l8.42-5.06A.74.74,0,0,0,239,279.85Z"/><path class="cls-33" d="M149.35,223.6l17.5,10.56a3.63,3.63,0,0,0,3.32,0l5.57-3.21c.94-.55,1-1.42.09-2L158.28,218.5a3.62,3.62,0,0,0-3.27,0l-5.53,3.16C148.54,222.22,148.48,223.08,149.35,223.6Z"/><path class="cls-33" d="M182.25,243.45l5.58,3.36a3.65,3.65,0,0,0,3.37,0l5.6-3.28c.95-.55,1-1.44.07-2l-5.59-3.34a3.64,3.64,0,0,0-3.35,0l-5.59,3.24C181.39,242,181.35,242.9,182.25,243.45Z"/><path class="cls-33" d="M192.52,249.64l5.64,3.4a3.63,3.63,0,0,0,3.39,0l5.63-3.3c.95-.56,1-1.46,0-2l-5.66-3.37a3.65,3.65,0,0,0-3.37,0l-5.61,3.28C191.64,248.19,191.61,249.09,192.52,249.64Z"/><path class="cls-33" d="M202.91,255.9l5.71,3.45a3.66,3.66,0,0,0,3.42,0l5.64-3.33a1.08,1.08,0,0,0,0-2L212,250.56a3.68,3.68,0,0,0-3.4,0l-5.63,3.3C202,254.44,202,255.35,202.91,255.9Z"/><path class="cls-33" d="M213.42,262.24l5.78,3.49a3.69,3.69,0,0,0,3.45,0l5.66-3.36a1.09,1.09,0,0,0,0-2.05l-5.8-3.46a3.66,3.66,0,0,0-3.42,0l-5.65,3.33C212.51,260.77,212.49,261.68,213.42,262.24Z"/><path class="cls-33" d="M224.07,268.66l5.85,3.53a3.68,3.68,0,0,0,3.47,0l5.68-3.39a1.1,1.1,0,0,0,0-2.07l-5.87-3.5a3.67,3.67,0,0,0-3.44,0l-5.67,3.37A1.1,1.1,0,0,0,224.07,268.66Z"/><path class="cls-33" d="M234.84,275.16l5.92,3.57a3.74,3.74,0,0,0,3.5,0l5.7-3.43a1.12,1.12,0,0,0,0-2.09L244,269.68a3.7,3.7,0,0,0-3.48,0l-5.68,3.39A1.12,1.12,0,0,0,234.84,275.16Z"/><path class="cls-33" d="M245.74,281.74l6,3.61a3.72,3.72,0,0,0,3.52,0l5.72-3.45a1.14,1.14,0,0,0,0-2.12l-6-3.59a3.74,3.74,0,0,0-3.5,0l-5.7,3.43A1.13,1.13,0,0,0,245.74,281.74Z"/><path class="cls-33" d="M256.78,288.4l6.08,3.66a3.78,3.78,0,0,0,3.55,0l5.73-3.49a1.15,1.15,0,0,0,0-2.14L266,282.81a3.77,3.77,0,0,0-3.53,0l-5.72,3.46A1.15,1.15,0,0,0,256.78,288.4Z"/><path class="cls-33" d="M283.38,293.18l-6.17-3.68a3.75,3.75,0,0,0-3.55,0L267.92,293a1.16,1.16,0,0,0,0,2.16l6.15,3.7a3.79,3.79,0,0,0,3.58,0l5.75-3.52C284.41,294.74,284.38,293.78,283.38,293.18Z"/><path class="cls-33" d="M309.22,308.6l-20.66-12.33a3.79,3.79,0,0,0-3.58,0l-5.76,3.52a1.17,1.17,0,0,0,.06,2.18l20.61,12.43a3.82,3.82,0,0,0,3.64,0l5.79-3.59C310.3,310.21,310.25,309.22,309.22,308.6Z"/><path class="cls-33" d="M330.33,295.18,324,291.47a3.82,3.82,0,0,0-3.6,0L314.65,295c-1,.6-.92,1.57.11,2.18l6.36,3.74a3.83,3.83,0,0,0,3.63,0l5.72-3.55C331.43,296.76,331.37,295.79,330.33,295.18Z"/><path class="cls-33" d="M225,221.79l-5.63-3.24a3.63,3.63,0,0,0-3.32,0l-5.5,3.19c-.93.54-.95,1.4,0,1.93l5.61,3.27a3.65,3.65,0,0,0,3.34,0l5.51-3.21C225.86,223.18,225.87,222.32,225,221.79Z"/><path class="cls-33" d="M235.4,227.8l-5.69-3.28a3.67,3.67,0,0,0-3.35,0l-5.51,3.21c-.94.54-.95,1.42,0,2l5.67,3.31a3.68,3.68,0,0,0,3.37,0l5.53-3.24A1,1,0,0,0,235.4,227.8Z"/><path class="cls-33" d="M246,233.89l-5.76-3.32a3.76,3.76,0,0,0-3.38,0l-5.53,3.25a1,1,0,0,0,0,2l5.74,3.34a3.71,3.71,0,0,0,3.4,0l5.54-3.27A1,1,0,0,0,246,233.89Z"/><path class="cls-33" d="M256.66,240.06l-5.83-3.36a3.71,3.71,0,0,0-3.4,0L241.89,240a1.06,1.06,0,0,0,0,2l5.81,3.38a3.72,3.72,0,0,0,3.42,0l5.56-3.3A1.05,1.05,0,0,0,256.66,240.06Z"/><path class="cls-33" d="M267.48,246.29l-5.9-3.4a3.72,3.72,0,0,0-3.42,0l-5.56,3.3a1.07,1.07,0,0,0,0,2l5.89,3.43a3.76,3.76,0,0,0,3.44,0l5.58-3.33C268.46,247.75,268.45,246.85,267.48,246.29Z"/><path class="cls-33" d="M278.44,252.6l-6-3.44a3.8,3.8,0,0,0-3.46,0l-5.57,3.33a1.08,1.08,0,0,0,0,2l5.95,3.47a3.78,3.78,0,0,0,3.48,0l5.59-3.36C279.43,254.08,279.41,253.16,278.44,252.6Z"/><path class="cls-33" d="M289.53,259l-6-3.48a3.78,3.78,0,0,0-3.48,0l-5.59,3.36a1.09,1.09,0,0,0,0,2.05l6,3.51a3.77,3.77,0,0,0,3.5,0l5.61-3.39C290.54,260.48,290.51,259.56,289.53,259Z"/><path class="cls-33" d="M300.75,265.46l-6.12-3.53a3.82,3.82,0,0,0-3.51,0l-5.61,3.39c-.95.57-.92,1.5.06,2.08l6.11,3.55a3.8,3.8,0,0,0,3.53,0l5.62-3.42C301.78,267,301.75,266,300.75,265.46Z"/><path class="cls-33" d="M303,277.56a3.8,3.8,0,0,0,3.56,0l5.64-3.45c1-.58.91-1.52-.1-2.1l-6.19-3.57a3.82,3.82,0,0,0-3.54,0l-5.63,3.42c-.95.58-.91,1.52.08,2.1Z"/><path class="cls-33" d="M323.61,278.63,317.34,275a3.86,3.86,0,0,0-3.56,0l-5.64,3.45c-1,.59-.92,1.54.09,2.13l6.26,3.64a3.84,3.84,0,0,0,3.58,0l5.66-3.49C324.69,280.18,324.63,279.22,323.61,278.63Z"/><path class="cls-33" d="M341.88,289.16l-13.36-7.7a2.48,2.48,0,0,0-2.28,0l-6.92,4.26c-.62.38-.58,1,.07,1.37l13.33,7.76a2.48,2.48,0,0,0,2.31,0l7-4.32C342.59,290.16,342.55,289.54,341.88,289.16Z"/><g class="cls-3"><path class="cls-34" d="M166.93,318.61l-12.28-7.09-9.13,3.3a66.81,66.81,0,0,0-12.62-3l-2.48-6.08H113.11l-2.4,6.09a66.15,66.15,0,0,0-12.59,3L89,311.52l-12.21,7.1,5.74,5.29a22.12,22.12,0,0,0-5.19,7.31l-10.49,1.41.06,10,10.5,1.42a22.87,22.87,0,0,0,5.26,7.3L77,356.67l12.27,7.09,9.13-3.3a69.52,69.52,0,0,0,12.63,3l2.47,6.07h17.31l.75-.44,1.66-5.64a68,68,0,0,0,12.6-3l9.16,3.3,12.2-7.09-5.73-5.3a22.23,22.23,0,0,0,5.18-7.31l10.49-1.41.75-.44-.81-9.58-10.5-1.42a22.75,22.75,0,0,0-5.27-7.3Z"/></g><path class="cls-35" d="M167.68,318.17l-12.28-7.09-9.13,3.3a67.6,67.6,0,0,0-12.62-3l-2.48-6.08H113.86l-2.4,6.08a66.91,66.91,0,0,0-12.59,3l-9.16-3.3L77.5,318.17l5.74,5.29a22.33,22.33,0,0,0-5.19,7.31l-10.49,1.41.06,10,10.5,1.41a22.76,22.76,0,0,0,5.26,7.3l-5.66,5.3L90,363.31l9.13-3.3a67.9,67.9,0,0,0,12.63,3l2.47,6.07h17.31l2.41-6.08a67.2,67.2,0,0,0,12.6-3l9.16,3.3,12.2-7.09-5.73-5.29a22.33,22.33,0,0,0,5.18-7.31l10.49-1.41-.06-10-10.5-1.41a22.78,22.78,0,0,0-5.27-7.31Z"/><polygon class="cls-36" points="167.68 318.17 167.68 314.58 162.01 319.88 162.01 323.46 167.68 318.17"/><polygon class="cls-37" points="77.5 314.59 77.5 318.17 83.24 323.46 83.24 319.88 77.5 314.59"/><path class="cls-38" d="M167.68,314.58l-12.28-7.09-9.13,3.3a66.81,66.81,0,0,0-12.62-3l-2.48-6.08H113.86l-2.4,6.09a66.15,66.15,0,0,0-12.59,3l-9.16-3.31-12.21,7.1,5.74,5.29a22.19,22.19,0,0,0-5.19,7.3L67.56,328.6l.06,10L78.12,340a22.87,22.87,0,0,0,5.26,7.3l-5.66,5.3L90,359.73l9.13-3.3a69.52,69.52,0,0,0,12.63,3l2.47,6.07h17.31l2.41-6.08a68,68,0,0,0,12.6-3l9.16,3.3,12.2-7.09-5.73-5.3a22.23,22.23,0,0,0,5.18-7.31l10.49-1.41-.06-10-10.5-1.42a22.75,22.75,0,0,0-5.27-7.3Z"/><polygon class="cls-39" points="90 363.31 90 359.73 99.13 356.43 99.13 360.01 90 363.31"/><polygon class="cls-40" points="114.22 365.53 114.22 369.11 111.75 363.04 111.75 359.46 114.22 365.53"/><polygon class="cls-41" points="131.53 369.12 131.53 365.53 133.94 359.45 133.94 363.04 131.53 369.12"/><polygon class="cls-42" points="155.7 363.31 155.7 359.73 146.54 356.43 146.54 360.01 155.7 363.31"/><polygon class="cls-43" points="167.35 343.62 167.35 340.03 177.84 338.62 177.84 342.21 167.35 343.62"/><polygon class="cls-44" points="78.12 343.62 78.12 340.04 67.62 338.62 67.62 342.21 78.12 343.62"/><polygon class="cls-45" points="77.72 352.64 77.72 356.22 90 363.31 90 359.73 77.72 352.64"/><polygon class="cls-46" points="167.9 356.22 167.9 352.64 155.7 359.73 155.7 363.31 167.9 356.22"/><path class="cls-47" d="M107.29,214.4q.55-7,1.07-14c.33-4.51.79-9,.76-13.57,0-3.77-.07-12.65-5.42-13.06-3.32-.26-4.62,4.71-5.35,7.09-3.07,10-1.64,21-1.28,31.28a16.68,16.68,0,0,0,.09,2.45l5,22.42a14,14,0,0,0,7.57-2.08Z"/><path class="cls-48" d="M101.25,319.61c11.13-6.42,29.13-6.43,40.19,0s11,16.85-.13,23.28-29.13,6.43-40.19,0-11-16.85.13-23.28"/><path class="cls-16" d="M140.33,330.28c-2.53.75-4.88,2.14-7.46,2.79-2.27.74-4.56,1.28-6.87,1.88a11.83,11.83,0,0,0-4.14,1.78c-.55.4-.46,1.26-.4,1.86.09,1,1.43,1.51,2.23,1.78a7.4,7.4,0,0,0,3.49.36,11,11,0,0,0,4.18-1.87c1.22-.76,2.46-1.48,3.74-2.12s2.58-1.05,3.85-1.63a3.37,3.37,0,0,0,2.25-2.79,4.26,4.26,0,0,0,0-1.07,1.57,1.57,0,0,0-.44-.91.39.39,0,0,0-.19-.1.32.32,0,0,0-.17,0Z"/><path class="cls-49" d="M137.47,328.26c-.4,0-.81,0-1.22,0-1,.08-2,.24-3,.34a16.39,16.39,0,0,1-3.13-.09c-.33,0-.66-.06-1-.07a7.84,7.84,0,0,0-6.6,3.94h0c-1.09.46-.64,1.94-.74,2.85a12.25,12.25,0,0,0-.32,2,1.67,1.67,0,0,0,.84,1.18,6.85,6.85,0,0,0,5.63,1,18.59,18.59,0,0,0,4-2,41,41,0,0,1,5-2.56,13,13,0,0,0,2.67-1.18,2.67,2.67,0,0,0,1.32-3.22A3.74,3.74,0,0,0,137.47,328.26Z"/><path class="cls-50" d="M135.65,330.19a11.1,11.1,0,0,0-1.92-1.25c-.23-.12-.47-.22-.71-.32a17.14,17.14,0,0,1-2.86-.1c-.33,0-.66-.06-1-.07a7.41,7.41,0,0,0-4.45,1.54,2.55,2.55,0,0,0,.42.82,8.22,8.22,0,0,0,3.1,2.63,2.37,2.37,0,0,0,.82.25,2.66,2.66,0,0,0,1.36-.48,10.4,10.4,0,0,1,1.24-.51,15.35,15.35,0,0,1,2.77-.59c.52-.07,1.39-.13,1.75-.59S136,330.47,135.65,330.19Z"/><path class="cls-16" d="M121,320.8c-2.53.75-4.88,2.14-7.46,2.78-2.27.74-4.57,1.29-6.87,1.89a12,12,0,0,0-4.14,1.77c-.56.41-.46,1.27-.41,1.87.09,1,1.44,1.5,2.24,1.77a7.54,7.54,0,0,0,3.49.37,11.19,11.19,0,0,0,4.18-1.87c1.22-.76,2.46-1.49,3.74-2.13s2.58-1.05,3.85-1.63a3.37,3.37,0,0,0,2.25-2.78,4.88,4.88,0,0,0,0-1.08,1.57,1.57,0,0,0-.44-.9.41.41,0,0,0-.19-.11.47.47,0,0,0-.17,0Z"/><path class="cls-51" d="M118.1,318.78a8.15,8.15,0,0,0-1.21,0c-1,.07-2,.24-3,.33a16.34,16.34,0,0,1-3.13-.09c-.33,0-.66-.06-1-.06a7.84,7.84,0,0,0-6.61,3.93h0c-1.09.45-.65,1.94-.74,2.85a11.08,11.08,0,0,0-.32,2,1.64,1.64,0,0,0,.83,1.17,6.88,6.88,0,0,0,5.64,1,18.59,18.59,0,0,0,4-2,41.51,41.51,0,0,1,5-2.55,13.42,13.42,0,0,0,2.68-1.19,2.67,2.67,0,0,0,1.32-3.21A3.73,3.73,0,0,0,118.1,318.78Z"/><path class="cls-52" d="M116.29,320.7a12.16,12.16,0,0,0-1.92-1.25c-.23-.12-.47-.21-.71-.31a18.2,18.2,0,0,1-2.86-.11c-.33,0-.66-.06-1-.06a7.35,7.35,0,0,0-4.45,1.54,2.61,2.61,0,0,0,.42.81,8.05,8.05,0,0,0,3.1,2.63,2,2,0,0,0,.82.25,2.69,2.69,0,0,0,1.36-.48,10.36,10.36,0,0,1,1.24-.5,13.66,13.66,0,0,1,2.77-.59c.52-.07,1.39-.14,1.75-.59S116.65,321,116.29,320.7Z"/><path class="cls-53" d="M100,237.94l3.66,84.66c0,1.24,2.65,2.26,4.06,2.15,3.15-.25,4.13-1.4,4.39-2.8l6.79-52.53,1-31.83Z"/><path class="cls-54" d="M113,260.22s1,18.66.59,26.82c-.33,6.55-2.76,27.24-4.4,35-.62,3-4.71,1.82-4.73,1.81h0l.08.05a5.73,5.73,0,0,0,3.11.87c3.15-.25,4.13-1.4,4.39-2.8l6.75-52.22Z"/><path class="cls-55" d="M107.68,235.09s1.34,21,7,31.27l8.06,66.57c.11.8,2.35,1.71,5.12,1.35,1.77-.23,2.78-1.09,2.78-2.22l1.21-63.13-.19-34.42Z"/><path class="cls-56" d="M131.61,234.51l0-.49c-.56-8.45-.71-16.87-1-25.33a89.75,89.75,0,0,0-1.87-16.18c-.62-2.83-3.47-14.35-4.46-15.23-1.36-1.19-4.78-2.48-6.44-3.16a28.72,28.72,0,0,0-5.52-1.72c-3.26-.61-7.74-.55-10.12,2.11a16.68,16.68,0,0,0-3.32,6.28c-1.75,5.75-1.65,12.12-.75,18a169.38,169.38,0,0,1,1.73,18.82,112.48,112.48,0,0,1-.25,18.17c-.32,2.65.51,4.22,3,5.34,8.78,4,18.31,5.57,27.68,2.58a2.22,2.22,0,0,0,1.71-1.37,11.08,11.08,0,0,0-.08-3.63C131.79,237.31,131.7,235.91,131.61,234.51Z"/><path class="cls-57" d="M131.61,234.51l0-.49c-.56-8.45-.71-16.87-1-25.33a89.75,89.75,0,0,0-1.87-16.18c-.38-1.72-1.58-6.65-2.69-10.45a89.78,89.78,0,0,1,.24,10.61c0,6.12-.11,12.25-.28,18.38-.16,5.69-.37,11.85-3.35,16.9-2.64,4.47-7.27,7-12.34,7.7a29.39,29.39,0,0,1-10.62-.72l-.09.86c-.32,2.65.51,4.22,3,5.34,8.78,4,18.31,5.57,27.68,2.58a2.21,2.21,0,0,0,1.71-1.38,11,11,0,0,0-.08-3.62C131.79,237.31,131.7,235.91,131.61,234.51Z"/><path class="cls-58" d="M152.32,229.53a5.17,5.17,0,0,0,4.83-.2,11.14,11.14,0,0,1,2-1c.41-.15,1.15-.3,1.51,0,.92.86-.76,1.8-1.31,2.14-.92.59.45,1.1.92,1.27a13.67,13.67,0,0,0,2.29.56c.58.11,1.42.09,1.66.77a.69.69,0,0,1-.33.84,3,3,0,0,1,.6.78,1,1,0,0,1,0,.94,1.35,1.35,0,0,1-1.13.45,1.49,1.49,0,0,1,.17,1c-.12.49-.9.53-1.42.53a.44.44,0,0,1-.28.38,3.24,3.24,0,0,1-1.17.09,10.91,10.91,0,0,1-4.24-1,26.38,26.38,0,0,1-5.56-3.11.54.54,0,0,1-.12-.09l.8-4.83Z"/><path class="cls-59" d="M133.55,214.43c-1.48-1.37-2.24-2.88-2.36-5.69-.29-6.55-.38-13.13-1.27-19.63-.51-3.74-1.71-12.53-7.08-12.25-3.31.18-4,5.28-4.37,7.73-1.14,6.78-.31,13.69.85,20.41,1.06,6.14,1.12,12.44,6.56,16.4a134.92,134.92,0,0,0,24.92,13.93q2.26-3.32,4.75-6.47-6.87-4.16-13.59-8.54c-1.94-1.27-3.85-2.58-5.76-3.89A21.42,21.42,0,0,1,133.55,214.43Z"/><path class="cls-60" d="M126.4,148.25s3.77,15.57.24,18.29a23.28,23.28,0,0,1-8.28,3.71l-.14,4s-6.2.37-10.54-2.21a14.78,14.78,0,0,0-1.15-8.52S106.57,138.72,126.4,148.25Z"/><path class="cls-61" d="M126.6,149.13c-.12-.55-.2-.88-.2-.88-19.83-9.53-19.87,15.31-19.87,15.31a13.6,13.6,0,0,1,1.33,5.78,18.86,18.86,0,0,0,4.12-.14h0a8.22,8.22,0,0,0,5.63-2.82,10,10,0,0,0,1.59-3.09,1.58,1.58,0,0,0-.07-1.42,6.17,6.17,0,0,0-.94-.9,3.52,3.52,0,0,1-1.09-1.74,2.46,2.46,0,0,1,1-2.65c1-.65,1.94-.16,2.93.26a2.46,2.46,0,0,0,2,.14,1.6,1.6,0,0,0,.8-1.63,27.73,27.73,0,0,1-.11-3.16C124,150.39,125.22,149.72,126.6,149.13Z"/><path class="cls-12" d="M122.85,157.49h-.11c-.64,0-1.08-1.37-1.59-1.73a3.27,3.27,0,0,0-2-.59c-3.37.1-3.83,6.24-.26,6.63a.56.56,0,0,1,.38.12.57.57,0,0,1,.1.34c.06,2.81-2.14,4.63-4.67,5.3s-5.89.32-7.75-1.83a28.26,28.26,0,0,1-4.29-6.76,22.74,22.74,0,0,1-2.39-7.83,13.92,13.92,0,0,1,2.75-8.79,17.69,17.69,0,0,1,4-3.92c1.48-1.07,3.46-1.81,4.54-3.33a25.19,25.19,0,0,1,1.71-2.82,4.53,4.53,0,0,1,2.64-1.31,7.73,7.73,0,0,1,4.79,1c.64.36,1.25.56,1.85,0s.84-1.15,1.48-1.54a3.37,3.37,0,0,1,2.37-.37c3.45.67,5.24,4.69,5.1,7.87a1.62,1.62,0,0,0,0,.54c.18.65,1,.42,1.38.76.69.57.56,2,.34,2.78a6.79,6.79,0,0,1-1.67,2.62,15.08,15.08,0,0,1-5,3.37c-1.57.66-2.94,1.56-3.11,3.4C123.4,152.63,124.91,157.14,122.85,157.49Z"/><path class="cls-54" d="M133.26,142c.22-.75.35-2.21-.34-2.78h0a9.69,9.69,0,0,1-6.31,6.35c-2.22.76-6.75.59-6.61,4,0,.92,1,2.66-.42,2.95-.52.1-1-.32-1.47-.34-1.73-.06-2.54,2.37-2.93,3.67-.49,1.64-1,3.26-2.55,4.22a5.66,5.66,0,0,1-5.23.32,10.58,10.58,0,0,1-4.76-4.29,23.5,23.5,0,0,1-2.28-4.06,24.8,24.8,0,0,0,2.29,6.92,28.26,28.26,0,0,0,4.29,6.76c1.86,2.15,5.11,2.54,7.75,1.83s4.73-2.49,4.67-5.3a.57.57,0,0,0-.1-.34.56.56,0,0,0-.38-.12c-3.57-.39-3.11-6.53.26-6.63a3.27,3.27,0,0,1,2,.59c.51.36.95,1.71,1.59,1.73h.11c2.06-.35.55-4.86.65-6.06.17-1.84,1.54-2.74,3.11-3.4a15.08,15.08,0,0,0,5-3.37A6.79,6.79,0,0,0,133.26,142Z"/><path class="cls-62" d="M106.89,172.27l.92-1.09s3.52,2.89,10.43,1.81l.3,1.42S111.05,175.25,106.89,172.27Z"/><path class="cls-54" d="M124.74,250.11a.32.32,0,0,0-.29-.17,39,39,0,0,1-7.48-.2c-.93-.1-1.89-.17-2.81-.36-.1,0-.4-.13-.48,0a.42.42,0,0,0,0,.19c0,.36,0,.72,0,1.09a.72.72,0,0,0,.22.55,2.37,2.37,0,0,0,.8.16,51.19,51.19,0,0,0,7.4.79c.66,0,1.31,0,2,0l.61-.05a.37.37,0,0,0,.37-.37A2.88,2.88,0,0,0,124.74,250.11Z"/><path class="cls-54" d="M105.12,247.26a34.26,34.26,0,0,1-4.81-1.23l.1,2.18c.62.21,1.24.41,1.88.59s1.26.34,1.9.46l.61.11a.37.37,0,0,0,.45-.27,2.84,2.84,0,0,0,.1-1.61A.33.33,0,0,0,105.12,247.26Z"/><path class="cls-63" d="M111.34,115.76a1.37,1.37,0,0,1-.64-1.11l0-11.82c0-.41.29-.57.64-.37l14.94,8.63a1.38,1.38,0,0,1,.63,1.1l0,11.82c0,.41-.29.58-.64.37l-8.87-5.12a1.21,1.21,0,0,0-1.2-.13l-2.58,1.41V119a3.75,3.75,0,0,0-1.7-2.94l-.58-.34m15-5.9-14.93-8.62c-.94-.54-1.71-.1-1.71,1l0,11.82a3.75,3.75,0,0,0,1.7,2.94l.59.34a1.42,1.42,0,0,1,.64,1.11v1.62a2.25,2.25,0,0,0,.63,1.45,1.61,1.61,0,0,0,.39.31.75.75,0,0,0,.71.08l2.66-1.46a.49.49,0,0,1,.46,0l8.86,5.12c.94.54,1.71.11,1.71-1l0-11.82a3.78,3.78,0,0,0-1.7-3"/><path class="cls-64" d="M114.27,109.31c-.78-.44-1.4-.09-1.41.8a3.07,3.07,0,0,0,1.4,2.41c.77.45,1.39.09,1.39-.8a3.05,3.05,0,0,0-1.38-2.41"/><path class="cls-65" d="M118.82,111.94c-.77-.44-1.4-.08-1.4.8a3.08,3.08,0,0,0,1.4,2.42c.77.44,1.4.08,1.4-.8a3.08,3.08,0,0,0-1.4-2.42"/><path class="cls-66" d="M123.38,114.57c-.77-.44-1.4-.08-1.4.8a3.09,3.09,0,0,0,1.39,2.42c.78.44,1.41.08,1.41-.8a3.1,3.1,0,0,0-1.4-2.42"/></g></g></svg>