<svg xmlns="http://www.w3.org/2000/svg" xmlns:xlink="http://www.w3.org/1999/xlink" viewBox="0 0 450 420"><defs><style>.cls-1{isolation:isolate;}.cls-2{fill:none;}.cls-3{fill:url(#linear-gradient);}.cls-4{fill:url(#linear-gradient-2);}.cls-5{fill:url(#linear-gradient-3);}.cls-6{fill:#38c5ea;opacity:0.6;}.cls-7{fill:url(#linear-gradient-4);}.cls-8{fill:url(#linear-gradient-5);}.cls-33,.cls-9{fill:#3b223a;}.cls-9{opacity:0.5;}.cls-58,.cls-59,.cls-9{mix-blend-mode:multiply;}.cls-10{fill:#181019;}.cls-11{fill:url(#linear-gradient-6);}.cls-12{fill:url(#linear-gradient-7);}.cls-13{fill:url(#linear-gradient-8);}.cls-14{fill:url(#linear-gradient-9);}.cls-15{fill:url(#linear-gradient-10);}.cls-16{fill:url(#linear-gradient-11);}.cls-17{fill:url(#linear-gradient-12);}.cls-18{fill:url(#linear-gradient-13);}.cls-19{fill:url(#linear-gradient-14);}.cls-20{fill:url(#linear-gradient-15);}.cls-21{fill:url(#linear-gradient-16);}.cls-22{fill:url(#linear-gradient-17);}.cls-23{fill:url(#linear-gradient-18);}.cls-24{fill:url(#linear-gradient-19);}.cls-25{fill:url(#linear-gradient-20);}.cls-26{fill:url(#linear-gradient-21);}.cls-27{fill:url(#linear-gradient-22);}.cls-28{fill:url(#linear-gradient-23);}.cls-29{fill:url(#linear-gradient-24);}.cls-30,.cls-48,.cls-69{mix-blend-mode:screen;}.cls-30{fill:url(#_ÂÁ_Ï_ÌÌ_È_ËÂÌÚ_3);}.cls-31{fill:#472a47;}.cls-32{fill:#261626;}.cls-34{fill:#2e1a2d;}.cls-35{fill:url(#_ÂÁ_Ï_ÌÌ_È_ËÂÌÚ_161);}.cls-36{fill:url(#_ÂÁ_Ï_ÌÌ_È_ËÂÌÚ_161-2);}.cls-37{fill:url(#linear-gradient-25);}.cls-38{fill:url(#linear-gradient-26);}.cls-39{fill:url(#linear-gradient-27);}.cls-40{fill:url(#linear-gradient-28);}.cls-41{fill:url(#linear-gradient-29);}.cls-42{fill:#302030;}.cls-43{fill:url(#linear-gradient-30);}.cls-44{fill:url(#linear-gradient-31);}.cls-45{fill:url(#linear-gradient-32);}.cls-46{fill:#efefef;}.cls-47{fill:url(#linear-gradient-33);}.cls-48{opacity:0.3;fill:url(#_ÂÁ_Ï_ÌÌ_È_ËÂÌÚ_182);}.cls-49{fill:url(#linear-gradient-34);}.cls-50{fill:url(#linear-gradient-35);}.cls-51{fill:#f7b192;}.cls-52{fill:#2c0035;}.cls-53{fill:#fff;}.cls-54{fill:#ffc8b3;}.cls-55{fill:#5b3f2c;}.cls-56{fill:#0a569c;}.cls-57{fill:#abd1ec;}.cls-58{fill:#b9d9ef;opacity:0.2;}.cls-59{fill:#1a8dc2;opacity:0.6;}.cls-60{fill:#004f98;}.cls-61{fill:url(#_ÂÁ_Ï_ÌÌ_È_ËÂÌÚ_2);}.cls-62{fill:#0984bd;}.cls-63{fill:#14416a;}.cls-64{fill:#190f19;}.cls-65{fill:url(#linear-gradient-36);}.cls-66{fill:url(#linear-gradient-37);}.cls-67{fill:url(#linear-gradient-38);}.cls-68{fill:url(#linear-gradient-39);}.cls-69{fill:url(#_ÂÁ_Ï_ÌÌ_È_ËÂÌÚ_203);}.cls-70{fill:#1c1a18;}.cls-71{fill:url(#_ÂÁ_Ï_ÌÌ_È_ËÂÌÚ_2-2);}.cls-72{fill:url(#linear-gradient-40);}.cls-73{fill:url(#linear-gradient-41);}.cls-74{fill:url(#linear-gradient-42);}.cls-75{fill:url(#linear-gradient-43);}.cls-76{fill:url(#linear-gradient-44);}.cls-77{fill:url(#linear-gradient-45);}.cls-78{fill:url(#linear-gradient-46);}.cls-79{fill:url(#linear-gradient-47);}.cls-80{fill:url(#linear-gradient-48);}.cls-81{fill:url(#linear-gradient-49);}.cls-82{fill:url(#linear-gradient-50);}.cls-83{fill:url(#linear-gradient-51);}</style><linearGradient id="linear-gradient" x1="231" y1="302.19" x2="407.16" y2="302.19" gradientUnits="userSpaceOnUse"><stop offset="0" stop-color="#abd1ec"/><stop offset="0.57" stop-color="#eef6fb"/></linearGradient><linearGradient id="linear-gradient-2" x1="53.71" y1="302.19" x2="231.04" y2="302.19" xlink:href="#linear-gradient"/><linearGradient id="linear-gradient-3" x1="53.75" y1="242.92" x2="407.16" y2="242.92" xlink:href="#linear-gradient"/><linearGradient id="linear-gradient-4" x1="194.13" y1="194.59" x2="267.63" y2="194.59" gradientUnits="userSpaceOnUse"><stop offset="0" stop-color="#56a5d7"/><stop offset="1" stop-color="#0984bd"/></linearGradient><linearGradient id="linear-gradient-5" x1="194.15" y1="171.22" x2="267.63" y2="171.22" gradientUnits="userSpaceOnUse"><stop offset="0.05" stop-color="#14416a"/><stop offset="1" stop-color="#004f98"/></linearGradient><linearGradient id="linear-gradient-6" x1="213.14" y1="162.9" x2="248.48" y2="162.9" xlink:href="#linear-gradient-5"/><linearGradient id="linear-gradient-7" x1="210.8" y1="153.37" x2="250.81" y2="153.37" gradientTransform="translate(0.44 -0.65) rotate(0.16)" xlink:href="#linear-gradient"/><linearGradient id="linear-gradient-8" x1="212.53" y1="157.15" x2="249.07" y2="157.15" xlink:href="#linear-gradient-5"/><linearGradient id="linear-gradient-9" x1="210.78" y1="148.44" x2="250.8" y2="148.44" gradientTransform="translate(0.42 -0.65) rotate(0.16)" xlink:href="#linear-gradient"/><linearGradient id="linear-gradient-10" x1="212.51" y1="152.22" x2="249.06" y2="152.22" xlink:href="#linear-gradient-5"/><linearGradient id="linear-gradient-11" x1="210.77" y1="143.5" x2="250.78" y2="143.5" xlink:href="#linear-gradient"/><linearGradient id="linear-gradient-12" x1="212.5" y1="147.28" x2="249.04" y2="147.28" xlink:href="#linear-gradient-5"/><linearGradient id="linear-gradient-13" x1="210.76" y1="138.56" x2="250.77" y2="138.56" xlink:href="#linear-gradient"/><linearGradient id="linear-gradient-14" x1="212.48" y1="142.34" x2="249.03" y2="142.34" xlink:href="#linear-gradient-5"/><linearGradient id="linear-gradient-15" x1="210.8" y1="160.12" x2="250.82" y2="160.12" gradientUnits="userSpaceOnUse"><stop offset="0" stop-color="#0984bd"/><stop offset="1" stop-color="#56a5d7"/></linearGradient><linearGradient id="linear-gradient-16" x1="210.78" y1="155.19" x2="250.8" y2="155.19" xlink:href="#linear-gradient-15"/><linearGradient id="linear-gradient-17" x1="210.77" y1="150.25" x2="250.79" y2="150.25" xlink:href="#linear-gradient-15"/><linearGradient id="linear-gradient-18" x1="210.76" y1="145.31" x2="250.77" y2="145.31" xlink:href="#linear-gradient-15"/><linearGradient id="linear-gradient-19" x1="205.09" y1="133.52" x2="256.35" y2="133.52" xlink:href="#linear-gradient-15"/><linearGradient id="linear-gradient-20" x1="205.09" y1="120.7" x2="256.33" y2="120.7" xlink:href="#linear-gradient"/><linearGradient id="linear-gradient-21" x1="212.23" y1="129.41" x2="256.06" y2="129.41" xlink:href="#linear-gradient-5"/><linearGradient id="linear-gradient-22" x1="185.41" y1="76.91" x2="276.01" y2="76.91" gradientUnits="userSpaceOnUse"><stop offset="0" stop-color="#fab371"/><stop offset="1" stop-color="#fcd5b0"/></linearGradient><linearGradient id="linear-gradient-23" x1="210.05" y1="117.63" x2="250.8" y2="117.63" gradientUnits="userSpaceOnUse"><stop offset="0" stop-color="#f7947c"/><stop offset="1" stop-color="#f57454"/></linearGradient><linearGradient id="linear-gradient-24" x1="231.63" y1="63.14" x2="225.06" y2="121.79" xlink:href="#linear-gradient-23"/><linearGradient id="_ÂÁ_Ï_ÌÌ_È_ËÂÌÚ_3" x1="245.84" y1="35.71" x2="221.26" y2="123.18" gradientUnits="userSpaceOnUse"><stop offset="0" stop-color="#ffcd3d"/><stop offset="0.03" stop-color="#f2c33a"/><stop offset="0.25" stop-color="#aa8929"/><stop offset="0.44" stop-color="#6d581a"/><stop offset="0.62" stop-color="#3e320f"/><stop offset="0.78" stop-color="#1c1707"/><stop offset="0.91" stop-color="#070602"/><stop offset="1"/></linearGradient><linearGradient id="_ÂÁ_Ï_ÌÌ_È_ËÂÌÚ_161" x1="283" y1="209.7" x2="280.81" y2="213.49" gradientUnits="userSpaceOnUse"><stop offset="0" stop-color="#3b223a"/><stop offset="1" stop-color="#2e1a2d"/></linearGradient><linearGradient id="_ÂÁ_Ï_ÌÌ_È_ËÂÌÚ_161-2" x1="-1503.44" y1="209.51" x2="-1505.62" y2="213.3" gradientTransform="matrix(-1, 0, 0, 1, -1325.3, 0)" xlink:href="#_ÂÁ_Ï_ÌÌ_È_ËÂÌÚ_161"/><linearGradient id="linear-gradient-25" x1="281.55" y1="245.06" x2="355.04" y2="245.06" xlink:href="#linear-gradient-4"/><linearGradient id="linear-gradient-26" x1="281.57" y1="221.69" x2="355.04" y2="221.69" xlink:href="#linear-gradient-5"/><linearGradient id="linear-gradient-27" x1="106.7" y1="245.06" x2="180.2" y2="245.06" xlink:href="#linear-gradient-4"/><linearGradient id="linear-gradient-28" x1="106.72" y1="221.69" x2="180.2" y2="221.69" xlink:href="#linear-gradient-5"/><linearGradient id="linear-gradient-29" x1="159.3" y1="272.48" x2="174.66" y2="272.48" xlink:href="#linear-gradient"/><linearGradient id="linear-gradient-30" x1="175.68" y1="261.52" x2="194.16" y2="261.52" xlink:href="#linear-gradient"/><linearGradient id="linear-gradient-31" x1="139.38" y1="239.71" x2="186.47" y2="239.71" xlink:href="#linear-gradient-5"/><linearGradient id="linear-gradient-32" x1="133.83" y1="201.26" x2="167.28" y2="201.26" xlink:href="#linear-gradient-5"/><linearGradient id="linear-gradient-33" x1="133.7" y1="206.19" x2="156.47" y2="206.19" xlink:href="#linear-gradient-5"/><radialGradient id="_ÂÁ_Ï_ÌÌ_È_ËÂÌÚ_182" cx="142.36" cy="209.81" r="18.36" gradientUnits="userSpaceOnUse"><stop offset="0" stop-color="#694169"/><stop offset="1"/></radialGradient><linearGradient id="linear-gradient-34" x1="154.81" y1="195.75" x2="173" y2="195.75" xlink:href="#linear-gradient-5"/><linearGradient id="linear-gradient-35" x1="167.94" y1="216.06" x2="172.76" y2="216.06" xlink:href="#linear-gradient-5"/><linearGradient id="_ÂÁ_Ï_ÌÌ_È_ËÂÌÚ_2" x1="156.68" y1="230.39" x2="181.03" y2="230.39" gradientUnits="userSpaceOnUse"><stop offset="0" stop-color="#56a5d7"/><stop offset="1" stop-color="#38c5ea"/></linearGradient><linearGradient id="linear-gradient-36" x1="-1539.86" y1="189.85" x2="-1524.37" y2="189.85" gradientTransform="matrix(-1, 0, 0, 1, -1224.82, 0)" gradientUnits="userSpaceOnUse"><stop offset="0" stop-color="#f57454"/><stop offset="1" stop-color="#f7947c"/></linearGradient><linearGradient id="linear-gradient-37" x1="306.08" y1="189.85" x2="332.27" y2="189.85" gradientTransform="matrix(1, 0, 0, 1, 0, 0)" xlink:href="#linear-gradient-36"/><linearGradient id="linear-gradient-38" x1="284.95" y1="234.63" x2="330.44" y2="234.63" xlink:href="#linear-gradient-22"/><linearGradient id="linear-gradient-39" x1="310.28" y1="197.95" x2="333.52" y2="197.95" gradientTransform="matrix(1, 0, 0, 1, 0, 0)" xlink:href="#linear-gradient-36"/><radialGradient id="_ÂÁ_Ï_ÌÌ_È_ËÂÌÚ_203" cx="-1548.44" cy="200.66" r="17.71" gradientTransform="matrix(-1, 0, 0, 1, -1224.82, 0)" gradientUnits="userSpaceOnUse"><stop offset="0" stop-color="#fff"/><stop offset="1"/></radialGradient><linearGradient id="_ÂÁ_Ï_ÌÌ_È_ËÂÌÚ_2-2" x1="-1536.43" y1="221.43" x2="-1512.73" y2="221.43" gradientTransform="matrix(-1, 0, 0, 1, -1224.82, 0)" xlink:href="#_ÂÁ_Ï_ÌÌ_È_ËÂÌÚ_2"/><linearGradient id="linear-gradient-40" x1="351.45" y1="81.63" x2="358.37" y2="81.63" xlink:href="#linear-gradient-4"/><linearGradient id="linear-gradient-41" x1="312.92" y1="144" x2="315.86" y2="144" xlink:href="#linear-gradient-4"/><linearGradient id="linear-gradient-42" x1="306.77" y1="126.76" x2="311.39" y2="126.76" xlink:href="#linear-gradient-4"/><linearGradient id="linear-gradient-43" x1="312.38" y1="93.29" x2="354.37" y2="93.29" xlink:href="#linear-gradient-4"/><linearGradient id="linear-gradient-44" x1="306.77" y1="109.43" x2="315.3" y2="109.43" xlink:href="#linear-gradient-4"/><linearGradient id="linear-gradient-45" x1="309.68" y1="116.17" x2="360.08" y2="116.17" xlink:href="#linear-gradient"/><linearGradient id="linear-gradient-46" x1="126.05" y1="171.52" x2="134.99" y2="171.52" xlink:href="#linear-gradient-4"/><linearGradient id="linear-gradient-47" x1="132.39" y1="129.46" x2="139.3" y2="129.46" xlink:href="#linear-gradient-4"/><linearGradient id="linear-gradient-48" x1="87.71" y1="174.6" x2="92.32" y2="174.6" xlink:href="#linear-gradient-4"/><linearGradient id="linear-gradient-49" x1="93.32" y1="141.12" x2="135.31" y2="141.12" xlink:href="#linear-gradient-4"/><linearGradient id="linear-gradient-50" x1="87.71" y1="157.27" x2="96.24" y2="157.27" xlink:href="#linear-gradient-4"/><linearGradient id="linear-gradient-51" x1="90.62" y1="159.11" x2="141.01" y2="159.11" xlink:href="#linear-gradient"/></defs><g class="cls-1"><g id="Layer_1" data-name="Layer 1"><rect id="_0" data-name="0" class="cls-2" x="6.04" y="-42.55" width="450" height="450"/></g><g id="_3" data-name="3"><g id="bg"><g class="cls-1"><polygon class="cls-3" points="407.17 242.92 407.12 259.11 231 361.46 231.04 345.27 407.17 242.92"/><polygon class="cls-4" points="231.04 345.27 231 361.46 53.71 259.11 53.75 242.92 231.04 345.27"/><polygon class="cls-5" points="407.17 242.92 231.04 345.27 53.75 242.92 229.88 140.57 407.17 242.92"/></g></g><path class="cls-6" d="M265.89,202.44l-30.74,17.89a9.38,9.38,0,0,1-8.48,0l-30.75-17.75c-2.35-1.36-2.36-3.56,0-4.91l30.74-17.89a9.35,9.35,0,0,1,8.48,0l30.74,17.75C268.21,198.89,268.22,201.09,265.89,202.44Zm87.28,45.8-30.74-17.75a9.35,9.35,0,0,0-8.48,0l-30.74,17.89c-2.34,1.35-2.33,3.55,0,4.91L314,271a9.38,9.38,0,0,0,8.48,0l30.74-17.89C355.53,251.79,355.52,249.59,353.17,248.24Zm-174.74,0-30.75-17.75a9.33,9.33,0,0,0-8.47,0l-30.75,17.89c-2.33,1.35-2.32,3.55,0,4.91L139.23,271a9.38,9.38,0,0,0,8.48,0l30.75-17.89C180.78,251.79,180.77,249.59,178.43,248.24Z"/><g class="cls-1"><path class="cls-7" d="M194.15,171.27l0,25.49a3,3,0,0,0,1.77,2.48L226.65,217a9.35,9.35,0,0,0,8.48,0l30.74-17.88a3,3,0,0,0,1.74-2.43l0-25.49Z"/><path class="cls-8" d="M265.86,168.71,235.12,151a9.38,9.38,0,0,0-8.48,0L195.9,168.83c-2.34,1.36-2.33,3.56,0,4.92l30.75,17.75a9.35,9.35,0,0,0,8.48,0l30.74-17.88C268.22,172.26,268.21,170.06,265.86,168.71Z"/></g><ellipse class="cls-9" cx="231.02" cy="171.24" rx="23.24" ry="13.42"/><path class="cls-10" d="M224.49,167.22a5.28,5.28,0,0,0,2.65,4.38c3.77,2.35,9.89.36,10-4.41Z"/><path class="cls-11" d="M213.14,155.45c0,2.32.85,8.16,7.42,12.25,10.54,6.57,27.65,1,27.92-12.35Z"/><ellipse class="cls-12" cx="230.8" cy="153.37" rx="20.01" ry="11.59" transform="translate(-0.43 0.66) rotate(-0.16)"/><path class="cls-13" d="M212.53,153.42v-3c0,2.63,1.69,5.25,5.08,7.3,7,4.2,18.55,4.32,25.83.26,3.75-2.09,5.63-4.88,5.62-7.67v3c0,2.79-1.87,5.57-5.62,7.66-7.28,4.06-18.84,4-25.83-.26-3.39-2-5.08-4.67-5.09-7.3Z"/><ellipse class="cls-14" cx="230.79" cy="148.44" rx="20.01" ry="11.59" transform="translate(-0.42 0.65) rotate(-0.16)"/><path class="cls-15" d="M212.52,148.49v-3c0,2.63,1.7,5.26,5.09,7.3,7,4.2,18.55,4.32,25.83.26,3.75-2.09,5.63-4.88,5.62-7.66v3c0,2.79-1.88,5.57-5.62,7.66-7.28,4.06-18.85,3.95-25.83-.26-3.39-2-5.08-4.67-5.09-7.3Z"/><path class="cls-16" d="M245.21,135.45c-7.65-4.6-20.31-4.73-28.28-.29s-8.24,11.79-.59,16.39,20.31,4.73,28.29.29S252.86,140.05,245.21,135.45Z"/><path class="cls-17" d="M212.51,143.55v-3c0,2.63,1.69,5.26,5.08,7.3,7,4.2,18.55,4.32,25.84.26,3.74-2.09,5.62-4.88,5.62-7.67v3c0,2.78-1.87,5.57-5.62,7.66-7.28,4.06-18.84,3.94-25.83-.26-3.39-2-5.08-4.67-5.08-7.3Z"/><path class="cls-18" d="M245.2,130.51c7.65,4.61,7.38,11.94-.59,16.39s-20.64,4.32-28.28-.29-7.39-11.94.58-16.38S237.55,125.91,245.2,130.51Z"/><path class="cls-19" d="M212.49,138.62v-3c0,2.63,1.7,5.26,5.09,7.3,7,4.2,18.55,4.32,25.83.26,3.75-2.09,5.63-4.88,5.62-7.67v3c0,2.79-1.87,5.58-5.62,7.67-7.28,4.06-18.85,3.94-25.83-.26-3.39-2-5.08-4.67-5.09-7.3Z"/><path class="cls-20" d="M210.8,155.4v-2c0,2.88,1.86,5.76,5.57,8,7.65,4.61,20.31,4.73,28.28.29,4.11-2.29,6.17-5.34,6.16-8.4v2c0,3.05-2.06,6.11-6.16,8.4-8,4.44-20.64,4.31-28.29-.29-3.71-2.23-5.56-5.11-5.57-8Z"/><path class="cls-21" d="M210.79,150.46v-2c0,2.88,1.86,5.76,5.57,8,7.65,4.6,20.32,4.73,28.29.29,4.1-2.29,6.16-5.34,6.16-8.4v2c0,3.05-2.05,6.1-6.15,8.39-8,4.45-20.64,4.32-28.29-.29-3.71-2.23-5.56-5.11-5.57-8Z"/><path class="cls-22" d="M210.78,145.53v-2c0,2.88,1.86,5.76,5.57,8,7.65,4.6,20.31,4.73,28.29.29,4.1-2.29,6.16-5.35,6.15-8.4v2c0,3.05-2.06,6.11-6.16,8.39-8,4.45-20.64,4.32-28.28-.28-3.72-2.24-5.57-5.11-5.57-8Z"/><path class="cls-23" d="M210.76,140.59v-2c0,2.88,1.85,5.76,5.57,8,7.64,4.61,20.31,4.74,28.28.29,4.11-2.29,6.17-5.34,6.16-8.39v2c0,3.05-2.05,6.11-6.15,8.39-8,4.45-20.64,4.32-28.29-.28-3.71-2.24-5.56-5.12-5.57-8Z"/><path class="cls-24" d="M256.33,120.62l-51.24.15,0,8.85c0,.25,0,.5,0,.74.32,4.62,3,8.54,8.08,11.66,7.18,4.44,18.64,5.67,27.86,3,5.22-1.52,13.82-5.3,15.1-13.87a7.69,7.69,0,0,0,.16-1.65Z"/><path class="cls-25" d="M249.2,110.39c5.69,3.43,8,8,6.86,12.41-.79,3.15-3.34,6.19-7.61,8.57-10.21,5.7-26.43,5.53-36.22-.36s-9.46-15.29.75-21S239.4,104.5,249.2,110.39Z"/><path class="cls-26" d="M212.23,131c16.75,10.15,41.07,3.6,43.83-8.21C252.49,133.25,230.56,139.89,212.23,131Z"/><path class="cls-27" d="M275.67,59.86C274.05,46.11,266.82,35,254.16,26.8a45.39,45.39,0,0,0-64.24,19.1c-8.24,17.84-5.17,35.67,9.11,53,0,0,.21.27.22.28,4.39,5.55,6.94,12.58,7.57,20.93a9.63,9.63,0,0,0,2.39,5.59,16.91,16.91,0,0,0,4.31,3.57c9.21,5.54,24.46,5.7,34.06.34a17.31,17.31,0,0,0,5-4,9.64,9.64,0,0,0,2.37-5.68c.6-8.39,3.13-15.46,7.53-21l.18-.22C269.85,89.87,277.75,77.53,275.67,59.86Z"/><path class="cls-28" d="M245.12,109.43c7.79,4.69,7.53,12.16-.59,16.69s-21,4.4-28.81-.29-7.52-12.16.6-16.69S237.33,104.74,245.12,109.43Z"/><path class="cls-29" d="M245.34,59.76a1,1,0,0,0-1.39.31l-.34.54a1.09,1.09,0,0,0-.36,0,1.31,1.31,0,0,0-.89.61c-.21.27-.39.52-.56.77a5,5,0,0,1-1,1.17,1.5,1.5,0,0,1-1.38.13,1.88,1.88,0,0,0-1.75.43,8.25,8.25,0,0,0-.86,1.1,8.38,8.38,0,0,1-.7.93,1.59,1.59,0,0,1-1.36.5l-.18,0a1.71,1.71,0,0,0-1.53.11,4.64,4.64,0,0,0-1.17,1.34c-.14.2-.28.4-.44.61a3.38,3.38,0,0,1-.72.75,1,1,0,0,1-.65.16,2.71,2.71,0,0,1-.51-.12,1.58,1.58,0,0,0-1.13-.05,4.81,4.81,0,0,0-1.66,1.7A3.4,3.4,0,0,1,225.38,72a1.56,1.56,0,0,1-.75-.1,2,2,0,0,0-.78-.13c-.52,0-1.25.68-1.71,1.32l-.19.27a4.5,4.5,0,0,1-1.29,1.43,1.17,1.17,0,0,1-1,0,2.22,2.22,0,0,0-.46-.12,1.4,1.4,0,0,0-.91.12,3,3,0,0,0-.82.73,1,1,0,0,0-.65,1.9l9.84,4.16v39.74a2.13,2.13,0,0,0,1.25,1.71,6.61,6.61,0,0,0,6,0,2.1,2.1,0,0,0,1.25-1.75V78.94a1.71,1.71,0,0,0-.27-.86l10.73-16.93A1,1,0,0,0,245.34,59.76ZM233.29,76.89a6.75,6.75,0,0,0-5.35.31,2,2,0,0,0-1.24,1.87s0-.08,0-.11v.46l-8.8-3.72a2.3,2.3,0,0,1,.62-.53,1,1,0,0,1,.65-.08l.41.11a1.53,1.53,0,0,0,1.26,0,4.61,4.61,0,0,0,1.45-1.56l.19-.26a2.72,2.72,0,0,1,1.4-1.16,1.83,1.83,0,0,1,.64.11,1.72,1.72,0,0,0,.94.11c.53-.08,1.24-.86,1.68-1.49.27-.38,1-1.39,1.46-1.56a1.26,1.26,0,0,1,.88,0,2.32,2.32,0,0,0,.59.14,1.42,1.42,0,0,0,.91-.23,3.45,3.45,0,0,0,.83-.84c.16-.21.3-.42.44-.63a4.67,4.67,0,0,1,1.06-1.23,1.32,1.32,0,0,1,1.21,0l.19,0a2,2,0,0,0,1.75-.62,7.69,7.69,0,0,0,.73-1,6.25,6.25,0,0,1,.82-1,1.45,1.45,0,0,1,1.36-.33,1.85,1.85,0,0,0,1.73-.21,5.45,5.45,0,0,0,1-1.25c.17-.25.34-.5.54-.75a1,1,0,0,1,.63-.46h.06Z"/><ellipse class="cls-30" cx="240.33" cy="55.29" rx="24.53" ry="22.09"/><g class="cls-1"><g class="cls-1"><path class="cls-31" d="M261.85,193.11l-5.93-3.45a.45.45,0,0,1,.43,0l5.93,3.45a.45.45,0,0,0-.43,0Z"/></g><path class="cls-32" d="M253.55,202.28v-3.66l-5.94-3.45v3.66a.42.42,0,0,0,.18.39l5.93,3.45A.42.42,0,0,1,253.55,202.28Z"/><polygon class="cls-33" points="254.15 197.56 248.21 194.11 255.92 189.66 261.85 193.11 254.15 197.56"/><g class="cls-1"><path class="cls-31" d="M253.54,198.62l-5.94-3.45a1.35,1.35,0,0,1,.61-1.06l5.94,3.45a1.33,1.33,0,0,0-.61,1.06Z"/></g><path class="cls-34" d="M261.85,193.11c.34-.19.61,0,.61.36v3.66a1.35,1.35,0,0,1-.6,1.05l-7.71,4.45c-.34.19-.61,0-.61-.35v-3.66a1.33,1.33,0,0,1,.61-1.06Z"/></g><path class="cls-35" d="M305.66,222.79,259.25,196a1.1,1.1,0,0,0-1.1.11,3.4,3.4,0,0,0-1.55,2.67,1.08,1.08,0,0,0,.45,1l48.61,28.07Z"/><path class="cls-31" d="M305.66,224.58v-1l-47.54-27.45a2.67,2.67,0,0,0-.7.61Z"/><g class="cls-1"><path class="cls-34" d="M207.71,202.09v-3.66l5.94-3.45v3.66a.42.42,0,0,1-.18.39l-5.94,3.45A.42.42,0,0,0,207.71,202.09Z"/><path class="cls-33" d="M205.34,189.47a.43.43,0,0,0-.43,0L199,192.88a.4.4,0,0,1,.43,0l7.71,4.45,5.94-3.45Z"/><g class="cls-1"><path class="cls-31" d="M207.72,198.43l5.94-3.45a1.36,1.36,0,0,0-.61-1.06l-5.94,3.45a1.34,1.34,0,0,1,.61,1.06Z"/></g><path class="cls-32" d="M199.4,192.92c-.33-.19-.6,0-.61.35v3.67a1.38,1.38,0,0,0,.61,1.05l7.71,4.45a.37.37,0,0,0,.61-.35v-3.66a1.34,1.34,0,0,0-.61-1.06Z"/></g><path class="cls-36" d="M155.48,222.59l46.4-26.79a1.11,1.11,0,0,1,1.11.1,3.45,3.45,0,0,1,1.54,2.68,1.11,1.11,0,0,1-.44,1l-48.61,28.06Z"/><path class="cls-31" d="M155.48,224.39v-1L203,195.93a2.8,2.8,0,0,1,.69.61Z"/><g class="cls-1"><path class="cls-37" d="M281.57,221.74l0,25.49a3,3,0,0,0,1.77,2.48l30.74,17.75a9.35,9.35,0,0,0,8.48,0l30.75-17.88a3,3,0,0,0,1.73-2.44l0-25.49Z"/><path class="cls-38" d="M353.28,219.17l-30.75-17.75a9.36,9.36,0,0,0-8.47,0L283.31,219.3c-2.33,1.36-2.32,3.56,0,4.92L314.09,242a9.33,9.33,0,0,0,8.47,0l30.75-17.88C355.63,222.73,355.62,220.53,353.28,219.17Z"/></g><g class="cls-1"><path class="cls-39" d="M106.72,221.74l0,25.49a3,3,0,0,0,1.77,2.48l30.75,17.75a9.33,9.33,0,0,0,8.47,0l30.75-17.88a3,3,0,0,0,1.74-2.44l0-25.49Z"/><path class="cls-40" d="M178.43,219.17l-30.74-17.75a9.38,9.38,0,0,0-8.48,0L108.46,219.3c-2.33,1.36-2.32,3.56,0,4.92L139.24,242a9.33,9.33,0,0,0,8.47,0l30.75-17.88C180.79,222.73,180.78,220.53,178.43,219.17Z"/></g><path class="cls-41" d="M174,274.84a35.1,35.1,0,0,0-4.72-4.94c-1.95-1.74-2.62-2.54-3-4.79l-7,.21c-.06,1.2.11,4.46.48,4.95a92.53,92.53,0,0,0,6.11,7c1.65,1.67,3.95,3,6.25,2.52a3,3,0,0,0,2.38-1.89A3.64,3.64,0,0,0,174,274.84Z"/><path class="cls-42" d="M174.61,276.42a2.85,2.85,0,0,1-.08.51,3,3,0,0,1-2.38,1.89c-2.3.46-4.6-.85-6.25-2.52s-5.25-5.44-6.44-7.53a5.71,5.71,0,0,0,.33,1.92,92.53,92.53,0,0,0,6.11,7c1.65,1.66,3.95,3,6.25,2.52a3,3,0,0,0,2.38-1.89A5.78,5.78,0,0,0,174.61,276.42Z"/><path class="cls-43" d="M184,257.94a5.59,5.59,0,0,1,.15-1.83l-7.11-.32c0,1.9-1.35,3.06-1.35,4.72s1.69,2.34,10,5.41c4.27,1.57,5.91,1.59,7.22.85a2.15,2.15,0,0,0,1.12-2.68C193.35,261.48,184.67,259.14,184,257.94Z"/><path class="cls-42" d="M194.09,264.26a2.33,2.33,0,0,1-1.16,1.35c-1.31.74-3,.72-7.22-.85-7.42-2.74-9.47-3.41-10-4.91a9.21,9.21,0,0,0-.17,1c0,.88.51,1.25,2.27,2.12,1.51.73,4.08,1.56,7.92,3,4.27,1.57,5.85,1.53,7.16.79A2.14,2.14,0,0,0,194.09,264.26Z"/><path class="cls-44" d="M162.94,215l-2.32-3.88-21.24,4.41c1.12,11.53,1.06,13.73,2.52,16.43,1.77,3.28,2.91,3,13.94,15,0,0,2.19,12,3.15,19.32.95,3.17,8,2,8-.18,0-7.63-.9-23.21-1.17-24.46s-6.07-12.14-6.07-12.14c5.29,3.88,16.65,9.29,16.65,9.29a104,104,0,0,0,.07,18.45c0,2.14,7.44,2.7,7.71.45.3-2.47,1.49-12.11,2.28-21.87a5.12,5.12,0,0,0-1.83-4.37C180.54,228.1,168.59,219,162.94,215Z"/><path class="cls-45" d="M135,185.23c-3.71,3.71,2.65,17.42,3.2,22.64.63,5.92.89,15.92,1.19,17.84.46,3,11.58,4.09,16.45,1.3.5-.28-1-13.7-1-13.7a19.92,19.92,0,0,0,8.21,9.52c1.78-.29,4.61-3.43,4.18-5.31,0,0-3.36-3.27-4.78-5-2.88-3.6-2.27-14.61-1.25-24.33.89-5.48-.54-14.67-4.32-14.24C154.48,174.18,140.22,180,135,185.23Z"/><path class="cls-9" d="M140.51,183.32a4.2,4.2,0,0,1,1.88-3c3.69-2.33,6.28-3.51,8.39-3.81a2,2,0,0,1,.35,0,4.07,4.07,0,0,1,3,1.91,9.45,9.45,0,0,1,1.85,5c.66,7.81-1,13.78-2.39,24C149.22,201.76,139.28,190.4,140.51,183.32Z"/><path class="cls-46" d="M153.62,207.36s-.39-.72-1-1.86c-3.22-5.64-12.51-22.53-8.89-24.79s5.3-2.93,7.23-3.21c1.65-.24,2.65,3.71,2.94,7.09C154.31,190,153.62,198.36,153.62,207.36Z"/><path class="cls-47" d="M133.92,187.36c-.5,1.9-.18,21.73,1.29,25.54.77,2,15.39,13.88,17,15.47,1,1,5.23-3.07,4.09-4.3l-13.95-14.42c-.92-8.85.36-17.54-1.45-22-.55-1.38-2-3.73-3.68-3.77S134.28,186,133.92,187.36Z"/><path class="cls-48" d="M142.35,209.64a110.07,110.07,0,0,1-.39-11c0-1.84,0-3.69-.1-5.53-.06-.92-.14-1.84-.28-2.75-.08-.45-.15-.91-.27-1.36a12.57,12.57,0,0,0-.41-1.32c.11.45.27.88.36,1.34a12.3,12.3,0,0,1,.24,1.35c.13.91.19,1.83.23,2.75.08,1.84.07,3.68.06,5.52a105.14,105.14,0,0,0,.33,11.08.16.16,0,0,0,.06.12l7,7.17,3.51,3.58,3.56,3.54S142.35,209.64,142.35,209.64Z"/><path class="cls-46" d="M152.43,228.22c.38.25,1.53-.48,1.88-.78s2.91-2.74,1.51-3.24C154.67,223.79,151.19,227.45,152.43,228.22Z"/><path class="cls-49" d="M155,177.12c-.5,1.9-.16,21.73,1.3,25.54.78,2,10.38,12.91,11.41,14.9.64,1.23,5.92-1.35,5.19-2.87l-9.48-15.29c-.92-8.84.36-17.53-1.45-22-.56-1.38-2-3.73-3.69-3.77S155.39,175.76,155,177.12Z"/><path class="cls-50" d="M168.09,217.51c.28.35,1.61,0,2-.22s3.54-1.76,2.37-2.67S167.1,216.27,168.09,217.51Z"/><path class="cls-51" d="M145.83,184.9a5.13,5.13,0,0,0,3.37,1.82,3.59,3.59,0,0,0,3.35-1.62c.7-1.18,1.5-6.32,1.35-9.23a4.36,4.36,0,0,0-.43-1.93,4.25,4.25,0,0,0-1.86-1.62,6.8,6.8,0,0,0-3.39-.9,1.86,1.86,0,0,0-1.43.58,2.4,2.4,0,0,0-.37,1.05,45.06,45.06,0,0,1-1.91,6.84C143.85,181.77,144.53,183.42,145.83,184.9Z"/><polygon class="cls-52" points="153.72 201.05 151.74 187.35 150.56 187.86 150.67 202.19 153.63 207.42 153.72 201.05"/><path class="cls-52" d="M151.1,189.14c1.31-.37,1.82-3,1.33-3.52a2.91,2.91,0,0,0-2,0c-1,.47-1.87,1.11-1.71,1.7S150.33,189.37,151.1,189.14Z"/><path class="cls-53" d="M151,185.45l-4.23,3.69s-5.58-6.56-2.23-9.25a5,5,0,0,0,3.11,4.86A8.69,8.69,0,0,0,151,185.45Z"/><path class="cls-53" d="M150.85,185.47l3.79,1.26a12.62,12.62,0,0,0-2-5.7C153.42,185.07,150.85,185.47,150.85,185.47Z"/><path class="cls-54" d="M143.78,169.51c0,6.87-.78,4.2,3.81,10.77,1.89,2.71,5.26,4.69,6.62,4.91a2.32,2.32,0,0,0,2.15-.68c.58-.7,1.11-3.87,1.47-5.77a40.73,40.73,0,0,0,.59-6.52c.13-5.26-2.13-7.47-5.3-8.67S143.82,162.41,143.78,169.51Z"/><path class="cls-55" d="M147.83,176.38c.27.85,1.25.8,1.26.14a7.26,7.26,0,0,1,.59-3.25c1.61-1.85,5.27-3.36,8.29-3.68a.55.55,0,0,0,.44-.26c1.37-2.15.29-7.09-6.61-7.7-3.4-.3-6.14.61-7.76,2.87-1.9,2.62-1.52,6.14-.86,9.57a5.91,5.91,0,0,0,1.58,3.11,3.84,3.84,0,0,0,1.88,1.19,17.46,17.46,0,0,1-1.61-3.56c-.32-1.18.58-2,1.25-1.67C147.68,173.74,147.62,175.73,147.83,176.38Z"/><polygon class="cls-56" points="163.32 239.44 183.31 227.82 183.31 228.17 163.32 239.79 163.32 239.44"/><polygon class="cls-57" points="149.3 230.94 169.29 219.33 183.3 227.41 163.3 239.03 149.3 230.94"/><path class="cls-58" d="M168.33,226.31l-6.42,3.7a.53.53,0,0,1-.52,0l-4.25-2.45c-.15-.09-.15-.22,0-.3l6.42-3.71a.59.59,0,0,1,.52,0l4.25,2.46C168.47,226.09,168.47,226.22,168.33,226.31Z"/><path class="cls-59" d="M157.14,227.33l6.42-3.7a.59.59,0,0,1,.52,0l4.25,2.45c.06,0,.09.07.1.12a.16.16,0,0,0-.1-.19l-4.25-2.46a.59.59,0,0,0-.52,0l-6.42,3.71a.16.16,0,0,0-.1.19A.17.17,0,0,1,157.14,227.33Z"/><path class="cls-60" d="M162.37,235.17c0-.09,0-.13,0-.16l.87-.5a.32.32,0,0,1,.3,0l.73.42c.05,0,.07.07.06.1s0,.14-.06.17l-.86.5a.42.42,0,0,1-.31,0l-.73-.42A.11.11,0,0,1,162.37,235.17Zm-1.7-.36.73.42a.42.42,0,0,0,.31,0l.86-.5a.1.1,0,0,0,.06-.11c0-.09,0-.13-.06-.16l-.73-.42a.32.32,0,0,0-.3,0l-.87.5a.09.09,0,0,0,0,.1C160.61,234.74,160.62,234.78,160.67,234.81Zm2-2.88a.1.1,0,0,0-.06.11c0,.09,0,.13.06.16l.73.42a.32.32,0,0,0,.3,0l.87-.5a.1.1,0,0,0,0-.1c0-.1,0-.14,0-.17C163.51,231.24,163.87,231.25,162.68,231.93Zm11.95-2.68.86-.5a.1.1,0,0,0,.06-.11c0-.09,0-.13-.06-.16l-.73-.42a.32.32,0,0,0-.3,0l-.86.5s-.07.07-.06.1,0,.14.06.17l.72.42A.42.42,0,0,0,174.63,229.25Zm-9.78,5.64.87-.5a.11.11,0,0,0,.06-.1c0-.1,0-.14-.06-.16l-.73-.42a.32.32,0,0,0-.3,0l-.87.49a.1.1,0,0,0-.06.11c0,.09,0,.13.06.16l.73.42A.32.32,0,0,0,164.85,234.89Zm-2.7-2.65-.87.5a.11.11,0,0,0-.06.1c0,.1,0,.14.06.16l.73.42a.32.32,0,0,0,.3,0l.87-.5a.08.08,0,0,0,.06-.1c0-.09,0-.13-.06-.16l-.73-.42A.32.32,0,0,0,162.15,232.24Zm9.68-1.38.87-.5a.11.11,0,0,0,.06-.1c0-.1,0-.14-.06-.17l-.73-.42a.39.39,0,0,0-.3,0l-.87.5a.12.12,0,0,0-.06.11c0,.09,0,.13.06.16l.73.42A.32.32,0,0,0,171.83,230.86Zm-6.89-.23-.86.5c-.05,0-.07.06-.06.1s0,.13.06.16l.72.42a.34.34,0,0,0,.31,0l.86-.5c.05,0,.07-.06.06-.1s0-.13-.06-.16l-.72-.42A.34.34,0,0,0,164.94,230.63Zm5.5,1,.86-.5a.08.08,0,0,0,.06-.1c0-.09,0-.13-.06-.16l-.72-.42a.34.34,0,0,0-.31,0l-.86.5s-.07.07-.06.1,0,.14.06.16l.72.42A.34.34,0,0,0,170.44,231.66Zm-4.19,2.42.86-.5a.08.08,0,0,0,.06-.1c0-.09,0-.13-.06-.16l-.72-.42a.34.34,0,0,0-.31,0l-.86.5c-.05,0-.07.06-.06.1s0,.13.06.16l.72.42A.34.34,0,0,0,166.25,234.08Zm7-4,.87-.5s.06-.06.05-.1,0-.13-.05-.16l-.73-.42a.34.34,0,0,0-.31,0l-.86.5s-.07.06-.06.1,0,.13.06.16l.73.42A.32.32,0,0,0,173.23,230.05Zm-5.59,3.23.87-.5a.1.1,0,0,0,.06-.11c0-.09,0-.13-.06-.16l-.73-.42a.32.32,0,0,0-.3,0l-.87.5a.09.09,0,0,0-.05.1c0,.1,0,.14.05.17l.73.42A.39.39,0,0,0,167.64,233.28Zm1.4-.81.87-.5a.1.1,0,0,0,.05-.1c0-.1,0-.14-.05-.16l-.73-.42a.34.34,0,0,0-.31,0l-.86.5a.08.08,0,0,0-.06.1c0,.09,0,.13.06.16l.73.42A.32.32,0,0,0,169,232.47Zm-8.29.58-.86.5a.08.08,0,0,0-.06.1c0,.09,0,.13.06.16l.72.42a.34.34,0,0,0,.31,0l.86-.5c.05,0,.07-.07.06-.1s0-.14-.06-.16l-.72-.42A.34.34,0,0,0,160.75,233.05Zm5.14-.24.87-.5a.11.11,0,0,0,.06-.1c0-.1,0-.14-.06-.17l-.73-.42a.39.39,0,0,0-.3,0l-.87.5a.12.12,0,0,0-.06.11c0,.09,0,.13.06.16l.73.42A.32.32,0,0,0,165.89,232.81Zm4.19-2.42.87-.5a.11.11,0,0,0,.06-.1c0-.1,0-.14-.06-.17l-.73-.42a.39.39,0,0,0-.3,0l-.87.5a.12.12,0,0,0-.06.11c0,.09,0,.13.06.16l.73.42A.32.32,0,0,0,170.08,230.39Zm-1.39.8.86-.49a.1.1,0,0,0,.06-.11c0-.09,0-.13-.06-.16l-.73-.42a.32.32,0,0,0-.3,0l-.86.5s-.07.07-.06.1,0,.14.06.16l.72.42A.34.34,0,0,0,168.69,231.19Zm-1.4.81.87-.5s.06-.06.05-.1,0-.13-.05-.16l-.73-.42a.34.34,0,0,0-.31,0l-.86.5a.08.08,0,0,0-.06.1c0,.09,0,.13.06.16l.73.42A.32.32,0,0,0,167.29,232Zm10.45-5.75c0,.1,0,.13.06.16l.72.42a.34.34,0,0,0,.31,0l.86-.5a.08.08,0,0,0,.06-.1c0-.1,0-.13-.06-.16l-.73-.42a.32.32,0,0,0-.3,0l-.86.5C177.75,226.18,177.73,226.21,177.74,226.25Zm-13.24,7.36.86-.5a.08.08,0,0,0,.06-.1c0-.09,0-.13-.06-.16l-.72-.42a.34.34,0,0,0-.31,0l-.86.5c-.05,0-.07.07-.06.1s0,.14.06.16l.72.42A.34.34,0,0,0,164.5,233.61Zm-1.26-.37a.34.34,0,0,0-.31,0l-.86.5a.08.08,0,0,0-.06.1c0,.09,0,.13.06.16l.73.42a.32.32,0,0,0,.3,0l.87-.5a.09.09,0,0,0,.05-.1c0-.1,0-.14-.05-.16Zm4.49-4.22-.86.49a.1.1,0,0,0-.06.11c0,.09,0,.13.06.16l.73.42a.32.32,0,0,0,.3,0l.87-.5a.1.1,0,0,0,0-.1c0-.1,0-.14,0-.16L168,229A.34.34,0,0,0,167.73,229Zm1.4-.81-.87.5s-.06.06,0,.1,0,.13,0,.16l.73.42a.34.34,0,0,0,.31,0l.86-.5a.08.08,0,0,0,.06-.1c0-.09,0-.13-.06-.16l-.73-.42A.32.32,0,0,0,169.13,228.21Zm2.35,1.37.86-.5s.07-.06.06-.1,0-.13-.06-.16l-.72-.42a.34.34,0,0,0-.31,0l-.86.5s-.07.06-.06.1,0,.13.06.16l.73.42A.32.32,0,0,0,171.48,229.58Zm-.95-2.18-.87.5a.11.11,0,0,0-.06.1c0,.1,0,.14.06.17l.73.42a.32.32,0,0,0,.3,0l.87-.5a.12.12,0,0,0,.06-.11c0-.09,0-.13-.06-.16l-.73-.42A.32.32,0,0,0,170.53,227.4Zm-4.19,2.42-.87.5a.11.11,0,0,0-.06.1c0,.1,0,.14.06.17.72.41.84.53,1,.42l.87-.5a.12.12,0,0,0,.06-.11c0-.09,0-.13-.06-.16l-.73-.42A.32.32,0,0,0,166.34,229.82Zm6.54-1,1.31-.76a.1.1,0,0,0,.06-.11c0-.09,0-.13-.06-.16l-.73-.42a.32.32,0,0,0-.3,0l-1.32.76a.1.1,0,0,0-.05.1c0,.1,0,.14.05.17l.73.42A.42.42,0,0,0,172.88,228.78ZM173,227l-.72-.42a.34.34,0,0,0-.31,0l-.86.5a.08.08,0,0,0-.06.1c0,.09,0,.13.06.16l.73.42a.32.32,0,0,0,.3,0l.86-.5c.05,0,.07-.07.06-.1S173,227,173,227Zm-5,.68.73.42a.32.32,0,0,0,.3,0l.87-.5a.11.11,0,0,0,.06-.1c0-.1,0-.14-.06-.17l-.73-.42a.39.39,0,0,0-.3,0l-.87.5a.1.1,0,0,0-.06.11C167.84,227.63,167.86,227.67,167.91,227.7Zm-4.2,9-.73-.42a.34.34,0,0,0-.31,0l-.86.5c-.05,0-.07.07-.06.1s0,.14.06.16l.73.42a.32.32,0,0,0,.3,0l.87-.5a.09.09,0,0,0,0-.1C163.77,236.8,163.75,236.76,163.71,236.73Zm1.39-.81-.73-.42a.39.39,0,0,0-.3,0l-.86.5a.1.1,0,0,0-.06.11c0,.09,0,.13.06.16l.72.42a.34.34,0,0,0,.31,0l.86-.5c.05,0,.07-.07.06-.1S165.15,236,165.1,235.92Zm-2.12,0c0-.1,0-.13-.06-.16l-.72-.42a.34.34,0,0,0-.31,0l-1.31.76c-.05,0-.07.06-.06.1s0,.13.06.16l.72.42a.34.34,0,0,0,.31,0l1.31-.76C163,236,163,235.94,163,235.9Zm3.52-.78-.73-.42a.32.32,0,0,0-.3,0l-.87.5a.1.1,0,0,0-.06.1c0,.1,0,.13.06.16l.73.42a.32.32,0,0,0,.3,0l.87-.5a.1.1,0,0,0,.06-.1C166.56,235.18,166.55,235.15,166.5,235.12ZM158.69,234c0-.1,0-.14-.05-.17l-.73-.42a.34.34,0,0,0-.31,0l-.86.5a.1.1,0,0,0-.06.11c0,.09,0,.13.06.16l.73.42a.32.32,0,0,0,.3,0l.87-.5A.1.1,0,0,0,158.69,234Zm2.54,1.46c0-.1,0-.13-.06-.16l-.72-.42a.34.34,0,0,0-.31,0l-.86.5c-.05,0-.07.06-.06.1s0,.13.06.16l.72.42a.34.34,0,0,0,.31,0l.86-.5C161.22,235.5,161.24,235.47,161.23,235.43Zm-.79-1c0-.09,0-.13-.05-.16l-.73-.42a.32.32,0,0,0-.3,0l-1.32.76s-.07.07-.06.1,0,.14.06.17l.73.42a.39.39,0,0,0,.3,0l1.32-.76A.09.09,0,0,0,160.44,234.43ZM181,226.81l-.73-.42a.32.32,0,0,0-.3,0l-.87.5a.1.1,0,0,0-.06.1c0,.09,0,.13.06.16l.73.42a.32.32,0,0,0,.3,0l.87-.5a.11.11,0,0,0,.06-.1C181,226.87,181,226.83,181,226.81Zm-2.79,1.61-.73-.42a.34.34,0,0,0-.31,0l-.86.5c-.05,0-.07.06-.06.1s0,.13.06.16l.73.42a.32.32,0,0,0,.3,0l.87-.5s.06-.06,0-.1S178.22,228.45,178.18,228.42Zm1.39-.81-.73-.42a.32.32,0,0,0-.3,0l-.86.5c-.05,0-.07.07-.06.1s0,.14.06.17l.72.42a.42.42,0,0,0,.31,0l.86-.5a.1.1,0,0,0,.06-.11C179.64,227.68,179.62,227.64,179.57,227.61Zm-11.67,6.7-.73-.42a.34.34,0,0,0-.31,0l-.86.5c-.05,0-.07.07-.06.1s0,.14.06.17l.73.42a.39.39,0,0,0,.3,0l.87-.5a.11.11,0,0,0,0-.11C168,234.38,167.94,234.34,167.9,234.31Zm-9.76-1,.72.42a.34.34,0,0,0,.31,0l.86-.5c.05,0,.07-.06.06-.1s0-.13-.06-.16l-.72-.42a.34.34,0,0,0-.31,0l-.86.5a.08.08,0,0,0-.06.1C158.07,233.27,158.09,233.31,158.14,233.34Zm16.76-3.06-.73-.42a.32.32,0,0,0-.3,0l-6.47,3.74a.1.1,0,0,0-.06.1c0,.09,0,.13.06.16l.73.42a.32.32,0,0,0,.3,0l6.47-3.73a.1.1,0,0,0,.06-.11C175,230.35,175,230.31,174.9,230.28Zm1.82-1.06-.73-.42a.34.34,0,0,0-.31,0l-1.31.76c-.05,0-.07.06-.06.1s0,.13.06.16l.73.42a.32.32,0,0,0,.3,0l1.32-.76a.09.09,0,0,0,.05-.1C176.78,229.29,176.76,229.25,176.72,229.22Zm-.69-.77.87-.5a.12.12,0,0,0,.06-.11c0-.09,0-.13-.06-.16l-.73-.42a.32.32,0,0,0-.3,0l-.87.5a.11.11,0,0,0-.06.1c0,.1,0,.14.06.17l.73.42A.39.39,0,0,0,176,228.45ZM174,224.21l.73.42a.39.39,0,0,0,.3,0l.87-.5a.1.1,0,0,0,.06-.11c0-.09,0-.13-.06-.16l-.73-.42a.32.32,0,0,0-.3,0l-.87.5a.11.11,0,0,0-.06.1C173.91,224.14,173.92,224.18,174,224.21Zm-1.39.8.72.42a.34.34,0,0,0,.31,0l.86-.5c.05,0,.07-.06.06-.1s0-.13-.06-.16l-.72-.42a.34.34,0,0,0-.31,0l-.86.5c-.05,0-.07.06-.06.1S172.53,225,172.58,225Zm-3.27,1.88.72.42a.34.34,0,0,0,.31,0l1.31-.76s.07-.06.06-.1,0-.13-.06-.16l-.72-.42a.34.34,0,0,0-.31,0l-1.31.76a.08.08,0,0,0-.06.1C169.24,226.82,169.26,226.86,169.31,226.89Zm1.87-1.07.73.42a.32.32,0,0,0,.3,0l.87-.5a.09.09,0,0,0,0-.1c0-.1,0-.14,0-.17l-.73-.42a.42.42,0,0,0-.31,0l-.86.5a.1.1,0,0,0-.06.11C171.11,225.75,171.13,225.79,171.18,225.82Zm4-1c0,.09,0,.13.06.16l.72.42a.34.34,0,0,0,.31,0l.86-.5c.05,0,.07-.06.06-.1s0-.13-.06-.16l-.72-.42a.34.34,0,0,0-.31,0l-.86.5A.08.08,0,0,0,175.19,224.78Zm2.24,2.86.87-.5a.1.1,0,0,0,0-.1c0-.1,0-.14,0-.16l-.73-.42a.34.34,0,0,0-.31,0l-.86.49a.1.1,0,0,0-.06.11c0,.09,0,.13.06.16l.73.42A.32.32,0,0,0,177.43,227.64Zm-16.5,4.09.73.42a.32.32,0,0,0,.3,0l.87-.5a.1.1,0,0,0,0-.1c0-.1,0-.14,0-.17l-.73-.42a.42.42,0,0,0-.31,0l-.86.5a.1.1,0,0,0-.06.11C160.86,231.66,160.88,231.7,160.93,231.73Zm1.4-.81c1,.61.68.62,1.89-.08.05,0,.07-.06.06-.1s0-.13-.06-.16l-.73-.42a.32.32,0,0,0-.3,0l-.86.5c-.05,0-.07.06-.06.1S162.28,230.89,162.33,230.92Zm-2.8,1.61.73.42a.32.32,0,0,0,.3,0l.87-.49a.12.12,0,0,0,.06-.11c0-.09,0-.13-.06-.16l-.73-.42a.32.32,0,0,0-.3,0l-.87.5a.11.11,0,0,0-.06.1C159.47,232.47,159.48,232.51,159.53,232.53Zm4.19-2.41.73.42a.39.39,0,0,0,.3,0l.87-.5a.12.12,0,0,0,.06-.11c0-.09,0-.13-.06-.16l-.73-.42a.32.32,0,0,0-.3,0l-.87.5a.11.11,0,0,0-.06.1C163.66,230.05,163.67,230.09,163.72,230.12Zm2.79-1.62.73.42a.34.34,0,0,0,.31,0l.86-.5a.08.08,0,0,0,.06-.1c0-.09,0-.13-.06-.16l-.73-.42a.32.32,0,0,0-.3,0l-.87.5a.1.1,0,0,0,0,.1C166.45,228.44,166.47,228.48,166.51,228.5Zm-1.39.81.73.42a.32.32,0,0,0,.3,0l.86-.5c.05,0,.07-.07.06-.1s0-.14-.06-.16l-.72-.42a.34.34,0,0,0-.31,0l-.86.5a.08.08,0,0,0-.06.1C165.05,229.24,165.07,229.28,165.12,229.31ZM176,225.56,175,225a.42.42,0,0,0-.38,0l-2.19,1.26a.15.15,0,0,0-.08.13c0,.1,0,.14.08.18l1.91,1.1a.4.4,0,0,0,.37,0l3.64-2.1a.11.11,0,0,0,.07-.12c0-.1,0-.15-.07-.18l-.71-.41a.31.31,0,0,0-.25,0l-1.22.7A.28.28,0,0,1,176,225.56Z"/><path class="cls-61" d="M158.64,233.94l-.87.5a.32.32,0,0,1-.3,0l-.73-.42a.1.1,0,0,1,0-.18l.86-.5a.42.42,0,0,1,.31,0l.73.42A.1.1,0,0,1,158.64,233.94Zm1.39-1-.72-.42a.34.34,0,0,0-.31,0l-.86.5c-.09.05-.09.13,0,.17l.72.42a.34.34,0,0,0,.31,0l.86-.5C160.12,233.09,160.12,233,160,233Zm1.4-.81-.73-.42a.32.32,0,0,0-.3,0l-.87.5a.1.1,0,0,0,0,.18l.73.42a.32.32,0,0,0,.3,0l.87-.5A.1.1,0,0,0,161.43,232.15Zm1.4-.8-.73-.42a.34.34,0,0,0-.31,0l-.86.5c-.09,0-.09.12,0,.17l.73.42a.32.32,0,0,0,.3,0l.87-.5C162.91,231.47,162.91,231.39,162.83,231.35Zm1.39-.81-.73-.42a.32.32,0,0,0-.3,0l-.86.5c-.09,0-.09.13,0,.18l.72.42a.42.42,0,0,0,.31,0l.86-.5C164.31,230.67,164.31,230.59,164.22,230.54Zm1.4-.81-.73-.42a.39.39,0,0,0-.3,0l-.87.5a.1.1,0,0,0,0,.18l.73.42a.32.32,0,0,0,.3,0l.87-.5A.1.1,0,0,0,165.62,229.73Zm1.39-.8-.72-.42a.34.34,0,0,0-.31,0l-.86.5c-.09.05-.09.12,0,.17l.73.42a.32.32,0,0,0,.3,0l.86-.5C167.1,229.05,167.1,229,167,228.93Zm1.4-.81-.73-.42a.32.32,0,0,0-.3,0l-.87.5a.1.1,0,0,0,0,.18l.73.42a.42.42,0,0,0,.31,0l.86-.5A.1.1,0,0,0,168.41,228.12Zm1.4-.8-.73-.42a.32.32,0,0,0-.3,0l-.87.49a.1.1,0,0,0,0,.18l.73.42a.32.32,0,0,0,.3,0l.87-.5C169.89,227.44,169.89,227.36,169.81,227.32Zm1.84-1.07-.72-.42a.34.34,0,0,0-.31,0l-1.31.76c-.09,0-.09.13,0,.17l.72.42a.34.34,0,0,0,.31,0l1.31-.76C171.74,226.38,171.74,226.3,171.65,226.25Zm5.25,1.39-.73-.42a.32.32,0,0,0-.3,0l-.87.5a.1.1,0,0,0,0,.18l.73.42a.32.32,0,0,0,.3,0l.87-.5A.1.1,0,0,0,176.9,227.64Zm1.4-.8-.73-.42a.34.34,0,0,0-.31,0l-.86.5c-.09,0-.09.12,0,.17l.73.42a.32.32,0,0,0,.3,0l.87-.5C178.38,227,178.38,226.89,178.3,226.84Zm1.39-.81-.73-.42a.32.32,0,0,0-.3,0l-.86.5c-.09,0-.09.13,0,.18l.72.42a.42.42,0,0,0,.31,0l.86-.5C179.78,226.16,179.78,226.08,179.69,226Zm-1.51,2.35-.73-.42a.34.34,0,0,0-.31,0l-.86.5c-.09,0-.09.13,0,.18l.73.42a.39.39,0,0,0,.3,0l.87-.5A.1.1,0,0,0,178.18,228.38Zm1.39-.81-.73-.42a.39.39,0,0,0-.3,0l-.86.5c-.09,0-.09.13,0,.18l.72.42a.34.34,0,0,0,.31,0l.86-.5C179.66,227.7,179.66,227.62,179.57,227.57Zm1.4-.8-.73-.42a.32.32,0,0,0-.3,0l-.87.5c-.08.05-.08.12,0,.17l.73.42a.32.32,0,0,0,.3,0l.87-.5C181.05,226.89,181.05,226.82,181,226.77Zm-20.58,7.46-.73-.42a.39.39,0,0,0-.3,0l-1.32.76a.1.1,0,0,0,0,.18l.73.42a.32.32,0,0,0,.3,0l1.32-.76A.1.1,0,0,0,160.39,234.23Zm1.39-.8-.72-.42a.34.34,0,0,0-.31,0l-.86.5c-.09.05-.09.12,0,.17l.72.42a.34.34,0,0,0,.31,0l.86-.5C161.87,233.56,161.87,233.48,161.78,233.43Zm1.4-.81-.73-.42a.32.32,0,0,0-.3,0l-.87.5a.1.1,0,0,0,0,.18l.73.42a.32.32,0,0,0,.3,0l.87-.5A.1.1,0,0,0,163.18,232.62Zm1.4-.8-.73-.42a.34.34,0,0,0-.31,0l-.86.49a.1.1,0,0,0,0,.18l.73.42a.32.32,0,0,0,.3,0l.87-.5C164.66,231.94,164.66,231.86,164.58,231.82ZM166,231l-.72-.42a.34.34,0,0,0-.31,0l-.86.5c-.09,0-.09.13,0,.17l.72.42a.34.34,0,0,0,.31,0l.86-.49C166.06,231.14,166.06,231.06,166,231Zm1.4-.81-.73-.42a.32.32,0,0,0-.3,0l-.87.5a.1.1,0,0,0,0,.18l.73.42a.32.32,0,0,0,.3,0l.87-.5A.1.1,0,0,0,167.37,230.2Zm1.4-.8L168,229a.34.34,0,0,0-.31,0l-.86.5c-.09,0-.09.12,0,.17l.73.42a.32.32,0,0,0,.3,0l.87-.5C168.85,229.52,168.85,229.45,168.77,229.4Zm1.39-.81-.73-.42a.32.32,0,0,0-.3,0l-.86.5c-.09.05-.09.13,0,.18l.72.42a.42.42,0,0,0,.31,0l.86-.5C170.25,228.72,170.25,228.64,170.16,228.59Zm1.4-.81-.73-.42a.39.39,0,0,0-.3,0l-.87.5a.1.1,0,0,0,0,.18l.73.42a.32.32,0,0,0,.3,0l.87-.5A.1.1,0,0,0,171.56,227.78ZM173,227l-.72-.42a.34.34,0,0,0-.31,0l-.86.5c-.09.05-.09.12,0,.17l.73.42a.32.32,0,0,0,.3,0l.86-.5C173,227.11,173,227,173,227Zm-11.78,8.25-.72-.42a.34.34,0,0,0-.31,0l-.86.5c-.09.05-.09.13,0,.18l.72.42a.42.42,0,0,0,.31,0l.86-.5C161.26,235.36,161.26,235.28,161.17,235.23Zm1.4-.81-.73-.42a.39.39,0,0,0-.3,0l-.87.5a.1.1,0,0,0,0,.18l.73.42a.34.34,0,0,0,.31,0l.86-.5A.1.1,0,0,0,162.57,234.42Zm1.4-.8-.73-.42a.34.34,0,0,0-.31,0l-.86.5c-.08.05-.08.12,0,.17l.73.42a.32.32,0,0,0,.3,0l.87-.5C164.05,233.74,164.05,233.67,164,233.62Zm1.39-.81-.72-.42a.34.34,0,0,0-.31,0l-.86.5c-.09.05-.09.13,0,.18l.72.42a.42.42,0,0,0,.31,0l.86-.5C165.45,232.94,165.45,232.86,165.36,232.81Zm-1.65,3.88-.73-.42a.34.34,0,0,0-.31,0l-.86.5a.1.1,0,0,0,0,.18l.73.42a.32.32,0,0,0,.3,0l.87-.5A.1.1,0,0,0,163.71,236.69Zm1.39-.8-.73-.42a.32.32,0,0,0-.3,0l-.86.5c-.09,0-.09.12,0,.17l.72.42a.34.34,0,0,0,.31,0l.86-.5C165.19,236,165.19,235.93,165.1,235.89Zm1.4-.81-.73-.42a.32.32,0,0,0-.3,0l-.87.5c-.08.05-.08.13,0,.17l.73.42a.32.32,0,0,0,.3,0l.87-.49A.1.1,0,0,0,166.5,235.08Zm1.4-.81-.73-.42a.34.34,0,0,0-.31,0l-.86.5c-.09.05-.09.13,0,.18l.73.42a.32.32,0,0,0,.3,0l.87-.5A.1.1,0,0,0,167.9,234.27Zm8.82-5.09-.73-.42a.34.34,0,0,0-.31,0l-1.31.76c-.09,0-.09.13,0,.18l.73.42a.39.39,0,0,0,.3,0l1.32-.76A.1.1,0,0,0,176.72,229.18Zm-10,2.83-.73-.42a.32.32,0,0,0-.3,0l-.87.49a.1.1,0,0,0,0,.18l.73.42a.32.32,0,0,0,.3,0l.87-.5C166.84,232.13,166.84,232.05,166.76,232Zm1.4-.81-.73-.42a.34.34,0,0,0-.31,0l-.86.5c-.09.05-.09.13,0,.17l.73.42a.32.32,0,0,0,.3,0l.87-.5C168.24,231.33,168.24,231.25,168.16,231.2Zm1.39-.81-.73-.42a.32.32,0,0,0-.3,0l-.86.5c-.09.05-.09.13,0,.18l.72.42a.34.34,0,0,0,.31,0l.86-.5C169.64,230.52,169.64,230.44,169.55,230.39Zm1.4-.8-.73-.42a.32.32,0,0,0-.3,0l-.87.5c-.08,0-.08.12,0,.17l.73.42a.32.32,0,0,0,.3,0l.87-.5C171,229.71,171,229.63,171,229.59Zm1.39-.81-.72-.42a.34.34,0,0,0-.31,0l-.86.5c-.09,0-.09.13,0,.18l.73.42a.39.39,0,0,0,.3,0l.86-.5C172.43,228.91,172.43,228.83,172.34,228.78Zm1.85-1.07-.73-.42a.39.39,0,0,0-.3,0l-1.32.76a.1.1,0,0,0,0,.18l.73.42a.34.34,0,0,0,.31,0l1.31-.76C174.28,227.84,174.28,227.76,174.19,227.71Zm-11.27,8-.72-.42a.34.34,0,0,0-.31,0l-1.31.76c-.09.05-.09.13,0,.17l.72.42a.34.34,0,0,0,.31,0l1.31-.76C163,235.83,163,235.75,162.92,235.7Zm1.4-.81-.73-.42a.32.32,0,0,0-.3,0l-.87.5a.1.1,0,0,0,0,.18l.73.42a.34.34,0,0,0,.31,0l.86-.5A.1.1,0,0,0,164.32,234.89Zm1.4-.8-.73-.42a.32.32,0,0,0-.3,0l-.87.5c-.08,0-.08.12,0,.17l.73.42a.32.32,0,0,0,.3,0l.87-.5C165.8,234.21,165.8,234.14,165.72,234.09Zm1.39-.81-.72-.42a.34.34,0,0,0-.31,0l-.86.5c-.09,0-.09.13,0,.18l.72.42a.42.42,0,0,0,.31,0l.86-.5C167.2,233.41,167.2,233.33,167.11,233.28Zm1.4-.81-.73-.42a.39.39,0,0,0-.3,0l-.87.5a.1.1,0,0,0,0,.18l.73.42a.32.32,0,0,0,.3,0l.87-.5A.1.1,0,0,0,168.51,232.47Zm6.39-2.23-.73-.42a.32.32,0,0,0-.3,0l-6.47,3.74c-.08.05-.08.12,0,.17l.73.42a.32.32,0,0,0,.3,0l6.47-3.73A.1.1,0,0,0,174.9,230.24Zm-5,1.43-.73-.42a.34.34,0,0,0-.31,0l-.86.5c-.08.05-.08.12,0,.17l.73.42a.32.32,0,0,0,.3,0l.87-.5C170,231.8,170,231.72,169.91,231.67Zm1.39-.81-.72-.42a.34.34,0,0,0-.31,0l-.86.5c-.09.05-.09.13,0,.18l.72.42a.34.34,0,0,0,.31,0l.86-.5C171.39,231,171.39,230.91,171.3,230.86Zm1.4-.8-.73-.42a.32.32,0,0,0-.3,0l-.87.5c-.08,0-.08.12,0,.17l.73.42a.32.32,0,0,0,.3,0l.87-.5C172.78,230.18,172.78,230.1,172.7,230.06Zm1.4-.81-.73-.42a.34.34,0,0,0-.31,0l-.86.5c-.09,0-.09.13,0,.17l.73.42a.32.32,0,0,0,.3,0l.87-.49A.1.1,0,0,0,174.1,229.25Zm1.39-.81-.73-.42a.32.32,0,0,0-.3,0l-.86.5c-.09,0-.09.13,0,.18l.72.42a.34.34,0,0,0,.31,0l.86-.5C175.58,228.57,175.58,228.49,175.49,228.44Zm-2.41-3-.73-.42a.34.34,0,0,0-.31,0l-.86.5c-.08,0-.08.12,0,.17l.73.42a.32.32,0,0,0,.3,0l.87-.5C173.16,225.56,173.16,225.48,173.08,225.44Zm1.39-.81-.72-.42a.34.34,0,0,0-.31,0l-.86.5c-.09,0-.09.13,0,.17l.72.42a.34.34,0,0,0,.31,0l.86-.49C174.56,224.76,174.56,224.68,174.47,224.63Zm1.4-.81-.73-.42a.39.39,0,0,0-.3,0l-.87.5a.1.1,0,0,0,0,.18l.73.42a.32.32,0,0,0,.3,0l.87-.5A.1.1,0,0,0,175.87,223.82Zm1.27.74-.72-.42a.34.34,0,0,0-.31,0l-.86.5c-.09.05-.09.13,0,.17l.72.42a.34.34,0,0,0,.31,0l.86-.5C177.23,224.69,177.23,224.61,177.14,224.56Zm1.24.68-.71-.41a.28.28,0,0,0-.25,0l-1.22.69a.24.24,0,0,1-.22,0L175,225a.42.42,0,0,0-.38,0l-2.19,1.26c-.11.06-.11.16,0,.22l1.91,1.1a.35.35,0,0,0,.37,0l3.64-2.09A.12.12,0,0,0,178.38,225.24Z"/><polygon class="cls-62" points="169.53 228.43 189.52 216.81 183.49 227.92 163.49 239.53 169.53 228.43"/><polygon class="cls-57" points="169.24 228.1 189.24 216.49 189.52 216.81 169.53 228.43 169.24 228.1"/><polygon class="cls-63" points="169.24 228.1 169.53 228.43 163.49 239.53 163.32 239.44 163.32 239.79 149.3 231.69 149.3 230.94 163.3 239.03 169.24 228.1"/><path class="cls-54" d="M159.19,225.83c1.69,1.6,2.15,2.1,2.3,4.41a2.84,2.84,0,0,1-.14,1.39c-.34.71-1.16,1-1.83,1.41a2.28,2.28,0,0,1-2,.49,1.09,1.09,0,0,1-.53-.28,1.8,1.8,0,0,1-.27-.47c-1.16-2.78-1-1.17-3.78-4.77a.58.58,0,0,1-.14-.24.63.63,0,0,1,.06-.33A5.21,5.21,0,0,1,155,225a1.37,1.37,0,0,1,.78-.22A9.56,9.56,0,0,1,159.19,225.83Z"/><path class="cls-54" d="M170.24,223.78c.4,1,2,.85,2.34.79.71-.13,2.15-.7,2.21-1.28a10.09,10.09,0,0,0-.76-5.5,9.25,9.25,0,0,0-1.78-2.48c-.93-.81-3.9,1.1-3.76,1.89,0,.22.59,1.63.87,2.84A22.36,22.36,0,0,0,170.24,223.78Z"/><path class="cls-64" d="M295.1,264.58c-.29.9-6.26,6.67-6.76,7.07-3.69,2.91-8,.19-5.62-3,.68-.9,6.75-7.82,7.12-8.19a4.19,4.19,0,0,1,1.19-.91,3.72,3.72,0,0,1,3.12.44C296,260.77,295.3,264,295.1,264.58Z"/><path class="cls-42" d="M282.07,270.07c.64,1.75,3.57,2.51,6.18.45.5-.39,6.47-6.17,6.75-7.06a7.7,7.7,0,0,0,.29-1.91,7.14,7.14,0,0,1-.19,3c-.29.9-6.26,6.67-6.76,7.07C285.22,274.1,281.66,272.55,282.07,270.07Z"/><path class="cls-54" d="M290.26,264.44c-1.24.3-2-.08-1.82-1.16a13.24,13.24,0,0,1,1.36-2.4l.35-1.83a16.24,16.24,0,0,1,4.4-.43s.1,1.21.1,2.44C294.65,261.81,293.4,263.66,290.26,264.44Z"/><path class="cls-64" d="M302.73,270.15c-.38.85-7,5.94-7.49,6.27-4,2.49-8-.69-5.26-3.63.78-.83,7.57-7,8-7.36a4.28,4.28,0,0,1,1.29-.78c1.13-.35,2.09.22,3.05.78C304,266.45,303,269.54,302.73,270.15Z"/><path class="cls-42" d="M289.17,274.16c.45,1.82,3.28,2.89,6.1,1.13.54-.33,7.11-5.42,7.49-6.27a7.5,7.5,0,0,0,.5-1.87,7,7,0,0,1-.53,3c-.38.85-7,5.93-7.49,6.27C291.87,278.52,288.49,276.58,289.17,274.16Z"/><path class="cls-54" d="M296.5,269.05a.85.85,0,0,1-.48-1.23c.55-.91,1.94-2,2.26-2.69a5.14,5.14,0,0,0,.23-1.23c.25-1.57,1.79-1.36,2.89-.76a2.42,2.42,0,0,1,1.3,1.92,2.88,2.88,0,0,1-.8,2.45C300.26,268.84,298,269.51,296.5,269.05Z"/><path class="cls-65" d="M315,174.18a12.89,12.89,0,0,1-.18,2.32c-.77,5.43-3.93,17.53-3.93,17.53l-7.79,16.88c-.71,1.2-4.06-.13-3.52-1.86,1.14-3.76,5.33-18.85,5.33-18.85s1.82-16.45,2.17-17.54c.52-1.63,1.93-4.66,4.6-4.29S315,172,315,174.18Z"/><path class="cls-66" d="M306.44,185.33c1.76-4.26,7.1-7.25,5.08-16.64,3.12-.83,19.36,8.41,20.75,11.68,0,0-5,11-6.12,18-.57,3.49.49,7,1.45,10.4.24,5.71-17.67-.78-17.81-3.82s-.1-7.76-.19-9.85c-.05-1.25-1.58-3.47-2.23-4.47C306,188.59,305.75,187,306.44,185.33Z"/><path class="cls-67" d="M330.3,220c-.7,4.69-2.63,6.15-6.22,9.24-15,13-16.4,11.85-16.05,13.61a20.21,20.21,0,0,1-.88,11.65c-1.71,4.23-3.18,5.86-3.83,10.15-.51,1.88-6,1-5.54-.56,1.73-7.44,1.68-11.78,1.65-19.71,0-2.43-.06-5.21.89-7.45,1.31-3.11,9.07-9.45,11-12.29,0,0-11.26,6-17.05,12,3,8.23-.42,13.45.73,23.08.26,2.35-5.42,2.61-5.35.63.1-3-3.17-17-4.47-23.17a9.18,9.18,0,0,1,1.58-7.32,27.72,27.72,0,0,1,1.89-2.27c4.36-4.84,16-16,18.4-18.25a28.32,28.32,0,0,0,2.71-5.73c.2,2.92,7.6,7.14,17.46,3.77C329.69,211.71,330.85,216.36,330.3,220Z"/><path class="cls-68" d="M333.52,184.85a13.87,13.87,0,0,1-.18,2.32c-.77,5.44-3.93,17.53-3.93,17.53l-16.22,12.08c-1.2.69-3.54-1.86-2.75-2.79,3.62-3.31,13-13.12,13-13.12s1.82-16.45,2.17-17.54c.52-1.62,1.93-4.66,4.6-4.29S333.45,182.69,333.52,184.85Z"/><path class="cls-69" d="M310.43,214c2.25-2.09,4.4-4.3,6.56-6.49l6.42-6.63,1-8.77.53-4.39.29-2.19c.1-.73.19-1.46.35-2.18-.13.72-.2,1.46-.29,2.19l-.24,2.2-.5,4.38-.95,8.79a.16.16,0,0,1-.05.11c-2.13,2.22-4.3,4.41-6.46,6.59s-4.35,4.37-6.66,6.41C310.42,214,310.43,214,310.43,214Z"/><path class="cls-70" d="M322.54,151.87a6.62,6.62,0,0,1,6.76,5.6,4.42,4.42,0,0,1-2.47,4.4c-2,1.11-2.3,0-3.81-.47-1.2-.37-5.78-4.67-5.42-5.48A5.64,5.64,0,0,1,322.54,151.87Z"/><path class="cls-51" d="M324,175.82c-.38,3.11-8.06,6.26-8.3,1.67a21.27,21.27,0,0,0-.52-4.22c-.7-2.62-.32-5.2,3.4-5.86,4.62-.83,3.4,1.92,3.6,3.73C322.56,174.2,324.13,175,324,175.82Z"/><path class="cls-54" d="M326.2,158.9a4.58,4.58,0,0,1,.62,3.09c-.39,4.89-6.67,12.48-11.25,14.43-3.8,1.61-4.09-3.92-4.38-8.79-.06-1.07,0-2.61,0-3.9a8.91,8.91,0,0,1,4.08-7.25,6.7,6.7,0,0,1,6.47-.62A21.13,21.13,0,0,1,326.2,158.9Z"/><path class="cls-70" d="M327.2,160.92c1,4.94-4.24,9.19-4.24,9.19-2,.87-.81-4.9-3.36-4.77-6.61.33-7.49-2.46-7.79-3-.18-.35-.45.14-.45.14C311.73,153.59,325.31,151.45,327.2,160.92Z"/><path class="cls-54" d="M324.87,168.67c-.41,1-2.92,3.05-3.49,3s-.08-2.15.1-2.82C322.15,166.42,325.7,166.61,324.87,168.67Z"/><polygon class="cls-63" points="305.14 230.24 285.68 218.93 285.68 219.27 305.14 230.58 305.14 230.24"/><polygon class="cls-57" points="318.79 221.97 299.33 210.66 285.7 218.53 305.16 229.84 318.79 221.97"/><path class="cls-58" d="M300.27,217.46l6.25,3.6a.5.5,0,0,0,.5,0l4.14-2.39a.15.15,0,0,0,0-.29l-6.24-3.61a.57.57,0,0,0-.51,0l-4.14,2.39C300.13,217.25,300.13,217.38,300.27,217.46Z"/><path class="cls-59" d="M311.16,218.46l-6.24-3.61a.57.57,0,0,0-.51,0l-4.14,2.39a.21.21,0,0,0-.1.11.16.16,0,0,1,.1-.19l4.14-2.39a.57.57,0,0,1,.51,0l6.24,3.61c.09.05.12.12.1.18S311.22,218.49,311.16,218.46Z"/><path class="cls-60" d="M306,226.19l-.71.41a.39.39,0,0,1-.3,0l-.84-.49c-.05,0-.06-.06-.05-.1s0-.13.05-.16l.71-.41a.39.39,0,0,1,.3,0l.84.49c.05,0,.06.06.05.1S306.07,226.16,306,226.19Zm1.76-.56c0-.09,0-.13-.06-.16l-.84-.48a.32.32,0,0,0-.3,0l-.7.41a.08.08,0,0,0-.06.1c0,.09,0,.13.06.15l.84.49a.3.3,0,0,0,.29,0l.71-.41S307.79,225.67,307.78,225.63Zm-3.86-2.77a.09.09,0,0,0-.05.1c0,.09,0,.13.05.15l.85.49a.3.3,0,0,0,.29,0l.71-.41a.1.1,0,0,0,.06-.1c0-.09,0-.13-.06-.16C304.61,222.27,305,222.26,303.92,222.86Zm-9.48-2.54.7-.41c.05,0,.07-.07.06-.1s0-.13-.06-.16l-.84-.48a.3.3,0,0,0-.29,0l-.71.4c-.05,0-.07.07-.06.1s0,.13.06.16l.84.49A.39.39,0,0,0,294.44,220.32Zm9.51,5.49.71-.41a.1.1,0,0,0,.06-.1c0-.09,0-.13-.06-.16l-.84-.48a.32.32,0,0,0-.3,0l-.71.41a.09.09,0,0,0-.05.1c0,.09,0,.13.05.15l.84.49A.32.32,0,0,0,304,225.81Zm2-2.58-.71.41a.1.1,0,0,0,0,.1c0,.09,0,.13,0,.16l.84.48a.32.32,0,0,0,.3,0l.71-.4a.11.11,0,0,0,.06-.1c0-.1,0-.13-.06-.16l-.84-.49A.39.39,0,0,0,306,223.23Zm-8.84-1.34.71-.41c.05,0,.07-.07.06-.1s0-.13-.06-.16l-.84-.49a.39.39,0,0,0-.3,0l-.7.41s-.07.07-.06.1,0,.13.06.16l.84.49A.37.37,0,0,0,297.15,221.89Zm6.12-.23-.71.41a.1.1,0,0,0-.05.1c0,.09,0,.13.05.16l.85.49a.37.37,0,0,0,.29,0l.71-.41a.11.11,0,0,0,.06-.1c0-.1,0-.13-.06-.16l-.84-.49A.39.39,0,0,0,303.27,221.66Zm-4.76,1,.71-.41a.08.08,0,0,0,.06-.1c0-.09,0-.13-.06-.15l-.84-.49a.32.32,0,0,0-.3,0l-.7.41c-.05,0-.07.06-.06.1s0,.13.06.16l.84.48A.3.3,0,0,0,298.51,222.67Zm4.08,2.36.71-.41a.11.11,0,0,0,.06-.1c0-.1,0-.13-.06-.16l-.84-.49a.39.39,0,0,0-.3,0l-.71.41a.1.1,0,0,0-.05.1c0,.1,0,.13.05.16l.85.49A.37.37,0,0,0,302.59,225Zm-6.79-3.93.7-.41a.08.08,0,0,0,.06-.1c0-.09,0-.13-.06-.15l-.84-.49a.3.3,0,0,0-.29,0l-.71.41c-.05,0-.07.06-.06.1s0,.13.06.16l.84.48A.32.32,0,0,0,295.8,221.1Zm5.43,3.14.71-.41a.1.1,0,0,0,.06-.1c0-.09,0-.13-.06-.15l-.84-.49a.32.32,0,0,0-.3,0l-.71.41s-.06.06,0,.1,0,.13,0,.16l.85.48A.3.3,0,0,0,301.23,224.24Zm-1.36-.78.71-.41c.05,0,.07-.07.06-.1s0-.13-.06-.16l-.84-.49a.39.39,0,0,0-.3,0l-.7.41c-.05,0-.07.07-.06.1s0,.13.06.16l.84.49A.37.37,0,0,0,299.87,223.46Zm7.48.56-.71.41a.08.08,0,0,0-.05.1c0,.09,0,.13.05.15l.84.49a.32.32,0,0,0,.3,0l.71-.41c.05,0,.06-.06.05-.1s0-.13-.05-.16l-.84-.48A.32.32,0,0,0,307.35,224Zm-4.41-.24.7-.4c.05,0,.07-.07.06-.1s0-.13-.06-.16l-.84-.49a.3.3,0,0,0-.29,0l-.71.41c-.05,0-.07.07-.06.1s0,.13.06.16l.84.48A.32.32,0,0,0,302.94,223.78Zm-4.08-2.35.71-.41s.06-.06.05-.1,0-.13-.05-.16l-.85-.48a.3.3,0,0,0-.29,0l-.71.41a.1.1,0,0,0-.06.1c0,.09,0,.13.06.15l.84.49A.32.32,0,0,0,298.86,221.43Zm1.36.78.71-.4a.1.1,0,0,0,.05-.1c0-.1,0-.13-.05-.16l-.85-.49a.37.37,0,0,0-.29,0l-.71.41a.11.11,0,0,0-.06.1c0,.09,0,.13.06.16l.84.48A.32.32,0,0,0,300.22,222.21Zm1.36.79.71-.41s.06-.06,0-.1,0-.13,0-.16l-.85-.48a.3.3,0,0,0-.29,0l-.71.41a.1.1,0,0,0-.06.1c0,.09,0,.13.06.15l.84.49A.32.32,0,0,0,301.58,223Zm-10.52-5.7-.85-.48a.3.3,0,0,0-.29,0l-.71.41a.1.1,0,0,0-.06.1c0,.09,0,.13.06.15l.84.49a.32.32,0,0,0,.3,0l.71-.41s.06-.06.05-.1S291.1,217.33,291.06,217.3Zm13.24,7.27.7-.41c.05,0,.07-.06.06-.1s0-.13-.06-.16l-.84-.48a.3.3,0,0,0-.29,0l-.71.41a.08.08,0,0,0-.06.1c0,.09,0,.13.06.15l.84.49A.32.32,0,0,0,304.3,224.57Zm.22,0s-.07.06-.06.1,0,.13.06.16l.84.48a.32.32,0,0,0,.3,0l.7-.4c.05,0,.07-.07.06-.1s0-.13-.06-.16l-.84-.49a.3.3,0,0,0-.29,0Zm-4-4.52-.7.41c-.05,0-.07.07-.06.1s0,.13.06.16l.84.49a.37.37,0,0,0,.29,0l.71-.41c.05,0,.07-.07.06-.1s0-.13-.06-.16l-.84-.49A.39.39,0,0,0,300.55,220.09Zm-1.36-.78-.7.41a.08.08,0,0,0-.06.1c0,.09,0,.13.06.15l.84.49a.3.3,0,0,0,.29,0l.71-.41c.05,0,.07-.06.06-.1s0-.13-.06-.16l-.84-.48A.32.32,0,0,0,299.19,219.31Zm-1.69,1.34.71-.41a.1.1,0,0,0,.05-.1c0-.1,0-.13-.05-.16l-.84-.49a.39.39,0,0,0-.3,0l-.71.41a.11.11,0,0,0-.06.1c0,.09,0,.13.06.16l.84.49A.39.39,0,0,0,297.5,220.65Zm.34-2.13-.71.41c-.05,0-.07.07-.06.1s0,.13.06.16l.84.49a.39.39,0,0,0,.3,0l.7-.41s.07-.07.06-.1,0-.13-.06-.16l-.84-.49A.37.37,0,0,0,297.84,218.52Zm4.07,2.36-.7.41a.08.08,0,0,0-.06.1c0,.09,0,.13.06.15l.84.49c.19.11.31,0,1-.41.05,0,.07-.06.06-.1s0-.13-.06-.16l-.84-.48A.32.32,0,0,0,301.91,220.88Zm-5.77-1,.71-.41s.06-.06,0-.1,0-.13,0-.16l-1.28-.73a.32.32,0,0,0-.3,0l-.71.4a.1.1,0,0,0-.05.1c0,.1,0,.13.05.16l1.28.74A.32.32,0,0,0,296.14,219.86Zm-.43-1.61c0,.09,0,.13.06.16l.84.48a.32.32,0,0,0,.3,0l.7-.41a.08.08,0,0,0,.06-.1c0-.09,0-.13-.06-.15l-.84-.49a.3.3,0,0,0-.29,0l-.71.41S295.7,218.21,295.71,218.25Zm5,.46c0-.09,0-.13-.05-.16l-.84-.48a.32.32,0,0,0-.3,0l-.71.41a.1.1,0,0,0-.06.1c0,.09,0,.13.06.15l.84.49a.32.32,0,0,0,.3,0l.71-.41S300.74,218.75,300.73,218.71Zm4,9c0,.1,0,.13.06.16l.84.49a.39.39,0,0,0,.3,0l.71-.41a.1.1,0,0,0,.05-.1c0-.1,0-.13-.05-.16l-.85-.49a.37.37,0,0,0-.29,0l-.71.41A.11.11,0,0,0,304.71,227.7Zm-1.36-.78c0,.09,0,.13.06.16l.84.48a.32.32,0,0,0,.3,0l.71-.41a.09.09,0,0,0,.05-.1c0-.09,0-.13-.05-.15l-.84-.49a.32.32,0,0,0-.3,0l-.71.41A.1.1,0,0,0,303.35,226.92Zm2.18,0,1.28.74a.32.32,0,0,0,.3,0l.71-.41a.09.09,0,0,0,.05-.1c0-.09,0-.13-.05-.15l-1.28-.74a.32.32,0,0,0-.3,0l-.71.41a.1.1,0,0,0-.06.1C305.47,226.83,305.48,226.87,305.53,226.89Zm-3.53-.76c0,.1,0,.13.05.16l.84.49a.39.39,0,0,0,.3,0l.71-.41a.09.09,0,0,0,.05-.1c0-.09,0-.13-.05-.16l-.84-.49a.39.39,0,0,0-.3,0l-.71.41A.09.09,0,0,0,302,226.13Zm7.71-1.12.84.49a.37.37,0,0,0,.29,0l.71-.41c.05,0,.07-.07.06-.1s0-.13-.06-.16l-.84-.48a.32.32,0,0,0-.3,0l-.7.4s-.07.07-.06.1S309.66,225,309.71,225Zm-2.47,1.43.84.48a.3.3,0,0,0,.29,0l.71-.41a.08.08,0,0,0,.06-.1c0-.09,0-.13-.06-.15l-.84-.49a.32.32,0,0,0-.3,0l-.7.41c-.05,0-.07.06-.06.1S307.19,226.41,307.24,226.44Zm.76-1,1.28.74a.39.39,0,0,0,.3,0l.71-.41a.1.1,0,0,0,0-.1c0-.09,0-.13,0-.16L309,224.8a.32.32,0,0,0-.3,0l-.71.41a.11.11,0,0,0-.06.1C307.94,225.4,308,225.44,308,225.47ZM287.91,218c0,.1,0,.13.06.16l.84.49a.39.39,0,0,0,.3,0l.7-.41c.05,0,.07-.07.06-.1s0-.13-.06-.16l-.84-.49a.37.37,0,0,0-.29,0l-.71.41C287.92,218,287.9,218,287.91,218Zm2.72,1.57c0,.1,0,.13.06.16l.84.49a.37.37,0,0,0,.29,0l.71-.41c.05,0,.07-.07.06-.1s0-.13-.06-.16l-.84-.49a.39.39,0,0,0-.3,0l-.7.41C290.64,219.54,290.62,219.58,290.63,219.61Zm-1.36-.78c0,.09,0,.13.06.15l.84.49a.3.3,0,0,0,.29,0l.71-.41c.05,0,.07-.06.06-.1s0-.13-.06-.16l-.84-.48a.32.32,0,0,0-.3,0l-.7.41A.08.08,0,0,0,289.27,218.83Zm11.37,6.52c0,.09,0,.13.05.16l.84.48a.32.32,0,0,0,.3,0l.71-.41a.1.1,0,0,0,.06-.1c0-.09,0-.13-.06-.15l-.84-.49a.32.32,0,0,0-.3,0l-.71.41S300.63,225.31,300.64,225.35Zm9.61-1.15c0-.09,0-.13-.06-.15l-.84-.49a.32.32,0,0,0-.3,0l-.7.41c-.05,0-.07.06-.06.1s0,.13.06.16l.84.48a.3.3,0,0,0,.29,0l.71-.41A.08.08,0,0,0,310.25,224.2Zm-16.43-2.77c0,.09,0,.13.05.15l6.3,3.64a.32.32,0,0,0,.3,0l.7-.41c.05,0,.07-.07.06-.1s0-.13-.06-.16l-6.29-3.63a.32.32,0,0,0-.3,0l-.71.41A.09.09,0,0,0,293.82,221.43Zm-1.77-1c0,.09,0,.13.06.16l1.28.74a.3.3,0,0,0,.29,0l.71-.41c.05,0,.07-.06.06-.1s0-.13-.06-.16l-1.28-.74a.37.37,0,0,0-.29,0l-.71.41C292.06,220.32,292,220.36,292.05,220.39Zm1-.85.7-.41c.05,0,.07-.06.06-.1s0-.13-.06-.16l-.84-.48a.3.3,0,0,0-.29,0l-.71.4c-.05,0-.07.07-.06.1s0,.13.06.16l.84.49A.32.32,0,0,0,293.07,219.54Zm1.76-4.23c0-.09,0-.13-.05-.16l-.85-.48a.3.3,0,0,0-.29,0l-.71.41a.1.1,0,0,0-.06.1c0,.09,0,.13.06.15l.84.49a.32.32,0,0,0,.3,0l.71-.41S294.84,215.35,294.83,215.31Zm1.36.79c0-.1,0-.13-.05-.16l-.85-.49a.37.37,0,0,0-.29,0l-.71.41a.11.11,0,0,0-.06.1c0,.09,0,.13.06.16l.84.49a.39.39,0,0,0,.3,0l.71-.41A.1.1,0,0,0,296.19,216.1Zm3.18,1.83c0-.1,0-.13-.05-.16L298,217a.32.32,0,0,0-.3,0l-.71.41s-.06.06,0,.1,0,.13,0,.16l1.28.73a.32.32,0,0,0,.3,0l.71-.4A.09.09,0,0,0,299.37,217.93Zm-1.82-1.05c0-.09,0-.13-.05-.16l-.85-.48a.3.3,0,0,0-.29,0l-.71.41a.1.1,0,0,0-.06.1c0,.09,0,.13.06.15l.84.49a.32.32,0,0,0,.3,0l.71-.41S297.56,216.92,297.55,216.88Zm-4-1-.84-.49a.39.39,0,0,0-.3,0l-.71.41a.11.11,0,0,0-.06.1c0,.1,0,.13.06.16l.84.49a.39.39,0,0,0,.3,0l.71-.41a.1.1,0,0,0,0-.1C293.6,215.93,293.58,215.9,293.54,215.87Zm-1.83,2.88.71-.41a.09.09,0,0,0,.05-.1c0-.09,0-.13-.05-.15l-.85-.49a.3.3,0,0,0-.29,0l-.71.41a.1.1,0,0,0-.06.1c0,.09,0,.13.06.16l.84.48A.32.32,0,0,0,291.71,218.75Zm15.82,3.88c0-.09,0-.13-.06-.15l-.84-.49a.3.3,0,0,0-.29,0l-.71.41c-.05,0-.07.06-.06.1s0,.13.06.16l.84.48a.32.32,0,0,0,.3,0l.7-.41A.08.08,0,0,0,307.53,222.63Zm-1.36-.78c0-.09,0-.13-.06-.16l-.84-.48a.3.3,0,0,0-.29,0l-.71.4s-.07.07-.06.1,0,.13.06.16c1.18.68.82.67,1.84.08C306.16,221.92,306.18,221.89,306.17,221.85Zm2.72,1.57c0-.09,0-.13-.06-.16l-.84-.48a.3.3,0,0,0-.29,0l-.71.4c-.05,0-.07.07-.06.1s0,.13.06.16l.84.49a.32.32,0,0,0,.3,0l.7-.41C308.88,223.49,308.9,223.45,308.89,223.42Zm-4.08-2.36c0-.09,0-.13-.05-.15l-.85-.49a.3.3,0,0,0-.29,0l-.71.41a.1.1,0,0,0-.06.1c0,.09,0,.13.06.16l.84.48a.32.32,0,0,0,.3,0l.71-.41A.09.09,0,0,0,304.81,221.06Zm-2.72-1.56c0-.1,0-.13,0-.16l-.85-.49a.3.3,0,0,0-.29,0l-.71.41a.1.1,0,0,0-.06.1c0,.09,0,.13.06.16l.84.48a.32.32,0,0,0,.3,0l.71-.4A.1.1,0,0,0,302.09,219.5Zm1.36.78c0-.09,0-.13-.05-.16l-.85-.48a.3.3,0,0,0-.29,0l-.71.41a.1.1,0,0,0-.06.1c0,.09,0,.13.06.15l.84.49a.32.32,0,0,0,.3,0l.71-.41S303.46,220.32,303.45,220.28Zm-10.84-3.55-1.19-.68a.25.25,0,0,0-.24,0l-.69.4c-.06,0-.08.08-.07.12s0,.15.07.18L294,218.8a.45.45,0,0,0,.36,0l1.86-1.08a.11.11,0,0,0,.07-.12c0-.1,0-.14-.07-.18l-2.13-1.23a.4.4,0,0,0-.37,0l-.93.54A.26.26,0,0,1,292.61,216.73Z"/><path class="cls-71" d="M309.71,224.72l.7-.41a.32.32,0,0,1,.3,0l.84.48c.08.05.08.13,0,.17l-.71.41a.3.3,0,0,1-.29,0l-.84-.48C309.62,224.84,309.62,224.76,309.71,224.72Zm-1.36-.62.84.49a.3.3,0,0,0,.29,0l.71-.41c.08-.05.08-.12,0-.17l-.84-.49a.39.39,0,0,0-.3,0l-.7.41C308.26,224,308.26,224.06,308.35,224.1Zm-1.36-.78.84.48a.32.32,0,0,0,.3,0l.7-.4a.1.1,0,0,0,0-.18l-.84-.48a.3.3,0,0,0-.29,0l-.71.41C306.91,223.19,306.91,223.27,307,223.32Zm-1.36-.79.84.49a.32.32,0,0,0,.3,0l.7-.41c.09-.05.09-.12,0-.17l-.84-.49a.37.37,0,0,0-.29,0l-.71.41C305.55,222.41,305.55,222.49,305.63,222.53Zm-1.36-.78.84.48a.32.32,0,0,0,.3,0l.7-.4c.09-.05.09-.13,0-.18l-.84-.48a.3.3,0,0,0-.29,0l-.71.41C304.19,221.62,304.19,221.7,304.27,221.75Zm-1.36-.79.84.49a.32.32,0,0,0,.3,0l.71-.41c.08,0,.08-.12,0-.17l-.85-.49a.37.37,0,0,0-.29,0l-.71.41C302.83,220.84,302.83,220.92,302.91,221Zm-1.36-.78.84.49a.39.39,0,0,0,.3,0l.71-.41c.08,0,.08-.13,0-.17l-.85-.49a.3.3,0,0,0-.29,0l-.71.41C301.47,220.06,301.47,220.13,301.55,220.18Zm-1.36-.79.84.49a.32.32,0,0,0,.3,0l.71-.41c.08-.05.08-.12,0-.17l-.85-.49a.37.37,0,0,0-.29,0l-.71.41C300.11,219.27,300.11,219.35,300.19,219.39Zm-1.36-.78.84.49a.39.39,0,0,0,.3,0l.71-.41c.08-.05.08-.13,0-.17l-.84-.49a.32.32,0,0,0-.3,0l-.71.41C298.75,218.49,298.75,218.56,298.83,218.61Zm-1.8-1,1.28.74a.32.32,0,0,0,.3,0l.71-.41c.08-.05.08-.12,0-.17L298,217a.32.32,0,0,0-.3,0l-.71.41C297,217.45,297,217.52,297,217.57Zm-5.1,1.36.84.48a.32.32,0,0,0,.3,0l.7-.4c.09,0,.09-.13,0-.18l-.84-.48a.3.3,0,0,0-.29,0l-.71.41C291.85,218.8,291.85,218.88,291.93,218.93Zm-1.36-.79.84.49a.32.32,0,0,0,.3,0l.71-.41c.08-.05.08-.12,0-.17l-.85-.49a.37.37,0,0,0-.29,0l-.71.41C290.49,218,290.49,218.1,290.57,218.14Zm-1.36-.78.84.49a.39.39,0,0,0,.3,0l.71-.41c.08-.05.08-.13,0-.17l-.85-.49a.3.3,0,0,0-.29,0l-.71.41C289.13,217.24,289.13,217.31,289.21,217.36Zm1.48,2.29.84.48a.3.3,0,0,0,.29,0l.71-.41c.08,0,.08-.12,0-.17l-.84-.48a.32.32,0,0,0-.3,0l-.7.4C290.6,219.52,290.6,219.6,290.69,219.65Zm-1.36-.79.84.49a.37.37,0,0,0,.29,0l.71-.41c.08-.05.08-.13,0-.17l-.84-.49a.32.32,0,0,0-.3,0l-.7.41C289.24,218.74,289.24,218.81,289.33,218.86Zm-1.36-.78.84.48a.32.32,0,0,0,.3,0l.7-.41c.09,0,.09-.12,0-.17l-.84-.48a.3.3,0,0,0-.29,0l-.71.41C287.89,218,287.89,218,288,218.08Zm20,7.26,1.28.74a.32.32,0,0,0,.3,0l.71-.41c.08,0,.08-.12,0-.17l-1.28-.74a.39.39,0,0,0-.3,0l-.71.41C307.92,225.22,307.92,225.3,308,225.34Zm-1.36-.78.84.49a.39.39,0,0,0,.3,0l.71-.41c.08,0,.08-.13,0-.17l-.84-.49a.32.32,0,0,0-.3,0l-.71.41C306.56,224.44,306.56,224.51,306.64,224.56Zm-1.36-.79.84.49a.32.32,0,0,0,.3,0l.71-.41c.08,0,.08-.12,0-.17l-.84-.48a.32.32,0,0,0-.3,0l-.71.4C305.2,223.65,305.2,223.73,305.28,223.77Zm-1.36-.78.85.49a.37.37,0,0,0,.29,0l.71-.41c.08,0,.08-.13,0-.17l-.84-.49a.32.32,0,0,0-.3,0l-.71.41C303.84,222.87,303.84,222.94,303.92,223Zm-1.36-.78.85.48a.3.3,0,0,0,.29,0l.71-.41c.08,0,.08-.12,0-.17l-.84-.48a.32.32,0,0,0-.3,0l-.71.4A.1.1,0,0,0,302.56,222.21Zm-1.35-.79.84.49a.37.37,0,0,0,.29,0l.71-.41c.08-.05.08-.13,0-.17l-.84-.49a.32.32,0,0,0-.3,0l-.7.41C301.12,221.3,301.12,221.37,301.21,221.42Zm-1.36-.78.84.48a.3.3,0,0,0,.29,0l.71-.41c.08,0,.08-.12,0-.17l-.84-.48a.32.32,0,0,0-.3,0l-.7.4C299.76,220.51,299.76,220.59,299.85,220.64Zm-1.36-.79.84.49a.37.37,0,0,0,.29,0l.71-.41c.08-.05.08-.13,0-.17l-.84-.49a.32.32,0,0,0-.3,0l-.7.41C298.4,219.73,298.4,219.8,298.49,219.85Zm-1.36-.78.84.48a.32.32,0,0,0,.3,0l.7-.41c.09,0,.09-.12,0-.17l-.84-.48a.3.3,0,0,0-.29,0l-.71.41C297.05,218.94,297.05,219,297.13,219.07Zm-1.36-.79.84.49a.39.39,0,0,0,.3,0l.7-.41c.09-.05.09-.13,0-.17l-.84-.49a.3.3,0,0,0-.29,0l-.71.41C295.69,218.16,295.69,218.23,295.77,218.28Zm11.47,8,.84.49a.3.3,0,0,0,.29,0l.71-.41c.08,0,.08-.12,0-.17l-.84-.49a.39.39,0,0,0-.3,0l-.7.41C307.15,226.19,307.15,226.27,307.24,226.31Zm-1.36-.78.84.48a.3.3,0,0,0,.29,0l.71-.4c.08-.05.08-.13,0-.17l-.84-.49a.32.32,0,0,0-.3,0l-.7.41C305.79,225.41,305.79,225.48,305.88,225.53Zm-1.36-.79.84.49a.32.32,0,0,0,.3,0l.7-.41c.08,0,.08-.12,0-.17l-.84-.49a.37.37,0,0,0-.29,0l-.71.41C304.44,224.62,304.44,224.7,304.52,224.74Zm-1.36-.78.84.49a.39.39,0,0,0,.3,0l.7-.41c.09,0,.09-.13,0-.17l-.84-.49a.3.3,0,0,0-.29,0l-.71.41C303.08,223.84,303.08,223.91,303.16,224Zm1.61,3.78.84.48a.32.32,0,0,0,.3,0l.71-.41c.08,0,.08-.12,0-.17l-.85-.48a.3.3,0,0,0-.29,0l-.71.41C304.69,227.61,304.69,227.69,304.77,227.74Zm-1.36-.79.84.49a.32.32,0,0,0,.3,0l.71-.41c.08-.05.08-.12,0-.17l-.84-.49a.39.39,0,0,0-.3,0l-.71.41C303.33,226.83,303.33,226.9,303.41,227Zm-1.36-.78.84.48a.32.32,0,0,0,.3,0l.71-.41c.08,0,.08-.12,0-.17l-.84-.48a.32.32,0,0,0-.3,0l-.71.41C302,226,302,226.12,302.05,226.17Zm-1.36-.79.84.49a.32.32,0,0,0,.3,0l.71-.41c.08-.05.08-.12,0-.17l-.84-.49a.39.39,0,0,0-.3,0l-.71.41C300.61,225.26,300.61,225.34,300.69,225.38Zm-8.58-4.95,1.28.73a.3.3,0,0,0,.29,0l.71-.4a.1.1,0,0,0,0-.18l-1.28-.73a.3.3,0,0,0-.29,0l-.71.4A.1.1,0,0,0,292.11,220.43Zm9.69,2.74.84.49a.32.32,0,0,0,.3,0l.7-.41c.09-.05.09-.12,0-.17l-.84-.49a.37.37,0,0,0-.29,0l-.71.41C301.72,223.05,301.72,223.13,301.8,223.17Zm-1.36-.78.84.49a.39.39,0,0,0,.3,0l.71-.41c.08-.05.08-.13,0-.17l-.85-.49a.3.3,0,0,0-.29,0l-.71.41C300.36,222.27,300.36,222.34,300.44,222.39Zm-1.36-.78.84.48a.32.32,0,0,0,.3,0l.71-.41c.08,0,.08-.12,0-.17l-.85-.48a.3.3,0,0,0-.29,0l-.71.4A.1.1,0,0,0,299.08,221.61Zm-1.36-.79.84.49a.39.39,0,0,0,.3,0l.71-.41c.08-.05.08-.13,0-.17l-.85-.49a.3.3,0,0,0-.29,0l-.71.41C297.64,220.7,297.64,220.77,297.72,220.82Zm-1.36-.78.84.48a.32.32,0,0,0,.3,0l.71-.41c.08,0,.08-.12,0-.17l-.84-.48a.32.32,0,0,0-.3,0l-.71.4A.1.1,0,0,0,296.36,220Zm-1.8-1,1.28.74a.39.39,0,0,0,.3,0l.71-.41c.08-.05.08-.13,0-.17l-1.28-.74a.32.32,0,0,0-.3,0l-.71.41C294.48,218.87,294.48,219,294.56,219Zm11,7.77,1.28.74a.32.32,0,0,0,.3,0l.71-.41c.08,0,.08-.12,0-.17l-1.28-.74a.32.32,0,0,0-.3,0l-.71.41C305.45,226.65,305.45,226.72,305.53,226.77Zm-1.36-.78.84.48a.32.32,0,0,0,.3,0l.71-.41c.08,0,.08-.12,0-.17l-.84-.48a.32.32,0,0,0-.3,0l-.71.4A.1.1,0,0,0,304.17,226Zm-1.36-.79.84.49a.39.39,0,0,0,.3,0l.71-.41c.08-.05.08-.13,0-.17l-.84-.49a.32.32,0,0,0-.3,0l-.71.41C302.73,225.08,302.73,225.15,302.81,225.2Zm-1.36-.78.85.48a.3.3,0,0,0,.29,0l.71-.41c.08,0,.08-.12,0-.17l-.84-.48a.32.32,0,0,0-.3,0l-.71.41C301.37,224.29,301.37,224.37,301.45,224.42Zm-1.36-.79.85.49a.37.37,0,0,0,.29,0l.71-.41c.08-.05.08-.13,0-.17l-.84-.49a.32.32,0,0,0-.3,0l-.71.41C300,223.51,300,223.58,300.09,223.63Zm-6.22-2.17,6.3,3.63a.32.32,0,0,0,.3,0l.7-.4c.09-.05.09-.13,0-.18l-6.29-3.63a.32.32,0,0,0-.3,0l-.71.41C293.79,221.34,293.79,221.41,293.87,221.46Zm4.87,1.39.84.48a.3.3,0,0,0,.29,0l.71-.41c.08,0,.08-.12,0-.17l-.84-.48a.32.32,0,0,0-.3,0l-.7.41C298.65,222.72,298.65,222.8,298.74,222.85Zm-1.36-.79.84.49a.3.3,0,0,0,.29,0l.71-.41c.08,0,.08-.12,0-.17l-.84-.49a.32.32,0,0,0-.3,0l-.7.41C297.29,221.94,297.29,222,297.38,222.06Zm-1.36-.78.84.48a.3.3,0,0,0,.29,0l.71-.41c.08,0,.08-.12,0-.17l-.84-.48a.32.32,0,0,0-.3,0l-.7.41C295.93,221.15,295.93,221.23,296,221.28Zm-1.36-.79.84.49a.32.32,0,0,0,.3,0l.7-.41c.09,0,.09-.12,0-.17l-.84-.49a.37.37,0,0,0-.29,0l-.71.41C294.58,220.37,294.58,220.45,294.66,220.49Zm-1.36-.78.84.48a.32.32,0,0,0,.3,0l.7-.41c.09,0,.09-.12,0-.17l-.84-.48a.3.3,0,0,0-.29,0l-.71.41C293.22,219.58,293.22,219.66,293.3,219.71Zm2.35-2.93.84.49a.39.39,0,0,0,.3,0l.71-.41c.08-.05.08-.13,0-.17l-.85-.49a.3.3,0,0,0-.29,0l-.71.41C295.57,216.66,295.57,216.73,295.65,216.78Zm-1.36-.78.84.48a.32.32,0,0,0,.3,0l.71-.41c.08,0,.08-.12,0-.17l-.85-.48a.3.3,0,0,0-.29,0l-.71.4A.1.1,0,0,0,294.29,216Zm-1.36-.79.84.49a.39.39,0,0,0,.3,0l.71-.41c.08,0,.08-.13,0-.17l-.85-.49a.3.3,0,0,0-.29,0l-.71.41C292.85,215.09,292.85,215.16,292.93,215.21Zm-1.24.72.84.48a.32.32,0,0,0,.3,0l.71-.41c.08,0,.08-.12,0-.17l-.84-.48a.32.32,0,0,0-.3,0l-.71.41C291.61,215.8,291.61,215.88,291.69,215.93Zm-1.2.7,3.54,2a.38.38,0,0,0,.36,0l1.86-1.07c.1-.06.1-.16,0-.21l-2.13-1.24a.48.48,0,0,0-.37,0l-.93.54a.2.2,0,0,1-.21,0l-1.19-.67a.25.25,0,0,0-.24,0l-.69.4C290.39,216.47,290.39,216.57,290.49,216.63Z"/><polygon class="cls-63" points="299.1 219.52 279.64 208.21 285.52 219.02 304.98 230.33 299.1 219.52"/><polygon class="cls-57" points="299.38 219.21 279.92 207.9 279.64 208.21 299.1 219.52 299.38 219.21"/><polygon class="cls-62" points="299.38 219.21 299.1 219.52 304.98 230.33 305.14 230.24 305.14 230.58 318.8 222.7 318.79 221.97 305.16 229.84 299.38 219.21"/><path class="cls-54" d="M307.3,216.22c-.59.59-2.39,4.37-1.83,5.37a4.32,4.32,0,0,0,2.95,1,.82.82,0,0,0,.41-.22,1.1,1.1,0,0,0,.2-.37,14.3,14.3,0,0,1,1.4-2.32s1.33-1.44,2.47-2.9a.41.41,0,0,0,.11-.19.4.4,0,0,0-.05-.26,4,4,0,0,0-1.66-1.9,1.11,1.11,0,0,0-.61-.17A8,8,0,0,0,307.3,216.22Z"/><path class="cls-54" d="M301.42,217.11c-.32.95-1.83,1-2.1.92-.59-.13-1.55-.57-1.55-1.13,0-2.37,0-3.68.5-5.21a8.31,8.31,0,0,1,1.51-2.19c.78-.79,3.23.43,3.11,1.2,0,.22-.49,1.59-.72,2.77A24.21,24.21,0,0,1,301.42,217.11Z"/><path class="cls-72" d="M355.46,80.77a4,4,0,0,0-4,.4l2.92,1.69c1.56-.9,3-1,4-.39Z"/><polygon class="cls-73" points="315.83 139.44 312.92 137.74 312.95 148.56 315.86 150.25 315.83 139.44"/><path class="cls-74" d="M309.74,136.47l-.06-21.33-2.91-1.69.06,21.33a3.94,3.94,0,0,0,1.64,3.61l2.92,1.69A4,4,0,0,1,309.74,136.47Z"/><polygon class="cls-75" points="351.45 81.17 312.38 103.72 315.3 105.42 354.37 82.86 351.45 81.17"/><path class="cls-76" d="M312.38,103.72a12.38,12.38,0,0,0-5.61,9.73l2.91,1.69a12.36,12.36,0,0,1,5.62-9.72Z"/><path class="cls-77" d="M354.37,82.86c3.1-1.79,5.64-.36,5.65,3.22l.06,21.33a12.41,12.41,0,0,1-5.62,9.73L321.83,136l-6,14.27,0-10.81-.44.25c-3.1,1.8-5.64.35-5.65-3.22l-.06-21.33a12.36,12.36,0,0,1,5.62-9.72Z"/><polygon class="cls-78" points="128.97 168.68 126.05 166.99 132.08 174.35 134.99 176.04 128.97 168.68"/><path class="cls-79" d="M136.39,128.61a4,4,0,0,0-4,.39l2.92,1.69a4,4,0,0,1,4-.39Z"/><path class="cls-80" d="M90.68,184.31,90.62,163l-2.91-1.7.06,21.34a3.94,3.94,0,0,0,1.64,3.61l2.91,1.69A4,4,0,0,1,90.68,184.31Z"/><polygon class="cls-81" points="132.39 129 93.32 151.56 96.24 153.25 135.31 130.69 132.39 129"/><path class="cls-82" d="M93.32,151.56a12.38,12.38,0,0,0-5.61,9.72l2.91,1.7a12.36,12.36,0,0,1,5.62-9.73Z"/><path class="cls-83" d="M135.31,130.69c3.1-1.79,5.63-.34,5.64,3.23l.06,21.34A12.36,12.36,0,0,1,135.4,165l-.44.25L135,176l-6-7.36L96.33,187.52c-3.11,1.8-5.64.36-5.65-3.21L90.62,163a12.36,12.36,0,0,1,5.62-9.73Z"/></g></g></svg>