<svg xmlns="http://www.w3.org/2000/svg" xmlns:xlink="http://www.w3.org/1999/xlink" viewBox="0 0 179.48 179.7"><defs><style>.cls-1{fill:#b8c9ff;}.cls-12,.cls-2{opacity:0.67;}.cls-3{fill:#cad6f8;}.cls-13,.cls-4{opacity:0.9;}.cls-5{fill:url(#linear-gradient);}.cls-6{fill:url(#linear-gradient-2);}.cls-7{opacity:0.11;}.cls-8,.cls-9{fill:#fff;}.cls-11,.cls-9{opacity:0.5;}.cls-10,.cls-13,.cls-29{fill:#38c5ea;}.cls-12{fill:#d3defc;}.cls-14{fill:#160a5b;}.cls-15{fill:#24126a;}.cls-16{fill:#4846a5;}.cls-17{fill:#fcd1c5;}.cls-18{fill:#453c9e;}.cls-19{fill:#f0f6ff;}.cls-20{fill:#02212f;}.cls-21{fill:#c4ccd6;}.cls-22{fill:#e2b1a6;}.cls-23{fill:#1b2b3a;}.cls-24{fill:url(#linear-gradient-3);}.cls-25{fill:url(#linear-gradient-4);}.cls-26{fill:#722318;}.cls-27{fill:url(#linear-gradient-5);}.cls-28{fill:url(#linear-gradient-6);}.cls-29{opacity:0.7;}.cls-30{fill:url(#linear-gradient-7);}.cls-31{fill:url(#linear-gradient-8);}</style><linearGradient id="linear-gradient" x1="37.88" y1="111.19" x2="142.04" y2="111.19" gradientUnits="userSpaceOnUse"><stop offset="0" stop-color="#dce4fb"/><stop offset="1" stop-color="#b8c9ff"/></linearGradient><linearGradient id="linear-gradient-2" x1="37.73" y1="122.61" x2="142.19" y2="122.61" xlink:href="#linear-gradient"/><linearGradient id="linear-gradient-3" x1="73.59" y1="77.01" x2="88.28" y2="77.01" xlink:href="#linear-gradient"/><linearGradient id="linear-gradient-4" x1="72.69" y1="59.18" x2="75.2" y2="59.18" xlink:href="#linear-gradient"/><linearGradient id="linear-gradient-5" x1="79.16" y1="70.63" x2="88.54" y2="70.63" xlink:href="#linear-gradient"/><linearGradient id="linear-gradient-6" x1="25.77" y1="68.24" x2="50.49" y2="68.24" xlink:href="#linear-gradient"/><linearGradient id="linear-gradient-7" x1="22.57" y1="139.93" x2="47.29" y2="139.93" xlink:href="#linear-gradient"/><linearGradient id="linear-gradient-8" x1="120.72" y1="134.19" x2="160.77" y2="134.19" xlink:href="#linear-gradient"/></defs><g id="MLchain"><path class="cls-1" d="M90.31,88.38,129,110.71,90.32,133.05,51.63,110.71Z"/><g class="cls-2"><polygon class="cls-3" points="89.96 156.42 11.62 111.19 89.96 65.96 168.31 111.19 89.96 156.42"/></g><g class="cls-2"><polygon class="cls-3" points="89.96 149.41 23.77 111.19 89.96 72.97 156.16 111.19 89.96 149.41"/></g><g class="cls-4"><polygon class="cls-5" points="89.96 141.26 37.88 111.19 89.96 81.13 142.04 111.19 89.96 141.26"/></g><path class="cls-6" d="M90,141.41a.12.12,0,0,1-.08,0L37.81,111.33a.16.16,0,0,1-.08-.14.13.13,0,0,1,.08-.13l12.5-7.22a.15.15,0,0,1,.21,0,.16.16,0,0,1-.05.22L38.2,111.19,90,141.08l51.77-29.89L130,104.43a.15.15,0,0,1,.15-.27l12,6.9a.16.16,0,0,1,.07.13.17.17,0,0,1-.07.14L90,141.39A.11.11,0,0,1,90,141.41Z"/><g class="cls-7"><path class="cls-8" d="M87.16,90.84a6.27,6.27,0,0,1,6.11,0l36.4,20.48a.84.84,0,0,1,0,1.46L93,133.48a5.5,5.5,0,0,1-5.39,0L50.82,112.8a.84.84,0,0,1,0-1.46Z"/></g><g class="cls-7"><path class="cls-8" d="M87.16,84.85a6.24,6.24,0,0,1,6.11,0l36.4,20.48a.84.84,0,0,1,0,1.46L93,127.49a5.5,5.5,0,0,1-5.39,0L50.82,106.81a.84.84,0,0,1,0-1.46Z"/></g><g class="cls-7"><path class="cls-8" d="M87.16,78.86a6.22,6.22,0,0,1,6.11,0l36.4,20.48a.84.84,0,0,1,0,1.46L93,121.5a5.5,5.5,0,0,1-5.39,0L50.82,100.82a.84.84,0,0,1,0-1.46Z"/></g><g class="cls-7"><path class="cls-8" d="M87.16,72.87a6.22,6.22,0,0,1,6.11,0l36.4,20.48a.84.84,0,0,1,0,1.46L93,115.51a5.5,5.5,0,0,1-5.39,0L50.82,94.82a.83.83,0,0,1,0-1.45Z"/></g><path class="cls-9" d="M50.82,93.37l36.34-20.5a6.22,6.22,0,0,1,6.11,0l36.4,20.48a.85.85,0,0,1,.43.73v18a.85.85,0,0,1-.43.73L93,133.48a5.5,5.5,0,0,1-5.39,0L50.82,112.8a.83.83,0,0,1-.43-.73v-18h0A.82.82,0,0,1,50.82,93.37Z"/><g class="cls-7"><path class="cls-8" d="M87.16,72.87a6.22,6.22,0,0,1,6.11,0l36.4,20.48a.84.84,0,0,1,0,1.46L93,115.51a5.5,5.5,0,0,1-5.39,0L50.82,94.82a.83.83,0,0,1,0-1.45Z"/></g><path class="cls-8" d="M50.82,94l36.76,20.68a5.5,5.5,0,0,0,5.39,0L129.67,94a.89.89,0,0,0,.32-.32.85.85,0,0,1-.32,1.15L93,115.51a5.5,5.5,0,0,1-5.39,0L50.82,94.82a.83.83,0,0,1-.32-1.14A.82.82,0,0,0,50.82,94Z"/><polygon class="cls-10" points="125.82 100.33 124.91 100.84 124.91 100.25 125.82 99.74 125.82 100.33"/><polygon class="cls-10" points="125.82 104.33 124.91 104.84 124.91 101.38 125.82 100.87 125.82 104.33"/><polygon class="cls-10" points="125.82 106.25 124.91 106.76 124.91 105.38 125.82 104.87 125.82 106.25"/><polygon class="cls-10" points="125.82 108.23 124.91 108.75 124.91 107.37 125.82 106.86 125.82 108.23"/><polygon class="cls-10" points="127.17 101.48 126.26 101.99 126.26 100.62 127.17 100.11 127.17 101.48"/><polygon class="cls-10" points="127.17 104.11 126.26 104.62 126.26 102.6 127.17 102.09 127.17 104.11"/><polygon class="cls-10" points="127.17 106.53 126.26 107.04 126.26 105.31 127.17 104.8 127.17 106.53"/><polygon class="cls-10" points="125.82 110.22 124.91 110.73 124.91 109.35 125.82 108.84 125.82 110.22"/><polygon class="cls-10" points="127.17 99.57 126.26 100.08 126.26 99.48 127.17 98.97 127.17 99.57"/><polygon class="cls-10" points="126.49 111.77 124.91 112.66 124.91 112.08 126.49 111.19 126.49 111.77"/><g class="cls-11"><ellipse class="cls-10" cx="90.12" cy="93.66" rx="23.33" ry="13.47"/><ellipse class="cls-12" cx="90.12" cy="93.66" rx="19.27" ry="11.13"/><ellipse class="cls-13" cx="90.12" cy="93.66" rx="15.25" ry="8.8"/></g><path class="cls-14" d="M89.57,84.9l0,.19L89.47,85a2.54,2.54,0,0,0,0,1.42,12.17,12.17,0,0,0,1.12,1.72c.52.67,1.35,2,1.56,2.31a5.3,5.3,0,0,0,3.06,1.45c1.57.16,2-.72,1.84-1.19a10.51,10.51,0,0,0-1.9-2.77,14,14,0,0,1-1.63-2.36Z"/><path class="cls-14" d="M94.3,80.73a7.47,7.47,0,0,0,.06,1.39c.11.4,2.42.53,3.24.64a11.62,11.62,0,0,1,2.71.89c.45.21,3.45.52,3.82-.56s-1.51-2-2.78-2.28-3.35-.9-3.35-.9Z"/><path class="cls-15" d="M86.28,61.18a27.21,27.21,0,0,0,.86,6.59A25,25,0,0,1,88,74.26s-1,4.33-.11,7.28a10.94,10.94,0,0,0,1.6,3.78,2.64,2.64,0,0,0,4,.23,34.84,34.84,0,0,1-1.43-7.28,21.46,21.46,0,0,0,1.52-4.49s.32,3.36.52,4.72a5.72,5.72,0,0,0,.35,2.8c.54.81,3,1,3.78-.36s-.65-.71-.22-7.16A14.47,14.47,0,0,0,100.59,66c.32-5.07.29-7.07,0-8.06s-5.3-4.54-5.3-4.54l-2.83,3.52Z"/><path class="cls-8" d="M93.69,75A11.61,11.61,0,0,0,94,73.62s.33,3.36.52,4.72a5.85,5.85,0,0,0,.35,2.8,2.56,2.56,0,0,0,2.47.56,2.68,2.68,0,0,1-2.94-.4,5.72,5.72,0,0,1-.35-2.8C94,77.68,93.81,76.13,93.69,75Z"/><path class="cls-8" d="M86.28,61.18l6.18-4.29,2.83-3.52.21.16-2.57,3.2L86.75,61a27,27,0,0,0,.87,6.59,25.69,25.69,0,0,1,.83,6.5s-1,4.32-.12,7.28a10.87,10.87,0,0,0,1.61,3.77,2.78,2.78,0,0,0,2.62,1,2.69,2.69,0,0,1-3.1-.84,10.94,10.94,0,0,1-1.6-3.78c-.87-3,.11-7.28.11-7.28a25,25,0,0,0-.83-6.49A27.21,27.21,0,0,1,86.28,61.18Z"/><path class="cls-14" d="M97.42,66.83c.82-1,1.28-3.95,1.28-3.95a14.39,14.39,0,0,1-2.19,3.25,6,6,0,0,0-1.85,3.15c-.17,1-1.09,4.5-1.09,4.5s.32,3.36.52,4.72a5.72,5.72,0,0,0,.35,2.8,1.26,1.26,0,0,0,.53.41s-.13-4.45,0-6.32S96.61,67.78,97.42,66.83Z"/><path class="cls-16" d="M78.76,40.76s-2.16,4.12-2.38,4.44-4.25,5.35-4.64,8.25a2.09,2.09,0,0,0,1.08,2.13c1.39,1,8.41,5.35,8.84,5.41a4.17,4.17,0,0,0,3.09-3.86s-5.5-2.51-6.69-3.76a37.72,37.72,0,0,1,3.19-4.55,2.41,2.41,0,0,0,.5-1.3,7,7,0,0,0-2.35-6.19Z"/><path class="cls-15" d="M94.9,31.1s3.34,1.21,4.48.8,3.94-.77,5.87-1.82,10.32-3.16,11.56-3.24c0,0,0,.05-.19.13a1.57,1.57,0,0,0-1.3,1.12,3,3,0,0,0,.42,2.18c.15.08.23-.26,1-.62a3.21,3.21,0,0,1,1.3-.34l.3.38.19.27a1.88,1.88,0,0,1-1.47,1.24c-1.08.08-8,2.9-8.42,3s-6.24,2.57-7.32,3a14,14,0,0,0-1.94.87s-3.39-2.2-3.49-2.2S94.9,31.1,94.9,31.1Z"/><path class="cls-17" d="M125.36,24.73c-.26-.27-3.41.61-3.41.61a3.51,3.51,0,0,0-1-.15,12.6,12.6,0,0,0-2.43,1.32,7.06,7.06,0,0,1-1.66.33c-2.79.56-1.23,3.55-1.11,3.51s.87-.54,1.11-.66a2.5,2.5,0,0,1,.67-.19,7.47,7.47,0,0,0,1.08.46,2.86,2.86,0,0,0,1.74-.28,4.39,4.39,0,0,1,1.72-.33l.26.13a.54.54,0,0,0,.32.38c.25.07.53-.52.63-.58a2.74,2.74,0,0,0,.54-.41,10.32,10.32,0,0,0,.2-2.14c-.06-.31-.76-.66-.76-.66s1.75-.57,1.89-.6S125.62,25,125.36,24.73Zm-3.1,3.18a4.21,4.21,0,0,0-.6.16,1.72,1.72,0,0,1-.75.2s-.32-.52-.08-.69.44-.34.44-.34.43-.08.43-.13a.44.44,0,0,0,.49,0,.83.83,0,0,0,.63.37A3.47,3.47,0,0,1,122.26,27.91Z"/><path class="cls-14" d="M100.59,57.91c-.3-1-5.3-4.54-5.3-4.54l-1.41,1.75-1.2,4.57-6.4,2h0s.34,3.13,5.55,2.77,5.82-4.31,5.82-4.31.58,1.29,3.15,1.63A13.76,13.76,0,0,0,100.59,57.91Z"/><path class="cls-18" d="M85.1,33.67l-.88,2.21S80,39.46,78.76,40.76a24.75,24.75,0,0,1,2.49,8.06,27.23,27.23,0,0,1,2.52,2.26,39.41,39.41,0,0,1,2.54,5.08c.48,1.08-.84,4.35-.84,4.35s1.8,3.25,4.7,3.14a5.14,5.14,0,0,0,5.25-4.91,17.87,17.87,0,0,0,.26-3.52S97,59,99,59s5.11-3.28,5.11-3.28S106.19,53.84,106,53s-5-8.2-5.25-9.41S99.41,38,99.41,38L94.9,31.1l-2.75.13Z"/><path class="cls-8" d="M90.29,62.88a5.11,5.11,0,0,0,5.17-4.54c0,.13,0,.26,0,.4a5.14,5.14,0,0,1-5.25,4.91c-2.9.11-4.7-3.14-4.7-3.14l.22-.61C86.11,60.57,87.79,63,90.29,62.88Z"/><path class="cls-19" d="M85.1,33.67a7.24,7.24,0,0,0,.51,2.62c.53,1.31,2.27,8.66,6.21,11.18l1.52.94V43.73A17.3,17.3,0,0,0,92.63,39,13.34,13.34,0,0,1,92,35s-1.1-.3-1.1-.28S85.1,33.67,85.1,33.67Z"/><path class="cls-17" d="M90,37.09s.7.28,1-.17a3.2,3.2,0,0,0,.53-1.76s1.86.09,2.23-.86a1.55,1.55,0,0,0-.09-1.5,7.43,7.43,0,0,0-.37-1.65l0-.24s.38-.32.2-.66-1.19-1.37-1.29-1.55,0-1.46-.37-2.1a15.26,15.26,0,0,0-1.17-1.54s-4-3-7.1,0,1.59,8.61,1.59,8.61a5.12,5.12,0,0,0,1.29,2.52C87.3,36.91,90,37.09,90,37.09Z"/><path class="cls-20" d="M87.05,29.71a1.26,1.26,0,0,0,0-.33,1.58,1.58,0,0,1,.64-1.91c1.19-.85,3.3-1.61,3.23-2.46s-3.38-3-5.84-1.83-4.76,4-3.08,7,3.15,3.5,3.15,3.5.5-.1.05-.6-1.27-1.77-.59-2.17,1.85.46,2,.66a2.71,2.71,0,0,1,.17.25.34.34,0,0,0,.42.13l.06,0a.32.32,0,0,0,.17-.4l-.29-.78a.92.92,0,0,1-.07-.36Z"/><path class="cls-21" d="M89.85,37.94a4.58,4.58,0,0,0-1.4,1.79,6.46,6.46,0,0,1,1.48-1.15s1,.48,1,.8a21.12,21.12,0,0,0,.34,3.26,34.63,34.63,0,0,1,.22,4.63l.66.43.31-1.59-.12-3.37-.61-3.07s-.11-1.16-.16-1.23S89.85,37.94,89.85,37.94Z"/><path class="cls-15" d="M89.85,37.94s1-1,1.52-1.07a.85.85,0,0,1,.8.3c0,.06.49,1.71.49,1.71a20.18,20.18,0,0,1,.85,6.21,19.73,19.73,0,0,1-.17,3.32l-1.26-.78a15.11,15.11,0,0,0-.34-5.16c-.69-2.77-.08-3.18-.41-3.47S89.7,38.28,89.85,37.94Z"/><path class="cls-15" d="M83.77,51.08a38.78,38.78,0,0,1,2.51,5.08,1.48,1.48,0,0,1,.13.67l.2.13.63-.61s-.57-2-1.48-4.49-4.51-3-4.51-3A27.23,27.23,0,0,1,83.77,51.08Z"/><path class="cls-17" d="M84.75,57.21a11.24,11.24,0,0,1,1.36-1.65s-.08.41.51.66,3.65,1.42,3.76,1.56,0,.3-.21.34a4.63,4.63,0,0,0,.9.21c.26,0,.61.31.43.59s-.32.25-.32.25.08.31-.11.38a2.94,2.94,0,0,1-.65.08s.1.31-.16.43a10.06,10.06,0,0,1-1.5.26s-1-.11-1.25-.11a14.77,14.77,0,0,1-2.08.22,16.8,16.8,0,0,1-2.49-.79C82.76,59.54,84.75,57.21,84.75,57.21Z"/><path class="cls-15" d="M84,36.59l.13,2,1.09.33-.74.59s3,6.58,6.74,8.66c0,0-3.6-1.26-7-8.6l.46-.53-.76-.33Z"/><path class="cls-15" d="M93.68,36.39s1.34,6.71.2,11.76c0,0,1.37-2.43.13-11.76Z"/><path class="cls-22" d="M123.9,26.59a2.3,2.3,0,0,0-.69-.52s-1.43.57-1.67.68C121.54,26.75,123,26.6,123.9,26.59Z"/><path class="cls-22" d="M115.7,30.35l.52-.31h0c-1-1.25.1-3.05.1-3.06C114.22,27.78,115.59,30.39,115.7,30.35Z"/><path class="cls-22" d="M82.94,59.64a16.92,16.92,0,0,0,1.88.64,9.76,9.76,0,0,0,.36-2.42c-.1-.6-.36-.75-.36-.75l-.07.1S82.76,59.54,82.94,59.64Z"/><path class="cls-16" d="M84.75,57.13A2.07,2.07,0,0,1,84.34,59l-.81.91H82.7a8.17,8.17,0,0,1-.36-1.31Z"/><path class="cls-15" d="M92.5,38.35h0a37.15,37.15,0,0,1,.62,6.28A28.31,28.31,0,0,0,93,48.15l.25.21.08,0a19.73,19.73,0,0,0,.17-3.32,20.18,20.18,0,0,0-.85-6.21Z"/><path class="cls-14" d="M92.76,86.06a3.54,3.54,0,0,0,.72-.51,34.84,34.84,0,0,1-1.43-7.28,21.46,21.46,0,0,0,1.52-4.49,35.05,35.05,0,0,0-2,5C91,81.12,92.76,86.06,92.76,86.06Z"/><path class="cls-22" d="M86.93,32.93h0Z"/><path class="cls-22" d="M86.93,32.93a7,7,0,0,0,1,2.52A18.68,18.68,0,0,1,89.22,37c.43.06.73.08.73.08s.7.28,1-.17a3.2,3.2,0,0,0,.53-1.76A10.41,10.41,0,0,1,88,34.25,2.33,2.33,0,0,1,86.93,32.93Z"/><path class="cls-23" d="M86,55.57s.14.28.16.3.06-.21.06-.21a2.53,2.53,0,0,0-.12-.23Z"/><path class="cls-15" d="M93.34,48.41s1.75,5.48,2.34,6.81l0,1.31S93.41,49.73,93.34,48.41Z"/><path class="cls-15" d="M95,50.36a.57.57,0,0,1-.37.74.6.6,0,0,1-.73-.41A.58.58,0,0,1,94.3,50,.59.59,0,0,1,95,50.36Z"/><path class="cls-15" d="M95.92,52.73a.57.57,0,0,1-.37.74.6.6,0,0,1-.73-.42.58.58,0,0,1,.37-.74A.6.6,0,0,1,95.92,52.73Z"/><path class="cls-20" d="M87.1,30.73a.92.92,0,0,1-.07-.36l0-.66a1.26,1.26,0,0,0,0-.33,1.32,1.32,0,0,1-.09-.41s-2.74,2-4.47,2c1.46,2.28,2.66,2.68,2.66,2.68s.5-.1.05-.6-1.27-1.77-.59-2.17,1.85.46,2,.66a2.71,2.71,0,0,1,.17.25.34.34,0,0,0,.42.13l.06,0a.32.32,0,0,0,.17-.4Z"/><path class="cls-14" d="M81.92,102.41a15.14,15.14,0,0,0,2.43.34c1.2,0,4.45.68,4.37,1.87s-1.78,2.9-3.91,3.15-4.87-.34-6.26-.31a1.91,1.91,0,0,1-1.8-2.67C77.29,103.47,81.92,102.41,81.92,102.41Z"/><path class="cls-14" d="M74.75,99.22s-.46.72-.23,1.16.81,1.53,2.76.47S83,98.29,83,98.29s2.14-1.11,2-2.43-2.09-1.11-2.09-1.11Z"/><path class="cls-15" d="M87.38,80.57s-.83,8.54-2.59,11.78-2.27,9.31-2.65,10.46A4.75,4.75,0,0,1,78.79,106c-1.82.36-2.12-.85-2-1.58s.59-1.9.6-2.69a7.64,7.64,0,0,0-.21-1.51s-2.08.6-2.4-1a4.61,4.61,0,0,0,.2-.69c0-.24-.18-6-.23-6.65a28.67,28.67,0,0,1,.91-6.27A23,23,0,0,0,76,79.9L82,79.09Z"/><path class="cls-8" d="M75.63,85.61A23,23,0,0,0,76,79.9l.52-.07a22,22,0,0,1-.38,5.63,28.46,28.46,0,0,0-.9,6.26c0,.69.26,6.4.24,6.64a4.61,4.61,0,0,1-.2.69c.32,1.58,2.4,1,2.4,1a7.64,7.64,0,0,1,.21,1.51,25.1,25.1,0,0,1-.59,2.69c-.09.72.21,1.94,2,1.58l.16,0a2.79,2.79,0,0,1-.71.22c-1.82.36-2.12-.85-2-1.58s.59-1.9.6-2.69a8.6,8.6,0,0,0-.21-1.58s-2.08.67-2.4-.91a4.61,4.61,0,0,0,.2-.69c0-.24-.18-6-.23-6.65A28.67,28.67,0,0,1,75.63,85.61Z"/><path class="cls-14" d="M77.77,80.52A6.61,6.61,0,0,0,78.36,83a45.58,45.58,0,0,0,.47,6.83s-.77,4.62-1.25,6.07a17.19,17.19,0,0,0-.43,4.32,1.89,1.89,0,0,1-.58.1c-.34,0-.36-5.64.16-6.64s.92-5.4.72-6.74-.13-5.15-.38-5.83a.85.85,0,0,1,.32-1Z"/><path class="cls-14" d="M82.77,49.72a4.15,4.15,0,0,1,1.64,3.33l-1.28-.27S83.51,50.44,82.77,49.72Z"/><path class="cls-14" d="M82.1,82.38A9.67,9.67,0,0,1,76,80.8c0-.54,0-.9,0-.9L82,79.09l5.43,1.48s-.17,1.69-.5,3.84c-1,.1-1.92-2.21-1.92-2.21l-2.7.16S86,82.27,82.1,82.38Z"/><path class="cls-18" d="M86.62,80.7s-8.57,3.42-12.71-3.06a1.09,1.09,0,0,1-.16-.64l0-1.51a1.52,1.52,0,0,0-.08-.56h0a2.36,2.36,0,0,1-.09-1.21C74,72,74.82,67.45,75,66.17c.25-1.55-.59-7.76-2-10.45s2.2-8.62,2.2-8.62a2.35,2.35,0,0,1,2.61-.92s-1.65,1.13-.75,2.32,3.61,2.15,3.61,2.15,5,2.54,6.72,5.62A12.64,12.64,0,0,1,88,59.91c.06,2.05-.18,7-.09,7.67s.36,5.38.33,5.6S86.62,80.7,86.62,80.7Z"/><path class="cls-8" d="M77,47a1.16,1.16,0,0,1,0-.95,2.79,2.79,0,0,1,.78.09A3.1,3.1,0,0,0,77,47Z"/><path class="cls-15" d="M84,81.4s-5-13.31-4.8-18.14,7.36,9.54,7.36,9.54l0,7.9A16.14,16.14,0,0,1,84,81.4Z"/><path class="cls-24" d="M73.86,73.63a1.44,1.44,0,0,1,.08.55l0,1.5a1.17,1.17,0,0,0,.16.64c4.13,6.43,12.67,3,12.67,3s1.17-5.23,1.54-6.93c0,.41,0,.7,0,.75,0,.22-1.66,7.52-1.66,7.52s-8.57,3.42-12.71-3.06a1.09,1.09,0,0,1-.16-.64l0-1.51a1.52,1.52,0,0,0-.08-.56,2.36,2.36,0,0,1-.09-1.21l.12-.62A2.38,2.38,0,0,0,73.86,73.63Z"/><path class="cls-25" d="M73.15,54.54c1.41,2.67,2.25,8.85,2,10.39,0,.14-.06.33-.09.55,0-2.23-.8-7.38-2.06-9.76a4.49,4.49,0,0,1-.18-2.83A3.34,3.34,0,0,0,73.15,54.54Z"/><path class="cls-16" d="M86.74,65.68a21.26,21.26,0,0,1-.3-3.27c0-1.89-.57-5-4.07-4.48-5,.77-2.83,7.55-2.29,8.73s2.71,6.57,2.83,6.87a92.51,92.51,0,0,0,4.75,8.6.31.31,0,0,0,.45.06c.49-.42,1.61-1.4,1.76-2a15.65,15.65,0,0,0-.53-3.7s-1.93-7.25-2.1-7.59S87,67.44,86.74,65.68Z"/><path class="cls-17" d="M82.69,49.87a1.73,1.73,0,0,1,1.3-1c.91-.09,1.42-.34,1.52-.67A6,6,0,0,1,85.82,47a8.31,8.31,0,0,0,.4-1.72s.69-.23.72-.53-.32-1.36-.28-1.44A2.59,2.59,0,0,0,87,42.11a6.26,6.26,0,0,0-.39-1.86c-.28-.61-2.2-4.37-7.21-2.43s-1.22,6.1-1.72,8.8c0,0-.45.56.38,1.53S81.31,49.32,82.69,49.87Z"/><path class="cls-22" d="M78.08,48.15c-.83-1-.38-1.53-.38-1.53a3.46,3.46,0,0,0,0-1.2l2,.37s2.92-2.55,2.72-1.19.5,1.61.5,1.61l-.6.75c-.16.19-.07.42.06.63.83,1.4,2.86,1,2.87,1a3,3,0,0,1-1.24.34,1.73,1.73,0,0,0-1.3,1C81.31,49.32,78.91,49.11,78.08,48.15Z"/><path class="cls-20" d="M86.84,38.83s.35,1-.21,1.42l-1.09.83v1.27a1,1,0,0,1-.16.52l-.71,1.07a1.26,1.26,0,0,0-.22.7v.53a.29.29,0,0,1-.27.29l-.19,0a.3.3,0,0,1-.33-.26l-.08-.73s-.37-.58-1.19.11l-.74.3a.79.79,0,0,0-.45.46,5.27,5.27,0,0,1-1,1.84c-.45.24-2.18-.63-2.41-1s-.82-3-1.18-4.2-.15-4.24,3.58-5S86.33,37.73,86.84,38.83Z"/><path class="cls-20" d="M77.82,46.18c-.24-.39-.82-3-1.18-4.2A9.23,9.23,0,0,0,80,43.2c1.88.28,5.6-1.78,5.6-1.78v.93a1,1,0,0,1-.16.52l-.71,1.07a1.26,1.26,0,0,0-.22.7v.53a.29.29,0,0,1-.27.29l-.19,0a.3.3,0,0,1-.33-.26l-.08-.73s-.37-.58-1.19.11L81.33,45s-.65,1.92-1.1,2.17S78.05,46.57,77.82,46.18Z"/><path class="cls-19" d="M77.74,46.3s-1.45.88-.73,2.12,6,3.46,6.25,3.79c0,0,.21-1.86-.49-2.49,0,0-4-.77-4.65-1.77A2,2,0,0,1,77.74,46.3Z"/><path class="cls-21" d="M77.74,46.3A2,2,0,0,0,78.12,48c.47.76,2.89,1.38,4,1.64h0A4.3,4.3,0,0,0,81,51c-1.62-.82-3.58-1.88-4-2.6C76.29,47.18,77.74,46.3,77.74,46.3Z"/><path class="cls-15" d="M76.76,50.27s2.34,1.31,3.49,1.9,2.39,1.39,2.39,1.39l.44-.43.52,1.13a16,16,0,0,1,2.65,1.94,8.86,8.86,0,0,1,1.57,2.3s-2.25-2.88-4-3.74l-.47-.23-.27-.9-.44.45A60.33,60.33,0,0,1,76.76,50.27Z"/><path class="cls-8" d="M82.8,89.12h0a1.24,1.24,0,0,1,.32-.5l9.64-7.9c.25-.21.5,0,.55.35l1.12,9.21a1.42,1.42,0,0,1-.37,1.16L86,98.28l.28,2.67-2.42-1.09h0a.55.55,0,0,1-.21-.45l-.9-9.62A1.67,1.67,0,0,1,82.8,89.12Z"/><path class="cls-18" d="M95.38,81.62l-2.28-1-.07,0a.31.31,0,0,0-.27.09l-9.64,7.9a1.24,1.24,0,0,0-.32.5l.35.16h0l2,.93,8.45-7.06h0Z"/><path class="cls-15" d="M96.43,92.48l-9.86,8.39c-.27.23-.52,0-.57-.39L85,90.8a1.47,1.47,0,0,1,.41-1.16l9.61-8c.26-.21.5,0,.56.36L96.8,91.3A1.48,1.48,0,0,1,96.43,92.48Z"/><path class="cls-14" d="M84.78,99.91l-.93-9.65a1.5,1.5,0,0,1,.4-1.16l9.63-7.92a.3.3,0,0,1,.23-.09.3.3,0,0,0-.31.07l-9.63,7.93a1.47,1.47,0,0,0-.4,1.16l.92,9.64c0,.31.16.5.32.5C84.89,100.34,84.8,100.16,84.78,99.91Z"/><path class="cls-14" d="M88.31,85.71l-.51-.25a.51.51,0,0,0-.31,0h0s-.08.06-.07.14v.08l1.42.7v-.09a.45.45,0,0,0-.11-.23l0,0A1,1,0,0,0,88.31,85.71Z"/><polygon class="cls-14" points="88.13 86.9 88.81 86.34 87.4 85.45 86.73 86 88.13 86.9"/><path class="cls-8" d="M87.63,86.27,87.12,86a.51.51,0,0,0-.31,0h0s-.08.06-.07.14v.09l1.42.69v-.09a.45.45,0,0,0-.11-.23l-.05,0A1.11,1.11,0,0,0,87.63,86.27Z"/><polygon class="cls-26" points="87.33 86.51 87.28 86.1 87.33 86.12 87.37 86.53 87.33 86.51"/><polygon class="cls-26" points="87.28 86.1 87.98 85.55 88.02 85.57 87.33 86.12 87.28 86.1"/><path class="cls-14" d="M91.37,83.19l-.5-.24a.54.54,0,0,0-.32,0h0c-.05,0-.07.07-.06.14v.09l1.41.68v-.08a.45.45,0,0,0-.11-.23l0,0A1.54,1.54,0,0,0,91.37,83.19Z"/><polygon class="cls-14" points="91.2 84.37 91.87 83.81 90.47 82.94 89.81 83.48 91.2 84.37"/><path class="cls-8" d="M90.7,83.75l-.51-.25a.51.51,0,0,0-.31,0h0s-.07.06-.07.13v.09l1.42.69v-.09a.42.42,0,0,0-.11-.22l0,0A1,1,0,0,0,90.7,83.75Z"/><polygon class="cls-26" points="90.4 83.98 90.35 83.58 90.4 83.6 90.44 84 90.4 83.98"/><polygon class="cls-26" points="90.35 83.58 91.05 83.04 91.08 83.05 90.4 83.6 90.35 83.58"/><path class="cls-18" d="M87,84.17l.18,1.72.46-.38-.18-1.66a.87.87,0,0,1,.27-.7l2-1.61c.17-.14.33-.06.36.18l.19,1.65.45-.37-.2-1.69c-.06-.53-.42-.71-.8-.39l-2.1,1.7A1.94,1.94,0,0,0,87,84.17Z"/><path class="cls-18" d="M90.39,81.43l-.81-.08-2.33,2.13-.1,1.31,0,1.1.53.26V84.78l0-.94.48-.68s.88-.69.89-.71S90.39,81.43,90.39,81.43Z"/><polygon class="cls-18" points="90.78 83.62 90.26 83.37 90.12 82.15 90.62 82.19 90.77 82.22 90.78 83.62"/><polygon class="cls-18" points="90.76 81.05 90.2 80.78 90.35 81.08 90.54 81.14 90.76 81.05"/><path class="cls-14" d="M87.53,84.43l.19,1.72.45-.38L88,84.1a.88.88,0,0,1,.27-.7l2-1.61c.18-.14.34-.06.37.18l.19,1.65.45-.37L91,81.56c-.06-.53-.42-.71-.8-.39l-2.1,1.71A1.93,1.93,0,0,0,87.53,84.43Z"/><path class="cls-17" d="M89.73,80.1A10.06,10.06,0,0,1,90,82.2a2.79,2.79,0,0,1-1.41,1.38c-.49.15-.29-.43-.4-.79a5.14,5.14,0,0,1-.09-1.15Z"/><path class="cls-22" d="M88.06,81.64l1.67-1.54s.06.34.13.76a4.08,4.08,0,0,1-1.75,1.74A5.64,5.64,0,0,1,88.06,81.64Z"/><path class="cls-16" d="M89.85,80.22s-.59,1.81-2.08,2l.51-2,1.29-.35A2.15,2.15,0,0,1,89.85,80.22Z"/><path class="cls-27" d="M80.2,59c-1.38,4.09,2.07,10.45,2.56,12.31S88.5,81.85,88.5,81.85h0l.05.08a2.92,2.92,0,0,1-.34.23.85.85,0,0,1-.24.08h0a.29.29,0,0,1-.3-.12,92.51,92.51,0,0,1-4.75-8.6c-.12-.3-2.29-5.67-2.83-6.87C79.64,65.71,78.19,61.14,80.2,59Z"/><path class="cls-10" d="M38.31,87.38a3.78,3.78,0,0,1-1.93-.52L26,80.89a.73.73,0,0,1-.38-.65.74.74,0,0,1,.38-.65L35.76,74a4.4,4.4,0,0,1,4.37,0l10.14,5.83a.72.72,0,0,1,.38.65.74.74,0,0,1-.38.64l-10,5.7A3.84,3.84,0,0,1,38.31,87.38Zm-.37-13.62a4,4,0,0,0-2,.54l-9.78,5.56a.45.45,0,0,0,0,.76l10.39,6a3.54,3.54,0,0,0,3.56,0l10-5.7a.44.44,0,0,0,.21-.37.43.43,0,0,0-.22-.38L40,74.31h0A3.94,3.94,0,0,0,37.94,73.76Z"/><g class="cls-7"><path class="cls-8" d="M40.05,68.34a4.22,4.22,0,0,0-4.21,0L26.07,73.9a.58.58,0,0,0,0,1l10.38,6a3.74,3.74,0,0,0,3.72,0l10-5.7a.59.59,0,0,0,0-1Z"/></g><g class="cls-7"><path class="cls-8" d="M40.05,64.11a4.22,4.22,0,0,0-4.21,0l-9.77,5.56a.58.58,0,0,0,0,1l10.38,6a3.74,3.74,0,0,0,3.72,0l10-5.7a.59.59,0,0,0,0-1Z"/></g><g class="cls-7"><path class="cls-8" d="M40.05,59.88a4.22,4.22,0,0,0-4.21,0l-9.77,5.56a.58.58,0,0,0,0,1l10.38,6a3.74,3.74,0,0,0,3.72,0l10-5.7a.59.59,0,0,0,0-1Z"/></g><g class="cls-7"><path class="cls-8" d="M40.05,55.65a4.22,4.22,0,0,0-4.21,0l-9.77,5.56a.58.58,0,0,0,0,1l10.38,6a3.74,3.74,0,0,0,3.72,0l10-5.7a.59.59,0,0,0,0-1Z"/></g><path class="cls-28" d="M50.19,61.48,40.05,55.65a4.22,4.22,0,0,0-4.21,0l-9.77,5.56a.58.58,0,0,0-.3.51V74.41a.58.58,0,0,0,.3.51l10.38,6a3.74,3.74,0,0,0,3.72,0l10-5.7a.6.6,0,0,0,.3-.52V62h0A.58.58,0,0,0,50.19,61.48Z"/><g class="cls-7"><path class="cls-8" d="M40.05,55.65a4.22,4.22,0,0,0-4.21,0l-9.77,5.56a.58.58,0,0,0,0,1l10.38,6a3.74,3.74,0,0,0,3.72,0l10-5.7a.59.59,0,0,0,0-1Z"/></g><path class="cls-8" d="M50.19,61.92l-10,5.7a3.69,3.69,0,0,1-3.72,0l-10.38-6a.58.58,0,0,1-.22-.22.58.58,0,0,0,.22.8l10.38,6a3.74,3.74,0,0,0,3.72,0l10-5.7a.6.6,0,0,0,.22-.81A.52.52,0,0,1,50.19,61.92Z"/><polygon class="cls-29" points="38.13 65.34 31.8 61.68 38.13 58.03 44.46 61.68 38.13 65.34"/><path class="cls-10" d="M38.13,65.68a.34.34,0,0,1-.17-.05L31.63,62a.33.33,0,0,1-.17-.3.32.32,0,0,1,.17-.29L38,57.73a.34.34,0,0,1,.34,0l6.33,3.66a.34.34,0,0,1,.17.29.35.35,0,0,1-.17.3L38.3,65.63A.34.34,0,0,1,38.13,65.68Zm-5.64-4,5.64,3.26,5.64-3.26-5.64-3.26Z"/><path class="cls-10" d="M35.11,159.07a3.78,3.78,0,0,1-1.93-.52l-10.39-6a.73.73,0,0,1-.38-.65.74.74,0,0,1,.38-.65l9.77-5.56a4.4,4.4,0,0,1,4.37,0l10.14,5.83a.73.73,0,0,1,.38.65.72.72,0,0,1-.38.64l-10,5.7A3.84,3.84,0,0,1,35.11,159.07Zm-.37-13.62a4,4,0,0,0-2,.54l-9.78,5.56a.45.45,0,0,0,0,.76l10.39,6a3.54,3.54,0,0,0,3.56,0l10-5.7a.42.42,0,0,0,.21-.37.44.44,0,0,0-.21-.38L36.78,146h0A4.11,4.11,0,0,0,34.74,145.45Z"/><g class="cls-7"><path class="cls-8" d="M36.85,140a4.22,4.22,0,0,0-4.21,0l-9.77,5.56a.59.59,0,0,0,0,1l10.38,6a3.74,3.74,0,0,0,3.72,0l10-5.7a.59.59,0,0,0,0-1Z"/></g><g class="cls-7"><path class="cls-8" d="M36.85,135.8a4.22,4.22,0,0,0-4.21,0l-9.77,5.56a.59.59,0,0,0,0,1l10.38,6a3.74,3.74,0,0,0,3.72,0l10-5.7a.59.59,0,0,0,0-1Z"/></g><g class="cls-7"><path class="cls-8" d="M36.85,131.57a4.22,4.22,0,0,0-4.21,0l-9.77,5.56a.59.59,0,0,0,0,1l10.38,6a3.74,3.74,0,0,0,3.72,0l10-5.7a.59.59,0,0,0,0-1Z"/></g><g class="cls-7"><path class="cls-8" d="M36.85,127.34a4.22,4.22,0,0,0-4.21,0l-9.77,5.56a.59.59,0,0,0,0,1l10.38,6a3.74,3.74,0,0,0,3.72,0l10-5.7a.59.59,0,0,0,0-1Z"/></g><path class="cls-30" d="M47,133.17l-10.14-5.83a4.22,4.22,0,0,0-4.21,0l-9.77,5.56a.58.58,0,0,0-.3.51V146.1a.6.6,0,0,0,.3.52l10.38,6a3.74,3.74,0,0,0,3.72,0l10-5.7a.6.6,0,0,0,.3-.52V133.68h0A.6.6,0,0,0,47,133.17Z"/><g class="cls-7"><path class="cls-8" d="M36.85,127.34a4.22,4.22,0,0,0-4.21,0l-9.77,5.56a.59.59,0,0,0,0,1l10.38,6a3.74,3.74,0,0,0,3.72,0l10-5.7a.59.59,0,0,0,0-1Z"/></g><path class="cls-8" d="M47,133.61l-10,5.7a3.69,3.69,0,0,1-3.72,0l-10.38-6a.58.58,0,0,1-.22-.22.6.6,0,0,0,.22.81l10.38,6a3.74,3.74,0,0,0,3.72,0l10-5.7a.6.6,0,0,0,.22-.81A.52.52,0,0,1,47,133.61Z"/><polygon class="cls-29" points="34.93 137.03 28.6 133.37 34.93 129.72 41.26 133.37 34.93 137.03"/><path class="cls-10" d="M34.93,137.37a.34.34,0,0,1-.17-.05l-6.33-3.65a.33.33,0,0,1-.17-.3.32.32,0,0,1,.17-.29l6.33-3.66a.34.34,0,0,1,.34,0l6.33,3.66a.34.34,0,0,1,.17.29.35.35,0,0,1-.17.3l-6.33,3.65A.34.34,0,0,1,34.93,137.37Zm-5.64-4,5.64,3.26,5.64-3.26-5.64-3.25Z"/><path class="cls-10" d="M133.26,156.58a3.93,3.93,0,0,1-1.94-.51l-10.38-6a.74.74,0,0,1,0-1.29l25.11-14.47a4.4,4.4,0,0,1,4.37,0l10.14,5.83a.75.75,0,0,1,0,1.29L135.2,156.07A3.93,3.93,0,0,1,133.26,156.58Zm15-22.52a4.09,4.09,0,0,0-2,.54l-25.11,14.47a.43.43,0,0,0,0,.75l10.39,6a3.59,3.59,0,0,0,3.56,0l25.36-14.61a.43.43,0,0,0,.22-.38.41.41,0,0,0-.22-.37l-10.14-5.83h0A4,4,0,0,0,148.23,134.06Z"/><g class="cls-7"><path class="cls-8" d="M150.34,129.84a4.24,4.24,0,0,0-4.22,0L121,144.3a.59.59,0,0,0,0,1l10.38,6a3.69,3.69,0,0,0,3.72,0l25.36-14.6a.6.6,0,0,0,0-1Z"/></g><g class="cls-7"><path class="cls-8" d="M150.34,125.61a4.24,4.24,0,0,0-4.22,0L121,140.07a.59.59,0,0,0,0,1l10.38,6a3.69,3.69,0,0,0,3.72,0l25.36-14.6a.6.6,0,0,0,0-1Z"/></g><g class="cls-7"><path class="cls-8" d="M150.34,121.38a4.24,4.24,0,0,0-4.22,0L121,135.84a.59.59,0,0,0,0,1l10.38,6a3.69,3.69,0,0,0,3.72,0l25.36-14.6a.6.6,0,0,0,0-1Z"/></g><g class="cls-7"><path class="cls-8" d="M150.34,117.15a4.24,4.24,0,0,0-4.22,0L121,131.61a.59.59,0,0,0,0,1l10.38,6a3.69,3.69,0,0,0,3.72,0L160.48,124a.6.6,0,0,0,0-1Z"/></g><path class="cls-31" d="M160.48,123l-10.14-5.83a4.24,4.24,0,0,0-4.22,0L121,131.61a.6.6,0,0,0-.3.52v12.69a.58.58,0,0,0,.3.51l10.38,6a3.69,3.69,0,0,0,3.72,0l25.36-14.6a.59.59,0,0,0,.29-.52V123.5h0A.59.59,0,0,0,160.48,123Z"/><g class="cls-7"><path class="cls-8" d="M150.34,117.15a4.24,4.24,0,0,0-4.22,0L121,131.61a.59.59,0,0,0,0,1l10.38,6a3.69,3.69,0,0,0,3.72,0L160.48,124a.6.6,0,0,0,0-1Z"/></g><path class="cls-8" d="M160.48,123.42,135.12,138a3.74,3.74,0,0,1-3.72,0l-10.38-6a.54.54,0,0,1-.22-.23.59.59,0,0,0,.22.81l10.38,6a3.69,3.69,0,0,0,3.72,0L160.48,124a.6.6,0,0,0,.22-.81A.52.52,0,0,1,160.48,123.42Z"/><polygon class="cls-29" points="134.04 135.07 127.71 131.41 134.04 127.76 140.37 131.41 134.04 135.07"/><path class="cls-10" d="M134,135.41a.34.34,0,0,1-.17,0l-6.33-3.65a.35.35,0,0,1-.17-.3.34.34,0,0,1,.17-.29l6.33-3.66a.34.34,0,0,1,.34,0l6.33,3.66a.32.32,0,0,1,.17.29.33.33,0,0,1-.17.3l-6.33,3.65A.34.34,0,0,1,134,135.41Zm-5.64-4,5.64,3.26,5.64-3.26L134,128.15Z"/><polygon class="cls-29" points="147.55 127.8 141.22 124.14 147.55 120.49 153.88 124.14 147.55 127.8"/><path class="cls-10" d="M147.55,128.14a.37.37,0,0,1-.17,0l-6.33-3.65a.36.36,0,0,1-.17-.3.34.34,0,0,1,.17-.29l6.33-3.66a.34.34,0,0,1,.34,0l6.33,3.66a.32.32,0,0,1,.17.29.34.34,0,0,1-.17.3l-6.33,3.65A.34.34,0,0,1,147.55,128.14Zm-5.64-4,5.64,3.26,5.65-3.26-5.65-3.26Z"/></g></svg>