<svg width="457" height="443" viewBox="0 0 457 443" fill="none" xmlns="http://www.w3.org/2000/svg">
<path d="M320.727 303.308C314.944 299.97 307.816 299.984 302.047 303.339L195.925 365.018C189.738 368.613 189.751 377.553 195.951 381.126L281.431 430.673L272.185 442.703L298.33 442.698C307.594 442.698 316.694 440.266 324.724 435.649L421.049 379.719C428.106 375.622 428.102 365.43 421.036 361.342L320.727 303.308Z" fill="#E8EEFC"/>
<path d="M252.297 263.967V437.789C263.782 444.385 277.936 444.336 289.372 437.687V282.015L252.297 263.967Z" fill="#9EB5F2"/>
<path d="M162.201 220.102C150.716 213.457 136.562 213.457 125.073 220L25.7585 263.652C25.5053 263.802 25.2033 263.953 24.9546 264.153C24.9058 264.153 24.8525 264.202 24.8036 264.304C13.9715 272.915 10.9515 295.722 28.6319 307.703L252.295 437.784V263.967L162.201 220.102Z" fill="#8DA8F0"/>
<path d="M388.117 336.107L300.252 287.315L289.371 282.02V437.691L386.856 381.273C405.948 368.378 401.014 342.903 388.117 336.107Z" fill="#8DA8F0"/>
<path d="M382.191 369.652L289.383 423.38C277.943 429.981 263.806 430.025 252.321 423.473L32.1618 296.126C13.9751 286.37 15.7382 268.716 28.2491 261.605L125.329 205.964C136.863 199.412 150.724 199.15 162.165 205.8L386.867 334.784C399.236 341.94 399.383 360.668 382.191 369.652Z" fill="#F7F9FE"/>
<path d="M380.94 367.437L289.109 420.597C277.788 427.127 263.803 427.175 252.438 420.69L34.5969 294.684C16.6012 285.029 16.761 268.13 29.1387 261.095L126.783 205.471C138.192 198.986 151.911 198.733 163.232 205.307L386.456 334.545C398.696 341.625 397.95 358.55 380.94 367.437Z" fill="#D5DEF9"/>
<path d="M85.975 241.621L103.309 231.616C104.308 231.039 105.538 231.039 106.538 231.616L106.675 231.696C107.519 232.184 107.519 233.401 106.675 233.889L89.3547 243.903C88.3421 244.489 87.0897 244.48 86.086 243.881L85.9572 243.805C85.1267 243.313 85.1356 242.105 85.975 241.621Z" fill="#A8BCF3"/>
<path d="M332.782 370.233L345.369 377.482L346.657 376.728C347.465 376.261 347.465 375.094 346.657 374.628L332.782 366.638C332.032 366.207 331.108 366.207 330.357 366.638L307.841 379.813C307.032 380.279 307.032 381.446 307.841 381.912L309.129 382.658L330.362 370.238C331.108 369.803 332.032 369.803 332.782 370.233Z" fill="#8DA8F0"/>
<path d="M324.145 389.933L345.37 377.482L332.783 370.233C332.033 369.803 331.109 369.803 330.358 370.233L309.125 382.653L321.711 389.929C322.466 390.368 323.395 390.368 324.145 389.933Z" fill="#A8BCF3"/>
<path d="M163.24 214.771L37.5586 287.377L215.908 390.257V245.053L163.24 214.771Z" fill="#D5DEF9"/>
<path d="M370.414 334.057L215.754 244.777L215.909 390.257L244.36 406.774L370.414 334.057Z" fill="#BDCBF4"/>
<path d="M163.24 214.771L37.5586 287.377L244.363 406.779L370.414 334.061L163.24 214.771ZM41.4358 287.377L163.24 217.012L366.523 334.061L244.363 404.537L41.4358 287.377Z" fill="#1E0068"/>
<path d="M111.017 161.331C110.893 160.523 111.231 159.675 111.955 159.187C112.958 158.503 114.326 158.765 115.006 159.768L119.345 166.151C120.024 167.155 119.767 168.517 118.763 169.201C117.759 169.885 116.391 169.623 115.712 168.619L111.373 162.236C111.182 161.957 111.062 161.646 111.017 161.331Z" fill="#BFCBF2"/>
<path d="M118.58 160.19C118.455 159.373 118.797 158.525 119.53 158.037C120.538 157.363 121.902 157.633 122.577 158.641L126.876 165.068C127.547 166.076 127.28 167.439 126.272 168.113C125.264 168.788 123.9 168.517 123.225 167.51L118.926 161.082C118.74 160.803 118.624 160.501 118.58 160.19Z" fill="#BFCBF2"/>
<path d="M124.525 156.754C124.4 155.938 124.747 155.085 125.48 154.597C126.488 153.927 127.851 154.198 128.526 155.205L133.425 162.556C134.1 163.559 133.825 164.926 132.817 165.601C131.808 166.276 130.445 166.001 129.77 164.993L124.871 157.642C124.685 157.367 124.569 157.061 124.525 156.754Z" fill="#BFCBF2"/>
<path d="M120.042 147.1C120.193 146.905 120.379 146.731 120.601 146.589C121.627 145.941 122.982 146.243 123.63 147.269L128.804 155.436C129.453 156.461 129.151 157.82 128.125 158.463C127.099 159.111 125.744 158.81 125.096 157.784L119.922 149.617C119.416 148.818 119.491 147.81 120.042 147.1Z" fill="#3C3B95"/>
<path d="M181.147 240.396C176.683 241.071 172.522 237.999 171.847 233.542C171.172 229.081 174.245 224.922 178.704 224.247C183.167 223.573 187.329 226.644 188.004 231.101C188.679 235.562 185.606 239.726 181.147 240.396Z" fill="#1E0068"/>
<path d="M136.217 190.104C135.67 186.495 137.078 182.708 140.209 180.365C144.739 176.973 151.161 177.897 154.554 182.424L182.077 219.169C185.47 223.697 184.546 230.116 180.016 233.507C175.486 236.898 169.064 235.975 165.671 231.447L138.149 194.702C137.096 193.304 136.461 191.719 136.217 190.104Z" fill="#BFCBF2"/>
<path d="M139.496 186.925C136.52 187.374 133.745 185.327 133.296 182.353C132.847 179.379 134.895 176.605 137.87 176.157C140.846 175.708 143.622 177.755 144.07 180.729C144.519 183.698 142.472 186.473 139.496 186.925Z" fill="#1C1C5D"/>
<path d="M147.516 180.21C147.262 180.637 133.024 182.625 127.068 183.446C125.438 183.673 123.791 183.176 122.556 182.088L112.985 173.654C111.009 171.914 110.489 169.042 111.724 166.721L112.164 165.895C112.483 165.376 112.998 165.065 113.545 164.985C114.113 164.905 135.165 161.731 135.165 161.731L142.137 169.619C142.906 170.356 147.516 180.21 147.516 180.21Z" fill="#8DA8F0"/>
<path d="M149.78 177.067L148.367 179.446C147.737 180.507 146.293 180.724 145.378 179.89L132.494 168.398C131.682 167.656 131.508 166.44 132.086 165.499L133.858 162.614C134.506 161.553 135.972 161.366 136.869 162.232L149.398 174.244C150.161 174.98 150.321 176.148 149.78 177.067Z" fill="#BFCBF2"/>
<path d="M136.985 173.897C136.941 173.591 136.954 173.267 137.052 172.947C137.398 171.784 138.62 171.123 139.783 171.469L145.828 173.263C146.991 173.604 147.657 174.825 147.307 175.993C146.96 177.155 145.739 177.817 144.575 177.471L138.531 175.677C137.687 175.424 137.11 174.714 136.985 173.897Z" fill="#8DA8F0"/>
<path d="M128.847 172.97C128.821 172.783 128.816 172.588 128.838 172.393C128.976 171.19 130.064 170.324 131.272 170.462L139.409 171.394C140.612 171.531 141.474 172.615 141.34 173.826C141.203 175.029 140.115 175.895 138.907 175.757L130.77 174.825C129.762 174.705 128.989 173.928 128.847 172.97Z" fill="#3C3B95"/>
<path d="M110.914 170.897C109.582 170.693 108.818 169.277 109.146 167.994L111.06 160.47C111.38 159.209 112.708 158.463 113.996 158.974C115.049 159.387 115.559 160.59 115.28 161.686L113.352 169.268C113.072 170.36 112.011 171.052 110.914 170.897Z" fill="#3C3B95"/>
<path d="M117.466 170.803C117.226 170.795 116.982 170.75 116.746 170.657C115.614 170.217 115.054 168.948 115.494 167.816L118.66 158.983C119.1 157.855 120.366 157.291 121.503 157.731C122.635 158.17 123.195 159.44 122.755 160.572L119.589 169.405C119.238 170.297 118.372 170.834 117.466 170.803Z" fill="#3C3B95"/>
<path d="M214.192 280.559C185.621 280.559 162.465 292.575 162.465 307.397C162.465 322.218 185.626 334.234 214.192 334.234C230.358 334.234 244.787 330.386 254.273 324.362C261.553 319.737 265.918 313.833 265.918 307.397C265.918 292.575 242.762 280.559 214.192 280.559Z" fill="#1E0068"/>
<path d="M272.801 182.806C272.801 216.107 272.801 253.34 272.761 262.715C272.619 287.16 256.719 308.719 233.429 316.146L231.795 316.669C216.761 321.45 201.626 319.635 189.035 313.18C188.529 312.919 188.005 312.634 187.503 312.355C182.236 309.452 177.555 305.741 173.597 301.342C172.913 300.574 172.247 299.811 171.621 299.003C163.813 289.322 159.27 276.817 159.27 262.817C159.27 244.906 159.088 212.152 159.008 182.988C158.968 168.868 164.093 155.942 172.611 145.977C183.026 133.734 198.561 125.971 215.918 125.971C226.128 125.971 235.734 128.67 244.008 133.393C245.842 134.44 247.619 135.59 249.316 136.819C251.736 138.555 254.019 140.495 256.137 142.612C257.43 143.904 258.682 145.271 259.828 146.683C267.937 156.506 272.801 169.072 272.801 182.806Z" fill="#E2E9FB"/>
<path d="M174.636 302.465C174.125 299.185 173.77 295.208 173.77 291.852C173.77 281.416 173.508 191.773 173.508 191.773C173.468 177.91 178.402 164.478 187.409 153.949C198.468 140.943 214.598 133.481 231.666 133.481C237.057 133.481 242.404 134.218 247.565 135.679L247.29 136.646C242.222 135.213 236.968 134.489 231.67 134.489C214.9 134.489 199.049 141.822 188.182 154.602C179.33 164.944 174.476 178.145 174.521 191.768C174.521 191.768 174.783 281.411 174.783 291.852C174.783 295.154 175.196 300.317 175.702 303.548L174.636 302.465Z" fill="#38C5EA"/>
<path d="M164.148 195.683L188.521 210.798C190.733 212.169 192.078 214.589 192.078 217.19V245.843C192.078 247.285 190.493 248.169 189.263 247.405L164.889 232.291C162.678 230.919 161.332 228.5 161.332 225.899V197.246C161.336 195.803 162.922 194.92 164.148 195.683Z" fill="#1C1C5D"/>
<path d="M189.842 216.484L189.74 219.636L167.801 231.376L165.109 229.712C164.115 229.077 163.528 227.99 163.568 226.804L163.733 221.624L183.874 210.838L188.279 213.572C189.274 214.194 189.878 215.303 189.842 216.484Z" fill="#3C3B95"/>
<path d="M257.728 203.451C257.728 208.143 253.921 211.947 249.227 211.947C244.533 211.947 240.727 208.143 240.727 203.451C240.727 198.76 244.533 194.955 249.227 194.955C253.921 194.955 257.728 198.76 257.728 203.451Z" fill="#1C1C5D"/>
<path d="M289.63 246.602C287.592 248.457 285.029 249.367 282.489 249.367C279.584 249.367 276.675 248.178 274.579 245.856L249.375 217.518C245.418 213.142 245.742 206.403 250.121 202.453C250.343 202.253 250.57 202.075 250.788 201.907C251.201 201.592 251.614 201.303 252.058 201.059C256.295 198.68 261.766 199.443 265.173 203.198L290.376 231.558C294.334 235.913 293.992 242.651 289.63 246.602Z" fill="#BFCBF2"/>
<path d="M276.698 225.788C273.344 225.788 270.129 224.359 267.868 221.868L250.41 202.24L251.165 201.569L268.624 221.194C270.689 223.471 273.633 224.776 276.702 224.776C278.883 224.776 280.992 224.128 282.795 222.903L283.364 223.737C281.383 225.082 279.083 225.788 276.698 225.788Z" fill="#38C5EA"/>
<path d="M191.322 274.654C190.469 274.654 189.652 274.179 189.261 273.358C188.715 272.222 189.194 270.855 190.331 270.313L198.543 266.38C198.543 266.38 201.048 266.314 201.59 267.45C202.136 268.587 201.656 269.954 200.519 270.495L192.307 274.428C191.988 274.583 191.65 274.654 191.322 274.654Z" fill="#3C3B95"/>
<path d="M209.693 271.708C209.618 271.708 209.547 271.704 209.467 271.699L199.305 270.714C198.048 270.594 197.129 269.475 197.253 268.219C197.373 266.963 198.488 266.044 199.749 266.168L209.911 267.154C211.168 267.274 212.087 268.392 211.963 269.648C211.852 270.825 210.857 271.708 209.693 271.708Z" fill="#BFCBF2"/>
<path d="M284.095 242.482C284.095 247.174 280.289 250.978 275.594 250.978C270.9 250.978 267.094 247.174 267.094 242.482C267.094 237.791 270.9 233.986 275.594 233.986C280.289 233.986 284.095 237.791 284.095 242.482Z" fill="#1C1C5D"/>
<path d="M272.478 257.011L238.436 275.304C236.841 276.151 235.105 276.555 233.413 276.555C229.598 276.555 225.925 274.54 224.011 270.949C221.226 265.764 223.162 259.31 228.35 256.527L262.392 238.234C267.255 235.633 273.25 237.165 276.257 241.644C276.457 241.905 276.639 242.189 276.803 242.491C276.905 242.673 276.963 242.793 277.003 242.895C277.247 243.357 277.425 243.823 277.589 244.307C279.157 249.123 277.101 254.53 272.478 257.011Z" fill="#BFCBF2"/>
<path d="M276.252 241.644L246.749 257.495C244.107 258.906 242.188 261.246 241.34 264.091C240.474 266.954 240.776 269.959 242.188 272.582C242.29 272.764 242.388 272.946 242.49 273.106L243.379 272.64C243.299 272.48 243.196 272.298 243.094 272.116C241.802 269.715 241.522 266.972 242.308 264.393C243.077 261.792 244.831 259.652 247.211 258.383L276.794 242.487C276.634 242.185 276.452 241.905 276.252 241.644Z" fill="#38C5EA"/>
<path d="M230.643 271.571C230.643 274.7 228.107 277.235 224.976 277.235C221.845 277.235 219.309 274.7 219.309 271.571C219.309 268.441 221.845 265.906 224.976 265.906C228.102 265.906 230.643 268.441 230.643 271.571Z" fill="#1C1C5D"/>
<path d="M218.997 268.397L228.879 277.603C228.879 277.603 228.883 279.924 228.883 280.795C228.883 281.824 228.452 282.845 227.604 283.569L218.082 291.71C215.817 293.645 212.411 293.374 210.483 291.106L200.37 279.205C199.749 278.473 199.469 277.581 199.504 276.706C199.549 275.508 199.5 273.422 199.5 273.422L212.3 267.336C214.502 266.066 217.296 266.506 218.997 268.397Z" fill="#8DA8F0"/>
<path d="M218.999 265.298L227.953 275.255C229.325 276.782 229.169 279.134 227.611 280.466L218.089 288.607C215.824 290.542 212.417 290.271 210.49 288.003L200.373 276.103C198.898 274.367 199.356 271.721 201.328 270.581L212.302 264.237C214.505 262.963 217.298 263.407 218.999 265.298Z" fill="#BFCBF2"/>
<path d="M190.039 289.477C189.582 289.477 189.124 289.339 188.725 289.06C187.694 288.332 187.45 286.907 188.174 285.877L193.383 278.504C194.112 277.474 195.537 277.23 196.568 277.954C197.598 278.681 197.842 280.106 197.118 281.136L191.909 288.509C191.46 289.14 190.759 289.477 190.039 289.477Z" fill="#3C3B95"/>
<path d="M195.253 282.104C194.516 282.104 193.788 281.749 193.353 281.087C192.651 280.04 192.94 278.619 193.988 277.922L202.488 272.267C203.532 271.566 204.957 271.85 205.655 272.902C206.356 273.95 206.068 275.37 205.02 276.067L196.519 281.722C196.128 281.98 195.689 282.104 195.253 282.104Z" fill="#BFCBF2"/>
<path d="M196.426 296.419C196.102 296.419 195.769 296.348 195.453 296.202C194.312 295.665 193.823 294.306 194.356 293.161L198.233 284.927C198.771 283.786 200.13 283.298 201.276 283.831C202.417 284.368 202.906 285.726 202.368 286.871L198.491 295.105C198.105 295.935 197.287 296.419 196.426 296.419Z" fill="#3C3B95"/>
<path d="M200.308 288.185C199.571 288.185 198.843 287.83 198.407 287.169C197.706 286.121 197.994 284.701 199.042 284.004L207.543 278.349C208.586 277.647 210.012 277.931 210.709 278.983C211.411 280.031 211.122 281.451 210.074 282.148L201.574 287.803C201.183 288.061 200.743 288.185 200.308 288.185Z" fill="#BFCBF2"/>
<path d="M205.484 300.356C204.272 300.356 203.264 299.407 203.206 298.186L202.882 291.67C202.82 290.409 203.792 289.339 205.049 289.277C206.328 289.228 207.381 290.187 207.443 291.443L207.767 297.959C207.829 299.22 206.857 300.29 205.6 300.352C205.56 300.356 205.52 300.356 205.484 300.356Z" fill="#3C3B95"/>
<path d="M205.166 293.845C204.429 293.845 203.7 293.49 203.261 292.828C202.564 291.781 202.848 290.36 203.896 289.663L212.396 284.008C213.44 283.311 214.861 283.591 215.563 284.643C216.26 285.691 215.976 287.111 214.928 287.808L206.427 293.463C206.041 293.72 205.601 293.845 205.166 293.845Z" fill="#BFCBF2"/>
<path d="M252.106 40.3893C252.59 39.6169 252.585 38.6847 252.195 37.9346L272.482 5.70386C272.846 5.12681 272.673 4.36776 272.096 4.00377C271.518 3.63978 270.759 3.8129 270.395 4.38995L250.103 36.6206C249.255 36.5896 248.411 36.9935 247.927 37.7614C247.927 37.7614 242.464 46.4838 242.397 46.5904C241.998 47.2296 242.597 48.3304 243.739 49.0451C244.88 49.7642 246.132 49.8307 246.536 49.1916C246.603 49.085 252.106 40.3893 252.106 40.3893Z" fill="#1C1C5D"/>
<path d="M256.167 142.652C258.698 145.187 259.014 149.262 256.855 152.12C249.882 161.362 234.347 167.785 216.334 167.785C207.416 167.785 199.159 166.054 192.138 163.47C191.436 163.213 190.743 162.947 190.082 162.645C183.571 159.795 178.41 155.902 175.27 151.383C173.289 148.534 173.689 144.587 176.172 142.164C186.413 132.15 200.438 125.975 215.912 125.975C231.611 125.975 245.836 132.327 256.131 142.617L256.167 142.652Z" fill="#BFCBF2"/>
<path d="M277.783 95.9151C277.783 126.042 256.066 151.104 227.46 156.342C226.199 156.555 224.937 156.75 223.654 156.905C221.264 157.176 218.822 157.331 216.357 157.331C204.015 157.331 192.628 153.514 182.879 147.402C181.92 146.802 180.978 146.159 180.046 145.48C164.79 134.307 154.891 116.267 154.891 95.9195C154.891 95.4534 154.891 94.9474 154.908 94.4858C154.926 93.4204 155.006 92.3329 155.064 91.2853C155.104 90.6239 155.179 89.9847 155.237 89.3278C155.313 88.6087 155.41 87.894 155.508 87.1927C155.663 86.0874 155.837 84.9999 156.072 83.9124C156.09 83.717 156.13 83.5262 156.187 83.3309C156.556 81.5287 157.022 79.7443 157.564 77.9953C157.76 77.3961 157.951 76.7924 158.164 76.1932C158.417 75.3986 158.688 74.6396 158.999 73.9027C167.81 50.8561 190.167 34.4855 216.348 34.4855C217.88 34.4855 219.43 34.5787 220.927 34.6808C221.393 34.7119 221.837 34.7385 222.286 34.7962C223.103 34.8539 223.916 34.9516 224.711 35.067C225.217 35.1247 225.701 35.2046 226.203 35.28C255.444 39.9897 277.783 65.3445 277.783 95.9151Z" fill="#E2E9FB"/>
<path d="M224.697 35.0625C222.219 34.7074 219.687 34.8672 217.253 35.4664C197.876 40.2427 181.448 54.3006 174.143 73.3745C173.849 74.1291 173.579 74.9059 173.325 75.6827C172.237 78.7277 171.425 81.9104 170.878 85.1686C170.55 87.0506 170.314 88.9727 170.181 90.9125C170.106 91.96 170.043 93.0653 170.026 94.1129C170.008 94.579 170.008 95.0806 170.008 95.5689C170.008 99.8746 170.456 104.123 171.327 108.273C171.678 108.411 172.046 108.526 172.415 108.659C171.465 104.393 170.98 100.008 170.98 95.5644C170.98 95.0983 170.98 94.6145 170.998 94.1484C171.016 93.0831 171.074 92.0133 171.154 90.9657C171.291 89.1236 171.505 87.2992 171.815 85.5148C172.357 82.2345 173.157 79.0562 174.24 75.989C174.493 75.2122 174.764 74.4575 175.057 73.7207C183.132 52.5961 202.557 37.7391 224.723 35.0625H224.697Z" fill="#38C5EA"/>
<path d="M208.749 96.7896L204.983 106.662C203.584 110.346 199.956 112.694 196.034 112.521C185.882 112.055 178.198 110.621 172.416 108.659C172.047 108.522 171.679 108.406 171.328 108.273C156.556 102.902 154.909 94.1529 155.104 91.1655C155.455 85.9277 156.503 80.9029 158.168 76.171C160.691 80.1483 165.292 83.0557 170.879 85.1731C171.19 85.2885 171.501 85.4039 171.812 85.5237C181.964 89.1503 195.004 90.3133 204.668 90.6462C207.799 90.735 209.855 93.8777 208.749 96.7896Z" fill="#1C1C5D"/>
<path d="M167.332 90.6342C165.458 92.281 164.215 95.0287 164.072 98.6996C163.762 106.712 168.638 115.834 174.967 119.07C176.681 119.949 178.32 120.259 179.812 120.153C177.596 122.101 174.474 122.492 171.045 120.739C164.716 117.503 159.84 108.381 160.151 100.369C160.377 94.5271 163.313 90.9271 167.332 90.6342Z" fill="#1C1C5D"/>
<path d="M164.072 98.7205C163.766 106.719 168.638 115.85 174.944 119.064C176.685 119.934 178.289 120.28 179.812 120.151C181.202 118.935 182.25 117.066 182.774 114.674C182.947 113.893 180.358 112.854 180.398 111.939C180.705 104.331 179.03 95.9373 173.203 92.3285C172.857 92.111 172.506 91.8935 172.16 91.7204C170.463 90.8504 168.811 90.5485 167.332 90.6328C165.462 92.2841 164.201 95.0229 164.072 98.7205Z" fill="#38C5EA"/>
<path d="M168.158 99.5905C167.94 105.632 171.595 112.459 176.334 114.891C178.812 116.152 181.117 115.979 182.769 114.674C182.942 113.893 183.031 113.023 183.076 112.108C183.382 104.5 179.03 95.9373 173.203 92.3285C170.334 92.6792 168.331 95.3736 168.158 99.5905Z" fill="#E2E9FB"/>
<path d="M258.931 70.8665L258.505 70.8621C255.085 70.8621 251.479 71.7676 247.793 73.552C231.276 81.5464 218.121 104.913 218.468 125.638C218.725 140.885 226.191 150.895 237.489 151.144L237.916 151.148C241.335 151.148 244.942 150.243 248.628 148.458C265.145 140.464 278.3 117.097 277.953 96.3723C277.696 81.1292 270.23 71.1151 258.931 70.8665ZM248.193 147.553C244.644 149.27 241.189 150.14 237.92 150.14C237.787 150.14 237.654 150.14 237.516 150.136C226.804 149.901 219.724 140.277 219.48 125.62C219.138 105.25 232.036 82.3011 248.233 74.462C251.781 72.7441 255.236 71.8741 258.505 71.8741C258.638 71.8741 258.772 71.8741 258.905 71.8786C269.617 72.1138 276.696 81.7373 276.941 96.3945C277.287 116.76 264.39 139.714 248.193 147.553Z" fill="#38C5EA"/>
<path d="M255.095 94.7255C257.164 96.541 258.532 99.5683 258.688 103.617C259.03 112.45 253.656 122.508 246.679 126.073C244.787 127.04 242.984 127.387 241.336 127.267C243.779 129.415 247.221 129.846 251 127.911C257.977 124.342 263.355 114.288 263.009 105.454C262.76 99.0179 259.523 95.0495 255.095 94.7255Z" fill="#1C1C5D"/>
<path d="M255.096 94.7255C253.466 94.6279 251.641 94.9652 249.771 95.924C249.389 96.1149 249.003 96.3546 248.621 96.5943C242.194 100.572 237.398 110.013 237.736 118.403C237.784 119.41 237.878 120.369 238.073 121.23C238.65 123.867 239.805 125.926 241.337 127.271C243.016 127.413 244.784 127.032 246.702 126.073C253.657 122.526 259.027 112.463 258.689 103.643C258.547 99.5684 257.157 96.5499 255.096 94.7255Z" fill="#38C5EA"/>
<path d="M346.554 249.261L326.191 250.908V237.968L346.554 249.261Z" fill="url(#paint0_linear_909_550)"/>
<path d="M390.803 217.323L336.527 186.007V187.219L390.279 218.233C393.45 220.062 395.418 223.471 395.418 227.128V268.583C395.418 269.875 394.796 271.025 393.717 271.739C393.468 271.903 393.206 272.041 392.931 272.143C392.873 272.165 392.185 272.516 392.185 272.516C391.767 273.444 391.07 274.198 390.222 274.7L393.299 273.129C393.65 272.995 393.988 272.827 394.299 272.618C395.578 271.77 396.47 270.337 396.47 268.583V227.128C396.466 223.085 394.307 219.347 390.803 217.323Z" fill="#6DDBF9"/>
<path d="M390.214 274.696L389.734 274.94C389.899 274.869 390.059 274.789 390.214 274.696Z" fill="#5E81F4"/>
<path d="M386.943 219.263L336.526 190.175V207.269C336.526 209.568 333.728 211.552 331.481 210.265L316.785 201.951V228.877C316.785 232.935 318.957 236.681 322.479 238.696L385.34 274.731C386.792 275.565 388.404 275.548 389.741 274.944L390.22 274.7C391.069 274.198 391.766 273.448 392.184 272.516C392.454 271.917 392.61 271.246 392.61 270.523V229.068C392.605 225.02 390.447 221.282 386.943 219.263Z" fill="url(#paint1_linear_909_550)"/>
<path d="M319.121 183.042L319.841 182.682C319.592 182.78 319.348 182.904 319.121 183.042Z" fill="#CAD6F8"/>
<path d="M384.225 256.212L322.559 221.376C322.129 221.132 321.973 220.586 322.217 220.151C322.462 219.72 323.008 219.565 323.443 219.809L385.109 254.645C385.54 254.889 385.696 255.435 385.451 255.87C385.207 256.301 384.656 256.452 384.225 256.212Z" fill="#2EB8DE"/>
<path d="M385.108 263.794L338.475 237.471C338.045 237.227 337.494 237.378 337.25 237.813C337.005 238.244 337.156 238.794 337.592 239.038L384.224 265.361C384.655 265.605 385.206 265.454 385.45 265.019C385.694 264.584 385.539 264.038 385.108 263.794Z" fill="#2EB8DE"/>
<path d="M323.443 229.117L332.095 233.925C332.525 234.169 332.681 234.715 332.437 235.15C332.192 235.58 331.646 235.736 331.211 235.491L322.559 230.684C322.129 230.44 321.973 229.89 322.217 229.459C322.462 229.024 323.008 228.873 323.443 229.117Z" fill="#2EB8DE"/>
<path d="M369.63 229.561L343.485 214.629C343.054 214.385 342.899 213.834 343.143 213.404C343.387 212.973 343.934 212.818 344.369 213.062L370.514 227.99C370.945 228.234 371.101 228.784 370.856 229.215C370.612 229.654 370.066 229.805 369.63 229.561Z" fill="#2EB8DE"/>
<path d="M384.162 237.693L377.309 233.782C376.878 233.538 376.723 232.992 376.967 232.557C377.212 232.127 377.758 231.971 378.193 232.215L385.046 236.126C385.477 236.37 385.632 236.921 385.388 237.351C385.144 237.782 384.597 237.937 384.162 237.693Z" fill="#2EB8DE"/>
<path d="M335.81 217.594L385.077 245.244C385.507 245.488 385.663 246.038 385.419 246.469C385.174 246.899 384.628 247.055 384.193 246.811L334.927 219.161C334.496 218.917 334.34 218.371 334.585 217.936C334.829 217.501 335.38 217.35 335.81 217.594Z" fill="#2EB8DE"/>
<path d="M384.162 228.265L343.485 205.609C343.054 205.365 342.899 204.819 343.143 204.384C343.387 203.953 343.934 203.798 344.369 204.042L385.046 226.698C385.477 226.942 385.632 227.493 385.388 227.923C385.144 228.354 384.597 228.505 384.162 228.265Z" fill="#2EB8DE"/>
<path d="M336.523 178.572C336.523 175.762 335.026 173.17 332.592 171.767L288.949 146.585C286.701 145.289 283.895 146.909 283.895 149.501V178.438C283.895 181.253 285.4 183.854 287.843 185.257L293.19 188.155V196.256L304.515 195.013L316.782 201.956V187.192C316.782 185.368 317.754 183.881 319.118 183.05L322.937 181.137C323.195 180.978 323.466 180.844 323.745 180.733C324.301 180.516 324.9 180.4 325.513 180.4C326.317 180.4 327.143 180.605 327.92 181.053L336.523 186.016V187.227L327.396 181.963C326.806 181.621 326.175 181.452 325.513 181.452C325.042 181.452 324.576 181.541 324.127 181.714C323.905 181.799 323.692 181.905 323.492 182.034C323.452 182.061 322.662 182.456 322.662 182.456C323.137 182.562 323.608 182.731 324.061 182.993L336.523 190.184V207.353V178.572Z" fill="url(#paint2_linear_909_550)"/>
<path d="M429.452 189.105L385.808 163.923C383.561 162.627 380.754 164.247 380.754 166.84V195.777C380.754 198.591 382.259 201.192 384.707 202.595L390.054 205.493V213.594L401.379 212.351L428.342 227.608C430.589 228.895 433.387 227.275 433.387 224.687V195.914C433.382 193.1 431.886 190.508 429.452 189.105Z" fill="#E8EEFC"/>
<path d="M396.388 190.335C396.303 192.55 394.816 193.619 393.066 192.723C391.316 191.83 389.97 189.309 390.055 187.099C390.139 184.884 391.627 183.814 393.377 184.71C395.126 185.598 396.477 188.12 396.388 190.335Z" fill="#B0E9FB"/>
<path d="M410.235 198.378C410.151 200.593 408.663 201.663 406.913 200.766C405.164 199.874 403.818 197.352 403.902 195.137C403.987 192.922 405.474 191.853 407.224 192.749C408.974 193.646 410.32 196.163 410.235 198.378Z" fill="#95E4FA"/>
<path d="M424.083 206.421C423.999 208.636 422.511 209.706 420.761 208.809C419.011 207.917 417.665 205.396 417.754 203.181C417.839 200.966 419.326 199.896 421.076 200.792C422.822 201.689 424.167 204.21 424.083 206.421Z" fill="#64D9F9"/>
<path d="M329.616 45.605L285.972 20.4232C283.725 19.1271 280.918 20.7473 280.918 23.3396V52.2766C280.918 55.0909 282.424 57.692 284.866 59.0947L290.213 61.9933V70.0943L301.538 68.8514L328.501 84.1078C330.748 85.3951 333.546 83.7749 333.546 81.187V52.4142C333.546 49.6044 332.05 47.0121 329.616 45.605Z" fill="#E8EEFC"/>
<path d="M296.552 46.8346C296.467 49.0496 294.979 50.1193 293.23 49.2227C291.48 48.3305 290.134 45.8092 290.223 43.5942C290.307 41.3792 291.795 40.3094 293.545 41.2061C295.29 42.1027 296.64 44.624 296.552 46.8346Z" fill="#B0E9FB"/>
<path d="M310.399 54.8823C310.315 57.0973 308.827 58.1671 307.077 57.2704C305.328 56.3782 303.982 53.8569 304.066 51.6419C304.151 49.4269 305.638 48.3571 307.388 49.2538C309.138 50.146 310.484 52.6673 310.399 54.8823Z" fill="#95E4FA"/>
<path d="M324.247 62.9255C324.163 65.1405 322.675 66.2102 320.925 65.3136C319.175 64.4214 317.83 61.9001 317.914 59.6895C317.998 57.4745 319.486 56.4047 321.236 57.3014C322.986 58.1936 324.331 60.7105 324.247 62.9255Z" fill="#64D9F9"/>
<path d="M452.999 251.955L409.355 226.773C407.108 225.477 404.301 227.097 404.301 229.69V258.627C404.301 261.441 405.806 264.042 408.253 265.445L413.601 268.343V276.444L424.926 275.201L451.888 290.458C454.136 291.745 456.934 290.125 456.934 287.537V258.764C456.929 255.95 455.428 253.358 452.999 251.955Z" fill="#E8EEFC"/>
<path d="M419.935 253.162C419.85 255.377 418.362 256.447 416.613 255.551C414.863 254.658 413.517 252.137 413.601 249.926C413.686 247.711 415.174 246.642 416.923 247.538C418.673 248.431 420.019 250.952 419.935 253.162Z" fill="#B0E9FB"/>
<path d="M433.782 261.21C433.698 263.425 432.21 264.495 430.46 263.598C428.71 262.706 427.365 260.185 427.453 257.97C427.542 255.755 429.026 254.685 430.775 255.582C432.521 256.478 433.867 258.995 433.782 261.21Z" fill="#95E4FA"/>
<path d="M447.626 269.253C447.542 271.468 446.054 272.538 444.304 271.642C442.554 270.749 441.208 268.228 441.293 266.017C441.377 263.802 442.865 262.733 444.615 263.629C446.365 264.521 447.715 267.038 447.626 269.253Z" fill="#64D9F9"/>
<path d="M124.867 121.332V133.437L104.504 110.04L124.867 121.332Z" fill="url(#paint3_linear_909_550)"/>
<path d="M134.913 71.0752L80.6367 39.7589V40.9707L134.389 71.9852C137.56 73.814 139.527 77.2231 139.527 80.8807V122.335C139.527 123.627 138.905 124.777 137.826 125.491C137.577 125.656 137.315 125.793 137.04 125.895C136.982 125.918 136.294 126.268 136.294 126.268C135.876 127.196 135.179 127.951 134.331 128.452L137.409 126.881C137.76 126.748 138.097 126.579 138.408 126.37C139.687 125.522 140.58 124.089 140.58 122.335V80.8807C140.58 76.8369 138.421 73.0993 134.913 71.0752Z" fill="#90E2FA"/>
<path d="M134.331 128.448L133.852 128.692C134.011 128.621 134.176 128.541 134.331 128.448Z" fill="#5E81F4"/>
<path d="M131.052 73.015L80.6357 43.9226V61.212C80.6357 63.7999 77.8377 65.4201 75.5905 64.1328L60.8945 55.7078V82.6208C60.8945 86.6779 63.0663 90.4243 66.5882 92.4396L129.449 128.474C130.901 129.309 132.513 129.291 133.85 128.687L134.33 128.443C135.178 127.942 135.875 127.192 136.293 126.259C136.564 125.66 136.719 124.99 136.719 124.266V82.8116C136.719 78.7722 134.556 75.0347 131.052 73.015Z" fill="url(#paint4_linear_909_550)"/>
<path d="M128.632 109.449L66.9656 74.6129C66.5348 74.3688 66.3793 73.8228 66.6236 73.3878C66.8679 72.9572 67.4141 72.8019 67.8494 73.046L129.515 107.882C129.946 108.126 130.102 108.672 129.857 109.107C129.613 109.542 129.062 109.693 128.632 109.449Z" fill="#2EB8DE"/>
<path d="M95.6502 98.0369L129.514 117.031C129.945 117.275 130.101 117.821 129.856 118.256C129.612 118.687 129.066 118.842 128.631 118.598L94.7664 99.6039C94.3356 99.3597 94.1801 98.8093 94.4244 98.3787C94.6686 97.9437 95.2149 97.7928 95.6502 98.0369Z" fill="#2EB8DE"/>
<path d="M82.8806 90.7127L89.7334 94.6234C90.1642 94.8675 90.3197 95.4135 90.0754 95.8485C89.8311 96.2791 89.2849 96.4344 88.8496 96.1903L81.9968 92.2797C81.566 92.0355 81.4106 91.4895 81.6548 91.0545C81.8991 90.6195 82.4454 90.4686 82.8806 90.7127Z" fill="#2EB8DE"/>
<path d="M67.8494 82.3544L76.5008 87.1617C76.9316 87.4058 77.0871 87.9518 76.8428 88.3868C76.5985 88.8174 76.0523 88.9727 75.617 88.7286L66.9656 83.9213C66.5348 83.6772 66.3793 83.1267 66.6236 82.6962C66.8679 82.2656 67.4141 82.1102 67.8494 82.3544Z" fill="#2EB8DE"/>
<path d="M99.43 74.4666L87.8962 67.8704C87.4609 67.6263 87.31 67.0803 87.5542 66.6453C87.7985 66.2147 88.3447 66.0593 88.78 66.3035L100.314 72.8996C100.745 73.1438 100.9 73.6942 100.656 74.1248C100.407 74.5598 99.8608 74.7107 99.43 74.4666Z" fill="#2EB8DE"/>
<path d="M114.037 82.8028L107.184 78.8921C106.754 78.648 106.598 78.102 106.842 77.667C107.087 77.2364 107.633 77.0811 108.068 77.3252L114.921 81.2358C115.352 81.48 115.507 82.026 115.263 82.461C115.019 82.896 114.472 83.0469 114.037 82.8028Z" fill="#2EB8DE"/>
<path d="M128.568 90.9303L121.716 87.0197C121.285 86.7755 121.129 86.2296 121.374 85.7946C121.618 85.364 122.164 85.2086 122.599 85.4528L129.452 89.3634C129.883 89.6076 130.038 90.158 129.794 90.5885C129.55 91.0236 129.004 91.1745 128.568 90.9303Z" fill="#2EB8DE"/>
<path d="M80.2166 70.8311L129.483 98.4808C129.914 98.725 130.069 99.2754 129.825 99.7059C129.581 100.137 129.034 100.292 128.599 100.048L79.3328 72.398C78.902 72.1538 78.7465 71.6079 78.9908 71.1728C79.235 70.7423 79.7858 70.5869 80.2166 70.8311Z" fill="#2EB8DE"/>
<path d="M128.568 81.5021L87.8913 58.8461C87.4605 58.602 87.3051 58.056 87.5494 57.621C87.7936 57.1904 88.3399 57.035 88.7752 57.2792L129.452 79.9352C129.883 80.1794 130.038 80.7298 129.794 81.1603C129.55 81.5954 129.004 81.7463 128.568 81.5021Z" fill="#2EB8DE"/>
<path d="M63.231 36.7938C63.4575 36.6562 63.7018 36.5319 63.9505 36.4343L67.0504 34.8851C67.308 34.7253 67.5789 34.5921 67.8587 34.4812C68.4139 34.2637 69.0135 34.1482 69.6263 34.1482C70.4302 34.1482 71.2563 34.3524 72.0335 34.8008L80.6361 39.7634V32.4437C80.6361 29.6339 79.1394 27.0416 76.7056 25.6389L33.0619 0.45716C30.8147 -0.838992 28.0078 0.781198 28.0078 3.3735V32.3105C28.0078 35.1248 29.5134 37.726 31.956 39.1287L60.8905 55.7167V40.9353C60.8949 39.1109 61.8676 37.6239 63.231 36.7938Z" fill="url(#paint5_linear_909_550)"/>
<path d="M69.6247 35.1958C69.1539 35.1958 68.6876 35.2846 68.239 35.4577C68.017 35.542 67.8038 35.6486 67.604 35.7773L66.7734 36.199C67.2486 36.3011 67.7194 36.4742 68.1724 36.7361L80.6345 43.9271V40.9752L71.5078 35.7107C70.9171 35.3689 70.2864 35.1958 69.6247 35.1958Z" fill="#E8EEFC"/>
<path d="M63.2305 36.7938L63.9499 36.4342C63.7012 36.5319 63.457 36.6561 63.2305 36.7938Z" fill="#CAD6F8"/>
<path d="M67.5652 35.7995C67.8095 35.6485 68.0227 35.542 68.2447 35.4577C68.6933 35.2845 69.1596 35.1958 69.6304 35.1958C70.2877 35.1958 70.9228 35.3689 71.5135 35.7107L80.6401 40.9752V39.7634L72.0375 34.8007C71.2603 34.3524 70.4342 34.1482 69.6304 34.1482C69.0219 34.1482 68.4224 34.268 67.8628 34.4811C67.583 34.5921 67.3121 34.7252 67.0545 34.885L63.2306 36.7982C61.8672 37.6283 60.8945 39.1153 60.8945 40.9397V55.7167L73.4098 70.3872V62.8899L75.5949 64.1417C77.8422 65.429 80.6401 63.8088 80.6401 61.2209V43.9226L68.1781 36.7316C67.7251 36.4697 67.2499 36.2966 66.7791 36.1945L67.5652 35.7995Z" fill="white"/>
<path d="M48.9322 60.8481L5.28847 35.6664C3.04122 34.3702 0.234375 35.9904 0.234375 38.5827V67.5198C0.234375 70.334 1.73994 72.9352 4.18704 74.3379L30.4079 89.3679L45.3703 105.57V97.9483L47.813 99.351C50.0603 100.638 52.8582 99.0181 52.8582 96.4302V67.6574C52.8671 64.8476 51.366 62.2508 48.9322 60.8481Z" fill="#E8EEFC"/>
<path d="M14.4385 61.4785C14.3541 63.6935 12.8663 64.7633 11.1165 63.8666C9.36663 62.9744 8.02094 60.4531 8.10532 58.2381C8.18971 56.0231 9.67752 54.9533 11.4274 55.85C13.1772 56.7422 14.5273 59.2635 14.4385 61.4785Z" fill="#B0E9FB"/>
<path d="M28.286 69.5218C28.2016 71.7368 26.7138 72.8066 24.964 71.9099C23.2141 71.0177 21.8685 68.4964 21.9573 66.2858C22.0417 64.0708 23.5295 63.0011 25.2793 63.8977C27.0247 64.7899 28.3748 67.3068 28.286 69.5218Z" fill="#95E4FA"/>
<path d="M42.1338 77.565C42.0494 79.78 40.5616 80.8498 38.8118 79.9531C37.062 79.0609 35.7163 76.5396 35.8006 74.329C35.885 72.114 37.3728 71.0443 39.1227 71.9409C40.8725 72.8331 42.2182 75.35 42.1338 77.565Z" fill="#64D9F9"/>
<path d="M121.013 153.352C114.276 153.352 109 150.418 109 146.676C109 142.934 114.276 140 121.013 140C127.751 140 133.027 142.934 133.027 146.676C133.027 150.422 127.751 153.352 121.013 153.352ZM121.013 141.23C115.169 141.23 110.235 143.724 110.235 146.676C110.235 149.628 115.173 152.123 121.013 152.123C126.858 152.123 131.792 149.628 131.792 146.676C131.797 143.724 126.858 141.23 121.013 141.23Z" fill="#38C5EA"/>
<defs>
<linearGradient id="paint0_linear_909_550" x1="336.373" y1="237.968" x2="336.373" y2="250.908" gradientUnits="userSpaceOnUse">
<stop stop-color="#61D8F9"/>
<stop offset="1" stop-color="#61D8F9" stop-opacity="0"/>
</linearGradient>
<linearGradient id="paint1_linear_909_550" x1="354.698" y1="190.175" x2="354.698" y2="275.379" gradientUnits="userSpaceOnUse">
<stop stop-color="#61D8F9"/>
<stop offset="1" stop-color="#61D8F9" stop-opacity="0"/>
</linearGradient>
<linearGradient id="paint2_linear_909_550" x1="310.209" y1="146.129" x2="310.209" y2="207.353" gradientUnits="userSpaceOnUse">
<stop stop-color="#61D8F9"/>
<stop offset="1" stop-color="#61D8F9" stop-opacity="0"/>
</linearGradient>
<linearGradient id="paint3_linear_909_550" x1="114.685" y1="110.04" x2="114.685" y2="133.437" gradientUnits="userSpaceOnUse">
<stop stop-color="#61D8F9"/>
<stop offset="1" stop-color="#61D8F9" stop-opacity="0"/>
</linearGradient>
<linearGradient id="paint4_linear_909_550" x1="98.8069" y1="43.9226" x2="98.8069" y2="129.123" gradientUnits="userSpaceOnUse">
<stop stop-color="#61D8F9"/>
<stop offset="1" stop-color="#61D8F9" stop-opacity="0"/>
</linearGradient>
<linearGradient id="paint5_linear_909_550" x1="54.322" y1="0.000976562" x2="54.322" y2="55.7167" gradientUnits="userSpaceOnUse">
<stop stop-color="#61D8F9"/>
<stop offset="1" stop-color="#61D8F9" stop-opacity="0"/>
</linearGradient>
</defs>
</svg>
