<svg width="403" height="482" viewBox="0 0 403 482" fill="none" xmlns="http://www.w3.org/2000/svg">
<path d="M339.956 387.779L253.181 337.752C246.648 334.006 238.636 334.006 232.128 337.752L129.18 397.662C126.444 399.239 125.236 402.147 125.581 404.883C125.852 407.002 127.06 409.023 129.18 410.23L191.723 455.305C194.977 457.178 198.65 458.139 202.397 458.139L233.607 457.818C237.354 457.818 241.052 456.833 244.281 454.984L339.932 400.348C342.052 399.14 343.26 397.12 343.531 395C343.901 392.265 342.693 389.357 339.956 387.779Z" fill="#EDEFF8"/>
<path d="M321.789 374.373L320.31 373.609C319.077 371.046 317.055 368.754 314.27 367.152L225.152 316.114C211.766 308.45 195.249 308.45 181.863 316.114L92.7455 367.152C89.4914 369.025 87.322 371.81 86.1633 374.915H85.2266C85.2266 374.915 85.2266 389.135 85.2266 389.653C85.2266 394.039 88.3574 398.5 92.7455 400.989L181.863 452.027C195.249 459.692 211.766 459.692 225.152 452.027L314.27 400.989C318.658 398.475 321.123 394.335 321.665 389.973C321.715 389.529 321.715 381.076 321.739 380.633C321.789 380.682 321.789 374.373 321.789 374.373Z" fill="#9EB5F2"/>
<path d="M314.267 361.459L225.15 310.421C211.763 302.757 195.246 302.757 181.86 310.421L92.7428 361.459C87.0974 364.688 84.6322 370.652 85.3471 376.295C85.8894 380.657 88.3547 384.798 92.7428 387.311L181.86 438.35C195.246 446.014 211.763 446.014 225.15 438.35L314.267 387.311C318.655 384.798 321.12 380.657 321.663 376.295C322.378 370.676 319.912 364.688 314.267 361.459Z" fill="#EDEFF8"/>
<path d="M204.857 414.05C180.279 414.05 157.131 407.495 142.931 396.528C136.595 391.649 129.348 383.787 130.654 374.102C131.985 364.294 142.167 354.559 157.919 348.102C170.739 342.853 186.023 340.068 202.096 340.068C226.674 340.068 249.823 346.624 264.022 357.59C270.358 362.47 277.606 370.332 276.299 380.017C274.968 389.825 264.787 399.56 249.034 406.016C236.239 411.266 220.955 414.05 204.857 414.05ZM202.121 342.73C186.368 342.73 171.454 345.441 158.955 350.567C144.114 356.654 134.525 365.575 133.317 374.447C132.183 382.875 138.814 389.948 144.583 394.409C158.314 405.031 180.871 411.364 204.882 411.364C220.61 411.364 235.549 408.653 248.048 403.527C262.888 397.44 272.478 388.519 273.686 379.647C274.82 371.219 268.189 364.146 262.42 359.685C248.664 349.088 226.132 342.73 202.121 342.73Z" fill="white"/>
<path d="M242.95 398.623C231.856 402.665 218.643 404.809 204.689 404.809C183.415 404.809 163.397 399.781 151.17 391.402C145.869 387.755 139.78 381.939 140.865 374.891C141.974 367.621 150.627 360.351 164.013 355.471C175.107 351.429 188.32 349.285 202.274 349.285C223.548 349.285 243.566 354.313 255.793 362.717C261.094 366.364 267.183 372.18 266.098 379.228C265.013 386.498 256.36 393.744 242.95 398.623Z" fill="#B0B8E1"/>
<path d="M242.95 395.296C231.856 399.338 218.643 401.482 204.689 401.482C183.415 401.482 163.397 396.455 151.17 388.051C145.869 384.403 139.78 378.587 140.865 371.539C141.974 364.269 150.627 356.999 164.013 352.12C175.107 348.078 188.32 345.934 202.274 345.934C223.548 345.934 243.566 350.961 255.793 359.34C261.094 362.988 267.183 368.804 266.098 375.852C265.013 383.147 256.36 390.417 242.95 395.296Z" fill="#D3D8EE"/>
<path d="M121.035 162.704C131.931 163.344 162.771 163.566 171.646 156.789C175.565 153.807 188.582 97.6427 188.582 97.6427C189.025 96.2626 188.237 94.7593 186.831 94.365L176.256 91.3091C174.85 90.9148 173.421 91.7281 173.026 93.1328C171.498 98.8749 162.795 135.324 161.168 141.953C160.799 143.506 159.492 144.615 157.914 144.763C150.617 145.403 132.276 149.716 120.172 150.924C119.063 151.047 118.397 150.998 117.781 150.948C112.037 150.554 101.88 136.975 99.4887 142.224C99.4887 142.224 87.1133 145.748 92.4135 153.289C93.3257 154.571 101.412 159.697 104.099 160.19C109.621 161.2 119.63 162.63 121.035 162.704Z" fill="#FBB2B8"/>
<path d="M120.199 150.924C121.826 153.536 122.714 160.707 120.52 162.679C120.52 162.679 164.031 165.242 173.078 158.662C178.871 154.448 185.922 117.654 190.137 100.403C191.518 94.7347 187.795 89.0911 182.051 88.1054C176.924 87.2182 171.969 90.3726 170.613 95.4001C167.556 106.662 160.062 136.975 158.952 141.436C158.829 142.027 158.336 142.323 157.744 142.495C155.23 143.21 120.199 150.924 120.199 150.924Z" fill="url(#paint0_linear_909_796)"/>
<path d="M231.306 365.969C229.432 359.956 224.724 356.062 220.779 357.27C216.835 358.502 216.317 364.047 217.008 370.381C217.131 371.564 217.821 372.574 218.339 373.535C219.448 375.556 219.991 377.823 219.966 380.14C219.941 381.914 220.212 383.812 220.804 385.734C222.086 389.85 226.178 392.56 229.186 394.064C231.7 395.321 234.782 394.212 235.965 391.673C237.642 388.124 238.48 382.752 236.113 378.464C235.152 376.714 231.651 367.103 231.306 365.969Z" fill="#909BD5"/>
<path d="M184.219 362.692C183.258 363.382 181.877 365.033 180.866 366.068C178.525 368.508 175.27 369.962 171.967 371.12C167.382 372.722 163.684 373.067 161.021 372.401C158.458 371.736 157.373 368.729 158.877 366.561C160.331 364.466 163.043 361.657 166.667 358.502C168.738 356.703 170.66 355.027 172.214 353.721C174.408 351.848 175.788 349.211 176.059 346.352C176.207 344.775 176.404 343.371 176.651 343.297C182.247 341.177 190.234 342.335 191.639 345.046C191.639 345.046 193.217 353.376 193.217 355.422C193.217 356.728 192.823 358.921 190.407 359.833C188.903 360.375 186.463 361.065 184.219 362.692Z" fill="#909BD5"/>
<path d="M234.657 212.978C234.681 265.864 234.804 323.236 231.895 362.741C231.575 367.029 216.71 368.581 216.044 363.48C207.687 300.12 203.57 227.493 203.57 227.493C203.373 225.521 202.214 223.796 200.464 222.86L199.305 222.244C196.076 220.519 195.558 222.761 195.558 226.409L196.791 267.491C196.791 267.491 197.062 322.989 192.526 347.141C191.786 351.035 175.541 351.035 175.072 346.525C170.66 302.264 170.117 203.169 170.117 203.169L170.709 182.172C170.684 181.384 175.442 181.211 182.32 181.334C190.603 181.482 202.042 182.123 211.977 182.739C223.81 183.478 233.547 184.242 233.547 184.242C234.336 191.956 234.657 197.476 234.657 212.978Z" fill="#1E0068"/>
<path d="M175.567 192.942C173.916 194.199 172.289 195.037 170.316 195.579L170.686 174.656C170.662 173.867 175.419 173.695 182.297 173.818C183.357 181.532 181.089 188.752 175.567 192.942Z" fill="#323858"/>
<path d="M201.135 223.205L195.022 220.026C193.444 219.213 191.595 220.396 192.261 224.363L196.747 276.264L201.135 223.205Z" fill="#11003C"/>
<path d="M235.397 192.967C229.554 206.62 175.887 199.522 168.516 188.506L172.386 164.133C173.643 157.109 173.988 149.938 173.397 142.84L169.921 100.575C169.921 87.0211 181.852 77.6563 191.713 78.6667C193.858 78.8885 195.978 79.406 198.049 80.2932C198.838 80.589 204.853 77.3113 205.642 77.7056L212.988 81.9444L221.641 86.9472C221.863 87.0704 222.085 87.2183 222.331 87.3415C223.194 87.8344 224.008 88.3026 224.821 88.8201C235.298 95.1784 245.406 102.621 245.406 115.017L233.869 139.045L234.83 172.266C234.805 172.29 236.161 191.168 235.397 192.967Z" fill="url(#paint1_linear_909_796)"/>
<path d="M235.501 185.13C228.352 188.21 223.619 193.78 210.208 192.967C198.375 192.252 189.87 193.238 182.598 191.463L236.093 171.847L235.501 185.13Z" fill="#D1DBF9"/>
<path d="M222.304 87.3661C222.082 87.2429 221.836 87.095 221.614 86.9718L215.747 83.5709V57.6205H198.047V82.4619C198.047 82.4619 196.937 82.8069 196.444 83.0287C192.968 84.4581 190.725 86.5775 190.429 88.6969C190.158 90.767 191.736 92.4428 193.116 93.5025C196.296 95.9669 201.473 97.4209 206.995 97.4209C210.619 97.4209 214.046 96.8048 216.906 95.6219C220.381 94.1925 222.625 92.0731 222.921 89.9537C223.019 88.9926 222.773 88.1301 222.304 87.3661Z" fill="#FBB2B8"/>
<path d="M210.797 57.793C206.31 63.1408 205.324 69.7208 208.627 72.4809C211.931 75.2411 217.404 73.5899 222.729 67.7985C227.511 62.5986 228.177 56.0925 228.177 56.0925C228.177 56.0925 215.308 52.4205 210.797 57.793Z" fill="#2F246D"/>
<path d="M198.043 61.0211V81.4019C198.043 83.5213 202.357 84.8768 205.882 83.4227C211.281 81.2294 215.719 76.9906 215.719 72.4314V61.0211H198.043Z" fill="#FA9398"/>
<path d="M186.682 67.4534C189.418 81.8949 199.008 83.3736 208.055 79.1594C214.169 76.3007 219.42 71.8894 220.8 65.5311C221.712 61.4156 224.868 57.4971 225.139 54.0962C226.199 40.9855 218.039 32.2861 207.143 31.4235C182.343 29.4027 185.72 62.4506 186.682 67.4534Z" fill="#FBB2B8"/>
<path d="M229.825 42.5874C228.839 31.3497 215.625 20.7773 199.626 24.9175C191.195 27.0862 183.799 28.3677 182.518 34.6274C180.841 42.8585 187.054 47.6642 187.054 47.6642L187.3 46.6045C187.719 44.7069 189.568 43.5732 191.516 43.7457C195.583 44.1154 201.376 43.8197 205.814 45.8651C207.885 46.8263 210.301 46.4566 212.149 45.1012L215.773 42.4642L211.928 46.9002C210.843 48.157 210.572 49.9068 211.213 51.4594C211.336 51.7798 211.435 52.1494 211.533 52.4698L222.355 45.8898C224.919 44.3372 228.198 46.1855 228.198 49.1675V56.0925C229.529 52.9627 230.343 48.6253 229.825 42.5874Z" fill="#1E174F"/>
<path d="M222.33 45.8899L211.508 52.47C211.804 53.4311 212.026 54.4415 212.124 55.6244C212.297 57.7438 214.392 59.1732 216.414 58.5078C217.646 58.1135 218.805 57.5713 219.372 56.832C220.728 55.0822 222.946 54.7372 223.168 56.0434C223.785 59.4689 223.735 61.2433 223.464 62.2044C225.017 61.0708 226.841 59.1732 228.173 56.068V49.143C228.197 46.161 224.894 44.3127 222.33 45.8899Z" fill="url(#paint2_linear_909_796)"/>
<path d="M212.788 172.117C215.918 171.723 220.8 175.469 223.561 174.409L227.135 165.192L224.325 121.794L217.965 156.986L212.738 172.068C212.738 172.093 212.763 172.142 212.788 172.117Z" fill="#D1DBF9"/>
<path d="M191.003 190.823C201.776 189.147 231.975 182.887 239.247 174.385C242.452 170.639 243.34 112.996 243.34 112.996C243.488 111.542 242.403 110.261 240.948 110.162L229.953 109.398C228.499 109.3 227.266 110.409 227.192 111.863C226.897 117.777 226.083 155.261 225.886 162.088C225.837 163.665 224.801 165.045 223.297 165.513C216.296 167.682 199.286 175.74 187.7 179.486C186.64 179.831 185.974 179.93 185.382 180.004C179.688 180.817 166.893 169.703 165.661 175.322C165.661 175.322 154.296 181.384 161.075 187.619C162.234 188.679 171.232 191.981 173.968 191.907C179.54 191.735 189.623 191.045 191.003 190.823Z" fill="#FBB2B8"/>
<path d="M187.672 179.462C189.792 181.655 192.183 188.482 190.458 190.872C190.458 190.872 231.035 186.214 240.97 175.864C245.95 170.688 244.89 133.057 245.358 115.313C245.506 109.497 240.699 104.74 234.856 104.987C229.655 105.209 225.488 109.324 225.217 114.524C224.601 126.181 223.664 157.381 223.516 161.989C223.516 162.58 223.097 162.999 222.555 163.295C220.311 164.552 187.672 179.462 187.672 179.462Z" fill="url(#paint3_linear_909_796)"/>
<path d="M186.517 50.8432C188.76 53.0858 191.176 53.6526 196.526 54.4659C202.861 55.427 220.586 54.0469 220.586 54.0469L216.716 57.3492C216.05 58.0639 215.508 58.8772 215.113 59.789C213.634 63.1899 210.429 65.5558 206.707 65.9008C206.707 65.9008 191.842 68.0449 184.594 60.0355C183.83 59.0743 183.46 57.8668 183.559 56.6592L183.953 52.5929C184.076 51.4593 185.112 50.646 186.246 50.8185L186.517 50.8432Z" fill="url(#paint4_linear_909_796)"/>
<path d="M216.142 57.6945C213.899 60.849 213.751 64.5949 215.797 66.0489C217.843 67.5029 221.344 66.1228 223.587 62.9684C225.83 59.8139 225.978 56.068 223.932 54.6139C221.861 53.1599 218.361 54.54 216.142 57.6945Z" fill="#FBB2B8"/>
<path d="M201.001 61.5C196.761 61.5 193.318 60.6025 191.001 59.7646C187.229 58.4091 185.253 56.6135 185.179 56.5396C185.032 56.4163 185.057 55.994 185.181 55.8461C185.304 55.6983 185.526 55.6983 185.649 55.8215C185.723 55.8954 193.414 62.5001 207.614 59.7646C207.787 59.7153 207.959 59.8385 208.008 60.0356C208.033 60.2082 207.198 60.9507 207.001 61C204.487 61.4682 203.072 61.5 201.001 61.5Z" fill="#1E174F"/>
<path d="M109.382 208.517V234.862C109.382 239.741 104.081 242.773 99.8659 240.284L6.21235 185.204C2.36661 182.936 0 178.796 0 174.336V148.927C0 144.072 5.27556 141.041 9.49108 143.481L103.12 197.624C106.99 199.867 109.382 204.032 109.382 208.517Z" fill="url(#paint5_linear_909_796)"/>
<path d="M83.991 222.145C83.8184 222.145 83.6459 222.096 83.4733 221.997L24.8751 188.111C24.3821 187.84 24.2341 187.224 24.5053 186.731C24.7765 186.238 25.3928 186.091 25.8858 186.362L84.5087 220.272C85.0017 220.543 85.1496 221.159 84.8785 221.652C84.6813 221.973 84.3361 222.145 83.991 222.145Z" fill="#38C5EA"/>
<path d="M83.991 205.535C83.8184 205.535 83.6459 205.486 83.4733 205.387L24.8751 171.748C24.3821 171.477 24.2341 170.86 24.5053 170.368C24.7765 169.875 25.3928 169.727 25.8858 169.998L84.5087 203.662C85.0017 203.933 85.1496 204.549 84.8785 205.042C84.6813 205.362 84.3361 205.535 83.991 205.535Z" fill="#38C5EA"/>
<path d="M52.0884 179.092C51.9158 179.092 51.7433 179.042 51.5707 178.969L24.8477 163.541C24.3547 163.27 24.2068 162.654 24.478 162.161C24.7491 161.668 25.3654 161.52 25.8585 161.792L52.5814 177.219C53.0745 177.49 53.2224 178.106 52.9512 178.599C52.7787 178.895 52.4582 179.092 52.0884 179.092Z" fill="#38C5EA"/>
<path d="M72.3276 190.748C72.155 190.748 71.9825 190.699 71.8099 190.601L57.8321 182.542C57.3391 182.271 57.1912 181.655 57.4623 181.162C57.7335 180.669 58.3498 180.521 58.8429 180.792L72.8206 188.851C73.3137 189.122 73.4616 189.738 73.1904 190.231C73.0179 190.576 72.6727 190.748 72.3276 190.748Z" fill="#38C5EA"/>
<path d="M83.9908 197.427C83.8182 197.427 83.6457 197.378 83.4731 197.279L76.9649 193.533C76.4719 193.262 76.324 192.646 76.5952 192.153C76.8663 191.66 77.4826 191.513 77.9757 191.784L84.4838 195.53C84.9769 195.801 85.1248 196.417 84.8536 196.91C84.6811 197.23 84.3359 197.427 83.9908 197.427Z" fill="#38C5EA"/>
<path d="M39.4174 188.013C39.2449 188.013 39.0723 187.964 38.8997 187.865L24.922 179.806C24.4289 179.535 24.281 178.919 24.5522 178.426C24.8234 177.933 25.4397 177.785 25.9327 178.057L39.9105 186.115C40.4035 186.386 40.5514 187.002 40.2803 187.495C40.1077 187.84 39.7626 188.013 39.4174 188.013Z" fill="#38C5EA"/>
<path d="M83.9886 213.569C83.816 213.569 83.6435 213.52 83.4709 213.421L44.0274 190.847C43.5344 190.576 43.3865 189.96 43.6577 189.467C43.9288 188.974 44.5451 188.826 45.0382 189.097L84.4816 211.671C84.9747 211.942 85.1226 212.559 84.8514 213.051C84.6789 213.372 84.3337 213.569 83.9886 213.569Z" fill="#38C5EA"/>
<path opacity="0.54" d="M184.792 306.478V332.823C184.792 337.702 179.492 340.733 175.277 338.244L71.5405 277.028C67.6947 274.761 65.3281 270.621 65.3281 266.16V240.776C65.3281 235.921 70.6037 232.89 74.8192 235.33L178.531 295.585C182.401 297.852 184.792 301.993 184.792 306.478Z" fill="url(#paint6_linear_909_796)"/>
<path d="M86.4084 251.201C86.581 251.201 86.7535 251.25 86.9261 251.349L164.26 295.98C164.753 296.251 164.901 296.867 164.63 297.36C164.359 297.852 163.742 298 163.249 297.729L85.8907 253.074C85.3977 252.803 85.2498 252.187 85.5209 251.694C85.7182 251.373 86.0633 251.201 86.4084 251.201Z" fill="#38C5EA"/>
<path d="M86.4084 267.811C86.581 267.811 86.7535 267.86 86.9261 267.959L164.26 312.343C164.753 312.614 164.901 313.231 164.63 313.723C164.359 314.216 163.742 314.364 163.249 314.093L85.8907 269.684C85.3977 269.413 85.2498 268.797 85.5209 268.304C85.7182 267.984 86.0633 267.811 86.4084 267.811Z" fill="#38C5EA"/>
<path d="M118.313 294.254C118.486 294.254 118.659 294.304 118.831 294.378L164.265 320.525C164.758 320.796 164.906 321.412 164.635 321.905C164.364 322.398 163.747 322.546 163.254 322.275L117.82 296.127C117.327 295.856 117.179 295.24 117.451 294.747C117.623 294.452 117.944 294.254 118.313 294.254Z" fill="#38C5EA"/>
<path d="M98.0713 282.598C98.2438 282.598 98.4164 282.647 98.589 282.746L112.567 290.804C113.06 291.075 113.208 291.691 112.937 292.184C112.665 292.677 112.049 292.825 111.556 292.554L97.5782 284.495C97.0852 284.224 96.9373 283.608 97.2084 283.115C97.381 282.77 97.7261 282.598 98.0713 282.598Z" fill="#38C5EA"/>
<path d="M86.4111 275.919C86.5837 275.919 86.7562 275.968 86.9288 276.067L93.437 279.813C93.93 280.084 94.0779 280.7 93.8067 281.193C93.5356 281.686 92.9193 281.834 92.4262 281.563L85.9181 277.817C85.425 277.546 85.2771 276.93 85.5483 276.437C85.7208 276.116 86.066 275.919 86.4111 275.919Z" fill="#38C5EA"/>
<path d="M130.978 285.309C131.15 285.309 131.323 285.358 131.495 285.456L164.184 304.26C164.677 304.531 164.825 305.147 164.554 305.64C164.283 306.133 163.666 306.281 163.173 306.01L130.484 287.206C129.991 286.935 129.844 286.319 130.115 285.826C130.287 285.506 130.632 285.309 130.978 285.309Z" fill="#38C5EA"/>
<path d="M86.4111 259.777C86.5837 259.777 86.7562 259.827 86.9288 259.925L126.372 282.499C126.865 282.77 127.013 283.386 126.742 283.879C126.471 284.372 125.855 284.52 125.362 284.249L85.9181 261.675C85.425 261.404 85.2771 260.788 85.5483 260.295C85.7208 259.974 86.066 259.777 86.4111 259.777Z" fill="#38C5EA"/>
<path d="M353.506 159.451L280.634 201.863C276.739 204.131 274.348 208.271 274.348 212.781V227.173L300.405 212.115C304.621 209.676 309.896 212.707 309.896 217.562V229.071L356.785 201.173C360.63 198.906 362.997 194.766 362.997 190.305V164.897C362.972 160.042 357.697 157.011 353.506 159.451Z" fill="url(#paint7_linear_909_796)"/>
<path d="M274.349 239.126V227.173L251.669 240.284C247.774 242.551 245.383 246.691 245.383 251.201V311.21C245.383 316.09 250.683 319.121 254.899 316.632L303.661 287.527C307.506 285.26 309.873 281.119 309.873 276.659V229.095L283.865 244.572C279.649 247.036 274.349 244.005 274.349 239.126Z" fill="url(#paint8_linear_909_796)"/>
<path d="M300.405 212.115L274.348 227.173V239.126C274.348 244.005 279.648 247.036 283.863 244.547L309.871 229.071V217.562C309.871 212.707 304.596 209.676 300.405 212.115Z" fill="url(#paint9_linear_909_796)"/>
<path d="M300.405 212.115L274.348 227.173V239.126C274.348 244.005 279.648 247.036 283.863 244.547L309.871 229.071V217.562C309.871 212.707 304.596 209.676 300.405 212.115Z" fill="white"/>
<path d="M348.772 172.266C348.6 172.266 348.427 172.315 348.255 172.413L289.656 206.324C289.163 206.595 289.015 207.211 289.287 207.704C289.558 208.197 290.174 208.345 290.667 208.074L349.29 174.163C349.783 173.892 349.931 173.276 349.66 172.783C349.463 172.463 349.117 172.266 348.772 172.266Z" fill="#38C5EA"/>
<path d="M337.085 203.662C336.913 203.662 336.74 203.712 336.568 203.81L322.59 211.869C322.097 212.14 321.949 212.756 322.22 213.249C322.491 213.742 323.108 213.89 323.601 213.619L337.578 205.56C338.072 205.289 338.219 204.673 337.948 204.18C337.776 203.86 337.431 203.662 337.085 203.662Z" fill="#38C5EA"/>
<path d="M348.768 197.009C348.596 197.009 348.423 197.058 348.25 197.156L341.742 200.902C341.249 201.173 341.101 201.79 341.372 202.282C341.644 202.775 342.26 202.923 342.753 202.652L349.261 198.906C349.754 198.635 349.902 198.019 349.631 197.526C349.458 197.181 349.113 197.009 348.768 197.009Z" fill="#38C5EA"/>
<path d="M348.77 180.866C348.597 180.866 348.425 180.916 348.252 181.014L308.809 203.588C308.316 203.86 308.168 204.476 308.439 204.969C308.71 205.461 309.326 205.609 309.819 205.338L349.263 182.764C349.756 182.493 349.904 181.877 349.633 181.384C349.46 181.039 349.115 180.866 348.77 180.866Z" fill="#38C5EA"/>
<path d="M348.771 189.147C348.598 189.147 348.425 189.196 348.253 189.295L322.59 204.106C322.097 204.377 321.949 204.993 322.22 205.486C322.491 205.979 323.108 206.127 323.601 205.856L349.264 191.044C349.757 190.773 349.905 190.157 349.633 189.664C349.461 189.344 349.116 189.147 348.771 189.147Z" fill="#38C5EA"/>
<path d="M299.029 270.153C299.029 270.522 298.832 270.867 298.511 271.04L257.835 294.575C257.663 294.674 257.465 294.723 257.318 294.723C256.948 294.723 256.603 294.551 256.405 294.23C256.134 293.713 256.307 293.072 256.8 292.801L297.476 269.266C298.166 268.847 299.029 269.364 299.029 270.153Z" fill="#38C5EA"/>
<path d="M299.029 253.222C299.029 253.592 298.832 253.937 298.511 254.134L257.835 277.472C257.663 277.571 257.465 277.62 257.318 277.62C256.948 277.62 256.603 277.448 256.405 277.103C256.134 276.61 256.307 275.969 256.8 275.698L297.476 252.335C298.166 251.916 299.029 252.409 299.029 253.222Z" fill="#38C5EA"/>
<path d="M299.031 244.794C299.031 245.163 298.834 245.509 298.513 245.706L290.723 250.191C290.55 250.265 290.402 250.339 290.23 250.339C289.86 250.339 289.515 250.142 289.318 249.821C289.022 249.328 289.17 248.688 289.712 248.392L297.478 243.907C298.143 243.488 299.031 243.981 299.031 244.794Z" fill="#38C5EA"/>
<path d="M269.354 262.365C269.527 262.365 269.699 262.316 269.872 262.217L284.293 253.888C284.786 253.592 284.959 252.951 284.663 252.458C284.367 251.965 283.726 251.793 283.233 252.089L268.812 260.418C268.319 260.714 268.146 261.355 268.442 261.848C268.639 262.168 268.984 262.365 269.354 262.365Z" fill="#38C5EA"/>
<path d="M257.296 269.241C257.468 269.241 257.641 269.192 257.813 269.093L264.519 265.224C265.012 264.928 265.184 264.287 264.888 263.795C264.593 263.302 263.952 263.129 263.459 263.425L256.753 267.294C256.26 267.59 256.088 268.231 256.383 268.723C256.581 269.044 256.95 269.241 257.296 269.241Z" fill="#38C5EA"/>
<path d="M257.296 285.876C257.468 285.876 257.641 285.826 257.813 285.728L298.489 262.439C298.982 262.143 299.155 261.503 298.859 261.01C298.563 260.517 297.922 260.344 297.429 260.64L256.753 283.929C256.26 284.225 256.088 284.865 256.383 285.358C256.581 285.703 256.95 285.876 257.296 285.876Z" fill="#38C5EA"/>
<path d="M249.066 159.524V186.658C249.066 191.537 254.367 194.568 258.582 192.079L307.344 162.975C311.19 160.707 313.556 156.567 313.556 152.106V125.91C313.556 121.055 308.281 118.023 304.065 120.463L255.328 148.632C251.458 150.874 249.066 155.039 249.066 159.524Z" fill="url(#paint10_linear_909_796)"/>
<path d="M259.938 167.879C259.938 167.509 260.135 167.164 260.455 166.967L301.131 143.629C301.304 143.53 301.501 143.481 301.649 143.481C302.019 143.481 302.364 143.653 302.561 143.998C302.832 144.491 302.66 145.132 302.167 145.403L261.491 168.766C260.8 169.185 259.938 168.667 259.938 167.879Z" fill="#38C5EA"/>
<path d="M259.938 176.307C259.938 175.938 260.135 175.593 260.455 175.395L268.245 170.91C268.418 170.836 268.566 170.762 268.738 170.762C269.108 170.762 269.453 170.959 269.65 171.28C269.946 171.773 269.798 172.413 269.256 172.709L261.491 177.194C260.8 177.613 259.938 177.121 259.938 176.307Z" fill="#38C5EA"/>
<path d="M289.614 158.736C289.442 158.736 289.269 158.785 289.097 158.884L274.675 167.214C274.182 167.509 274.01 168.15 274.305 168.643C274.601 169.136 275.242 169.308 275.735 169.013L290.157 160.683C290.65 160.387 290.822 159.746 290.526 159.253C290.329 158.933 289.959 158.736 289.614 158.736Z" fill="#38C5EA"/>
<path d="M301.648 151.86C301.476 151.86 301.303 151.909 301.131 152.008L294.425 155.877C293.932 156.173 293.76 156.814 294.055 157.306C294.351 157.799 294.992 157.972 295.485 157.676L302.191 153.807C302.684 153.511 302.856 152.871 302.56 152.378C302.363 152.057 302.018 151.86 301.648 151.86Z" fill="#38C5EA"/>
<path d="M301.646 135.225C301.474 135.225 301.301 135.275 301.129 135.373L260.452 158.662C259.959 158.958 259.787 159.598 260.083 160.091C260.378 160.584 261.019 160.757 261.513 160.461L302.189 137.172C302.682 136.876 302.854 136.236 302.558 135.743C302.361 135.398 302.016 135.225 301.646 135.225Z" fill="#38C5EA"/>
<path opacity="0.54" d="M197.808 120.118V147.252C197.808 152.131 192.507 155.162 188.292 152.673L139.505 123.568C135.66 121.301 133.293 117.161 133.293 112.7V86.5035C133.293 81.6485 138.569 78.6173 142.784 81.0571L191.521 109.225C195.416 111.468 197.808 115.633 197.808 120.118Z" fill="url(#paint11_linear_909_796)"/>
<path d="M144.164 96.8541C144.164 97.2238 144.361 97.5688 144.682 97.766L152.472 102.251C152.644 102.325 152.792 102.399 152.965 102.399C153.335 102.399 153.68 102.202 153.877 101.882C154.173 101.389 154.025 100.748 153.483 100.452L145.717 95.9669C145.052 95.548 144.164 96.0655 144.164 96.8541Z" fill="#C1C7E7"/>
<path opacity="0.54" d="M179.89 214.333L177.178 212.805V220.642C177.178 225.521 171.878 228.553 167.662 226.064L135.984 207.359V250.24C135.984 254.133 138.055 257.756 141.408 259.752L177.055 281.144C180.728 283.312 185.387 280.675 185.387 276.387V223.87C185.387 219.952 183.292 216.305 179.89 214.333Z" fill="url(#paint12_linear_909_796)"/>
<path opacity="0.54" d="M144.265 193.78L177.175 212.805V162.555C177.175 158.07 174.784 153.905 170.889 151.638L67.202 91.4075C62.9865 88.9678 57.7109 91.999 57.7109 96.8539V154.004C57.7109 158.465 60.0775 162.605 63.9233 164.872L135.982 207.383V198.561C135.982 194.297 140.592 191.636 144.265 193.78Z" fill="url(#paint13_linear_909_796)"/>
<path d="M177.178 220.642V212.805L144.268 193.78C140.594 191.636 135.984 194.297 135.984 198.561V207.384L167.662 226.088C171.878 228.553 177.178 225.522 177.178 220.642Z" fill="white"/>
<path d="M75.3877 108.609C75.5602 108.609 75.7328 108.659 75.9054 108.757L154.792 154.472C155.285 154.743 155.433 155.36 155.162 155.852C154.891 156.345 154.275 156.493 153.782 156.222L74.8946 110.507C74.4016 110.236 74.2537 109.62 74.5248 109.127C74.6974 108.807 75.0179 108.609 75.3877 108.609Z" fill="#38C5EA"/>
<path d="M75.3877 125.22C75.5602 125.22 75.7328 125.269 75.9054 125.367L154.792 170.836C155.285 171.107 155.433 171.723 155.162 172.216C154.891 172.709 154.275 172.857 153.782 172.586L74.8946 127.117C74.4016 126.846 74.2537 126.23 74.5248 125.737C74.6974 125.417 75.0179 125.22 75.3877 125.22Z" fill="#38C5EA"/>
<path d="M127.552 163.492C127.724 163.492 127.897 163.541 128.069 163.615L154.792 179.043C155.285 179.314 155.433 179.93 155.162 180.423C154.891 180.916 154.275 181.063 153.782 180.792L127.059 165.365C126.566 165.094 126.418 164.478 126.689 163.985C126.861 163.689 127.207 163.492 127.552 163.492Z" fill="#38C5EA"/>
<path d="M107.31 151.835C107.482 151.835 107.655 151.885 107.827 151.983L121.805 160.042C122.298 160.313 122.446 160.929 122.175 161.422C121.904 161.915 121.287 162.063 120.794 161.792L106.817 153.733C106.323 153.462 106.176 152.846 106.447 152.353C106.619 152.008 106.964 151.835 107.31 151.835Z" fill="#38C5EA"/>
<path d="M75.3877 133.352C75.5602 133.352 75.7328 133.402 75.9054 133.5L102.678 149.051C103.171 149.322 103.319 149.938 103.047 150.431C102.776 150.924 102.16 151.072 101.667 150.8L74.8946 135.25C74.4016 134.979 74.2537 134.363 74.5248 133.87C74.6974 133.525 75.0179 133.352 75.3877 133.352Z" fill="#38C5EA"/>
<path d="M75.3877 160.239C75.5602 160.239 75.7328 160.289 75.9054 160.387L102.678 175.938C103.171 176.209 103.319 176.825 103.047 177.318C102.776 177.811 102.16 177.958 101.667 177.687L74.8946 162.137C74.4016 161.866 74.2537 161.25 74.5248 160.757C74.6974 160.412 75.0179 160.239 75.3877 160.239Z" fill="#38C5EA"/>
<path d="M140.216 154.546C140.388 154.546 140.561 154.595 140.733 154.694L154.711 162.753C155.204 163.024 155.352 163.64 155.081 164.133C154.81 164.626 154.194 164.773 153.701 164.502L139.723 156.444C139.23 156.173 139.082 155.557 139.353 155.064C139.526 154.743 139.871 154.546 140.216 154.546Z" fill="#38C5EA"/>
<path d="M75.385 117.21C75.5575 117.21 75.7301 117.259 75.9027 117.358L135.635 151.737C136.128 152.008 136.276 152.624 136.005 153.117C135.733 153.61 135.117 153.758 134.624 153.486L74.8673 119.108C74.3742 118.837 74.2263 118.22 74.4975 117.728C74.6947 117.383 75.0152 117.21 75.385 117.21Z" fill="#38C5EA"/>
<path d="M75.3877 142.002C75.5602 142.002 75.7328 142.052 75.9054 142.15L154.792 187.865C155.285 188.136 155.433 188.753 155.162 189.245C154.891 189.738 154.275 189.886 153.782 189.615L74.8946 143.9C74.4016 143.629 74.2537 143.013 74.5248 142.52C74.6974 142.175 75.0179 142.002 75.3877 142.002Z" fill="#38C5EA"/>
<path d="M75.385 150.603C75.5575 150.603 75.7301 150.652 75.9027 150.751L135.635 185.13C136.128 185.401 136.276 186.017 136.005 186.51C135.733 187.003 135.117 187.151 134.624 186.879L74.8673 152.476C74.3742 152.205 74.2263 151.589 74.4975 151.096C74.6947 150.776 75.0152 150.603 75.385 150.603Z" fill="#38C5EA"/>
<path d="M144.926 222.047C144.926 222.416 145.123 222.761 145.443 222.959L153.234 227.444C153.406 227.518 153.554 227.592 153.727 227.592C154.096 227.592 154.442 227.395 154.639 227.074C154.935 226.581 154.787 225.941 154.244 225.645L146.504 221.16C145.813 220.741 144.926 221.258 144.926 222.047Z" fill="#C1C7E7"/>
<path d="M257.908 124.751C259.93 121.203 263.307 119.354 265.452 120.661C267.621 121.967 267.744 125.91 265.723 129.459C263.948 132.588 260.62 135.028 258.179 133.549C256.01 132.243 255.887 128.3 257.908 124.751Z" fill="url(#paint14_linear_909_796)"/>
<path d="M280.272 76.3747C281.382 74.4278 283.206 73.4174 284.389 74.1321C285.572 74.8468 285.646 76.9908 284.537 78.9377C283.576 80.6382 281.751 81.969 280.42 81.1803C279.237 80.4903 279.163 78.3216 280.272 76.3747Z" fill="url(#paint15_linear_909_796)"/>
<path d="M53.2518 252.581C52.1425 250.634 50.3182 249.624 49.1349 250.338C47.9516 251.053 47.8777 253.197 48.987 255.144C49.9485 256.869 51.7727 258.175 53.1039 257.387C54.2872 256.672 54.3612 254.528 53.2518 252.581Z" fill="url(#paint16_linear_909_796)"/>
<path d="M118.208 99.5404C116.458 96.4599 113.549 94.858 111.675 95.9916C109.802 97.1252 109.703 100.526 111.429 103.607C112.957 106.318 115.866 108.412 117.962 107.155C119.835 106.022 119.934 102.621 118.208 99.5404Z" fill="url(#paint17_linear_909_796)"/>
<path d="M251.154 210.785C254.112 205.56 259.067 202.874 262.222 204.771C265.378 206.669 265.575 212.46 262.617 217.685C260.028 222.293 255.123 225.842 251.548 223.698C248.393 221.776 248.22 216.009 251.154 210.785Z" fill="url(#paint18_linear_909_796)"/>
<path d="M48.1194 237.696L45.5309 236.168C45.4816 233.999 44.7914 231.584 43.5341 229.366C41.7838 226.261 39.1707 223.92 36.7301 223.279C35.5715 222.983 34.5854 223.057 33.7965 223.575C32.5639 224.289 31.8736 225.965 31.849 228.134L29.2852 226.631C29.581 224.142 30.6657 222.342 32.3913 221.258C33.8212 220.396 35.5715 220.198 37.4204 220.667C40.5759 221.529 43.7313 224.265 45.8514 228.035C47.6264 231.19 48.4399 234.689 48.1194 237.696Z" fill="url(#paint19_linear_909_796)"/>
<path d="M339.954 157.085C339.757 155.458 339.042 154.226 337.859 153.487C336.873 152.895 335.689 152.772 334.457 153.092C332.411 153.634 330.389 155.409 329.033 157.799C327.924 159.796 327.382 162.038 327.579 163.96L327.653 164.577L329.97 163.221V162.999C329.995 161.718 330.414 160.288 331.153 159.007C332.189 157.183 333.693 155.828 335.098 155.458C335.714 155.286 336.207 155.335 336.602 155.606C337.218 155.976 337.588 156.863 337.612 158.07V158.76L340.004 157.356L339.954 157.085Z" fill="url(#paint20_linear_909_796)"/>
<path d="M145.737 104.396C145.046 104.002 144.184 104.495 144.184 105.308C144.184 105.678 144.381 106.023 144.701 106.22L164.867 117.803L165.384 115.708L145.737 104.396Z" fill="#C1C7E7"/>
<path d="M185.898 129.68C186.268 129.68 186.613 129.508 186.81 129.163C187.082 128.67 186.909 128.029 186.416 127.758L165.412 115.682L164.895 117.777L185.381 129.533C185.528 129.656 185.726 129.68 185.898 129.68Z" fill="#38C5EA"/>
<path d="M159.962 104.174C159.469 103.903 158.828 104.05 158.532 104.543C158.236 105.036 158.409 105.677 158.902 105.973L166.692 110.483L167.209 108.388L159.962 104.174Z" fill="#C1C7E7"/>
<path d="M173.846 114.426C174.216 114.426 174.561 114.228 174.758 113.908C175.054 113.415 174.881 112.774 174.388 112.479L167.264 108.363L166.746 110.458L173.353 114.278C173.501 114.376 173.673 114.426 173.846 114.426Z" fill="#38C5EA"/>
<path d="M178.68 117.284L185.385 121.154C185.558 121.252 185.73 121.301 185.903 121.301C186.273 121.301 186.618 121.104 186.815 120.784C187.111 120.291 186.938 119.65 186.445 119.354L179.74 115.485C179.247 115.19 178.606 115.362 178.31 115.855C177.99 116.373 178.162 117.013 178.68 117.284Z" fill="#38C5EA"/>
<path d="M186.417 136.014L163.565 122.928L163.047 125.023L185.382 137.813C185.554 137.911 185.727 137.961 185.899 137.961C186.269 137.961 186.614 137.764 186.812 137.443C187.083 136.926 186.91 136.285 186.417 136.014Z" fill="#38C5EA"/>
<path d="M145.739 112.725C145.246 112.429 144.605 112.602 144.309 113.095C144.013 113.588 144.186 114.229 144.679 114.524L163.045 125.023L163.563 122.928L145.739 112.725Z" fill="#C1C7E7"/>
<path d="M146.483 246.518C145.793 246.124 144.93 246.617 144.93 247.406C144.93 247.775 145.127 248.12 145.447 248.293L171.061 263.079L171.012 260.664L146.483 246.518Z" fill="#38C5EA"/>
<path d="M175.921 263.498L171.016 260.664L171.065 263.079L174.861 265.273C175.034 265.371 175.231 265.42 175.379 265.42C175.749 265.42 176.094 265.248 176.291 264.928C176.587 264.41 176.414 263.769 175.921 263.498Z" fill="#38C5EA"/>
<path d="M146.483 229.589C145.793 229.194 144.93 229.687 144.93 230.501C144.93 230.87 145.127 231.215 145.447 231.412L170.642 245.78L170.593 243.34L146.483 229.589Z" fill="#38C5EA"/>
<path d="M175.401 248.318C175.771 248.318 176.116 248.145 176.313 247.8C176.584 247.307 176.412 246.666 175.919 246.395L170.594 243.339L170.643 245.755L174.859 248.17C175.031 248.293 175.228 248.318 175.401 248.318Z" fill="#38C5EA"/>
<path d="M160.708 229.366C160.215 229.095 159.574 229.243 159.278 229.736C158.982 230.229 159.155 230.869 159.648 231.165L170.421 237.375L170.371 234.936L160.708 229.366Z" fill="#38C5EA"/>
<path d="M174.618 239.618C174.988 239.618 175.333 239.421 175.53 239.101C175.826 238.608 175.653 237.967 175.16 237.671L170.402 234.936L170.452 237.376L174.1 239.47C174.273 239.569 174.445 239.618 174.618 239.618Z" fill="#38C5EA"/>
<path d="M146.485 237.918C145.992 237.622 145.351 237.795 145.055 238.287C144.76 238.78 144.932 239.421 145.425 239.717L170.842 254.158L170.792 251.719L146.485 237.918Z" fill="#38C5EA"/>
<path d="M175.402 256.573C175.771 256.573 176.117 256.376 176.314 256.056C176.61 255.563 176.437 254.922 175.944 254.626L170.816 251.718L170.866 254.158L174.884 256.45C175.057 256.549 175.229 256.573 175.402 256.573Z" fill="#38C5EA"/>
<defs>
<linearGradient id="paint0_linear_909_796" x1="120.187" y1="125.547" x2="190.401" y2="125.547" gradientUnits="userSpaceOnUse">
<stop stop-color="#E8EEFC"/>
<stop offset="1" stop-color="#CED9F9"/>
</linearGradient>
<linearGradient id="paint1_linear_909_796" x1="206.943" y1="200.474" x2="206.943" y2="77.6765" gradientUnits="userSpaceOnUse">
<stop stop-color="#E8EEFC"/>
<stop offset="1" stop-color="#CAD6F8"/>
</linearGradient>
<linearGradient id="paint2_linear_909_796" x1="210.534" y1="48.4855" x2="228.261" y2="54.5713" gradientUnits="userSpaceOnUse">
<stop stop-color="#2ACAF7"/>
<stop offset="1" stop-color="#98DAEC"/>
</linearGradient>
<linearGradient id="paint3_linear_909_796" x1="187.682" y1="147.949" x2="245.395" y2="147.949" gradientUnits="userSpaceOnUse">
<stop stop-color="#E7EDFC"/>
<stop offset="1" stop-color="#CFDAF9"/>
</linearGradient>
<linearGradient id="paint4_linear_909_796" x1="181.379" y1="53.6811" x2="207.232" y2="75.3686" gradientUnits="userSpaceOnUse">
<stop stop-color="#2ACAF7"/>
<stop offset="1" stop-color="#98DAEC"/>
</linearGradient>
<linearGradient id="paint5_linear_909_796" x1="0" y1="191.895" x2="109.383" y2="191.895" gradientUnits="userSpaceOnUse">
<stop stop-color="#EDEDF8"/>
<stop offset="0.5808" stop-color="#EBEBF7"/>
<stop offset="0.79" stop-color="#E4E6F5"/>
<stop offset="0.9386" stop-color="#D9DBF0"/>
<stop offset="1" stop-color="#D1D5ED"/>
</linearGradient>
<linearGradient id="paint6_linear_909_796" x1="65.3321" y1="286.811" x2="184.793" y2="286.811" gradientUnits="userSpaceOnUse">
<stop stop-color="#EDEDF8"/>
<stop offset="0.5808" stop-color="#EBEBF7"/>
<stop offset="0.79" stop-color="#E4E6F5"/>
<stop offset="0.9386" stop-color="#D9DBF0"/>
<stop offset="1" stop-color="#D1D5ED"/>
</linearGradient>
<linearGradient id="paint7_linear_909_796" x1="274.346" y1="193.828" x2="362.974" y2="193.828" gradientUnits="userSpaceOnUse">
<stop stop-color="#EDEDF8"/>
<stop offset="0.5808" stop-color="#EBEBF7"/>
<stop offset="0.79" stop-color="#E4E6F5"/>
<stop offset="0.9386" stop-color="#D9DBF0"/>
<stop offset="1" stop-color="#D1D5ED"/>
</linearGradient>
<linearGradient id="paint8_linear_909_796" x1="245.395" y1="272.333" x2="309.883" y2="272.333" gradientUnits="userSpaceOnUse">
<stop stop-color="#EDEDF8"/>
<stop offset="0.5808" stop-color="#EBEBF7"/>
<stop offset="0.79" stop-color="#E4E6F5"/>
<stop offset="0.9386" stop-color="#D9DBF0"/>
<stop offset="1" stop-color="#D1D5ED"/>
</linearGradient>
<linearGradient id="paint9_linear_909_796" x1="274.346" y1="228.344" x2="362.974" y2="228.344" gradientUnits="userSpaceOnUse">
<stop stop-color="#EDEDF8"/>
<stop offset="0.5808" stop-color="#EBEBF7"/>
<stop offset="0.79" stop-color="#E4E6F5"/>
<stop offset="0.9386" stop-color="#D9DBF0"/>
<stop offset="1" stop-color="#D1D5ED"/>
</linearGradient>
<linearGradient id="paint10_linear_909_796" x1="249.072" y1="156.287" x2="313.559" y2="156.287" gradientUnits="userSpaceOnUse">
<stop stop-color="#EDEDF8"/>
<stop offset="0.5808" stop-color="#EBEBF7"/>
<stop offset="0.79" stop-color="#E4E6F5"/>
<stop offset="0.9386" stop-color="#D9DBF0"/>
<stop offset="1" stop-color="#D1D5ED"/>
</linearGradient>
<linearGradient id="paint11_linear_909_796" x1="133.308" y1="116.882" x2="197.796" y2="116.882" gradientUnits="userSpaceOnUse">
<stop stop-color="#EDEDF8"/>
<stop offset="0.5808" stop-color="#EBEBF7"/>
<stop offset="0.79" stop-color="#E4E6F5"/>
<stop offset="0.9386" stop-color="#D9DBF0"/>
<stop offset="1" stop-color="#D1D5ED"/>
</linearGradient>
<linearGradient id="paint12_linear_909_796" x1="135.985" y1="244.639" x2="185.393" y2="244.639" gradientUnits="userSpaceOnUse">
<stop stop-color="#EDEDF8"/>
<stop offset="0.5808" stop-color="#EBEBF7"/>
<stop offset="0.79" stop-color="#E4E6F5"/>
<stop offset="0.9386" stop-color="#D9DBF0"/>
<stop offset="1" stop-color="#D1D5ED"/>
</linearGradient>
<linearGradient id="paint13_linear_909_796" x1="57.7255" y1="151.67" x2="177.186" y2="151.67" gradientUnits="userSpaceOnUse">
<stop stop-color="#EDEDF8"/>
<stop offset="0.5808" stop-color="#EBEBF7"/>
<stop offset="0.79" stop-color="#E4E6F5"/>
<stop offset="0.9386" stop-color="#D9DBF0"/>
<stop offset="1" stop-color="#D1D5ED"/>
</linearGradient>
<linearGradient id="paint14_linear_909_796" x1="255.844" y1="122.823" x2="267.692" y2="126.029" gradientUnits="userSpaceOnUse">
<stop stop-color="#2ACAF7"/>
<stop offset="1" stop-color="#98DAEC"/>
</linearGradient>
<linearGradient id="paint15_linear_909_796" x1="279.143" y1="75.313" x2="285.614" y2="77.0639" gradientUnits="userSpaceOnUse">
<stop stop-color="#2ACAF7"/>
<stop offset="1" stop-color="#98DAEC"/>
</linearGradient>
<linearGradient id="paint16_linear_909_796" x1="47.8581" y1="251.52" x2="54.3291" y2="253.27" gradientUnits="userSpaceOnUse">
<stop stop-color="#2ACAF7"/>
<stop offset="1" stop-color="#98DAEC"/>
</linearGradient>
<linearGradient id="paint17_linear_909_796" x1="109.66" y1="97.8624" x2="119.898" y2="100.628" gradientUnits="userSpaceOnUse">
<stop stop-color="#2ACAF7"/>
<stop offset="1" stop-color="#98DAEC"/>
</linearGradient>
<linearGradient id="paint18_linear_909_796" x1="257" y1="204" x2="266.408" y2="217.39" gradientUnits="userSpaceOnUse">
<stop stop-color="#2ACAF7"/>
<stop offset="1" stop-color="#98DAEC"/>
</linearGradient>
<linearGradient id="paint19_linear_909_796" x1="28.181" y1="223.664" x2="47.8117" y2="231.138" gradientUnits="userSpaceOnUse">
<stop stop-color="#2ACAF7"/>
<stop offset="1" stop-color="#98DAEC"/>
</linearGradient>
<linearGradient id="paint20_linear_909_796" x1="326.811" y1="155.109" x2="339.829" y2="159.953" gradientUnits="userSpaceOnUse">
<stop stop-color="#2ACAF7"/>
<stop offset="1" stop-color="#98DAEC"/>
</linearGradient>
</defs>
</svg>
