<svg width="141" height="120" viewBox="0 0 141 120" fill="none" xmlns="http://www.w3.org/2000/svg">
<g clip-path="url(#clip0_909_170)">
<path d="M126.883 105.533C109.446 126.742 81.5495 124.283 65.1836 99.292C48.8177 74.2969 49.6822 36.8423 67.1151 15.6329C84.5526 -5.57643 111.954 -2.50748 128.324 22.4832C144.69 47.4828 144.321 84.3281 126.883 105.533Z" fill="#3C3B95"/>
<path d="M122.274 104.05C105.193 124.829 78.3407 121.823 62.3035 97.3341C46.2662 72.8453 47.1126 36.1478 64.1989 15.3641C81.2807 -5.41518 108.128 -2.40895 124.165 22.0844C140.207 46.5733 139.356 83.2707 122.274 104.05Z" fill="url(#paint0_linear_909_170)"/>
<path d="M98.6336 118.391C96.9947 118.561 95.3379 118.602 93.6675 118.512C81.5923 117.863 69.9493 110.278 61.7191 97.715C45.5513 73.0335 46.4247 35.8969 63.6551 14.9295C71.5747 5.29706 81.9255 0.319541 92.8031 0.901969C104.878 1.5516 116.521 9.13213 124.751 21.6991C140.915 46.3851 140.046 83.5217 122.811 104.485C116.112 112.639 107.67 117.459 98.6336 118.391ZM87.9946 2.40732C79.3276 3.29889 71.2055 7.94935 64.7401 15.8077C47.861 36.3405 47.0325 72.7423 62.8897 96.9578C70.8723 109.153 82.1191 116.501 93.744 117.123C104.171 117.683 114.104 112.885 121.73 103.611C138.61 83.0781 139.438 46.6764 123.581 22.4608C115.598 10.2656 104.356 2.91807 92.7265 2.29532C91.1372 2.21019 89.5569 2.24603 87.9946 2.40732Z" fill="white"/>
<path d="M118.124 97.7151C103.483 115.528 80.4714 112.952 66.7258 91.9625C52.9802 70.9727 53.7096 39.517 68.3511 21.7037C82.9927 3.89034 106.004 6.46647 119.75 27.4563C133.495 48.4461 132.77 79.9062 118.124 97.7151Z" fill="white"/>
<path d="M113.975 91.38C101.773 106.223 82.5935 104.077 71.1397 86.5817C59.6858 69.0909 60.2891 42.8772 72.4949 28.0342C84.6961 13.1913 103.876 15.3373 115.33 32.8325C126.784 50.3233 126.176 76.5415 113.975 91.38Z" fill="url(#paint1_linear_909_170)"/>
<path d="M97.1105 101.823C95.9309 101.944 94.7378 101.976 93.5312 101.913C84.8417 101.443 76.4674 95.9991 70.5559 86.967C58.9669 69.2701 59.5927 42.6397 71.9561 27.5996C77.6515 20.6732 85.0984 17.089 92.9369 17.5146C101.626 17.9761 110.001 23.4285 115.912 32.4562C127.506 50.153 126.875 76.7879 114.516 91.8235C109.699 97.6837 103.616 101.151 97.1105 101.823ZM89.5106 18.9752C83.3695 19.6114 77.6155 22.9043 73.0367 28.4732C61.0335 43.0788 60.4437 68.9744 71.7265 86.2009C77.3949 94.8611 85.3685 100.076 93.6077 100.52C100.983 100.918 108.029 97.5179 113.436 90.9364C125.439 76.3354 126.029 50.4398 114.746 33.2088C109.078 24.5575 101.104 19.3336 92.8604 18.8901C91.7348 18.8363 90.6182 18.8632 89.5106 18.9752Z" fill="white"/>
<path d="M109.829 85.045C100.068 96.9175 84.7242 95.2016 75.562 81.2099C66.3998 67.2137 66.886 46.2463 76.6471 34.3692C86.4081 22.4922 101.752 24.2126 110.914 38.2043C120.076 52.2005 119.59 73.1724 109.829 85.045Z" fill="white"/>
<path d="M105.681 78.7145C98.3605 87.6211 86.8526 86.3308 79.982 75.8337C73.107 65.3365 73.4717 49.611 80.7924 40.7043C88.1132 31.7976 99.6211 33.0879 106.492 43.5806C113.367 54.0777 113.006 69.8033 105.681 78.7145Z" fill="url(#paint2_linear_909_170)"/>
<path d="M95.5942 85.251C94.8693 85.3227 94.1399 85.3451 93.4015 85.3048C88.0978 85.0181 82.9922 81.7072 79.3993 76.2144C72.3847 65.4978 72.7674 49.3735 80.2548 40.2607C83.7306 36.0403 88.2824 33.8495 93.0774 34.1094C98.3766 34.3961 103.487 37.7114 107.08 43.2042C114.094 53.9164 113.711 70.0407 106.224 79.149C103.28 82.7287 99.5697 84.8433 95.5942 85.251ZM91.0333 35.5475C87.4225 35.9194 84.0322 37.8593 81.3308 41.1433C74.2037 49.817 73.857 65.211 80.5609 75.4573C83.9151 80.5737 88.6201 83.6561 93.4736 83.9159C97.8093 84.1489 101.951 82.1462 105.139 78.2709C112.271 69.6016 112.613 54.2076 105.904 43.9658C102.555 38.8494 97.8498 35.7626 92.9918 35.4982C92.339 35.4624 91.6816 35.4758 91.0333 35.5475Z" fill="white"/>
<path d="M101.533 72.3794C96.6529 78.3157 88.9809 77.4599 84.4021 70.4618C79.8187 63.4637 80.0618 52.98 84.9424 47.0392C89.8229 41.1029 97.4948 41.9631 102.078 48.9568C106.662 55.9549 106.414 66.4386 101.533 72.3794Z" fill="white"/>
<path d="M67.4732 91.4785C53.7276 70.4931 54.4525 39.033 69.0985 21.2197C71.4893 18.312 74.1006 15.9554 76.8605 14.1275C73.826 16.0182 70.958 18.536 68.3511 21.7036C53.7096 39.5124 52.9802 70.968 66.7258 91.9623C78.2292 109.529 96.2205 114.198 110.367 104.816C96.3375 113.544 78.774 108.736 67.4732 91.4785Z" fill="#CDCFD0"/>
<path d="M76.3094 80.7261C67.1472 66.7343 67.6334 45.7669 77.3944 33.8899C78.9117 32.044 80.5596 30.5297 82.2975 29.338C80.2804 30.5969 78.3759 32.2635 76.6471 34.3692C66.886 46.2463 66.3998 67.2137 75.562 81.2099C83.306 93.0332 95.4532 96.0887 104.926 89.5969C95.5703 95.4346 83.8463 92.2447 76.3094 80.7261Z" fill="#CDCFD0"/>
<path d="M85.1495 69.978C80.5661 62.9844 80.8092 52.4962 85.6897 46.5599C86.4146 45.6773 87.207 44.9425 88.0354 44.3601C86.9279 45.0053 85.8833 45.8968 84.9424 47.0393C80.0618 52.9756 79.8187 63.4638 84.4021 70.4618C88.3011 76.4161 94.4377 77.9214 99.1877 74.5792C94.5548 77.2718 88.8459 75.6231 85.1495 69.978Z" fill="#CDCFD0"/>
<path d="M97.3861 66.0445C94.9459 69.0104 91.1099 68.5803 88.8182 65.0813C86.5265 61.5822 86.6481 56.3448 89.0884 53.3745C91.5286 50.4085 95.3646 50.8342 97.6563 54.3332C99.9479 57.8323 99.8264 63.0741 97.3861 66.0445Z" fill="url(#paint3_linear_909_170)"/>
<path d="M94.074 68.6833C93.8083 68.7102 93.5382 68.7191 93.2681 68.7012C91.3501 68.5982 89.5176 67.4199 88.2345 65.462C85.7942 61.7345 85.9338 56.1118 88.5496 52.9308C89.8058 51.4031 91.4716 50.6146 93.2095 50.7087C95.1275 50.8117 96.9645 51.9945 98.2431 53.9523C100.683 57.6754 100.544 63.2981 97.928 66.479C96.8654 67.7738 95.5237 68.5354 94.074 68.6833ZM92.5567 52.1154C91.4761 52.2275 90.4541 52.8144 89.6347 53.8134C87.3745 56.5598 87.271 61.4522 89.4096 64.7093C90.4451 66.2864 91.8814 67.2407 93.3491 67.3213C94.6413 67.384 95.8884 66.7837 96.8519 65.6054C99.1121 62.8545 99.2111 57.9756 97.077 54.7185C96.0415 53.1325 94.6052 52.1826 93.1375 52.102C92.9394 52.0886 92.7458 52.0975 92.5567 52.1154Z" fill="white"/>
<path d="M39.2383 22.7513L38.2539 24.252L93.2655 59.9837L94.2498 58.483L39.2383 22.7513Z" fill="#1B1356"/>
<path d="M40.3638 23.7512L35.4563 13.6304L25.6097 7.23712L27.5007 16.1931L18.4961 18.0793L28.3427 24.4725L39.63 24.8713L40.3638 23.7512Z" fill="url(#paint4_linear_909_170)"/>
<path d="M20 66.2728L85.6888 67.0299L85.7113 65.2378L20.018 64.4762L20 66.2728Z" fill="#1B1356"/>
<path d="M21.5076 64.7226L11.9086 58.8087L0.148576 58.6698L6.57788 65.2199L0 71.6176L11.76 71.752L21.4941 66.0622L21.5076 64.7226Z" fill="url(#paint5_linear_909_170)"/>
<path d="M76.4452 97.7777L105.098 77.1194L104.188 75.6185L75.5312 96.2768L76.4452 97.7777Z" fill="#1B1356"/>
<path d="M76.7749 95.6629L66.5186 96.0348L57.6445 102.41L65.8522 104.31L64.2404 113.261L73.1145 106.886L77.4547 96.783L76.7749 95.6629Z" fill="url(#paint6_linear_909_170)"/>
</g>
<defs>
<linearGradient id="paint0_linear_909_170" x1="51.1317" y1="64.051" x2="135.333" y2="55.2805" gradientUnits="userSpaceOnUse">
<stop offset="8e-08" stop-color="#1E0068"/>
<stop offset="1" stop-color="#3C3B95"/>
</linearGradient>
<linearGradient id="paint1_linear_909_170" x1="63.1595" y1="62.8117" x2="123.304" y2="56.547" gradientUnits="userSpaceOnUse">
<stop offset="8e-08" stop-color="#1E0068"/>
<stop offset="1" stop-color="#3C3B95"/>
</linearGradient>
<linearGradient id="paint2_linear_909_170" x1="72.9305" y1="44.1457" x2="113.554" y2="54.4578" gradientUnits="userSpaceOnUse">
<stop stop-color="#2ACAF7"/>
<stop offset="1" stop-color="#98DAEC"/>
</linearGradient>
<linearGradient id="paint3_linear_909_170" x1="86.4677" y1="54.5217" x2="100.009" y2="57.9602" gradientUnits="userSpaceOnUse">
<stop stop-color="#2ACAF7"/>
<stop offset="1" stop-color="#98DAEC"/>
</linearGradient>
<linearGradient id="paint4_linear_909_170" x1="17.2188" y1="10.5488" x2="39.1389" y2="20.0077" gradientUnits="userSpaceOnUse">
<stop stop-color="#2ACAF7"/>
<stop offset="1" stop-color="#98DAEC"/>
</linearGradient>
<linearGradient id="paint5_linear_909_170" x1="-1.25628" y1="61.1266" x2="18.0114" y2="72.1493" gradientUnits="userSpaceOnUse">
<stop stop-color="#2ACAF7"/>
<stop offset="1" stop-color="#98DAEC"/>
</linearGradient>
<linearGradient id="paint6_linear_909_170" x1="56.4874" y1="98.9678" x2="76.9092" y2="106.967" gradientUnits="userSpaceOnUse">
<stop stop-color="#2ACAF7"/>
<stop offset="1" stop-color="#98DAEC"/>
</linearGradient>
<clipPath id="clip0_909_170">
<rect width="140.571" height="120" fill="white"/>
</clipPath>
</defs>
</svg>
