<svg width="80" height="120" viewBox="0 0 80 120" fill="none" xmlns="http://www.w3.org/2000/svg">
<path d="M63.8347 101.894C63.7688 102.824 62.76 107.914 60.6106 110.822C57.0699 115.628 51.6501 118.16 46.4216 119.308C35.4106 121.714 16.1578 117.593 15.7227 100.938C27.4523 111.382 53.9512 110.505 63.8347 101.894Z" fill="url(#paint0_linear_909_494)"/>
<path d="M23.6218 86.8417C28.1054 84.6923 44.8988 81.2176 56.279 87.1714C59.8856 89.0571 65.7076 92.7626 63.6438 102.949C62.6614 107.782 57.235 112.563 51.6175 115.418C46.3625 118.094 37.8834 117.633 34.6724 117.132C31.1779 116.591 27.9999 115.655 25.3229 114.211C22.0526 112.451 18.7229 110.13 16.9229 106.332C13.6394 99.389 17.5493 89.756 23.6218 86.8417Z" fill="url(#paint1_linear_909_494)"/>
<path d="M66.7456 96.7977C66.6797 97.7274 65.539 102.818 63.1324 105.725C59.1566 110.532 53.0841 113.07 47.2225 114.211C34.8797 116.617 13.2797 112.503 12.7852 95.8483C25.9456 106.286 55.6687 105.409 66.7456 96.7977Z" fill="#4A45B0"/>
<path d="M66.7456 95.8879C66.6797 96.8176 65.539 101.908 63.1324 104.815C59.1566 109.629 53.0841 112.16 47.2225 113.308C34.8797 115.714 13.2797 111.6 12.7852 94.9451C25.9456 105.376 55.6687 104.499 66.7456 95.8879Z" fill="url(#paint2_linear_909_494)"/>
<path d="M21.6449 80.8285C26.6757 78.6791 45.5065 75.2044 58.2713 81.1582C62.3196 83.0439 68.8537 86.756 66.5328 96.9362C65.4317 101.769 59.346 106.549 53.0493 109.404C47.1548 112.081 37.6471 111.613 34.0405 111.119C30.124 110.578 26.5504 109.642 23.557 108.198C19.8911 106.437 16.1526 104.116 14.135 100.319C10.4427 93.3824 14.8339 83.7428 21.6449 80.8285Z" fill="url(#paint3_linear_909_494)"/>
<path d="M68.1161 90.2968C68.0436 91.2265 66.8502 96.3166 64.3249 99.2243C60.1447 104.037 53.7623 106.569 47.5975 107.717C34.6216 110.123 11.9205 106.009 11.4062 89.3474C25.2326 99.7847 56.4722 98.9078 68.1161 90.2968Z" fill="#4A45B0"/>
<path d="M68.1161 89.4726C68.0436 90.4023 66.8502 95.4924 64.3249 98.4001C60.1447 103.207 53.7623 105.745 47.5975 106.892C34.6216 109.299 11.9205 105.185 11.4062 88.5231C25.2326 98.9605 56.4722 98.0836 68.1161 89.4726Z" fill="url(#paint4_linear_909_494)"/>
<path d="M20.7109 74.4199C25.9988 72.2704 45.7856 68.7957 59.2098 74.7495C63.4625 76.6352 70.3329 80.3407 67.8999 90.5275C66.746 95.3539 60.3373 100.141 53.7241 102.996C47.5263 105.673 37.5307 105.204 33.746 104.71C29.6318 104.169 25.8735 103.233 22.7219 101.789C18.8713 100.029 14.9416 97.7078 12.8186 93.91C8.94165 86.9671 13.557 77.3341 20.7109 74.4199Z" fill="url(#paint5_linear_909_494)"/>
<path d="M14.4963 79.1736C19.1051 73.9055 28.7315 70.2857 39.8546 70.2857C50.7732 70.2857 60.2414 73.7736 64.9622 78.8835C66.0238 80.044 66.848 81.2967 67.3952 82.6022C67.8765 83.7692 68.1271 84.9824 68.1271 86.222C68.1271 86.6505 68.0941 87.0659 68.0282 87.4813C67.8568 88.7736 67.4084 90.0132 66.7161 91.2066C63.0106 97.5692 52.382 102.165 39.8546 102.165C27.6106 102.165 17.1798 97.7802 13.2568 91.6286C12.5381 90.5077 12.037 89.3275 11.7798 88.1011C11.648 87.4813 11.582 86.8615 11.582 86.2154C11.582 85.0747 11.793 83.9604 12.2084 82.8857C12.6963 81.5868 13.4809 80.3341 14.4963 79.1736Z" fill="#4A45B0"/>
<path d="M14.4963 77.9209C19.1051 72.6527 28.7315 69.0264 39.8546 69.0264C50.7732 69.0264 60.2414 72.5209 64.9622 77.6242C66.0238 78.7846 66.848 80.0439 67.3952 81.3428C67.8765 82.5033 68.1271 83.7231 68.1271 84.9692C68.1271 85.3978 68.0941 85.8132 68.0282 86.2286C67.8568 87.5143 67.4084 88.7604 66.7161 89.9472C63.0106 96.3099 52.382 100.905 39.8546 100.905C27.6106 100.905 17.1798 96.5143 13.2568 90.3692C12.5381 89.2483 12.037 88.0681 11.7798 86.8418C11.648 86.222 11.582 85.6022 11.582 84.9626C11.582 83.8154 11.793 82.7077 12.2084 81.633C12.6963 80.3406 13.4809 79.0813 14.4963 77.9209Z" fill="url(#paint6_linear_909_494)"/>
<path d="M39.8556 71.1033C55.4754 71.1033 66.3545 78.4154 66.3545 84.9759C66.3545 91.5363 55.4754 98.8484 39.8556 98.8484C24.2424 98.8484 13.3633 91.5429 13.3633 84.9759C13.3633 78.4154 24.2424 71.1033 39.8556 71.1033Z" fill="url(#paint7_linear_909_494)"/>
<path opacity="0.83" d="M37.8323 0.0461538C38.4586 0.0461538 39.0784 0 39.6916 0C61.252 0 78.7312 17.4791 78.7312 39.0396C78.7312 46.6022 76.5817 53.6571 72.8564 59.6374C68.3729 66.8308 66.4147 75.1912 66.2235 83.6637C66.1378 87.5143 63.5729 91.3451 58.5158 94.2791C48.1971 100.279 31.0806 100.332 20.6828 94.3319C15.5861 91.3912 13.3641 88.5231 13.1663 83.644C12.8235 75.0198 10.74 66.5868 6.26963 59.2088C2.37293 52.767 0.282819 45.1121 0.71139 36.9363C1.75315 17.044 18.474 0.0461538 37.8323 0.0461538Z" fill="url(#paint8_linear_909_494)"/>
<g filter="url(#filter0_b_909_494)">
<path d="M39.1656 40C47.2962 40 53.909 46.6128 53.909 54.7377V84.0099C53.909 86.4418 51.9342 88.4222 49.4967 88.4222C47.0592 88.4222 45.0844 86.4474 45.0844 84.0099V54.7377C45.0844 51.4764 42.4269 48.8189 39.1656 48.8189C35.9044 48.8189 33.2525 51.4708 33.2525 54.7377V84.0099C33.2525 86.4418 31.2777 88.4222 28.8459 88.4222C26.4084 88.4222 24.4336 86.4474 24.4336 84.0099V54.7377C24.428 46.6128 31.0407 40 39.1656 40Z" fill="url(#paint9_linear_909_494)" fill-opacity="0.6"/>
</g>
<defs>
<filter id="filter0_b_909_494" x="4.43359" y="20" width="69.4766" height="88.4222" filterUnits="userSpaceOnUse" color-interpolation-filters="sRGB">
<feFlood flood-opacity="0" result="BackgroundImageFix"/>
<feGaussianBlur in="BackgroundImage" stdDeviation="10"/>
<feComposite in2="SourceAlpha" operator="in" result="effect1_backgroundBlur_909_494"/>
<feBlend mode="normal" in="SourceGraphic" in2="effect1_backgroundBlur_909_494" result="shape"/>
</filter>
<linearGradient id="paint0_linear_909_494" x1="63.8373" y1="110.436" x2="15.7285" y2="110.436" gradientUnits="userSpaceOnUse">
<stop stop-color="#21056C"/>
<stop offset="1" stop-color="#504CB4"/>
</linearGradient>
<linearGradient id="paint1_linear_909_494" x1="64.0776" y1="100.685" x2="15.7363" y2="100.685" gradientUnits="userSpaceOnUse">
<stop stop-color="#21056C"/>
<stop offset="1" stop-color="#504CB4"/>
</linearGradient>
<linearGradient id="paint2_linear_909_494" x1="66.7485" y1="104.44" x2="12.7917" y2="104.44" gradientUnits="userSpaceOnUse">
<stop stop-color="#21056C"/>
<stop offset="1" stop-color="#504CB4"/>
</linearGradient>
<linearGradient id="paint3_linear_909_494" x1="67.0214" y1="94.67" x2="12.7995" y2="94.67" gradientUnits="userSpaceOnUse">
<stop stop-color="#21056C"/>
<stop offset="1" stop-color="#504CB4"/>
</linearGradient>
<linearGradient id="paint4_linear_909_494" x1="68.1192" y1="98.0215" x2="11.4131" y2="98.0215" gradientUnits="userSpaceOnUse">
<stop stop-color="#21056C"/>
<stop offset="1" stop-color="#504CB4"/>
</linearGradient>
<linearGradient id="paint5_linear_909_494" x1="68.4109" y1="88.2613" x2="11.4171" y2="88.2613" gradientUnits="userSpaceOnUse">
<stop stop-color="#21056C"/>
<stop offset="1" stop-color="#504CB4"/>
</linearGradient>
<linearGradient id="paint6_linear_909_494" x1="68.1301" y1="84.9618" x2="11.5889" y2="84.9618" gradientUnits="userSpaceOnUse">
<stop stop-color="#21056C"/>
<stop offset="1" stop-color="#504CB4"/>
</linearGradient>
<linearGradient id="paint7_linear_909_494" x1="66.3523" y1="84.9764" x2="13.3614" y2="84.9764" gradientUnits="userSpaceOnUse">
<stop stop-color="#4884F0"/>
<stop offset="1" stop-color="#1D3285"/>
</linearGradient>
<linearGradient id="paint8_linear_909_494" x1="40" y1="1.67418e-07" x2="40" y2="99" gradientUnits="userSpaceOnUse">
<stop stop-color="#37CCF6"/>
<stop offset="0.0001" stop-color="#E0F8FF"/>
<stop offset="1" stop-color="#8ED9ED"/>
</linearGradient>
<linearGradient id="paint9_linear_909_494" x1="39.1686" y1="85.4152" x2="39.1686" y2="39.5879" gradientUnits="userSpaceOnUse">
<stop offset="8e-08" stop-color="#271176"/>
<stop offset="1" stop-color="#260E73" stop-opacity="0"/>
</linearGradient>
</defs>
</svg>
