<svg xmlns="http://www.w3.org/2000/svg" viewBox="0 0 184.06 186.29"><defs><style>.cls-1{fill:#d1ebff;}.cls-2,.cls-5{fill:#38c5ea;}.cls-3,.cls-6{fill:#d3defc;}.cls-4{fill:#dce4fb;}.cls-5{opacity:0.6;}.cls-6{opacity:0.4;}.cls-7{fill:#453c9e;}.cls-8{fill:#f9b69e;}.cls-9{fill:#001a46;}.cls-10{fill:#022652;}.cls-11,.cls-15{fill:#2d236b;}.cls-12{fill:#fccdb7;}.cls-13{fill:#02212f;}.cls-14{fill:#f0f8ff;}.cls-15{opacity:0.5;}.cls-16{fill:#160a5b;}.cls-17{fill:#a8cff0;}.cls-18{fill:#291e68;}.cls-19{fill:#d1d3d4;}</style></defs><g id="y_choose_us" data-name="y choose us"><path class="cls-1" d="M161.44,58.75h-.05a.21.21,0,0,1-.16-.25l2.39-9.21-27.33,2.36a.21.21,0,0,1-.23-.19.22.22,0,0,1,.19-.23l27.63-2.38a.2.2,0,0,1,.18.07.21.21,0,0,1,0,.19l-2.46,9.49A.2.2,0,0,1,161.44,58.75Z"/><path class="cls-2" d="M158.8,62h-.07a.29.29,0,0,1-.2-.35l.16-.6a.28.28,0,1,1,.54.14l-.16.6A.28.28,0,0,1,158.8,62Zm.58-2.24h-.07a.27.27,0,0,1-.2-.34l.28-1.08a.29.29,0,0,1,.34-.21.29.29,0,0,1,.2.35l-.28,1.08A.27.27,0,0,1,159.38,59.8Zm.71-2.71H160a.28.28,0,0,1-.21-.34l.29-1.09a.27.27,0,0,1,.34-.2.28.28,0,0,1,.2.34l-.28,1.09A.3.3,0,0,1,160.09,57.09Zm.7-2.72h-.07a.28.28,0,0,1-.2-.34l.28-1.09a.28.28,0,0,1,.54.14l-.28,1.09A.28.28,0,0,1,160.79,54.37Zm-33.48-.13A.28.28,0,0,1,127,54a.27.27,0,0,1,.25-.3l1.12-.1a.28.28,0,0,1,0,.56l-1.12.1ZM130.1,54a.29.29,0,0,1-.28-.26.28.28,0,0,1,.26-.3l1.12-.1a.27.27,0,0,1,.3.26.28.28,0,0,1-.25.3l-1.12.1Zm2.8-.24a.28.28,0,0,1-.28-.26.28.28,0,0,1,.25-.3l1.12-.1a.29.29,0,0,1,.31.25.28.28,0,0,1-.26.31l-1.12.1Zm2.79-.25a.27.27,0,0,1-.27-.25.28.28,0,0,1,.25-.31l1.12-.09a.27.27,0,0,1,.3.25.28.28,0,0,1-.25.31l-1.12.09Zm2.8-.24a.28.28,0,0,1-.28-.25.29.29,0,0,1,.26-.31l1.12-.09a.28.28,0,0,1,.3.25.29.29,0,0,1-.26.31l-1.11.09Zm2.8-.24a.28.28,0,0,1,0-.56l1.12-.09a.28.28,0,0,1,.05.55l-1.12.1Zm2.79-.24a.29.29,0,0,1-.28-.26.28.28,0,0,1,.26-.3l1.12-.1a.28.28,0,0,1,0,.56l-1.12.1Zm2.8-.24a.28.28,0,0,1-.28-.26.28.28,0,0,1,.25-.3l1.12-.1a.29.29,0,0,1,.31.26.28.28,0,0,1-.26.3l-1.12.1Zm2.79-.24a.28.28,0,0,1,0-.56l1.12-.1a.28.28,0,0,1,0,.56l-1.12.1Zm2.8-.24a.28.28,0,0,1-.28-.26.27.27,0,0,1,.26-.3l1.12-.1a.28.28,0,0,1,.3.25.28.28,0,0,1-.26.31l-1.11.09Zm2.8-.25a.27.27,0,0,1-.28-.25.28.28,0,0,1,.25-.31l1.12-.09a.29.29,0,0,1,.31.25.3.3,0,0,1-.26.31l-1.12.09Zm6.22-.17h-.07a.28.28,0,0,1-.2-.33l-.34,0a.28.28,0,1,1,0-.56l.73-.06a.27.27,0,0,1,.29.35l-.09.37A.29.29,0,0,1,161.49,51.65Zm-3.43-.07a.28.28,0,0,1,0-.56l1.12-.09a.28.28,0,0,1,.3.25.29.29,0,0,1-.25.31l-1.12.09Z"/><path class="cls-3" d="M157.74,54.25l-37.05,3.2,8.64,5L104.05,77a76.78,76.78,0,0,1,13.71-1.2,85.83,85.83,0,0,1,14.63,1.27l11.17-6.44,8.64,5Z"/><path class="cls-4" d="M170.8,106.15,159.37,84,153,87.67c-11.94-6.38-27.36-9.12-41.34-8,6.17,3.78,10.6,7.71,13.34,11.85a45.52,45.52,0,0,1,13.85,4.35l-6.44,3.71Z"/><path class="cls-4" d="M93.39,93.09l-8.5-4.86L56.75,104.47c1.35,0,2.77-.08,4.26-.08,3.05,0,6.46.11,10.14.34,5.3.33,9.5.53,12.55.62L98.25,97A16.87,16.87,0,0,0,93.39,93.09Z"/><path class="cls-1" d="M62.34,68.35a.21.21,0,0,1-.19-.11l-4.68-9.08a.22.22,0,0,1,0-.22.24.24,0,0,1,.21-.08l32.1,5.52a.21.21,0,0,1,.17.24.21.21,0,0,1-.24.17L58,59.34l4.49,8.71a.2.2,0,0,1-.09.28A.15.15,0,0,1,62.34,68.35Z"/><path class="cls-2" d="M66.3,72.31a.28.28,0,0,1-.25-.16l-.51-1a.28.28,0,0,1,.5-.26l.51,1a.27.27,0,0,1-.12.37A.22.22,0,0,1,66.3,72.31ZM65,69.81a.26.26,0,0,1-.24-.15l-.52-1a.28.28,0,0,1,.12-.38.29.29,0,0,1,.38.12l.51,1a.27.27,0,0,1-.12.38A.28.28,0,0,1,65,69.81Zm29.35-2.38h0l-1.1-.19a.28.28,0,0,1,.09-.55l1.11.19a.28.28,0,0,1,0,.56Zm-30.63-.11a.29.29,0,0,1-.25-.15l-.52-1a.29.29,0,0,1,.12-.38.28.28,0,0,1,.38.12l.52,1a.29.29,0,0,1-.12.38A.31.31,0,0,1,63.73,67.32ZM91.6,67h0l-1.11-.19a.28.28,0,1,1,.1-.56l1.1.19a.28.28,0,0,1,.23.33A.27.27,0,0,1,91.6,67Zm-2.77-.47h0l-1.1-.19a.28.28,0,1,1,.09-.55l1.11.19a.28.28,0,0,1,.23.32A.3.3,0,0,1,88.83,66.48ZM86.06,66h0l-1.11-.19a.3.3,0,0,1-.23-.33.29.29,0,0,1,.33-.23l1.1.19a.28.28,0,0,1,.23.33A.28.28,0,0,1,86.06,66Zm-2.76-.48h0l-1.11-.19a.27.27,0,0,1-.22-.32.26.26,0,0,1,.32-.23l1.11.19a.28.28,0,0,1,.23.32A.29.29,0,0,1,83.3,65.52Zm-2.77-.47h0l-1.1-.19a.27.27,0,0,1-.23-.32.28.28,0,0,1,.32-.23l1.11.19a.28.28,0,0,1,.23.33A.28.28,0,0,1,80.53,65.05Zm-18.09-.23a.27.27,0,0,1-.25-.15l-.51-1a.28.28,0,1,1,.5-.25l.51,1a.28.28,0,0,1-.12.38A.31.31,0,0,1,62.44,64.82Zm15.33-.25h0l-1.11-.19a.29.29,0,0,1-.23-.33.28.28,0,0,1,.33-.22l1.1.19a.28.28,0,0,1,0,.55ZM75,64.1h0l-1.1-.19a.27.27,0,0,1-.23-.32.28.28,0,0,1,.32-.23l1.11.19a.29.29,0,0,1,.23.33A.29.29,0,0,1,75,64.1Zm-2.76-.48h0l-1.11-.19a.28.28,0,1,1,.1-.56l1.1.2a.28.28,0,0,1,0,.55Zm-2.77-.47h0L68.32,63a.27.27,0,0,1-.23-.32.27.27,0,0,1,.32-.23l1.11.19a.29.29,0,0,1,.23.32A.3.3,0,0,1,69.47,63.15Zm-2.77-.48h0l-1.11-.19a.28.28,0,0,1-.23-.33.29.29,0,0,1,.32-.23l1.11.19a.29.29,0,0,1,.23.33A.28.28,0,0,1,66.7,62.67Zm-5.55-.34a.28.28,0,0,1-.24-.15l-.35-.67a.29.29,0,0,1,0-.3.3.3,0,0,1,.28-.11l.36.06a.29.29,0,0,1,.23.33.27.27,0,0,1-.16.2l.11.23a.27.27,0,0,1-.12.38A.28.28,0,0,1,61.15,62.33Zm2.79-.13h0L62.78,62a.28.28,0,0,1-.23-.32.28.28,0,0,1,.33-.23l1.1.19a.27.27,0,0,1,.23.32A.28.28,0,0,1,63.94,62.2Z"/><path class="cls-5" d="M124.73,100.61q-1.11-10-16.66-19l-10.18-6,6.55-3.78-38.37-6.6L77.5,87.39l6.38-3.69L95.18,90q7.13,4.13,7.6,8.71T98,106.31a21.84,21.84,0,0,1-9.28,2.61q-3.51.26-17.81-.62t-22,.55a49.12,49.12,0,0,0-15.67,6q-.76.44-4.21,2.51l16.39,9.46q7.28-4.35,11.53-5.22t14.7-.28q20.19,1.11,28.86,0a38.84,38.84,0,0,0,14.62-4.54Q125.85,110.58,124.73,100.61Z"/><path class="cls-1" d="M25,145.79a.21.21,0,1,1,0-.42,26.8,26.8,0,0,0,13.21-3.22,14.61,14.61,0,0,0,5-4.49.21.21,0,0,1,.29-.06.21.21,0,0,1,.06.29,15.16,15.16,0,0,1-5.13,4.63A27.26,27.26,0,0,1,25,145.79Z"/><path class="cls-2" d="M25.6,144.17a.28.28,0,0,1,0-.56l1.12,0a.28.28,0,0,1,.29.26.28.28,0,0,1-.26.3l-1.13,0Zm-1.68,0h0l-1.14-.07a.28.28,0,0,1-.26-.3.29.29,0,0,1,.3-.26c.37,0,.74.05,1.12.06a.3.3,0,0,1,.27.3A.28.28,0,0,1,23.92,144.16ZM28.4,144a.29.29,0,0,1-.28-.25.27.27,0,0,1,.25-.31l1.1-.15a.28.28,0,0,1,.32.23.28.28,0,0,1-.24.32c-.37.06-.74.11-1.12.15Zm-7.28-.07h0L20,143.75a.29.29,0,0,1-.23-.33.28.28,0,0,1,.33-.22l1.1.16a.29.29,0,0,1,.24.32A.28.28,0,0,1,21.12,143.92Zm10.05-.39a.29.29,0,0,1-.28-.22.28.28,0,0,1,.22-.33q.54-.12,1.08-.27a.28.28,0,0,1,.34.2.29.29,0,0,1-.2.35l-1.1.26Zm-12.81-.11h-.07c-.37-.09-.73-.18-1.09-.29a.28.28,0,0,1-.2-.34.29.29,0,0,1,.35-.2c.35.1.71.2,1.07.28a.28.28,0,0,1,.21.34A.28.28,0,0,1,18.36,143.42Zm15.51-.64a.28.28,0,0,1-.27-.19.28.28,0,0,1,.18-.36c.35-.12.7-.24,1-.38a.29.29,0,0,1,.36.16.27.27,0,0,1-.15.36l-1.07.4Zm-18.2-.16-.1,0c-.36-.13-.71-.27-1.05-.41a.28.28,0,0,1-.15-.37.28.28,0,0,1,.36-.15c.34.14.68.28,1,.4a.28.28,0,0,1,.16.36A.28.28,0,0,1,15.67,142.62Zm20.79-.91a.28.28,0,0,1-.25-.16.28.28,0,0,1,.13-.37c.33-.17.66-.34,1-.52a.28.28,0,1,1,.28.48c-.33.19-.66.37-1,.54A.31.31,0,0,1,36.46,141.71Zm-23.36-.22a.31.31,0,0,1-.13,0l-.69-.38a.28.28,0,0,1-.1-.38.28.28,0,0,1,.38-.11l.67.37a.28.28,0,0,1,.12.38A.27.27,0,0,1,13.1,141.49Zm25.77-1.22a.3.3,0,0,1-.23-.11.3.3,0,0,1,.06-.4c.3-.21.6-.44.87-.67a.28.28,0,1,1,.36.43c-.28.24-.59.48-.9.7A.24.24,0,0,1,38.87,140.27Zm2.1-1.85a.26.26,0,0,1-.19-.07.29.29,0,0,1,0-.4,10.74,10.74,0,0,0,.7-.84.28.28,0,0,1,.39-.06.28.28,0,0,1,.06.39c-.22.3-.47.6-.73.89A.29.29,0,0,1,41,138.42Zm1.59-2.3a.27.27,0,0,1-.12,0,.27.27,0,0,1-.13-.37,7.93,7.93,0,0,0,.43-1,.26.26,0,0,1,.35-.17.28.28,0,0,1,.18.35,11,11,0,0,1-.45,1.07A.28.28,0,0,1,42.56,136.12Zm.83-2.66h0a.29.29,0,0,1-.24-.32,9.79,9.79,0,0,0,.07-1.08.27.27,0,0,1,.28-.28.28.28,0,0,1,.28.28,9,9,0,0,1-.08,1.16A.28.28,0,0,1,43.39,133.46Z"/><ellipse class="cls-6" cx="24.92" cy="132" rx="9.09" ry="15.74" transform="translate(-107.21 156.21) rotate(-89.69)"/><path class="cls-7" d="M16,87.36c-1-3-4.1-8.19-4.76-9.64s-1.73-4.39-.56-5.21S15,71,16.26,70.69c1.07-.26,3.65-1,3.72.57.07,1.37-.48,2.9-1.27,3s-2.94.85-3.16.91.54,1.14.88,1.68A28.68,28.68,0,0,0,19,80.67a18.41,18.41,0,0,0,1.67,1l-4.34,5.92Z"/><path class="cls-8" d="M30.22,107.29a6.64,6.64,0,0,0,.65,2.25c.27.57.36,1.22.66,1.11s-.08-2.75-.08-2.75Z"/><path class="cls-9" d="M16.21,130.61a3.43,3.43,0,0,0-.07,1.63,1.76,1.76,0,0,0,2.13.45c.84-.41,1.21-1.28,1.53-1.51a11,11,0,0,0,3.47-1.57c1.35-1.14,1.16-2.4-.18-2.42a11.08,11.08,0,0,0-4.66,1.16A14.29,14.29,0,0,0,16.21,130.61Z"/><path class="cls-10" d="M16.85,131.85c1,.2,2.19-.64,2.76-1.12s1.58-.23,2.88-1.26,1.76-1.74,1.17-2.08-2.76-.24-4.45.67-2.82,1.57-2.82,1.57-.41,1.26-.2,1.53S16.3,131.73,16.85,131.85Z"/><path class="cls-7" d="M16.84,103a22.1,22.1,0,0,0-.24,7c.48,3.9-.28,11.75-.45,14.53s-1.13,6.18.28,6.89a3,3,0,0,0,3.39-1.14c1.13-1.3,1.37-2.57,1.23-2.81s-.34-1.3.11-3.59a72,72,0,0,0,1.26-9.7c-.06-1.82-.72-10.35-.72-10.35Z"/><path class="cls-11" d="M22.42,114.2a72,72,0,0,1-1.26,9.7c-.45,2.29-.24,3.35-.11,3.59S21,129,19.82,130.3a4,4,0,0,1-1.42,1.07,12.71,12.71,0,0,0,1.21-6c0-4.72,1-10.75,1.12-14,.08-1.93-.37-5.57-.37-7.91l1.34.4S22.36,112.38,22.42,114.2Z"/><path class="cls-9" d="M23.38,134.68s-.5,1.48.12,1.8a2.84,2.84,0,0,0,2.35.16c.78-.34,1.1-.68,1.92-.68a11.74,11.74,0,0,0,4.64-2.35c.61-.78,0-1.67-1.53-1.56a38.93,38.93,0,0,0-4.12.44C26.38,132.62,23.38,134.68,23.38,134.68Z"/><path class="cls-10" d="M24.07,135.78c1.43.17,1.9-.23,3.22-.51s5.09-1.8,5-2.64-.93-.67-1.66-.6-3.06.23-3.25.23-4,1.71-4,1.71-.27,1.24,0,1.42S23.68,135.73,24.07,135.78Z"/><path class="cls-7" d="M21.29,104.06a8,8,0,0,0,0,5,45.69,45.69,0,0,1,1.82,11c0,4-.45,14.5.17,15.08a3.86,3.86,0,0,0,3.66.14c1.43-1.05,2.2-2.54,2.06-3.05s-1.23-2.37-.86-4,1.65-7.33,1.41-11.21-.89-14-.89-14Z"/><path class="cls-12" d="M24.8,72.08c.91.45,1.83,1.19,1.87,3.48s.07,3.38-.39,3.67-.79,0-.89.64a6.92,6.92,0,0,0,.1,1.69l-5-1.12a2.31,2.31,0,0,0,0-1.62c-.32-.82-1.76-2.42-.66-4.77A4,4,0,0,1,24.8,72.08Z"/><path class="cls-13" d="M26.72,74c0,.43-.25,1.14-.87,1.18a.94.94,0,0,0-.78,1.12c.14.35.05.44.05.44s-.46-.19-.66.18.07,1.14.2,1.44-.89,1.21-1.73,1.28a3.32,3.32,0,0,1-2.36-.46A4.77,4.77,0,0,1,19.34,75,4.07,4.07,0,0,1,24,71.65C25.94,72,26.7,73.41,26.72,74Z"/><path class="cls-14" d="M26.3,82.85s-.54-1.88-1.66-2.11a17.08,17.08,0,0,1-2.86-.43,3,3,0,0,1-1.16-1s-.86.24-.22,1S26.3,82.85,26.3,82.85Z"/><path class="cls-11" d="M26,103.41l2.59-.35s.65,10.11.89,14-1,9.56-1.41,11.21.72,3.49.86,4-.5,1.74-1.7,2.76a34.45,34.45,0,0,0-.12-6c-.14-1.78,1.19-8.24.82-12.1C27.65,113.6,26.37,105.47,26,103.41Z"/><path class="cls-7" d="M22.15,81.08a12.37,12.37,0,0,1-2.1-1,21.57,21.57,0,0,0-2.5.11,2.6,2.6,0,0,0-2.21,2.7,37.35,37.35,0,0,0,1,6.31,14.27,14.27,0,0,1,.11,6.53c-.43,2.4-1.94,7.65-1.82,8.23s1.41,2.6,4.41,3.65,8,1.3,10-1-.59-10.26-.71-14.14S29.64,87,28,85a10.69,10.69,0,0,0-4.55-3.5A9.16,9.16,0,0,1,22.15,81.08Z"/><path class="cls-15" d="M28.8,87.32v0c-1.33-1.3-3.18-2.82-4.47-.91-1.67,2.48-1,4.67-.63,9.16s1.41,6.35,1.26,9.69a24.94,24.94,0,0,1-.34,3.14,6.37,6.37,0,0,0,4.43-1.74c.95-1.1.87-3.46.5-6a31.52,31.52,0,0,0-1.39-4.16C26.91,93.6,28.75,88.65,28.8,87.32Z"/><polygon class="cls-16" points="27.39 114.96 27.39 124.58 26.24 123.91 26.24 114.26 27.39 114.96"/><polygon class="cls-10" points="27.38 114.96 27.38 124.58 39.08 117.85 39.08 108.2 27.38 114.96"/><path class="cls-17" d="M32.69,118.36V119a.32.32,0,0,0,.48.27l.89-.51a.6.6,0,0,0,.3-.53v-.48a.31.31,0,0,0-.47-.27l-1,.6A.32.32,0,0,0,32.69,118.36Z"/><path class="cls-18" d="M27.38,115v2.93a.67.67,0,0,0,.67.67h4.76a1.74,1.74,0,0,0,1.35-.65l4.34-5.45a2.61,2.61,0,0,0,.58-1.65V108.2Z"/><polygon class="cls-18" points="39.08 108.2 27.38 114.96 26.24 114.26 37.94 107.51 39.08 108.2"/><path class="cls-16" d="M31.77,109.09l1.52-.88a.91.91,0,0,1,.94-.08l.38.19-.06.28a1.36,1.36,0,0,1,.05.36v1l-.34.2-.09.47-.39-.2v-.88c0-.42-.29-.58-.66-.37l-1.19.68a1.46,1.46,0,0,0-.65,1.14v.88l-.37.21-.06.46-.39-.2v-1A2.89,2.89,0,0,1,31.77,109.09Z"/><path class="cls-10" d="M35,109.16v1l-.82.47v-.88c0-.42-.29-.58-.66-.38l-1.19.69a1.45,1.45,0,0,0-.65,1.13v.89l-.82.47v-1a2.9,2.9,0,0,1,1.31-2.27l1.51-.87C34.4,108,35,108.33,35,109.16Z"/><polygon class="cls-19" points="27.36 118.21 27.27 115.02 26.24 114.26 27.41 114.78 35.42 110.33 27.52 114.96 27.36 118.21"/><path class="cls-13" d="M19.31,75.17a5.07,5.07,0,0,0,2.35,1,8.13,8.13,0,0,0,3.41-.2.66.66,0,0,0,0,.37c.14.35.05.44.05.44s-.46-.19-.66.18.07,1.14.2,1.44-.89,1.21-1.73,1.28a3.32,3.32,0,0,1-2.36-.46A4.8,4.8,0,0,1,19.31,75.17Z"/><path class="cls-12" d="M32.12,104.71A22.56,22.56,0,0,1,34,107.35c.32.57.31.68.17,1.86-.07.55-.18,1-.47,1s0-.31,0-.31-.05.55-.41.63-.17-.35-.17-.35-.1.59-.46.65-.16-.4-.16-.4-.13.62-.41.72-.34-.09-.34-.51a3.6,3.6,0,0,0-.65-1.71c-.47-.84-.87-1.21-.82-2a2.2,2.2,0,0,0-.6-1.45Z"/><path class="cls-7" d="M27.3,85.26a2.72,2.72,0,0,0-3.55,2.1c-.39,1.67.44,8,1.08,9.76s4.61,9.64,4.61,9.64a10.61,10.61,0,0,0,2.26-.57A2.9,2.9,0,0,0,33,105s-2.74-6.79-3.26-8.36-.34-5.58-.51-7.36C29,87.12,28.85,85.8,27.3,85.26Z"/><path class="cls-15" d="M29.72,96.64c-.53-1.58-.34-5.58-.51-7.36-.2-2.16-.36-3.48-1.91-4l-.16,0c.62.78.25,2.15.41,3.78.18,2,0,6.34.55,8.07s3.64,7.88,4,8.86A3,3,0,0,0,33,105S30.24,98.21,29.72,96.64Z"/><path class="cls-14" d="M19.17,70.72c-.66-.1-1.47.23-1.4,1.52.09,1.64,1.35,2.28,1.78.81S19.94,70.84,19.17,70.72Z"/><path class="cls-12" d="M18.24,71.27c.42-.47,1.87-.29,2.77,0a3.35,3.35,0,0,1,1.68.82c.33.39.68,1,.42,1.17s-.31-.11-.31-.11.15.4-.07.54-.74-.29-.74-.29.59.51.29.79-1-.29-1-.29l0,0s.29.4.07.57-.77-.06-1.15-.38a3.2,3.2,0,0,0-1.37-.44.85.85,0,0,1-.68-.61A1.59,1.59,0,0,1,18.24,71.27Z"/><path class="cls-8" d="M22.65,73.67l-1.14-.91.48.61S22.4,73.71,22.65,73.67Z"/><path class="cls-8" d="M23.11,73.22h0l-.4-.36a4.46,4.46,0,0,1-.52-.53l.39.6.23.22v0S23,73.35,23.11,73.22Z"/><path class="cls-8" d="M21.07,73.48a3.5,3.5,0,0,1-.3-.34l.28.56.21.18,0,0s.53.44.87.36A8,8,0,0,1,21.07,73.48Z"/><path class="cls-8" d="M19.91,73.59c-.21-.21-1.4-.32-1.79-.56h0a.85.85,0,0,0,.68.61,3.2,3.2,0,0,1,1.37.44c.38.32.92.54,1.15.38h0l-.08,0A5.67,5.67,0,0,1,19.91,73.59Z"/><path class="cls-15" d="M16.43,76.9c-.34-.54-1.1-1.62-.88-1.68s2.43-.78,3.16-.91a.84.84,0,0,0,.29-.13,1.24,1.24,0,0,1-1.08-.31c-.18-.2-.63-.77-.63-.77L13.5,74.75a31.87,31.87,0,0,1,2.88,3.75c.44,1,1.11,2.34,2.74,2.39l1.05-.47a.75.75,0,0,0,0-.79c-.07-.13-1.58.65-1.69.5C17.82,79.15,16.69,77.32,16.43,76.9Z"/><path class="cls-11" d="M26.44,83a4.07,4.07,0,0,0-2.33-1.62,9.49,9.49,0,0,1-3.18-.89,1.71,1.71,0,0,1-.73-.89l-1.34.5a2.21,2.21,0,0,0,1.76,2.16c1.88.57,4,.55,5.35,1.34A13.06,13.06,0,0,1,28,85.06Z"/><path class="cls-7" d="M26.44,83a4.07,4.07,0,0,0-2.33-1.62,9.49,9.49,0,0,1-3.18-.89,1.71,1.71,0,0,1-.73-.89l-1.34.5s0,1.3,1.9,1.87,4.31.73,5.5,1.62A18.74,18.74,0,0,1,28,85.06Z"/><path class="cls-11" d="M25.53,82.64l.72.93h0A18.74,18.74,0,0,1,28,85.06L26.44,83a4.07,4.07,0,0,0-2.33-1.62h0A5,5,0,0,1,25.53,82.64Z"/><path class="cls-11" d="M19,80c0,.26.25,1.31,1.89,1.81,1.87.57,4.31.73,5.5,1.62.45.34.81.63,1.09.87l.56.73a18.74,18.74,0,0,0-1.78-1.49c-1.19-.89-3.63-1-5.5-1.62s-1.9-1.87-1.9-1.87Z"/><path class="cls-1" d="M179.21,112.53h0l-12.53-2.16a.2.2,0,0,1-.17-.24.21.21,0,0,1,.24-.17L178.83,112,168.9,92.78a.2.2,0,0,1,.09-.28.21.21,0,0,1,.28.09l10.13,19.63a.21.21,0,0,1-.19.31Z"/><path class="cls-2" d="M176.06,110.29H176l-.51-.09a.28.28,0,0,1-.23-.33.27.27,0,0,1,.28-.23l0,0a.28.28,0,1,1,.5-.26l.28.54a.26.26,0,0,1,0,.29A.25.25,0,0,1,176.06,110.29Zm-2.17-.37h0l-1.11-.19a.28.28,0,0,1-.23-.32.28.28,0,0,1,.33-.23l1.11.19a.27.27,0,0,1,.22.32A.28.28,0,0,1,173.89,109.92Zm-2.77-.48h-.05l-1.1-.19a.29.29,0,0,1-.23-.33.28.28,0,0,1,.32-.23l1.11.19a.29.29,0,0,1,.23.33A.28.28,0,0,1,171.12,109.44Zm-2.76-.48h-.05l-1.11-.19a.29.29,0,0,1-.23-.32.28.28,0,0,1,.33-.23l1.1.19a.28.28,0,0,1,0,.55Zm-2.77-.47h-.05l-1.1-.19a.28.28,0,0,1-.23-.33.27.27,0,0,1,.32-.23l1.11.19a.29.29,0,0,1,.23.33A.3.3,0,0,1,165.59,108.49Zm9.42-.24a.27.27,0,0,1-.25-.15l-.52-1a.29.29,0,0,1,.12-.38.28.28,0,0,1,.38.12l.52,1a.28.28,0,0,1-.12.37A.31.31,0,0,1,175,108.25ZM162.82,108h0l-1.11-.19a.29.29,0,0,1-.23-.32.28.28,0,0,1,.33-.23l1.1.19a.27.27,0,0,1,.23.32A.27.27,0,0,1,162.82,108Zm-2.76-.47H160l-.67-.11a.28.28,0,0,1-.23-.33.28.28,0,0,1,.32-.23l.68.12a.29.29,0,0,1,.23.33A.3.3,0,0,1,160.06,107.54Zm13.66-1.78a.27.27,0,0,1-.25-.15l-.51-1a.28.28,0,0,1,.12-.38.29.29,0,0,1,.38.12l.51,1a.28.28,0,0,1-.12.38A.31.31,0,0,1,173.72,105.76Zm-1.29-2.49a.27.27,0,0,1-.24-.16l-.52-1a.28.28,0,1,1,.5-.26l.51,1a.28.28,0,0,1-.25.41Zm-1.28-2.5a.27.27,0,0,1-.25-.15l-.52-1a.29.29,0,0,1,.12-.38.28.28,0,0,1,.38.13l.52,1a.29.29,0,0,1-.12.38A.31.31,0,0,1,171.15,100.77Zm-1.29-2.49a.29.29,0,0,1-.25-.15l-.51-1a.28.28,0,1,1,.5-.26l.51,1a.28.28,0,0,1-.12.38A.31.31,0,0,1,169.86,98.28Zm-1.29-2.5a.26.26,0,0,1-.24-.15l-.52-1a.27.27,0,0,1,.12-.37.28.28,0,0,1,.38.12l.51,1a.27.27,0,0,1-.12.38A.28.28,0,0,1,168.57,95.78Zm-1.28-2.49a.29.29,0,0,1-.25-.15l-.52-1a.28.28,0,0,1,.5-.26l.52,1a.29.29,0,0,1-.12.38A.31.31,0,0,1,167.29,93.29ZM166,90.8a.28.28,0,0,1-.25-.16l-.51-1a.28.28,0,1,1,.5-.26l.51,1a.27.27,0,0,1-.12.37A.2.2,0,0,1,166,90.8Zm-1.29-2.5a.26.26,0,0,1-.24-.15l-.52-1a.28.28,0,0,1,.12-.38.29.29,0,0,1,.38.12l.51,1a.27.27,0,0,1-.12.38A.28.28,0,0,1,164.71,88.3Zm-1.28-2.49a.29.29,0,0,1-.25-.15l-.52-1a.29.29,0,0,1,.12-.38.28.28,0,0,1,.38.12l.52,1a.29.29,0,0,1-.12.38A.31.31,0,0,1,163.43,85.81Z"/></g></svg>