<svg xmlns="http://www.w3.org/2000/svg" xmlns:xlink="http://www.w3.org/1999/xlink" viewBox="0 0 179.42 179.7"><defs><style>.cls-1{isolation:isolate;}.cls-2{fill:url(#linear-gradient);}.cls-3{fill:#2e3665;}.cls-4{fill:url(#linear-gradient-2);}.cls-5{fill:url(#linear-gradient-3);}.cls-6{fill:url(#linear-gradient-4);}.cls-7{fill:url(#linear-gradient-5);}.cls-8{fill:#fff;}.cls-9{fill:#445394;}.cls-10{fill:url(#linear-gradient-6);}.cls-11{fill:url(#linear-gradient-7);}.cls-12{fill:#f0f1f6;}.cls-13{fill:#93a1de;}.cls-14{fill:#f0c6b4;}.cls-15{fill:#c7a496;}.cls-16{fill:url(#linear-gradient-8);}.cls-17{fill:url(#linear-gradient-9);}.cls-18{fill:#d7dcf3;}.cls-19{fill:url(#linear-gradient-10);}.cls-20{fill:url(#linear-gradient-11);}.cls-21{fill:url(#linear-gradient-12);}.cls-22{fill:url(#linear-gradient-13);}.cls-23{fill:url(#linear-gradient-14);}.cls-24{fill:url(#linear-gradient-15);}.cls-25{fill:url(#linear-gradient-16);}.cls-26{fill:url(#linear-gradient-17);}.cls-27{fill:url(#linear-gradient-18);}.cls-28{fill:url(#linear-gradient-19);}.cls-29{fill:#0984bd;}.cls-30{fill:url(#linear-gradient-20);}.cls-31{fill:#294688;}.cls-32{fill:#05425f;}.cls-33{fill:url(#linear-gradient-21);}.cls-34{fill:#adb3d0;}.cls-35{fill:#3c2415;}.cls-36{fill:url(#linear-gradient-22);}.cls-37,.cls-49,.cls-57,.cls-62,.cls-73{mix-blend-mode:multiply;}.cls-38{fill:url(#linear-gradient-23);}.cls-39{fill:url(#linear-gradient-24);}.cls-40{fill:url(#linear-gradient-25);}.cls-41{fill:url(#linear-gradient-26);}.cls-42{fill:url(#linear-gradient-27);}.cls-43{fill:url(#linear-gradient-28);}.cls-44{fill:url(#linear-gradient-29);}.cls-45{fill:url(#linear-gradient-30);}.cls-46{fill:url(#linear-gradient-31);}.cls-47{fill:url(#linear-gradient-32);}.cls-48{fill:url(#linear-gradient-33);}.cls-49{fill:url(#linear-gradient-34);}.cls-50{fill:#e31b25;}.cls-51{fill:#ff9d26;}.cls-52{fill:url(#linear-gradient-35);}.cls-53{fill:url(#linear-gradient-36);}.cls-54{fill:url(#linear-gradient-37);}.cls-55{fill:url(#linear-gradient-38);}.cls-56{fill:#e6e7e8;}.cls-57{fill:url(#linear-gradient-39);}.cls-58{fill:url(#linear-gradient-40);}.cls-59{fill:url(#linear-gradient-41);}.cls-60{fill:url(#linear-gradient-42);}.cls-61{fill:url(#linear-gradient-43);}.cls-62{fill:url(#linear-gradient-44);}.cls-63{fill:url(#linear-gradient-45);}.cls-64{fill:url(#linear-gradient-46);}.cls-65{fill:url(#linear-gradient-47);}.cls-66{fill:#38c5ea;}.cls-67{fill:url(#linear-gradient-48);}.cls-68{fill:url(#linear-gradient-49);}.cls-69{fill:#f1f2f2;}.cls-70{fill:#3576ab;}.cls-71{fill:#07638e;}.cls-72{fill:url(#linear-gradient-50);}.cls-73{fill:url(#linear-gradient-51);}.cls-74{fill:url(#linear-gradient-52);}.cls-75{fill:url(#linear-gradient-53);}.cls-76{fill:url(#linear-gradient-54);}.cls-77{fill:url(#linear-gradient-55);}.cls-78{fill:url(#linear-gradient-56);}.cls-79{fill:url(#linear-gradient-57);}.cls-80{fill:url(#linear-gradient-58);}.cls-81{fill:url(#linear-gradient-59);}.cls-82{fill:url(#linear-gradient-60);}.cls-83{fill:url(#linear-gradient-61);}.cls-84{fill:url(#linear-gradient-62);}.cls-85{fill:url(#linear-gradient-63);}.cls-86{fill:url(#linear-gradient-64);}.cls-87{fill:url(#linear-gradient-65);}.cls-88{fill:url(#linear-gradient-66);}.cls-89{fill:url(#linear-gradient-67);}.cls-90{fill:url(#linear-gradient-68);}.cls-91{fill:url(#linear-gradient-69);}.cls-92{fill:url(#linear-gradient-70);}.cls-93{fill:url(#linear-gradient-71);}.cls-94{fill:url(#linear-gradient-72);}.cls-95{fill:url(#linear-gradient-73);}.cls-96{fill:url(#linear-gradient-74);}.cls-97{fill:url(#linear-gradient-75);}.cls-98{fill:url(#linear-gradient-76);}.cls-99{fill:url(#linear-gradient-77);}.cls-100{fill:url(#linear-gradient-78);}.cls-101{fill:url(#linear-gradient-79);}.cls-102{fill:url(#linear-gradient-80);}.cls-103{fill:url(#linear-gradient-81);}.cls-104{fill:url(#linear-gradient-82);}.cls-105{fill:#fcb54d;}.cls-106{fill:url(#linear-gradient-83);}.cls-107{fill:url(#linear-gradient-84);}.cls-108{fill:url(#linear-gradient-85);}.cls-109{fill:url(#linear-gradient-86);}.cls-110{fill:url(#linear-gradient-87);}.cls-111{fill:url(#linear-gradient-88);}.cls-112{fill:url(#linear-gradient-89);}.cls-113{fill:url(#linear-gradient-90);}.cls-114{fill:url(#linear-gradient-91);}.cls-115{fill:url(#linear-gradient-92);}.cls-116{fill:url(#linear-gradient-93);}.cls-117{fill:url(#linear-gradient-94);}.cls-118{fill:url(#linear-gradient-95);}.cls-119{fill:url(#linear-gradient-96);}.cls-120{fill:url(#linear-gradient-97);}.cls-121{fill:url(#linear-gradient-98);}.cls-122{fill:url(#linear-gradient-99);}.cls-123{fill:url(#linear-gradient-100);}.cls-124{fill:url(#linear-gradient-101);}.cls-125{fill:url(#linear-gradient-102);}.cls-126{fill:url(#linear-gradient-103);}.cls-127{fill:url(#linear-gradient-104);}.cls-128{fill:url(#linear-gradient-105);}.cls-129{fill:url(#linear-gradient-106);}.cls-130{fill:url(#linear-gradient-107);}.cls-131{fill:url(#linear-gradient-108);}.cls-132{fill:url(#linear-gradient-109);}.cls-133{fill:url(#linear-gradient-110);}.cls-134{fill:url(#linear-gradient-111);}.cls-135{fill:url(#linear-gradient-112);}.cls-136{fill:url(#linear-gradient-113);}.cls-137{fill:url(#linear-gradient-114);}.cls-138{fill:url(#linear-gradient-115);}.cls-139{fill:url(#linear-gradient-116);}.cls-140{fill:url(#linear-gradient-117);}.cls-141{fill:url(#linear-gradient-118);}.cls-142{fill:url(#linear-gradient-119);}.cls-143{fill:url(#linear-gradient-120);}.cls-144{fill:url(#linear-gradient-121);}.cls-145{fill:url(#linear-gradient-122);}.cls-146{fill:url(#linear-gradient-123);}.cls-147{fill:url(#linear-gradient-124);}.cls-148{fill:url(#linear-gradient-125);}.cls-149{fill:url(#linear-gradient-126);}.cls-150{fill:url(#linear-gradient-127);}.cls-151{fill:url(#linear-gradient-128);}.cls-152{fill:url(#linear-gradient-129);}.cls-153{fill:url(#linear-gradient-130);}.cls-154{fill:url(#linear-gradient-131);}.cls-155{fill:url(#linear-gradient-132);}.cls-156{fill:url(#linear-gradient-133);}.cls-157{fill:url(#linear-gradient-134);}.cls-158{fill:#0a8074;}.cls-159{fill:url(#linear-gradient-135);}.cls-160{fill:url(#linear-gradient-136);}.cls-161{fill:url(#linear-gradient-137);}.cls-162{fill:url(#linear-gradient-138);}.cls-163{fill:url(#linear-gradient-139);}.cls-164{fill:url(#linear-gradient-140);}.cls-165{fill:url(#linear-gradient-141);}.cls-166{fill:url(#linear-gradient-142);}.cls-167{fill:url(#linear-gradient-143);}.cls-168{fill:url(#linear-gradient-144);}.cls-169{fill:url(#linear-gradient-145);}.cls-170{fill:url(#linear-gradient-146);}.cls-171{fill:url(#linear-gradient-147);}.cls-172{fill:url(#linear-gradient-148);}.cls-173{fill:url(#linear-gradient-149);}.cls-174{fill:url(#linear-gradient-150);}.cls-175{fill:url(#linear-gradient-151);}.cls-176{fill:url(#linear-gradient-152);}.cls-177{fill:url(#linear-gradient-153);}.cls-178{fill:url(#linear-gradient-154);}.cls-179{fill:url(#linear-gradient-155);}.cls-180{fill:url(#linear-gradient-156);}.cls-181{fill:url(#linear-gradient-157);}.cls-182{fill:url(#linear-gradient-158);}.cls-183{fill:url(#linear-gradient-159);}.cls-184{fill:url(#linear-gradient-160);}.cls-185{fill:url(#linear-gradient-161);}.cls-186{fill:#f0f1f4;}.cls-187{fill:#121214;}.cls-188{fill:#52587f;}.cls-189{fill:url(#linear-gradient-162);}</style><linearGradient id="linear-gradient" x1="20.23" y1="120.43" x2="87.99" y2="120.43" gradientUnits="userSpaceOnUse"><stop offset="0" stop-color="#eef6fb" stop-opacity="0"/><stop offset="0.23" stop-color="#daebf6" stop-opacity="0.21"/><stop offset="0.48" stop-color="#c6e0f2" stop-opacity="0.42"/><stop offset="0.7" stop-color="#b7d8ef" stop-opacity="0.57"/><stop offset="0.88" stop-color="#aed3ed" stop-opacity="0.67"/><stop offset="1" stop-color="#abd1ec" stop-opacity="0.7"/></linearGradient><linearGradient id="linear-gradient-2" x1="20.49" y1="119.81" x2="87.74" y2="119.81" gradientUnits="userSpaceOnUse"><stop offset="0" stop-color="#38c5ea"/><stop offset="1" stop-color="#294688"/></linearGradient><linearGradient id="linear-gradient-3" x1="23.64" y1="119.41" x2="86.64" y2="119.41" gradientUnits="userSpaceOnUse"><stop offset="0" stop-color="#eef5fa"/><stop offset="0.11" stop-color="#e1eff7" stop-opacity="0.99"/><stop offset="0.3" stop-color="#beddef" stop-opacity="0.95"/><stop offset="0.57" stop-color="#85c2e2" stop-opacity="0.9"/><stop offset="0.9" stop-color="#379cd0" stop-opacity="0.82"/><stop offset="1" stop-color="#1f90ca" stop-opacity="0.8"/></linearGradient><linearGradient id="linear-gradient-4" x1="23.64" y1="119.05" x2="86.64" y2="119.05" gradientUnits="userSpaceOnUse"><stop offset="0.43" stop-color="#eef6fb"/><stop offset="1" stop-color="#abd1ec"/></linearGradient><linearGradient id="linear-gradient-5" x1="25.22" y1="119.7" x2="82.74" y2="119.7" xlink:href="#linear-gradient-4"/><linearGradient id="linear-gradient-6" x1="67.07" y1="109.2" x2="76.82" y2="109.2" gradientUnits="userSpaceOnUse"><stop offset="0" stop-color="#f57454"/><stop offset="1" stop-color="#f7947c"/></linearGradient><linearGradient id="linear-gradient-7" x1="67.07" y1="108.15" x2="76.82" y2="108.15" gradientUnits="userSpaceOnUse"><stop offset="0" stop-color="#fab371"/><stop offset="1" stop-color="#fcd5b0"/></linearGradient><linearGradient id="linear-gradient-8" x1="69.14" y1="60.76" x2="72.91" y2="60.76" xlink:href="#linear-gradient-4"/><linearGradient id="linear-gradient-9" x1="70.56" y1="65.31" x2="77.49" y2="65.31" xlink:href="#linear-gradient-3"/><linearGradient id="linear-gradient-10" x1="70.49" y1="68.59" x2="84.94" y2="68.59" xlink:href="#linear-gradient-3"/><linearGradient id="linear-gradient-11" x1="70.49" y1="67.02" x2="84.94" y2="67.02" gradientUnits="userSpaceOnUse"><stop offset="0" stop-color="#0984bd"/><stop offset="1" stop-color="#56a5d7"/></linearGradient><linearGradient id="linear-gradient-12" x1="70.49" y1="67.38" x2="84.94" y2="67.38" xlink:href="#linear-gradient-11"/><linearGradient id="linear-gradient-13" x1="70.49" y1="67.75" x2="84.94" y2="67.75" xlink:href="#linear-gradient-11"/><linearGradient id="linear-gradient-14" x1="70.49" y1="68.12" x2="84.94" y2="68.12" xlink:href="#linear-gradient-11"/><linearGradient id="linear-gradient-15" x1="70.49" y1="68.46" x2="84.94" y2="68.46" xlink:href="#linear-gradient-11"/><linearGradient id="linear-gradient-16" x1="70.49" y1="68.85" x2="84.94" y2="68.85" xlink:href="#linear-gradient-11"/><linearGradient id="linear-gradient-17" x1="70.49" y1="69.23" x2="84.94" y2="69.23" xlink:href="#linear-gradient-11"/><linearGradient id="linear-gradient-18" x1="70.49" y1="69.58" x2="84.94" y2="69.58" xlink:href="#linear-gradient-11"/><linearGradient id="linear-gradient-19" x1="70.49" y1="69.96" x2="84.94" y2="69.96" xlink:href="#linear-gradient-11"/><linearGradient id="linear-gradient-20" x1="71.3" y1="65.72" x2="84.07" y2="65.72" xlink:href="#linear-gradient-4"/><linearGradient id="linear-gradient-21" x1="74.92" y1="65.7" x2="80.54" y2="65.7" xlink:href="#linear-gradient-6"/><linearGradient id="linear-gradient-22" x1="75.72" y1="63.31" x2="80.2" y2="63.31" xlink:href="#linear-gradient-4"/><linearGradient id="linear-gradient-23" x1="78.96" y1="105.06" x2="160.9" y2="105.06" xlink:href="#linear-gradient"/><linearGradient id="linear-gradient-24" x1="137.67" y1="86.43" x2="161.31" y2="86.43" xlink:href="#linear-gradient-11"/><linearGradient id="linear-gradient-25" x1="89.62" y1="57.18" x2="152.21" y2="57.18" xlink:href="#linear-gradient-3"/><linearGradient id="linear-gradient-26" x1="86.35" y1="61.65" x2="147.66" y2="61.65" xlink:href="#linear-gradient-3"/><linearGradient id="linear-gradient-27" x1="144.27" y1="86.85" x2="161.82" y2="86.85" xlink:href="#linear-gradient-3"/><linearGradient id="linear-gradient-28" x1="146.44" y1="96.92" x2="151.65" y2="96.92" xlink:href="#linear-gradient-4"/><linearGradient id="linear-gradient-29" x1="146.44" y1="97" x2="151.43" y2="97" xlink:href="#linear-gradient-3"/><linearGradient id="linear-gradient-30" x1="150.37" y1="97.37" x2="151.43" y2="97.37" xlink:href="#linear-gradient-11"/><linearGradient id="linear-gradient-31" x1="146.25" y1="96.26" x2="151.69" y2="96.26" xlink:href="#linear-gradient-4"/><linearGradient id="linear-gradient-32" x1="146.41" y1="96.15" x2="151.05" y2="96.15" xlink:href="#linear-gradient-11"/><linearGradient id="linear-gradient-33" x1="86.46" y1="88.87" x2="144.38" y2="88.87" xlink:href="#linear-gradient-3"/><linearGradient id="linear-gradient-34" x1="95.29" y1="58.1" x2="122.94" y2="58.1" xlink:href="#linear-gradient"/><linearGradient id="linear-gradient-35" x1="109.68" y1="58.79" x2="111.56" y2="58.79" xlink:href="#linear-gradient-6"/><linearGradient id="linear-gradient-36" x1="109.68" y1="66.41" x2="111.56" y2="66.41" xlink:href="#linear-gradient-6"/><linearGradient id="linear-gradient-37" x1="112.81" y1="58.52" x2="114.69" y2="58.52" xlink:href="#linear-gradient-6"/><linearGradient id="linear-gradient-38" x1="112.81" y1="66.13" x2="114.69" y2="66.13" xlink:href="#linear-gradient-7"/><linearGradient id="linear-gradient-39" x1="114.01" y1="64.22" x2="141.66" y2="64.22" xlink:href="#linear-gradient"/><linearGradient id="linear-gradient-40" x1="115.32" y1="52.37" x2="120.36" y2="52.37" xlink:href="#linear-gradient-6"/><linearGradient id="linear-gradient-41" x1="121.63" y1="58.93" x2="126.67" y2="58.93" xlink:href="#linear-gradient-7"/><linearGradient id="linear-gradient-42" x1="121.64" y1="54.76" x2="125.44" y2="54.76" xlink:href="#linear-gradient-7"/><linearGradient id="linear-gradient-43" x1="82.88" y1="60.64" x2="110.53" y2="60.64" xlink:href="#linear-gradient-4"/><linearGradient id="linear-gradient-44" x1="82.47" y1="57.51" x2="110.12" y2="57.51" xlink:href="#linear-gradient"/><linearGradient id="linear-gradient-45" x1="101.25" y1="55.57" x2="108.03" y2="55.57" xlink:href="#linear-gradient-3"/><linearGradient id="linear-gradient-46" x1="104.64" y1="54.62" x2="108.03" y2="54.62" xlink:href="#linear-gradient-7"/><linearGradient id="linear-gradient-47" x1="84.56" y1="46.22" x2="91.34" y2="46.22" gradientUnits="userSpaceOnUse"><stop offset="0" stop-color="#abd1ec"/><stop offset="1" stop-color="#abd1ec"/></linearGradient><linearGradient id="linear-gradient-48" x1="92.91" y1="50.78" x2="99.69" y2="50.78" xlink:href="#linear-gradient-7"/><linearGradient id="linear-gradient-49" x1="93.9" y1="53.02" x2="98.69" y2="53.02" xlink:href="#linear-gradient-6"/><linearGradient id="linear-gradient-50" x1="98.1" y1="80.74" x2="125.81" y2="80.74" xlink:href="#linear-gradient-4"/><linearGradient id="linear-gradient-51" x1="97.7" y1="80.95" x2="125.41" y2="80.95" xlink:href="#linear-gradient"/><linearGradient id="linear-gradient-52" x1="98.61" y1="82.22" x2="124.5" y2="82.22" xlink:href="#linear-gradient-3"/><linearGradient id="linear-gradient-53" x1="98.92" y1="66.4" x2="124.21" y2="66.4" xlink:href="#linear-gradient-3"/><linearGradient id="linear-gradient-54" x1="98.92" y1="70.62" x2="124.21" y2="70.62" xlink:href="#linear-gradient-3"/><linearGradient id="linear-gradient-55" x1="78.08" y1="91.31" x2="136" y2="91.31" xlink:href="#linear-gradient-4"/><linearGradient id="linear-gradient-56" x1="119" y1="105.23" x2="125.89" y2="105.23" xlink:href="#linear-gradient-2"/><linearGradient id="linear-gradient-57" x1="119" y1="105.6" x2="124.58" y2="105.6" xlink:href="#linear-gradient-3"/><linearGradient id="linear-gradient-58" x1="86.88" y1="87.2" x2="93.76" y2="87.2" xlink:href="#linear-gradient-2"/><linearGradient id="linear-gradient-59" x1="86.88" y1="87.56" x2="92.45" y2="87.56" xlink:href="#linear-gradient-3"/><linearGradient id="linear-gradient-60" x1="72.57" y1="138.17" x2="139.8" y2="138.17" xlink:href="#linear-gradient-3"/><linearGradient id="linear-gradient-61" x1="72.57" y1="137.65" x2="139.8" y2="137.65" xlink:href="#linear-gradient-4"/><linearGradient id="linear-gradient-62" x1="74.16" y1="138.19" x2="135.29" y2="138.19" xlink:href="#linear-gradient-4"/><linearGradient id="linear-gradient-63" x1="111.09" y1="131.47" x2="134.75" y2="131.47" xlink:href="#linear-gradient-3"/><linearGradient id="linear-gradient-64" x1="106.24" y1="133.26" x2="129.9" y2="133.26" xlink:href="#linear-gradient-3"/><linearGradient id="linear-gradient-65" x1="101.39" y1="135.06" x2="125.05" y2="135.06" xlink:href="#linear-gradient-3"/><linearGradient id="linear-gradient-66" x1="96.54" y1="136.85" x2="120.2" y2="136.85" xlink:href="#linear-gradient-3"/><linearGradient id="linear-gradient-67" x1="91.69" y1="138.64" x2="115.35" y2="138.64" xlink:href="#linear-gradient-3"/><linearGradient id="linear-gradient-68" x1="86.84" y1="140.44" x2="110.5" y2="140.44" xlink:href="#linear-gradient-3"/><linearGradient id="linear-gradient-69" x1="81.99" y1="142.23" x2="105.65" y2="142.23" xlink:href="#linear-gradient-3"/><linearGradient id="linear-gradient-70" x1="77.14" y1="144.02" x2="100.8" y2="144.02" xlink:href="#linear-gradient-3"/><linearGradient id="linear-gradient-71" x1="100.86" y1="118.36" x2="130.19" y2="118.36" xlink:href="#linear-gradient-2"/><linearGradient id="linear-gradient-72" x1="105.38" y1="118.08" x2="125.43" y2="118.08" xlink:href="#linear-gradient-4"/><linearGradient id="linear-gradient-73" x1="81.82" y1="128.31" x2="123" y2="128.31" xlink:href="#linear-gradient-3"/><linearGradient id="linear-gradient-74" x1="103.96" y1="134.51" x2="123.46" y2="134.51" xlink:href="#linear-gradient-2"/><linearGradient id="linear-gradient-75" x1="99.26" y1="120.2" x2="106.92" y2="120.2" xlink:href="#linear-gradient-4"/><linearGradient id="linear-gradient-76" x1="95.61" y1="120.41" x2="100.56" y2="120.41" xlink:href="#linear-gradient-3"/><linearGradient id="linear-gradient-77" x1="95.61" y1="119.98" x2="100.56" y2="119.98" gradientUnits="userSpaceOnUse"><stop offset="0" stop-color="#0984bd" stop-opacity="0"/><stop offset="1" stop-color="#3699d0"/></linearGradient><linearGradient id="linear-gradient-78" x1="92.83" y1="121.96" x2="97.79" y2="121.96" xlink:href="#linear-gradient-3"/><linearGradient id="linear-gradient-79" x1="92.83" y1="121.53" x2="97.79" y2="121.53" xlink:href="#linear-gradient-77"/><linearGradient id="linear-gradient-80" x1="90.05" y1="123.52" x2="95.01" y2="123.52" xlink:href="#linear-gradient-3"/><linearGradient id="linear-gradient-81" x1="90.05" y1="123.09" x2="95.01" y2="123.09" xlink:href="#linear-gradient-77"/><linearGradient id="linear-gradient-82" x1="87.28" y1="125.08" x2="92.23" y2="125.08" xlink:href="#linear-gradient-6"/><linearGradient id="linear-gradient-83" x1="84.5" y1="126.2" x2="89.45" y2="126.2" xlink:href="#linear-gradient-6"/><linearGradient id="linear-gradient-84" x1="106.23" y1="122.17" x2="110.35" y2="122.17" xlink:href="#linear-gradient-2"/><linearGradient id="linear-gradient-85" x1="109.56" y1="124.04" x2="113.68" y2="124.04" xlink:href="#linear-gradient-2"/><linearGradient id="linear-gradient-86" x1="113.29" y1="126.13" x2="117.41" y2="126.13" xlink:href="#linear-gradient-2"/><linearGradient id="linear-gradient-87" x1="116.62" y1="128" x2="120.74" y2="128" xlink:href="#linear-gradient-2"/><linearGradient id="linear-gradient-88" x1="99.34" y1="122.5" x2="104.29" y2="122.5" xlink:href="#linear-gradient-3"/><linearGradient id="linear-gradient-89" x1="99.34" y1="122.06" x2="104.29" y2="122.06" xlink:href="#linear-gradient-77"/><linearGradient id="linear-gradient-90" x1="102.67" y1="124.36" x2="107.62" y2="124.36" xlink:href="#linear-gradient-3"/><linearGradient id="linear-gradient-91" x1="102.67" y1="123.93" x2="107.62" y2="123.93" xlink:href="#linear-gradient-77"/><linearGradient id="linear-gradient-92" x1="99.74" y1="125.35" x2="104.48" y2="125.35" gradientUnits="userSpaceOnUse"><stop offset="0.05" stop-color="#14416a"/><stop offset="1" stop-color="#004f98"/></linearGradient><linearGradient id="linear-gradient-93" x1="97.11" y1="127.05" x2="102.07" y2="127.05" xlink:href="#linear-gradient-92"/><linearGradient id="linear-gradient-94" x1="94.33" y1="128.6" x2="99.29" y2="128.6" xlink:href="#linear-gradient-92"/><linearGradient id="linear-gradient-95" x1="91.56" y1="130.16" x2="96.51" y2="130.16" xlink:href="#linear-gradient-92"/><linearGradient id="linear-gradient-96" x1="96.56" y1="123.56" x2="101.29" y2="123.56" xlink:href="#linear-gradient-92"/><linearGradient id="linear-gradient-97" x1="93.78" y1="125.18" x2="98.73" y2="125.18" xlink:href="#linear-gradient-92"/><linearGradient id="linear-gradient-98" x1="91" y1="126.74" x2="95.95" y2="126.74" xlink:href="#linear-gradient-92"/><linearGradient id="linear-gradient-99" x1="88.22" y1="128.29" x2="93.17" y2="128.29" xlink:href="#linear-gradient-92"/><linearGradient id="linear-gradient-100" x1="106" y1="126.23" x2="110.96" y2="126.23" xlink:href="#linear-gradient-3"/><linearGradient id="linear-gradient-101" x1="106.01" y1="125.8" x2="110.96" y2="125.8" xlink:href="#linear-gradient-77"/><linearGradient id="linear-gradient-102" x1="103.23" y1="127.36" x2="108.18" y2="127.36" xlink:href="#linear-gradient-92"/><linearGradient id="linear-gradient-103" x1="100.45" y1="128.92" x2="105.4" y2="128.92" xlink:href="#linear-gradient-92"/><linearGradient id="linear-gradient-104" x1="97.67" y1="130.47" x2="102.62" y2="130.47" xlink:href="#linear-gradient-92"/><linearGradient id="linear-gradient-105" x1="94.89" y1="132.03" x2="99.84" y2="132.03" xlink:href="#linear-gradient-92"/><linearGradient id="linear-gradient-106" x1="109.73" y1="128.32" x2="114.69" y2="128.32" xlink:href="#linear-gradient-3"/><linearGradient id="linear-gradient-107" x1="109.73" y1="127.89" x2="114.68" y2="127.89" xlink:href="#linear-gradient-77"/><linearGradient id="linear-gradient-108" x1="106.95" y1="129.88" x2="111.9" y2="129.88" xlink:href="#linear-gradient-3"/><linearGradient id="linear-gradient-109" x1="106.95" y1="129.45" x2="111.91" y2="129.45" xlink:href="#linear-gradient-77"/><linearGradient id="linear-gradient-110" x1="104.17" y1="131.44" x2="109.13" y2="131.44" xlink:href="#linear-gradient-3"/><linearGradient id="linear-gradient-111" x1="104.17" y1="131" x2="109.13" y2="131" xlink:href="#linear-gradient-77"/><linearGradient id="linear-gradient-112" x1="98.62" y1="133.77" x2="106.35" y2="133.77" xlink:href="#linear-gradient-3"/><linearGradient id="linear-gradient-113" x1="98.62" y1="133.34" x2="106.35" y2="133.34" xlink:href="#linear-gradient-77"/><linearGradient id="linear-gradient-114" x1="113.07" y1="130.19" x2="118.02" y2="130.19" xlink:href="#linear-gradient-3"/><linearGradient id="linear-gradient-115" x1="113.06" y1="129.76" x2="118.02" y2="129.76" xlink:href="#linear-gradient-77"/><linearGradient id="linear-gradient-116" x1="110.29" y1="131.75" x2="115.24" y2="131.75" xlink:href="#linear-gradient-3"/><linearGradient id="linear-gradient-117" x1="110.29" y1="131.32" x2="115.24" y2="131.32" xlink:href="#linear-gradient-77"/><linearGradient id="linear-gradient-118" x1="107.51" y1="133.3" x2="112.46" y2="133.3" xlink:href="#linear-gradient-3"/><linearGradient id="linear-gradient-119" x1="107.51" y1="132.87" x2="112.46" y2="132.87" xlink:href="#linear-gradient-77"/><linearGradient id="linear-gradient-120" x1="104.73" y1="134.86" x2="109.68" y2="134.86" xlink:href="#linear-gradient-3"/><linearGradient id="linear-gradient-121" x1="104.73" y1="134.43" x2="109.68" y2="134.43" xlink:href="#linear-gradient-77"/><linearGradient id="linear-gradient-122" x1="101.95" y1="136.42" x2="106.9" y2="136.42" xlink:href="#linear-gradient-3"/><linearGradient id="linear-gradient-123" x1="101.95" y1="135.99" x2="106.9" y2="135.99" xlink:href="#linear-gradient-77"/><linearGradient id="linear-gradient-124" x1="49.46" y1="112" x2="63.91" y2="112" xlink:href="#linear-gradient-3"/><linearGradient id="linear-gradient-125" x1="49.46" y1="110.43" x2="63.91" y2="110.43" xlink:href="#linear-gradient-11"/><linearGradient id="linear-gradient-126" x1="49.46" y1="110.79" x2="63.91" y2="110.79" xlink:href="#linear-gradient-11"/><linearGradient id="linear-gradient-127" x1="49.46" y1="111.16" x2="63.91" y2="111.16" xlink:href="#linear-gradient-11"/><linearGradient id="linear-gradient-128" x1="49.46" y1="111.54" x2="63.91" y2="111.54" xlink:href="#linear-gradient-11"/><linearGradient id="linear-gradient-129" x1="49.46" y1="111.88" x2="63.91" y2="111.88" xlink:href="#linear-gradient-11"/><linearGradient id="linear-gradient-130" x1="49.46" y1="112.26" x2="63.91" y2="112.26" xlink:href="#linear-gradient-11"/><linearGradient id="linear-gradient-131" x1="49.46" y1="112.64" x2="63.91" y2="112.64" xlink:href="#linear-gradient-11"/><linearGradient id="linear-gradient-132" x1="49.46" y1="112.99" x2="63.91" y2="112.99" xlink:href="#linear-gradient-11"/><linearGradient id="linear-gradient-133" x1="49.46" y1="113.38" x2="63.91" y2="113.38" xlink:href="#linear-gradient-11"/><linearGradient id="linear-gradient-134" x1="50.27" y1="109.13" x2="63.04" y2="109.13" xlink:href="#linear-gradient-4"/><linearGradient id="linear-gradient-135" x1="53.9" y1="109.11" x2="59.51" y2="109.11" xlink:href="#linear-gradient-6"/><linearGradient id="linear-gradient-136" x1="52.57" y1="117.15" x2="67.03" y2="117.15" xlink:href="#linear-gradient-3"/><linearGradient id="linear-gradient-137" x1="52.57" y1="115.58" x2="67.03" y2="115.58" xlink:href="#linear-gradient-11"/><linearGradient id="linear-gradient-138" x1="52.57" y1="115.94" x2="67.03" y2="115.94" xlink:href="#linear-gradient-11"/><linearGradient id="linear-gradient-139" x1="52.57" y1="116.31" x2="67.03" y2="116.31" xlink:href="#linear-gradient-11"/><linearGradient id="linear-gradient-140" x1="52.57" y1="116.68" x2="67.03" y2="116.68" xlink:href="#linear-gradient-11"/><linearGradient id="linear-gradient-141" x1="52.57" y1="117.02" x2="67.03" y2="117.02" xlink:href="#linear-gradient-11"/><linearGradient id="linear-gradient-142" x1="52.57" y1="117.41" x2="67.03" y2="117.41" xlink:href="#linear-gradient-11"/><linearGradient id="linear-gradient-143" x1="52.57" y1="117.79" x2="67.03" y2="117.79" xlink:href="#linear-gradient-11"/><linearGradient id="linear-gradient-144" x1="52.57" y1="118.14" x2="67.03" y2="118.14" xlink:href="#linear-gradient-11"/><linearGradient id="linear-gradient-145" x1="52.57" y1="118.52" x2="67.03" y2="118.52" xlink:href="#linear-gradient-11"/><linearGradient id="linear-gradient-146" x1="53.38" y1="114.28" x2="66.15" y2="114.28" xlink:href="#linear-gradient-4"/><linearGradient id="linear-gradient-147" x1="61.33" y1="117.14" x2="62.63" y2="117.14" xlink:href="#linear-gradient-7"/><linearGradient id="linear-gradient-148" x1="57.01" y1="114.26" x2="62.63" y2="114.26" xlink:href="#linear-gradient-6"/><linearGradient id="linear-gradient-149" x1="51.07" y1="111.63" x2="65.53" y2="111.63" xlink:href="#linear-gradient-3"/><linearGradient id="linear-gradient-150" x1="51.07" y1="110.06" x2="65.53" y2="110.06" xlink:href="#linear-gradient-11"/><linearGradient id="linear-gradient-151" x1="51.07" y1="110.42" x2="65.53" y2="110.42" xlink:href="#linear-gradient-11"/><linearGradient id="linear-gradient-152" x1="51.07" y1="110.8" x2="65.53" y2="110.8" xlink:href="#linear-gradient-11"/><linearGradient id="linear-gradient-153" x1="51.07" y1="111.17" x2="65.53" y2="111.17" xlink:href="#linear-gradient-11"/><linearGradient id="linear-gradient-154" x1="51.07" y1="111.51" x2="65.53" y2="111.51" xlink:href="#linear-gradient-11"/><linearGradient id="linear-gradient-155" x1="51.07" y1="111.89" x2="65.53" y2="111.89" xlink:href="#linear-gradient-11"/><linearGradient id="linear-gradient-156" x1="51.07" y1="112.28" x2="65.53" y2="112.28" xlink:href="#linear-gradient-11"/><linearGradient id="linear-gradient-157" x1="51.07" y1="112.62" x2="65.53" y2="112.62" xlink:href="#linear-gradient-11"/><linearGradient id="linear-gradient-158" x1="51.07" y1="113.01" x2="65.53" y2="113.01" xlink:href="#linear-gradient-11"/><linearGradient id="linear-gradient-159" x1="51.88" y1="108.76" x2="64.65" y2="108.76" xlink:href="#linear-gradient-4"/><linearGradient id="linear-gradient-160" x1="59.82" y1="111.63" x2="61.12" y2="111.63" xlink:href="#linear-gradient-7"/><linearGradient id="linear-gradient-161" x1="55.51" y1="108.74" x2="61.12" y2="108.74" xlink:href="#linear-gradient-6"/><linearGradient id="linear-gradient-162" x1="63.52" y1="110.43" x2="71.07" y2="110.43" xlink:href="#linear-gradient-11"/></defs><g class="cls-1"><g id="Use_Case:_Kiểm_soát_sau" data-name="Use Case: Kiểm soát sau"><path class="cls-2" d="M50.64,139.51a3.62,3.62,0,0,1-1.73-.4L21,123.48a1.33,1.33,0,0,1-.79-1.11,1.34,1.34,0,0,1,.79-1.12l34.84-19.52a4,4,0,0,1,3.46,0l27.89,15.63a1.3,1.3,0,0,1,.78,1.11,1.32,1.32,0,0,1-.78,1.12L52.37,139.11A3.59,3.59,0,0,1,50.64,139.51Z"/><path class="cls-3" d="M87.54,118a1.46,1.46,0,0,0-.46-.37L59.19,101.94a3.69,3.69,0,0,0-3.21,0L21.15,121.47a1.54,1.54,0,0,0-.37.27l-.29,0v.61a1.11,1.11,0,0,0,.66.9L49,138.9a3.69,3.69,0,0,0,3.21,0l34.83-19.53a1.08,1.08,0,0,0,.66-.89h0v-.61Z"/><path class="cls-4" d="M52.25,138.29a3.69,3.69,0,0,1-3.21,0L21.15,122.66c-.88-.5-.88-1.31,0-1.8L56,101.33a3.69,3.69,0,0,1,3.21,0L87.08,117c.88.49.88,1.3,0,1.79Z"/><polygon class="cls-5" points="51.98 137.06 23.64 121.18 58.3 101.75 86.64 117.63 51.98 137.06"/><polygon class="cls-6" points="51.98 136.7 23.64 120.82 58.3 101.39 86.64 117.27 51.98 136.7"/><polygon class="cls-7" points="51.69 135.82 25.22 120.98 56.27 103.58 82.74 118.41 51.69 135.82"/><polygon class="cls-8" points="78.79 120.3 52.93 105.8 54.64 104.84 80.5 119.34 78.79 120.3"/><polygon class="cls-8" points="74.94 122.45 49.08 107.96 50.79 107 76.65 121.5 74.94 122.45"/><polygon class="cls-8" points="71.09 124.61 45.23 110.12 46.94 109.16 72.8 123.65 71.09 124.61"/><polygon class="cls-8" points="67.24 126.77 41.38 112.27 43.09 111.31 68.95 125.81 67.24 126.77"/><polygon class="cls-8" points="63.39 128.93 37.53 114.43 39.24 113.47 65.1 127.97 63.39 128.93"/><polygon class="cls-8" points="59.54 131.08 33.68 116.59 35.39 115.63 61.25 130.13 59.54 131.08"/><polygon class="cls-8" points="55.69 133.24 29.83 118.75 31.54 117.79 57.4 132.28 55.69 133.24"/><polygon class="cls-8" points="51.84 135.4 25.98 120.9 27.69 119.94 53.55 134.44 51.84 135.4"/><path class="cls-9" d="M56.43,105.07l6.4,3.59a.7.7,0,0,0,.6,0c.17-.09.17-.24,0-.34L57,104.74a.64.64,0,0,0-.6,0A.17.17,0,0,0,56.43,105.07Z"/><path class="cls-9" d="M80.48,117.88l-2.29-1.28a.64.64,0,0,0-.6,0,.17.17,0,0,0,0,.33l2.29,1.29a.7.7,0,0,0,.6,0C80.65,118.12,80.65,118,80.48,117.88Z"/><path class="cls-9" d="M54.59,106.1l4.3,2.41a.7.7,0,0,0,.6,0c.16-.09.16-.24,0-.34l-4.3-2.41a.7.7,0,0,0-.6,0C54.43,105.86,54.43,106,54.59,106.1Z"/><path class="cls-9" d="M78.64,118.91l-2.29-1.29a.7.7,0,0,0-.6,0c-.16.1-.16.25,0,.34L78,119.24a.64.64,0,0,0,.6,0C78.81,119.15,78.8,119,78.64,118.91Z"/><path class="cls-9" d="M52.7,107.16l10.53,5.9a.64.64,0,0,0,.6,0c.17-.09.17-.24,0-.33L53.3,106.82a.7.7,0,0,0-.6,0C52.53,106.92,52.53,107.07,52.7,107.16Z"/><path class="cls-9" d="M76.75,120l-2.29-1.29a.7.7,0,0,0-.6,0c-.17.1-.17.25,0,.34l2.29,1.28a.64.64,0,0,0,.6,0A.17.17,0,0,0,76.75,120Z"/><path class="cls-9" d="M50.75,108.25l7.88,4.42a.7.7,0,0,0,.6,0c.17-.09.17-.24,0-.34l-7.88-4.41a.64.64,0,0,0-.6,0A.17.17,0,0,0,50.75,108.25Z"/><path class="cls-9" d="M74.8,121.06l-2.29-1.28a.64.64,0,0,0-.6,0,.17.17,0,0,0,0,.33l2.29,1.28a.64.64,0,0,0,.6,0A.17.17,0,0,0,74.8,121.06Z"/><path class="cls-9" d="M48.84,109.33l4.29,2.4a.64.64,0,0,0,.6,0c.17-.09.17-.24,0-.33L49.43,109a.68.68,0,0,0-.59,0C48.67,109.08,48.67,109.23,48.84,109.33Z"/><path class="cls-9" d="M72.88,122.13l-2.28-1.28a.72.72,0,0,0-.61,0c-.16.09-.16.24,0,.34l2.3,1.28a.68.68,0,0,0,.59,0A.18.18,0,0,0,72.88,122.13Z"/><path class="cls-9" d="M46.91,110.4l6.3,3.53a.7.7,0,0,0,.6,0c.16-.09.16-.24,0-.34l-6.3-3.52a.64.64,0,0,0-.6,0A.17.17,0,0,0,46.91,110.4Z"/><path class="cls-9" d="M71,123.21l-2.29-1.28a.7.7,0,0,0-.6,0,.17.17,0,0,0,0,.33l2.29,1.29a.7.7,0,0,0,.6,0C71.13,123.45,71.13,123.3,71,123.21Z"/><path class="cls-9" d="M45,111.46l5.76,3.23a.7.7,0,0,0,.6,0c.16-.09.16-.24,0-.34l-5.76-3.22a.64.64,0,0,0-.6,0C44.85,111.22,44.85,111.37,45,111.46Z"/><path class="cls-9" d="M69.07,124.27,66.78,123a.7.7,0,0,0-.6,0,.17.17,0,0,0,0,.33l2.29,1.29a.7.7,0,0,0,.6,0C69.23,124.51,69.23,124.36,69.07,124.27Z"/><path class="cls-9" d="M43.07,112.56l4.3,2.41a.7.7,0,0,0,.6,0c.17-.1.17-.25,0-.34l-4.3-2.41a.7.7,0,0,0-.6,0C42.91,112.31,42.91,112.46,43.07,112.56Z"/><path class="cls-9" d="M67.12,125.36l-2.29-1.28a.7.7,0,0,0-.6,0c-.16.09-.16.24,0,.34l2.29,1.28a.7.7,0,0,0,.6,0C67.29,125.61,67.29,125.46,67.12,125.36Z"/><path class="cls-9" d="M41.16,113.63l10.67,6a.7.7,0,0,0,.6,0c.16-.09.16-.24,0-.34l-10.67-6a.7.7,0,0,0-.6,0C41,113.39,41,113.54,41.16,113.63Z"/><path class="cls-9" d="M65.2,126.44l-2.28-1.29a.7.7,0,0,0-.6,0c-.17.1-.17.25,0,.34l2.29,1.28a.62.62,0,0,0,.59,0C65.37,126.68,65.37,126.53,65.2,126.44Z"/><path class="cls-9" d="M48.8,119.45l-9-5a.64.64,0,0,0-.6,0c-.16.09-.17.24,0,.33l9,5.06a.68.68,0,0,0,.59,0C49,119.69,49,119.54,48.8,119.45Z"/><path class="cls-9" d="M63.24,127.54,61,126.26a.7.7,0,0,0-.6,0,.17.17,0,0,0,0,.33l2.29,1.29a.7.7,0,0,0,.6,0C63.4,127.78,63.4,127.63,63.24,127.54Z"/><path class="cls-9" d="M37.3,115.79l7.84,4.4a.7.7,0,0,0,.6,0c.17-.09.17-.24,0-.34l-7.84-4.39a.7.7,0,0,0-.6,0C37.13,115.55,37.13,115.7,37.3,115.79Z"/><path class="cls-9" d="M61.35,128.6l-2.29-1.28a.7.7,0,0,0-.6,0c-.17.09-.17.24,0,.34l2.29,1.28a.7.7,0,0,0,.6,0A.18.18,0,0,0,61.35,128.6Z"/><path class="cls-9" d="M46.47,122.45,36,116.55a.7.7,0,0,0-.6,0c-.17.09-.17.24,0,.34l10.52,5.9a.7.7,0,0,0,.6,0C46.64,122.69,46.64,122.54,46.47,122.45Z"/><path class="cls-9" d="M59.4,129.69l-2.29-1.28a.7.7,0,0,0-.6,0,.18.18,0,0,0,0,.34L58.8,130a.7.7,0,0,0,.6,0C59.57,129.94,59.56,129.79,59.4,129.69Z"/><path class="cls-9" d="M43,122.66l-9-5a.7.7,0,0,0-.6,0c-.16.1-.16.25,0,.34l9,5a.64.64,0,0,0,.6,0A.17.17,0,0,0,43,122.66Z"/><path class="cls-9" d="M57.48,130.77l-2.29-1.29a.68.68,0,0,0-.59,0c-.17.1-.17.25,0,.34l2.29,1.28a.62.62,0,0,0,.59,0C57.65,131,57.65,130.86,57.48,130.77Z"/><path class="cls-9" d="M39,122.59l-6.91-3.87a.64.64,0,0,0-.6,0c-.17.09-.17.24,0,.33l6.91,3.88a.7.7,0,0,0,.6,0C39.16,122.83,39.16,122.68,39,122.59Z"/><path class="cls-9" d="M55.53,131.86l-2.29-1.28a.64.64,0,0,0-.6,0c-.17.09-.17.24,0,.33l2.29,1.28a.64.64,0,0,0,.6,0A.17.17,0,0,0,55.53,131.86Z"/><path class="cls-9" d="M29.56,120.12l4.3,2.41a.64.64,0,0,0,.6,0c.17-.09.17-.24,0-.33l-4.3-2.41a.7.7,0,0,0-.6,0A.17.17,0,0,0,29.56,120.12Z"/><path class="cls-9" d="M53.61,132.93l-2.29-1.28a.68.68,0,0,0-.59,0c-.17.09-.17.24,0,.34L53,133.27a.7.7,0,0,0,.6,0A.18.18,0,0,0,53.61,132.93Z"/><path class="cls-9" d="M36.82,125.68l-8.58-4.81a.7.7,0,0,0-.6,0,.17.17,0,0,0,0,.33L36.22,126a.64.64,0,0,0,.6,0C37,125.92,37,125.77,36.82,125.68Z"/><path class="cls-9" d="M51.69,134l-2.29-1.28a.7.7,0,0,0-.6,0,.17.17,0,0,0,0,.33l2.29,1.29a.7.7,0,0,0,.6,0C51.86,134.25,51.86,134.1,51.69,134Z"/><polygon class="cls-10" points="74.55 111.71 67.07 107.52 67.07 106.69 68.45 106.74 76.83 109.61 76.83 111.22 76.13 110.83 74.55 111.71"/><polygon class="cls-11" points="74.55 110.89 67.07 106.69 69.34 105.41 76.83 109.61 74.55 110.89"/><path class="cls-12" d="M69.22,86.62c.41,1,3.34.86,6.54-.35s5.48-3,5.07-4-3.34-.86-6.54.35S68.81,85.6,69.22,86.62Z"/><path class="cls-13" d="M69.14,62.14s-.45,0-.46-.83a5.17,5.17,0,0,1,1.17-.17l0,.59-.14.21Z"/><path class="cls-14" d="M69.88,58.21A25.07,25.07,0,0,0,66.57,61c-.42.62-.15,1,.2,1.16a11.69,11.69,0,0,0,2.67-.27l.61-.29.11-1-1-.32-.15,0s1-1.19,1.23-1.37.18-.64.18-.64Z"/><path class="cls-15" d="M69,60.28a1.53,1.53,0,0,1-.85,1A9.36,9.36,0,0,0,69,60.28Z"/><path class="cls-16" d="M72.83,60c-.42-1.39-2.75,0-2.75,0s0,.08-.94.25a1.12,1.12,0,0,1,0,1.88c1.29-.28,2-.16,2.53-.29A1.45,1.45,0,0,0,72.83,60Z"/><path class="cls-3" d="M78.11,82.85c-.2.35-.6.52-.61.73,0,.53,1.53.58,2,0a6.88,6.88,0,0,0,1-2.87.45.45,0,0,0-.31-.32Z"/><path class="cls-14" d="M80.13,80.36c-.21-.08-.46-.08-.51-.17C79,79,79.09,78,78.52,77.28a4.42,4.42,0,0,0-1.06-.7,5.41,5.41,0,0,0-1.54-.24.88.88,0,0,0-.23.93,2.76,2.76,0,0,0,1,1,4.81,4.81,0,0,1,1.8,3.3,3.45,3.45,0,0,1-.38,1.23.5.5,0,0,0,.66.23C79.58,82.68,80.13,80.36,80.13,80.36Z"/><path class="cls-3" d="M70.41,85.16c-.44.32-.83.6-.83.88s.65.31,1.27.15.92-.68,1.18-.82.94,0,1.16-.28a.85.85,0,0,0,.06-.66Z"/><path class="cls-14" d="M73.25,84.43a4.38,4.38,0,0,1-.1-.75c0-.55.68-3.69.64-4.37A3.53,3.53,0,0,0,73.34,78a8.48,8.48,0,0,1,0-1.29l-1.91.16a8.67,8.67,0,0,0,.19,1.88c.2.59.32,4.56-.1,5.38a3.6,3.6,0,0,1-1.14,1.08s-.35.3.11.4S71.6,85.16,72,85A4.62,4.62,0,0,0,73.25,84.43Z"/><polygon class="cls-14" points="73.07 60.09 73.02 61.06 73.45 61.85 75.09 61.07 75.43 60.19 75.09 59.33 74.5 59.15 73.72 59.49 73.07 60.09"/><path class="cls-3" d="M71.51,68.3a20.5,20.5,0,0,0-.4,4,38.37,38.37,0,0,0,.19,4.15c.06.71.74.79,1.91.82s4.1.35,4.28-.75a44.45,44.45,0,0,0,.13-5.62,3.75,3.75,0,0,0-.43-1.62L75.09,68l-2.27.15S71.73,68.08,71.51,68.3Z"/><path class="cls-17" d="M77.23,61.67A7.31,7.31,0,0,1,76,60.24l-.5-.09a5,5,0,0,1-2,1.28,2.07,2.07,0,0,1-.18-1.51s-.5-.39-.89-.26c-1,.29-1,1.66-1,1.66a10.08,10.08,0,0,0-.84,2.45c0,.6.76,1,.83,1.4A24.53,24.53,0,0,1,71.5,68a3.68,3.68,0,0,0,1.66,2.82,6.56,6.56,0,0,1,.11-.82s.07.4.11.94c1.11.48,1.37-1.41,2.25-1.76a3,3,0,0,1,1.56.08c-.52-.82-1.13-1.12-1.19-1.81s1.1-2.3,1.48-3.48A21.55,21.55,0,0,0,77.23,61.67Z"/><path class="cls-18" d="M73.49,65.84A1.15,1.15,0,0,0,75.17,65,1.92,1.92,0,0,1,73.49,65.84Z"/><polygon class="cls-19" points="84.94 67.4 74.79 73.11 70.49 70.7 70.49 67.36 74.79 69.78 84.94 64.06 84.94 67.4"/><polygon class="cls-20" points="84.94 64.25 74.79 69.97 70.49 67.56 70.49 67.36 74.79 69.78 84.94 64.06 84.94 64.25"/><polygon class="cls-21" points="84.94 64.61 74.79 70.33 70.49 67.92 70.49 67.72 74.79 70.14 84.94 64.42 84.94 64.61"/><polygon class="cls-22" points="84.94 64.99 74.79 70.7 70.49 68.29 70.49 68.1 74.79 70.51 84.94 64.8 84.94 64.99"/><polygon class="cls-23" points="84.94 65.36 74.79 71.08 70.49 68.67 70.49 68.47 74.79 70.89 84.94 65.17 84.94 65.36"/><polygon class="cls-24" points="84.94 65.7 74.79 71.42 70.49 69.01 70.49 68.81 74.79 71.22 84.94 65.51 84.94 65.7"/><polygon class="cls-25" points="84.94 66.09 74.79 71.8 70.49 69.39 70.49 69.2 74.79 71.61 84.94 65.9 84.94 66.09"/><polygon class="cls-26" points="84.94 66.47 74.79 72.18 70.49 69.77 70.49 69.58 74.79 71.99 84.94 66.28 84.94 66.47"/><polygon class="cls-27" points="84.94 66.82 74.79 72.53 70.49 70.12 70.49 69.93 74.79 72.34 84.94 66.62 84.94 66.82"/><polygon class="cls-28" points="84.94 67.2 74.79 72.92 70.49 70.5 70.49 70.31 74.79 72.72 84.94 67.01 84.94 67.2"/><polygon class="cls-29" points="84.94 64.06 74.79 69.78 70.49 67.36 80.64 61.65 84.94 64.06"/><path class="cls-30" d="M84.07,63.85,81,62.14a.87.87,0,0,1-.8,0l-8.91,5c.22.12.22.32,0,.45l3,1.71a.93.93,0,0,1,.8,0l8.92-5C83.85,64.17,83.85,64,84.07,63.85Z"/><path class="cls-31" d="M78.65,65.17c.74.41.89,1,.36,1.29a2.69,2.69,0,0,1-2.3-.2c-.73-.41-.89-1-.36-1.28A2.68,2.68,0,0,1,78.65,65.17Z"/><path class="cls-32" d="M81.26,63.71c.47.27.57.63.23.83A1.75,1.75,0,0,1,80,64.41c-.46-.26-.57-.63-.22-.82A1.69,1.69,0,0,1,81.26,63.71Z"/><path class="cls-31" d="M75.35,67c.46.26.57.63.22.82a1.66,1.66,0,0,1-1.47-.13c-.47-.26-.57-.62-.23-.82A1.72,1.72,0,0,1,75.35,67Z"/><polygon class="cls-32" points="80.54 69.89 79.24 70.62 79.24 67.27 80.54 66.54 80.54 69.89"/><polygon class="cls-33" points="80.54 66.54 79.24 67.27 74.92 64.85 76.22 64.12 80.54 66.54"/><path class="cls-13" d="M78.63,65c.47.37,1.29-.19,1.29-.19L79.38,64l-.46-.25-.77.69A3.55,3.55,0,0,1,78.63,65Z"/><path class="cls-14" d="M69.88,58.21a1.14,1.14,0,0,1,.34.7c.31,0,.45,0,.83,0a.92.92,0,0,0,.18-.27l-.56-.94Z"/><path class="cls-3" d="M71.21,58.93,73,58.14a.21.21,0,0,0,.12-.28l-.33-.71a.23.23,0,0,0-.3-.11l-1.81.79a.22.22,0,0,0-.11.29l.32.7A.23.23,0,0,0,71.21,58.93Z"/><polygon class="cls-34" points="72.91 58.03 72.52 57.19 70.75 57.96 71.14 58.8 72.91 58.03"/><path class="cls-14" d="M71.56,58.78a1.16,1.16,0,0,1,.34-.39c.18-.1.42,0,.4.08a2.22,2.22,0,0,1-.6.44,1.64,1.64,0,0,1-.51,0Z"/><path class="cls-14" d="M71.8,57.71a3,3,0,0,1-.59-.1l-.46.2-.87.4s1-.8,1.21-.89a6.41,6.41,0,0,1,1.13-.08S72,57.71,71.8,57.71Z"/><path class="cls-3" d="M72.06,58.6a3.71,3.71,0,0,1-.33,2.11s1.29-.19,1.57-1.16C73.13,59.2,72.23,58.39,72.06,58.6Z"/><path class="cls-14" d="M71.94,57.44A1.27,1.27,0,0,0,72,58a11.13,11.13,0,0,0,.18,2c0,.41.73.49,1,.39a3.4,3.4,0,0,0,1.61-1.05l-.1-1.79L74,56.76l-1.42-.35-.74.52Z"/><path class="cls-3" d="M73,57.07c.07,0,.74-.2.95.7s1,2.77.39,3.75a2.11,2.11,0,0,0,1.82-1,.32.32,0,0,0,.19.25s.66-.61.48-2.37c-.14-1.38-1.23-3.17-1.58-3-.46-.75-1.6-.52-2.13-.13a4.55,4.55,0,0,0-1.31,1.35c-.26.35.12.82.12.82s0-.47.16-.57A.9.9,0,0,1,73,57.07Z"/><path class="cls-35" d="M75.17,55.57a3.19,3.19,0,0,0-2,1.3A7,7,0,0,1,75.17,55.57Z"/><path class="cls-14" d="M78.46,64.58c1.16.75,2.11,1.26,2.18,1.32-.32,1-.07,1.78-.32,3.88-.19-.22-.58-.14-.73-.07s-.77,0-.86.26.84.23.76.5l-1,.54a2.64,2.64,0,0,0,1.47.07s1.08-.83,1.17-1.14c.4-1.51.94-2.91,1-3.47A1.54,1.54,0,0,0,81.72,65c-.49-.37-1.52-1.36-1.52-1.36l-.72-.41-1.16.4S78.44,64.49,78.46,64.58Z"/><path class="cls-36" d="M76,62c-1,.92,1.09,1.89,1.09,1.89L78.63,65c-.22-.75,1-1.69,1.57-1.39-1.08-.74-1.14-.91-1.61-1.22S76.88,61.12,76,62Z"/><g class="cls-37"><path class="cls-38" d="M136.5,127.45a5.64,5.64,0,0,1-4.94,0L80,98.54c-1.36-.76-1.36-2,0-2.77l23.38-13.1a5.64,5.64,0,0,1,4.94,0l51.58,28.91c1.36.76,1.36,2,0,2.77Z"/></g><path class="cls-39" d="M160.88,100.79l-22.6-12.66-.61-12.33,7.5-3.74s6.91,1.86,9.09,4.17a30.51,30.51,0,0,1,3.74,5l2.3,6.82,1,9Z"/><path class="cls-40" d="M94.43,41.58h0a8.82,8.82,0,0,0-4.15-1.2l-.65,0,2.43,3.53L127.84,68.4l22.31,5.42,2.06.15Z"/><path class="cls-41" d="M147.54,72.86,89.62,40.4l-.09.85a21.14,21.14,0,0,1-3,8.3c-.23.32-.27.72-.09.88a.19.19,0,0,0,.09,0l57.83,32.41S148.38,77.73,147.54,72.86Z"/><path class="cls-42" d="M161.29,100.79c-.29.16-.53,0-.53-.3,0-23.13-9.85-25.95-12.42-26.28a22.06,22.06,0,0,1-3.23,8.37c-.23.33-.56.47-.73.31s-.14-.55.09-.88a20.86,20.86,0,0,0,3-8.3l.1-.85.65,0a10.09,10.09,0,0,1,6.86,3.24c3.09,3,6.77,9.64,6.77,23.82A1.13,1.13,0,0,1,161.29,100.79Z"/><path class="cls-43" d="M147.57,102.81c0-2.4-.64-13.15-.83-15.13,0-.05-.3-.69-.3-.69l.26-.14,4.23,2.37c.24,2.19.72,13.32.72,16l-2.31,1.61-.21.12.21-.84Z"/><path class="cls-44" d="M147.2,103c0-2.73-.51-13.83-.76-16l4.23,2.37c.25,2.2.76,13.3.76,16l-2.3,1.61Z"/><path class="cls-31" d="M151.92,96.14a1.85,1.85,0,0,0-.87-1.46l-3.71-2.08a.61.61,0,0,0-.56-.07l-.3.16,0,.18a.78.78,0,0,0,0,.22v3a1.85,1.85,0,0,0,.86,1.45l3.71,2.08a.78.78,0,0,0,.36.11l0,.08.26-.15a.61.61,0,0,0,.23-.52Zm-.58,2.72c0,.18-.13.25-.29.16L147.34,97a.62.62,0,0,1-.29-.49v-3c0-.18.13-.25.29-.16l3.71,2.08a.62.62,0,0,1,.29.48Z"/><path class="cls-45" d="M150.9,95.51a3.3,3.3,0,0,0-.53,2c0,1.3.74,1.52.74,1.52l0,.36.29-.49V95.68l-.29-.34Z"/><path class="cls-46" d="M150.83,99.8l-3.71-2.08a1.85,1.85,0,0,1-.87-1.46V93.21c0-.53.39-.75.87-.48l3.71,2.08a1.85,1.85,0,0,1,.86,1.45v3C151.69,99.85,151.3,100.06,150.83,99.8Zm-3.71-6.42c-.16-.09-.29,0-.29.16v3a.61.61,0,0,0,.29.48l3.71,2.08c.16.09.28,0,.28-.16v-3a.61.61,0,0,0-.28-.49Z"/><path class="cls-47" d="M146.94,93.28s-.6.36-.52,2a2.12,2.12,0,0,0,.92,1.65L151.05,99a3.07,3.07,0,0,1-1.23-1.41,8.74,8.74,0,0,1,.14-1.47l.94-.63Z"/><path class="cls-48" d="M86.46,50.43V88.1a6.9,6.9,0,0,0,3.23,5.43l40.88,22.91-.71.25L135,127.31l8.46-4.75a2.17,2.17,0,0,0,.92-2V82.89Z"/><path class="cls-31" d="M136,87.59,78.08,55.13s5.78-1.26,8.38-4.7l57.92,32.46C141.72,87,136,87.59,136,87.59Z"/><polygon class="cls-49" points="122.94 84.81 95.29 69.31 95.29 31.39 122.94 46.89 122.94 84.81"/><polygon class="cls-50" points="99.03 53.7 97.16 52.65 97.16 45.79 99.03 46.84 99.03 53.7"/><polygon class="cls-51" points="99.03 62.06 97.16 61.01 97.16 52.65 99.03 53.7 99.03 62.06"/><polygon class="cls-50" points="102.17 52.75 100.29 51.69 100.29 47.54 102.17 48.59 102.17 52.75"/><polygon class="cls-51" points="102.17 63.82 100.29 62.76 100.29 51.69 102.17 52.75 102.17 63.82"/><polygon class="cls-50" points="105.3 58.56 103.42 57.51 103.42 49.3 105.3 50.35 105.3 58.56"/><polygon class="cls-51" points="105.3 65.57 103.42 64.52 103.42 57.51 105.3 58.56 105.3 65.57"/><polygon class="cls-50" points="108.43 61.67 106.55 60.62 106.55 51.05 108.43 52.1 108.43 61.67"/><polygon class="cls-51" points="108.43 67.33 106.55 66.27 106.55 60.62 108.43 61.67 108.43 67.33"/><polygon class="cls-52" points="111.56 64.78 109.68 63.73 109.68 52.81 111.56 53.86 111.56 64.78"/><polygon class="cls-53" points="111.56 69.08 109.68 68.03 109.68 63.73 111.56 64.78 111.56 69.08"/><polygon class="cls-54" points="114.69 62.48 112.81 61.42 112.81 54.56 114.69 55.61 114.69 62.48"/><polygon class="cls-55" points="114.69 70.83 112.81 69.78 112.81 61.42 114.69 62.48 114.69 70.83"/><polygon class="cls-50" points="117.82 61.52 115.94 60.47 115.94 56.31 117.82 57.37 117.82 61.52"/><polygon class="cls-51" points="117.82 72.59 115.94 71.54 115.94 60.47 117.82 61.52 117.82 72.59"/><polygon class="cls-50" points="120.95 70.05 119.07 68.99 119.07 58.07 120.95 59.12 120.95 70.05"/><polygon class="cls-51" points="120.95 74.34 119.07 73.29 119.07 68.99 120.95 70.05 120.95 74.34"/><polygon class="cls-56" points="117.82 76.39 97.16 64.81 97.16 63.99 117.82 75.57 117.82 76.39"/><polygon class="cls-31" points="120.95 51.32 97.16 37.98 97.16 37.16 120.95 50.5 120.95 51.32"/><polygon class="cls-31" points="114.33 49.37 97.16 39.74 97.16 38.92 114.33 48.55 114.33 49.37"/><polygon class="cls-31" points="120.95 54.83 97.16 41.49 97.16 40.67 120.95 54.01 120.95 54.83"/><polygon class="cls-56" points="107.49 49.04 97.16 43.24 97.16 42.43 107.49 48.22 107.49 49.04"/><polygon class="cls-31" points="113.02 44.42 97.16 35.53 97.16 34.71 113.02 43.6 113.02 44.42"/><polygon class="cls-56" points="114.69 76.8 97.16 66.97 97.16 66.16 114.69 75.98 114.69 76.8"/><polygon class="cls-31" points="120.95 48.86 114.33 45.16 114.33 44.34 120.95 48.04 120.95 48.86"/><path class="cls-57" d="M141.66,84.88V56.53L114,41V79l15.11,8.46,7.14-.62A14.77,14.77,0,0,0,141.66,84.88Z"/><polygon class="cls-58" points="120.36 59.35 115.32 56.53 115.32 45.38 120.36 48.21 120.36 59.35"/><polygon class="cls-59" points="126.67 62.89 121.63 60.06 121.63 54.98 126.67 57.8 126.67 62.89"/><polygon class="cls-60" points="125.44 56.22 121.64 54.09 121.64 53.29 125.44 55.43 125.44 56.22"/><polygon class="cls-31" points="128.18 52.82 128.18 53.7 140.13 60.4 140.13 59.52 128.18 52.82"/><polygon class="cls-31" points="133.39 58.17 128.18 55.25 128.18 56.13 133.39 59.05 133.39 58.17"/><polygon class="cls-31" points="128.18 58.55 140.13 65.25 140.13 64.37 128.18 57.67 128.18 58.55"/><polygon class="cls-31" points="128.18 60.98 140.13 67.67 140.13 66.8 128.18 60.1 128.18 60.98"/><polygon class="cls-31" points="128.18 63.4 135.21 67.34 135.21 66.46 128.18 62.52 128.18 63.4"/><path class="cls-31" d="M116.07,60.13l9.39,5.26c.18.1.32,0,.32-.18a.69.69,0,0,0-.33-.55l-9.38-5.26c-.18-.1-.32,0-.32.18A.69.69,0,0,0,116.07,60.13Z"/><path class="cls-31" d="M136.5,71.58,138.94,73c.18.1.33,0,.33-.18a.69.69,0,0,0-.33-.55l-2.44-1.37c-.18-.1-.33,0-.33.18A.7.7,0,0,0,136.5,71.58Z"/><path class="cls-31" d="M116.07,62.24l6.25,3.5c.18.1.32,0,.32-.18a.68.68,0,0,0-.32-.55l-6.25-3.5c-.18-.1-.32,0-.32.18A.69.69,0,0,0,116.07,62.24Z"/><path class="cls-31" d="M138.94,74.33,136.5,73c-.18-.1-.33,0-.33.18a.7.7,0,0,0,.33.55l2.44,1.37c.18.1.33,0,.33-.18A.69.69,0,0,0,138.94,74.33Z"/><path class="cls-31" d="M128.59,70.64l-12.52-7c-.18-.1-.32,0-.32.18a.69.69,0,0,0,.32.55l12.52,7a.2.2,0,0,0,.33-.19A.69.69,0,0,0,128.59,70.64Z"/><path class="cls-31" d="M138.94,76.44l-2.44-1.37c-.18-.1-.33,0-.33.18a.7.7,0,0,0,.33.55l2.44,1.37c.18.1.33,0,.33-.18A.69.69,0,0,0,138.94,76.44Z"/><path class="cls-31" d="M116.07,66.46l7.82,4.38c.18.1.32,0,.32-.18a.68.68,0,0,0-.32-.55l-7.82-4.38c-.18-.1-.32,0-.32.18A.69.69,0,0,0,116.07,66.46Z"/><path class="cls-31" d="M138.94,78.55l-2.44-1.37c-.18-.1-.33,0-.33.18a.7.7,0,0,0,.33.55l2.44,1.37c.18.1.33,0,.33-.18A.69.69,0,0,0,138.94,78.55Z"/><path class="cls-31" d="M127,74l-11-6.14c-.18-.1-.32,0-.32.18a.69.69,0,0,0,.32.55l11,6.14c.18.1.33,0,.33-.19A.69.69,0,0,0,127,74Z"/><path class="cls-31" d="M138.94,80.66l-2.44-1.37c-.18-.1-.33,0-.33.18a.7.7,0,0,0,.33.55l2.44,1.37c.18.1.33,0,.33-.19A.69.69,0,0,0,138.94,80.66Z"/><path class="cls-31" d="M116.07,70.68l4.68,2.62c.18.1.33,0,.33-.18a.69.69,0,0,0-.33-.55L116.07,70c-.18-.1-.32,0-.32.18A.69.69,0,0,0,116.07,70.68Z"/><path class="cls-31" d="M138.94,82.77,136.5,81.4c-.18-.1-.33,0-.33.18a.7.7,0,0,0,.33.55l2.44,1.37c.18.1.33,0,.33-.19A.69.69,0,0,0,138.94,82.77Z"/><path class="cls-31" d="M116.07,72.79l7.82,4.38c.18.1.32,0,.32-.18a.68.68,0,0,0-.32-.55l-7.82-4.38c-.18-.1-.32,0-.32.18A.69.69,0,0,0,116.07,72.79Z"/><path class="cls-31" d="M138.94,84.88l-2.44-1.37c-.18-.11-.33,0-.33.18a.7.7,0,0,0,.33.55l2.44,1.37c.18.1.33,0,.33-.19A.69.69,0,0,0,138.94,84.88Z"/><path class="cls-31" d="M116.07,74.9l6.25,3.5c.18.1.32,0,.32-.18a.68.68,0,0,0-.32-.55l-6.25-3.5c-.18-.1-.32,0-.32.18A.71.71,0,0,0,116.07,74.9Z"/><path class="cls-31" d="M136.5,85.62c-.18-.11-.33,0-.33.18a.72.72,0,0,0,.33.55l1.46.82.83-.27Z"/><path class="cls-31" d="M116.07,77l9.39,5.26c.17.1.32,0,.32-.19a.68.68,0,0,0-.32-.54l-9.39-5.26c-.18-.1-.32,0-.32.18A.69.69,0,0,0,116.07,77Z"/><path class="cls-31" d="M116.07,79.12l4.68,2.62c.18.1.33,0,.33-.18a.69.69,0,0,0-.33-.55l-4.68-2.62c-.18-.1-.32,0-.32.18A.69.69,0,0,0,116.07,79.12Z"/><polygon class="cls-61" points="95.13 37.36 95.13 53.7 82.88 53.7 82.88 68.42 110.53 83.92 110.53 46 95.13 37.36"/><polygon class="cls-62" points="110.12 84.22 82.47 68.72 82.47 30.8 110.12 46.3 110.12 84.22"/><path class="cls-63" d="M108,57.47c0,2.1-1.52,3-3.39,1.9a7.24,7.24,0,0,1-3.39-5.7c0-2.1,1.52-3,3.39-1.9Z"/><path class="cls-64" d="M104.64,51.77a7.24,7.24,0,0,1,3.39,5.7l-3.39-1.9Z"/><path class="cls-65" d="M84.56,44.32c0-2.1,1.52-3,3.39-1.9a7.21,7.21,0,0,1,3.39,5.7c0,2.1-1.51,3-3.39,1.9Z"/><path class="cls-66" d="M88,50a7.24,7.24,0,0,1-3.39-5.7L88,46.22Z"/><path class="cls-67" d="M93.9,52.24c-1.32-2.23-1.32-4.63,0-5.38s3.47.47,4.79,2.69,1.33,4.63,0,5.37Z"/><path class="cls-68" d="M98.69,54.92c-1.32.75-3.47-.46-4.79-2.68l2.4-1.34Z"/><polygon class="cls-31" points="84.56 34.92 84.56 35.8 108.03 48.95 108.03 48.07 84.56 34.92"/><polygon class="cls-31" points="96.52 43.37 84.56 36.67 84.56 37.55 96.52 44.25 96.52 43.37"/><polygon class="cls-31" points="102.99 60.82 84.56 50.5 84.56 51.37 102.99 61.7 102.99 60.82"/><polygon class="cls-31" points="84.56 53.13 108.03 66.28 108.03 65.4 84.56 52.25 84.56 53.13"/><polygon class="cls-31" points="84.56 54.88 97.04 61.88 97.04 61 84.56 54.01 84.56 54.88"/><polygon class="cls-69" points="108.03 81.65 84.56 68.5 84.56 56.86 108.03 70.01 108.03 81.65"/><polygon class="cls-51" points="108.03 73.69 104.66 77.9 85.84 68.41 84.56 64.81 90.8 66.89 92.61 69.03 98.4 70.43 99.97 72.19 102.35 73.41 104.42 70.8 108.03 72.47 108.03 73.69"/><polygon class="cls-70" points="108.03 81.65 84.56 68.5 84.56 64.81 86.98 65.35 92.35 70.29 98.4 71.81 101.84 74.26 108.03 73.69 108.03 81.65"/><polygon class="cls-71" points="88.61 60.93 85.6 59.24 85.6 58.45 88.61 60.14 88.61 60.93"/><polygon class="cls-51" points="88.61 62.38 85.6 60.69 85.6 59.9 88.61 61.59 88.61 62.38"/><polygon class="cls-72" points="125.81 107.5 98.1 91.97 98.1 53.97 125.81 69.5 125.81 107.5"/><polygon class="cls-73" points="125.41 107.71 97.7 92.18 97.7 54.19 125.41 69.72 125.41 107.71"/><polygon class="cls-74" points="124.5 106.5 98.61 91.99 98.61 57.95 124.5 72.45 124.5 106.5"/><polygon class="cls-75" points="124.21 74.43 98.92 60.25 98.92 58.38 124.21 72.55 124.21 74.43"/><polygon class="cls-76" points="124.21 78.65 98.92 64.47 98.92 62.59 124.21 76.77 124.21 78.65"/><polygon class="cls-8" points="124.21 82.86 98.92 68.69 98.92 66.82 124.21 80.99 124.21 82.86"/><polygon class="cls-8" points="124.21 87.08 98.92 72.91 98.92 71.03 124.21 85.21 124.21 87.08"/><polygon class="cls-8" points="124.21 91.3 98.92 77.13 98.92 75.25 124.21 89.43 124.21 91.3"/><polygon class="cls-8" points="124.21 95.52 98.92 81.35 98.92 79.47 124.21 93.65 124.21 95.52"/><polygon class="cls-8" points="124.21 99.75 98.92 85.57 98.92 83.69 124.21 97.87 124.21 99.75"/><polygon class="cls-8" points="124.21 103.96 98.92 89.79 98.92 87.91 124.21 102.09 124.21 103.96"/><path class="cls-9" d="M100.09,60.34l9.38,5.26c.19.1.33,0,.33-.19a.66.66,0,0,0-.33-.54l-9.38-5.26c-.18-.11-.32,0-.32.18A.69.69,0,0,0,100.09,60.34Z"/><path class="cls-9" d="M120.52,71.78,123,73.15c.18.11.33,0,.33-.18a.72.72,0,0,0-.33-.55l-2.44-1.36c-.18-.11-.33,0-.33.18A.69.69,0,0,0,120.52,71.78Z"/><path class="cls-9" d="M100.09,62.45l6.25,3.5c.18.1.32,0,.32-.19a.68.68,0,0,0-.32-.54l-6.25-3.5c-.18-.11-.32,0-.32.18A.69.69,0,0,0,100.09,62.45Z"/><path class="cls-9" d="M123,74.53l-2.44-1.37c-.18-.1-.33,0-.33.19a.72.72,0,0,0,.33.55L123,75.26c.18.11.33,0,.33-.18A.7.7,0,0,0,123,74.53Z"/><path class="cls-9" d="M112.61,70.84l-12.52-7c-.18-.11-.32,0-.32.18a.71.71,0,0,0,.32.55l12.52,7c.18.1.33,0,.33-.18A.7.7,0,0,0,112.61,70.84Z"/><path class="cls-9" d="M123,76.65l-2.44-1.38c-.18-.1-.33,0-.33.19a.69.69,0,0,0,.33.54L123,77.38a.2.2,0,0,0,.33-.19A.69.69,0,0,0,123,76.65Z"/><path class="cls-9" d="M100.09,66.66l7.82,4.39c.18.1.32,0,.32-.19a.71.71,0,0,0-.32-.55l-7.82-4.38c-.18-.09-.32,0-.32.19A.68.68,0,0,0,100.09,66.66Z"/><path class="cls-9" d="M123,78.75l-2.44-1.37c-.18-.1-.33,0-.33.19a.69.69,0,0,0,.33.54L123,79.49c.18.09.33,0,.33-.19A.72.72,0,0,0,123,78.75Z"/><path class="cls-9" d="M111,74.18l-11-6.13c-.18-.1-.32,0-.32.18a.71.71,0,0,0,.32.55l11,6.13c.19.1.33,0,.33-.18A.68.68,0,0,0,111,74.18Z"/><path class="cls-9" d="M123,80.87l-2.44-1.38a.2.2,0,0,0-.33.19.69.69,0,0,0,.33.54L123,81.6c.18.09.33,0,.33-.19A.69.69,0,0,0,123,80.87Z"/><path class="cls-9" d="M100.09,70.88l4.68,2.63c.18.1.33,0,.33-.19a.69.69,0,0,0-.33-.54l-4.68-2.62c-.18-.11-.32,0-.32.18A.68.68,0,0,0,100.09,70.88Z"/><path class="cls-9" d="M123,83l-2.44-1.37a.2.2,0,0,0-.33.19.69.69,0,0,0,.33.54L123,83.71a.2.2,0,0,0,.33-.19A.72.72,0,0,0,123,83Z"/><path class="cls-9" d="M100.09,73l7.82,4.38c.18.1.32,0,.32-.19a.68.68,0,0,0-.32-.54l-7.82-4.38c-.18-.11-.32,0-.32.18A.71.71,0,0,0,100.09,73Z"/><path class="cls-9" d="M123,85.08l-2.44-1.37c-.18-.1-.33,0-.33.18a.69.69,0,0,0,.33.55L123,85.82a.2.2,0,0,0,.33-.19A.7.7,0,0,0,123,85.08Z"/><path class="cls-9" d="M100.09,75.11l6.25,3.5c.18.1.32,0,.32-.19a.71.71,0,0,0-.32-.55l-6.25-3.49c-.18-.11-.32,0-.32.18A.71.71,0,0,0,100.09,75.11Z"/><path class="cls-9" d="M123,87.19l-2.44-1.37c-.18-.1-.33,0-.33.19a.69.69,0,0,0,.33.54L123,87.92c.18.1.33,0,.33-.18A.7.7,0,0,0,123,87.19Z"/><path class="cls-9" d="M100.09,77.22l9.38,5.25c.19.1.33,0,.33-.18a.68.68,0,0,0-.33-.55l-9.38-5.26c-.18-.1-.32,0-.32.19A.71.71,0,0,0,100.09,77.22Z"/><path class="cls-9" d="M123,89.3l-2.44-1.37c-.18-.1-.33,0-.33.19a.69.69,0,0,0,.33.54L123,90c.18.1.33,0,.33-.18A.7.7,0,0,0,123,89.3Z"/><path class="cls-9" d="M100.09,79.32,104.77,82a.2.2,0,0,0,.33-.19.69.69,0,0,0-.33-.54l-4.68-2.63c-.18-.1-.32,0-.32.19A.68.68,0,0,0,100.09,79.32Z"/><path class="cls-9" d="M123,91.41,120.52,90c-.18-.1-.33,0-.33.19a.69.69,0,0,0,.33.54L123,92.14c.18.1.33,0,.33-.18A.7.7,0,0,0,123,91.41Z"/><path class="cls-9" d="M100.09,81.43l6.25,3.5c.18.1.32,0,.32-.18a.69.69,0,0,0-.32-.55l-6.25-3.5c-.18-.1-.32,0-.32.19A.68.68,0,0,0,100.09,81.43Z"/><path class="cls-9" d="M123,93.52l-2.44-1.37c-.18-.1-.33,0-.33.18a.69.69,0,0,0,.33.55L123,94.25c.18.1.33,0,.33-.18A.7.7,0,0,0,123,93.52Z"/><path class="cls-9" d="M100.09,83.54l7.82,4.38c.18.1.32,0,.32-.18a.69.69,0,0,0-.32-.55l-7.82-4.38c-.18-.1-.32,0-.32.18A.68.68,0,0,0,100.09,83.54Z"/><path class="cls-9" d="M123,95.63l-2.44-1.37c-.18-.1-.33,0-.33.18a.7.7,0,0,0,.33.55L123,96.36c.18.1.33,0,.33-.18A.7.7,0,0,0,123,95.63Z"/><path class="cls-9" d="M111,91.06l-11-6.14c-.18-.1-.32,0-.32.19a.68.68,0,0,0,.32.54l11,6.14c.19.1.33,0,.33-.18A.68.68,0,0,0,111,91.06Z"/><path class="cls-9" d="M123,97.74l-2.44-1.37c-.18-.1-.33,0-.33.18a.69.69,0,0,0,.33.55L123,98.47c.18.1.33,0,.33-.18A.7.7,0,0,0,123,97.74Z"/><path class="cls-9" d="M109.47,92.29,100.09,87c-.18-.1-.32,0-.32.19a.68.68,0,0,0,.32.54L109.47,93c.19.1.33,0,.33-.18A.68.68,0,0,0,109.47,92.29Z"/><path class="cls-9" d="M123,99.85l-2.44-1.37c-.18-.1-.33,0-.33.18a.69.69,0,0,0,.33.55l2.44,1.37c.18.1.33,0,.33-.18A.7.7,0,0,0,123,99.85Z"/><path class="cls-9" d="M100.09,89.87l4.68,2.63a.2.2,0,0,0,.33-.19.67.67,0,0,0-.33-.54l-4.68-2.63c-.18-.1-.32,0-.32.19A.68.68,0,0,0,100.09,89.87Z"/><path class="cls-9" d="M123,102l-2.44-1.37c-.18-.1-.33,0-.33.18a.69.69,0,0,0,.33.55l2.44,1.37c.18.1.33,0,.33-.18A.7.7,0,0,0,123,102Z"/><path class="cls-9" d="M107.91,95.63l-7.82-4.38c-.18-.1-.32,0-.32.19a.68.68,0,0,0,.32.54l7.82,4.38c.18.1.32,0,.32-.18A.69.69,0,0,0,107.91,95.63Z"/><path class="cls-9" d="M123,104.07l-2.44-1.37c-.18-.1-.33,0-.33.18a.7.7,0,0,0,.33.55L123,104.8c.18.1.33,0,.33-.18A.7.7,0,0,0,123,104.07Z"/><path class="cls-77" d="M136,125.26c0,2-1.46,2.8-3.23,1.81L81.31,98.23a6.92,6.92,0,0,1-3.23-5.43V55.13L136,87.59Z"/><polygon class="cls-78" points="125.89 109.54 124.58 110.27 119 100.93 120.31 100.19 125.89 103.32 125.89 109.54"/><polygon class="cls-79" points="124.58 110.27 119 107.14 119 100.93 124.58 104.05 124.58 110.27"/><polygon class="cls-80" points="93.76 91.5 92.45 92.23 86.88 82.89 88.18 82.16 93.76 85.28 93.76 91.5"/><polygon class="cls-81" points="92.45 92.23 86.88 89.11 86.88 82.89 92.45 86.02 92.45 92.23"/><polygon class="cls-82" points="96.13 156.25 72.57 136.24 116.25 120.09 139.8 140.1 96.13 156.25"/><polygon class="cls-83" points="96.13 155.73 72.57 135.72 116.25 119.57 139.8 139.58 96.13 155.73"/><polygon class="cls-84" points="96.17 154.77 74.16 136.08 113.28 121.61 135.29 140.3 96.17 154.77"/><polygon class="cls-85" points="132.59 141 111.09 122.74 113.25 121.94 134.75 140.2 132.59 141"/><polygon class="cls-86" points="127.74 142.79 106.24 124.53 108.4 123.73 129.9 142 127.74 142.79"/><polygon class="cls-87" points="122.89 144.59 101.39 126.32 103.55 125.53 125.05 143.79 122.89 144.59"/><polygon class="cls-88" points="118.04 146.38 96.54 128.12 98.7 127.32 120.2 145.58 118.04 146.38"/><polygon class="cls-89" points="113.19 148.17 91.69 129.91 93.85 129.11 115.35 147.38 113.19 148.17"/><polygon class="cls-90" points="108.34 149.97 86.84 131.7 89 130.91 110.5 149.17 108.34 149.97"/><polygon class="cls-91" points="103.49 151.76 81.99 133.5 84.15 132.7 105.65 150.96 103.49 151.76"/><polygon class="cls-92" points="98.64 153.56 77.14 135.29 79.3 134.5 100.8 152.76 98.64 153.56"/><path class="cls-9" d="M112.75,123.34l8,6.78a.8.8,0,0,0,.7.08c.23-.09.29-.27.14-.4l-8-6.77a.77.77,0,0,0-.7-.08C112.66,123,112.59,123.21,112.75,123.34Z"/><path class="cls-9" d="M130.11,138.09l2.08,1.77a.8.8,0,0,0,.7.08c.23-.09.29-.26.14-.39L131,137.78a.76.76,0,0,0-.7-.08C130,137.79,130,138,130.11,138.09Z"/><path class="cls-9" d="M110.32,124.24l5.31,4.51a.8.8,0,0,0,.7.08c.23-.09.29-.26.14-.39l-5.31-4.51a.76.76,0,0,0-.7-.08C110.23,123.93,110.17,124.11,110.32,124.24Z"/><path class="cls-9" d="M130.6,140.44l-2.07-1.76a.77.77,0,0,0-.7-.08c-.23.08-.29.26-.14.39l2.07,1.76a.77.77,0,0,0,.7.08C130.69,140.75,130.76,140.57,130.6,140.44Z"/><path class="cls-9" d="M119.38,133.86l-10.64-9a.8.8,0,0,0-.7-.08c-.23.09-.3.26-.14.39l10.64,9a.77.77,0,0,0,.7.08C119.47,134.17,119.53,134,119.38,133.86Z"/><path class="cls-9" d="M128.18,141.34l-2.08-1.77a.79.79,0,0,0-.7-.08c-.23.09-.29.26-.14.39l2.08,1.77a.76.76,0,0,0,.7.08C128.27,141.64,128.33,141.47,128.18,141.34Z"/><path class="cls-9" d="M105.47,126l6.64,5.64a.77.77,0,0,0,.7.08c.23-.08.3-.26.14-.39l-6.64-5.64a.76.76,0,0,0-.7-.08C105.38,125.73,105.32,125.9,105.47,126Z"/><path class="cls-9" d="M125.75,142.24l-2.07-1.77a.77.77,0,0,0-.7-.08c-.23.09-.3.26-.14.39l2.08,1.77a.78.78,0,0,0,.69.08C125.84,142.54,125.91,142.36,125.75,142.24Z"/><path class="cls-9" d="M113.2,134.52l-9.31-7.9a.77.77,0,0,0-.7-.08c-.23.08-.3.26-.14.39l9.31,7.9a.78.78,0,0,0,.69.09C113.28,134.83,113.35,134.65,113.2,134.52Z"/><path class="cls-9" d="M123.33,143.13l-2.08-1.76a.75.75,0,0,0-.69-.08c-.24.08-.3.26-.15.39l2.08,1.76a.76.76,0,0,0,.7.08C123.42,143.44,123.48,143.26,123.33,143.13Z"/><path class="cls-9" d="M100.62,127.82l4,3.38a.75.75,0,0,0,.69.08c.24-.09.3-.26.15-.39l-4-3.38a.79.79,0,0,0-.7-.08C100.53,127.52,100.47,127.69,100.62,127.82Z"/><path class="cls-9" d="M120.9,144l-2.07-1.77a.8.8,0,0,0-.7-.08c-.23.09-.3.26-.14.39l2.08,1.77a.75.75,0,0,0,.69.08C121,144.33,121.06,144.16,120.9,144Z"/><path class="cls-9" d="M98.2,128.72l6.64,5.64a.77.77,0,0,0,.7.08c.23-.08.29-.26.14-.39L99,128.41a.77.77,0,0,0-.7-.08C98.11,128.42,98,128.59,98.2,128.72Z"/><path class="cls-9" d="M118.48,144.93l-2.08-1.77a.76.76,0,0,0-.7-.08c-.23.09-.29.26-.14.39l2.08,1.77a.8.8,0,0,0,.7.08C118.57,145.23,118.63,145.06,118.48,144.93Z"/><path class="cls-9" d="M95.77,129.62l5.31,4.51a.8.8,0,0,0,.7.08c.23-.09.3-.26.14-.39l-5.31-4.51a.76.76,0,0,0-.7-.08C95.68,129.31,95.62,129.49,95.77,129.62Z"/><path class="cls-9" d="M116.06,145.82,114,144.06a.77.77,0,0,0-.7-.08c-.23.08-.3.26-.14.39l2.08,1.76a.75.75,0,0,0,.69.08C116.14,146.13,116.21,146,116.06,145.82Z"/><path class="cls-9" d="M93.35,130.51l8,6.78a.75.75,0,0,0,.69.08c.23-.09.29-.26.14-.39l-8-6.78a.8.8,0,0,0-.7-.08C93.26,130.21,93.19,130.38,93.35,130.51Z"/><path class="cls-9" d="M113.63,146.72,111.55,145a.78.78,0,0,0-.69-.08c-.24.09-.3.26-.15.39l2.08,1.77a.77.77,0,0,0,.7.08C113.72,147,113.78,146.85,113.63,146.72Z"/><path class="cls-9" d="M90.92,131.41l4,3.38a.79.79,0,0,0,.7.08c.23-.09.29-.26.14-.39l-4-3.38a.76.76,0,0,0-.7-.08C90.83,131.11,90.77,131.28,90.92,131.41Z"/><path class="cls-9" d="M111.21,147.62l-2.08-1.77a.77.77,0,0,0-.7-.08c-.23.09-.3.26-.14.39l2.08,1.77a.78.78,0,0,0,.69.08C111.29,147.92,111.36,147.75,111.21,147.62Z"/><path class="cls-9" d="M88.5,132.31l5.31,4.51a.78.78,0,0,0,.69.08c.24-.09.3-.26.15-.39L89.34,132a.77.77,0,0,0-.7-.08C88.41,132,88.34,132.18,88.5,132.31Z"/><path class="cls-9" d="M108.78,148.51l-2.08-1.76a.75.75,0,0,0-.69-.08c-.24.08-.3.26-.15.39l2.08,1.76a.77.77,0,0,0,.7.08C108.87,148.82,108.93,148.64,108.78,148.51Z"/><path class="cls-9" d="M86.07,133.2l6.65,5.65a.78.78,0,0,0,.69.08c.23-.09.3-.26.15-.39l-6.65-5.65a.78.78,0,0,0-.69-.08C86,132.9,85.92,133.07,86.07,133.2Z"/><path class="cls-9" d="M106.36,149.41l-2.08-1.77a.8.8,0,0,0-.7-.08c-.23.09-.3.26-.14.39l2.08,1.77a.75.75,0,0,0,.69.08C106.44,149.71,106.51,149.54,106.36,149.41Z"/><path class="cls-9" d="M93.8,141.7l-9.31-7.91a.77.77,0,0,0-.7-.08c-.23.09-.29.26-.14.39L93,142a.78.78,0,0,0,.69.08C93.89,142,94,141.83,93.8,141.7Z"/><path class="cls-9" d="M103.93,150.31l-2.08-1.77a.79.79,0,0,0-.7-.08c-.23.09-.29.26-.14.39l2.08,1.77a.79.79,0,0,0,.7.08C104,150.61,104.08,150.44,103.93,150.31Z"/><path class="cls-9" d="M90,141.46l-8-6.77a.76.76,0,0,0-.7-.08c-.23.08-.29.26-.14.39l8,6.77a.76.76,0,0,0,.7.08C90.13,141.77,90.19,141.59,90,141.46Z"/><path class="cls-9" d="M101.51,151.2l-2.08-1.76a.77.77,0,0,0-.7-.08c-.23.08-.3.26-.14.39l2.08,1.76a.75.75,0,0,0,.69.08C101.59,151.51,101.66,151.33,101.51,151.2Z"/><path class="cls-9" d="M78.8,135.89l4,3.38a.77.77,0,0,0,.7.08c.23-.08.3-.26.14-.39l-4-3.37a.77.77,0,0,0-.7-.09C78.71,135.59,78.64,135.77,78.8,135.89Z"/><path class="cls-9" d="M99.08,152.1,97,150.34a.75.75,0,0,0-.69-.09c-.24.09-.3.27-.15.4l2.08,1.76a.77.77,0,0,0,.7.08C99.17,152.41,99.23,152.23,99.08,152.1Z"/><path class="cls-9" d="M83.86,142.12l-6.65-5.64a.78.78,0,0,0-.69-.08c-.24.09-.3.26-.15.39L83,142.43a.75.75,0,0,0,.69.08C83.94,142.43,84,142.25,83.86,142.12Z"/><path class="cls-9" d="M96.66,153l-2.08-1.77a.8.8,0,0,0-.7-.08c-.23.09-.29.26-.14.39l2.08,1.77a.78.78,0,0,0,.69.08C96.75,153.3,96.81,153.13,96.66,153Z"/><path class="cls-93" d="M108.05,108.15h0c-.19-.11-.49,0-.74.29l-6.45,7.78.46,1,.23-.27,20.51,11.66H123l.67-.15,6.52-7.91Z"/><polygon class="cls-8" points="123.53 126.41 127.7 121.38 107.38 109.99 103.2 115.01 123.53 126.41"/><polygon class="cls-94" points="122.26 124.72 125.43 120.9 108.56 111.45 105.38 115.26 122.26 124.72"/><path class="cls-31" d="M123,128.62l6.45-7.77c.29-.35.67-.44.83-.21a1,1,0,0,1-.22,1.06l-6.6,7.94Z"/><path class="cls-95" d="M100.86,116.22,82.43,126.54a1.33,1.33,0,0,0-.61,1,.41.41,0,0,0,.17.37h0l22.25,12.45.57-1,17.75-9.8.42-1Z"/><path class="cls-96" d="M123.46,129.64a1,1,0,0,1-.3.26l-18.58,10.42c-.34.19-.62,0-.62-.34a1.31,1.31,0,0,1,.62-1L123,128.62Z"/><path class="cls-66" d="M106.92,121.57h0l-6-3.35a.61.61,0,0,0-.56,0l-1.08.61h0c-.13-.09-.12-.22,0-.3l1.08-.61a.68.68,0,0,1,.56,0l6,3.35C107,121.36,107.05,121.48,106.92,121.57Z"/><path class="cls-97" d="M106.92,121.57h0l-1.09.61a.59.59,0,0,1-.55,0l-6-3.35h0l1.08-.61a.61.61,0,0,1,.56,0l6,3.35Z"/><path class="cls-98" d="M100.56,120.07l-1.35-.42-1-.57a.68.68,0,0,0-.56,0l-.85.48-1.18.32v.43h0a.19.19,0,0,0,.12.16L98,121.73a.59.59,0,0,0,.55,0l1.92-1.07a.21.21,0,0,0,.11-.16h0Z"/><path class="cls-99" d="M98.53,121.3a.66.66,0,0,1-.55,0L95.73,120c-.16-.09-.16-.23,0-.31l1.91-1.08a.68.68,0,0,1,.56,0l2.25,1.26c.15.09.15.23,0,.31Z"/><path class="cls-8" d="M97.66,119.77l.33-.19h0l-.39.11-.46.13-.11-.06.23-.25.23-.22h0l-.35.18-.34.17-.13-.07.84-.42.19.11-.22.23a1.89,1.89,0,0,1-.2.2h0l.35-.11.42-.12.19.11-.74.47-.14-.08Z"/><path class="cls-8" d="M98.42,119.68l.23.11c.12.07.18.12.18.18s0,.09-.09.12a.45.45,0,0,1-.34,0h0s0,.1,0,.15-.14.13-.16.16l-.15-.08.14-.14c.08-.07.07-.11,0-.15l-.07,0-.32.18-.15-.08Zm-.21.28.09,0a.3.3,0,0,0,.29,0c.08,0,.06-.1,0-.16l-.1,0Z"/><path class="cls-8" d="M98.89,120.79a1.07,1.07,0,0,1-.24-.09c-.25-.14-.24-.31,0-.45a.92.92,0,0,1,.84,0,.53.53,0,0,1,.15.13l-.14.05a.44.44,0,0,0-.12-.11.61.61,0,0,0-.57,0c-.18.1-.18.22,0,.32l.18.07Z"/><path class="cls-100" d="M97.79,121.63l-1.36-.42-1-.57a.59.59,0,0,0-.55,0l-.86.48-1.18.32v.43h0c0,.06,0,.11.12.16l2.25,1.26a.66.66,0,0,0,.55,0l1.92-1.08a.19.19,0,0,0,.12-.15h0Z"/><path class="cls-101" d="M95.75,122.86a.66.66,0,0,1-.55,0L93,121.59c-.16-.08-.16-.22,0-.31l1.92-1.07a.59.59,0,0,1,.55,0l2.25,1.26c.15.09.15.23,0,.31Z"/><path class="cls-8" d="M95.15,121.39a.85.85,0,0,1-.79,0c-.22-.13-.19-.3,0-.43a.82.82,0,0,1,.79,0C95.42,121.09,95.38,121.26,95.15,121.39Zm-.59-.33c-.17.09-.21.21-.07.29a.56.56,0,0,0,.51,0c.15-.08.21-.2.07-.28A.55.55,0,0,0,94.56,121.06Z"/><path class="cls-8" d="M95.66,121.24l.46.25-.12.07-.31-.18-.22.13.29.16-.12.07-.29-.17-.33.19-.15-.08Z"/><path class="cls-8" d="M96.26,121.57l.45.26-.12.06-.31-.17-.22.12.3.16-.12.07-.29-.16-.34.18-.14-.08Z"/><path class="cls-102" d="M95,123.18l-1.36-.41-1-.57a.61.61,0,0,0-.56,0l-.84.47-1.19.33v.43h0a.19.19,0,0,0,.12.15l2.25,1.26a.59.59,0,0,0,.55,0l1.92-1.07a.19.19,0,0,0,.12-.15h0Z"/><path class="cls-103" d="M93,124.41a.59.59,0,0,1-.55,0l-2.25-1.26c-.16-.08-.16-.22,0-.31l1.91-1.07a.61.61,0,0,1,.56,0L94.89,123c.16.08.16.22,0,.31Z"/><path class="cls-8" d="M92,122.91l-.29.09-.15-.09,1-.3.18.11-.53.58-.15-.09.15-.16Zm.33.06.13-.14.11-.1h0a1,1,0,0,0-.18.06l-.26.07Z"/><path class="cls-8" d="M92.88,123.65a1.07,1.07,0,0,1-.24-.09c-.25-.14-.24-.32,0-.45a.89.89,0,0,1,.84,0c.09.06.14.1.15.13l-.14.05a.52.52,0,0,0-.13-.11.56.56,0,0,0-.56,0c-.18.1-.19.22,0,.31a.71.71,0,0,0,.18.08Z"/><path class="cls-104" d="M92.23,124.74l-1.35-.42-1-.57a.66.66,0,0,0-.55,0l-.85.48-1.18.32V125h0a.18.18,0,0,0,.11.16l2.25,1.26a.61.61,0,0,0,.56,0l1.91-1.07a.19.19,0,0,0,.12-.16h0Z"/><path class="cls-105" d="M90.2,126a.61.61,0,0,1-.56,0l-2.25-1.26c-.15-.09-.15-.23,0-.31l1.92-1.08a.66.66,0,0,1,.55,0l2.25,1.27c.15.08.15.22,0,.31Z"/><path class="cls-8" d="M89.44,124.84a1.07,1.07,0,0,1-.24-.09c-.25-.15-.24-.32,0-.45a.89.89,0,0,1,.84,0,.33.33,0,0,1,.15.13l-.14,0a.38.38,0,0,0-.13-.1.56.56,0,0,0-.56,0c-.18.1-.18.21,0,.31l.18.07Z"/><path class="cls-8" d="M90.33,125l-.29-.16-.24.13.34.18-.12.07-.48-.27.79-.44.46.26-.12.06-.31-.17-.21.11.3.17Z"/><path class="cls-105" d="M89.45,126.3l-1.35-.42-1-.57a.66.66,0,0,0-.55,0l-.85.48-1.19.32v.43h0c0,.06,0,.11.12.16L86.86,128a.61.61,0,0,0,.56,0l1.91-1.08q.12-.06.12-.15h0Z"/><path class="cls-106" d="M87.42,127.53a.68.68,0,0,1-.56,0l-2.25-1.26c-.15-.09-.15-.23,0-.31l1.92-1.08a.66.66,0,0,1,.55,0l2.25,1.26c.16.09.16.23,0,.31Z"/><path class="cls-8" d="M86.08,126.08l-.19-.08c-.21-.12-.2-.26,0-.37a.73.73,0,0,1,.69,0,.39.39,0,0,1,.13.11l-.12,0a.3.3,0,0,0-.1-.09.49.49,0,0,0-.47,0c-.14.08-.15.17,0,.25a.39.39,0,0,0,.15.06Z"/><path class="cls-8" d="M86.29,126.25l.47-.51.09.05-.48.51Z"/><path class="cls-8" d="M87.39,126.46a.68.68,0,0,1-.65,0c-.18-.11-.16-.25,0-.35a.68.68,0,0,1,.65,0C87.61,126.21,87.58,126.36,87.39,126.46Zm-.49-.27c-.13.08-.17.17-.06.24a.45.45,0,0,0,.42,0c.12-.07.18-.16.06-.23A.45.45,0,0,0,86.9,126.19Z"/><path class="cls-8" d="M87.16,126.7l.65-.36.13.07-.11.25a1.14,1.14,0,0,1-.1.19h0a3,3,0,0,1,.26-.16l.22-.13.11.07-.64.36-.13-.07.12-.25a.59.59,0,0,1,.11-.19h0l-.27.16-.23.13Z"/><path class="cls-71" d="M110.35,122.94h0v-.45l-.89-.14-1.48-.83a.68.68,0,0,0-.56,0l-.69.39-.51-.08v.46h0a.21.21,0,0,0,.12.15l2.25,1.26a.61.61,0,0,0,.56,0l1.08-.6c.08,0,.12-.1.12-.16Z"/><path class="cls-107" d="M109.15,123.26a.61.61,0,0,1-.56,0L106.34,122c-.15-.08-.15-.22,0-.31l1.08-.61a.68.68,0,0,1,.56,0l2.25,1.26a.17.17,0,0,1,0,.32Z"/><path class="cls-8" d="M107.7,121.88l.26-.16h0l-.33.1-.38.1-.09,0,.19-.21.19-.18h0l-.29.15-.28.14-.11-.06.7-.35.15.09-.17.2-.17.16h0l.3-.09.35-.1.16.09-.62.39-.12-.06Z"/><path class="cls-8" d="M108.45,121.87l-.65.37-.12-.07.65-.37Z"/><path class="cls-8" d="M108.71,122l-.66.37-.12-.07.66-.37Z"/><path class="cls-8" d="M108.84,122.09l.19.1c.1,0,.15.09.15.14s0,.07-.07.11a.48.48,0,0,1-.29,0h0s0,.08,0,.12a1.74,1.74,0,0,0-.14.14l-.12-.07a.53.53,0,0,1,.11-.11c.07-.06.07-.1,0-.13l-.06,0-.27.15-.12-.06Zm-.17.23.07,0a.26.26,0,0,0,.24,0c.07,0,0-.09,0-.14l-.08,0Z"/><path class="cls-8" d="M109.23,123a.68.68,0,0,1-.2-.08c-.21-.12-.2-.26,0-.37a.75.75,0,0,1,.7,0c.08,0,.12.08.13.11l-.12,0a.38.38,0,0,0-.11-.08.49.49,0,0,0-.47,0c-.14.09-.15.18,0,.27l.16.06Z"/><path class="cls-71" d="M113.68,124.81h0v-.45l-.88-.14-1.49-.83a.66.66,0,0,0-.55,0l-.7.39-.5-.08v.45h0a.19.19,0,0,0,.11.16l2.26,1.26a.59.59,0,0,0,.55,0l1.09-.61a.18.18,0,0,0,.11-.15Z"/><path class="cls-108" d="M112.48,125.13a.59.59,0,0,1-.55,0l-2.26-1.26c-.15-.08-.15-.22,0-.31l1.09-.61a.66.66,0,0,1,.55,0l2.26,1.26c.15.09.15.23,0,.31Z"/><path class="cls-8" d="M111.18,123.83l.27-.16h0l-.33.1-.38.11-.09-.06.19-.2a1.62,1.62,0,0,1,.19-.18h0l-.29.15-.28.14-.12-.07.71-.34.15.09-.18.19-.16.17h0l.29-.09.36-.1.15.09-.61.39-.12-.07Z"/><path class="cls-8" d="M111.94,123.82l-.66.37-.11-.07.65-.36Z"/><path class="cls-8" d="M112.2,124l-.66.37-.12-.07.66-.37Z"/><path class="cls-8" d="M111.79,124.49l1-.17.07,0-1,.16Zm.63-.17a.44.44,0,0,1-.37,0c-.09,0-.09-.13,0-.2a.41.41,0,0,1,.37,0C112.55,124.18,112.53,124.25,112.42,124.32Zm-.24-.13c-.08,0-.1.08-.06.11a.22.22,0,0,0,.2,0c.07,0,.11-.08.06-.11A.22.22,0,0,0,112.18,124.19Zm.41.52a.39.39,0,0,1-.36,0c-.09,0-.09-.13,0-.2a.39.39,0,0,1,.36,0C112.72,124.57,112.71,124.64,112.59,124.71Zm-.24-.13c-.07,0-.1.09,0,.11s.12,0,.2,0,.1-.08,0-.11A.22.22,0,0,0,112.35,124.58Z"/><path class="cls-71" d="M117.41,126.9h0v-.45l-.88-.14-1.49-.83a.59.59,0,0,0-.55,0l-.7.39-.5-.08v.45h0a.19.19,0,0,0,.11.16l2.25,1.26a.61.61,0,0,0,.56,0l1.08-.61a.19.19,0,0,0,.12-.15Z"/><path class="cls-109" d="M116.21,127.22a.61.61,0,0,1-.56,0L113.4,126c-.15-.09-.15-.23,0-.31l1.09-.61a.59.59,0,0,1,.55,0l2.25,1.26c.15.09.15.23,0,.31Z"/><path class="cls-8" d="M115.17,126.07l.26-.16h0l-.33.09-.38.11-.09,0,.19-.21.19-.18h0l-.29.15-.28.14-.11-.06.7-.35.16.09-.18.2-.17.16h0l.3-.09.35-.1.16.09-.62.39-.12-.07Z"/><path class="cls-8" d="M115.92,126.05l-.65.37-.12-.06.66-.37Z"/><path class="cls-8" d="M116.18,126.2l-.66.37-.12-.07.66-.37Z"/><path class="cls-8" d="M116.17,126.59l-.08,0-.25-.14.08,0Z"/><path class="cls-71" d="M120.74,128.76h0v-.44l-.88-.14-1.48-.83a.61.61,0,0,0-.56,0l-.7.39-.5-.08v.45h0c0,.06,0,.11.12.16l2.25,1.26a.66.66,0,0,0,.55,0l1.09-.61a.19.19,0,0,0,.11-.15h0Z"/><path class="cls-110" d="M119.54,129.09a.59.59,0,0,1-.55,0l-2.25-1.26c-.16-.09-.16-.23,0-.31l1.08-.61a.61.61,0,0,1,.56,0l2.25,1.26c.15.09.15.23,0,.31Z"/><path class="cls-8" d="M118.36,127.86l.27-.16h0l-.33.09-.38.11-.09-.05.19-.21.19-.18h0l-.3.15-.27.14-.12-.06.71-.35.15.09-.18.2-.16.16h0l.29-.09.36-.1.15.09-.62.39-.11-.07Z"/><path class="cls-8" d="M119.12,127.85l-.66.36-.12-.06.66-.37Z"/><path class="cls-8" d="M119.38,128l-.66.37-.12-.07.66-.37Z"/><path class="cls-8" d="M119.64,128.29l-.22.13.21.11-.08.05-.21-.12-.22.12-.08,0,.22-.13-.21-.12.08,0,.21.12.22-.12Z"/><path class="cls-111" d="M104.29,122.16l-1.35-.42-1-.57a.68.68,0,0,0-.56,0l-.85.48-1.18.32v.43h0a.19.19,0,0,0,.11.16l2.25,1.26a.68.68,0,0,0,.56,0l1.91-1.08q.12-.06.12-.15h0Z"/><path class="cls-112" d="M102.26,123.39a.68.68,0,0,1-.56,0l-2.25-1.26c-.15-.09-.15-.23,0-.31l1.92-1.08a.61.61,0,0,1,.56,0l2.24,1.26c.16.09.16.23,0,.31Z"/><path class="cls-8" d="M101.91,122.11l.32-.19h0l-.4.12-.45.12-.11-.06.23-.25a2.29,2.29,0,0,1,.23-.21h0l-.35.18L101,122l-.13-.07.84-.41.19.1-.22.24a1.8,1.8,0,0,1-.2.19h0l.36-.11.42-.11.19.1-.74.47-.14-.08Z"/><path class="cls-8" d="M102.51,122.4l-.1.06-.3-.17.1-.06Z"/><path class="cls-113" d="M107.62,124l-1.35-.42-1-.57a.61.61,0,0,0-.56,0l-.85.48-1.18.32v.43h0a.21.21,0,0,0,.11.16l2.26,1.26a.66.66,0,0,0,.55,0l1.92-1.08a.19.19,0,0,0,.11-.15h0Z"/><path class="cls-114" d="M105.59,125.26a.66.66,0,0,1-.55,0L102.78,124c-.15-.08-.15-.22,0-.31l1.92-1.07a.61.61,0,0,1,.56,0l2.25,1.26c.15.09.15.23,0,.31Z"/><path class="cls-8" d="M105.08,123.89l.32-.19h0l-.39.11-.46.13-.11-.06.23-.25.23-.22h0l-.34.18-.34.17-.13-.08.84-.41.19.11-.22.23a1.89,1.89,0,0,1-.2.2h0l.36-.11.42-.12.19.11-.74.47-.14-.08Z"/><path class="cls-8" d="M106,124.06l-.27.15.26.15-.09,0-.26-.15-.26.15-.1,0,.27-.15-.26-.14.09,0,.26.14.26-.15Z"/><path class="cls-3" d="M104.48,125.43l-1.29-.39-1-.55a.62.62,0,0,0-.53,0l-.81.46-1.13.31v.41h0a.18.18,0,0,0,.1.15L102,127a.62.62,0,0,0,.53,0l1.83-1a.19.19,0,0,0,.11-.15h0Z"/><path class="cls-115" d="M102.54,126.61a.62.62,0,0,1-.53,0l-2.16-1.2c-.14-.09-.14-.22,0-.3l1.84-1a.62.62,0,0,1,.53,0l2.15,1.21c.15.08.15.21,0,.29Z"/><path class="cls-8" d="M102.08,125.29c0-.06,0-.11,0-.15a.47.47,0,0,1,.44,0c.16.08.13.18,0,.23a.45.45,0,0,1-.27,0h0a.11.11,0,0,1,0,.18.52.52,0,0,1-.48,0c-.17-.1-.16-.2-.06-.26a.49.49,0,0,1,.32,0Zm.06.25c.07-.05.06-.1,0-.16a.35.35,0,0,0-.23,0c-.07,0-.08.09,0,.14A.27.27,0,0,0,102.14,125.54Zm.12-.33c-.06,0,0,.08,0,.13a.28.28,0,0,0,.2,0s.07-.07,0-.12A.26.26,0,0,0,102.26,125.21Z"/><path class="cls-3" d="M102.07,127.14l-1.36-.42-1-.57a.66.66,0,0,0-.55,0l-.85.48-1.19.32v.44h0a.19.19,0,0,0,.12.15l2.25,1.26a.59.59,0,0,0,.55,0l1.92-1.07c.08,0,.12-.1.12-.16h0Z"/><path class="cls-116" d="M100,128.37a.59.59,0,0,1-.55,0l-2.25-1.26c-.15-.09-.15-.23,0-.31l1.92-1.08a.66.66,0,0,1,.55,0L102,127a.17.17,0,0,1,0,.32Z"/><path class="cls-8" d="M100.15,127.05l-.29-.16-.18.07.06,0a.3.3,0,0,1,.14.13s0,.11-.1.16a.61.61,0,0,1-.57,0c-.09-.05-.14-.1-.15-.14l.13,0a.38.38,0,0,0,.13.11.32.32,0,0,0,.3,0c.09,0,.08-.12-.07-.2l-.11-.06.43-.19.4.23Z"/><path class="cls-3" d="M99.29,128.7l-1.35-.42-1-.57a.66.66,0,0,0-.55,0l-.85.48-1.18.32v.43h0a.18.18,0,0,0,.11.16l2.25,1.26a.61.61,0,0,0,.56,0l1.91-1.07c.08,0,.12-.1.12-.16h0Z"/><path class="cls-117" d="M97.26,129.93a.68.68,0,0,1-.56,0l-2.25-1.26c-.15-.09-.15-.23,0-.31l1.92-1.08a.66.66,0,0,1,.55,0l2.25,1.26c.16.09.16.23,0,.31Z"/><path class="cls-8" d="M96.25,128.7l.08,0h.18a1.35,1.35,0,0,0,.62-.05c.07,0,.09-.09,0-.15a.47.47,0,0,0-.22,0l0-.08a.76.76,0,0,1,.32.08c.17.1.14.2,0,.27a1.28,1.28,0,0,1-.6.08h-.12l.31.18-.12.07Z"/><path class="cls-3" d="M96.51,130.26l-1.35-.42-1-.57a.59.59,0,0,0-.55,0l-.85.48-1.18.32v.43h0a.21.21,0,0,0,.11.16l2.25,1.26a.68.68,0,0,0,.56,0l1.92-1.08a.19.19,0,0,0,.11-.15h0Z"/><path class="cls-118" d="M94.48,131.49a.68.68,0,0,1-.56,0l-2.25-1.27c-.15-.08-.15-.22,0-.31l1.92-1.07a.59.59,0,0,1,.55,0l2.26,1.26c.15.09.15.23,0,.31Z"/><path class="cls-8" d="M94.08,130.16a.71.71,0,0,1-.68.07c-.17-.1-.11-.24.12-.37a.73.73,0,0,1,.68-.06C94.38,129.9,94.3,130,94.08,130.16Zm-.41-.22c-.19.11-.23.19-.15.23s.23,0,.41-.09.24-.18.15-.22S93.86,129.84,93.67,129.94Z"/><path class="cls-8" d="M94.7,130.51a.69.69,0,0,1-.67.07c-.18-.1-.11-.24.12-.37a.71.71,0,0,1,.67-.06C95,130.25,94.93,130.39,94.7,130.51Zm-.41-.22c-.18.11-.23.19-.15.23s.23,0,.41-.08.24-.19.16-.23S94.48,130.19,94.29,130.29Z"/><path class="cls-3" d="M101.29,123.65l-1.29-.4-1-.54a.55.55,0,0,0-.53,0l-.81.45-1.13.31v.41h0a.16.16,0,0,0,.11.15l2.15,1.21a.62.62,0,0,0,.53,0l1.83-1a.16.16,0,0,0,.11-.15h0Z"/><path class="cls-119" d="M99.35,124.83a.62.62,0,0,1-.53,0l-2.15-1.21c-.15-.08-.15-.22,0-.3l1.83-1a.55.55,0,0,1,.53,0l2.15,1.2c.15.08.15.22,0,.3Z"/><path class="cls-8" d="M99.61,123.52l-.09,0-1,.19-.14-.09.92-.17h0l-.34-.19.11-.06Z"/><path class="cls-3" d="M98.73,125.27l-1.35-.42-1-.56a.61.61,0,0,0-.56,0l-.85.47-1.18.33v.43h0a.19.19,0,0,0,.11.15l2.26,1.26a.59.59,0,0,0,.55,0l1.92-1.07a.19.19,0,0,0,.11-.16h0Z"/><path class="cls-120" d="M96.7,126.5a.59.59,0,0,1-.55,0l-2.26-1.26a.16.16,0,0,1,0-.31l1.92-1.08a.68.68,0,0,1,.56,0l2.25,1.27c.15.08.15.22,0,.31Z"/><path class="cls-8" d="M96,125.45l.19-.11-.35-.19.1-.06.78-.09.17.1-.46.25.1.06-.11.06-.1,0-.19.1Zm.3-.17.2-.12.14-.07h0l-.2,0-.35,0h0Z"/><path class="cls-3" d="M96,126.83l-1.35-.42-1-.57a.68.68,0,0,0-.56,0l-.85.48-1.18.32v.43h0a.19.19,0,0,0,.12.16l2.25,1.26a.59.59,0,0,0,.55,0l1.92-1.07a.19.19,0,0,0,.11-.16h0Z"/><path class="cls-121" d="M93.92,128.06a.59.59,0,0,1-.55,0l-2.25-1.26c-.16-.09-.16-.23,0-.31L93,125.41a.68.68,0,0,1,.56,0l2.25,1.26c.15.09.15.23,0,.31Z"/><path class="cls-8" d="M93.77,126.6h0l-.21,0,.09-.07.28.05.12.07-.76.42-.14-.08Z"/><path class="cls-3" d="M93.18,128.39,91.82,128l-1-.57a.68.68,0,0,0-.56,0l-.85.48-1.18.32v.43h0c0,.06,0,.11.12.16l2.25,1.26a.66.66,0,0,0,.55,0L93.06,129a.19.19,0,0,0,.12-.15h0Z"/><path class="cls-122" d="M91.14,129.62a.66.66,0,0,1-.55,0l-2.25-1.26c-.16-.09-.16-.23,0-.32L90.25,127a.61.61,0,0,1,.56,0l2.25,1.26c.15.09.15.23,0,.31Z"/><path class="cls-8" d="M91.05,128.47a.69.69,0,0,1-.67.07c-.18-.1-.11-.24.12-.37a.69.69,0,0,1,.67-.07C91.36,128.2,91.28,128.34,91.05,128.47Zm-.41-.22c-.18.1-.23.18-.15.23s.23,0,.42-.09.24-.18.15-.23A.49.49,0,0,0,90.64,128.25Z"/><path class="cls-123" d="M111,125.89l-1.35-.41-1-.57a.59.59,0,0,0-.55,0l-.85.48-1.19.32v.43h0c0,.06,0,.11.12.16l2.25,1.26a.66.66,0,0,0,.55,0l1.92-1.08a.19.19,0,0,0,.12-.15h0Z"/><path class="cls-124" d="M108.92,127.13a.66.66,0,0,1-.55,0l-2.25-1.27c-.15-.08-.15-.22,0-.31l1.92-1.07a.59.59,0,0,1,.55,0l2.25,1.26a.16.16,0,0,1,0,.31Z"/><path class="cls-8" d="M108.47,125.45l-.26.15.25.14-.09.05-.26-.14-.26.15-.1-.06.27-.14-.26-.15.09,0,.26.14.26-.14Z"/><path class="cls-8" d="M108.38,126.15l.58-.63.1.06-.58.63Z"/><path class="cls-8" d="M109.23,126.17l-.1,0-.3-.16.1-.06Z"/><path class="cls-3" d="M108.18,127.45l-1.35-.42-1-.56a.59.59,0,0,0-.55,0l-.85.47-1.18.33v.43h0a.19.19,0,0,0,.11.15l2.25,1.26a.61.61,0,0,0,.56,0l1.91-1.07a.19.19,0,0,0,.12-.16h0Z"/><path class="cls-125" d="M106.15,128.68a.61.61,0,0,1-.56,0l-2.25-1.26c-.15-.09-.15-.23,0-.31l1.92-1.07a.59.59,0,0,1,.55,0l2.25,1.26c.16.08.16.22,0,.31Z"/><path class="cls-8" d="M105.3,127.43l.08,0a.46.46,0,0,0,.21,0,.51.51,0,0,0,.27,0h0a.52.52,0,0,1-.24,0c-.13-.08-.13-.19,0-.26a.57.57,0,0,1,.54,0c.18.1.14.23,0,.33a1,1,0,0,1-.85,0l-.09-.05Zm.48-.19c-.08,0-.09.1,0,.15a.28.28,0,0,0,.18,0l0,0c.1-.05.15-.13.06-.18A.31.31,0,0,0,105.78,127.24Z"/><path class="cls-3" d="M105.4,129l-1.35-.42-1-.57a.68.68,0,0,0-.56,0l-.85.48-1.18.32v.43h0a.19.19,0,0,0,.11.16l2.25,1.26a.61.61,0,0,0,.56,0l1.92-1.07a.21.21,0,0,0,.11-.16h0Z"/><path class="cls-126" d="M103.37,130.24a.61.61,0,0,1-.56,0L100.56,129c-.15-.09-.15-.23,0-.31l1.92-1.08a.68.68,0,0,1,.56,0l2.25,1.26c.15.09.15.23,0,.31Z"/><path class="cls-8" d="M103.48,128.9l-.08,0a.6.6,0,0,0-.47,0h0a.5.5,0,0,1,.24.06c.13.07.14.18,0,.27a.6.6,0,0,1-.54,0c-.19-.1-.15-.24,0-.35a1,1,0,0,1,.47-.11.86.86,0,0,1,.39.09l.07,0Zm-.48.19c.09-.05.11-.11,0-.16a.27.27,0,0,0-.2,0s0,0,0,0-.14.13,0,.18A.29.29,0,0,0,103,129.09Z"/><path class="cls-3" d="M102.62,130.57l-1.35-.42-1-.57a.68.68,0,0,0-.56,0l-.85.48-1.18.32v.43h0c0,.06,0,.11.12.16l2.24,1.26a.68.68,0,0,0,.56,0l1.92-1.08a.17.17,0,0,0,.11-.15h0Z"/><path class="cls-127" d="M100.59,131.8a.68.68,0,0,1-.56,0l-2.24-1.26c-.16-.09-.16-.23,0-.32l1.91-1.07a.61.61,0,0,1,.56,0l2.25,1.26c.15.09.15.23,0,.31Z"/><path class="cls-8" d="M99.76,130.5a.32.32,0,0,0,.12.12.31.31,0,0,0,.28,0c.09,0,0-.12,0-.17l-.06,0,.1-.06.07,0a.28.28,0,0,0,.25,0c.06,0,.06-.08,0-.13a.89.89,0,0,0-.2-.06l.07-.07a.85.85,0,0,1,.27.09c.16.09.15.18.06.23a.43.43,0,0,1-.32,0h0c.07.06.07.14,0,.2a.55.55,0,0,1-.52,0,.29.29,0,0,1-.16-.15Z"/><path class="cls-3" d="M99.85,132.12l-1.36-.41-1-.57a.61.61,0,0,0-.56,0l-.85.48-1.18.32v.43h0a.19.19,0,0,0,.12.15l2.25,1.27a.66.66,0,0,0,.55,0l1.92-1.08a.21.21,0,0,0,.12-.15h0Z"/><path class="cls-128" d="M97.81,133.35a.59.59,0,0,1-.55,0L95,132.09c-.16-.08-.16-.22,0-.31l1.91-1.07a.61.61,0,0,1,.56,0L99.73,132c.15.08.15.22,0,.31Z"/><path class="cls-8" d="M97.22,132a.4.4,0,0,1,.37,0c.11.06.1.14,0,.2a.38.38,0,0,1-.36,0C97.11,132.11,97.12,132,97.22,132Z"/><path class="cls-129" d="M114.69,128l-1.36-.41-1-.57a.61.61,0,0,0-.56,0l-.85.47-1.18.33v.43h0a.19.19,0,0,0,.11.15l2.26,1.26a.59.59,0,0,0,.55,0l1.92-1.07a.19.19,0,0,0,.12-.16h0Z"/><path class="cls-130" d="M112.65,129.21a.59.59,0,0,1-.55,0L109.84,128c-.15-.08-.15-.22,0-.31l1.92-1.07a.61.61,0,0,1,.56,0l2.25,1.26c.15.08.15.22,0,.31Z"/><polygon class="cls-8" points="113.97 128.19 112.88 127.58 111.47 128.05 111.87 127.62 111.87 127.62 111.22 127.25 111.08 127.33 111.63 127.64 111.13 128.17 111.27 128.24 112.84 127.72 113.83 128.27 113.97 128.19"/><path class="cls-131" d="M111.9,129.54l-1.35-.42-1-.56a.61.61,0,0,0-.56,0l-.85.47-1.18.32v.43h0a.19.19,0,0,0,.12.16l2.25,1.26a.59.59,0,0,0,.55,0l1.92-1.07a.19.19,0,0,0,.11-.16h0Z"/><path class="cls-132" d="M109.87,130.77a.59.59,0,0,1-.55,0l-2.25-1.26c-.16-.09-.16-.23,0-.31l1.91-1.08a.68.68,0,0,1,.56,0l2.25,1.27c.16.08.16.22,0,.31Z"/><path class="cls-8" d="M108.85,129.49l1.23-.19.08,0-1.23.2Zm.76-.2a.46.46,0,0,1-.44,0c-.11-.06-.11-.15,0-.24a.49.49,0,0,1,.44,0C109.76,129.12,109.74,129.21,109.61,129.29Zm-.29-.16c-.09.05-.13.11-.07.14a.28.28,0,0,0,.24,0c.08,0,.13-.1.07-.13S109.4,129.09,109.32,129.13Zm.5.63a.46.46,0,0,1-.44,0c-.11-.06-.11-.15,0-.24a.49.49,0,0,1,.44,0C110,129.59,110,129.68,109.82,129.76Zm-.29-.16c-.09.05-.13.11-.07.14a.28.28,0,0,0,.24,0c.08,0,.13-.1.07-.13S109.61,129.56,109.53,129.6Z"/><path class="cls-133" d="M109.13,131.1l-1.35-.42-1-.57a.66.66,0,0,0-.55,0l-.85.48-1.19.32v.43h0a.19.19,0,0,0,.12.16l2.25,1.26a.61.61,0,0,0,.56,0l1.91-1.07c.08-.05.12-.1.12-.16h0Z"/><path class="cls-134" d="M107.1,132.33a.68.68,0,0,1-.56,0l-2.25-1.26c-.16-.09-.16-.23,0-.31l1.92-1.08a.66.66,0,0,1,.55,0l2.25,1.26c.15.09.15.23,0,.31Z"/><path class="cls-8" d="M106.44,131.3l.07-.13.07-.13h0l-.22,0-.23,0L106,131l.63-.09.17-.34.16.09-.07.14-.07.11h0l.2,0,.24,0,.17.09-.62.09-.16.36Z"/><path class="cls-135" d="M105.82,132.7l-1.84-1a.61.61,0,0,0-.56,0L99,134.14l-.41-.11v.43h0a.19.19,0,0,0,.11.15l2.25,1.26a.61.61,0,0,0,.56,0l4.69-2.63a.19.19,0,0,0,.12-.15v-.43Z"/><path class="cls-136" d="M106.23,132.5,104,131.24a.61.61,0,0,0-.56,0l-4.69,2.63c-.15.09-.15.23,0,.31l2.25,1.26a.61.61,0,0,0,.56,0l4.69-2.63C106.39,132.73,106.39,132.58,106.23,132.5Z"/><path class="cls-8" d="M103,133.07l-.33.19.32.18-.11.06-.33-.18-.33.19-.13-.07.34-.19-.32-.18.12-.06.32.18.33-.19Z"/><path class="cls-137" d="M118,129.85l-1.35-.42-1-.56a.59.59,0,0,0-.55,0l-.85.47-1.18.33v.43h0a.17.17,0,0,0,.11.15l2.25,1.26a.61.61,0,0,0,.56,0l1.91-1.07a.19.19,0,0,0,.12-.16h0Z"/><path class="cls-138" d="M116,131.08a.61.61,0,0,1-.56,0l-2.25-1.26c-.15-.08-.15-.22,0-.31l1.92-1.07a.59.59,0,0,1,.55,0l2.25,1.26c.16.08.16.22,0,.31Z"/><polygon class="cls-8" points="116.6 130.38 115.96 129.72 115.77 129.82 114.64 129.19 114.49 129.28 115.61 129.91 115.42 130.02 116.6 130.38"/><path class="cls-139" d="M115.24,131.41l-1.35-.42-1-.57a.66.66,0,0,0-.55,0l-.85.48-1.18.32v.43h0a.18.18,0,0,0,.11.16l2.25,1.26a.61.61,0,0,0,.56,0l1.91-1.07c.08-.05.12-.1.12-.16h0Z"/><path class="cls-140" d="M113.21,132.64a.61.61,0,0,1-.56,0l-2.25-1.26c-.15-.09-.15-.23,0-.31l1.92-1.08a.66.66,0,0,1,.55,0l2.25,1.26c.16.09.16.23,0,.31Z"/><path class="cls-8" d="M112.66,131.25l.32-.19h0l-.4.11-.46.13-.11-.06.24-.25.22-.22h0l-.35.18-.33.17-.14-.07.84-.42.19.11-.21.24-.2.19h0l.35-.11.43-.11.19.1-.75.47-.14-.08Z"/><path class="cls-8" d="M113.57,131.24l-.46.25c-.16.09-.16.17-.07.22a.42.42,0,0,0,.4,0l.46-.26.14.08-.45.25a.65.65,0,0,1-.67,0c-.18-.1-.2-.22,0-.36l.45-.25Z"/><path class="cls-141" d="M112.46,133l-1.35-.42-1-.57a.59.59,0,0,0-.55,0l-.85.48-1.18.32v.43h0a.19.19,0,0,0,.11.16l2.25,1.26a.68.68,0,0,0,.56,0l1.92-1.08a.19.19,0,0,0,.11-.15h0Z"/><path class="cls-142" d="M110.43,134.2a.68.68,0,0,1-.56,0l-2.25-1.26a.17.17,0,0,1,0-.32l1.92-1.07a.59.59,0,0,1,.55,0l2.26,1.26c.15.09.15.23,0,.31Z"/><path class="cls-8" d="M109.53,133l1.13-.32.1.06-1.13.31Z"/><path class="cls-143" d="M109.68,134.52l-1.35-.41-1-.57a.61.61,0,0,0-.56,0l-.85.47-1.18.33v.43h0a.19.19,0,0,0,.11.15l2.26,1.26a.59.59,0,0,0,.55,0l1.92-1.07a.19.19,0,0,0,.11-.15h0Z"/><path class="cls-144" d="M107.65,135.75a.59.59,0,0,1-.55,0l-2.26-1.26c-.15-.08-.15-.22,0-.31l1.92-1.07a.61.61,0,0,1,.56,0l2.25,1.26c.15.08.15.22,0,.31Z"/><path class="cls-8" d="M107.49,134.48l-.1.06-.3-.17.1-.05Z"/><path class="cls-145" d="M106.9,136.08l-1.35-.42-1-.56a.61.61,0,0,0-.56,0l-.85.47-1.18.32v.44h0a.19.19,0,0,0,.12.15l2.25,1.26a.59.59,0,0,0,.55,0l1.92-1.07a.19.19,0,0,0,.11-.16h0Z"/><path class="cls-146" d="M104.87,137.31a.59.59,0,0,1-.55,0l-2.25-1.26c-.16-.09-.16-.23,0-.31l1.91-1.08a.68.68,0,0,1,.56,0l2.25,1.27c.15.08.15.22,0,.31Z"/><path class="cls-8" d="M104.05,135.91l.09,0,.6.33-.09.05Zm.24-.14.09-.05.6.34-.09.05Z"/><polygon class="cls-147" points="63.91 110.81 53.76 116.52 49.46 114.11 49.46 110.77 53.76 113.19 63.91 107.47 63.91 110.81"/><polygon class="cls-148" points="63.91 107.67 53.76 113.38 49.46 110.97 49.46 110.77 53.76 113.19 63.91 107.47 63.91 107.67"/><polygon class="cls-149" points="63.91 108.03 53.76 113.74 49.46 111.33 49.46 111.14 53.76 113.55 63.91 107.83 63.91 108.03"/><polygon class="cls-150" points="63.91 108.4 53.76 114.11 49.46 111.7 49.46 111.51 53.76 113.92 63.91 108.21 63.91 108.4"/><polygon class="cls-151" points="63.91 108.78 53.76 114.49 49.46 112.08 49.46 111.89 53.76 114.3 63.91 108.58 63.91 108.78"/><polygon class="cls-152" points="63.91 109.11 53.76 114.83 49.46 112.42 49.46 112.22 53.76 114.64 63.91 108.92 63.91 109.11"/><polygon class="cls-153" points="63.91 109.5 53.76 115.21 49.46 112.8 49.46 112.61 53.76 115.02 63.91 109.31 63.91 109.5"/><polygon class="cls-154" points="63.91 109.88 53.76 115.6 49.46 113.18 49.46 112.99 53.76 115.4 63.91 109.69 63.91 109.88"/><polygon class="cls-155" points="63.91 110.23 53.76 115.94 49.46 113.53 49.46 113.34 53.76 115.75 63.91 110.04 63.91 110.23"/><polygon class="cls-156" points="63.91 110.62 53.76 116.33 49.46 113.92 49.46 113.72 53.76 116.14 63.91 110.42 63.91 110.62"/><polygon class="cls-29" points="63.91 107.47 53.76 113.19 49.46 110.77 59.61 105.06 63.91 107.47"/><path class="cls-157" d="M63,107.26l-3-1.71a.87.87,0,0,1-.8,0l-8.92,5a.24.24,0,0,1,0,.45l3,1.71a.93.93,0,0,1,.8,0l8.92-5C62.82,107.59,62.82,107.39,63,107.26Z"/><path class="cls-158" d="M57.63,108.59c.73.4.89,1,.35,1.28a2.69,2.69,0,0,1-2.3-.2c-.73-.4-.89-1-.35-1.28A2.69,2.69,0,0,1,57.63,108.59Z"/><path class="cls-158" d="M60.24,107.12c.46.26.57.64.22.83a1.7,1.7,0,0,1-1.47-.13c-.47-.26-.57-.63-.23-.82A1.71,1.71,0,0,1,60.24,107.12Z"/><path class="cls-158" d="M54.32,110.44c.47.26.57.63.22.82a1.69,1.69,0,0,1-1.47-.12c-.46-.27-.57-.63-.23-.83A1.75,1.75,0,0,1,54.32,110.44Z"/><polygon class="cls-35" points="59.51 113.3 58.21 114.03 58.21 110.68 59.51 109.95 59.51 113.3"/><polygon class="cls-159" points="59.51 109.95 58.21 110.68 53.9 108.26 55.2 107.53 59.51 109.95"/><polygon class="cls-160" points="67.03 115.96 56.88 121.67 52.57 119.26 52.57 115.92 56.88 118.33 67.03 112.62 67.03 115.96"/><polygon class="cls-161" points="67.03 112.82 56.88 118.53 52.57 116.12 52.57 115.92 56.88 118.33 67.03 112.62 67.03 112.82"/><polygon class="cls-162" points="67.03 113.18 56.88 118.89 52.57 116.48 52.57 116.28 56.88 118.7 67.03 112.98 67.03 113.18"/><polygon class="cls-163" points="67.03 113.55 56.88 119.26 52.57 116.85 52.57 116.66 56.88 119.07 67.03 113.36 67.03 113.55"/><polygon class="cls-164" points="67.03 113.92 56.88 119.64 52.57 117.23 52.57 117.03 56.88 119.45 67.03 113.73 67.03 113.92"/><polygon class="cls-165" points="67.03 114.26 56.88 119.98 52.57 117.57 52.57 117.37 56.88 119.78 67.03 114.07 67.03 114.26"/><polygon class="cls-166" points="67.03 114.65 56.88 120.36 52.57 117.95 52.57 117.76 56.88 120.17 67.03 114.46 67.03 114.65"/><polygon class="cls-167" points="67.03 115.03 56.88 120.74 52.57 118.33 52.57 118.14 56.88 120.55 67.03 114.84 67.03 115.03"/><polygon class="cls-168" points="67.03 115.38 56.88 121.09 52.57 118.68 52.57 118.49 56.88 120.9 67.03 115.19 67.03 115.38"/><polygon class="cls-169" points="67.03 115.77 56.88 121.48 52.57 119.06 52.57 118.87 56.88 121.28 67.03 115.57 67.03 115.77"/><polygon class="cls-29" points="67.03 112.62 56.88 118.33 52.57 115.92 62.72 110.21 67.03 112.62"/><path class="cls-170" d="M66.15,112.41,63.1,110.7a.87.87,0,0,1-.8,0l-8.92,5c.22.12.22.32,0,.45l3,1.71a.93.93,0,0,1,.8,0l8.92-5C65.93,112.73,65.93,112.54,66.15,112.41Z"/><path class="cls-31" d="M60.74,113.73c.73.41.89,1,.35,1.29a2.69,2.69,0,0,1-2.3-.2c-.73-.41-.89-1-.35-1.28A2.72,2.72,0,0,1,60.74,113.73Z"/><path class="cls-31" d="M63.35,112.27c.47.26.57.63.22.83A1.7,1.7,0,0,1,62.1,113c-.47-.26-.57-.63-.22-.82A1.69,1.69,0,0,1,63.35,112.27Z"/><path class="cls-31" d="M57.43,115.59c.47.26.57.63.23.82a1.72,1.72,0,0,1-1.48-.13c-.46-.26-.57-.62-.22-.82A1.73,1.73,0,0,1,57.43,115.59Z"/><polygon class="cls-171" points="62.63 118.45 61.33 119.18 61.33 115.83 62.63 115.1 62.63 118.45"/><polygon class="cls-172" points="62.63 115.1 61.33 115.83 57.01 113.41 58.31 112.68 62.63 115.1"/><polygon class="cls-173" points="65.53 110.44 55.38 116.16 51.07 113.75 51.07 110.41 55.38 112.82 65.53 107.11 65.53 110.44"/><polygon class="cls-174" points="65.53 107.3 55.38 113.01 51.07 110.6 51.07 110.41 55.38 112.82 65.53 107.11 65.53 107.3"/><polygon class="cls-175" points="65.53 107.66 55.38 113.38 51.07 110.96 51.07 110.77 55.38 113.18 65.53 107.47 65.53 107.66"/><polygon class="cls-176" points="65.53 108.04 55.38 113.75 51.07 111.34 51.07 111.14 55.38 113.56 65.53 107.84 65.53 108.04"/><polygon class="cls-177" points="65.53 108.41 55.38 114.12 51.07 111.71 51.07 111.52 55.38 113.93 65.53 108.22 65.53 108.41"/><polygon class="cls-178" points="65.53 108.75 55.38 114.46 51.07 112.05 51.07 111.86 55.38 114.27 65.53 108.56 65.53 108.75"/><polygon class="cls-179" points="65.53 109.13 55.38 114.85 51.07 112.44 51.07 112.24 55.38 114.65 65.53 108.94 65.53 109.13"/><polygon class="cls-180" points="65.53 109.52 55.38 115.23 51.07 112.82 51.07 112.62 55.38 115.04 65.53 109.32 65.53 109.52"/><polygon class="cls-181" points="65.53 109.86 55.38 115.58 51.07 113.17 51.07 112.97 55.38 115.38 65.53 109.67 65.53 109.86"/><polygon class="cls-182" points="65.53 110.25 55.38 115.96 51.07 113.55 51.07 113.36 55.38 115.77 65.53 110.06 65.53 110.25"/><polygon class="cls-29" points="65.53 107.11 55.38 112.82 51.07 110.41 61.22 104.7 65.53 107.11"/><path class="cls-183" d="M64.65,106.9l-3.05-1.72a.87.87,0,0,1-.8,0l-8.92,5c.22.13.22.33,0,.45l3,1.71a.93.93,0,0,1,.8,0l8.92-5C64.43,107.22,64.43,107,64.65,106.9Z"/><path class="cls-31" d="M59.24,108.22c.73.41.89,1,.35,1.29a2.69,2.69,0,0,1-2.3-.2c-.73-.41-.89-1-.35-1.29A2.69,2.69,0,0,1,59.24,108.22Z"/><path class="cls-31" d="M61.85,106.76c.46.26.57.63.22.82a1.73,1.73,0,0,1-1.47-.12c-.47-.27-.57-.64-.23-.83A1.72,1.72,0,0,1,61.85,106.76Z"/><path class="cls-31" d="M55.93,110.07c.47.27.57.63.22.83a1.73,1.73,0,0,1-1.47-.13c-.46-.26-.57-.63-.22-.83A1.73,1.73,0,0,1,55.93,110.07Z"/><polygon class="cls-184" points="61.12 112.94 59.82 113.66 59.82 110.31 61.12 109.59 61.12 112.94"/><polygon class="cls-185" points="61.12 109.59 59.82 110.31 55.51 107.9 56.81 107.17 61.12 109.59"/><path class="cls-186" d="M64.81,118.61c-.83.82.14,3,2.14,4.93s4.3,2.78,5.13,2-.14-3-2.15-4.93S65.63,117.8,64.81,118.61Z"/><path class="cls-187" d="M65.88,118.51c-.2,0-1,0-1,.39s2.73,1.48,3,1.39c.66-.11.09-1.29.09-1.29A18.51,18.51,0,0,0,65.88,118.51Z"/><path class="cls-14" d="M64.91,112.48a5.08,5.08,0,0,0-1.4.46,1.21,1.21,0,0,0,0,1.18,18.78,18.78,0,0,1,2.15,2.72l.73-3.54Z"/><polygon class="cls-15" points="64.98 114.41 63.83 113.98 64.98 114.57 64.98 114.41"/><path class="cls-14" d="M70.84,123.25a4,4,0,0,0-.61-.48,22.09,22.09,0,0,0-3.86-1c-.25,0-.67-.55-.68-1.25,0-.5,0-1.63,0-1.63l.56-.38,1.58.76s-.07.65-.08.87a12.8,12.8,0,0,1,2.9,1.37,2.43,2.43,0,0,0,.36,0Z"/><path class="cls-3" d="M71,121.55a1.42,1.42,0,0,1,1,.28c.21.19.14,1,.14,1a4.86,4.86,0,0,1,.4,1.81,1,1,0,0,1-1.19.44c-.18-.15-.3-1.59-.49-1.88C70.84,123.25,70.25,121.8,71,121.55Z"/><path class="cls-188" d="M71.23,122.86c-.26-1,.53-1.24.75-1s.14,1,.14,1a4.86,4.86,0,0,1,.4,1.81c-.15.44-.86.55-1,.35C71.25,124.62,71.39,124.36,71.23,122.86Z"/><path class="cls-3" d="M66,112.23a7.23,7.23,0,0,0-.94.18c-1,.21.3,4.35.43,6,.08,1,2.28,1.5,2.55.73.83-2.4,2.48-3.64,2.85-5.38C70.79,113.26,66,112.23,66,112.23Z"/><path class="cls-189" d="M68.15,105.14s.9.11,1.16.68c.56,1.24.38,3.21.51,4.68.08.85,1,1.67,1.23,2.61.14.47-.44,1.19-1.22,1.73-.16-.17-.3-.57-.52-.88a4.53,4.53,0,0,1-.14,1.24,4,4,0,0,1-1.88.52c-1.46-.1-2.2-.84-2-1.33a7,7,0,0,0,.21-2.3,3.71,3.71,0,0,0-.88-1.76c-.21-.34-.89-.46-1.08-.82.46-.33,1-2.21,1-2.21l1.49-.92.27-1.06Z"/><path class="cls-14" d="M59.56,110.76a5.56,5.56,0,0,0-.88-.43c-.18,0-1.12.16-1.15.43a1,1,0,0,0,.86,1,6.14,6.14,0,0,0,1.21,0l.09-.22Z"/><path class="cls-8" d="M60,110.6a2.56,2.56,0,0,1-.42.11c-.34.05-.28,1.11.11,1l.5-.13Z"/><path class="cls-3" d="M65.28,107.56c-.8-.73-1.62.23-1.62.23l-2.08,2s-1.06.44-1.72.64-.27,1.41.36,1.23a16.67,16.67,0,0,0,2.17-.65c.54-.27,2.4-1.61,2.76-1.88A1,1,0,0,0,65.28,107.56Z"/><path class="cls-3" d="M64,101.53a2.16,2.16,0,0,0-1.44,2c-.05.68,1.78,2.8,1.95,4.19,1.34-.42,1.53-1.22,1.53-1.22a.39.39,0,0,1,.4.42c.89-.44,1.45-.88,1.49-1.48.13,0,.29.25.29.25a1.29,1.29,0,0,0-.32-1.51C67.13,103.5,65.11,100.53,64,101.53Z"/><path class="cls-9" d="M64.69,101.58c-.06.1-.73,0-.73,0S64.75,101.48,64.69,101.58Z"/><path class="cls-15" d="M66.51,120.78a9,9,0,0,1,1.2-.64A1.35,1.35,0,0,0,66.51,120.78Z"/></g></g></svg>