<svg width="245" height="40" viewBox="0 0 245 40" fill="none" xmlns="http://www.w3.org/2000/svg">
<path d="M0.859375 39.2146H16.1188C28.0122 39.2146 36.1469 30.6311 36.1469 19.8036C36.1469 9.20056 28.405 0.785414 16.5676 0.785414H0.859375V39.2146ZM16.1188 8.75175C22.6266 8.75175 27.3951 13.4642 27.3951 19.9158C27.3951 26.4797 22.6266 31.2482 16.3993 31.2482H9.55503V8.75175H16.1188Z" fill="#1288C0"/>
<path d="M54.1141 9.87377C45.3062 9.87377 38.6863 16.5498 38.6863 24.9088C38.6863 33.324 45.2501 39.8878 54.1141 39.8878C62.922 39.8878 69.598 33.2118 69.598 24.9088C69.598 16.5498 62.922 9.87377 54.1141 9.87377ZM54.1141 16.9425C58.49 16.9425 61.856 20.2525 61.856 24.9088C61.856 29.5091 58.3217 32.9313 53.9458 32.9313C49.5699 32.9313 46.3722 29.5091 46.3722 24.9088C46.3722 20.2525 49.7382 16.9425 54.1141 16.9425Z" fill="#1288C0"/>
<path d="M94.1654 28.6676C92.6507 31.0799 90.6871 32.8752 87.0966 32.8752C82.5525 32.8752 79.4669 29.6213 79.4669 24.9088C79.4669 20.1964 82.5525 16.9986 87.0966 16.9986C90.6871 16.9986 92.6507 18.7938 94.1654 21.2062L100.28 17.3913C97.5875 12.9032 93.1556 9.87377 86.8162 9.87377C77.8961 9.87377 71.6128 16.5498 71.6128 24.9088C71.6128 33.2118 77.8961 39.8878 86.8162 39.8878C93.1556 39.8878 97.4753 37.0266 100.224 32.5386L94.1654 28.6676Z" fill="#1288C0"/>
<path d="M122.775 8.07854C127.712 8.07854 131.022 10.6031 133.266 14.3619L140.166 9.59327C136.52 3.08555 130.573 0 122.943 0C111.274 0 102.467 8.75175 102.467 19.9158C102.467 31.1921 111.331 40 123.168 40C131.022 40 136.576 36.4095 140.335 30.3506L133.547 25.6381C131.359 29.453 127.768 31.8654 123.056 31.8654C116.267 31.8654 111.331 26.648 111.331 19.9158C111.331 13.352 116.267 8.07854 122.775 8.07854Z" fill="#1288C0"/>
<path d="M150.699 13.352V0.785414H142.901V39.2146H150.699V23.5063C150.699 19.467 153.224 17.1108 157.039 17.1108C160.405 17.1108 162.312 19.467 162.312 22.8892V39.2146H170.054V21.5428C170.054 14.5863 165.678 9.92987 158.946 9.92987C154.963 9.92987 151.709 11.8934 150.699 13.352Z" fill="#1288C0"/>
<path d="M187.897 17.223C192.216 17.223 195.751 20.7013 195.751 24.9649C195.751 29.2847 192.385 32.7069 187.897 32.7069C183.633 32.7069 180.323 29.2847 180.323 24.9649C180.323 20.7013 183.633 17.223 187.897 17.223ZM195.638 39.2146H203.437V10.4348H195.638V12.7349C193.619 11.1641 190.533 10.1543 187.223 10.1543C179.369 10.1543 172.693 16.662 172.693 24.9649C172.693 33.2679 179.369 39.6073 187.223 39.6073C190.533 39.6073 193.619 38.6536 195.638 37.0827V39.2146Z" fill="#1288C0"/>
<path d="M214.361 7.96634V0.785414H206.563V7.96634H214.361ZM214.361 39.2146V10.4348H206.563V39.2146H214.361Z" fill="#1288C0"/>
<path d="M225.206 10.4348H217.52V39.2146H225.318V23.5063C225.318 19.467 227.843 17.1108 231.657 17.1108C235.024 17.1108 236.931 19.467 236.931 22.8892V39.2146H244.673V21.5428C244.673 14.5863 240.297 9.92987 233.565 9.92987C229.526 9.92987 226.608 11.7251 225.206 13.352V10.4348Z" fill="#1288C0"/>
</svg>
