<svg xmlns="http://www.w3.org/2000/svg" xmlns:xlink="http://www.w3.org/1999/xlink" viewBox="0 0 185.48 179.7"><defs><style>.cls-1{fill:url(#linear-gradient);}.cls-2{isolation:isolate;}.cls-3{fill:url(#linear-gradient-2);}.cls-4{fill:url(#linear-gradient-3);}.cls-5{fill:url(#linear-gradient-4);}.cls-6{fill:url(#linear-gradient-5);}.cls-7{opacity:0.6;fill:url(#linear-gradient-6);}.cls-8,.cls-9{fill:#38c5ea;}.cls-11,.cls-113,.cls-117,.cls-121,.cls-125,.cls-129,.cls-13,.cls-133,.cls-64,.cls-8{opacity:0.5;}.cls-9{opacity:0.1;}.cls-10{opacity:0.8;fill:url(#linear-gradient-7);}.cls-11{fill:url(#linear-gradient-8);}.cls-12{opacity:0.2;fill:url(#linear-gradient-9);}.cls-13{fill:url(#linear-gradient-10);}.cls-14{opacity:0.7;fill:url(#linear-gradient-11);}.cls-15{fill:url(#linear-gradient-12);}.cls-16{fill:url(#linear-gradient-13);}.cls-17{fill:url(#linear-gradient-14);}.cls-18{fill:url(#linear-gradient-15);}.cls-19{fill:url(#linear-gradient-16);}.cls-20{fill:url(#linear-gradient-17);}.cls-21{fill:url(#linear-gradient-18);}.cls-22{fill:url(#linear-gradient-19);}.cls-23{fill:url(#linear-gradient-20);}.cls-24{fill:url(#linear-gradient-21);}.cls-25{fill:url(#linear-gradient-22);}.cls-26{fill:url(#linear-gradient-23);}.cls-27{fill:url(#linear-gradient-24);}.cls-28{fill:url(#linear-gradient-25);}.cls-29{fill:#bcbeff;}.cls-30{fill:url(#linear-gradient-26);}.cls-31{fill:#dce4fb;}.cls-32{fill:url(#linear-gradient-27);}.cls-33{fill:#294688;}.cls-34{fill:url(#linear-gradient-28);}.cls-35{fill:url(#linear-gradient-29);}.cls-36{fill:url(#linear-gradient-30);}.cls-37{fill:url(#linear-gradient-31);}.cls-38{fill:#2842a2;}.cls-39{fill:url(#linear-gradient-32);}.cls-40{fill:url(#linear-gradient-33);}.cls-41{fill:url(#linear-gradient-34);}.cls-42{fill:url(#linear-gradient-35);}.cls-43{fill:url(#linear-gradient-36);}.cls-44{fill:url(#linear-gradient-37);}.cls-45{fill:url(#linear-gradient-38);}.cls-46{fill:url(#linear-gradient-39);}.cls-47{fill:url(#linear-gradient-40);}.cls-48{fill:url(#_ÂÁ_Ï_ÌÌ_È_ËÂÌÚ_3);}.cls-49{fill:#9198db;}.cls-50{clip-path:url(#clip-path);}.cls-51{fill:url(#linear-gradient-42);}.cls-52{fill:url(#linear-gradient-43);}.cls-53{fill:url(#linear-gradient-44);}.cls-54{fill:url(#linear-gradient-45);}.cls-55{fill:url(#linear-gradient-46);}.cls-56{fill:url(#linear-gradient-47);}.cls-57{fill:url(#linear-gradient-48);}.cls-58{fill:url(#linear-gradient-49);}.cls-59{fill:url(#linear-gradient-50);}.cls-60{fill:url(#linear-gradient-51);}.cls-61{fill:url(#linear-gradient-52);}.cls-62{fill:url(#linear-gradient-53);}.cls-63{mix-blend-mode:multiply;fill:url(#linear-gradient-54);}.cls-64{fill:url(#linear-gradient-55);}.cls-65{fill:url(#linear-gradient-56);}.cls-66{fill:url(#linear-gradient-57);}.cls-67{fill:url(#linear-gradient-58);}.cls-68{fill:url(#linear-gradient-59);}.cls-69{fill:url(#linear-gradient-60);}.cls-70{fill:url(#linear-gradient-61);}.cls-71{fill:url(#linear-gradient-62);}.cls-72{fill:url(#linear-gradient-63);}.cls-73{fill:url(#linear-gradient-64);}.cls-74{fill:url(#linear-gradient-65);}.cls-75{fill:url(#linear-gradient-66);}.cls-76{fill:url(#linear-gradient-67);}.cls-77{fill:url(#linear-gradient-68);}.cls-78{fill:url(#linear-gradient-69);}.cls-79{fill:url(#linear-gradient-70);}.cls-80{fill:url(#linear-gradient-71);}.cls-81{fill:url(#linear-gradient-72);}.cls-82{fill:url(#linear-gradient-73);}.cls-83{fill:url(#linear-gradient-74);}.cls-84{fill:url(#linear-gradient-75);}.cls-85{fill:url(#linear-gradient-76);}.cls-86{fill:url(#linear-gradient-77);}.cls-87{fill:url(#linear-gradient-78);}.cls-88{fill:url(#linear-gradient-79);}.cls-89{fill:url(#linear-gradient-80);}.cls-90{fill:url(#linear-gradient-81);}.cls-91{fill:url(#linear-gradient-82);}.cls-92{fill:url(#linear-gradient-83);}.cls-93{fill:url(#linear-gradient-84);}.cls-94{fill:url(#linear-gradient-85);}.cls-95{fill:url(#linear-gradient-86);}.cls-96{fill:url(#linear-gradient-87);}.cls-97{fill:url(#linear-gradient-88);}.cls-98{fill:url(#linear-gradient-89);}.cls-99{fill:url(#linear-gradient-90);}.cls-100{fill:url(#linear-gradient-91);}.cls-101{fill:url(#linear-gradient-92);}.cls-102{fill:url(#linear-gradient-93);}.cls-103{fill:url(#linear-gradient-94);}.cls-104{fill:url(#linear-gradient-95);}.cls-105{fill:url(#linear-gradient-96);}.cls-106{fill:url(#linear-gradient-97);}.cls-107{fill:url(#linear-gradient-98);}.cls-108{fill:url(#linear-gradient-99);}.cls-109{fill:url(#linear-gradient-100);}.cls-110{fill:url(#linear-gradient-101);}.cls-111{fill:url(#linear-gradient-102);}.cls-112{opacity:0.3;fill:url(#linear-gradient-103);}.cls-113{fill:url(#linear-gradient-104);}.cls-114{fill:url(#linear-gradient-105);}.cls-115{fill:url(#linear-gradient-106);}.cls-116{fill:url(#linear-gradient-107);}.cls-117{fill:url(#linear-gradient-108);}.cls-118{fill:url(#linear-gradient-109);}.cls-119{fill:url(#linear-gradient-110);}.cls-120{fill:url(#linear-gradient-111);}.cls-121{fill:url(#linear-gradient-112);}.cls-122{fill:url(#linear-gradient-113);}.cls-123{fill:url(#linear-gradient-114);}.cls-124{fill:url(#linear-gradient-115);}.cls-125{fill:url(#linear-gradient-116);}.cls-126{fill:url(#linear-gradient-117);}.cls-127{fill:url(#linear-gradient-118);}.cls-128{fill:url(#linear-gradient-119);}.cls-129{fill:url(#linear-gradient-120);}.cls-130{fill:url(#linear-gradient-121);}.cls-131{fill:url(#linear-gradient-122);}.cls-132{fill:url(#linear-gradient-123);}.cls-133{fill:url(#linear-gradient-124);}</style><linearGradient id="linear-gradient" x1="88.47" y1="58.51" x2="175.47" y2="58.51" gradientUnits="userSpaceOnUse"><stop offset="0" stop-color="#0984bd"/><stop offset="1" stop-color="#56a5d7"/></linearGradient><linearGradient id="linear-gradient-2" x1="6" y1="82.64" x2="40.56" y2="82.64" xlink:href="#linear-gradient"/><linearGradient id="linear-gradient-3" x1="115.95" y1="167.97" x2="150.51" y2="167.97" xlink:href="#linear-gradient"/><linearGradient id="linear-gradient-4" x1="13.99" y1="117.44" x2="32.57" y2="117.44" gradientUnits="userSpaceOnUse"><stop offset="0" stop-color="#fab371"/><stop offset="1" stop-color="#fcd5b0"/></linearGradient><linearGradient id="linear-gradient-5" x1="163.58" y1="140.31" x2="182.17" y2="140.31" xlink:href="#linear-gradient-4"/><linearGradient id="linear-gradient-6" x1="6.48" y1="75.05" x2="40.09" y2="75.05" xlink:href="#linear-gradient"/><linearGradient id="linear-gradient-7" x1="164.06" y1="135.47" x2="181.69" y2="135.47" gradientUnits="userSpaceOnUse"><stop offset="0" stop-color="#f57454"/><stop offset="1" stop-color="#f7947c"/></linearGradient><linearGradient id="linear-gradient-8" x1="164.06" y1="130.68" x2="181.69" y2="130.68" xlink:href="#linear-gradient-7"/><linearGradient id="linear-gradient-9" x1="164.06" y1="125.59" x2="181.69" y2="125.59" xlink:href="#linear-gradient-4"/><linearGradient id="linear-gradient-10" x1="14.46" y1="113.68" x2="32.1" y2="113.68" xlink:href="#linear-gradient-7"/><linearGradient id="linear-gradient-11" x1="64.83" y1="30.09" x2="91.11" y2="30.09" gradientTransform="translate(25.49 -34.95) rotate(30)" xlink:href="#linear-gradient"/><linearGradient id="linear-gradient-12" x1="-7623.54" y1="2310.62" x2="-7618.85" y2="2310.62" gradientTransform="matrix(-0.87, 0.5, 1, 0.58, -8843.75, 2547.11)" gradientUnits="userSpaceOnUse"><stop offset="0" stop-color="#abd1ec"/><stop offset="0.57" stop-color="#eef6fb"/></linearGradient><linearGradient id="linear-gradient-13" x1="63.95" y1="71.46" x2="69.7" y2="71.46" gradientTransform="matrix(1, 0, 0, 1, 0, 0)" xlink:href="#linear-gradient-12"/><linearGradient id="linear-gradient-14" x1="-7617.96" y1="2315.46" x2="-7613.26" y2="2315.46" xlink:href="#linear-gradient-12"/><linearGradient id="linear-gradient-15" x1="-7612.28" y1="2320.38" x2="-7607.58" y2="2320.38" xlink:href="#linear-gradient-12"/><linearGradient id="linear-gradient-16" x1="-320.7" y1="75.04" x2="-304.98" y2="75.04" gradientTransform="matrix(-1, 0, 0, 1, -243.29, 0)" xlink:href="#linear-gradient-12"/><linearGradient id="linear-gradient-17" x1="63.95" y1="77.04" x2="69.7" y2="77.04" gradientTransform="matrix(1, 0, 0, 1, 0, 0)" xlink:href="#linear-gradient-12"/><linearGradient id="linear-gradient-18" x1="63.95" y1="82.73" x2="69.7" y2="82.73" gradientTransform="matrix(1, 0, 0, 1, 0, 0)" xlink:href="#linear-gradient-12"/><linearGradient id="linear-gradient-19" x1="-312.99" y1="70.04" x2="-307.24" y2="70.04" gradientTransform="matrix(-1, 0, 0, 1, -243.29, 0)" xlink:href="#linear-gradient"/><linearGradient id="linear-gradient-20" x1="-312.99" y1="75.63" x2="-307.24" y2="75.63" gradientTransform="matrix(-1, 0, 0, 1, -243.29, 0)" xlink:href="#linear-gradient"/><linearGradient id="linear-gradient-21" x1="-312.99" y1="81.31" x2="-307.24" y2="81.31" gradientTransform="matrix(-1, 0, 0, 1, -243.29, 0)" xlink:href="#linear-gradient"/><linearGradient id="linear-gradient-22" x1="51.96" y1="35.44" x2="85.22" y2="35.44" gradientUnits="userSpaceOnUse"><stop offset="0" stop-color="#38c5ea"/><stop offset="1" stop-color="#294688"/></linearGradient><linearGradient id="linear-gradient-23" x1="-290.02" y1="26.39" x2="-323.46" y2="50.87" gradientTransform="matrix(-1, 0, 0, 1, -243.29, 0)" xlink:href="#linear-gradient-22"/><linearGradient id="linear-gradient-24" x1="-322.11" y1="36.64" x2="-295.83" y2="36.64" gradientTransform="matrix(-0.87, -0.5, -0.5, 0.87, -183.57, -149.58)" gradientUnits="userSpaceOnUse"><stop offset="0" stop-color="#eef5fa"/><stop offset="0.11" stop-color="#e1eff7" stop-opacity="0.99"/><stop offset="0.3" stop-color="#beddef" stop-opacity="0.95"/><stop offset="0.57" stop-color="#85c2e2" stop-opacity="0.9"/><stop offset="0.9" stop-color="#379cd0" stop-opacity="0.82"/><stop offset="1" stop-color="#1f90ca" stop-opacity="0.8"/></linearGradient><linearGradient id="linear-gradient-25" x1="-323.25" y1="36.02" x2="-296.97" y2="36.02" gradientTransform="matrix(-0.87, -0.5, -0.5, 0.87, -183.72, -150.24)" xlink:href="#linear-gradient-24"/><linearGradient id="linear-gradient-26" x1="47.05" y1="37.08" x2="81.44" y2="37.08" gradientTransform="matrix(1, 0, 0, 1, 0, 0)" xlink:href="#linear-gradient-12"/><linearGradient id="linear-gradient-27" x1="50.84" y1="38.4" x2="74.99" y2="38.4" gradientUnits="userSpaceOnUse"><stop offset="0.43" stop-color="#eef6fb"/><stop offset="1" stop-color="#abd1ec"/></linearGradient><linearGradient id="linear-gradient-28" x1="85.56" y1="58.53" x2="178.38" y2="58.53" gradientUnits="userSpaceOnUse"><stop offset="0.05" stop-color="#14416a"/><stop offset="1" stop-color="#004f98"/></linearGradient><linearGradient id="linear-gradient-29" x1="88.47" y1="58.51" x2="175.47" y2="58.51" gradientUnits="userSpaceOnUse"><stop offset="0" stop-color="#0984bd" stop-opacity="0"/><stop offset="1" stop-color="#3699d0"/></linearGradient><linearGradient id="linear-gradient-30" x1="36.11" y1="108.69" x2="167.2" y2="108.69" xlink:href="#linear-gradient-22"/><linearGradient id="linear-gradient-31" x1="36.07" y1="104.31" x2="167.23" y2="104.31" xlink:href="#linear-gradient-27"/><linearGradient id="linear-gradient-32" x1="63.05" y1="100.08" x2="154.6" y2="100.08" xlink:href="#linear-gradient"/><linearGradient id="linear-gradient-33" x1="63.05" y1="93.25" x2="154.6" y2="93.25" xlink:href="#linear-gradient-22"/><linearGradient id="linear-gradient-34" x1="85.06" y1="93.04" x2="145.02" y2="93.04" xlink:href="#linear-gradient-28"/><linearGradient id="linear-gradient-35" x1="78.8" y1="95.63" x2="135.2" y2="95.63" xlink:href="#linear-gradient-28"/><linearGradient id="linear-gradient-36" x1="74.72" y1="100.74" x2="140.68" y2="100.74" xlink:href="#linear-gradient-28"/><linearGradient id="linear-gradient-37" x1="70.65" y1="103.09" x2="136.6" y2="103.09" xlink:href="#linear-gradient-28"/><linearGradient id="linear-gradient-38" x1="66.57" y1="105.45" x2="132.53" y2="105.45" xlink:href="#linear-gradient-28"/><linearGradient id="linear-gradient-39" x1="145.94" y1="112.36" x2="151.04" y2="112.36" xlink:href="#linear-gradient-28"/><linearGradient id="linear-gradient-40" x1="136.93" y1="115.18" x2="144.78" y2="115.18" xlink:href="#linear-gradient-28"/><linearGradient id="_ÂÁ_Ï_ÌÌ_È_ËÂÌÚ_3" x1="-2182.96" y1="111.76" x2="-2149.39" y2="111.76" gradientTransform="matrix(-1, 0, 0, 1, -2082.02, 0)" gradientUnits="userSpaceOnUse"><stop offset="0" stop-color="#c0bff6"/><stop offset="0.29" stop-color="#c5c4f7"/><stop offset="0.64" stop-color="#d3d2f9"/><stop offset="1" stop-color="#e9e9fd"/></linearGradient><clipPath id="clip-path"><polygon id="SVGID" class="cls-1" points="98.02 7.84 175.47 52.56 165.87 109.18 88.47 64.5 98.02 7.84"/></clipPath><linearGradient id="linear-gradient-42" x1="-2255.29" y1="75.24" x2="-2124.13" y2="75.24" gradientTransform="matrix(-1, 0, 0, 1, -2082.02, 0)" xlink:href="#linear-gradient"/><linearGradient id="linear-gradient-43" x1="-2263.92" y1="65.61" x2="-2230.35" y2="65.61" gradientTransform="matrix(-1, 0, 0, 1, -2082.02, 0)" xlink:href="#linear-gradient"/><linearGradient id="linear-gradient-44" x1="148.33" y1="61.73" x2="181.89" y2="61.73" xlink:href="#linear-gradient"/><linearGradient id="linear-gradient-45" x1="97.91" y1="79.24" x2="189.47" y2="79.24" xlink:href="#linear-gradient"/><linearGradient id="linear-gradient-46" x1="97.91" y1="72.42" x2="189.47" y2="72.42" xlink:href="#linear-gradient"/><linearGradient id="linear-gradient-47" x1="102.04" y1="82.89" x2="161.9" y2="82.89" xlink:href="#linear-gradient"/><linearGradient id="linear-gradient-48" x1="108.11" y1="78.57" x2="165.11" y2="78.57" xlink:href="#linear-gradient"/><linearGradient id="linear-gradient-49" x1="166.92" y1="98.2" x2="174.31" y2="98.2" xlink:href="#linear-gradient"/><linearGradient id="linear-gradient-50" x1="162.41" y1="102.15" x2="168.24" y2="102.15" xlink:href="#linear-gradient"/><linearGradient id="linear-gradient-51" x1="111.91" y1="79.03" x2="178.11" y2="79.03" xlink:href="#linear-gradient"/><linearGradient id="linear-gradient-52" x1="115.71" y1="76.83" x2="181.91" y2="76.83" xlink:href="#linear-gradient"/><linearGradient id="linear-gradient-53" x1="119.51" y1="74.64" x2="185.71" y2="74.64" xlink:href="#linear-gradient"/><linearGradient id="linear-gradient-54" x1="84.16" y1="92.13" x2="140.86" y2="92.13" gradientUnits="userSpaceOnUse"><stop offset="0" stop-color="#eef6fb" stop-opacity="0"/><stop offset="0.23" stop-color="#daebf6" stop-opacity="0.21"/><stop offset="0.48" stop-color="#c6e0f2" stop-opacity="0.42"/><stop offset="0.7" stop-color="#b7d8ef" stop-opacity="0.57"/><stop offset="0.88" stop-color="#aed3ed" stop-opacity="0.67"/><stop offset="1" stop-color="#abd1ec" stop-opacity="0.7"/></linearGradient><linearGradient id="linear-gradient-55" x1="108.63" y1="75.21" x2="144.78" y2="75.21" xlink:href="#linear-gradient-28"/><linearGradient id="linear-gradient-56" x1="99.1" y1="41.81" x2="152.8" y2="69.18" xlink:href="#linear-gradient"/><linearGradient id="linear-gradient-57" x1="152.06" y1="59.16" x2="97.52" y2="59.16" gradientUnits="userSpaceOnUse"><stop offset="0" stop-color="#abd1ec"/><stop offset="0.27" stop-color="#aed3ed"/><stop offset="0.5" stop-color="#b9d9ef"/><stop offset="0.72" stop-color="#cbe3f3"/><stop offset="0.93" stop-color="#e4f1f9"/><stop offset="1" stop-color="#eef6fb"/></linearGradient><linearGradient id="linear-gradient-58" x1="130.72" y1="57.95" x2="126.34" y2="64.4" gradientUnits="userSpaceOnUse"><stop offset="0" stop-color="#eef6fb"/><stop offset="1" stop-color="#0984bd"/></linearGradient><linearGradient id="linear-gradient-59" x1="94.75" y1="49.68" x2="149.8" y2="64.92" xlink:href="#linear-gradient"/><linearGradient id="linear-gradient-60" x1="135" y1="50.3" x2="4.37" y2="242.52" xlink:href="#linear-gradient-28"/><linearGradient id="linear-gradient-61" x1="131.47" y1="47.9" x2="0.83" y2="240.12" xlink:href="#linear-gradient-58"/><linearGradient id="linear-gradient-62" x1="139.68" y1="53.48" x2="9.05" y2="245.71" xlink:href="#linear-gradient-28"/><linearGradient id="linear-gradient-63" x1="135.82" y1="50.86" x2="5.18" y2="243.08" xlink:href="#linear-gradient-28"/><linearGradient id="linear-gradient-64" x1="133.71" y1="49.42" x2="3.07" y2="241.64" xlink:href="#linear-gradient-28"/><linearGradient id="linear-gradient-65" x1="141.31" y1="54.59" x2="10.68" y2="246.81" xlink:href="#linear-gradient-28"/><linearGradient id="linear-gradient-66" x1="137.79" y1="52.2" x2="7.16" y2="244.42" xlink:href="#linear-gradient-28"/><linearGradient id="linear-gradient-67" x1="134.97" y1="50.28" x2="4.33" y2="242.5" xlink:href="#linear-gradient-28"/><linearGradient id="linear-gradient-68" x1="133.21" y1="49.09" x2="2.58" y2="241.31" xlink:href="#linear-gradient-28"/><linearGradient id="linear-gradient-69" x1="142.24" y1="55.22" x2="11.61" y2="247.44" xlink:href="#linear-gradient-28"/><linearGradient id="linear-gradient-70" x1="140.3" y1="53.91" x2="9.67" y2="246.13" xlink:href="#linear-gradient-28"/><linearGradient id="linear-gradient-71" x1="138.72" y1="52.83" x2="8.08" y2="245.05" xlink:href="#linear-gradient-28"/><linearGradient id="linear-gradient-72" x1="140.36" y1="53.94" x2="9.72" y2="246.16" xlink:href="#linear-gradient-28"/><linearGradient id="linear-gradient-73" x1="135.44" y1="50.6" x2="4.8" y2="242.82" xlink:href="#linear-gradient-28"/><linearGradient id="linear-gradient-74" x1="143.39" y1="56.01" x2="12.76" y2="248.23" xlink:href="#linear-gradient-28"/><linearGradient id="linear-gradient-75" x1="139.98" y1="53.69" x2="9.34" y2="245.91" xlink:href="#linear-gradient-28"/><linearGradient id="linear-gradient-76" x1="136.91" y1="51.6" x2="6.27" y2="243.82" xlink:href="#linear-gradient-28"/><linearGradient id="linear-gradient-77" x1="143.01" y1="55.75" x2="12.38" y2="247.97" xlink:href="#linear-gradient-28"/><linearGradient id="linear-gradient-78" x1="139.08" y1="53.07" x2="8.44" y2="245.3" xlink:href="#linear-gradient-28"/><linearGradient id="linear-gradient-79" x1="136.1" y1="51.05" x2="5.47" y2="243.27" xlink:href="#linear-gradient-28"/><linearGradient id="linear-gradient-80" x1="144.83" y1="56.98" x2="14.19" y2="249.2" xlink:href="#linear-gradient-28"/><linearGradient id="linear-gradient-81" x1="142.65" y1="55.5" x2="12.02" y2="247.72" xlink:href="#linear-gradient-28"/><linearGradient id="linear-gradient-82" x1="139.76" y1="53.54" x2="9.13" y2="245.76" xlink:href="#linear-gradient-28"/><linearGradient id="linear-gradient-83" x1="144.1" y1="56.49" x2="13.47" y2="248.71" xlink:href="#linear-gradient-28"/><linearGradient id="linear-gradient-84" x1="139.64" y1="53.46" x2="9.01" y2="245.68" xlink:href="#linear-gradient-28"/><linearGradient id="linear-gradient-85" x1="136.55" y1="51.36" x2="5.92" y2="243.58" xlink:href="#linear-gradient-28"/><linearGradient id="linear-gradient-86" x1="134.78" y1="50.15" x2="4.15" y2="242.38" xlink:href="#linear-gradient-28"/><linearGradient id="linear-gradient-87" x1="145.45" y1="57.41" x2="14.82" y2="249.63" xlink:href="#linear-gradient-28"/><linearGradient id="linear-gradient-88" x1="126.34" y1="44.42" x2="-4.29" y2="236.64" xlink:href="#linear-gradient-28"/><linearGradient id="linear-gradient-89" x1="126.57" y1="44.58" x2="-4.06" y2="236.8" xlink:href="#linear-gradient-28"/><linearGradient id="linear-gradient-90" x1="126.8" y1="44.73" x2="-3.83" y2="236.95" xlink:href="#linear-gradient-28"/><linearGradient id="linear-gradient-91" x1="127.79" y1="45.4" x2="-2.84" y2="237.63" xlink:href="#linear-gradient-28"/><linearGradient id="linear-gradient-92" x1="127.95" y1="45.51" x2="-2.68" y2="237.73" xlink:href="#linear-gradient-28"/><linearGradient id="linear-gradient-93" x1="128.78" y1="46.07" x2="-1.86" y2="238.29" xlink:href="#linear-gradient-28"/><linearGradient id="linear-gradient-94" x1="128.82" y1="46.11" x2="-1.81" y2="238.33" xlink:href="#linear-gradient-28"/><linearGradient id="linear-gradient-95" x1="129.99" y1="46.9" x2="-0.64" y2="239.12" xlink:href="#linear-gradient-28"/><linearGradient id="linear-gradient-96" x1="130.51" y1="47.25" x2="-0.13" y2="239.47" xlink:href="#linear-gradient-28"/><linearGradient id="linear-gradient-97" x1="143.09" y1="55.8" x2="12.46" y2="248.02" xlink:href="#linear-gradient-28"/><linearGradient id="linear-gradient-98" x1="140.78" y1="54.23" x2="10.14" y2="246.45" xlink:href="#linear-gradient-28"/><linearGradient id="linear-gradient-99" x1="134.42" y1="49.91" x2="3.78" y2="242.13" xlink:href="#linear-gradient"/><linearGradient id="linear-gradient-100" x1="1612.43" y1="80.34" x2="1624.35" y2="80.34" gradientTransform="matrix(-1, 0, 0, 1, 1698.86, 0)" xlink:href="#linear-gradient-4"/><linearGradient id="linear-gradient-101" x1="1599.07" y1="80.34" x2="1622.11" y2="80.34" gradientTransform="matrix(-1, 0, 0, 1, 1698.86, 0)" xlink:href="#linear-gradient-4"/><linearGradient id="linear-gradient-102" x1="-7357.15" y1="-724.19" x2="-7347.36" y2="-724.19" gradientTransform="matrix(-0.87, 0.5, 0.87, 0.5, -5659.47, 4104.02)" xlink:href="#linear-gradient-7"/><linearGradient id="linear-gradient-103" x1="7033.97" y1="1814.56" x2="7036.62" y2="1815.02" gradientTransform="matrix(-0.87, 0.5, 0.87, 0.5, -5659.47, 4104.02)" gradientUnits="userSpaceOnUse"><stop offset="0" stop-color="#fab371"/><stop offset="0.49" stop-color="#fab473"/><stop offset="0.67" stop-color="#fab87a"/><stop offset="0.8" stop-color="#fbbe85"/><stop offset="0.9" stop-color="#fbc796"/><stop offset="0.99" stop-color="#fcd3ac"/><stop offset="1" stop-color="#fcd5b0"/></linearGradient><linearGradient id="linear-gradient-104" x1="74.44" y1="67.47" x2="86.42" y2="67.47" xlink:href="#linear-gradient-4"/><linearGradient id="linear-gradient-105" x1="1612.43" y1="63.14" x2="1624.35" y2="63.14" gradientTransform="matrix(-1, 0, 0, 1, 1698.86, 0)" xlink:href="#linear-gradient-4"/><linearGradient id="linear-gradient-106" x1="1599.07" y1="63.14" x2="1622.11" y2="63.14" gradientTransform="matrix(-1, 0, 0, 1, 1698.86, 0)" xlink:href="#linear-gradient-4"/><linearGradient id="linear-gradient-107" x1="-7358.48" y1="-729.75" x2="-7348.69" y2="-729.75" gradientTransform="matrix(-0.87, 0.5, 0.87, 0.5, -5659.47, 4104.02)" xlink:href="#linear-gradient-4"/><linearGradient id="linear-gradient-108" x1="74.44" y1="61.9" x2="86.42" y2="61.9" xlink:href="#linear-gradient-4"/><linearGradient id="linear-gradient-109" x1="1602.52" y1="90.32" x2="1614.44" y2="90.32" gradientTransform="matrix(-1, 0, 0, 1, 1698.86, 0)" xlink:href="#linear-gradient-4"/><linearGradient id="linear-gradient-110" x1="1589.15" y1="90.32" x2="1612.2" y2="90.32" gradientTransform="matrix(-1, 0, 0, 1, 1698.86, 0)" xlink:href="#linear-gradient-4"/><linearGradient id="linear-gradient-111" x1="-7348.62" y1="-704.21" x2="-7338.83" y2="-704.21" gradientTransform="matrix(-0.87, 0.5, 0.87, 0.5, -5659.47, 4104.02)" xlink:href="#linear-gradient-7"/><linearGradient id="linear-gradient-112" x1="84.35" y1="81.72" x2="96.33" y2="81.72" xlink:href="#linear-gradient-4"/><linearGradient id="linear-gradient-113" x1="1592.6" y1="91.67" x2="1604.53" y2="91.67" gradientTransform="matrix(-1, 0, 0, 1, 1698.86, 0)" xlink:href="#linear-gradient-4"/><linearGradient id="linear-gradient-114" x1="1579.24" y1="91.67" x2="1602.28" y2="91.67" gradientTransform="matrix(-1, 0, 0, 1, 1698.86, 0)" xlink:href="#linear-gradient-4"/><linearGradient id="linear-gradient-115" x1="106.44" y1="73.12" x2="95.01" y2="80.35" xlink:href="#linear-gradient-4"/><linearGradient id="linear-gradient-116" x1="94.27" y1="78.7" x2="106.25" y2="78.7" xlink:href="#linear-gradient-4"/><linearGradient id="linear-gradient-117" x1="1582.69" y1="99.72" x2="1594.61" y2="99.72" gradientTransform="matrix(-1, 0, 0, 1, 1698.86, 0)" xlink:href="#linear-gradient-4"/><linearGradient id="linear-gradient-118" x1="1569.32" y1="99.72" x2="1592.37" y2="99.72" gradientTransform="matrix(-1, 0, 0, 1, 1698.86, 0)" xlink:href="#linear-gradient-4"/><linearGradient id="linear-gradient-119" x1="-7352.72" y1="-685.41" x2="-7342.93" y2="-685.41" gradientTransform="matrix(-0.87, 0.5, 0.87, 0.5, -5659.47, 4104.02)" xlink:href="#linear-gradient-4"/><linearGradient id="linear-gradient-120" x1="104.18" y1="89.07" x2="116.16" y2="89.07" xlink:href="#linear-gradient-4"/><linearGradient id="linear-gradient-121" x1="1572.77" y1="108.04" x2="1584.7" y2="108.04" gradientTransform="matrix(-1, 0, 0, 1, 1698.86, 0)" xlink:href="#linear-gradient-4"/><linearGradient id="linear-gradient-122" x1="1559.41" y1="108.04" x2="1582.45" y2="108.04" gradientTransform="matrix(-1, 0, 0, 1, 1698.86, 0)" xlink:href="#linear-gradient-4"/><linearGradient id="linear-gradient-123" x1="-7347.51" y1="-668.75" x2="-7337.72" y2="-668.75" gradientTransform="matrix(-0.87, 0.5, 0.87, 0.5, -5659.47, 4104.02)" xlink:href="#linear-gradient-7"/><linearGradient id="linear-gradient-124" x1="114.1" y1="100" x2="126.08" y2="100" xlink:href="#linear-gradient-4"/></defs><g class="cls-2"><g id="Application_search" data-name="Application &amp; search"><path class="cls-3" d="M23.28,92.82a.44.44,0,0,1-.24-.07l-16.8-9.7a.47.47,0,0,1,0-.82L23,72.52a.51.51,0,0,1,.48,0l16.8,9.71a.47.47,0,0,1,0,.82l-16.8,9.7A.42.42,0,0,1,23.28,92.82ZM7.43,82.64l15.85,9.15,15.85-9.15L23.28,73.49Z"/><path class="cls-4" d="M133.23,178.15a.53.53,0,0,1-.24-.06l-16.8-9.71a.47.47,0,0,1,0-.82l16.8-9.7a.46.46,0,0,1,.48,0l16.8,9.7a.47.47,0,0,1,0,.82l-16.8,9.71A.53.53,0,0,1,133.23,178.15ZM117.38,168l15.85,9.15L149.08,168l-15.85-9.15Z"/><path class="cls-5" d="M23.28,123A.53.53,0,0,1,23,123l-8.81-5.09a.49.49,0,0,1-.24-.42.47.47,0,0,1,.24-.41L23,111.94a.46.46,0,0,1,.48,0L32.34,117a.49.49,0,0,1,.23.41.5.5,0,0,1-.23.42L23.52,123A.5.5,0,0,1,23.28,123Zm-7.86-5.57L23.28,122l7.86-4.54-7.86-4.54Z"/><path class="cls-6" d="M172.87,145.88a.53.53,0,0,1-.24-.06l-8.81-5.09a.49.49,0,0,1-.24-.42.46.46,0,0,1,.24-.41l8.81-5.09a.46.46,0,0,1,.48,0l8.82,5.09a.5.5,0,0,1,.24.41.51.51,0,0,1-.24.42l-8.82,5.09A.5.5,0,0,1,172.87,145.88ZM165,140.31l7.86,4.54,7.87-4.54-7.87-4.54Z"/><polygon class="cls-7" points="23.28 84.75 6.48 75.05 23.28 65.35 40.09 75.05 23.28 84.75"/><polygon class="cls-8" points="23.28 73.58 6.48 63.87 23.28 54.17 40.09 63.87 23.28 73.58"/><polygon class="cls-9" points="23.28 64.62 6.48 54.91 23.28 45.21 40.09 54.91 23.28 64.62"/><polygon class="cls-8" points="133.23 172.16 116.42 162.46 133.23 152.75 150.03 162.46 133.23 172.16"/><polygon class="cls-10" points="172.87 140.56 164.06 135.47 172.87 130.38 181.69 135.47 172.87 140.56"/><polygon class="cls-11" points="172.87 135.77 164.06 130.68 172.87 125.59 181.69 130.68 172.87 135.77"/><polygon class="cls-12" points="172.87 130.68 164.06 125.59 172.87 120.5 181.69 125.59 172.87 130.68"/><polygon class="cls-13" points="23.28 118.78 14.46 113.69 23.28 108.59 32.1 113.69 23.28 118.78"/><ellipse class="cls-9" cx="89.54" cy="23.46" rx="10.73" ry="18.58" transform="matrix(0.87, -0.5, 0.5, 0.87, 0.26, 47.92)"/><ellipse class="cls-8" cx="83.75" cy="26.78" rx="10.73" ry="18.58" transform="translate(-2.17 45.47) rotate(-30)"/><ellipse class="cls-14" cx="77.97" cy="30.09" rx="10.73" ry="18.58" transform="translate(-4.6 43.02) rotate(-30)"/><path class="cls-15" d="M64.79,71.84a1.24,1.24,0,0,1,0-2.35,4.49,4.49,0,0,1,4.07,0,1.24,1.24,0,0,1,0,2.35A4.49,4.49,0,0,1,64.79,71.84Z"/><path class="cls-16" d="M64.79,71.7a4.49,4.49,0,0,0,4.07,0,1.46,1.46,0,0,0,.83-1.1,1.37,1.37,0,0,1-.83,1.24,4.49,4.49,0,0,1-4.07,0A1.4,1.4,0,0,1,64,70.6,1.48,1.48,0,0,0,64.79,71.7Z"/><path class="cls-17" d="M64.79,77.42a1.23,1.23,0,0,1,0-2.34,4.49,4.49,0,0,1,4.07,0,1.23,1.23,0,0,1,0,2.34A4.49,4.49,0,0,1,64.79,77.42Z"/><path class="cls-18" d="M64.79,83.1a1.23,1.23,0,0,1,0-2.34,4.49,4.49,0,0,1,4.07,0,1.23,1.23,0,0,1,0,2.34A4.49,4.49,0,0,1,64.79,83.1Z"/><path class="cls-19" d="M69.7,70.67V67.76a1.44,1.44,0,0,1-.84,1.18,4.55,4.55,0,0,1-4.07,0A1.49,1.49,0,0,1,64,67.8V55.51H69.7v36.2a2.88,2.88,0,0,1-5.75,0V81.89a1.39,1.39,0,0,0,.84,1.21,4.49,4.49,0,0,0,4.07,0,1.41,1.41,0,0,0,.84-1.17h0V79a1.42,1.42,0,0,1-.84,1.17,4.49,4.49,0,0,1-4.07,0A1.46,1.46,0,0,1,64,79.07V76.21a1.39,1.39,0,0,0,.84,1.21,4.49,4.49,0,0,0,4.07,0,1.41,1.41,0,0,0,.84-1.17h0v-2.9a1.44,1.44,0,0,1-.84,1.17,4.49,4.49,0,0,1-4.07,0A1.47,1.47,0,0,1,64,73.38V70.63a1.39,1.39,0,0,0,.84,1.21,4.49,4.49,0,0,0,4.07,0,1.42,1.42,0,0,0,.84-1.17Z"/><path class="cls-20" d="M64.79,77.28a4.49,4.49,0,0,0,4.07,0,1.45,1.45,0,0,0,.83-1.1,1.36,1.36,0,0,1-.83,1.24,4.49,4.49,0,0,1-4.07,0A1.39,1.39,0,0,1,64,76.18,1.46,1.46,0,0,0,64.79,77.28Z"/><path class="cls-21" d="M64.79,83a4.49,4.49,0,0,0,4.07,0,1.45,1.45,0,0,0,.83-1.1,1.36,1.36,0,0,1-.83,1.24,4.49,4.49,0,0,1-4.07,0A1.39,1.39,0,0,1,64,81.86,1.46,1.46,0,0,0,64.79,83Z"/><path class="cls-22" d="M64.79,68.94a4.55,4.55,0,0,0,4.07,0,1.44,1.44,0,0,0,.84-1.18v2.91h0a1.42,1.42,0,0,1-.84,1.17,4.49,4.49,0,0,1-4.07,0A1.39,1.39,0,0,1,64,70.63V67.8A1.49,1.49,0,0,0,64.79,68.94Z"/><path class="cls-23" d="M64.79,74.52a4.49,4.49,0,0,0,4.07,0,1.44,1.44,0,0,0,.84-1.17v2.9h0a1.41,1.41,0,0,1-.84,1.17,4.49,4.49,0,0,1-4.07,0A1.39,1.39,0,0,1,64,76.21V73.38A1.47,1.47,0,0,0,64.79,74.52Z"/><path class="cls-24" d="M64.79,80.2a4.49,4.49,0,0,0,4.07,0A1.42,1.42,0,0,0,69.7,79v2.9h0a1.41,1.41,0,0,1-.84,1.17,4.49,4.49,0,0,1-4.07,0A1.39,1.39,0,0,1,64,81.89V79.07A1.46,1.46,0,0,0,64.79,80.2Z"/><path class="cls-25" d="M77.21,51a3.64,3.64,0,0,0,.39-.23l1.41-8L77.25,32.29,72.35,27l-5-4.9-8-3.33-.21-.08a6.81,6.81,0,0,0-1.08.69l-6-.75a11.46,11.46,0,0,1,1.21-2.25l-1-.37,3.6-2.07.12-.08.14-.08h0c3.09-1.67,7.3-1.37,11.94,1.31,9.5,5.48,17.2,18.82,17.2,29.78,0,5.44-1.9,9.27-5,11.08h0l-.11.06L76.3,58.17l.2-1.1a12,12,0,0,1-1.47,0C76.09,55.21,77.52,53.14,77.21,51Z"/><path class="cls-26" d="M50.84,25.42c0-.15,0-.3,0-.44A17,17,0,0,1,52,18.58l6,.75c-1.93,1.53-3.09,4.26-3.09,8,0,8.38,5.88,18.56,13.13,22.75,3.58,2.07,6.82,2.28,9.19,1,.31,2.1-1.12,4.17-2.18,6a14.7,14.7,0,0,1-5.13-1.36l.57.64s-7.15-2.48-7.3-2.64-8.47-8.57-8.47-8.57L49.26,33.43Z"/><ellipse class="cls-27" cx="65.68" cy="36.64" rx="10.73" ry="18.58" transform="translate(-9.52 37.75) rotate(-30)"/><ellipse class="cls-28" cx="66.82" cy="36.02" rx="10.73" ry="18.58" transform="translate(-9.06 38.24) rotate(-30)"/><path class="cls-29" d="M47.05,27.16c0,11,7.7,24.29,17.19,29.77s17.2,1,17.2-9.92-7.7-24.3-17.2-29.78S47.05,16.19,47.05,27.16Zm4.06,2.34c0-8.38,5.88-11.78,13.13-7.59S77.38,36.29,77.38,44.67,71.5,56.44,64.24,52.25,51.11,37.88,51.11,29.5Z"/><path class="cls-30" d="M47.05,27.16c0,11,7.7,24.29,17.19,29.77s17.2,1,17.2-9.92-7.7-24.3-17.2-29.78S47.05,16.19,47.05,27.16Zm4.06,2.34c0-8.38,5.88-11.78,13.13-7.59S77.38,36.29,77.38,44.67,71.5,56.44,64.24,52.25,51.11,37.88,51.11,29.5Z"/><path class="cls-31" d="M81.18,47.3c0-11-7.7-24.29-17.2-29.78-5.84-3.37-11-3-14.11.37,3.08-3.62,8.36-4.13,14.37-.66C73.74,22.71,81.44,36,81.44,47c0,4.21-1.14,7.46-3.08,9.55C80.14,54.47,81.18,51.33,81.18,47.3Z"/><path class="cls-32" d="M64,52.55c-7.25-4.19-13.14-14.38-13.14-22.76,0-3.25.89-5.74,2.39-7.34a10.84,10.84,0,0,0-2.12,7.05c0,8.38,5.88,18.56,13.13,22.75C68.69,54.82,72.62,54.54,75,52,72.65,54.8,68.6,55.21,64,52.55Z"/><path class="cls-33" d="M86.84,63.9l10-59.65-.81-.34,1.22-.7h0a.88.88,0,0,1,.94.06l80.35,46.39a2.26,2.26,0,0,1,1,2l-10.13,60.13a.76.76,0,0,1-.42.61h0l-1.19.68-.21-1.11.07,0L87.88,65.94A2.26,2.26,0,0,1,86.84,63.9Z"/><path class="cls-33" d="M178.13,51.3l1.32-.58a1.8,1.8,0,0,1,.17,1l-10.13,60.13a.76.76,0,0,1-.42.61h0l-1.19.68-.21-1.11.07,0-4-2.34Z"/><path class="cls-34" d="M86.62,66.66,167,113.05c.62.36,1.15.15,1.26-.49l10.13-60.12a2.25,2.25,0,0,0-1-2L97,4c-.62-.36-1.15-.15-1.26.49L85.58,64.62A2.26,2.26,0,0,0,86.62,66.66Z"/><polygon class="cls-35" points="98.02 7.84 175.47 52.56 165.87 109.18 88.47 64.5 98.02 7.84"/><path class="cls-36" d="M36.11,95.12l4.39,2.29L84.47,72a3.18,3.18,0,0,1,2.87.12l75.83,43.78c.73-.41,4-2,4-2l-1.6,4.18h0a.93.93,0,0,1-.45.5l-46.3,26.73a3.17,3.17,0,0,1-2.87-.12l-77.61-44.8a1.41,1.41,0,0,1-.65-.69h0Z"/><path class="cls-37" d="M36.79,95.84l79.53,45.92a3.26,3.26,0,0,0,2.94.12l47.46-27.4c.76-.43.66-1.19-.21-1.7L87,66.87A3.23,3.23,0,0,0,84,66.75L36.58,94.15C35.83,94.58,35.92,95.34,36.79,95.84Z"/><path class="cls-38" d="M140.31,131.83V131c0-.09-.05-.12-.11-.09l-3.08,1.78a.26.26,0,0,0-.11.21v.87c0,.09.05.13.11.09L140.2,132A.26.26,0,0,0,140.31,131.83Z"/><path class="cls-38" d="M135.71,134.49v-.88c0-.08-.05-.12-.11-.08l-3.08,1.77a.3.3,0,0,0-.11.22v.87c0,.08.05.12.11.09l3.08-1.78A.27.27,0,0,0,135.71,134.49Z"/><path class="cls-39" d="M154.35,111.92,88.26,73.76a1.43,1.43,0,0,0-1.43,0L63.3,87.38a.5.5,0,0,0,0,.87l66.06,38.14a1.39,1.39,0,0,0,1.42,0l23.57-13.59A.51.51,0,0,0,154.35,111.92Z"/><path class="cls-40" d="M154.35,112.8l-.24.13-65.85-38a1.46,1.46,0,0,0-1.43,0L63.54,88.39l-.24-.14a.5.5,0,0,1,0-.87L86.83,73.76a1.43,1.43,0,0,1,1.43,0l66.09,38.16A.51.51,0,0,1,154.35,112.8Z"/><polygon class="cls-41" points="85.06 77.21 142.47 110.35 145.02 108.88 87.61 75.73 85.06 77.21"/><polygon class="cls-42" points="78.8 80.82 132.65 111.91 135.2 110.44 81.35 79.35 78.8 80.82"/><polygon class="cls-43" points="74.72 83.17 138.12 119.78 140.68 118.31 77.28 81.7 74.72 83.17"/><polygon class="cls-44" points="70.65 85.53 134.05 122.13 136.6 120.66 73.2 84.05 70.65 85.53"/><polygon class="cls-45" points="66.57 87.88 129.97 124.48 132.53 123.01 69.13 86.41 66.57 87.88"/><polygon class="cls-46" points="145.94 112.36 148.49 113.83 151.04 112.36 148.49 110.88 145.94 112.36"/><polygon class="cls-47" points="136.93 114.38 142.23 117.44 144.78 115.97 139.49 112.91 136.93 114.38"/><path class="cls-48" d="M85.71,121.15,67.89,110.86a.77.77,0,0,1,0-1.45l12.19-7a2.8,2.8,0,0,1,2.52,0l17.82,10.29c.7.4.7,1,0,1.46l-12.18,7A2.82,2.82,0,0,1,85.71,121.15Z"/><path class="cls-49" d="M100.42,113.25,82.6,103a2.74,2.74,0,0,0-2.52,0l-12.19,7a1.1,1.1,0,0,0-.43.43c-.19-.35,0-.75.43-1l12.19-7a2.8,2.8,0,0,1,2.52,0l17.82,10.29c.48.28.62.67.44,1A1.13,1.13,0,0,0,100.42,113.25Z"/><polygon id="SVGID-2" data-name="SVGID" class="cls-1" points="98.02 7.84 175.47 52.56 165.87 109.18 88.47 64.5 98.02 7.84"/><g class="cls-50"><path class="cls-51" d="M86.9,66.77l79.53,45.92a3.26,3.26,0,0,0,2.94.12l47.46-27.4c.76-.43.66-1.19-.21-1.7L137.09,37.8a3.26,3.26,0,0,0-2.94-.13L86.69,65.07C85.94,65.51,86,66.27,86.9,66.77Z"/><path class="cls-52" d="M166.67,75,148.85,64.72c-.7-.41-.7-1.06,0-1.46l12.19-7a2.8,2.8,0,0,1,2.52,0l17.82,10.29a.77.77,0,0,1,0,1.46l-12.19,7A2.8,2.8,0,0,1,166.67,75Z"/><path class="cls-53" d="M181.38,67.11,163.56,56.82a2.8,2.8,0,0,0-2.52,0l-12.19,7a1,1,0,0,0-.44.43c-.18-.36,0-.75.44-1l12.19-7a2.8,2.8,0,0,1,2.52,0l17.82,10.29c.48.28.62.68.44,1A1.14,1.14,0,0,0,181.38,67.11Z"/><path class="cls-54" d="M189.21,91.08,123.12,52.93a1.39,1.39,0,0,0-1.42,0L98.16,66.54a.51.51,0,0,0,0,.88l66.06,38.14a1.41,1.41,0,0,0,1.43,0L189.21,92A.51.51,0,0,0,189.21,91.08Z"/><path class="cls-55" d="M189.21,92l-.23.14-65.86-38a1.39,1.39,0,0,0-1.42,0L98.4,67.56l-.24-.14a.51.51,0,0,1,0-.88L121.7,52.93a1.39,1.39,0,0,1,1.42,0l66.09,38.15A.51.51,0,0,1,189.21,92Z"/><polygon class="cls-56" points="104.32 65.61 161.9 98.86 159.62 100.17 102.04 66.93 104.32 65.61"/><polygon class="cls-57" points="110.39 62.11 165.11 93.71 162.83 95.03 108.11 63.43 110.39 62.11"/><polygon class="cls-58" points="169.2 96.07 174.31 99.02 172.03 100.33 166.92 97.38 169.2 96.07"/><polygon class="cls-59" points="164.69 100.47 168.25 102.52 165.96 103.84 162.41 101.78 164.69 100.47"/><polygon class="cls-60" points="114.19 59.92 178.11 96.82 175.83 98.14 111.91 61.23 114.19 59.92"/><polygon class="cls-61" points="117.99 57.72 181.91 94.63 179.63 95.95 115.71 59.04 117.99 57.72"/><polygon class="cls-62" points="121.79 55.53 185.72 92.44 183.43 93.75 119.51 56.84 121.79 55.53"/></g><polygon class="cls-63" points="123.72 108.52 140.86 97.97 102.34 75.73 84.16 87.95 123.72 108.52"/><polygon class="cls-64" points="140.86 97.97 144.78 73.18 108.63 52.45 108.63 79.32 140.86 97.97"/><path class="cls-65" d="M104.85,40.4l3.83-2.2h0a.19.19,0,0,1,.19,0l47.92,27.67a.69.69,0,0,1,.28.54v9a.26.26,0,0,1-.08.21h0l-3.86,2.22,0-4.37L108.87,48a.67.67,0,0,1-.29-.54v-3.1Z"/><path class="cls-66" d="M105,50.23l47.92,27.66c.16.09.29,0,.29-.21V68.63a.68.68,0,0,0-.29-.54L105,40.43c-.15-.1-.28,0-.28.21v9A.7.7,0,0,0,105,50.23Z"/><path class="cls-67" d="M111.63,48.39,149,70.33a25.44,25.44,0,0,0-3.25,3.38L108.11,52A25.73,25.73,0,0,1,111.63,48.39Z"/><path class="cls-68" d="M106.39,47.51,151.58,73.6c.1.06.19,0,.19-.15V71.18a.48.48,0,0,0-.19-.37L106.39,44.72c-.11-.06-.19,0-.19.15v2.27A.45.45,0,0,0,106.39,47.51Z"/><path class="cls-69" d="M106.39,44.72l.92.53v1.23a.45.45,0,0,0,.19.37l44.27,25.56v1c0,.14-.09.21-.19.15L106.39,47.51a.45.45,0,0,1-.19-.37V44.87C106.2,44.72,106.28,44.66,106.39,44.72Z"/><path class="cls-70" d="M81,145.39l-37.59-21.7h0c4.85-2.8,8.94-8.93,10.19-14.79a8.54,8.54,0,0,1,4.06-5.65l28.41-16.4A27.2,27.2,0,0,0,99.65,64.94c.45-7.7,6.27-15.27,10.79-17.88h0L148,68.76h0c-4.45,2.57-9.35,9.76-9.91,17.32a27.52,27.52,0,0,1-13.55,22L95.25,125a8.59,8.59,0,0,0-4.06,5.66c-1.25,5.86-5.34,12-10.19,14.78Z"/><polygon class="cls-71" points="122.27 74.39 127.14 77.2 127.14 76.66 122.27 73.85 122.27 74.39"/><polygon class="cls-72" points="119.77 72.95 121.52 73.96 121.52 73.42 119.77 72.4 119.77 72.95"/><polygon class="cls-73" points="117.83 71.83 119.03 72.52 119.03 71.97 117.83 71.29 117.83 71.83"/><polygon class="cls-74" points="124.49 76.91 127.14 78.44 127.14 77.9 124.49 76.37 124.49 76.91"/><polygon class="cls-75" points="120.49 74.6 123.74 76.48 123.74 75.94 120.49 74.06 120.49 74.6"/><polygon class="cls-76" points="118.55 73.48 119.74 74.17 119.74 73.63 118.55 72.94 118.55 73.48"/><polygon class="cls-77" points="116.71 72.42 117.9 73.11 117.9 72.56 116.71 71.88 116.71 72.42"/><polygon class="cls-78" points="125.22 78.57 127.14 79.68 127.14 79.14 125.22 78.03 125.22 78.57"/><polygon class="cls-79" points="123.82 77.76 124.47 78.14 124.47 77.6 123.82 77.22 123.82 77.76"/><polygon class="cls-80" points="121.88 76.65 123.07 77.33 123.07 76.79 121.88 76.1 121.88 76.65"/><polygon class="cls-81" points="120.05 76.83 127.14 80.92 127.14 80.38 120.05 76.29 120.05 76.83"/><polygon class="cls-82" points="117.55 75.39 119.31 76.4 119.31 75.86 117.55 74.84 117.55 75.39"/><polygon class="cls-83" points="125.22 81.05 127.14 82.16 127.14 81.62 125.22 80.51 125.22 81.05"/><polygon class="cls-84" points="120.71 78.45 124.47 80.62 124.47 80.08 120.71 77.91 120.71 78.45"/><polygon class="cls-85" points="118.78 77.33 119.97 78.02 119.97 77.48 118.78 76.79 118.78 77.33"/><polygon class="cls-86" points="123.21 81.13 127.14 83.4 127.14 82.86 123.21 80.59 123.21 81.13"/><polygon class="cls-87" points="119.62 79.06 122.47 80.7 122.47 80.16 119.62 78.52 119.62 79.06"/><polygon class="cls-88" points="116.96 77.52 118.88 78.63 118.88 78.09 116.96 76.98 116.96 77.52"/><polygon class="cls-89" points="125.81 83.88 127.14 84.64 127.14 84.1 125.81 83.33 125.81 83.88"/><polygon class="cls-90" points="123.31 82.43 125.07 83.45 125.07 82.9 123.31 81.89 123.31 82.43"/><polygon class="cls-91" points="119.74 80.37 122.57 82 122.57 81.46 119.74 79.83 119.74 80.37"/><polygon class="cls-92" points="123.07 83.53 127.14 85.88 127.14 85.34 123.07 82.99 123.07 83.53"/><polygon class="cls-93" points="118.52 80.91 122.33 83.11 122.33 82.56 118.52 80.36 118.52 80.91"/><polygon class="cls-94" points="116.58 79.79 117.78 80.48 117.78 79.93 116.58 79.25 116.58 79.79"/><polygon class="cls-95" points="114.73 78.72 115.92 79.4 115.92 78.86 114.73 78.17 114.73 78.72"/><polygon class="cls-96" points="124.7 85.72 127.14 87.12 127.14 86.58 124.7 85.17 124.7 85.72"/><polygon class="cls-97" points="112.39 68.68 109.01 66.73 109.01 66.19 112.39 68.14 112.39 68.68"/><polygon class="cls-98" points="111.66 69.51 109.01 67.97 109.01 67.43 111.66 68.96 111.66 69.51"/><polygon class="cls-99" points="110.93 70.32 109.01 69.21 109.01 68.67 110.93 69.78 110.93 70.32"/><polygon class="cls-100" points="111.8 72.07 109.01 70.45 109.01 69.91 111.8 71.52 111.8 72.07"/><polygon class="cls-101" points="110.93 72.8 109.01 71.69 109.01 71.15 110.93 72.26 110.93 72.8"/><polygon class="cls-102" points="111.44 74.34 109.01 72.93 109.01 72.39 111.44 73.8 111.44 74.34"/><polygon class="cls-103" points="110.34 74.94 109.01 74.17 109.01 73.63 110.34 74.4 110.34 74.94"/><polygon class="cls-104" points="111.58 76.9 109.01 75.41 109.01 74.87 111.58 76.36 111.58 76.9"/><polygon class="cls-105" points="111.44 78.06 109.01 76.65 109.01 76.11 111.44 77.52 111.44 78.06"/><polygon class="cls-106" points="122.92 84.69 123.96 85.29 123.96 84.74 122.92 84.14 122.92 84.69"/><polygon class="cls-107" points="119.85 82.91 122.18 84.26 122.18 83.72 119.85 82.37 119.85 82.91"/><path class="cls-108" d="M110.44,47.06,148,68.76l-.89.56h0l-37.58-21.7C109.84,47.42,110.14,47.23,110.44,47.06Z"/><path class="cls-109" d="M74.43,65.8h12V91.41h0a3,3,0,0,1-1.76,2.45,9.38,9.38,0,0,1-8.48,0,3,3,0,0,1-1.76-2.45h0Z"/><path class="cls-110" d="M74.43,65.8h12V91.41h0a3,3,0,0,1-1.76,2.45,9.38,9.38,0,0,1-8.48,0,3,3,0,0,1-1.76-2.45h0Z"/><path class="cls-111" d="M76.19,68.25a9.38,9.38,0,0,0,8.48,0c2.34-1.35,2.34-3.54,0-4.9a9.38,9.38,0,0,0-8.48,0C73.85,64.71,73.85,66.9,76.19,68.25Z"/><path class="cls-112" d="M77.69,67.38a6.08,6.08,0,0,0,5.48,0c1.51-.87,1.51-2.29,0-3.16a6.08,6.08,0,0,0-5.48,0C76.18,65.09,76.18,66.51,77.69,67.38Z"/><path class="cls-113" d="M76.19,68a9.38,9.38,0,0,0,8.48,0,3,3,0,0,0,1.74-2.32,2.89,2.89,0,0,1-1.74,2.58,9.38,9.38,0,0,1-8.48,0,2.9,2.9,0,0,1-1.75-2.58A3,3,0,0,0,76.19,68Z"/><path class="cls-114" d="M74.43,60.24h12v2.34h0A3,3,0,0,1,84.67,65a9.32,9.32,0,0,1-8.48,0,3,3,0,0,1-1.76-2.44h0Z"/><path class="cls-115" d="M74.43,60.24h12v2.34h0A3,3,0,0,1,84.67,65a9.32,9.32,0,0,1-8.48,0,3,3,0,0,1-1.76-2.44h0Z"/><path class="cls-116" d="M76.19,62.68a9.32,9.32,0,0,0,8.48,0c2.34-1.35,2.34-3.54,0-4.89a9.38,9.38,0,0,0-8.48,0C73.85,59.14,73.85,61.33,76.19,62.68Z"/><path class="cls-117" d="M76.19,62.43a9.38,9.38,0,0,0,8.48,0,3.05,3.05,0,0,0,1.74-2.32,2.87,2.87,0,0,1-1.74,2.57,9.32,9.32,0,0,1-8.48,0,2.88,2.88,0,0,1-1.75-2.57A3.07,3.07,0,0,0,76.19,62.43Z"/><path class="cls-118" d="M84.35,80.06h12V97.13h0a3,3,0,0,1-1.76,2.45,9.38,9.38,0,0,1-8.48,0,3,3,0,0,1-1.75-2.45h0Z"/><path class="cls-119" d="M84.35,80.06h12V97.13h0a3,3,0,0,1-1.76,2.45,9.38,9.38,0,0,1-8.48,0,3,3,0,0,1-1.75-2.45h0Z"/><ellipse class="cls-120" cx="90.34" cy="80.06" rx="6" ry="3.46"/><path class="cls-121" d="M86.1,82.25a9.38,9.38,0,0,0,8.48,0,3,3,0,0,0,1.75-2.32,2.89,2.89,0,0,1-1.75,2.57,9.32,9.32,0,0,1-8.48,0,2.9,2.9,0,0,1-1.74-2.57A3.05,3.05,0,0,0,86.1,82.25Z"/><path class="cls-122" d="M94.26,77h12v25.82h0a3,3,0,0,1-1.75,2.45,9.38,9.38,0,0,1-8.48,0,3,3,0,0,1-1.76-2.45h0Z"/><path class="cls-123" d="M94.26,77h12v25.82h0a3,3,0,0,1-1.75,2.45,9.38,9.38,0,0,1-8.48,0,3,3,0,0,1-1.76-2.45h0Z"/><ellipse class="cls-124" cx="100.26" cy="77.03" rx="6" ry="3.46"/><path class="cls-125" d="M96,79.22a9.38,9.38,0,0,0,8.48,0,3,3,0,0,0,1.74-2.32,2.89,2.89,0,0,1-1.74,2.58,9.38,9.38,0,0,1-8.48,0,2.9,2.9,0,0,1-1.75-2.58A3.05,3.05,0,0,0,96,79.22Z"/><path class="cls-126" d="M104.18,87.4h12v21.17h0a3,3,0,0,1-1.76,2.44,9.32,9.32,0,0,1-8.48,0,3,3,0,0,1-1.75-2.44h0Z"/><path class="cls-127" d="M104.18,87.4h12v21.17h0a3,3,0,0,1-1.76,2.44,9.32,9.32,0,0,1-8.48,0,3,3,0,0,1-1.75-2.44h0Z"/><path class="cls-128" d="M105.93,89.85a9.38,9.38,0,0,0,8.48,0c2.35-1.35,2.35-3.54,0-4.9a9.38,9.38,0,0,0-8.48,0C103.59,86.31,103.59,88.5,105.93,89.85Z"/><path class="cls-129" d="M105.93,89.59a9.38,9.38,0,0,0,8.48,0,3,3,0,0,0,1.75-2.32,2.9,2.9,0,0,1-1.75,2.58,9.38,9.38,0,0,1-8.48,0,2.91,2.91,0,0,1-1.74-2.58A3,3,0,0,0,105.93,89.59Z"/><path class="cls-130" d="M114.09,98.34h12v15.94h0a3,3,0,0,1-1.75,2.45,9.38,9.38,0,0,1-8.48,0,3,3,0,0,1-1.76-2.45h0Z"/><path class="cls-131" d="M114.09,98.34h12v15.94h0a3,3,0,0,1-1.75,2.45,9.38,9.38,0,0,1-8.48,0,3,3,0,0,1-1.76-2.45h0Z"/><ellipse class="cls-132" cx="120.09" cy="98.34" rx="6" ry="3.46"/><path class="cls-133" d="M115.85,100.53a9.38,9.38,0,0,0,8.48,0,3.05,3.05,0,0,0,1.74-2.32,2.89,2.89,0,0,1-1.74,2.58,9.38,9.38,0,0,1-8.48,0,2.9,2.9,0,0,1-1.75-2.58A3.05,3.05,0,0,0,115.85,100.53Z"/><polygon class="cls-33" points="168.1 55.35 169.26 56.09 169.4 55.23 168.24 54.49 168.1 55.35"/><polygon class="cls-33" points="167.18 61.14 168.34 61.87 169.14 56.87 167.98 56.13 167.18 61.14"/><polygon class="cls-33" points="166.73 63.9 167.89 64.64 168.21 62.65 167.05 61.92 166.73 63.9"/><polygon class="cls-33" points="166.27 66.77 167.43 67.51 167.75 65.52 166.59 64.78 166.27 66.77"/><polygon class="cls-33" points="165.93 57.02 167.09 57.76 167.41 55.77 166.25 55.03 165.93 57.02"/><polygon class="cls-33" points="165.32 60.82 166.48 61.55 166.95 58.64 165.79 57.9 165.32 60.82"/><polygon class="cls-33" points="164.76 64.31 165.92 65.05 166.32 62.55 165.16 61.81 164.76 64.31"/><polygon class="cls-33" points="165.81 69.64 166.97 70.38 167.29 68.39 166.13 67.65 165.81 69.64"/><polygon class="cls-33" points="166.38 54.25 167.54 54.99 167.67 54.13 166.51 53.4 166.38 54.25"/><polygon class="cls-33" points="164.5 71.87 166.52 73.16 166.66 72.33 164.63 71.04 164.5 71.87"/></g></g></svg>