<svg xmlns="http://www.w3.org/2000/svg" xmlns:xlink="http://www.w3.org/1999/xlink" viewBox="0 0 176.42 179.7"><defs><style>.cls-1{isolation:isolate;}.cls-2{fill:url(#linear-gradient);}.cls-3{fill:url(#linear-gradient-2);}.cls-4{fill:url(#linear-gradient-3);}.cls-5{fill:url(#linear-gradient-4);}.cls-6{fill:url(#linear-gradient-5);}.cls-7{mix-blend-mode:multiply;fill:url(#linear-gradient-6);}.cls-8{fill:url(#linear-gradient-7);}.cls-9{fill:url(#linear-gradient-8);}.cls-10{fill:#442c2c;}.cls-11{fill:url(#linear-gradient-9);}.cls-12{fill:url(#linear-gradient-10);}.cls-13{fill:url(#linear-gradient-11);}.cls-14{fill:#294688;}.cls-15{fill:url(#linear-gradient-12);}.cls-16{fill:url(#linear-gradient-13);}.cls-17{fill:url(#linear-gradient-14);}.cls-18{fill:#ef4141;opacity:0.5;}.cls-19{fill:url(#linear-gradient-15);}.cls-20{fill:url(#linear-gradient-16);}.cls-21{fill:url(#linear-gradient-17);}.cls-22{fill:url(#linear-gradient-18);}.cls-23{fill:url(#linear-gradient-19);}.cls-24{fill:#66c2e6;}.cls-25{fill:url(#linear-gradient-20);}.cls-26{fill:url(#linear-gradient-21);}.cls-27{fill:url(#linear-gradient-22);}.cls-28{fill:url(#linear-gradient-23);}.cls-29{fill:#dce4fb;}.cls-30{fill:url(#linear-gradient-24);}.cls-31{fill:url(#linear-gradient-25);}.cls-32{fill:url(#linear-gradient-26);}.cls-33{fill:url(#linear-gradient-27);}.cls-34{fill:url(#linear-gradient-28);}.cls-35{fill:url(#linear-gradient-29);}.cls-36{fill:url(#linear-gradient-30);}.cls-37{fill:url(#linear-gradient-31);}.cls-38{fill:url(#linear-gradient-32);}.cls-39{fill:url(#linear-gradient-33);}.cls-40{fill:url(#linear-gradient-34);}.cls-41{fill:url(#linear-gradient-35);}.cls-42{fill:#f4a490;}.cls-43{fill:#ffb9a4;}.cls-44{fill:#ffc9b6;}.cls-45{fill:#ffd8cc;}.cls-46{fill:url(#linear-gradient-36);}.cls-47{fill:url(#linear-gradient-37);}.cls-48{fill:url(#linear-gradient-38);}.cls-49{fill:url(#linear-gradient-39);}.cls-50{fill:url(#linear-gradient-40);}.cls-51{fill:url(#linear-gradient-41);}.cls-52{fill:url(#linear-gradient-42);}.cls-53{fill:url(#linear-gradient-43);}.cls-54{fill:url(#linear-gradient-44);}.cls-55{fill:url(#linear-gradient-45);}.cls-56{fill:url(#linear-gradient-46);}.cls-57{fill:url(#linear-gradient-47);}.cls-58{fill:url(#linear-gradient-48);}.cls-59{fill:url(#linear-gradient-49);}.cls-60{fill:url(#linear-gradient-50);}.cls-61{fill:url(#linear-gradient-51);}.cls-62{fill:url(#linear-gradient-52);}.cls-63{fill:url(#linear-gradient-53);}.cls-64{fill:url(#linear-gradient-54);}.cls-65{fill:url(#linear-gradient-55);}.cls-66{fill:url(#linear-gradient-56);}.cls-67{fill:url(#linear-gradient-57);}.cls-68{fill:url(#linear-gradient-58);}.cls-69{fill:url(#linear-gradient-59);}.cls-70{fill:url(#linear-gradient-60);}.cls-71{fill:url(#linear-gradient-61);}.cls-72{fill:url(#linear-gradient-62);}.cls-73{fill:url(#linear-gradient-63);}.cls-74{fill:url(#linear-gradient-64);}.cls-75{fill:url(#linear-gradient-65);}.cls-76{fill:url(#linear-gradient-66);}.cls-77{fill:url(#linear-gradient-67);}.cls-78{fill:url(#linear-gradient-68);}.cls-79{fill:url(#linear-gradient-69);}.cls-80{fill:url(#linear-gradient-70);}.cls-81{fill:url(#linear-gradient-71);}.cls-82{fill:url(#linear-gradient-72);}.cls-83{fill:#c1aeae;}.cls-84{fill:url(#linear-gradient-73);}.cls-85{fill:url(#linear-gradient-74);}.cls-86{fill:url(#linear-gradient-75);}.cls-87{fill:url(#linear-gradient-76);}.cls-88{fill:url(#linear-gradient-77);}.cls-89{fill:url(#linear-gradient-78);}.cls-90{fill:url(#linear-gradient-79);}.cls-91{fill:url(#linear-gradient-80);}.cls-92{fill:url(#linear-gradient-81);}.cls-93{fill:url(#linear-gradient-82);}.cls-94{fill:url(#linear-gradient-83);}.cls-95{fill:url(#linear-gradient-84);}.cls-96{fill:url(#linear-gradient-85);}.cls-97{fill:url(#linear-gradient-86);}.cls-98{fill:#e9eefb;}</style><linearGradient id="linear-gradient" x1="10.46" y1="109.67" x2="12.19" y2="109.67" gradientUnits="userSpaceOnUse"><stop offset="0.43" stop-color="#eef6fb"/><stop offset="1" stop-color="#abd1ec"/></linearGradient><linearGradient id="linear-gradient-2" x1="12.19" y1="111.35" x2="12.58" y2="111.35" gradientUnits="userSpaceOnUse"><stop offset="0" stop-color="#eef5fa"/><stop offset="0.11" stop-color="#e1eff7" stop-opacity="0.99"/><stop offset="0.3" stop-color="#beddef" stop-opacity="0.95"/><stop offset="0.57" stop-color="#85c2e2" stop-opacity="0.9"/><stop offset="0.9" stop-color="#379cd0" stop-opacity="0.82"/><stop offset="1" stop-color="#1f90ca" stop-opacity="0.8"/></linearGradient><linearGradient id="linear-gradient-3" x1="32.94" y1="116.02" x2="143.39" y2="116.02" gradientUnits="userSpaceOnUse"><stop offset="0" stop-color="#0984bd"/><stop offset="1" stop-color="#56a5d7"/></linearGradient><linearGradient id="linear-gradient-4" x1="9.63" y1="118.15" x2="26.28" y2="118.15" xlink:href="#linear-gradient-2"/><linearGradient id="linear-gradient-5" x1="30.98" y1="63.33" x2="46.73" y2="63.33" xlink:href="#linear-gradient-3"/><linearGradient id="linear-gradient-6" x1="50" y1="72.38" x2="121.3" y2="72.38" gradientUnits="userSpaceOnUse"><stop offset="0" stop-color="#eef6fb" stop-opacity="0"/><stop offset="0.23" stop-color="#daebf6" stop-opacity="0.21"/><stop offset="0.48" stop-color="#c6e0f2" stop-opacity="0.42"/><stop offset="0.7" stop-color="#b7d8ef" stop-opacity="0.57"/><stop offset="0.88" stop-color="#aed3ed" stop-opacity="0.67"/><stop offset="1" stop-color="#abd1ec" stop-opacity="0.7"/></linearGradient><linearGradient id="linear-gradient-7" x1="75.16" y1="50.95" x2="134.27" y2="50.95" gradientUnits="userSpaceOnUse"><stop offset="0" stop-color="#0984bd" stop-opacity="0"/><stop offset="1" stop-color="#3699d0"/></linearGradient><linearGradient id="linear-gradient-8" x1="76.02" y1="50.95" x2="133.41" y2="50.95" gradientUnits="userSpaceOnUse"><stop offset="0" stop-color="#abd1ec"/><stop offset="0.57" stop-color="#eef6fb"/></linearGradient><linearGradient id="linear-gradient-9" x1="52.07" y1="68.5" x2="118.38" y2="68.5" xlink:href="#linear-gradient-3"/><linearGradient id="linear-gradient-10" x1="53.76" y1="62.31" x2="116.88" y2="62.31" gradientUnits="userSpaceOnUse"><stop offset="0" stop-color="#f57454"/><stop offset="1" stop-color="#f7947c"/></linearGradient><linearGradient id="linear-gradient-11" x1="54.31" y1="68.69" x2="116.33" y2="68.69" xlink:href="#linear-gradient-10"/><linearGradient id="linear-gradient-12" x1="77.61" y1="74.96" x2="85.93" y2="74.96" gradientUnits="userSpaceOnUse"><stop offset="0" stop-color="#fab371"/><stop offset="1" stop-color="#fcd5b0"/></linearGradient><linearGradient id="linear-gradient-13" x1="87.65" y1="78.99" x2="106.17" y2="78.99" xlink:href="#linear-gradient-12"/><linearGradient id="linear-gradient-14" x1="66.63" y1="57.21" x2="86.82" y2="57.21" xlink:href="#linear-gradient-12"/><linearGradient id="linear-gradient-15" x1="72.35" y1="62.17" x2="91.56" y2="62.17" xlink:href="#linear-gradient-8"/><linearGradient id="linear-gradient-16" x1="74.92" y1="61.54" x2="89.09" y2="61.54" xlink:href="#linear-gradient-2"/><linearGradient id="linear-gradient-17" x1="72.35" y1="65.77" x2="82.01" y2="65.77" gradientUnits="userSpaceOnUse"><stop offset="0" stop-color="#38c5ea"/><stop offset="1" stop-color="#294688"/></linearGradient><linearGradient id="linear-gradient-18" x1="82.01" y1="65.78" x2="91.56" y2="65.78" xlink:href="#linear-gradient-17"/><linearGradient id="linear-gradient-19" x1="78.38" y1="61.11" x2="85.47" y2="61.11" xlink:href="#linear-gradient-17"/><linearGradient id="linear-gradient-20" x1="78.38" y1="59.48" x2="85.47" y2="59.48" xlink:href="#linear-gradient-2"/><linearGradient id="linear-gradient-21" x1="78.5" y1="56.77" x2="85.5" y2="56.77" xlink:href="#linear-gradient-17"/><linearGradient id="linear-gradient-22" x1="77.65" y1="50.44" x2="86.37" y2="50.44" xlink:href="#linear-gradient-3"/><linearGradient id="linear-gradient-23" x1="81.02" y1="49.12" x2="85.55" y2="49.12" xlink:href="#linear-gradient-2"/><linearGradient id="linear-gradient-24" x1="31.94" y1="63.59" x2="46.14" y2="63.59" xlink:href="#linear-gradient-17"/><linearGradient id="linear-gradient-25" x1="31.94" y1="61.15" x2="46.14" y2="61.15" xlink:href="#linear-gradient-8"/><linearGradient id="linear-gradient-26" x1="33.86" y1="60.78" x2="44.17" y2="60.78" xlink:href="#linear-gradient-17"/><linearGradient id="linear-gradient-27" x1="35.88" y1="60.18" x2="42.19" y2="60.18" xlink:href="#linear-gradient-8"/><linearGradient id="linear-gradient-28" x1="36.84" y1="59.02" x2="41.24" y2="59.02" xlink:href="#linear-gradient-17"/><linearGradient id="linear-gradient-29" x1="36.66" y1="58.32" x2="41.37" y2="58.32" xlink:href="#linear-gradient-2"/><linearGradient id="linear-gradient-30" x1="36.36" y1="57.57" x2="41.72" y2="57.57" xlink:href="#linear-gradient-17"/><linearGradient id="linear-gradient-31" x1="36.66" y1="57.07" x2="41.37" y2="57.07" xlink:href="#linear-gradient-17"/><linearGradient id="linear-gradient-32" x1="34.86" y1="50.35" x2="43.45" y2="50.35" xlink:href="#linear-gradient-2"/><linearGradient id="linear-gradient-33" x1="35.77" y1="45.99" x2="39.2" y2="45.99" xlink:href="#linear-gradient-17"/><linearGradient id="linear-gradient-34" x1="35.05" y1="115.5" x2="141.88" y2="115.5" xlink:href="#linear-gradient"/><linearGradient id="linear-gradient-35" x1="102.16" y1="120.62" x2="106.17" y2="120.62" gradientUnits="userSpaceOnUse"><stop offset="0" stop-color="#ffad60"/><stop offset="1" stop-color="#ff6279"/></linearGradient><linearGradient id="linear-gradient-36" x1="107.38" y1="80.91" x2="162.91" y2="80.91" xlink:href="#linear-gradient-12"/><linearGradient id="linear-gradient-37" x1="141.54" y1="70.06" x2="153.89" y2="70.06" xlink:href="#linear-gradient-12"/><linearGradient id="linear-gradient-38" x1="129.88" y1="79.17" x2="142.92" y2="79.17" xlink:href="#linear-gradient-12"/><linearGradient id="linear-gradient-39" x1="116.19" y1="97.85" x2="128.09" y2="97.85" xlink:href="#linear-gradient-12"/><linearGradient id="linear-gradient-40" x1="143.98" y1="60.69" x2="153.69" y2="60.69" xlink:href="#linear-gradient-12"/><linearGradient id="linear-gradient-41" x1="153.93" y1="57.71" x2="161.39" y2="57.71" xlink:href="#linear-gradient-12"/><linearGradient id="linear-gradient-42" x1="125.65" y1="71.91" x2="138.62" y2="71.91" xlink:href="#linear-gradient-12"/><linearGradient id="linear-gradient-43" x1="112.88" y1="84.78" x2="119.35" y2="84.78" xlink:href="#linear-gradient-12"/><linearGradient id="linear-gradient-44" x1="105.99" y1="85.84" x2="161.27" y2="85.84" xlink:href="#linear-gradient-12"/><linearGradient id="linear-gradient-45" x1="113.44" y1="85.59" x2="115.94" y2="85.59" xlink:href="#linear-gradient-12"/><linearGradient id="linear-gradient-46" x1="116.81" y1="83.73" x2="117.59" y2="83.73" xlink:href="#linear-gradient-12"/><linearGradient id="linear-gradient-47" x1="121.47" y1="78.72" x2="125.43" y2="78.72" xlink:href="#linear-gradient-12"/><linearGradient id="linear-gradient-48" x1="126.53" y1="72.67" x2="129.38" y2="72.67" xlink:href="#linear-gradient-12"/><linearGradient id="linear-gradient-49" x1="131.05" y1="70.56" x2="133.37" y2="70.56" xlink:href="#linear-gradient-12"/><linearGradient id="linear-gradient-50" x1="141.04" y1="64.59" x2="143.47" y2="64.59" xlink:href="#linear-gradient-12"/><linearGradient id="linear-gradient-51" x1="144.65" y1="61.89" x2="146.27" y2="61.89" xlink:href="#linear-gradient-12"/><linearGradient id="linear-gradient-52" x1="149.15" y1="59.23" x2="151.57" y2="59.23" xlink:href="#linear-gradient-12"/><linearGradient id="linear-gradient-53" x1="155.88" y1="57.14" x2="158.39" y2="57.14" xlink:href="#linear-gradient-12"/><linearGradient id="linear-gradient-54" x1="114.2" y1="102.84" x2="119.46" y2="102.84" xlink:href="#linear-gradient-12"/><linearGradient id="linear-gradient-55" x1="124.13" y1="89.01" x2="130.36" y2="89.01" xlink:href="#linear-gradient-12"/><linearGradient id="linear-gradient-56" x1="124.94" y1="87.13" x2="130.3" y2="87.13" xlink:href="#linear-gradient-12"/><linearGradient id="linear-gradient-57" x1="138.98" y1="72.76" x2="144.96" y2="72.76" xlink:href="#linear-gradient-12"/><linearGradient id="linear-gradient-58" x1="154.89" y1="62.44" x2="159.25" y2="62.44" xlink:href="#linear-gradient-12"/><linearGradient id="linear-gradient-59" x1="112.77" y1="94" x2="114.6" y2="94" xlink:href="#linear-gradient-12"/><linearGradient id="linear-gradient-60" x1="116.06" y1="89.56" x2="117.53" y2="89.56" xlink:href="#linear-gradient-12"/><linearGradient id="linear-gradient-61" x1="123.53" y1="79.81" x2="124.82" y2="79.81" xlink:href="#linear-gradient-12"/><linearGradient id="linear-gradient-62" x1="92.73" y1="130.94" x2="96.51" y2="130.94" xlink:href="#linear-gradient-10"/><linearGradient id="linear-gradient-63" x1="94.43" y1="127.32" x2="104.53" y2="127.32" xlink:href="#linear-gradient-10"/><linearGradient id="linear-gradient-64" x1="35.05" y1="104.29" x2="50.9" y2="104.29" xlink:href="#linear-gradient-3"/><linearGradient id="linear-gradient-65" x1="10.52" y1="90.11" x2="83.63" y2="90.11" xlink:href="#linear-gradient-3"/><linearGradient id="linear-gradient-66" x1="10.46" y1="118.35" x2="25.44" y2="118.35" xlink:href="#linear-gradient-3"/><linearGradient id="linear-gradient-67" x1="10.46" y1="115.72" x2="25.44" y2="115.72" xlink:href="#linear-gradient-3"/><linearGradient id="linear-gradient-68" x1="10.96" y1="115.76" x2="24.94" y2="115.76" xlink:href="#linear-gradient"/><linearGradient id="linear-gradient-69" x1="11.54" y1="115.66" x2="24.24" y2="115.66" xlink:href="#linear-gradient-3"/><linearGradient id="linear-gradient-70" x1="22.59" y1="106.03" x2="22.98" y2="106.03" xlink:href="#linear-gradient-2"/><linearGradient id="linear-gradient-71" x1="21.3" y1="105.5" x2="22.59" y2="105.5" xlink:href="#linear-gradient"/><linearGradient id="linear-gradient-72" x1="23.75" y1="107.53" x2="25.04" y2="107.53" xlink:href="#linear-gradient"/><linearGradient id="linear-gradient-73" x1="13.05" y1="111.72" x2="14.34" y2="111.72" xlink:href="#linear-gradient"/><linearGradient id="linear-gradient-74" x1="15.5" y1="111.93" x2="16.79" y2="111.93" xlink:href="#linear-gradient"/><linearGradient id="linear-gradient-75" x1="25.01" y1="109.25" x2="25.43" y2="109.25" xlink:href="#linear-gradient"/><linearGradient id="linear-gradient-76" x1="17.95" y1="111.99" x2="25.44" y2="111.99" xlink:href="#linear-gradient"/><linearGradient id="linear-gradient-77" x1="19.59" y1="116.28" x2="25.44" y2="116.28" xlink:href="#linear-gradient"/><linearGradient id="linear-gradient-78" x1="14.34" y1="112.25" x2="14.72" y2="112.25" xlink:href="#linear-gradient-2"/><linearGradient id="linear-gradient-79" x1="16.79" y1="112.7" x2="17.18" y2="112.7" xlink:href="#linear-gradient-2"/><linearGradient id="linear-gradient-80" x1="10.46" y1="99.36" x2="25.44" y2="99.36" xlink:href="#linear-gradient-2"/><linearGradient id="linear-gradient-81" x1="19.59" y1="105.25" x2="25.44" y2="105.25" xlink:href="#linear-gradient-3"/><linearGradient id="linear-gradient-82" x1="19.59" y1="103.64" x2="25.44" y2="103.64" xlink:href="#linear-gradient-3"/><linearGradient id="linear-gradient-83" x1="10.46" y1="90" x2="25.44" y2="90" xlink:href="#linear-gradient-3"/><linearGradient id="linear-gradient-84" x1="11.48" y1="89.53" x2="24.54" y2="89.53" xlink:href="#linear-gradient-2"/><linearGradient id="linear-gradient-85" x1="13.88" y1="88.27" x2="22.14" y2="88.27" xlink:href="#linear-gradient-2"/><linearGradient id="linear-gradient-86" x1="10.46" y1="94.63" x2="25.44" y2="94.63" xlink:href="#linear-gradient-3"/></defs><g class="cls-1"><g id="Object_detection" data-name="Object detection"><path class="cls-2" d="M12.19,101H10.46v14.75a3.17,3.17,0,0,0,1.73,2.54Z"/><polygon class="cls-3" points="12.58 104.38 12.19 104.38 12.19 118.31 12.58 118.08 12.58 104.38"/><polygon class="cls-4" points="143.39 123.62 101.25 147.95 32.94 108.42 75.08 84.09 143.39 123.62"/><path class="cls-5" d="M18,113.72c-4.59,0-8.32,2-8.32,4.43s3.73,4.42,8.32,4.42,8.33-2,8.33-4.42S22.55,113.72,18,113.72Z"/><path class="cls-6" d="M38.85,59.14C34.5,59.14,31,61,31,63.33s3.52,4.19,7.87,4.19,7.88-1.87,7.88-4.19S43.2,59.14,38.85,59.14Z"/><polygon class="cls-7" points="50 66.96 76.13 51.7 121.3 77.79 95.17 93.05 50 66.96"/><polygon class="cls-8" points="75.16 49.36 118.29 74.26 134.27 52.53 91.15 27.63 75.16 49.36"/><polygon class="cls-9" points="76.02 49.17 118.09 73.54 133.41 52.72 91.34 28.36 76.02 49.17"/><polygon class="cls-10" points="52.07 66.8 95.19 91.69 118.38 78.31 75.25 53.41 52.07 66.8"/><polygon class="cls-11" points="52.07 62.75 95.19 87.64 118.38 74.26 75.25 49.36 52.07 62.75"/><polygon class="cls-12" points="54.31 62.92 53.76 62.61 75.33 50.15 116.88 74.15 116.33 74.47 75.33 50.79 54.31 62.92"/><polygon class="cls-13" points="54.31 62.92 75.33 50.79 116.33 74.47 95.31 86.6 54.31 62.92"/><polygon class="cls-14" points="118.38 74.26 118.38 78.31 95.19 91.69 95.19 87.64 118.38 74.26"/><polygon class="cls-14" points="52.07 62.75 52.07 66.8 95.19 91.69 95.19 87.64 52.07 62.75"/><path class="cls-15" d="M78.08,72.81c.52-.55,2.23-.34,2.73.18,2,2,5.6,2.67,5.07,3.82-.31.66-1.49.67-2.08.6a10.43,10.43,0,0,1-2-.53c-.67-.21-1.37-.35-2-.59C78.53,75.83,76.74,74.19,78.08,72.81Z"/><path class="cls-16" d="M88.17,78.67c1.65-1.45,3.55-.64,4.28-.71a12.14,12.14,0,0,0,3.4-.91,25.24,25.24,0,0,1,5.63-2c1.35-.19,3.53-.18,4.35,1.17.44.72,1,2.28-2,4-1.64,1-3.25,2.22-5.13,2.61a10.5,10.5,0,0,1-5-.48c-1.42-.43-3.6-.7-5.08-1.23A1.46,1.46,0,0,1,88.17,78.67Z"/><path class="cls-17" d="M67.89,56.56a15.75,15.75,0,0,1,6.61-3.19c1.72-.21,3.45.58,5,1.27a37.29,37.29,0,0,1,5.1,2.82c.67.45,2.59,1.31,2.18,2.42S84.42,61.22,83.41,61a13.38,13.38,0,0,0-2.67-.5,7.85,7.85,0,0,1-2.65-.22,6.24,6.24,0,0,0-2.94-.57,13.47,13.47,0,0,1-3,.22c-.81-.09-1.62-.26-2.42-.41a10.43,10.43,0,0,1-2.6-.65C66,58.29,67,57.2,67.89,56.56Z"/><polygon class="cls-14" points="134.27 52.53 134.85 55.78 121.01 74.19 118.29 74.26 134.27 52.53"/><polygon class="cls-14" points="91.34 28.36 91.8 30.89 77.95 49.29 76.02 49.17 91.34 28.36"/><polygon class="cls-14" points="133.41 52.72 132.27 54.29 91.8 30.89 91.34 28.36 133.41 52.72"/><polygon class="cls-14" points="77.95 49.29 118.63 72.81 118.09 73.54 76.02 49.17 77.95 49.29"/><polygon class="cls-18" points="71.33 63.89 81.98 70.04 92.53 63.92 81.87 57.77 71.33 63.89"/><polygon class="cls-19" points="72.36 62.15 82.01 67.73 91.56 62.18 81.91 56.61 72.36 62.15"/><polygon class="cls-20" points="74.92 61.53 82.04 65.64 89.09 61.55 81.97 57.44 74.92 61.53"/><polygon class="cls-21" points="82.01 67.73 82.01 69.39 72.36 63.81 72.36 62.15 82.01 67.73"/><polygon class="cls-22" points="91.56 62.18 91.56 63.84 82.01 69.39 82.01 67.73 91.56 62.18"/><path class="cls-23" d="M81.93,59.23c1.95,0,3.54.84,3.54,1.88S83.88,63,81.93,63s-3.55-.85-3.55-1.89S80,59.23,81.93,59.23Z"/><path class="cls-24" d="M82,58.79c1.72,0,3.12.75,3.12,1.66s-1.4,1.66-3.12,1.66-3.11-.74-3.11-1.66S80.24,58.79,82,58.79Z"/><path class="cls-25" d="M81.93,57.59c1.95,0,3.54.84,3.54,1.89s-1.59,1.88-3.54,1.88-3.55-.84-3.55-1.88S80,57.59,81.93,57.59Z"/><path class="cls-26" d="M79.52,55.58a6.06,6.06,0,0,0-1-2.51l1.9.4,1.58.09,1.57-.09,2-.4a5.89,5.89,0,0,0-1.06,2.51c-.08.91.63,2.3.63,3.13h0s0,.07,0,.1c0,.92-1.4,1.66-3.12,1.66s-3.11-.74-3.11-1.66a.81.81,0,0,1,.06-.31A19,19,0,0,0,79.52,55.58Z"/><path class="cls-27" d="M77.65,50.44A4.36,4.36,0,1,0,82,46.09,4.36,4.36,0,0,0,77.65,50.44Z"/><path class="cls-28" d="M81.45,50.18A2.17,2.17,0,1,0,82,46.82,2.43,2.43,0,0,0,81.45,50.18Z"/><path class="cls-29" d="M83,48.8a1,1,0,1,0-.1-1.54A1.13,1.13,0,0,0,83,48.8Z"/><path class="cls-30" d="M31.94,60.91V62.5c0,2.08,3.18,3.78,7.1,3.78s7.1-1.7,7.1-3.78V60.91Z"/><path class="cls-31" d="M39,57.37c-3.92,0-7.1,1.69-7.1,3.78s3.18,3.77,7.1,3.77,7.1-1.69,7.1-3.77S43,57.37,39,57.37Z"/><path class="cls-32" d="M39,58c-2.85,0-5.15,1.22-5.15,2.74s2.3,2.74,5.15,2.74,5.16-1.23,5.16-2.74S41.86,58,39,58Z"/><path class="cls-33" d="M39,58.5c-1.74,0-3.16.76-3.16,1.68S37.3,61.86,39,61.86s3.15-.75,3.15-1.68S40.78,58.5,39,58.5Z"/><path class="cls-34" d="M36.84,57.13v2.61c0,.65,1,1.17,2.2,1.17s2.2-.52,2.2-1.17V57.13Z"/><path class="cls-35" d="M39,57.07c-1.3,0-2.35.56-2.35,1.25s1.05,1.25,2.35,1.25,2.36-.56,2.36-1.25S40.31,57.07,39,57.07Z"/><path class="cls-36" d="M39,56.15c-1.48,0-2.68.63-2.68,1.42S37.56,59,39,59s2.68-.63,2.68-1.42S40.52,56.15,39,56.15Z"/><path class="cls-37" d="M39,55.82c-1.3,0-2.35.56-2.35,1.25s1.05,1.25,2.35,1.25,2.36-.56,2.36-1.25S40.31,55.82,39,55.82Z"/><path class="cls-38" d="M39.33,43.13a4.29,4.29,0,0,0-4.45,4,.15.15,0,0,0,0,.07v.07h0a7.11,7.11,0,0,0,.86,3.6,17.18,17.18,0,0,1,.9,2.85,13.35,13.35,0,0,1,.25,2.73c0,.05,0,.15,0,.18.11.5.88.9,1.84.94s1.83-.33,1.92-.85a1.7,1.7,0,0,0,0-.28,11.6,11.6,0,0,1,.44-2.54,16.65,16.65,0,0,1,1.13-2.76,10.82,10.82,0,0,0,1-2.25,4.16,4.16,0,0,0,.25-1.28A4.3,4.3,0,0,0,39.33,43.13Z"/><path class="cls-39" d="M38.87,46.79a1.84,1.84,0,0,1-2.39.93,2.06,2.06,0,0,1,2-3.47A1.84,1.84,0,0,1,38.87,46.79Z"/><path class="cls-29" d="M37.72,45.74a.84.84,0,0,1-1.13.28,1,1,0,0,1,1.2-1.44A.83.83,0,0,1,37.72,45.74Z"/><polygon class="cls-40" points="141.88 122.85 101.12 146.38 35.05 108.15 75.81 84.61 141.88 122.85"/><polygon class="cls-14" points="78.46 89.75 44.34 109.45 42.16 108.19 76.28 88.5 78.46 89.75"/><polygon class="cls-14" points="82.89 92.31 48.77 112.01 47.59 111.33 81.71 91.63 82.89 92.31"/><polygon class="cls-14" points="85.68 93.92 51.56 113.62 50.38 112.94 84.5 93.24 85.68 93.92"/><polygon class="cls-14" points="88.47 95.53 54.35 115.23 53.17 114.55 87.29 94.85 88.47 95.53"/><polygon class="cls-14" points="79.37 102.65 55.96 116.16 57.14 116.84 80.54 103.33 79.37 102.65"/><polygon class="cls-14" points="97.27 100.61 63.15 120.31 61.97 119.63 96.09 99.93 97.27 100.61"/><polygon class="cls-14" points="100.05 102.22 65.94 121.92 64.76 121.24 98.88 101.54 100.05 102.22"/><polygon class="cls-14" points="94.57 107.25 67.55 122.85 68.72 123.53 95.74 107.93 94.57 107.25"/><polygon class="cls-14" points="108.81 107.28 74.69 126.97 73.52 126.3 107.64 106.6 108.81 107.28"/><polygon class="cls-14" points="111.6 108.89 77.48 128.59 76.31 127.91 110.43 108.21 111.6 108.89"/><polygon class="cls-14" points="108.7 127.25 91.93 136.93 93.1 137.6 109.87 127.92 108.7 127.25"/><polygon class="cls-14" points="106.11 113.92 79.1 129.52 80.27 130.2 107.29 114.6 106.11 113.92"/><path class="cls-41" d="M105.11,115.46c-.14.12-2.17,6-2.66,7.41a5,5,0,0,0-.16,2.78c.06.4.61-.1.87-1s3-9.16,3-9.16Z"/><path class="cls-42" d="M109.9,110.72a1.91,1.91,0,0,0,2.91.08,9.61,9.61,0,0,0,1.15-2.6,13.55,13.55,0,0,0,4-1.29c.88.94,1.15,2.83,4.33,3.54,3.78.84.35-9,.35-9L114,101l-5.48,6Z"/><path class="cls-43" d="M105.24,113s2.5,1,4.13,0,1.86-5.07,1.86-5.07a5,5,0,0,0,2.58-1.36,17.16,17.16,0,0,1,1.45-1.58,7.47,7.47,0,0,0,3.89.71c.35.7,2,4.12,3.65,5.3s4.53-8.87,4.53-8.87l-11-4.31s-6.72,1.46-7.07,1.84-3.47,6.37-3.47,6.37Z"/><path class="cls-44" d="M151.55,113.33c-3.69-1.33-6.82-2.88-8.52-4.37-3.09-2.69-6.94-7.28-10.57-10.29a48,48,0,0,0-5.13-4c-2.76-1.65-4.28-.4-5.49-.71-3.28-.82-4.34.78-5.55,1.9-1.68,0-5.35.37-6.35,1.76-1.52,2.11-6.4,5.23-6.79,8s-.63,5.57-1.3,8.27c-.21.88-.56,1.27.15,1.48a8.35,8.35,0,0,0,1,0,3.61,3.61,0,0,0-.51,2.69c.37,1.21,2.61.58,3.65.73,1.8.25,3.85-.36,6,.44.81.29,3.41,1.07,7.25,2.46,4.07,1.47,9.3.74,13-.32,1.94,1.41,11,5.5,13,6.59C147.44,125.05,151.64,115.14,151.55,113.33Zm-37.68-10.19a10.74,10.74,0,0,0,5.49.68c.62,1.24,2.13,3.18,2.38,4.4.42,2.13-.52,3-2.3,3.85a18.43,18.43,0,0,1-7.42,1c-2.25-.23-3.72-.38-4.86.26a11.22,11.22,0,0,0,1.12-5.62A7.81,7.81,0,0,0,113.87,103.14Z"/><path class="cls-43" d="M143.47,123.61c0,3.78,2.3,5.52,5.14,3.88s5.14-6,5.14-9.82-2.3-5.52-5.14-3.88S143.47,119.82,143.47,123.61Z"/><path class="cls-43" d="M134.88,114.22a6.85,6.85,0,0,0-2.18,2.65,4.27,4.27,0,0,0,0,3.07,12.07,12.07,0,0,1,.7-3.07C133.88,116,134.88,114.22,134.88,114.22Z"/><path class="cls-45" d="M106.14,115.81c-1.8.18-3,.92-3.15,2.15s1.82.75,3,.68A10.88,10.88,0,0,0,106.14,115.81Z"/><path class="cls-46" d="M162.55,60.21c-.25-.22-.4-.4-.73-.69.33,0,.65,0,1,0a1.87,1.87,0,0,0-.14-1.55,4.27,4.27,0,0,0-1.37-.22s.46-.62.66-.86a1.74,1.74,0,0,0-.56-.48c-2.53.09-5,1.5-7.46,3.1.6-1,1.23-2.17,1.77-3.14a4.43,4.43,0,0,0-.67.3,15.33,15.33,0,0,0-1.76,1.65,6.92,6.92,0,0,1,.42-1.62,22.48,22.48,0,0,0-5.21,6.06,7.47,7.47,0,0,1,.58-3.64,18.3,18.3,0,0,0-2.69,2.23A29.58,29.58,0,0,0,144,64.66h0a15.3,15.3,0,0,1,.85-3.84,32.61,32.61,0,0,0-3.13,2,13.35,13.35,0,0,0-2.28,2.61c0-.49,0-1,.05-1.46a3.42,3.42,0,0,0-.85.23A36.8,36.8,0,0,0,135,72.1c-.89-1.39-.53-3.36-.38-4.38a21.74,21.74,0,0,0-3.2,7.91c-.8-.45-1.27-5.11-.88-6.3A24.73,24.73,0,0,0,126,79.63a13.41,13.41,0,0,1,1.23-9.19,15.34,15.34,0,0,0-1.72,1.41c-3.21,3.11-4.66,7.78-6.07,12.08a17.87,17.87,0,0,1,.1-1.94,29.52,29.52,0,0,1,1.91-7.1,6.65,6.65,0,0,0-2.09,1.3c-2,4.59-1.75,9.76-.42,14.49-1.41-1.32-2.63-4.54-2.79-7.21a17.59,17.59,0,0,0-1.43,9.89A11.46,11.46,0,0,1,113,85.3a12.33,12.33,0,0,0-.45,1.43,33.91,33.91,0,0,0-.64,12.66c-1.32-2.53-2-5.8-.52-10.5,0-.12-.15-.16-.21-.06-3,5.28-2,9.37-.73,13.59-.63-.71-2.66-6.8-2.59-9.18,0-.07-.09-.08-.11,0-1.09,4.27.41,8.16,2.81,11.85a15,15,0,0,0,4.74.27,13.22,13.22,0,0,0,5.22-1.77,13.77,13.77,0,0,0,2.68-2.17c-2.74.25-6.3-1.65-7-2.74A31.05,31.05,0,0,0,124,97.53c-1.92.18-4.73-1.29-5.68-1.71a31,31,0,0,0,9.8-1.55l.36-.66c-.7-.08-2.55-.47-3.67-.59a15.08,15.08,0,0,0,7.14-3.76c1.8-1.82,3.21-4,5-5.89.17-.2.37-.4.57-.61-2.29-.49-6.1-1.27-7.56-1.63a29.35,29.35,0,0,1,8.19-1c-1.86-.78-4.42-1.09-6-1.6,2.29-.73,5.94-1.1,8.08-.45a23.94,23.94,0,0,0-4.07-2.46,31.14,31.14,0,0,1,6.87,2l1.14-1c0-.33-.74-1-.86-1.21a13.25,13.25,0,0,0,1.36.5c.72-.63,3.16-2.48,3.81-3l.2-.16c-2.45-.64-5.12-1.84-7-2.48,2.66-.07,5.75-.09,8.16-.27a46,46,0,0,1-5.12-2.49c3.13-.19,6.21.5,9.31.27.72-.73,1.26-1.3,1.45-1.54-.45-.48-.9-1-1.34-1.46A7.79,7.79,0,0,0,160.59,63,6.73,6.73,0,0,0,162.55,60.21Z"/><path class="cls-47" d="M149.7,70c-2.41.18-5.5.2-8.16.27,1.91.64,4.58,1.84,7,2.48a71.55,71.55,0,0,0,5.32-5c-3.1.23-6.18-.46-9.31-.27A46,46,0,0,0,149.7,70Z"/><path class="cls-48" d="M140.12,78c-2.14-.65-5.79-.28-8.08.45,1.61.51,4.17.82,6,1.6a29.35,29.35,0,0,0-8.19,1c1.46.36,5.27,1.14,7.56,1.63,1.64-1.7,4-3.94,5.48-5.22a31.14,31.14,0,0,0-6.87-2A23.94,23.94,0,0,1,140.12,78Z"/><path class="cls-49" d="M118.29,95.82c.95.42,3.76,1.89,5.68,1.71a31.05,31.05,0,0,1-7.78,1.14c.7,1.09,4.26,3,7,2.74a32.31,32.31,0,0,0,4.9-7.14A31,31,0,0,1,118.29,95.82Z"/><path class="cls-50" d="M144,64.66a29.58,29.58,0,0,1,2.38-3.29,18.3,18.3,0,0,1,2.69-2.23,7.47,7.47,0,0,0-.58,3.64,22.48,22.48,0,0,1,5.21-6.06C152,56.64,148,59,145.5,60.43l-.67.39a15.3,15.3,0,0,0-.85,3.84Z"/><path class="cls-51" d="M161.39,56.43a7.24,7.24,0,0,0-4.3-.41,7.5,7.5,0,0,0-1.39.37c-.54,1-1.17,2.11-1.77,3.14C156.4,57.93,158.86,56.52,161.39,56.43Z"/><path class="cls-52" d="M126,79.63a24.73,24.73,0,0,1,4.51-10.3c-.39,1.19.08,5.85.88,6.3a21.74,21.74,0,0,1,3.2-7.91c-.15,1-.51,3,.38,4.38a36.8,36.8,0,0,1,3.66-7.9c-1.91.72-5.52,2.91-7.83,4.13a31.27,31.27,0,0,0-3.57,2.11A13.41,13.41,0,0,0,126,79.63Z"/><path class="cls-53" d="M114.71,93.36a17.59,17.59,0,0,1,1.43-9.89c.16,2.67,1.38,5.89,2.79,7.21-1.33-4.73-1.62-9.9.42-14.49a21.44,21.44,0,0,0-4.64,5.47A28.51,28.51,0,0,0,113,85.3,11.46,11.46,0,0,0,114.71,93.36Z"/><path class="cls-54" d="M161.19,58c-12.16,3.6-22.93,11.5-31.66,20.52a116.06,116.06,0,0,0-12.35,15.26,122.54,122.54,0,0,0-8.1,13.06A65.28,65.28,0,0,0,106,113.7c.37,0,.51-.25,1.17-.4a55,55,0,0,1,2.73-6.2c.76-1.48,1.52-3,2.35-4.4,1.68-2.92,3.47-5.79,5.37-8.58a114.88,114.88,0,0,1,11.85-14.8,86.66,86.66,0,0,1,31.77-21.23A.06.06,0,0,0,161.19,58Z"/><path class="cls-55" d="M115.94,81.12s0,0,0,0c-1.56,2.65-3.19,5.84-2.1,9,0,0,.08,0,.08,0C113.39,86.74,114.58,84.05,115.94,81.12Z"/><path class="cls-56" d="M117.59,87.69c-.38-2.67-.89-5.28-.11-8,0,0-.06-.06-.07,0a13.17,13.17,0,0,0,.06,8C117.49,87.79,117.6,87.76,117.59,87.69Z"/><path class="cls-57" d="M125.42,73c0-.09-.1-.19-.16-.1a22.43,22.43,0,0,0-3.79,11.51.08.08,0,0,0,.15,0A39.21,39.21,0,0,1,125.42,73Z"/><path class="cls-58" d="M129.38,69.75s0-.06,0,0a8.09,8.09,0,0,0-2.8,5.88c0,.06.09,0,.1,0A16.14,16.14,0,0,1,129.38,69.75Z"/><path class="cls-59" d="M133.37,68s0-.08-.06,0a8.49,8.49,0,0,0-2.26,5.19.12.12,0,0,0,.24,0A12.81,12.81,0,0,1,133.37,68Z"/><path class="cls-60" d="M143.47,62.26a0,0,0,0,0,0,0,7.92,7.92,0,0,0-2.4,4.68,0,0,0,0,0,.07,0A15.93,15.93,0,0,1,143.47,62.26Z"/><path class="cls-61" d="M146.15,60.63a4.9,4.9,0,0,0-1.5,2.47.07.07,0,0,0,.13,0,13,13,0,0,1,1.47-2.42C146.31,60.66,146.21,60.57,146.15,60.63Z"/><path class="cls-62" d="M151.5,57.83a5.7,5.7,0,0,0-2.34,2.68c0,.09.09.19.15.1a13,13,0,0,1,2.25-2.71S151.55,57.79,151.5,57.83Z"/><path class="cls-63" d="M158.35,56.43a4.82,4.82,0,0,0-2.45,1.34.05.05,0,0,0,.07.08,8.94,8.94,0,0,1,2.39-1.34S158.39,56.42,158.35,56.43Z"/><path class="cls-64" d="M119.39,102.36a12.22,12.22,0,0,1-2.48.48,13,13,0,0,1-2.49-.21c-.21,0-.32.29-.11.37a6.28,6.28,0,0,0,5.13-.55S119.44,102.35,119.39,102.36Z"/><path class="cls-65" d="M130.22,88.42a12.38,12.38,0,0,1-3,.67,21.66,21.66,0,0,1-3-.13c-.12,0-.19.16-.07.21a7.37,7.37,0,0,0,6.13-.57C130.42,88.54,130.33,88.39,130.22,88.42Z"/><path class="cls-66" d="M130.19,86.4a8.29,8.29,0,0,1-5.11.89c-.13,0-.21.18-.07.23a5.2,5.2,0,0,0,5.26-1C130.34,86.46,130.27,86.36,130.19,86.4Z"/><path class="cls-67" d="M144.86,73.09a56.5,56.5,0,0,1-5.8-.94c-.06,0-.11.08-.05.11,1.56,1,4,1.18,5.84,1.08A.13.13,0,0,0,144.86,73.09Z"/><path class="cls-68" d="M159.08,62.14a29.39,29.39,0,0,1-4.09,0c-.12,0-.14.19,0,.24a7.12,7.12,0,0,0,4.19,0C159.32,62.39,159.25,62.12,159.08,62.14Z"/><path class="cls-69" d="M114.58,95.75c-.31-.55-.77-1-1-1.57a4.27,4.27,0,0,1-.41-2c0-.22-.33-.28-.34,0-.1,1.25.32,3.23,1.61,3.8A.15.15,0,0,0,114.58,95.75Z"/><path class="cls-70" d="M117.52,91.56c-.24-.64-.6-1.21-.78-1.87a18.54,18.54,0,0,1-.42-2.2.13.13,0,0,0-.26,0c.11,1.3.18,3.27,1.25,4.2C117.41,91.8,117.56,91.68,117.52,91.56Z"/><path class="cls-71" d="M124,82.32a14.1,14.1,0,0,1,.07-2.6,15.58,15.58,0,0,1,.77-2.49.06.06,0,0,0-.1-.06,6.28,6.28,0,0,0-1,5.21C123.77,82.54,124,82.46,124,82.32Z"/><path class="cls-72" d="M92.8,127.76c.37.91,1.42,1.56,2.26,2.36a2.67,2.67,0,0,1,1,1.76,2.19,2.19,0,0,1-.15,1c-.16.35-1.83,1.55-2.79.83-.14-.11-.44-.06-.35.06a1.43,1.43,0,0,0,1.23.4,2.68,2.68,0,0,0,2.35-1.21,2.29,2.29,0,0,0-.34-2.38c-.8-1-2.35-1.77-3.07-2.81C92.88,127.7,92.78,127.72,92.8,127.76Z"/><path class="cls-73" d="M104.05,124.22a5.67,5.67,0,0,1,.08,1.64c0,.34,0,.72-.75.93a2,2,0,0,1-1.68-.71,3.33,3.33,0,0,0-.54-.6c-.11-.1-.4-.06-.32.06a4.44,4.44,0,0,1,.91,1.25.71.71,0,0,1-.8,1,2.65,2.65,0,0,1-1.07-.5,2.89,2.89,0,0,0-2.11-2.17c-.36-.07-.42.14-.27.33a7.24,7.24,0,0,0,1.92,1.79,6,6,0,0,1,.13,1.06c.06.72-.21,1-.54.9a2.76,2.76,0,0,1-1.14-.66,3.23,3.23,0,0,0-1-.86c-.16-.09-.41,0-.28.12a8.79,8.79,0,0,1,.76.65,1.11,1.11,0,0,1,.23.95c0,.33.07.86-.95.67-.75-.15-1.59-1.17-1.93-1.55-.15-.17-.44-.16-.26.12.32.47,1.79,2.08,3,1.78.58-.14.52-.83.53-1.14a1.64,1.64,0,0,0,0-.38c.68.64,1.65.9,1.92.16a2.78,2.78,0,0,0,0-1.48,2.73,2.73,0,0,0,1.73.52c.76-.17.7-.8.4-1.42a2.08,2.08,0,0,0,1.49.37c1.33-.27,1-2.21.72-2.86C104.26,124.13,104,124.14,104.05,124.22Zm-5.13,2.37c-.33-.29-1.18-1.09-1.06-1.16s.79.29,1.09.67a3.21,3.21,0,0,1,.36.8Z"/><path class="cls-74" d="M35.05,108.15,50.38,99s2.3,6.43-2.79,9.18S37.15,109.11,35.05,108.15Z"/><path class="cls-75" d="M35.05,108.15s6.2,2,11.17-.58a8.35,8.35,0,0,0,1.94-2c2.22-3.7-1.33-9.13-10.14-6.55s-17.65-.85-20.62-2.64a28.88,28.88,0,0,1-6.88-5.67l36-20.6s14.4,5.57,28.61,5.52c4.64,0,9.1,5.33,8.46,9-.68,3.88-2.76,5.9-6.07,7.91-6.33,3.86-20.79,12.87-31.37,17C40.59,111.62,35.05,108.15,35.05,108.15Z"/><path class="cls-76" d="M10.46,115.72V117c0,2.2,3.36,4,7.49,4s7.49-1.78,7.49-4v-1.28Z"/><path class="cls-77" d="M18,111.74c-4.13,0-7.49,1.78-7.49,4s3.36,4,7.49,4,7.49-1.79,7.49-4S22.09,111.74,18,111.74Z"/><path class="cls-78" d="M18,112.08c-3.86,0-7,1.64-7,3.68s3.13,3.68,7,3.68,7-1.65,7-3.68S21.81,112.08,18,112.08Z"/><path class="cls-79" d="M17.89,118.8c-3.56,0-6.35-1.38-6.35-3.14s2.79-3.14,6.35-3.14,6.35,1.38,6.35,3.14S21.45,118.8,17.89,118.8Zm0-5.93c-3.31,0-6,1.25-6,2.79s2.7,2.8,6,2.8,6-1.26,6-2.8S21.2,112.87,17.89,112.87Z"/><polygon class="cls-80" points="22.98 99.06 22.59 99.06 22.59 113 22.98 112.76 22.98 99.06"/><path class="cls-81" d="M21.3,98v14.51c.4.13.8.27,1.29.47V98Z"/><path class="cls-82" d="M23.75,99.5v14.15A4.08,4.08,0,0,1,25,115.57V99.5Z"/><polygon class="cls-83" points="25.43 101.03 25.04 101.03 25.04 114.96 25.43 114.73 25.43 101.03"/><path class="cls-84" d="M13.05,104.23v14.51a9.31,9.31,0,0,0,1.29.47v-15Z"/><path class="cls-85" d="M15.5,104.2v15.29a10.82,10.82,0,0,0,1.29.17V104.2Z"/><polygon class="cls-86" points="25.01 102.49 25.01 115.57 25.06 116.01 25.43 115.57 25.43 102.49 25.01 102.49"/><path class="cls-87" d="M18,104.23v15.51h0c4.14,0,7.49-1.78,7.49-4v-1.1s-.15.82-1.55,2a4.4,4.4,0,0,1-3.31,1,1.08,1.08,0,0,1-1-1c0-1.4-.06-2.43-.07-3.71,0-2.57,2.48-3.23,3.94-4.07s2,0,2,0v-4.62Z"/><path class="cls-88" d="M23.89,116.63a4.4,4.4,0,0,1-3.31,1,1.08,1.08,0,0,1-1-1v.6a1.08,1.08,0,0,0,1,1,4.4,4.4,0,0,0,3.31-1c1.4-1.15,1.55-2,1.55-2v-1A4.06,4.06,0,0,1,23.89,116.63Z"/><polygon class="cls-89" points="14.72 105.28 14.34 105.28 14.34 119.21 14.72 118.98 14.72 105.28"/><polygon class="cls-90" points="17.18 105.73 16.79 105.73 16.79 119.66 17.18 119.43 17.18 105.73"/><path class="cls-91" d="M25.44,90h-15v14.75c0,2.2,3.36,4,7.49,4a12.46,12.46,0,0,0,1.64-.1v-3c3.24-.39,5.68-1.88,5.84-3.7h0Z"/><path class="cls-92" d="M25.43,101.88c-.16,1.82-2.6,3.31-5.84,3.7v3c3.35-.39,5.85-2,5.85-3.88v-2.88Z"/><path class="cls-93" d="M25.43,101c-.16,1.81-2.6,3.32-5.84,3.7v1.53c3.35-.4,5.85-2,5.85-3.89V101Z"/><path class="cls-94" d="M18,86c-4.13,0-7.49,1.79-7.49,4s3.36,4,7.49,4,7.49-1.78,7.49-4S22.09,86,18,86Z"/><path class="cls-95" d="M18,86.06c-3.6,0-6.53,1.55-6.53,3.47S14.41,93,18,93s6.53-1.56,6.53-3.47S21.61,86.06,18,86.06Z"/><path class="cls-96" d="M18,86.07c-2.28,0-4.13,1-4.13,2.2s1.85,2.19,4.13,2.19,4.13-1,4.13-2.19S20.29,86.07,18,86.07Z"/><path class="cls-97" d="M18,95.63c-3.9,0-7.11-1.59-7.45-3.63h0v1.28c0,2.2,3.36,4,7.49,4s7.49-1.78,7.49-4V92h0C25.07,94,21.86,95.63,18,95.63Z"/><path class="cls-98" d="M21.84,102.06c0,.56.71.6,1.59.09S25,100.79,25,100.23s-.71-.6-1.58-.09S21.84,101.5,21.84,102.06Z"/></g></g></svg>