<svg xmlns="http://www.w3.org/2000/svg" xmlns:xlink="http://www.w3.org/1999/xlink" viewBox="0 0 179.42 144.17"><defs><style>.cls-1{mask:url(#mask);filter:url(#luminosity-noclip-6);}.cls-10,.cls-14,.cls-2,.cls-31,.cls-39,.cls-4,.cls-46,.cls-6,.cls-8{mix-blend-mode:multiply;}.cls-2{fill:url(#linear-gradient);}.cls-3{mask:url(#mask-2);filter:url(#luminosity-noclip-7);}.cls-4{fill:url(#linear-gradient-2);}.cls-5{mask:url(#mask-3);filter:url(#luminosity-noclip-8);}.cls-6{fill:url(#linear-gradient-3);}.cls-7{mask:url(#mask-4);filter:url(#luminosity-noclip-9);}.cls-8{fill:url(#linear-gradient-4);}.cls-9{mask:url(#mask-5);filter:url(#luminosity-noclip-10);}.cls-10{fill:url(#linear-gradient-5);}.cls-11{isolation:isolate;}.cls-12{fill:none;}.cls-13{mask:url(#mask-6);}.cls-14{fill:url(#linear-gradient-6);}.cls-15{fill:url(#linear-gradient-7);}.cls-16{fill:url(#linear-gradient-8);}.cls-17{fill:url(#linear-gradient-9);}.cls-18{fill:url(#linear-gradient-10);}.cls-19{fill:url(#linear-gradient-11);}.cls-20{fill:url(#linear-gradient-12);}.cls-21{mask:url(#mask-7);}.cls-22{fill:url(#linear-gradient-13);}.cls-23{fill:url(#linear-gradient-14);}.cls-24{fill:url(#linear-gradient-15);}.cls-25{fill:url(#linear-gradient-16);}.cls-26{fill:url(#linear-gradient-17);}.cls-27{fill:url(#linear-gradient-18);}.cls-28{fill:url(#linear-gradient-19);}.cls-29{fill:#38c5ea;}.cls-30{mask:url(#mask-8);}.cls-31{fill:url(#linear-gradient-20);}.cls-32{fill:url(#linear-gradient-21);}.cls-33{fill:url(#linear-gradient-22);}.cls-34{fill:url(#linear-gradient-23);}.cls-35{fill:url(#linear-gradient-24);}.cls-36{fill:url(#linear-gradient-25);}.cls-37{fill:url(#linear-gradient-26);}.cls-38{mask:url(#mask-9);}.cls-39{fill:url(#linear-gradient-27);}.cls-40{fill:url(#linear-gradient-28);}.cls-41{fill:url(#linear-gradient-29);}.cls-42{fill:url(#linear-gradient-30);}.cls-43{fill:url(#linear-gradient-31);}.cls-44{fill:url(#linear-gradient-32);}.cls-45{mask:url(#mask-10);}.cls-46{fill:url(#linear-gradient-33);}.cls-47{fill:url(#linear-gradient-34);}.cls-48{fill:url(#linear-gradient-35);}.cls-49{fill:url(#linear-gradient-36);}.cls-50{fill:url(#linear-gradient-37);}.cls-51{fill:url(#linear-gradient-38);}.cls-52{fill:url(#linear-gradient-39);}.cls-53{fill:url(#linear-gradient-40);}.cls-54{fill:url(#linear-gradient-41);}.cls-55{fill:url(#linear-gradient-42);}.cls-56{fill:url(#linear-gradient-43);}.cls-57{fill:url(#linear-gradient-44);}.cls-58{fill:url(#linear-gradient-45);}.cls-59{fill:url(#linear-gradient-46);}.cls-60{fill:url(#linear-gradient-47);}.cls-61{fill:url(#linear-gradient-48);}.cls-62{fill:#f9f9f9;}.cls-63{fill:url(#linear-gradient-49);}.cls-64{fill:url(#linear-gradient-50);}.cls-65{fill:url(#linear-gradient-51);}.cls-66{fill:url(#linear-gradient-52);}.cls-67{fill:url(#linear-gradient-53);}.cls-68{fill:url(#linear-gradient-54);}.cls-69{fill:url(#linear-gradient-55);}.cls-70{fill:url(#linear-gradient-56);}.cls-71{filter:url(#luminosity-noclip-5);}.cls-72{filter:url(#luminosity-noclip-4);}.cls-73{filter:url(#luminosity-noclip-3);}.cls-74{filter:url(#luminosity-noclip-2);}.cls-75{filter:url(#luminosity-noclip);}</style><filter id="luminosity-noclip" x="113.89" y="-15826.37" width="64.32" height="32766" filterUnits="userSpaceOnUse" color-interpolation-filters="sRGB"><feFlood flood-color="#fff" result="bg"/><feBlend in="SourceGraphic" in2="bg"/></filter><mask id="mask" x="113.89" y="-15826.37" width="64.32" height="32766" maskUnits="userSpaceOnUse"><g class="cls-75"/></mask><linearGradient id="linear-gradient" x1="134.93" y1="90.23" x2="155.59" y2="120.98" gradientUnits="userSpaceOnUse"><stop offset="0" stop-color="#fff"/><stop offset="0.13" stop-color="#ddd"/><stop offset="0.74" stop-color="#404040"/><stop offset="1"/></linearGradient><filter id="luminosity-noclip-2" x="81.07" y="-15826.37" width="75.18" height="32766" filterUnits="userSpaceOnUse" color-interpolation-filters="sRGB"><feFlood flood-color="#fff" result="bg"/><feBlend in="SourceGraphic" in2="bg"/></filter><mask id="mask-2" x="81.07" y="-15826.37" width="75.18" height="32766" maskUnits="userSpaceOnUse"><g class="cls-74"/></mask><linearGradient id="linear-gradient-2" x1="140.23" y1="48.85" x2="105.6" y2="96.92" gradientUnits="userSpaceOnUse"><stop offset="0" stop-color="#fff"/><stop offset="1"/></linearGradient><filter id="luminosity-noclip-3" x="2.07" y="-15826.37" width="135.34" height="32766" filterUnits="userSpaceOnUse" color-interpolation-filters="sRGB"><feFlood flood-color="#fff" result="bg"/><feBlend in="SourceGraphic" in2="bg"/></filter><mask id="mask-3" x="2.07" y="-15826.37" width="135.34" height="32766" maskUnits="userSpaceOnUse"><g class="cls-73"/></mask><linearGradient id="linear-gradient-3" x1="39.97" y1="57.66" x2="68.77" y2="118.59" xlink:href="#linear-gradient"/><filter id="luminosity-noclip-4" x="65.99" y="-15826.37" width="37.38" height="32766" filterUnits="userSpaceOnUse" color-interpolation-filters="sRGB"><feFlood flood-color="#fff" result="bg"/><feBlend in="SourceGraphic" in2="bg"/></filter><mask id="mask-4" x="65.99" y="-15826.37" width="37.38" height="32766" maskUnits="userSpaceOnUse"><g class="cls-72"/></mask><linearGradient id="linear-gradient-4" x1="79.26" y1="30.28" x2="89.55" y2="47.87" xlink:href="#linear-gradient"/><filter id="luminosity-noclip-5" x="70.25" y="-15826.37" width="62.55" height="32766" filterUnits="userSpaceOnUse" color-interpolation-filters="sRGB"><feFlood flood-color="#fff" result="bg"/><feBlend in="SourceGraphic" in2="bg"/></filter><mask id="mask-5" x="70.25" y="-15826.37" width="62.55" height="32766" maskUnits="userSpaceOnUse"><g class="cls-71"/></mask><linearGradient id="linear-gradient-5" x1="78.2" y1="95.91" x2="105.72" y2="128.89" xlink:href="#linear-gradient"/><filter id="luminosity-noclip-6" x="113.89" y="87.46" width="64.32" height="45.42" filterUnits="userSpaceOnUse" color-interpolation-filters="sRGB"><feFlood flood-color="#fff" result="bg"/><feBlend in="SourceGraphic" in2="bg"/></filter><mask id="mask-6" x="113.89" y="87.46" width="64.32" height="45.42" maskUnits="userSpaceOnUse"><g class="cls-1"><polygon class="cls-2" points="178.21 102.2 178.21 132.88 147.81 132.88 114.75 111.89 114.7 111.86 113.89 111.35 115.47 110.42 115.48 110.42 134.94 98.97 138.41 96.93 139.22 96.45 142.68 94.41 143.49 93.94 143.5 93.94 146.95 91.9 147.76 91.42 151.23 89.38 152.04 88.91 153.91 87.81 154.43 87.5 154.5 87.46 156.4 88.61 156.46 88.65 158.63 89.97 159.31 90.38 159.31 90.38 178.21 102.2"/></g></mask><linearGradient id="linear-gradient-6" x1="134.93" y1="90.23" x2="155.59" y2="120.98" gradientUnits="userSpaceOnUse"><stop offset="0" stop-color="#abd1ec" stop-opacity="0.7"/><stop offset="0.12" stop-color="#aed3ed" stop-opacity="0.67"/><stop offset="0.3" stop-color="#b7d8ef" stop-opacity="0.57"/><stop offset="0.52" stop-color="#c6e0f2" stop-opacity="0.42"/><stop offset="0.77" stop-color="#daebf6" stop-opacity="0.21"/><stop offset="1" stop-color="#eef6fb" stop-opacity="0"/></linearGradient><linearGradient id="linear-gradient-7" x1="94.23" y1="-38.15" x2="166.83" y2="87.43" gradientUnits="userSpaceOnUse"><stop offset="0.05" stop-color="#14416a"/><stop offset="1" stop-color="#004f98"/></linearGradient><linearGradient id="linear-gradient-8" x1="162.87" y1="103.54" x2="91.03" y2="19.3" gradientUnits="userSpaceOnUse"><stop offset="0" stop-color="#29007a"/><stop offset="1" stop-color="#00bdff"/></linearGradient><linearGradient id="linear-gradient-9" x1="103.55" y1="45.41" x2="116.98" y2="126.94" xlink:href="#linear-gradient-7"/><linearGradient id="linear-gradient-10" x1="90.41" y1="-17.06" x2="154.48" y2="89.05" gradientUnits="userSpaceOnUse"><stop offset="0" stop-color="#abd1ec"/><stop offset="1" stop-color="#abd1ec"/></linearGradient><linearGradient id="linear-gradient-11" x1="97.48" y1="49.45" x2="113.25" y2="92.68" gradientUnits="userSpaceOnUse"><stop offset="0" stop-color="#0984bd"/><stop offset="1" stop-color="#56a5d7"/></linearGradient><linearGradient id="linear-gradient-12" x1="112.84" y1="76.29" x2="215.42" y2="120.21" gradientUnits="userSpaceOnUse"><stop offset="0" stop-color="#abd1ec"/><stop offset="0.57" stop-color="#eef6fb"/></linearGradient><filter id="luminosity-noclip-7" x="81.07" y="57.45" width="75.18" height="42.68" filterUnits="userSpaceOnUse" color-interpolation-filters="sRGB"><feFlood flood-color="#fff" result="bg"/><feBlend in="SourceGraphic" in2="bg"/></filter><mask id="mask-7" x="81.07" y="57.45" width="75.18" height="42.68" maskUnits="userSpaceOnUse"><g class="cls-3"><path class="cls-4" d="M103.45,59.2l-.9-.51L101,57.81h0l-.53-.3h0a.58.58,0,0,0-.14,0,.47.47,0,0,0-.37.06l-1.3.73h0l0,0s0,0-.08.06a.19.19,0,0,0,0,.1s0,0,0,.06a.07.07,0,0,0,.06.06h0v0l.2.11,2.8,1.6a.66.66,0,0,0,.55,0l1.33-.77a.26.26,0,0,0,.13-.16A.18.18,0,0,0,103.45,59.2Zm4.65,2.65-2.57-1.46-.46-.26h0a.61.61,0,0,0-.51,0l-1.33.75c-.16.11-.17.23,0,.31h0l.46.28,2.57,1.45a.59.59,0,0,0,.53,0l1.32-.76C108.21,62.05,108.22,61.92,108.1,61.85Zm4.68,2.66,0,0-.19-.11-1.8-1-.48-.27-.56-.31-.08,0h0a.77.77,0,0,0-.43.05l-1.33.76c-.13.08-.17.2-.1.26l.06,0,.54.33.5.26,2,1.12a.51.51,0,0,0,.53,0l1.34-.76C112.83,64.69,112.87,64.58,112.78,64.51Zm4.61,2.59-1.45-.82-.47-.26-.63-.36-.47-.26a.66.66,0,0,0-.55,0l-1.32.76c-.15.08-.18.21,0,.3h0l.47.26.64.36.45.27,1.44.81a.58.58,0,0,0,.54,0l1.33-.74C117.51,67.33,117.53,67.18,117.39,67.1ZM122,69.75l-2-1.12L119,68a.57.57,0,0,0-.55,0l-.14.08-1.18.67c-.16.09-.17.23,0,.3l3,1.71a.6.6,0,0,0,.54,0l1.32-.76C122.16,70,122.17,69.82,122,69.75Zm4.65,2.63-3-1.72a.56.56,0,0,0-.54,0l-1.33.74c-.15.1-.16.23,0,.3l3,1.73a.56.56,0,0,0,.53,0l1.32-.76C126.8,72.59,126.81,72.46,126.68,72.38ZM131.34,75l-3-1.72a.57.57,0,0,0-.55,0l-1.21.69-.11.07c-.14.07-.16.19-.06.27l0,0,3,1.71a.51.51,0,0,0,.52,0l1.34-.75C131.45,75.23,131.46,75.09,131.34,75ZM136,77.64l-.07,0-.61-.34h0l-1.65-.93-.69-.38a.63.63,0,0,0-.55,0l-.65.37-.66.39c-.18.08-.2.24,0,.31l1,.57,2,1.13a.75.75,0,0,0,.55,0l1.29-.75h0C136.1,77.85,136.11,77.72,136,77.64Zm4.63,2.64-3-1.71a.58.58,0,0,0-.54,0l-.43.25-.89.5c-.16.08-.19.22,0,.31l2.51,1.41.52.3a.66.66,0,0,0,.53,0l1.32-.75C140.74,80.49,140.76,80.35,140.61,80.28Zm4.65,2.62-.8-.46-.31-.17-1.91-1.07a.58.58,0,0,0-.54,0l-1.32.77c-.13.07-.16.16-.1.24l.06,0,3,1.72a.63.63,0,0,0,.52,0l.25-.15,1.08-.61C145.38,83.12,145.41,83,145.26,82.9Zm4.64,2.64-3-1.72a.68.68,0,0,0-.54,0L145,84.6c-.16.11-.18.23,0,.31l3,1.72a.61.61,0,0,0,.54,0l1.32-.72C150,85.76,150.06,85.62,149.9,85.54Zm-24.66,3.93L104.29,77.59l-.35-.18a.56.56,0,0,0-.53,0l-.3.15-2.65,1.52c-.15.08-.16.22,0,.29l21.28,12.07a.64.64,0,0,0,.54,0l2.94-1.67C125.35,89.66,125.36,89.55,125.24,89.47Zm-23-13-.21-.13-1.77-1-.48-.26-.63-.36-.46-.27-.47-.27a.61.61,0,0,0-.54,0l-2.93,1.67c-.15.09-.17.22,0,.31l.48.27.48.27.38.22.73.4.46.25,1.5.85a.53.53,0,0,0,.53,0l1.44-.83,1.49-.84C102.38,76.65,102.4,76.53,102.26,76.45Zm29,16.43L127,90.44a.56.56,0,0,0-.53,0l-3,1.68c-.14.09-.15.23,0,.3L126,93.92h0l1.68,1a.68.68,0,0,0,.54,0l.83-.48h0l2.1-1.2C131.36,93.08,131.37,93,131.24,92.88Zm4.6,2.6-2-1.12h0l-1-.58a.56.56,0,0,0-.53,0l-1.21.68h0l-1.72,1c-.16.11-.18.23,0,.31l3,1.71a.61.61,0,0,0,.54,0l2.93-1.67C136,95.69,136,95.57,135.84,95.48Zm4.59,2.59-2-1.14-1-.57a.55.55,0,0,0-.53,0l-3,1.67c-.15.1-.17.23,0,.31l1.06.6,2,1.11a.58.58,0,0,0,.53,0l2.95-1.66C140.54,98.29,140.55,98.16,140.43,98.07ZM95.38,67.63a.09.09,0,0,0,0,0l-1.14-.67-.47-.26-.64-.36L92.61,66,89,64h0a.6.6,0,0,0-.49,0h0l-2.92,1.68c-.16.08-.18.2-.05.27a0,0,0,0,0,0,0h0l3.6,2h0l.47.26.62.36.47.27,1.13.64a.62.62,0,0,0,.53,0l3-1.69a.23.23,0,0,0,.11-.13h0A.11.11,0,0,0,95.38,67.63Zm-7.69.56-3-1.71h0a.57.57,0,0,0-.52,0l-2.92,1.67c-.15.1-.19.23-.06.31v0l3,1.69a.7.7,0,0,0,.55,0l2.93-1.67C87.81,68.41,87.85,68.27,87.69,68.19Zm4.59,2.59-2.39-1.37-.25-.13h0l-.22-.12-.17-.1a.6.6,0,0,0-.52,0l-3,1.68c-.16.08-.17.23,0,.31l.18.1.46.26,2.38,1.34a.6.6,0,0,0,.54,0l1.74-1h0l1.2-.68C92.39,71,92.39,70.85,92.28,70.78Zm4.49,2.55-1.68-1-.48-.28L94,71.76l-.22-.14a.62.62,0,0,0-.56,0l-.07,0-1.55.89h0l-1.3.74-.07.06a0,0,0,0,0,0,0,.14.14,0,0,0,.07.23l.23.13.63.36.48.27,1.67.94a.57.57,0,0,0,.48,0h0l0,0,2.93-1.69C96.9,73.55,96.9,73.42,96.77,73.33Zm3.14-3.15-.52-.3-.46-.26-.64-.36L97.81,69l-.93-.51a.58.58,0,0,0-.53,0l-.51.3-2.43,1.39c-.16.08-.17.23,0,.3l.94.53.48.29.63.35.46.27.5.27a.58.58,0,0,0,.53,0L99,71h0l.88-.5C100,70.4,100,70.25,99.91,70.18Zm4.66,2.68a.18.18,0,0,0-.1-.09l-.35-.2-.62-.36-.47-.27-1.57-.9a.67.67,0,0,0-.55,0l-.83.48L98,72.75c-.17.1-.19.22,0,.32l1.59.89.45.26.67.37.31.18a.38.38,0,0,0,.19,0,.81.81,0,0,0,.35-.07l2.2-1.26.72-.41C104.56,73,104.59,72.93,104.57,72.86Zm4.48,2.5-3-1.71a.62.62,0,0,0-.53,0l-.71.41-2.23,1.27c-.16.09-.17.22,0,.29l1.2.68,1.83,1a.58.58,0,0,0,.54,0l1.76-1,.54-.31h0l.64-.36C109.17,75.57,109.19,75.44,109.05,75.36ZM113.61,78l-.62-.36-2.25-1.27-.15-.08a.59.59,0,0,0-.53,0l-.1,0-.5.28-1.73,1-.6.35c-.16.08-.18.22,0,.3l3,1.71a.53.53,0,0,0,.53,0l2.41-1.37.52-.3C113.73,78.16,113.75,78,113.61,78Zm4.58,2.6-3-1.73a.57.57,0,0,0-.52,0l-.5.28-2.46,1.39c-.15.09-.16.21,0,.31l3,1.7a.59.59,0,0,0,.53,0l2.52-1.43h0l.43-.24C118.31,80.74,118.33,80.62,118.19,80.55Zm4.56,2.58-3-1.72a.66.66,0,0,0-.55,0l-.4.23-2.53,1.45c-.17.1-.18.21,0,.3l3,1.72a.64.64,0,0,0,.54,0l2.6-1.5h0l.33-.19C122.88,83.33,122.91,83.22,122.75,83.13Zm4.58,2.59-.84-.47h0L124.33,84h0a.56.56,0,0,0-.34,0l-.15,0-.32.18h0l-2.64,1.5c-.15.08-.16.23,0,.3l3,1.71a.53.53,0,0,0,.54,0L127.3,86C127.46,85.94,127.48,85.79,127.33,85.72Zm4.57,2.6-3-1.73a.53.53,0,0,0-.53,0l-3,1.67c-.16.09-.17.22,0,.31l3,1.71a.69.69,0,0,0,.54,0l2.93-1.68C132,88.52,132.05,88.39,131.9,88.32Zm4.57,2.59-3-1.73a.58.58,0,0,0-.53,0l-3,1.68c-.14.09-.16.21,0,.29l3,1.72a.62.62,0,0,0,.53,0l2.95-1.69C136.6,91.11,136.62,91,136.47,90.91Zm8.29,4.68-.61-.35-1.47-.83L139,92.3h0l-.94-.53a.69.69,0,0,0-.56,0l-2.92,1.67c-.16.1-.19.23,0,.31l.64.36h0l4.08,2.32,2,1.15a.54.54,0,0,0,.52,0l2.38-1.35.56-.34C144.88,95.81,144.89,95.66,144.76,95.59ZM96.39,63.24l-.7-.39h0l-2.33-1.3h0s0,0-.06,0a.64.64,0,0,0-.45.05l-2.93,1.67c-.15.1-.19.22-.07.28a0,0,0,0,1,0,0h0l3,1.72a.63.63,0,0,0,.55,0l2-1.16.91-.52C96.5,63.46,96.52,63.33,96.39,63.24Zm4.55,2.59-.5-.29-1.93-1.1L98,64.18l-.13-.07a.53.53,0,0,0-.54,0l-2.1,1.2-.83.48c-.17.08-.18.21,0,.3l.13.07.46.27.25.14h0l2.16,1.23a.7.7,0,0,0,.55,0l2.27-1.3.67-.37C101.06,66,101.06,65.9,100.94,65.83Zm4.57,2.58-1.81-1-.47-.26-.62-.36-.14-.08a.66.66,0,0,0-.53,0l-1,.56L99,68.4c-.17.1-.18.22,0,.29l.15.08.62.38.5.25,1.75,1a.62.62,0,0,0,.53,0l2-1.11,1-.58C105.62,68.62,105.64,68.5,105.51,68.41ZM110.09,71l-1.17-.66-.47-.27-.63-.36-.47-.26-.29-.16a.68.68,0,0,0-.54,0l-1,.58L103.58,71c-.16.09-.17.23,0,.3l.3.17.5.27.63.36.45.28,1.14.63a.53.53,0,0,0,.53,0L109,71.9l1-.6C110.2,71.22,110.21,71.08,110.09,71Zm4.57,2.6-3-1.71a.5.5,0,0,0-.54,0l-1,.59-1.89,1.08c-.18.09-.19.25,0,.31l3,1.71a.69.69,0,0,0,.53,0l1.88-1.07,1.08-.61C114.76,73.81,114.79,73.67,114.66,73.6Zm4.64,2.68a.19.19,0,0,0-.09-.09l-.21-.12-2.79-1.61a.53.53,0,0,0-.19,0,.66.66,0,0,0-.36.08l-1.07.61-1.85,1.07c-.09,0-.14.1-.14.14s0,.11.1.16l2,1.11,1,.6a.68.68,0,0,0,.54,0l1-.59.82-.47,1.11-.64a.24.24,0,0,0,.08-.06.13.13,0,0,0,0-.1A.06.06,0,0,0,119.3,76.28Zm4.5,2.49-2.09-1.18-.95-.53a.63.63,0,0,0-.52,0l-.91.51-2,1.17c-.16.1-.17.24,0,.32l3,1.7a.58.58,0,0,0,.53,0l3-1.69C123.91,79,123.93,78.86,123.8,78.77Zm4.57,2.6-3-1.71a.55.55,0,0,0-.54,0l-.52.3h0l-1,.55-1.45.82c-.16.09-.18.24,0,.32l1.5.84.75.42.76.43a.6.6,0,0,0,.54,0l2.93-1.67C128.49,81.59,128.5,81.44,128.37,81.37ZM133,84,131,82.87h0l-1.1-.62a.53.53,0,0,0-.53,0L126.44,84c-.15.08-.17.23,0,.3l1.3.74h0l1.73,1a.63.63,0,0,0,.52,0l3-1.68C133.05,84.18,133.07,84,133,84Zm4.55,2.58-3-1.71a.64.64,0,0,0-.54,0L131,86.52c-.17.11-.19.25,0,.33l3,1.69a.55.55,0,0,0,.54,0l2.92-1.67C137.63,86.77,137.65,86.63,137.5,86.54Zm4.58,2.59-1.36-.76h0l-1.66-.94a.53.53,0,0,0-.53,0l-2.95,1.67c-.15.1-.17.24-.05.33l3,1.69a.56.56,0,0,0,.53,0l1.17-.66,1.77-1C142.21,89.36,142.22,89.22,142.08,89.13Zm7,4L147,91.9l-2.8-1.58-.56-.32a.62.62,0,0,0-.53,0l-2.94,1.68c-.16.08-.17.22,0,.29l3.41,1.94h0l.66.36,1.43.81a.63.63,0,0,0,.55,0l2.92-1.67C149.22,93.34,149.25,93.19,149.1,93.11ZM103.17,62.16l-.36-.2-.47-.28-.52-.29-.11-.07-.47-.27-1.27-.7-2.28-1.28h0v0l-.08,0a.49.49,0,0,0-.42.06l-.33.19h0l-2.6,1.48c-.11.07-.17.18-.08.27l0,0h0s0,0,0,0l1.7,1,1.84,1.05.48.26.63.36.47.25.35.21a.65.65,0,0,0,.54,0L102.13,63l.06,0,1-.54C103.29,62.37,103.32,62.25,103.17,62.16Zm4.55,2.57-.18-.08-.63-.36-.48-.28-1.73-1a.61.61,0,0,0-.54,0l-1,.57-.27.15-1.67.95c-.16.08-.18.23,0,.3L103,66l.47.27.63.35.16.09a.55.55,0,0,0,.54,0l.65-.37,1.24-.71,1-.59C107.85,65,107.86,64.8,107.72,64.73Zm4.58,2.6-.18-.11-.47-.25-2.38-1.36a.55.55,0,0,0-.54,0l-1,.58-1.5.86-.4.23c-.17.08-.18.22,0,.3l2.4,1.36.47.26.08.05.07,0a.64.64,0,0,0,.54,0l1.87-1.06,1.06-.61C112.41,67.54,112.43,67.4,112.3,67.33Zm4.56,2.6-3-1.73a.61.61,0,0,0-.54,0l-1.06.61-1.87,1.08c-.16.08-.19.2,0,.29l3,1.71a.7.7,0,0,0,.55,0l1.82-1.05,1.1-.63C117,70.12,117,70,116.86,69.93Zm4.58,2.57-.73-.41-2.3-1.3a.62.62,0,0,0-.53,0l-1.11.63-1.83,1c-.16.1-.18.23,0,.3l3,1.72a.56.56,0,0,0,.53,0l3-1.66C121.55,72.72,121.56,72.59,121.44,72.5ZM126,75.1h0l-3-1.71a.59.59,0,0,0-.53,0l-2.94,1.67c-.16.08-.18.22,0,.3l1.64.93,1.37.77a.55.55,0,0,0,.54,0l1.31-.75.15-.08h0l.22-.12h0l.56-.32h0l.34-.19h0l.17-.09.15-.09C126.11,75.31,126.14,75.17,126,75.1Zm4.58,2.6-.17-.11-2.23-1.27-.63-.34a.58.58,0,0,0-.54,0l-.58.32-.74.43h0l-.53.3h0l-.89.5h0l0,0-.13.1c-.16.08-.18.21,0,.28l.11.06.54.32,1.41.8,1,.54a.6.6,0,0,0,.52,0h0l1.32-.76,1.62-.92C130.7,77.9,130.71,77.77,130.59,77.7Zm4.56,2.58-3-1.71a.58.58,0,0,0-.54,0l-1.67,1-.94.53-.31.18c-.18.09-.2.23,0,.31l2.87,1.64.13.07a.58.58,0,0,0,.54,0l1.69-1,1.26-.71C135.27,80.49,135.3,80.35,135.15,80.28Zm4.57,2.59-.67-.38h0l-.83-.47-1.51-.86a.59.59,0,0,0-.53,0l-.72.4-2.23,1.27c-.15.09-.18.21,0,.29l3,1.73a.61.61,0,0,0,.54,0l2.72-1.54.22-.12C139.84,83.07,139.85,83,139.72,82.87Zm4.58,2.6-.15-.1-2.88-1.62a.66.66,0,0,0-.53,0l-.85.49h0l-2.09,1.19c-.15.09-.16.22,0,.29l2.94,1.68.08,0a.54.54,0,0,0,.52,0l2.85-1.63.11,0C144.41,85.67,144.42,85.54,144.3,85.47Zm4.57,2.58-3-1.71a.62.62,0,0,0-.56,0l-1.15.67-1.77,1c-.16.08-.2.23,0,.3l1.81,1,1.21.69a.58.58,0,0,0,.53,0l2.93-1.68C149,88.27,149,88.12,148.87,88.05Zm4.57,2.59-2.21-1.26-.81-.46a.58.58,0,0,0-.54,0L147,90.62c-.17.1-.19.22,0,.32l.86.48,2.16,1.22a.61.61,0,0,0,.54,0L153.39,91C153.56,90.84,153.57,90.72,153.44,90.64Zm2.72-1.56-2.25-1.28-2.37-1.35a.66.66,0,0,0-.55,0l-1.33.76c-.16.09-.18.22,0,.31l2.4,1.36,2.23,1.27a.59.59,0,0,0,.53,0l1.32-.75C156.28,89.29,156.3,89.16,156.16,89.08Z"/></g></mask><linearGradient id="linear-gradient-13" x1="95.64" y1="53.99" x2="138.61" y2="100.28" xlink:href="#linear-gradient-12"/><linearGradient id="linear-gradient-14" x1="93.62" y1="77.52" x2="124.32" y2="138.62" xlink:href="#linear-gradient-12"/><linearGradient id="linear-gradient-15" x1="112.57" y1="50.37" x2="148.46" y2="50.37" xlink:href="#linear-gradient-11"/><linearGradient id="linear-gradient-16" x1="118.22" y1="69.85" x2="139.03" y2="36.87" xlink:href="#linear-gradient-7"/><linearGradient id="linear-gradient-17" x1="123.87" y1="77.95" x2="123.61" y2="75.12" gradientUnits="userSpaceOnUse"><stop offset="0.12" stop-color="#f4f4f4"/><stop offset="0.29" stop-color="#f2f1f3"/><stop offset="0.43" stop-color="#eae6ef"/><stop offset="0.56" stop-color="#ddd5e8"/><stop offset="0.69" stop-color="#cbbcdf"/><stop offset="0.81" stop-color="#b49dd3"/><stop offset="0.92" stop-color="#9977c4"/><stop offset="1" stop-color="#8359b9"/></linearGradient><linearGradient id="linear-gradient-18" x1="115.85" y1="76.28" x2="143.13" y2="87.54" xlink:href="#linear-gradient-12"/><linearGradient id="linear-gradient-19" x1="128.46" y1="47.53" x2="96.58" y2="91.68" xlink:href="#linear-gradient-12"/><filter id="luminosity-noclip-8" x="2.07" y="80.35" width="135.34" height="52.53" filterUnits="userSpaceOnUse" color-interpolation-filters="sRGB"><feFlood flood-color="#fff" result="bg"/><feBlend in="SourceGraphic" in2="bg"/></filter><mask id="mask-8" x="2.07" y="80.35" width="135.34" height="52.53" maskUnits="userSpaceOnUse"><g class="cls-5"><path class="cls-6" d="M137.41,132.88H41.31L3.17,109.63c-1.38-.79-1.46-2-.27-2.9.25-.17,0,0,6-3.47h0l37-21.34A16.15,16.15,0,0,1,48,80.75c3.52-1.36,6,1.17,6.66,1.44h0l8,4.87h0l6.51,4,16,10.25Z"/></g></mask><linearGradient id="linear-gradient-20" x1="39.97" y1="57.66" x2="68.77" y2="118.59" xlink:href="#linear-gradient-6"/><linearGradient id="linear-gradient-21" x1="42.22" y1="71.64" x2="73.54" y2="71.64" xlink:href="#linear-gradient-7"/><linearGradient id="linear-gradient-22" x1="-10.44" y1="75.74" x2="55.68" y2="86.93" xlink:href="#linear-gradient-11"/><linearGradient id="linear-gradient-23" x1="0.81" y1="95.71" x2="31.57" y2="95.71" xlink:href="#linear-gradient-7"/><linearGradient id="linear-gradient-24" x1="70.27" y1="52.88" x2="43.49" y2="89.43" xlink:href="#linear-gradient-11"/><linearGradient id="linear-gradient-25" x1="53.14" y1="63.17" x2="9.66" y2="113.9" xlink:href="#linear-gradient-12"/><linearGradient id="linear-gradient-26" x1="20.7" y1="80.67" x2="11.62" y2="108.36" xlink:href="#linear-gradient-11"/><filter id="luminosity-noclip-9" x="65.99" y="29.78" width="37.38" height="20.6" filterUnits="userSpaceOnUse" color-interpolation-filters="sRGB"><feFlood flood-color="#fff" result="bg"/><feBlend in="SourceGraphic" in2="bg"/></filter><mask id="mask-9" x="65.99" y="29.78" width="37.38" height="20.6" maskUnits="userSpaceOnUse"><g class="cls-7"><polygon class="cls-8" points="66 36.8 88.2 50.38 103.37 42.3 82.12 29.78 78.34 36.41 66 36.8"/></g></mask><linearGradient id="linear-gradient-27" x1="79.26" y1="30.28" x2="89.55" y2="47.87" xlink:href="#linear-gradient-6"/><linearGradient id="linear-gradient-28" x1="57.17" y1="24.27" x2="79.55" y2="33.93" xlink:href="#linear-gradient-11"/><linearGradient id="linear-gradient-29" x1="56.87" y1="26.63" x2="87.92" y2="28.96" gradientUnits="userSpaceOnUse"><stop offset="0" stop-color="#9007fb"/><stop offset="1" stop-color="#38048f"/></linearGradient><linearGradient id="linear-gradient-30" x1="60.51" y1="31.26" x2="88.2" y2="31.26" gradientUnits="userSpaceOnUse"><stop offset="0.43" stop-color="#eef6fb"/><stop offset="1" stop-color="#abd1ec"/></linearGradient><linearGradient id="linear-gradient-31" x1="61.59" y1="23.26" x2="87.16" y2="23.26" xlink:href="#linear-gradient-30"/><linearGradient id="linear-gradient-32" x1="63.46" y1="20.89" x2="155.58" y2="68.13" xlink:href="#linear-gradient-12"/><filter id="luminosity-noclip-10" x="70.25" y="106.18" width="62.55" height="26.7" filterUnits="userSpaceOnUse" color-interpolation-filters="sRGB"><feFlood flood-color="#fff" result="bg"/><feBlend in="SourceGraphic" in2="bg"/></filter><mask id="mask-10" x="70.25" y="106.18" width="62.55" height="26.7" maskUnits="userSpaceOnUse"><g class="cls-9"><polygon class="cls-10" points="132.8 132.88 101.3 132.88 70.25 114.84 86.86 106.18 132.8 132.88"/></g></mask><linearGradient id="linear-gradient-33" x1="78.2" y1="95.91" x2="105.72" y2="128.89" xlink:href="#linear-gradient-6"/><linearGradient id="linear-gradient-34" x1="-2368.27" y1="-1.7" x2="-2336.83" y2="25.08" gradientTransform="translate(2407.03 78.63)" gradientUnits="userSpaceOnUse"><stop offset="0" stop-color="#f57454"/><stop offset="1" stop-color="#f7947c"/></linearGradient><linearGradient id="linear-gradient-35" x1="-2362.42" y1="2.61" x2="-2332.45" y2="28.15" gradientTransform="translate(2407.03 78.63)" gradientUnits="userSpaceOnUse"><stop offset="0.2" stop-color="#f4c4da"/><stop offset="1" stop-color="#ab9bf4"/></linearGradient><linearGradient id="linear-gradient-36" x1="73.4" y1="94.47" x2="74.92" y2="114.68" gradientUnits="userSpaceOnUse"><stop offset="0" stop-color="#fab371"/><stop offset="1" stop-color="#fcd5b0"/></linearGradient><linearGradient id="linear-gradient-37" x1="8399.24" y1="104.08" x2="8389.9" y2="110.81" gradientTransform="matrix(-1, 0, 0, 1, 8478.45, 0)" xlink:href="#linear-gradient-34"/><linearGradient id="linear-gradient-38" x1="8408.45" y1="96.36" x2="8398.07" y2="105.53" gradientTransform="matrix(-1, 0, 0, 1, 8478.45, 0)" xlink:href="#linear-gradient-34"/><linearGradient id="linear-gradient-39" x1="8415.9" y1="98.02" x2="8391.18" y2="110.12" gradientTransform="matrix(-1, 0, 0, 1, 8478.45, 0)" xlink:href="#linear-gradient-34"/><linearGradient id="linear-gradient-40" x1="8407.4" y1="108.07" x2="8398.23" y2="111.12" gradientTransform="matrix(-1, 0, 0, 1, 8478.45, 0)" xlink:href="#linear-gradient-34"/><linearGradient id="linear-gradient-41" x1="8421.24" y1="98.74" x2="8393.22" y2="122.05" gradientTransform="matrix(-1, 0, 0, 1, 8478.45, 0)" xlink:href="#linear-gradient-34"/><linearGradient id="linear-gradient-42" x1="10549.99" y1="68.31" x2="10539.37" y2="43.03" gradientTransform="matrix(-1, 0, 0, 1, 10550.2, 0)" gradientUnits="userSpaceOnUse"><stop offset="0" stop-color="#06fcfc"/><stop offset="0.05" stop-color="#0ce8f5"/><stop offset="0.2" stop-color="#1dace1"/><stop offset="0.35" stop-color="#2d77cf"/><stop offset="0.49" stop-color="#394dc1"/><stop offset="0.63" stop-color="#432cb6"/><stop offset="0.77" stop-color="#4914ad"/><stop offset="0.89" stop-color="#4e06a9"/><stop offset="1" stop-color="#4f01a7"/></linearGradient><linearGradient id="linear-gradient-43" x1="10554.13" y1="52.56" x2="10505.37" y2="17.07" xlink:href="#linear-gradient-42"/><linearGradient id="linear-gradient-44" x1="30.48" y1="45.24" x2="46.43" y2="24.03" gradientUnits="userSpaceOnUse"><stop offset="0" stop-color="#f4f4f4"/><stop offset="0.23" stop-color="#b1d4e4"/><stop offset="0.51" stop-color="#6ab2d4"/><stop offset="0.74" stop-color="#3599c7"/><stop offset="0.91" stop-color="#158ac0"/><stop offset="1" stop-color="#0984bd"/></linearGradient><linearGradient id="linear-gradient-45" x1="25.11" y1="44.71" x2="34.15" y2="22.19" xlink:href="#linear-gradient-44"/><linearGradient id="linear-gradient-46" x1="9.11" y1="45.05" x2="-1.08" y2="73.33" xlink:href="#linear-gradient-44"/><linearGradient id="linear-gradient-47" x1="6.87" y1="52.6" x2="24.3" y2="23.5" xlink:href="#linear-gradient-44"/><linearGradient id="linear-gradient-48" x1="47.85" y1="21.56" x2="1.7" y2="68.86" xlink:href="#linear-gradient-12"/><linearGradient id="linear-gradient-49" x1="39.05" y1="75.53" x2="56.41" y2="75.53" xlink:href="#linear-gradient-11"/><linearGradient id="linear-gradient-50" x1="33.87" y1="78.28" x2="53" y2="78.28" xlink:href="#linear-gradient-11"/><linearGradient id="linear-gradient-51" x1="30.09" y1="80.72" x2="48.36" y2="80.72" xlink:href="#linear-gradient-11"/><linearGradient id="linear-gradient-52" x1="23.59" y1="83.68" x2="44.3" y2="83.68" xlink:href="#linear-gradient-11"/><linearGradient id="linear-gradient-53" x1="19.33" y1="84.64" x2="26.56" y2="84.64" xlink:href="#linear-gradient-36"/><linearGradient id="linear-gradient-54" x1="28.93" y1="90.43" x2="38.01" y2="90.43" gradientTransform="matrix(1, 0, 0, 1, 0, 0)" xlink:href="#linear-gradient-34"/><linearGradient id="linear-gradient-55" x1="31.28" y1="90.6" x2="36.1" y2="90.6" gradientTransform="matrix(1, 0, 0, 1, 0, 0)" xlink:href="#linear-gradient-34"/><linearGradient id="linear-gradient-56" x1="31.69" y1="90.11" x2="35.25" y2="90.11" gradientTransform="matrix(1, 0, 0, 1, 0, 0)" xlink:href="#linear-gradient-34"/></defs><g class="cls-11"><g id="OCR_hero" data-name="OCR hero"><line class="cls-12" x1="77.71" y1="37.45" x2="77.04" y2="36.79"/><g class="cls-13"><polygon class="cls-14" points="178.21 102.2 178.21 132.88 147.81 132.88 114.75 111.89 114.7 111.86 113.89 111.35 115.47 110.42 115.48 110.42 134.94 98.97 138.41 96.93 139.22 96.45 142.68 94.41 143.49 93.94 143.5 93.94 146.95 91.9 147.76 91.42 151.23 89.38 152.04 88.91 153.91 87.81 154.43 87.5 154.5 87.46 156.4 88.61 156.46 88.65 158.63 89.97 159.31 90.38 159.31 90.38 178.21 102.2"/></g><path class="cls-15" d="M162.19,85.2a2.3,2.3,0,0,1-1.12,2.31l-1.77,1-1.7-2.3L102.68,11.89l-.82-1.12,1.76-1.06a1,1,0,0,1,.18-.08h0a1.9,1.9,0,0,1,1.66.22l54.42,30.84a5.23,5.23,0,0,1,2.24,4.2Z"/><path class="cls-16" d="M157.6,86.26,105,56.44a5.28,5.28,0,0,1-2.24-4.2l-.06-40.31v0Z"/><path class="cls-17" d="M60.8,78.89v1.88a1.07,1.07,0,0,0,.64.91l56,31.74a4.12,4.12,0,0,0,3.69-.16L158.4,92a1.49,1.49,0,0,0,.91-1.19V88.93l-1,.78L102.66,58.16a4.21,4.21,0,0,0-3.7.16L61.7,79.58c-.17.1-.11-.43-.23-.31Z"/><path class="cls-18" d="M101.6,11a1.5,1.5,0,0,1,.25-.19l.18-.09h0a1.92,1.92,0,0,1,1.67.23l54.42,30.84a5.28,5.28,0,0,1,2.24,4.2l.06,40.32a2.3,2.3,0,0,1-1.13,2.3,1.89,1.89,0,0,1-1.66-.22L103.22,57.5A5.23,5.23,0,0,1,101,53.3L100.92,13A2.71,2.71,0,0,1,101.6,11Z"/><path class="cls-19" d="M102.66,56.28l56,31.74a1.07,1.07,0,0,1,.64.91,1.47,1.47,0,0,1-.9,1.19l-37.26,21.26a4.14,4.14,0,0,1-3.7.16l-56-31.74a1.07,1.07,0,0,1-.64-.91,1.48,1.48,0,0,1,.9-1.19L99,56.44A4.15,4.15,0,0,1,102.66,56.28Z"/><path class="cls-20" d="M103.45,59.2l-.9-.51L101,57.81h0l-.53-.3h0a.58.58,0,0,0-.14,0,.47.47,0,0,0-.37.06l-1.3.73h0l0,0s0,0-.08.06a.19.19,0,0,0,0,.1s0,0,0,.06a.07.07,0,0,0,.06.06h0v0l.2.11,2.8,1.6a.66.66,0,0,0,.55,0l1.33-.77a.26.26,0,0,0,.13-.16A.18.18,0,0,0,103.45,59.2Zm4.65,2.65-2.57-1.46-.46-.26h0a.61.61,0,0,0-.51,0l-1.33.75c-.16.11-.17.23,0,.31h0l.46.28,2.57,1.45a.59.59,0,0,0,.53,0l1.32-.76C108.21,62.05,108.22,61.92,108.1,61.85Zm4.68,2.66,0,0-.19-.11-1.8-1-.48-.27-.56-.31-.08,0h0a.77.77,0,0,0-.43.05l-1.33.76c-.13.08-.17.2-.1.26l.06,0,.54.33.5.26,2,1.12a.51.51,0,0,0,.53,0l1.34-.76C112.83,64.69,112.87,64.58,112.78,64.51Zm4.61,2.59-1.45-.82-.47-.26-.63-.36-.47-.26a.66.66,0,0,0-.55,0l-1.32.76c-.15.08-.18.21,0,.3h0l.47.26.64.36.45.27,1.44.81a.58.58,0,0,0,.54,0l1.33-.74C117.51,67.33,117.53,67.18,117.39,67.1ZM122,69.75l-2-1.12L119,68a.57.57,0,0,0-.55,0l-.14.08-1.18.67c-.16.09-.17.23,0,.3l3,1.71a.6.6,0,0,0,.54,0l1.32-.76C122.16,70,122.17,69.82,122,69.75Zm4.65,2.63-3-1.72a.56.56,0,0,0-.54,0l-1.33.74c-.15.1-.16.23,0,.3l3,1.73a.56.56,0,0,0,.53,0l1.32-.76C126.8,72.59,126.81,72.46,126.68,72.38ZM131.34,75l-3-1.72a.57.57,0,0,0-.55,0l-1.21.69-.11.07c-.14.07-.16.19-.06.27l0,0,3,1.71a.51.51,0,0,0,.52,0l1.34-.75C131.45,75.23,131.46,75.09,131.34,75ZM136,77.64l-.07,0-.61-.34h0l-1.65-.93-.69-.38a.63.63,0,0,0-.55,0l-.65.37-.66.39c-.18.08-.2.24,0,.31l1,.57,2,1.13a.75.75,0,0,0,.55,0l1.29-.75h0C136.1,77.85,136.11,77.72,136,77.64Zm4.63,2.64-3-1.71a.58.58,0,0,0-.54,0l-.43.25-.89.5c-.16.08-.19.22,0,.31l2.51,1.41.52.3a.66.66,0,0,0,.53,0l1.32-.75C140.74,80.49,140.76,80.35,140.61,80.28Zm4.65,2.62-.8-.46-.31-.17-1.91-1.07a.58.58,0,0,0-.54,0l-1.32.77c-.13.07-.16.16-.1.24l.06,0,3,1.72a.63.63,0,0,0,.52,0l.25-.15,1.08-.61C145.38,83.12,145.41,83,145.26,82.9Zm4.64,2.64-3-1.72a.68.68,0,0,0-.54,0L145,84.6c-.16.11-.18.23,0,.31l3,1.72a.61.61,0,0,0,.54,0l1.32-.72C150,85.76,150.06,85.62,149.9,85.54Zm-24.66,3.93L104.29,77.59l-.35-.18a.56.56,0,0,0-.53,0l-.3.15-2.65,1.52c-.15.08-.16.22,0,.29l21.28,12.07a.64.64,0,0,0,.54,0l2.94-1.67C125.35,89.66,125.36,89.55,125.24,89.47Zm-23-13-.21-.13-1.77-1-.48-.26-.63-.36-.46-.27-.47-.27a.61.61,0,0,0-.54,0l-2.93,1.67c-.15.09-.17.22,0,.31l.48.27.48.27.38.22.73.4.46.25,1.5.85a.53.53,0,0,0,.53,0l1.44-.83,1.49-.84C102.38,76.65,102.4,76.53,102.26,76.45Zm29,16.43L127,90.44a.56.56,0,0,0-.53,0l-3,1.68c-.14.09-.15.23,0,.3L126,93.92h0l1.68,1a.68.68,0,0,0,.54,0l.83-.48h0l2.1-1.2C131.36,93.08,131.37,93,131.24,92.88Zm4.6,2.6-2-1.12h0l-1-.58a.56.56,0,0,0-.53,0l-1.21.68h0l-1.72,1c-.16.11-.18.23,0,.31l3,1.71a.61.61,0,0,0,.54,0l2.93-1.67C136,95.69,136,95.57,135.84,95.48Zm4.59,2.59-2-1.14-1-.57a.55.55,0,0,0-.53,0l-3,1.67c-.15.1-.17.23,0,.31l1.06.6,2,1.11a.58.58,0,0,0,.53,0l2.95-1.66C140.54,98.29,140.55,98.16,140.43,98.07ZM95.38,67.63a.09.09,0,0,0,0,0l-1.14-.67-.47-.26-.64-.36L92.61,66,89,64h0a.6.6,0,0,0-.49,0h0l-2.92,1.68c-.16.08-.18.2-.05.27a0,0,0,0,0,0,0h0l3.6,2h0l.47.26.62.36.47.27,1.13.64a.62.62,0,0,0,.53,0l3-1.69a.23.23,0,0,0,.11-.13h0A.11.11,0,0,0,95.38,67.63Zm-7.69.56-3-1.71h0a.57.57,0,0,0-.52,0l-2.92,1.67c-.15.1-.19.23-.06.31v0l3,1.69a.7.7,0,0,0,.55,0l2.93-1.67C87.81,68.41,87.85,68.27,87.69,68.19Zm4.59,2.59-2.39-1.37-.25-.13h0l-.22-.12-.17-.1a.6.6,0,0,0-.52,0l-3,1.68c-.16.08-.17.23,0,.31l.18.1.46.26,2.38,1.34a.6.6,0,0,0,.54,0l1.74-1h0l1.2-.68C92.39,71,92.39,70.85,92.28,70.78Zm4.49,2.55-1.68-1-.48-.28L94,71.76l-.22-.14a.62.62,0,0,0-.56,0l-.07,0-1.55.89h0l-1.3.74-.07.06a0,0,0,0,0,0,0,.14.14,0,0,0,.07.23l.23.13.63.36.48.27,1.67.94a.57.57,0,0,0,.48,0h0l0,0,2.93-1.69C96.9,73.55,96.9,73.42,96.77,73.33Zm3.14-3.15-.52-.3-.46-.26-.64-.36L97.81,69l-.93-.51a.58.58,0,0,0-.53,0l-.51.3-2.43,1.39c-.16.08-.17.23,0,.3l.94.53.48.29.63.35.46.27.5.27a.58.58,0,0,0,.53,0L99,71h0l.88-.5C100,70.4,100,70.25,99.91,70.18Zm4.66,2.68a.18.18,0,0,0-.1-.09l-.35-.2-.62-.36-.47-.27-1.57-.9a.67.67,0,0,0-.55,0l-.83.48L98,72.75c-.17.1-.19.22,0,.32l1.59.89.45.26.67.37.31.18a.38.38,0,0,0,.19,0,.81.81,0,0,0,.35-.07l2.2-1.26.72-.41C104.56,73,104.59,72.93,104.57,72.86Zm4.48,2.5-3-1.71a.62.62,0,0,0-.53,0l-.71.41-2.23,1.27c-.16.09-.17.22,0,.29l1.2.68,1.83,1a.58.58,0,0,0,.54,0l1.76-1,.54-.31h0l.64-.36C109.17,75.57,109.19,75.44,109.05,75.36ZM113.61,78l-.62-.36-2.25-1.27-.15-.08a.59.59,0,0,0-.53,0l-.1,0-.5.28-1.73,1-.6.35c-.16.08-.18.22,0,.3l3,1.71a.53.53,0,0,0,.53,0l2.41-1.37.52-.3C113.73,78.16,113.75,78,113.61,78Zm4.58,2.6-3-1.73a.57.57,0,0,0-.52,0l-.5.28-2.46,1.39c-.15.09-.16.21,0,.31l3,1.7a.59.59,0,0,0,.53,0l2.52-1.43h0l.43-.24C118.31,80.74,118.33,80.62,118.19,80.55Zm4.56,2.58-3-1.72a.66.66,0,0,0-.55,0l-.4.23-2.53,1.45c-.17.1-.18.21,0,.3l3,1.72a.64.64,0,0,0,.54,0l2.6-1.5h0l.33-.19C122.88,83.33,122.91,83.22,122.75,83.13Zm4.58,2.59-.84-.47h0L124.33,84h0a.56.56,0,0,0-.34,0l-.15,0-.32.18h0l-2.64,1.5c-.15.08-.16.23,0,.3l3,1.71a.53.53,0,0,0,.54,0L127.3,86C127.46,85.94,127.48,85.79,127.33,85.72Zm4.57,2.6-3-1.73a.53.53,0,0,0-.53,0l-3,1.67c-.16.09-.17.22,0,.31l3,1.71a.69.69,0,0,0,.54,0l2.93-1.68C132,88.52,132.05,88.39,131.9,88.32Zm4.57,2.59-3-1.73a.58.58,0,0,0-.53,0l-3,1.68c-.14.09-.16.21,0,.29l3,1.72a.62.62,0,0,0,.53,0l2.95-1.69C136.6,91.11,136.62,91,136.47,90.91Zm8.29,4.68-.61-.35-1.47-.83L139,92.3h0l-.94-.53a.69.69,0,0,0-.56,0l-2.92,1.67c-.16.1-.19.23,0,.31l.64.36h0l4.08,2.32,2,1.15a.54.54,0,0,0,.52,0l2.38-1.35.56-.34C144.88,95.81,144.89,95.66,144.76,95.59ZM96.39,63.24l-.7-.39h0l-2.33-1.3h0s0,0-.06,0a.64.64,0,0,0-.45.05l-2.93,1.67c-.15.1-.19.22-.07.28a0,0,0,0,1,0,0h0l3,1.72a.63.63,0,0,0,.55,0l2-1.16.91-.52C96.5,63.46,96.52,63.33,96.39,63.24Zm4.55,2.59-.5-.29-1.93-1.1L98,64.18l-.13-.07a.53.53,0,0,0-.54,0l-2.1,1.2-.83.48c-.17.08-.18.21,0,.3l.13.07.46.27.25.14h0l2.16,1.23a.7.7,0,0,0,.55,0l2.27-1.3.67-.37C101.06,66,101.06,65.9,100.94,65.83Zm4.57,2.58-1.81-1-.47-.26-.62-.36-.14-.08a.66.66,0,0,0-.53,0l-1,.56L99,68.4c-.17.1-.18.22,0,.29l.15.08.62.38.5.25,1.75,1a.62.62,0,0,0,.53,0l2-1.11,1-.58C105.62,68.62,105.64,68.5,105.51,68.41ZM110.09,71l-1.17-.66-.47-.27-.63-.36-.47-.26-.29-.16a.68.68,0,0,0-.54,0l-1,.58L103.58,71c-.16.09-.17.23,0,.3l.3.17.5.27.63.36.45.28,1.14.63a.53.53,0,0,0,.53,0L109,71.9l1-.6C110.2,71.22,110.21,71.08,110.09,71Zm4.57,2.6-3-1.71a.5.5,0,0,0-.54,0l-1,.59-1.89,1.08c-.18.09-.19.25,0,.31l3,1.71a.69.69,0,0,0,.53,0l1.88-1.07,1.08-.61C114.76,73.81,114.79,73.67,114.66,73.6Zm4.64,2.68a.19.19,0,0,0-.09-.09l-.21-.12-2.79-1.61a.53.53,0,0,0-.19,0,.66.66,0,0,0-.36.08l-1.07.61-1.85,1.07c-.09,0-.14.1-.14.14s0,.11.1.16l2,1.11,1,.6a.68.68,0,0,0,.54,0l1-.59.82-.47,1.11-.64a.24.24,0,0,0,.08-.06.13.13,0,0,0,0-.1A.06.06,0,0,0,119.3,76.28Zm4.5,2.49-2.09-1.18-.95-.53a.63.63,0,0,0-.52,0l-.91.51-2,1.17c-.16.1-.17.24,0,.32l3,1.7a.58.58,0,0,0,.53,0l3-1.69C123.91,79,123.93,78.86,123.8,78.77Zm4.57,2.6-3-1.71a.55.55,0,0,0-.54,0l-.52.3h0l-1,.55-1.45.82c-.16.09-.18.24,0,.32l1.5.84.75.42.76.43a.6.6,0,0,0,.54,0l2.93-1.67C128.49,81.59,128.5,81.44,128.37,81.37ZM133,84,131,82.87h0l-1.1-.62a.53.53,0,0,0-.53,0L126.44,84c-.15.08-.17.23,0,.3l1.3.74h0l1.73,1a.63.63,0,0,0,.52,0l3-1.68C133.05,84.18,133.07,84,133,84Zm4.55,2.58-3-1.71a.64.64,0,0,0-.54,0L131,86.52c-.17.11-.19.25,0,.33l3,1.69a.55.55,0,0,0,.54,0l2.92-1.67C137.63,86.77,137.65,86.63,137.5,86.54Zm4.58,2.59-1.36-.76h0l-1.66-.94a.53.53,0,0,0-.53,0l-2.95,1.67c-.15.1-.17.24-.05.33l3,1.69a.56.56,0,0,0,.53,0l1.17-.66,1.77-1C142.21,89.36,142.22,89.22,142.08,89.13Zm7,4L147,91.9l-2.8-1.58-.56-.32a.62.62,0,0,0-.53,0l-2.94,1.68c-.16.08-.17.22,0,.29l3.41,1.94h0l.66.36,1.43.81a.63.63,0,0,0,.55,0l2.92-1.67C149.22,93.34,149.25,93.19,149.1,93.11ZM103.17,62.16l-.36-.2-.47-.28-.52-.29-.11-.07-.47-.27-1.27-.7-2.28-1.28h0v0l-.08,0a.49.49,0,0,0-.42.06l-.33.19h0l-2.6,1.48c-.11.07-.17.18-.08.27l0,0h0s0,0,0,0l1.7,1,1.84,1.05.48.26.63.36.47.25.35.21a.65.65,0,0,0,.54,0L102.13,63l.06,0,1-.54C103.29,62.37,103.32,62.25,103.17,62.16Zm4.55,2.57-.18-.08-.63-.36-.48-.28-1.73-1a.61.61,0,0,0-.54,0l-1,.57-.27.15-1.67.95c-.16.08-.18.23,0,.3L103,66l.47.27.63.35.16.09a.55.55,0,0,0,.54,0l.65-.37,1.24-.71,1-.59C107.85,65,107.86,64.8,107.72,64.73Zm4.58,2.6-.18-.11-.47-.25-2.38-1.36a.55.55,0,0,0-.54,0l-1,.58-1.5.86-.4.23c-.17.08-.18.22,0,.3l2.4,1.36.47.26.08.05.07,0a.64.64,0,0,0,.54,0l1.87-1.06,1.06-.61C112.41,67.54,112.43,67.4,112.3,67.33Zm4.56,2.6-3-1.73a.61.61,0,0,0-.54,0l-1.06.61-1.87,1.08c-.16.08-.19.2,0,.29l3,1.71a.7.7,0,0,0,.55,0l1.82-1.05,1.1-.63C117,70.12,117,70,116.86,69.93Zm4.58,2.57-.73-.41-2.3-1.3a.62.62,0,0,0-.53,0l-1.11.63-1.83,1c-.16.1-.18.23,0,.3l3,1.72a.56.56,0,0,0,.53,0l3-1.66C121.55,72.72,121.56,72.59,121.44,72.5ZM126,75.1h0l-3-1.71a.59.59,0,0,0-.53,0l-2.94,1.67c-.16.08-.18.22,0,.3l1.64.93,1.37.77a.55.55,0,0,0,.54,0l1.31-.75.15-.08h0l.22-.12h0l.56-.32h0l.34-.19h0l.17-.09.15-.09C126.11,75.31,126.14,75.17,126,75.1Zm4.58,2.6-.17-.11-2.23-1.27-.63-.34a.58.58,0,0,0-.54,0l-.58.32-.74.43h0l-.53.3h0l-.89.5h0l0,0-.13.1c-.16.08-.18.21,0,.28l.11.06.54.32,1.41.8,1,.54a.6.6,0,0,0,.52,0h0l1.32-.76,1.62-.92C130.7,77.9,130.71,77.77,130.59,77.7Zm4.56,2.58-3-1.71a.58.58,0,0,0-.54,0l-1.67,1-.94.53-.31.18c-.18.09-.2.23,0,.31l2.87,1.64.13.07a.58.58,0,0,0,.54,0l1.69-1,1.26-.71C135.27,80.49,135.3,80.35,135.15,80.28Zm4.57,2.59-.67-.38h0l-.83-.47-1.51-.86a.59.59,0,0,0-.53,0l-.72.4-2.23,1.27c-.15.09-.18.21,0,.29l3,1.73a.61.61,0,0,0,.54,0l2.72-1.54.22-.12C139.84,83.07,139.85,83,139.72,82.87Zm4.58,2.6-.15-.1-2.88-1.62a.66.66,0,0,0-.53,0l-.85.49h0l-2.09,1.19c-.15.09-.16.22,0,.29l2.94,1.68.08,0a.54.54,0,0,0,.52,0l2.85-1.63.11,0C144.41,85.67,144.42,85.54,144.3,85.47Zm4.57,2.58-3-1.71a.62.62,0,0,0-.56,0l-1.15.67-1.77,1c-.16.08-.2.23,0,.3l1.81,1,1.21.69a.58.58,0,0,0,.53,0l2.93-1.68C149,88.27,149,88.12,148.87,88.05Zm4.57,2.59-2.21-1.26-.81-.46a.58.58,0,0,0-.54,0L147,90.62c-.17.1-.19.22,0,.32l.86.48,2.16,1.22a.61.61,0,0,0,.54,0L153.39,91C153.56,90.84,153.57,90.72,153.44,90.64Zm2.72-1.56-2.25-1.28-2.37-1.35a.66.66,0,0,0-.55,0l-1.33.76c-.16.09-.18.22,0,.31l2.4,1.36,2.23,1.27a.59.59,0,0,0,.53,0l1.32-.75C156.28,89.29,156.3,89.16,156.16,89.08Z"/><g class="cls-21"><path class="cls-22" d="M103.45,59.2l-.9-.51L101,57.81h0l-.53-.3h0a.58.58,0,0,0-.14,0,.47.47,0,0,0-.37.06l-1.3.73h0l0,0s0,0-.08.06a.19.19,0,0,0,0,.1s0,0,0,.06a.07.07,0,0,0,.06.06h0v0l.2.11,2.8,1.6a.66.66,0,0,0,.55,0l1.33-.77a.26.26,0,0,0,.13-.16A.18.18,0,0,0,103.45,59.2Zm4.65,2.65-2.57-1.46-.46-.26h0a.61.61,0,0,0-.51,0l-1.33.75c-.16.11-.17.23,0,.31h0l.46.28,2.57,1.45a.59.59,0,0,0,.53,0l1.32-.76C108.21,62.05,108.22,61.92,108.1,61.85Zm4.68,2.66,0,0-.19-.11-1.8-1-.48-.27-.56-.31-.08,0h0a.77.77,0,0,0-.43.05l-1.33.76c-.13.08-.17.2-.1.26l.06,0,.54.33.5.26,2,1.12a.51.51,0,0,0,.53,0l1.34-.76C112.83,64.69,112.87,64.58,112.78,64.51Zm4.61,2.59-1.45-.82-.47-.26-.63-.36-.47-.26a.66.66,0,0,0-.55,0l-1.32.76c-.15.08-.18.21,0,.3h0l.47.26.64.36.45.27,1.44.81a.58.58,0,0,0,.54,0l1.33-.74C117.51,67.33,117.53,67.18,117.39,67.1ZM122,69.75l-2-1.12L119,68a.57.57,0,0,0-.55,0l-.14.08-1.18.67c-.16.09-.17.23,0,.3l3,1.71a.6.6,0,0,0,.54,0l1.32-.76C122.16,70,122.17,69.82,122,69.75Zm4.65,2.63-3-1.72a.56.56,0,0,0-.54,0l-1.33.74c-.15.1-.16.23,0,.3l3,1.73a.56.56,0,0,0,.53,0l1.32-.76C126.8,72.59,126.81,72.46,126.68,72.38ZM131.34,75l-3-1.72a.57.57,0,0,0-.55,0l-1.21.69-.11.07c-.14.07-.16.19-.06.27l0,0,3,1.71a.51.51,0,0,0,.52,0l1.34-.75C131.45,75.23,131.46,75.09,131.34,75ZM136,77.64l-.07,0-.61-.34h0l-1.65-.93-.69-.38a.63.63,0,0,0-.55,0l-.65.37-.66.39c-.18.08-.2.24,0,.31l1,.57,2,1.13a.75.75,0,0,0,.55,0l1.29-.75h0C136.1,77.85,136.11,77.72,136,77.64Zm4.63,2.64-3-1.71a.58.58,0,0,0-.54,0l-.43.25-.89.5c-.16.08-.19.22,0,.31l2.51,1.41.52.3a.66.66,0,0,0,.53,0l1.32-.75C140.74,80.49,140.76,80.35,140.61,80.28Zm4.65,2.62-.8-.46-.31-.17-1.91-1.07a.58.58,0,0,0-.54,0l-1.32.77c-.13.07-.16.16-.1.24l.06,0,3,1.72a.63.63,0,0,0,.52,0l.25-.15,1.08-.61C145.38,83.12,145.41,83,145.26,82.9Zm4.64,2.64-3-1.72a.68.68,0,0,0-.54,0L145,84.6c-.16.11-.18.23,0,.31l3,1.72a.61.61,0,0,0,.54,0l1.32-.72C150,85.76,150.06,85.62,149.9,85.54Zm-24.66,3.93L104.29,77.59l-.35-.18a.56.56,0,0,0-.53,0l-.3.15-2.65,1.52c-.15.08-.16.22,0,.29l21.28,12.07a.64.64,0,0,0,.54,0l2.94-1.67C125.35,89.66,125.36,89.55,125.24,89.47Zm-23-13-.21-.13-1.77-1-.48-.26-.63-.36-.46-.27-.47-.27a.61.61,0,0,0-.54,0l-2.93,1.67c-.15.09-.17.22,0,.31l.48.27.48.27.38.22.73.4.46.25,1.5.85a.53.53,0,0,0,.53,0l1.44-.83,1.49-.84C102.38,76.65,102.4,76.53,102.26,76.45Zm29,16.43L127,90.44a.56.56,0,0,0-.53,0l-3,1.68c-.14.09-.15.23,0,.3L126,93.92h0l1.68,1a.68.68,0,0,0,.54,0l.83-.48h0l2.1-1.2C131.36,93.08,131.37,93,131.24,92.88Zm4.6,2.6-2-1.12h0l-1-.58a.56.56,0,0,0-.53,0l-1.21.68h0l-1.72,1c-.16.11-.18.23,0,.31l3,1.71a.61.61,0,0,0,.54,0l2.93-1.67C136,95.69,136,95.57,135.84,95.48Zm4.59,2.59-2-1.14-1-.57a.55.55,0,0,0-.53,0l-3,1.67c-.15.1-.17.23,0,.31l1.06.6,2,1.11a.58.58,0,0,0,.53,0l2.95-1.66C140.54,98.29,140.55,98.16,140.43,98.07ZM95.38,67.63a.09.09,0,0,0,0,0l-1.14-.67-.47-.26-.64-.36L92.61,66,89,64h0a.6.6,0,0,0-.49,0h0l-2.92,1.68c-.16.08-.18.2-.05.27a0,0,0,0,0,0,0h0l3.6,2h0l.47.26.62.36.47.27,1.13.64a.62.62,0,0,0,.53,0l3-1.69a.23.23,0,0,0,.11-.13h0A.11.11,0,0,0,95.38,67.63Zm-7.69.56-3-1.71h0a.57.57,0,0,0-.52,0l-2.92,1.67c-.15.1-.19.23-.06.31v0l3,1.69a.7.7,0,0,0,.55,0l2.93-1.67C87.81,68.41,87.85,68.27,87.69,68.19Zm4.59,2.59-2.39-1.37-.25-.13h0l-.22-.12-.17-.1a.6.6,0,0,0-.52,0l-3,1.68c-.16.08-.17.23,0,.31l.18.1.46.26,2.38,1.34a.6.6,0,0,0,.54,0l1.74-1h0l1.2-.68C92.39,71,92.39,70.85,92.28,70.78Zm4.49,2.55-1.68-1-.48-.28L94,71.76l-.22-.14a.62.62,0,0,0-.56,0l-.07,0-1.55.89h0l-1.3.74-.07.06a0,0,0,0,0,0,0,.14.14,0,0,0,.07.23l.23.13.63.36.48.27,1.67.94a.57.57,0,0,0,.48,0h0l0,0,2.93-1.69C96.9,73.55,96.9,73.42,96.77,73.33Zm3.14-3.15-.52-.3-.46-.26-.64-.36L97.81,69l-.93-.51a.58.58,0,0,0-.53,0l-.51.3-2.43,1.39c-.16.08-.17.23,0,.3l.94.53.48.29.63.35.46.27.5.27a.58.58,0,0,0,.53,0L99,71h0l.88-.5C100,70.4,100,70.25,99.91,70.18Zm4.66,2.68a.18.18,0,0,0-.1-.09l-.35-.2-.62-.36-.47-.27-1.57-.9a.67.67,0,0,0-.55,0l-.83.48L98,72.75c-.17.1-.19.22,0,.32l1.59.89.45.26.67.37.31.18a.38.38,0,0,0,.19,0,.81.81,0,0,0,.35-.07l2.2-1.26.72-.41C104.56,73,104.59,72.93,104.57,72.86Zm4.48,2.5-3-1.71a.62.62,0,0,0-.53,0l-.71.41-2.23,1.27c-.16.09-.17.22,0,.29l1.2.68,1.83,1a.58.58,0,0,0,.54,0l1.76-1,.54-.31h0l.64-.36C109.17,75.57,109.19,75.44,109.05,75.36ZM113.61,78l-.62-.36-2.25-1.27-.15-.08a.59.59,0,0,0-.53,0l-.1,0-.5.28-1.73,1-.6.35c-.16.08-.18.22,0,.3l3,1.71a.53.53,0,0,0,.53,0l2.41-1.37.52-.3C113.73,78.16,113.75,78,113.61,78Zm4.58,2.6-3-1.73a.57.57,0,0,0-.52,0l-.5.28-2.46,1.39c-.15.09-.16.21,0,.31l3,1.7a.59.59,0,0,0,.53,0l2.52-1.43h0l.43-.24C118.31,80.74,118.33,80.62,118.19,80.55Zm4.56,2.58-3-1.72a.66.66,0,0,0-.55,0l-.4.23-2.53,1.45c-.17.1-.18.21,0,.3l3,1.72a.64.64,0,0,0,.54,0l2.6-1.5h0l.33-.19C122.88,83.33,122.91,83.22,122.75,83.13Zm4.58,2.59-.84-.47h0L124.33,84h0a.56.56,0,0,0-.34,0l-.15,0-.32.18h0l-2.64,1.5c-.15.08-.16.23,0,.3l3,1.71a.53.53,0,0,0,.54,0L127.3,86C127.46,85.94,127.48,85.79,127.33,85.72Zm4.57,2.6-3-1.73a.53.53,0,0,0-.53,0l-3,1.67c-.16.09-.17.22,0,.31l3,1.71a.69.69,0,0,0,.54,0l2.93-1.68C132,88.52,132.05,88.39,131.9,88.32Zm4.57,2.59-3-1.73a.58.58,0,0,0-.53,0l-3,1.68c-.14.09-.16.21,0,.29l3,1.72a.62.62,0,0,0,.53,0l2.95-1.69C136.6,91.11,136.62,91,136.47,90.91Zm8.29,4.68-.61-.35-1.47-.83L139,92.3h0l-.94-.53a.69.69,0,0,0-.56,0l-2.92,1.67c-.16.1-.19.23,0,.31l.64.36h0l4.08,2.32,2,1.15a.54.54,0,0,0,.52,0l2.38-1.35.56-.34C144.88,95.81,144.89,95.66,144.76,95.59ZM96.39,63.24l-.7-.39h0l-2.33-1.3h0s0,0-.06,0a.64.64,0,0,0-.45.05l-2.93,1.67c-.15.1-.19.22-.07.28a0,0,0,0,1,0,0h0l3,1.72a.63.63,0,0,0,.55,0l2-1.16.91-.52C96.5,63.46,96.52,63.33,96.39,63.24Zm4.55,2.59-.5-.29-1.93-1.1L98,64.18l-.13-.07a.53.53,0,0,0-.54,0l-2.1,1.2-.83.48c-.17.08-.18.21,0,.3l.13.07.46.27.25.14h0l2.16,1.23a.7.7,0,0,0,.55,0l2.27-1.3.67-.37C101.06,66,101.06,65.9,100.94,65.83Zm4.57,2.58-1.81-1-.47-.26-.62-.36-.14-.08a.66.66,0,0,0-.53,0l-1,.56L99,68.4c-.17.1-.18.22,0,.29l.15.08.62.38.5.25,1.75,1a.62.62,0,0,0,.53,0l2-1.11,1-.58C105.62,68.62,105.64,68.5,105.51,68.41ZM110.09,71l-1.17-.66-.47-.27-.63-.36-.47-.26-.29-.16a.68.68,0,0,0-.54,0l-1,.58L103.58,71c-.16.09-.17.23,0,.3l.3.17.5.27.63.36.45.28,1.14.63a.53.53,0,0,0,.53,0L109,71.9l1-.6C110.2,71.22,110.21,71.08,110.09,71Zm4.57,2.6-3-1.71a.5.5,0,0,0-.54,0l-1,.59-1.89,1.08c-.18.09-.19.25,0,.31l3,1.71a.69.69,0,0,0,.53,0l1.88-1.07,1.08-.61C114.76,73.81,114.79,73.67,114.66,73.6Zm4.64,2.68a.19.19,0,0,0-.09-.09l-.21-.12-2.79-1.61a.53.53,0,0,0-.19,0,.66.66,0,0,0-.36.08l-1.07.61-1.85,1.07c-.09,0-.14.1-.14.14s0,.11.1.16l2,1.11,1,.6a.68.68,0,0,0,.54,0l1-.59.82-.47,1.11-.64a.24.24,0,0,0,.08-.06.13.13,0,0,0,0-.1A.06.06,0,0,0,119.3,76.28Zm4.5,2.49-2.09-1.18-.95-.53a.63.63,0,0,0-.52,0l-.91.51-2,1.17c-.16.1-.17.24,0,.32l3,1.7a.58.58,0,0,0,.53,0l3-1.69C123.91,79,123.93,78.86,123.8,78.77Zm4.57,2.6-3-1.71a.55.55,0,0,0-.54,0l-.52.3h0l-1,.55-1.45.82c-.16.09-.18.24,0,.32l1.5.84.75.42.76.43a.6.6,0,0,0,.54,0l2.93-1.67C128.49,81.59,128.5,81.44,128.37,81.37ZM133,84,131,82.87h0l-1.1-.62a.53.53,0,0,0-.53,0L126.44,84c-.15.08-.17.23,0,.3l1.3.74h0l1.73,1a.63.63,0,0,0,.52,0l3-1.68C133.05,84.18,133.07,84,133,84Zm4.55,2.58-3-1.71a.64.64,0,0,0-.54,0L131,86.52c-.17.11-.19.25,0,.33l3,1.69a.55.55,0,0,0,.54,0l2.92-1.67C137.63,86.77,137.65,86.63,137.5,86.54Zm4.58,2.59-1.36-.76h0l-1.66-.94a.53.53,0,0,0-.53,0l-2.95,1.67c-.15.1-.17.24-.05.33l3,1.69a.56.56,0,0,0,.53,0l1.17-.66,1.77-1C142.21,89.36,142.22,89.22,142.08,89.13Zm7,4L147,91.9l-2.8-1.58-.56-.32a.62.62,0,0,0-.53,0l-2.94,1.68c-.16.08-.17.22,0,.29l3.41,1.94h0l.66.36,1.43.81a.63.63,0,0,0,.55,0l2.92-1.67C149.22,93.34,149.25,93.19,149.1,93.11ZM103.17,62.16l-.36-.2-.47-.28-.52-.29-.11-.07-.47-.27-1.27-.7-2.28-1.28h0v0l-.08,0a.49.49,0,0,0-.42.06l-.33.19h0l-2.6,1.48c-.11.07-.17.18-.08.27l0,0h0s0,0,0,0l1.7,1,1.84,1.05.48.26.63.36.47.25.35.21a.65.65,0,0,0,.54,0L102.13,63l.06,0,1-.54C103.29,62.37,103.32,62.25,103.17,62.16Zm4.55,2.57-.18-.08-.63-.36-.48-.28-1.73-1a.61.61,0,0,0-.54,0l-1,.57-.27.15-1.67.95c-.16.08-.18.23,0,.3L103,66l.47.27.63.35.16.09a.55.55,0,0,0,.54,0l.65-.37,1.24-.71,1-.59C107.85,65,107.86,64.8,107.72,64.73Zm4.58,2.6-.18-.11-.47-.25-2.38-1.36a.55.55,0,0,0-.54,0l-1,.58-1.5.86-.4.23c-.17.08-.18.22,0,.3l2.4,1.36.47.26.08.05.07,0a.64.64,0,0,0,.54,0l1.87-1.06,1.06-.61C112.41,67.54,112.43,67.4,112.3,67.33Zm4.56,2.6-3-1.73a.61.61,0,0,0-.54,0l-1.06.61-1.87,1.08c-.16.08-.19.2,0,.29l3,1.71a.7.7,0,0,0,.55,0l1.82-1.05,1.1-.63C117,70.12,117,70,116.86,69.93Zm4.58,2.57-.73-.41-2.3-1.3a.62.62,0,0,0-.53,0l-1.11.63-1.83,1c-.16.1-.18.23,0,.3l3,1.72a.56.56,0,0,0,.53,0l3-1.66C121.55,72.72,121.56,72.59,121.44,72.5ZM126,75.1h0l-3-1.71a.59.59,0,0,0-.53,0l-2.94,1.67c-.16.08-.18.22,0,.3l1.64.93,1.37.77a.55.55,0,0,0,.54,0l1.31-.75.15-.08h0l.22-.12h0l.56-.32h0l.34-.19h0l.17-.09.15-.09C126.11,75.31,126.14,75.17,126,75.1Zm4.58,2.6-.17-.11-2.23-1.27-.63-.34a.58.58,0,0,0-.54,0l-.58.32-.74.43h0l-.53.3h0l-.89.5h0l0,0-.13.1c-.16.08-.18.21,0,.28l.11.06.54.32,1.41.8,1,.54a.6.6,0,0,0,.52,0h0l1.32-.76,1.62-.92C130.7,77.9,130.71,77.77,130.59,77.7Zm4.56,2.58-3-1.71a.58.58,0,0,0-.54,0l-1.67,1-.94.53-.31.18c-.18.09-.2.23,0,.31l2.87,1.64.13.07a.58.58,0,0,0,.54,0l1.69-1,1.26-.71C135.27,80.49,135.3,80.35,135.15,80.28Zm4.57,2.59-.67-.38h0l-.83-.47-1.51-.86a.59.59,0,0,0-.53,0l-.72.4-2.23,1.27c-.15.09-.18.21,0,.29l3,1.73a.61.61,0,0,0,.54,0l2.72-1.54.22-.12C139.84,83.07,139.85,83,139.72,82.87Zm4.58,2.6-.15-.1-2.88-1.62a.66.66,0,0,0-.53,0l-.85.49h0l-2.09,1.19c-.15.09-.16.22,0,.29l2.94,1.68.08,0a.54.54,0,0,0,.52,0l2.85-1.63.11,0C144.41,85.67,144.42,85.54,144.3,85.47Zm4.57,2.58-3-1.71a.62.62,0,0,0-.56,0l-1.15.67-1.77,1c-.16.08-.2.23,0,.3l1.81,1,1.21.69a.58.58,0,0,0,.53,0l2.93-1.68C149,88.27,149,88.12,148.87,88.05Zm4.57,2.59-2.21-1.26-.81-.46a.58.58,0,0,0-.54,0L147,90.62c-.17.1-.19.22,0,.32l.86.48,2.16,1.22a.61.61,0,0,0,.54,0L153.39,91C153.56,90.84,153.57,90.72,153.44,90.64Zm2.72-1.56-2.25-1.28-2.37-1.35a.66.66,0,0,0-.55,0l-1.33.76c-.16.09-.18.22,0,.31l2.4,1.36,2.23,1.27a.59.59,0,0,0,.53,0l1.32-.75C156.28,89.29,156.3,89.16,156.16,89.08Z"/></g><path class="cls-23" d="M96.57,80.68l21.24,12c.4.23.35.63-.11.89l-12.25,7a1.79,1.79,0,0,1-1.56.07l-21.25-12c-.4-.23-.35-.63.11-.89l12.25-7A1.81,1.81,0,0,1,96.57,80.68Z"/><polygon class="cls-24" points="137.59 60.16 136.09 59.29 118.46 49.12 114.68 46.93 112.57 45.71 112.57 34.31 148.46 55.03 148.46 66.44 137.59 60.16"/><polygon class="cls-25" points="146.44 56.19 146.44 62.95 138.59 58.42 137.1 57.55 121.14 48.34 119.47 47.37 117.19 46.06 115.69 45.19 114.58 44.55 114.58 37.8 121.54 41.81 123.08 42.7 142.95 54.17 144.41 55.02 146.44 56.19"/><path class="cls-26" d="M122.92,75l1.46,1L123,75.5C122.94,75.26,122.92,75.09,122.92,75Z"/><path class="cls-27" d="M132.08,81a6.56,6.56,0,0,1-5,4.17c-.41.1-1.89.29-2.5-.44l-.16-.1a4.38,4.38,0,0,1-1.11-3.31s0-.75,0-.78A17.18,17.18,0,0,0,124.51,76c0-.43,0-.81.06-1.08l1.26.81s-1.48.2-1.32.27Z"/><path class="cls-28" d="M97.63,70.28c2.27,1.1,24.21,13,27.33,14.75-.94-.69-.92-2.34-.88-3.26V81.7c0-.3,0-.64.1-1,.35-2.87,2.23-7.24,5.63-11.81,5.45-7.32,16.64-12.68,16.64-12.68l-27.79-16S104.29,47,99.64,53.9a25.66,25.66,0,0,0-4.39,11.71c0,.07,0,.13,0,.19a1.62,1.62,0,0,0,0,.22c0,.1,0,.19,0,.28s0,.06,0,.09,0,0,0,.06v0a4,4,0,0,0,1.27,3.08,0,0,0,0,0,0,0A5.19,5.19,0,0,0,97.63,70.28Z"/><path class="cls-29" d="M116.41,46.65l-.85.5h0l-.22.15h0l-.48.32,17.83,10.25.47-.29.17-.1h0l.85-.5.1-.06ZM112.72,49c-.49.33-1,.68-1.47,1l11.11,6.38,1.38-1,.09-.06Zm-3.38,2.52c-.44.35-.88.73-1.3,1.11l17.84,10.26.07,0c.38-.35.76-.67,1.16-1l.09-.06Zm-3,2.74c-.39.4-.75.82-1.1,1.24l11,6.5a.08.08,0,0,0,0,0c.32-.41.68-.82,1-1.21Zm2.55,6.1,0,0-5-2.93c-.08.13-.16.26-.23.39h0c-.16.25-.29.49-.43.74,0,.09-.11.18-.16.28h0l9.43,5.57.23.14,1.34.79,0,0,.24-.44c.14-.24.28-.49.43-.73h0l.12-.19ZM121.59,63a2.94,2.94,0,0,0-3.69.8h0a1.86,1.86,0,0,0-.21.28h0l-.1.15a2.76,2.76,0,0,0-.2.43,3.11,3.11,0,0,0-.21.78,3,3,0,0,0,0,1,2.76,2.76,0,0,0,1.11,1.73l.2.14a2.78,2.78,0,0,0,1.53.35,2.93,2.93,0,0,0,.77-.16h0a2.9,2.9,0,0,0,.87-.49,3.46,3.46,0,0,0,.58-.57h0q.12-.16.24-.36l.11-.2h0c0-.11.09-.21.12-.32A2.91,2.91,0,0,0,121.59,63ZM102,61.06l-.15.33c-.11.27-.22.54-.32.81s-.1.26-.15.38l.78.45.18.11.85.48,3.48,2,1.06.6,3.49,2,1,.6,3.48,2,1,.6,3.42,2s0,0,0,0c.14-.42.32-.85.51-1.29a1.76,1.76,0,0,1,.09-.2Zm9.53,10.39-11-6.31c0,.14-.07.27-.1.4-.08.34-.16.66-.21,1,0,.11,0,.22-.06.31l.8.47,3.5,2,1,.6,3.49,2,1,.6,3.49,2,1,.6,3.49,2,.93.53s0,0,0,0c.06-.36.14-.76.25-1.19l0-.14a.43.43,0,0,1,0,0,2.33,2.33,0,0,1,.07-.25Z"/><g class="cls-30"><path class="cls-31" d="M137.41,132.88H41.31L3.17,109.63c-1.38-.79-1.46-2-.27-2.9.25-.17,0,0,6-3.47h0l37-21.34A16.15,16.15,0,0,1,48,80.75c3.52-1.36,6,1.17,6.66,1.44h0l8,4.87h0l6.51,4,16,10.25Z"/></g><path class="cls-32" d="M45,65.5l-2.81,1.6L68.55,82.3l3.88-2.25a1.83,1.83,0,0,0,1.11-1.6V75.28a1.86,1.86,0,0,0-1.11-1.54l-21-12.12a5.89,5.89,0,0,0-5.33,0l-3.9,2.25Z"/><polygon class="cls-33" points="42.22 63.86 5.24 85.21 31.56 100.41 31.56 103.65 68.54 82.3 68.54 79.06 42.22 63.86"/><path class="cls-34" d="M.81,88.51V92A1.87,1.87,0,0,0,1.9,93.45l21,12.11a5.83,5.83,0,0,0,5.33,0l3.34-1.92v-3.23L5.24,85.21Z"/><path class="cls-35" d="M46.11,61.61l-3.89,2.25,26.32,15.2,3.9-2.25c1.48-.86,1.48-2.23,0-3.08l-21-12.12A5.91,5.91,0,0,0,46.11,61.61Z"/><polygon class="cls-36" points="42.22 63.86 5.24 85.21 31.56 100.41 68.54 79.06 42.22 63.86"/><path class="cls-37" d="M5.24,85.21,1.91,87.14c-1.47.84-1.49,2.22,0,3.08l21,12.11a5.88,5.88,0,0,0,5.34,0l3.33-1.92Z"/><path class="cls-29" d="M62.23,70.55,54.7,66.2a1.18,1.18,0,0,0-1.08,0h0c-.32.18-.36.46-.08.62l7.52,4.35a1.2,1.2,0,0,0,1.09,0h0C62.47,71,62.5,70.71,62.23,70.55Z"/><ellipse class="cls-29" cx="14.36" cy="94.09" rx="1.82" ry="1.05"/><path class="cls-29" d="M75.05,61.9a1.53,1.53,0,0,1-.78.19c-.6,0-1.1-.29-1.1-.64,0-2.28-1.54-4.43-4.34-6.05a21.3,21.3,0,0,0-10.49-2.51c-.6,0-1.1-.28-1.1-.63s.5-.64,1.1-.64a24.42,24.42,0,0,1,12,2.88c3.22,1.86,5,4.33,5,7A.53.53,0,0,1,75.05,61.9Zm7.58-1.06c0-3.58-2.41-7-6.8-9.48A33.36,33.36,0,0,0,59.4,47.43c-.57,0-1,.27-1,.59s.47.6,1,.6a30.44,30.44,0,0,1,15,3.58c4,2.31,6.2,5.38,6.2,8.64,0,.33.46.6,1,.6a1.54,1.54,0,0,0,.73-.17A.51.51,0,0,0,82.63,60.84ZM67.76,62.06c0-1.62-1.09-3.14-3.06-4.28A15.09,15.09,0,0,0,57.29,56c-.57,0-1,.27-1,.6s.46.6,1,.6a12.07,12.07,0,0,1,6,1.42,4.19,4.19,0,0,1,2.46,3.43c0,.33.46.59,1,.59a1.49,1.49,0,0,0,.73-.17A.51.51,0,0,0,67.76,62.06Z"/><g class="cls-38"><polygon class="cls-39" points="66 36.8 88.2 50.38 103.37 42.3 82.12 29.78 78.34 36.41 66 36.8"/></g><path class="cls-40" d="M88.19,27.89V33a1.56,1.56,0,0,1-.91,1.28L76.6,40.49a4.87,4.87,0,0,1-4.43,0l-10.74-6.2A1.58,1.58,0,0,1,60.5,33V27.88a1.56,1.56,0,0,0,.93,1.28l10.74,6.21a4.94,4.94,0,0,0,4.43,0l10.67-6.21A1.54,1.54,0,0,0,88.19,27.89Z"/><path class="cls-41" d="M87.27,26.66c1.23.71,1.23,1.86,0,2.56L76.61,35.43a4.94,4.94,0,0,1-4.43,0L61.44,29.22a1.35,1.35,0,0,1,0-2.56l10.67-6.2a4.87,4.87,0,0,1,4.43,0Z"/><path class="cls-42" d="M88.2,26.6v1.29h0a1.53,1.53,0,0,1-.91,1.34L76.61,35.42a4.87,4.87,0,0,1-4.43,0L61.44,29.23a1.54,1.54,0,0,1-.92-1.35h0V26.56h1.07l25.57,0Z"/><path class="cls-43" d="M87.16,26.6l-25.57,0,10.51-6.1a4.87,4.87,0,0,1,4.43,0Z"/><path class="cls-44" d="M87.27,25.19a1.36,1.36,0,0,1,0,2.57L76.61,34a4.87,4.87,0,0,1-4.43,0l-10.74-6.2a1.36,1.36,0,0,1,0-2.57L72.1,19a4.87,4.87,0,0,1,4.43,0Z"/><path class="cls-29" d="M62.53,32.26c0,.24-.17.34-.38.22a.83.83,0,0,1-.39-.66c0-.25.17-.35.39-.23A.86.86,0,0,1,62.53,32.26Zm.67-.06c-.22-.12-.39,0-.39.22a.85.85,0,0,0,.39.67c.21.12.38,0,.38-.23A.84.84,0,0,0,63.2,32.2Zm1,.61c-.22-.13-.39,0-.39.22a.83.83,0,0,0,.39.66c.21.12.38,0,.38-.22A.84.84,0,0,0,64.25,32.81ZM71.4,37l-4.93-2.85c-.14-.08-.25,0-.25.19a.6.6,0,0,0,.25.48l4.93,2.84c.14.08.25,0,.25-.18A.59.59,0,0,0,71.4,37Z"/><path class="cls-29" d="M71.74,25.47a.62.62,0,0,1-.5,0,.16.16,0,0,1,0-.29.55.55,0,0,1,.5,0A.15.15,0,0,1,71.74,25.47Zm-1.16.7a.41.41,0,0,0-.43.14c-.05.11.06.22.25.25a.42.42,0,0,0,.43-.15C70.88,26.31,70.77,26.19,70.58,26.17Zm-.15,1.18c-.19,0-.3.14-.25.25s.24.17.43.15.3-.14.25-.25S70.61,27.33,70.43,27.35Zm.9,1.08c-.14.08-.14.21,0,.28a.53.53,0,0,0,.49,0c.14-.07.14-.2,0-.28A.53.53,0,0,0,71.33,28.43Zm1.7.67c0,.11.07.22.25.25a.41.41,0,0,0,.43-.15c.05-.11-.06-.22-.25-.25S73.08,29,73,29.1Zm2.06.09a.44.44,0,0,0,.43.14c.19,0,.3-.14.25-.25a.41.41,0,0,0-.43-.14C75.15,29,75,29.08,75.09,29.19ZM77,28.67a.55.55,0,0,0,.5,0,.15.15,0,0,0,0-.29.55.55,0,0,0-.5,0A.16.16,0,0,0,77,28.67Zm1.16-1a.41.41,0,0,0,.43-.14c0-.11-.06-.22-.24-.25a.41.41,0,0,0-.43.14C77.82,27.54,77.93,27.65,78.11,27.68Zm.16-1.19c.18,0,.29-.14.24-.25a.43.43,0,0,0-.43-.14c-.18,0-.29.14-.24.25A.41.41,0,0,0,78.27,26.49Zm-.9-1.07a.16.16,0,0,0,0-.29.55.55,0,0,0-.5,0,.15.15,0,0,0,0,.29A.55.55,0,0,0,77.37,25.42Zm-1.71-.67c0-.11-.06-.22-.25-.25a.43.43,0,0,0-.43.14c0,.11.06.22.25.25A.41.41,0,0,0,75.66,24.75Zm-2.06-.09a.41.41,0,0,0-.43-.14c-.19,0-.3.14-.25.25a.43.43,0,0,0,.43.14C73.54,24.88,73.65,24.77,73.6,24.66ZM72,24.18a.67.67,0,0,0-.64-.1c-.22.07-.3.24-.17.37a.7.7,0,0,0,.64.09C72.08,24.47,72.16,24.3,72,24.18Zm-2.07,1a.69.69,0,0,0-.64.1c-.13.13,0,.3.17.37a.69.69,0,0,0,.64-.1C70.26,25.45,70.18,25.29,70,25.21Zm-.89,1.5c-.26,0-.47.12-.47.27s.21.27.47.27.46-.12.46-.27S69.32,26.71,69.07,26.71Zm.52,1.55c-.22.08-.3.24-.17.37a.69.69,0,0,0,.64.1c.22-.08.29-.24.16-.37A.67.67,0,0,0,69.59,28.26Zm1.8,1.2c-.13.13,0,.29.17.36a.65.65,0,0,0,.63-.1c.13-.12,0-.29-.17-.36A.65.65,0,0,0,71.39,29.46ZM74,30c0,.15.21.27.46.27s.47-.12.47-.27-.21-.27-.47-.27S74,29.82,74,30Zm2.69-.3a.68.68,0,0,0,.63.1c.23-.08.3-.24.17-.37a.68.68,0,0,0-.63-.1C76.61,29.38,76.54,29.54,76.67,29.67Zm2.07-1a.65.65,0,0,0,.63-.1c.13-.13,0-.29-.17-.36a.67.67,0,0,0-.64.1C78.44,28.39,78.51,28.56,78.74,28.63Zm.89-1.49c.26,0,.46-.13.46-.27s-.21-.27-.47-.27-.46.12-.46.27S79.37,27.14,79.63,27.14Zm-.52-1.56c.22-.07.29-.24.16-.36a.65.65,0,0,0-.63-.1c-.23.07-.3.24-.17.37A.69.69,0,0,0,79.11,25.58Zm-1.8-1.19c.13-.13,0-.29-.18-.37a.68.68,0,0,0-.63.1c-.13.13,0,.29.17.37A.69.69,0,0,0,77.31,24.39Zm-2.59-.52c0-.14-.21-.26-.47-.26s-.47.12-.46.27.21.26.46.26S74.72,24,74.72,23.87Zm-1.65-.67a.69.69,0,0,0-.71-.24c-.31.05-.49.23-.41.41a.71.71,0,0,0,.72.24C73,23.56,73.16,23.37,73.07,23.2ZM70,24.06a.91.91,0,0,0-.82,0c-.22.13-.22.34,0,.47a.91.91,0,0,0,.82,0A.26.26,0,0,0,70,24.06ZM68.12,25.7a.69.69,0,0,0-.71.24c-.08.17.11.36.42.4a.69.69,0,0,0,.7-.23C68.61,25.93,68.43,25.74,68.12,25.7Zm-.23,2c-.31.05-.49.23-.4.41s.4.28.71.23.49-.23.4-.41A.7.7,0,0,0,67.89,27.66Zm1.5,1.77c-.22.13-.22.34,0,.47a.88.88,0,0,0,.82,0c.22-.13.22-.34,0-.47A.88.88,0,0,0,69.39,29.43Zm2.83,1.09c-.08.18.11.36.42.41a.69.69,0,0,0,.7-.24c.08-.18-.1-.36-.41-.41A.69.69,0,0,0,72.22,30.52Zm3.4.13a.7.7,0,0,0,.71.23c.31,0,.49-.23.41-.41a.71.71,0,0,0-.71-.23C75.72,30.29,75.54,30.47,75.62,30.65Zm3.06-.87a.91.91,0,0,0,.82,0c.22-.13.22-.34,0-.47a.91.91,0,0,0-.82,0C78.45,29.44,78.45,29.65,78.68,29.78Zm1.9-1.63a.67.67,0,0,0,.7-.24c.08-.18-.1-.36-.41-.41s-.63.06-.71.24S80.27,28.1,80.58,28.15Zm.22-2c.31-.05.49-.24.41-.41a.7.7,0,0,0-.71-.24c-.31.05-.49.23-.41.41A.7.7,0,0,0,80.8,26.19Zm-1.5-1.77c.22-.13.22-.34,0-.47a.89.89,0,0,0-.81,0c-.23.13-.23.34,0,.47A.91.91,0,0,0,79.3,24.42Zm-2.83-1.09c.08-.18-.11-.36-.41-.41a.69.69,0,0,0-.71.24c-.08.18.1.36.41.41A.72.72,0,0,0,76.47,23.33Z"/><g class="cls-45"><polygon class="cls-46" points="132.8 132.88 101.3 132.88 70.25 114.84 86.86 106.18 132.8 132.88"/></g><path class="cls-47" d="M94.79,110.79A1.28,1.28,0,0,1,94,112l-12.43,7.22a4.16,4.16,0,0,1-3.78,0L54.57,105.79a1.33,1.33,0,0,1-.79-1.13v-1.5l1.21.18,37.53,5.87h2.26Z"/><path class="cls-48" d="M93,109.21h-.48L55,103.34l12-7a4.18,4.18,0,0,1,3.79,0Z"/><path class="cls-49" d="M81.6,117.7a4.15,4.15,0,0,1-3.79,0L54.57,104.29a1.35,1.35,0,0,1-.79-1.13.45.45,0,0,1,0-.12l0-.13a1,1,0,0,1,.13-.27.36.36,0,0,1,.07-.1,1.26,1.26,0,0,1,.2-.2.81.81,0,0,1,.14-.12l.2-.13L67,94.87a4.22,4.22,0,0,1,3.79,0L94,108.29a1.73,1.73,0,0,1,.65.6l.06.13a.32.32,0,0,1,0,.09l0,.1v.08a1.27,1.27,0,0,1-.77,1.19Z"/><path class="cls-50" d="M81.61,106.19a5.78,5.78,0,0,1,5.25,0c1.45.83,1.45,2.19,0,3a5.78,5.78,0,0,1-5.25,0C80.16,108.38,80.16,107,81.61,106.19Z"/><polygon class="cls-51" points="70.2 99 71.92 99.99 79.82 104.55 81.17 103.76 73.28 99.21 71.55 98.21 70.2 99"/><polygon class="cls-52" points="69.91 100.54 78.14 105.29 76.79 106.07 68.56 101.32 69.91 100.54"/><polygon class="cls-53" points="72.94 107.08 81.17 111.83 79.81 112.61 71.58 107.86 72.94 107.08"/><polygon class="cls-54" points="60.63 104.53 62.33 105.53 77.25 114.36 78.6 113.58 63.69 104.75 61.99 103.74 60.63 104.53"/><path class="cls-55" d="M2.27,62.3,6.5,64.76c-1.11-.64-1.79-2-1.8-4a13.6,13.6,0,0,1,6-10.56L6.47,47.78a13.6,13.6,0,0,0-6,10.56C.48,60.29,1.16,61.66,2.27,62.3Z"/><path class="cls-56" d="M6.33,46.13a10.37,10.37,0,0,0,.14,1.65l4.23,2.45a10.13,10.13,0,0,1-.14-1.64c0-5.89,4.14-13.08,9.26-16,2.59-1.51,4.93-1.65,6.61-.66L22.2,29.46c-1.68-1-4-.86-6.61.65C10.47,33.06,6.33,40.24,6.33,46.13Z"/><path class="cls-57" d="M40.66,33.4A16.39,16.39,0,0,0,38.78,35l-3.58-2.8a9.07,9.07,0,0,1,1.51-1.1c1.6-.93,3-1,4.1-.4L44.76,33C43.71,32.39,42.26,32.48,40.66,33.4Z"/><path class="cls-58" d="M31.72,31.59a12.74,12.74,0,0,0-3.28,2.83l-4.31-2.51a12.73,12.73,0,0,1,3.27-2.83c2-1.12,3.71-1.22,5-.49L36.7,31.1C35.43,30.36,33.67,30.47,31.72,31.59Z"/><path class="cls-59" d="M.47,58.34a13.6,13.6,0,0,1,6-10.56l4.23,2.46a13.6,13.6,0,0,0-6,10.56c0,2,.69,3.32,1.8,4L2.27,62.3C1.16,61.66.48,60.29.47,58.34Z"/><path class="cls-60" d="M6.33,46.13a10.37,10.37,0,0,0,.14,1.65l4.23,2.45a10.13,10.13,0,0,1-.14-1.64c0-5.89,4.14-13.08,9.26-16,2.59-1.51,4.93-1.65,6.61-.66L22.2,29.46c-1.68-1-4-.86-6.61.65C10.47,33.06,6.33,40.24,6.33,46.13Z"/><path class="cls-61" d="M28.47,34.27a12.24,12.24,0,0,1,3.21-2.77c3.49-2,6.38-.69,6.82,2.94a10,10,0,0,1,1.62-1.19c3.4-2,6.17-.38,6.19,3.53a13.57,13.57,0,0,1-6.15,10.65L10.89,64.33l-.54.29c-3.16,1.5-5.64-.11-5.65-3.82a13.6,13.6,0,0,1,6-10.56,10.59,10.59,0,0,1-.13-1.64c0-5.9,4.13-13.08,9.26-16C23.73,30.31,27.08,31.15,28.47,34.27Z"/><polygon class="cls-62" points="32.37 96.51 12 84.75 41.42 67.76 61.79 79.52 32.37 96.51"/><path class="cls-63" d="M46.77,76.2l.5-.29-1-.58-.5.29Zm4.21.61-5.66-3.27-.5.29,5.66,3.27ZM41.28,73l4,2.34.5-.29-4-2.34Zm13.64,6.06-3.51-2-.5.29,3.51,2Zm-2.73-.34-4.48-2.59-.51.29L51.69,79Zm2.66.88,1.06.6.5-.29-1-.6Zm-13.5-7.14-1.8-1-.5.29,1.8,1Zm3.54.8-4.26-2.46-.51.29,4.27,2.46Z"/><path class="cls-64" d="M46.25,77.61l-.37.21.76.44.37-.21Zm-3.94-.91,5,2.9.38-.21-5-2.91ZM43.77,78l-.37.22,2.14,1.23.37-.22Zm-2.32,0,3.83,2.21.38-.22-3.83-2.21Zm9.87,2.46-4-2.3-.38.22,4,2.3Zm-2,.69-3-1.76-.38.22,3,1.76ZM38.43,74.46,42,76.51l.38-.21-3.55-2.06Zm-1.51,1.92,5.16,3,.38-.22-5.17-3Zm5.48,3.17,3.84,2.21.37-.22-3.83-2.2Zm-1.27-1.67.37-.22-1.67-1-.37.22Zm.27-2.64,4.15,2.4.38-.22L41.77,75Zm2.05,2.62-3.48-2-.38.21,3.48,2Zm-3.81-2.21-3.78-2.2-.38.22,3.78,2.2Zm-1.16-1.6L36.66,73l-.37.22,1.82,1.06Zm12.79,6.88,1.35.78L53,81.5l-1.35-.78ZM36.59,76.19,37,76l-2.73-1.58-.37.21Zm-1.86-2,4.4,2.55.38-.22L35.11,74ZM46.56,82l2.83,1.63.38-.22-2.83-1.63Zm1.11-2.16,4.15,2.39.37-.22-4.14-2.39Zm1.56,1.84,1.78,1,.37-.22-1.77-1Zm-3.38-1,4.35,2.5.38-.22-4.35-2.5Z"/><path class="cls-65" d="M41.61,80.28l-.37.21.75.44.38-.22Zm-3.94-.91,5,2.9.38-.22-5-2.9Zm1.46,1.34-.37.22,2.13,1.23.38-.22Zm-2.32,0,3.83,2.2.38-.21-3.83-2.21Zm9.87,2.46-4-2.3-.38.22,4,2.29Zm-2,.69-3-1.76-.38.22,3.05,1.76ZM33.79,77.12l3.55,2.06.38-.22-3.55-2Zm2.69,3.43.38-.22-1.67-1-.37.22Zm.28-2.64,4.15,2.4.38-.22-4.16-2.4Zm2.05,2.61-3.49-2-.37.22,3.48,2ZM35,78.32l-3.78-2.2-.38.22,3.78,2.19Zm-1.16-1.6L32,75.66l-.37.21,1.82,1.07ZM46.63,83.6l1.35.78.38-.22L47,83.38ZM30.09,76.84l4.4,2.55.38-.22-4.4-2.55ZM43,82.46l4.14,2.39.38-.22-4.14-2.39Zm1.56,1.83,1.78,1,.37-.21-1.77-1Zm-3.38-1,4.35,2.51.38-.22-4.35-2.5Z"/><path class="cls-66" d="M37.56,82.54l-.38.22.76.43.37-.21Zm-4-.91,5,2.91.37-.22-5-2.9ZM35.08,83l-.38.21,2.14,1.23.37-.21Zm-2.33,0,3.83,2.21L37,85l-3.83-2.21Zm9.88,2.46-4-2.3-.38.22,4,2.3Zm-2.05.69-3-1.76-.38.22,3.05,1.76ZM29.73,79.39l3.56,2.06.37-.22-3.55-2.06Zm-1.51,1.92,5.16,3,.38-.22-5.16-3Zm5.49,3.18,3.83,2.2.37-.21-3.83-2.21Zm-1.28-1.68.37-.21-1.66-1-.38.22Zm.27-2.64,4.15,2.4.38-.22L33.07,80Zm2,2.62-3.48-2-.38.22,3.48,2Zm-3.81-2.21-3.78-2.19-.38.21,3.79,2.2ZM29.79,79,28,77.92l-.38.22,1.82,1.06Zm12.78,6.89,1.35.78.38-.22L43,85.65ZM27.89,81.12l.38-.22-2.73-1.58-.37.22ZM26,79.1l4.4,2.55.38-.21-4.4-2.56Zm11.83,7.78,2.83,1.63.38-.22-2.83-1.63ZM39,84.72l4.15,2.39.37-.22-4.14-2.38Zm1.56,1.84,1.78,1,.38-.22-1.78-1Zm-3.38-1L41.5,88l.38-.21-4.35-2.51Zm-4.51-1.17-.38.22,2.14,1.23.38-.22Zm-2.33,0,3.84,2.2.37-.21-3.83-2.21Zm7.84,3.15-3-1.76-.38.22,3.05,1.76ZM30,84.21l.38-.22L28.7,83l-.38.22Zm2.32,0-3.48-2-.38.22,3.49,2ZM28.5,82l-3.78-2.2-.38.22,3.79,2.19ZM23.59,80.5,28,83.05l.37-.22L24,80.28ZM38.09,88l1.78,1,.38-.21-1.78-1Zm-3.37-1,4.34,2.51.38-.22-4.35-2.5Z"/><path class="cls-67" d="M21.84,82.84l-.38.22,1.36.78.37-.22ZM19.76,83l3,1.76.37-.22-3-1.76Zm6.8,2.56-3-1.76-.38.22,3.05,1.76Zm-3.65.7-3.2-1.85-.38.22,3.21,1.85Z"/><path class="cls-68" d="M36.47,89.11a.08.08,0,0,0-.09-.06l-.6.11.06-.11a5.12,5.12,0,0,0-3.36-.5A2.84,2.84,0,0,0,30.2,90l.14,0a2.71,2.71,0,0,1,2.17-1.35,5,5,0,0,1,3.23.47l-6,1a.08.08,0,0,0-.06.09.08.08,0,0,0,.08.06h0l6.63-1.17A.07.07,0,0,0,36.47,89.11Zm.77,1.38-2.38.42a.08.08,0,0,0-.06.09.07.07,0,0,0,.07.06h0l1.72-.3a2.63,2.63,0,0,1-2.18,1.4,5,5,0,0,1-3.2-.45l2.95-.51a.07.07,0,0,0,.06-.09.06.06,0,0,0-.08-.06l-3.55.61a.08.08,0,0,0-.06.09s0,.06.07.06h0l.56-.1-.07.12a4.82,4.82,0,0,0,2.36.57,5.12,5.12,0,0,0,1-.09,2.77,2.77,0,0,0,2.32-1.52l-.13,0,.62-.11c.05,0,.07,0,.07-.09A.08.08,0,0,0,37.24,90.49Zm.55-.85c-.6-1.11-2.35-1.86-4.35-1.86a8.17,8.17,0,0,0-1.31.11,4,4,0,0,0-3,1.8,1.66,1.66,0,0,0,0,1.53c.6,1.11,2.35,1.86,4.35,1.86A8.2,8.2,0,0,0,34.81,93a4,4,0,0,0,3-1.8A1.6,1.6,0,0,0,37.79,89.64ZM37.7,91.1a3.88,3.88,0,0,1-2.92,1.72,7.83,7.83,0,0,1-1.29.11c-1.91,0-3.65-.74-4.21-1.79a1.44,1.44,0,0,1,0-1.38A3.91,3.91,0,0,1,32.16,88a7.81,7.81,0,0,1,1.28-.11c1.92,0,3.65.74,4.22,1.79A1.47,1.47,0,0,1,37.7,91.1ZM33.44,88a7.85,7.85,0,0,0-1.19.1,3.7,3.7,0,0,0-2.76,1.64,1.48,1.48,0,0,0,0,1.37c.55,1,2.14,1.69,4,1.69a6.78,6.78,0,0,0,1.2-.1,3.67,3.67,0,0,0,2.75-1.64,1.45,1.45,0,0,0,0-1.37C36.86,88.71,35.27,88,33.44,88Zm3.93,3a3.59,3.59,0,0,1-2.69,1.59,6.75,6.75,0,0,1-1.19.1c-1.77,0-3.37-.68-3.89-1.65a1.39,1.39,0,0,1,0-1.3,3.61,3.61,0,0,1,2.7-1.59,6.64,6.64,0,0,1,1.18-.1c1.77,0,3.37.68,3.9,1.65A1.36,1.36,0,0,1,37.37,91.06Z"/><path class="cls-69" d="M31.37,91.13a.1.1,0,0,1-.09-.07.09.09,0,0,1,.07-.11L36,90.07a.09.09,0,0,1,.11.07.09.09,0,0,1-.08.11l-4.63.88Z"/><path class="cls-70" d="M31.79,90.52a.1.1,0,0,1-.1-.08.1.1,0,0,1,.08-.11l3.37-.63a.09.09,0,0,1,.11.07.09.09,0,0,1-.07.11l-3.38.64Z"/></g></g></svg>