<svg xmlns="http://www.w3.org/2000/svg" xmlns:xlink="http://www.w3.org/1999/xlink" viewBox="0 0 179.42 163.16"><defs><style>.cls-1{isolation:isolate;}.cls-2,.cls-46{mix-blend-mode:multiply;}.cls-3{fill:url(#linear-gradient);}.cls-4{fill:url(#linear-gradient-2);}.cls-5{fill:url(#linear-gradient-3);}.cls-6{fill:url(#linear-gradient-4);}.cls-7{fill:url(#linear-gradient-5);}.cls-8{fill:url(#linear-gradient-6);}.cls-9{fill:url(#linear-gradient-7);}.cls-10{fill:url(#linear-gradient-8);}.cls-11{fill:url(#linear-gradient-9);}.cls-12{fill:url(#linear-gradient-10);}.cls-13{fill:url(#linear-gradient-11);}.cls-14{fill:url(#linear-gradient-12);}.cls-15{fill:url(#linear-gradient-13);}.cls-16{fill:url(#linear-gradient-14);}.cls-17{fill:url(#linear-gradient-15);}.cls-18{fill:#2672ab;}.cls-19{fill:url(#linear-gradient-16);}.cls-20{fill:url(#linear-gradient-17);}.cls-21{fill:url(#linear-gradient-18);}.cls-22{fill:url(#linear-gradient-19);}.cls-23{fill:url(#linear-gradient-20);}.cls-24{fill:url(#linear-gradient-21);}.cls-25{fill:url(#linear-gradient-22);}.cls-26{fill:url(#linear-gradient-23);}.cls-27{fill:url(#linear-gradient-24);}.cls-28{fill:url(#linear-gradient-25);}.cls-29{fill:url(#linear-gradient-26);}.cls-30{fill:url(#linear-gradient-27);}.cls-31{fill:url(#linear-gradient-28);}.cls-32{fill:url(#linear-gradient-29);}.cls-33{fill:url(#linear-gradient-30);}.cls-34{fill:url(#linear-gradient-31);}.cls-35{fill:url(#linear-gradient-32);}.cls-36{fill:url(#linear-gradient-33);}.cls-37{fill:url(#linear-gradient-34);}.cls-38{fill:#445394;}.cls-39{fill:url(#linear-gradient-35);}.cls-40{fill:url(#linear-gradient-36);}.cls-41{fill:#084c94;}.cls-42{fill:url(#linear-gradient-37);}.cls-43{fill:url(#linear-gradient-38);}.cls-44{fill:url(#linear-gradient-39);}.cls-45{fill:url(#linear-gradient-40);}.cls-46{fill:url(#linear-gradient-41);}.cls-47{fill:url(#linear-gradient-42);}.cls-48{fill:url(#linear-gradient-43);}.cls-49{fill:url(#linear-gradient-44);}.cls-50{fill:url(#linear-gradient-45);}.cls-51{fill:url(#linear-gradient-46);}.cls-52{fill:url(#linear-gradient-47);}.cls-53{fill:url(#linear-gradient-48);}.cls-54{fill:url(#linear-gradient-49);}.cls-55{fill:url(#linear-gradient-50);}.cls-56{fill:url(#linear-gradient-51);}.cls-57{fill:url(#linear-gradient-52);}.cls-58{fill:url(#linear-gradient-53);}.cls-59{fill:url(#linear-gradient-54);}.cls-60{fill:url(#linear-gradient-55);}.cls-61{fill:url(#linear-gradient-56);}.cls-62{fill:url(#linear-gradient-57);}.cls-63{fill:url(#linear-gradient-58);}.cls-64{fill:url(#linear-gradient-59);}.cls-65{fill:url(#linear-gradient-60);}.cls-66{fill:url(#linear-gradient-61);}.cls-67{fill:url(#linear-gradient-63);}.cls-68{fill:url(#linear-gradient-64);}.cls-69{fill:url(#linear-gradient-65);}.cls-70{fill:url(#linear-gradient-66);}.cls-71{fill:#fff;}.cls-166,.cls-167,.cls-168,.cls-169,.cls-170,.cls-171,.cls-172,.cls-173,.cls-174,.cls-175,.cls-176,.cls-177,.cls-178,.cls-179,.cls-180,.cls-181,.cls-182,.cls-183,.cls-184,.cls-185,.cls-186,.cls-187,.cls-188,.cls-189,.cls-190,.cls-191,.cls-192,.cls-193,.cls-196,.cls-197,.cls-198,.cls-199,.cls-200,.cls-201,.cls-202,.cls-203,.cls-204,.cls-205,.cls-206,.cls-207,.cls-208,.cls-209,.cls-210,.cls-211,.cls-212,.cls-213,.cls-214,.cls-215,.cls-216,.cls-217,.cls-219,.cls-71{opacity:0.5;}.cls-72{fill:url(#linear-gradient-68);}.cls-73{fill:url(#linear-gradient-69);}.cls-74{fill:url(#linear-gradient-70);}.cls-75{fill:url(#linear-gradient-71);}.cls-76{fill:url(#linear-gradient-72);}.cls-77{fill:url(#linear-gradient-73);}.cls-78{fill:url(#linear-gradient-74);}.cls-79{fill:url(#linear-gradient-75);}.cls-80{fill:url(#linear-gradient-76);}.cls-81{fill:url(#linear-gradient-77);}.cls-82{fill:url(#linear-gradient-78);}.cls-83{fill:url(#linear-gradient-79);}.cls-84{fill:url(#linear-gradient-80);}.cls-85{fill:url(#linear-gradient-81);}.cls-86{fill:url(#linear-gradient-82);}.cls-87{fill:url(#linear-gradient-83);}.cls-88{fill:url(#linear-gradient-84);}.cls-89{fill:url(#linear-gradient-85);}.cls-90{fill:url(#linear-gradient-86);}.cls-91{fill:url(#linear-gradient-87);}.cls-92{fill:url(#linear-gradient-88);}.cls-93{fill:url(#linear-gradient-89);}.cls-94{fill:url(#linear-gradient-90);}.cls-95{fill:url(#linear-gradient-91);}.cls-96{fill:url(#linear-gradient-92);}.cls-97{fill:url(#linear-gradient-93);}.cls-98{fill:url(#linear-gradient-94);}.cls-99{fill:url(#linear-gradient-95);}.cls-100{fill:url(#linear-gradient-96);}.cls-101{fill:url(#linear-gradient-97);}.cls-102{fill:url(#linear-gradient-98);}.cls-103{fill:url(#linear-gradient-99);}.cls-104{fill:url(#linear-gradient-100);}.cls-105{fill:url(#linear-gradient-101);}.cls-106{fill:url(#linear-gradient-102);}.cls-107{fill:url(#linear-gradient-103);}.cls-108{fill:url(#linear-gradient-104);}.cls-109{fill:url(#linear-gradient-105);}.cls-110{fill:url(#linear-gradient-106);}.cls-111{fill:url(#linear-gradient-107);}.cls-112{fill:url(#linear-gradient-108);}.cls-113{fill:url(#linear-gradient-109);}.cls-114{fill:url(#linear-gradient-110);}.cls-115{fill:url(#linear-gradient-111);}.cls-116{fill:url(#linear-gradient-112);}.cls-117{fill:url(#linear-gradient-113);}.cls-118{fill:url(#linear-gradient-114);}.cls-119{fill:url(#linear-gradient-115);}.cls-120{fill:url(#linear-gradient-116);}.cls-121{fill:url(#linear-gradient-117);}.cls-122{fill:url(#linear-gradient-118);}.cls-123{fill:url(#linear-gradient-119);}.cls-124{fill:url(#linear-gradient-120);}.cls-125{fill:url(#linear-gradient-121);}.cls-126{fill:url(#linear-gradient-122);}.cls-127{fill:url(#linear-gradient-123);}.cls-128{fill:url(#linear-gradient-124);}.cls-129{fill:url(#linear-gradient-125);}.cls-130{fill:url(#linear-gradient-126);}.cls-131{fill:url(#linear-gradient-127);}.cls-132{fill:url(#linear-gradient-128);}.cls-133{fill:url(#linear-gradient-129);}.cls-134{fill:url(#linear-gradient-130);}.cls-135{fill:url(#linear-gradient-131);}.cls-136{fill:url(#linear-gradient-132);}.cls-137{fill:url(#linear-gradient-133);}.cls-138{fill:url(#linear-gradient-134);}.cls-139{fill:url(#linear-gradient-135);}.cls-140{fill:url(#linear-gradient-136);}.cls-141,.cls-142,.cls-143,.cls-144,.cls-145,.cls-146,.cls-147,.cls-148,.cls-149,.cls-150,.cls-151,.cls-152,.cls-153,.cls-154,.cls-155,.cls-156,.cls-157,.cls-158,.cls-159,.cls-160,.cls-161,.cls-162,.cls-223{fill:#fcd5b0;}.cls-141{opacity:0;}.cls-142{opacity:0.01;}.cls-143{opacity:0.01;}.cls-144{opacity:0.02;}.cls-145{opacity:0.03;}.cls-146{opacity:0.04;}.cls-147{opacity:0.04;}.cls-148{opacity:0.05;}.cls-149{opacity:0.06;}.cls-150{opacity:0.06;}.cls-151{opacity:0.07;}.cls-152{opacity:0.08;}.cls-153{opacity:0.09;}.cls-154{opacity:0.09;}.cls-155{opacity:0.1;}.cls-156{opacity:0.11;}.cls-157{opacity:0.11;}.cls-158{opacity:0.12;}.cls-159{opacity:0.13;}.cls-160{opacity:0.14;}.cls-161{opacity:0.14;}.cls-162{opacity:0.15;}.cls-163{fill:url(#New_Gradient_Swatch_copy_27);}.cls-164,.cls-225,.cls-227{mix-blend-mode:color-dodge;}.cls-164{fill:url(#radial-gradient);}.cls-165{fill:#fdfeff;}.cls-166{fill:url(#New_Gradient_Swatch_copy_29);}.cls-167{fill:url(#New_Gradient_Swatch_copy_29-2);}.cls-168{fill:url(#New_Gradient_Swatch_copy_29-3);}.cls-169{fill:url(#New_Gradient_Swatch_copy_29-4);}.cls-170{fill:url(#New_Gradient_Swatch_copy_29-5);}.cls-171{fill:url(#New_Gradient_Swatch_copy_29-6);}.cls-172{fill:url(#New_Gradient_Swatch_copy_29-7);}.cls-173{fill:url(#New_Gradient_Swatch_copy_29-8);}.cls-174{fill:url(#New_Gradient_Swatch_copy_29-9);}.cls-175{fill:url(#New_Gradient_Swatch_copy_29-10);}.cls-176{fill:url(#New_Gradient_Swatch_copy_29-11);}.cls-177{fill:url(#New_Gradient_Swatch_copy_29-12);}.cls-178{fill:url(#New_Gradient_Swatch_copy_29-13);}.cls-179{fill:url(#New_Gradient_Swatch_copy_29-14);}.cls-180{fill:url(#New_Gradient_Swatch_copy_29-15);}.cls-181{fill:url(#New_Gradient_Swatch_copy_29-16);}.cls-182{fill:url(#New_Gradient_Swatch_copy_29-17);}.cls-183{fill:url(#New_Gradient_Swatch_copy_29-18);}.cls-184{fill:url(#New_Gradient_Swatch_copy_29-19);}.cls-185{fill:url(#New_Gradient_Swatch_copy_29-20);}.cls-186{fill:url(#New_Gradient_Swatch_copy_29-21);}.cls-187{fill:url(#New_Gradient_Swatch_copy_29-22);}.cls-188{fill:url(#New_Gradient_Swatch_copy_29-23);}.cls-189{fill:url(#New_Gradient_Swatch_copy_29-24);}.cls-190{fill:url(#New_Gradient_Swatch_copy_29-25);}.cls-191{fill:url(#New_Gradient_Swatch_copy_29-26);}.cls-192{fill:url(#New_Gradient_Swatch_copy_29-27);}.cls-193{fill:url(#New_Gradient_Swatch_copy_29-28);}.cls-194{fill:url(#New_Gradient_Swatch_copy_30);}.cls-195{fill:url(#New_Gradient_Swatch_copy_30-2);}.cls-196{fill:url(#New_Gradient_Swatch_copy_29-29);}.cls-197{fill:url(#New_Gradient_Swatch_copy_29-30);}.cls-198{fill:url(#New_Gradient_Swatch_copy_29-31);}.cls-199{fill:url(#New_Gradient_Swatch_copy_29-32);}.cls-200{fill:url(#New_Gradient_Swatch_copy_29-33);}.cls-201{fill:url(#New_Gradient_Swatch_copy_29-34);}.cls-202{fill:url(#New_Gradient_Swatch_copy_29-35);}.cls-203{fill:url(#New_Gradient_Swatch_copy_29-36);}.cls-204{fill:url(#New_Gradient_Swatch_copy_29-37);}.cls-205{fill:url(#New_Gradient_Swatch_copy_29-38);}.cls-206{fill:url(#New_Gradient_Swatch_copy_29-39);}.cls-207{fill:url(#New_Gradient_Swatch_copy_29-40);}.cls-208{fill:url(#New_Gradient_Swatch_copy_29-41);}.cls-209{fill:url(#New_Gradient_Swatch_copy_29-42);}.cls-210{fill:url(#New_Gradient_Swatch_copy_29-43);}.cls-211{fill:url(#New_Gradient_Swatch_copy_29-44);}.cls-212{fill:url(#New_Gradient_Swatch_copy_29-45);}.cls-213{fill:url(#New_Gradient_Swatch_copy_29-46);}.cls-214{fill:url(#New_Gradient_Swatch_copy_29-47);}.cls-215{fill:url(#New_Gradient_Swatch_copy_29-48);}.cls-216{fill:url(#New_Gradient_Swatch_copy_29-49);}.cls-217{fill:url(#New_Gradient_Swatch_copy_29-50);}.cls-218{fill:#0984bd;}.cls-220{fill:url(#New_Gradient_Swatch_copy_29-51);}.cls-221{fill:url(#New_Gradient_Swatch_copy_29-52);}.cls-222{fill:url(#linear-gradient-137);}.cls-223{opacity:0.2;}.cls-224{fill:url(#linear-gradient-138);}.cls-225{fill:url(#radial-gradient-2);}.cls-226{fill:url(#New_Gradient_Swatch_copy_27-2);}.cls-227{fill:url(#radial-gradient-3);}</style><linearGradient id="linear-gradient" x1="77.33" y1="124.72" x2="78.34" y2="124.72" gradientUnits="userSpaceOnUse"><stop offset="0" stop-color="#eef6fb" stop-opacity="0"/><stop offset="0.23" stop-color="#daebf6" stop-opacity="0.21"/><stop offset="0.48" stop-color="#c6e0f2" stop-opacity="0.42"/><stop offset="0.7" stop-color="#b7d8ef" stop-opacity="0.57"/><stop offset="0.88" stop-color="#aed3ed" stop-opacity="0.67"/><stop offset="1" stop-color="#abd1ec" stop-opacity="0.7"/></linearGradient><linearGradient id="linear-gradient-2" x1="76.75" y1="108.54" x2="101.74" y2="108.54" xlink:href="#linear-gradient"/><linearGradient id="linear-gradient-3" x1="78.52" y1="109.37" x2="102.18" y2="109.37" xlink:href="#linear-gradient"/><linearGradient id="linear-gradient-4" x1="70.82" y1="109.02" x2="98.94" y2="109.02" gradientUnits="userSpaceOnUse"><stop offset="0" stop-color="#0984bd"/><stop offset="1" stop-color="#56a5d7"/></linearGradient><linearGradient id="linear-gradient-5" x1="57.48" y1="60.27" x2="61.15" y2="87.94" xlink:href="#linear-gradient-4"/><linearGradient id="linear-gradient-6" x1="93.48" y1="85.12" x2="76.72" y2="114.62" xlink:href="#linear-gradient-4"/><linearGradient id="linear-gradient-7" x1="77.11" y1="124.41" x2="78.12" y2="124.41" gradientUnits="userSpaceOnUse"><stop offset="0.05" stop-color="#14416a"/><stop offset="1" stop-color="#004f98"/></linearGradient><linearGradient id="linear-gradient-8" x1="76.54" y1="108.22" x2="101.52" y2="108.22" xlink:href="#linear-gradient-7"/><linearGradient id="linear-gradient-9" x1="78.52" y1="108.44" x2="102.18" y2="108.44" xlink:href="#linear-gradient-7"/><linearGradient id="linear-gradient-10" x1="27.27" y1="103.58" x2="74.79" y2="103.58" gradientUnits="userSpaceOnUse"><stop offset="0" stop-color="#abd1ec"/><stop offset="0.57" stop-color="#eef6fb"/></linearGradient><linearGradient id="linear-gradient-11" x1="27.27" y1="107.49" x2="69.6" y2="107.49" xlink:href="#linear-gradient-7"/><linearGradient id="linear-gradient-12" x1="27.27" y1="94.91" x2="69.6" y2="94.91" xlink:href="#linear-gradient-4"/><linearGradient id="linear-gradient-13" x1="46.34" y1="82.17" x2="92.07" y2="82.17" xlink:href="#linear-gradient-7"/><linearGradient id="linear-gradient-14" x1="31.48" y1="108.7" x2="65.63" y2="108.7" xlink:href="#linear-gradient-7"/><linearGradient id="linear-gradient-15" x1="31.48" y1="108.78" x2="65.63" y2="108.78" xlink:href="#linear-gradient-7"/><linearGradient id="linear-gradient-16" x1="68.75" y1="92.94" x2="74.07" y2="92.94" gradientUnits="userSpaceOnUse"><stop offset="0" stop-color="#f57454"/><stop offset="1" stop-color="#f7947c"/></linearGradient><linearGradient id="linear-gradient-17" x1="74.35" y1="96.16" x2="79.67" y2="96.16" gradientUnits="userSpaceOnUse"><stop offset="0" stop-color="#fab371"/><stop offset="1" stop-color="#fcd5b0"/></linearGradient><linearGradient id="linear-gradient-18" x1="76.85" y1="97.63" x2="77" y2="96.19" xlink:href="#linear-gradient-17"/><linearGradient id="linear-gradient-19" x1="71.33" y1="93.45" x2="71.42" y2="92.83" xlink:href="#linear-gradient-16"/><linearGradient id="linear-gradient-20" x1="19.46" y1="107.27" x2="20.39" y2="107.27" xlink:href="#linear-gradient-7"/><linearGradient id="linear-gradient-21" x1="20.39" y1="104.1" x2="32.24" y2="104.1" xlink:href="#linear-gradient-7"/><linearGradient id="linear-gradient-22" x1="19.46" y1="102.71" x2="32.24" y2="102.71" xlink:href="#linear-gradient-7"/><linearGradient id="linear-gradient-23" x1="17" y1="119.28" x2="50.11" y2="119.28" xlink:href="#linear-gradient-10"/><linearGradient id="linear-gradient-24" x1="50.1" y1="124.2" x2="65.42" y2="124.2" xlink:href="#linear-gradient-10"/><linearGradient id="linear-gradient-25" x1="17" y1="114.27" x2="65.42" y2="114.27" xlink:href="#linear-gradient-10"/><linearGradient id="linear-gradient-26" x1="52.98" y1="126.66" x2="53.91" y2="126.66" xlink:href="#linear-gradient-7"/><linearGradient id="linear-gradient-27" x1="53.9" y1="123.49" x2="65.76" y2="123.49" xlink:href="#linear-gradient-7"/><linearGradient id="linear-gradient-28" x1="52.98" y1="122.1" x2="65.76" y2="122.1" xlink:href="#linear-gradient-7"/><linearGradient id="linear-gradient-29" x1="51.59" y1="72.3" x2="89.96" y2="72.3" xlink:href="#linear-gradient-10"/><linearGradient id="linear-gradient-30" x1="89.95" y1="82.89" x2="90.98" y2="82.89" xlink:href="#linear-gradient-10"/><linearGradient id="linear-gradient-31" x1="51.59" y1="63.3" x2="90.98" y2="63.3" xlink:href="#linear-gradient-10"/><linearGradient id="linear-gradient-32" x1="53.95" y1="74.97" x2="87.1" y2="74.97" xlink:href="#linear-gradient-10"/><linearGradient id="linear-gradient-33" x1="3.31" y1="118.31" x2="64.75" y2="118.31" xlink:href="#linear-gradient-10"/><linearGradient id="linear-gradient-34" x1="3.38" y1="117.9" x2="64.75" y2="117.9" xlink:href="#linear-gradient-10"/><linearGradient id="linear-gradient-35" x1="66.49" y1="139.64" x2="147.7" y2="139.64" xlink:href="#linear-gradient-10"/><linearGradient id="linear-gradient-36" x1="118.84" y1="124.67" x2="141.84" y2="124.67" xlink:href="#linear-gradient-10"/><linearGradient id="linear-gradient-37" x1="69.93" y1="137.87" x2="144.86" y2="137.87" xlink:href="#linear-gradient-10"/><linearGradient id="linear-gradient-38" x1="95.46" y1="145.09" x2="138.91" y2="117.85" xlink:href="#linear-gradient-10"/><linearGradient id="linear-gradient-39" x1="68.52" y1="137.77" x2="143.84" y2="137.77" xlink:href="#linear-gradient-10"/><linearGradient id="linear-gradient-40" x1="94.33" y1="126.27" x2="110.11" y2="140.42" xlink:href="#linear-gradient-10"/><linearGradient id="linear-gradient-41" x1="119.05" y1="124.93" x2="141.67" y2="124.93" xlink:href="#linear-gradient-10"/><linearGradient id="linear-gradient-42" x1="118.85" y1="124.48" x2="141.47" y2="124.48" xlink:href="#linear-gradient-10"/><linearGradient id="linear-gradient-43" x1="133.03" y1="121.04" x2="136.64" y2="121.04" xlink:href="#linear-gradient-10"/><linearGradient id="linear-gradient-44" x1="136.74" y1="122.71" x2="138.64" y2="122.71" xlink:href="#linear-gradient-10"/><linearGradient id="linear-gradient-45" x1="118.85" y1="125.59" x2="141.47" y2="125.59" xlink:href="#linear-gradient-10"/><linearGradient id="linear-gradient-46" x1="121.83" y1="124.05" x2="138.79" y2="124.05" xlink:href="#linear-gradient-10"/><linearGradient id="linear-gradient-47" x1="121.67" y1="124.26" x2="138.62" y2="124.26" xlink:href="#linear-gradient-10"/><linearGradient id="linear-gradient-48" x1="94.68" y1="149.69" x2="108.26" y2="149.69" xlink:href="#linear-gradient-17"/><linearGradient id="linear-gradient-49" x1="98.19" y1="149.95" x2="105.41" y2="149.95" xlink:href="#linear-gradient-17"/><linearGradient id="linear-gradient-50" x1="98.81" y1="149.21" x2="104.14" y2="149.21" xlink:href="#linear-gradient-17"/><linearGradient id="linear-gradient-51" x1="81.47" y1="137.12" x2="84.4" y2="137.12" xlink:href="#linear-gradient-7"/><linearGradient id="linear-gradient-52" x1="72.16" y1="133.66" x2="83.38" y2="133.66" xlink:href="#linear-gradient-10"/><linearGradient id="linear-gradient-53" x1="72.16" y1="133.66" x2="83.01" y2="133.66" xlink:href="#linear-gradient-10"/><linearGradient id="linear-gradient-54" x1="66.5" y1="131.05" x2="77.85" y2="131.05" xlink:href="#linear-gradient-16"/><linearGradient id="linear-gradient-55" x1="78.07" y1="133.97" x2="83.02" y2="133.97" xlink:href="#linear-gradient-10"/><linearGradient id="linear-gradient-56" x1="66.5" y1="134.08" x2="75.7" y2="134.08" xlink:href="#linear-gradient-16"/><linearGradient id="linear-gradient-57" x1="65.65" y1="129.14" x2="71.02" y2="129.14" xlink:href="#linear-gradient-4"/><linearGradient id="linear-gradient-58" x1="53.87" y1="128.02" x2="83.35" y2="128.02" xlink:href="#linear-gradient-10"/><linearGradient id="linear-gradient-59" x1="53.87" y1="128.02" x2="81.19" y2="128.02" xlink:href="#linear-gradient-10"/><linearGradient id="linear-gradient-60" x1="41.08" y1="132.65" x2="46.45" y2="132.65" xlink:href="#linear-gradient-10"/><linearGradient id="linear-gradient-61" x1="41.93" y1="136.03" x2="41.94" y2="136.03" xlink:href="#linear-gradient-10"/><linearGradient id="linear-gradient-63" x1="42.15" y1="132.73" x2="46.58" y2="132.73" xlink:href="#linear-gradient-10"/><linearGradient id="linear-gradient-64" x1="37.95" y1="131.37" x2="45.67" y2="131.37" xlink:href="#linear-gradient-16"/><linearGradient id="linear-gradient-65" x1="37.23" y1="130.23" x2="41.79" y2="130.23" xlink:href="#linear-gradient-16"/><linearGradient id="linear-gradient-66" x1="41.04" y1="127.35" x2="41.05" y2="127.35" xlink:href="#linear-gradient-16"/><linearGradient id="linear-gradient-68" x1="58.3" y1="127.25" x2="83.05" y2="127.25" xlink:href="#linear-gradient-4"/><linearGradient id="linear-gradient-69" x1="41.67" y1="130.83" x2="45.39" y2="130.83" xlink:href="#linear-gradient-16"/><linearGradient id="linear-gradient-70" x1="71.03" y1="130.27" x2="77.57" y2="130.27" xlink:href="#linear-gradient-16"/><linearGradient id="linear-gradient-71" x1="133.8" y1="61.32" x2="144.51" y2="61.32" xlink:href="#linear-gradient-10"/><linearGradient id="linear-gradient-72" x1="132.17" y1="62.3" x2="142.75" y2="62.3" xlink:href="#linear-gradient-10"/><linearGradient id="linear-gradient-73" x1="131.28" y1="61.13" x2="141.12" y2="61.13" xlink:href="#linear-gradient-10"/><linearGradient id="linear-gradient-74" x1="120.18" y1="79.56" x2="129.16" y2="79.56" xlink:href="#linear-gradient-4"/><linearGradient id="linear-gradient-75" x1="125.15" y1="64.67" x2="135" y2="64.67" xlink:href="#linear-gradient-10"/><linearGradient id="linear-gradient-76" x1="126.04" y1="61.07" x2="140.24" y2="61.07" xlink:href="#linear-gradient-10"/><linearGradient id="linear-gradient-77" x1="122.02" y1="67.65" x2="134.1" y2="67.65" xlink:href="#linear-gradient-10"/><linearGradient id="linear-gradient-78" x1="129.62" y1="45.63" x2="139.5" y2="45.63" xlink:href="#linear-gradient-10"/><linearGradient id="linear-gradient-79" x1="130.55" y1="53.08" x2="144.51" y2="53.08" xlink:href="#linear-gradient-10"/><linearGradient id="linear-gradient-80" x1="126.78" y1="58.02" x2="139.47" y2="58.02" xlink:href="#linear-gradient-10"/><linearGradient id="linear-gradient-81" x1="128.67" y1="53.64" x2="139.47" y2="53.64" xlink:href="#linear-gradient-10"/><linearGradient id="linear-gradient-82" x1="126.78" y1="54.72" x2="137.63" y2="54.72" xlink:href="#linear-gradient-10"/><linearGradient id="linear-gradient-83" x1="127.85" y1="46.35" x2="138.58" y2="46.35" xlink:href="#linear-gradient-10"/><linearGradient id="linear-gradient-84" x1="122.02" y1="58.02" x2="135.92" y2="58.02" xlink:href="#linear-gradient-10"/><linearGradient id="linear-gradient-85" x1="126.96" y1="47.17" x2="136.8" y2="47.17" xlink:href="#linear-gradient-10"/><linearGradient id="linear-gradient-86" x1="121.34" y1="61.1" x2="155.06" y2="61.1" xlink:href="#linear-gradient-10"/><linearGradient id="linear-gradient-87" x1="126.97" y1="61.83" x2="151.18" y2="50.59" xlink:href="#linear-gradient-10"/><linearGradient id="linear-gradient-88" x1="130.97" y1="59.59" x2="144.51" y2="59.59" xlink:href="#linear-gradient-17"/><linearGradient id="linear-gradient-89" x1="112.39" y1="55.57" x2="154.44" y2="55.57" xlink:href="#linear-gradient-4"/><linearGradient id="linear-gradient-90" x1="156.01" y1="85.66" x2="165.08" y2="85.66" xlink:href="#linear-gradient-7"/><linearGradient id="linear-gradient-91" x1="155.75" y1="85.9" x2="164.96" y2="85.9" xlink:href="#linear-gradient-7"/><linearGradient id="linear-gradient-92" x1="151.01" y1="84.52" x2="164.7" y2="84.52" xlink:href="#linear-gradient-7"/><linearGradient id="linear-gradient-93" x1="155.74" y1="85.87" x2="164.7" y2="85.87" xlink:href="#linear-gradient-10"/><linearGradient id="linear-gradient-94" x1="150.69" y1="96.08" x2="167.69" y2="96.08" xlink:href="#linear-gradient-7"/><linearGradient id="linear-gradient-95" x1="155.6" y1="83.92" x2="165.07" y2="83.92" xlink:href="#linear-gradient-7"/><linearGradient id="linear-gradient-96" x1="153.09" y1="80.87" x2="163.93" y2="80.87" xlink:href="#linear-gradient-10"/><linearGradient id="linear-gradient-97" x1="154.97" y1="81.92" x2="164.56" y2="81.92" xlink:href="#linear-gradient-7"/><linearGradient id="linear-gradient-98" x1="153.09" y1="78.88" x2="167.1" y2="78.88" xlink:href="#linear-gradient-7"/><linearGradient id="linear-gradient-99" x1="155.89" y1="76.61" x2="167.22" y2="76.61" xlink:href="#linear-gradient-10"/><linearGradient id="linear-gradient-100" x1="158.15" y1="77.17" x2="167.43" y2="77.17" xlink:href="#linear-gradient-7"/><linearGradient id="linear-gradient-101" x1="158.27" y1="76.9" x2="167.35" y2="76.9" xlink:href="#linear-gradient-10"/><linearGradient id="linear-gradient-102" x1="148.95" y1="87.19" x2="159.57" y2="87.19" xlink:href="#linear-gradient-7"/><linearGradient id="linear-gradient-103" x1="150.61" y1="84.48" x2="159.97" y2="84.48" xlink:href="#linear-gradient-7"/><linearGradient id="linear-gradient-104" x1="148.53" y1="86.05" x2="157.5" y2="86.05" xlink:href="#linear-gradient-10"/><linearGradient id="linear-gradient-105" x1="148.62" y1="89.25" x2="157.9" y2="89.25" xlink:href="#linear-gradient-7"/><linearGradient id="linear-gradient-106" x1="148.54" y1="89.28" x2="157.57" y2="89.28" xlink:href="#linear-gradient-10"/><linearGradient id="linear-gradient-107" x1="151.01" y1="83.4" x2="159.97" y2="83.4" xlink:href="#linear-gradient-7"/><linearGradient id="linear-gradient-108" x1="154.58" y1="76.47" x2="164.84" y2="76.47" xlink:href="#linear-gradient-10"/><linearGradient id="linear-gradient-109" x1="151" y1="77.65" x2="163.54" y2="77.65" xlink:href="#linear-gradient-10"/><linearGradient id="linear-gradient-110" x1="150.98" y1="71.78" x2="164.66" y2="71.78" xlink:href="#linear-gradient-7"/><linearGradient id="linear-gradient-111" x1="153.44" y1="69.6" x2="164.79" y2="69.6" xlink:href="#linear-gradient-10"/><linearGradient id="linear-gradient-112" x1="155.71" y1="70.17" x2="165" y2="70.17" xlink:href="#linear-gradient-7"/><linearGradient id="linear-gradient-113" x1="155.83" y1="69.9" x2="164.91" y2="69.9" xlink:href="#linear-gradient-10"/><linearGradient id="linear-gradient-114" x1="144.94" y1="84.01" x2="157.48" y2="84.01" xlink:href="#linear-gradient-7"/><linearGradient id="linear-gradient-115" x1="150.98" y1="75.91" x2="159.95" y2="75.91" xlink:href="#linear-gradient-7"/><linearGradient id="linear-gradient-116" x1="143.65" y1="85.19" x2="153.89" y2="85.19" xlink:href="#linear-gradient-7"/><linearGradient id="linear-gradient-117" x1="146.37" y1="80.73" x2="156.04" y2="80.73" xlink:href="#linear-gradient-10"/><linearGradient id="linear-gradient-118" x1="152.15" y1="69.46" x2="162.4" y2="69.46" xlink:href="#linear-gradient-10"/><linearGradient id="linear-gradient-119" x1="145.74" y1="80.02" x2="155.33" y2="80.02" xlink:href="#linear-gradient-10"/><linearGradient id="linear-gradient-120" x1="148.5" y1="76.15" x2="157.47" y2="76.15" xlink:href="#linear-gradient-10"/><linearGradient id="linear-gradient-121" x1="147.33" y1="74.91" x2="157.46" y2="74.91" xlink:href="#linear-gradient-7"/><linearGradient id="linear-gradient-122" x1="141.26" y1="85.05" x2="152.6" y2="85.05" xlink:href="#linear-gradient-7"/><linearGradient id="linear-gradient-123" x1="141.13" y1="84.75" x2="150.21" y2="84.75" xlink:href="#linear-gradient-7"/><linearGradient id="linear-gradient-124" x1="141.39" y1="82.59" x2="156.04" y2="82.59" xlink:href="#linear-gradient-10"/><linearGradient id="linear-gradient-125" x1="141.05" y1="84.48" x2="150.34" y2="84.48" xlink:href="#linear-gradient-10"/><linearGradient id="linear-gradient-126" x1="146.04" y1="75.4" x2="156.28" y2="75.4" xlink:href="#linear-gradient-7"/><linearGradient id="linear-gradient-127" x1="145.6" y1="76.9" x2="157.47" y2="76.9" xlink:href="#linear-gradient-10"/><linearGradient id="linear-gradient-128" x1="145.23" y1="78.01" x2="154.7" y2="78.01" xlink:href="#linear-gradient-10"/><linearGradient id="linear-gradient-129" x1="145.21" y1="76.26" x2="154.56" y2="76.26" xlink:href="#linear-gradient-10"/><linearGradient id="linear-gradient-130" x1="143.64" y1="75.26" x2="154.99" y2="75.26" xlink:href="#linear-gradient-7"/><linearGradient id="linear-gradient-131" x1="143.52" y1="74.96" x2="152.6" y2="74.96" xlink:href="#linear-gradient-7"/><linearGradient id="linear-gradient-132" x1="143.77" y1="72.03" x2="161.11" y2="72.03" xlink:href="#linear-gradient-10"/><linearGradient id="linear-gradient-133" x1="143.43" y1="74.69" x2="152.73" y2="74.69" xlink:href="#linear-gradient-10"/><linearGradient id="linear-gradient-134" x1="145.96" y1="87.36" x2="160.87" y2="81.52" xlink:href="#linear-gradient-17"/><linearGradient id="linear-gradient-135" x1="141.65" y1="82.96" x2="175.37" y2="82.96" xlink:href="#linear-gradient-10"/><linearGradient id="linear-gradient-136" x1="132.7" y1="80.3" x2="174.75" y2="80.3" xlink:href="#linear-gradient-4"/><linearGradient id="New_Gradient_Swatch_copy_27" x1="7183.7" y1="-193.87" x2="7183.7" y2="-242.11" gradientTransform="matrix(0.87, 0.5, 0, 1.15, -6139.02, -3310.66)" gradientUnits="userSpaceOnUse"><stop offset="0.04" stop-color="#fab371"/><stop offset="0.57" stop-color="#fcaf80"/><stop offset="1" stop-color="#ffaa90"/></linearGradient><radialGradient id="radial-gradient" cx="-574.83" cy="-1255.66" r="22.67" gradientTransform="matrix(-0.81, 0, 0, 0.86, -379.17, 1093.97)" gradientUnits="userSpaceOnUse"><stop offset="0" stop-color="#fff"/><stop offset="0.15" stop-color="#fef1e5"/><stop offset="0.33" stop-color="#fde5ce"/><stop offset="0.52" stop-color="#fcdcbd"/><stop offset="0.73" stop-color="#fcd7b3"/><stop offset="1" stop-color="#fcd5b0"/></radialGradient><linearGradient id="New_Gradient_Swatch_copy_29" x1="-440.74" y1="52.13" x2="-412.25" y2="16.05" gradientTransform="matrix(-1, 0, 0, 1, -346.29, 0)" gradientUnits="userSpaceOnUse"><stop offset="0" stop-color="#14416a"/><stop offset="1" stop-color="#56a5d7"/></linearGradient><linearGradient id="New_Gradient_Swatch_copy_29-2" x1="-444.57" y1="48.91" x2="-416.08" y2="12.82" xlink:href="#New_Gradient_Swatch_copy_29"/><linearGradient id="New_Gradient_Swatch_copy_29-3" x1="-442.18" y1="50.92" x2="-413.71" y2="14.85" xlink:href="#New_Gradient_Swatch_copy_29"/><linearGradient id="New_Gradient_Swatch_copy_29-4" x1="-443.73" y1="49.59" x2="-415.27" y2="13.55" xlink:href="#New_Gradient_Swatch_copy_29"/><linearGradient id="New_Gradient_Swatch_copy_29-5" x1="-446.31" y1="47.49" x2="-417.81" y2="11.39" xlink:href="#New_Gradient_Swatch_copy_29"/><linearGradient id="New_Gradient_Swatch_copy_29-6" x1="-442.59" y1="50.59" x2="-414.06" y2="14.45" xlink:href="#New_Gradient_Swatch_copy_29"/><linearGradient id="New_Gradient_Swatch_copy_29-7" x1="-442.94" y1="50.39" x2="-414.32" y2="14.14" xlink:href="#New_Gradient_Swatch_copy_29"/><linearGradient id="New_Gradient_Swatch_copy_29-8" x1="-440.06" y1="52.92" x2="-411.31" y2="16.49" xlink:href="#New_Gradient_Swatch_copy_29"/><linearGradient id="New_Gradient_Swatch_copy_29-9" x1="-443.75" y1="49.63" x2="-415.26" y2="13.53" xlink:href="#New_Gradient_Swatch_copy_29"/><linearGradient id="New_Gradient_Swatch_copy_29-10" x1="-441.03" y1="51.87" x2="-412.54" y2="15.78" xlink:href="#New_Gradient_Swatch_copy_29"/><linearGradient id="New_Gradient_Swatch_copy_29-11" x1="-445.09" y1="48.49" x2="-416.63" y2="12.44" xlink:href="#New_Gradient_Swatch_copy_29"/><linearGradient id="New_Gradient_Swatch_copy_29-12" x1="-442.47" y1="50.72" x2="-413.97" y2="14.62" xlink:href="#New_Gradient_Swatch_copy_29"/><linearGradient id="New_Gradient_Swatch_copy_29-13" x1="-441.65" y1="51.46" x2="-413.04" y2="15.21" xlink:href="#New_Gradient_Swatch_copy_29"/><linearGradient id="New_Gradient_Swatch_copy_29-14" x1="-445.49" y1="48.25" x2="-416.88" y2="12.01" xlink:href="#New_Gradient_Swatch_copy_29"/><linearGradient id="New_Gradient_Swatch_copy_29-15" x1="-440.65" y1="52.28" x2="-412.05" y2="16.05" xlink:href="#New_Gradient_Swatch_copy_29"/><linearGradient id="New_Gradient_Swatch_copy_29-16" x1="-447.18" y1="46.84" x2="-418.56" y2="10.58" xlink:href="#New_Gradient_Swatch_copy_29"/><linearGradient id="New_Gradient_Swatch_copy_29-17" x1="-443.97" y1="49.47" x2="-415.56" y2="13.49" xlink:href="#New_Gradient_Swatch_copy_29"/><linearGradient id="New_Gradient_Swatch_copy_29-18" x1="-437.58" y1="54.61" x2="-409.17" y2="18.63" xlink:href="#New_Gradient_Swatch_copy_29"/><linearGradient id="New_Gradient_Swatch_copy_29-19" x1="-440.93" y1="52.08" x2="-412.3" y2="15.82" xlink:href="#New_Gradient_Swatch_copy_29"/><linearGradient id="New_Gradient_Swatch_copy_29-20" x1="-439.39" y1="53.11" x2="-410.98" y2="17.13" xlink:href="#New_Gradient_Swatch_copy_29"/><linearGradient id="New_Gradient_Swatch_copy_29-21" x1="-441.85" y1="51.14" x2="-413.4" y2="15.1" xlink:href="#New_Gradient_Swatch_copy_29"/><linearGradient id="New_Gradient_Swatch_copy_29-22" x1="-439.14" y1="53.43" x2="-410.66" y2="17.35" xlink:href="#New_Gradient_Swatch_copy_29"/><linearGradient id="New_Gradient_Swatch_copy_29-23" x1="-446.2" y1="47.62" x2="-417.67" y2="11.48" xlink:href="#New_Gradient_Swatch_copy_29"/><linearGradient id="New_Gradient_Swatch_copy_29-24" x1="-441.51" y1="51.41" x2="-413.03" y2="15.34" xlink:href="#New_Gradient_Swatch_copy_29"/><linearGradient id="New_Gradient_Swatch_copy_29-25" x1="-445.04" y1="48.55" x2="-416.6" y2="12.53" xlink:href="#New_Gradient_Swatch_copy_29"/><linearGradient id="New_Gradient_Swatch_copy_29-26" x1="-438.84" y1="53.82" x2="-410.22" y2="17.56" xlink:href="#New_Gradient_Swatch_copy_29"/><linearGradient id="New_Gradient_Swatch_copy_29-27" x1="-439.74" y1="52.85" x2="-411.29" y2="16.81" xlink:href="#New_Gradient_Swatch_copy_29"/><linearGradient id="New_Gradient_Swatch_copy_29-28" x1="-448.87" y1="45.36" x2="-420.38" y2="9.27" xlink:href="#New_Gradient_Swatch_copy_29"/><linearGradient id="New_Gradient_Swatch_copy_30" x1="-441.33" y1="29.04" x2="-416.05" y2="36.65" gradientTransform="matrix(-1, 0, 0, 1, -346.29, 0)" gradientUnits="userSpaceOnUse"><stop offset="0.04" stop-color="#004f98"/><stop offset="0.13" stop-color="#0f5a9e"/><stop offset="0.31" stop-color="#3876af"/><stop offset="0.55" stop-color="#7aa3c9"/><stop offset="0.86" stop-color="#d3e0ed"/><stop offset="1" stop-color="#fff"/></linearGradient><linearGradient id="New_Gradient_Swatch_copy_30-2" x1="-441.78" y1="30.69" x2="-416.54" y2="38.29" xlink:href="#New_Gradient_Swatch_copy_30"/><linearGradient id="New_Gradient_Swatch_copy_29-29" x1="-443.87" y1="49.51" x2="-415.47" y2="13.54" xlink:href="#New_Gradient_Swatch_copy_29"/><linearGradient id="New_Gradient_Swatch_copy_29-30" x1="-436.51" y1="55.71" x2="-408.02" y2="19.62" xlink:href="#New_Gradient_Swatch_copy_29"/><linearGradient id="New_Gradient_Swatch_copy_29-31" x1="-440.34" y1="52.48" x2="-411.85" y2="16.4" xlink:href="#New_Gradient_Swatch_copy_29"/><linearGradient id="New_Gradient_Swatch_copy_29-32" x1="-437.96" y1="54.49" x2="-409.48" y2="18.43" xlink:href="#New_Gradient_Swatch_copy_29"/><linearGradient id="New_Gradient_Swatch_copy_29-33" x1="-439.89" y1="52.92" x2="-411.3" y2="16.72" xlink:href="#New_Gradient_Swatch_copy_29"/><linearGradient id="New_Gradient_Swatch_copy_29-34" x1="-442.08" y1="51.06" x2="-413.58" y2="14.97" xlink:href="#New_Gradient_Swatch_copy_29"/><linearGradient id="New_Gradient_Swatch_copy_29-35" x1="-439.05" y1="53.58" x2="-410.53" y2="17.45" xlink:href="#New_Gradient_Swatch_copy_29"/><linearGradient id="New_Gradient_Swatch_copy_29-36" x1="-438.69" y1="53.94" x2="-410.07" y2="17.69" xlink:href="#New_Gradient_Swatch_copy_29"/><linearGradient id="New_Gradient_Swatch_copy_29-37" x1="-435.8" y1="56.44" x2="-407.04" y2="20.01" xlink:href="#New_Gradient_Swatch_copy_29"/><linearGradient id="New_Gradient_Swatch_copy_29-38" x1="-439.52" y1="53.2" x2="-411.03" y2="17.11" xlink:href="#New_Gradient_Swatch_copy_29"/><linearGradient id="New_Gradient_Swatch_copy_29-39" x1="-436.62" y1="55.56" x2="-408.17" y2="19.53" xlink:href="#New_Gradient_Swatch_copy_29"/><linearGradient id="New_Gradient_Swatch_copy_29-40" x1="-440.86" y1="52.07" x2="-412.4" y2="16.02" xlink:href="#New_Gradient_Swatch_copy_29"/><linearGradient id="New_Gradient_Swatch_copy_29-41" x1="-441.24" y1="51.8" x2="-412.64" y2="15.57" xlink:href="#New_Gradient_Swatch_copy_29"/><linearGradient id="New_Gradient_Swatch_copy_29-42" x1="-437.35" y1="54.92" x2="-408.89" y2="18.87" xlink:href="#New_Gradient_Swatch_copy_29"/><linearGradient id="New_Gradient_Swatch_copy_29-43" x1="-438.85" y1="53.64" x2="-410.43" y2="17.65" xlink:href="#New_Gradient_Swatch_copy_29"/><linearGradient id="New_Gradient_Swatch_copy_29-44" x1="-436.68" y1="55.63" x2="-408.06" y2="19.37" xlink:href="#New_Gradient_Swatch_copy_29"/><linearGradient id="New_Gradient_Swatch_copy_29-45" x1="-435.01" y1="56.85" x2="-406.59" y2="20.84" xlink:href="#New_Gradient_Swatch_copy_29"/><linearGradient id="New_Gradient_Swatch_copy_29-46" x1="-437.63" y1="54.72" x2="-409.18" y2="18.68" xlink:href="#New_Gradient_Swatch_copy_29"/><linearGradient id="New_Gradient_Swatch_copy_29-47" x1="-434.91" y1="57" x2="-406.43" y2="20.93" xlink:href="#New_Gradient_Swatch_copy_29"/><linearGradient id="New_Gradient_Swatch_copy_29-48" x1="-438.37" y1="54.25" x2="-409.7" y2="17.93" xlink:href="#New_Gradient_Swatch_copy_29"/><linearGradient id="New_Gradient_Swatch_copy_29-49" x1="-437.65" y1="54.81" x2="-409.03" y2="18.56" xlink:href="#New_Gradient_Swatch_copy_29"/><linearGradient id="New_Gradient_Swatch_copy_29-50" x1="-435.52" y1="56.43" x2="-407.07" y2="20.39" xlink:href="#New_Gradient_Swatch_copy_29"/><linearGradient id="New_Gradient_Swatch_copy_29-51" x1="-448.27" y1="46.02" x2="-419.52" y2="9.6" xlink:href="#New_Gradient_Swatch_copy_29"/><linearGradient id="New_Gradient_Swatch_copy_29-52" x1="-446.98" y1="46.83" x2="-418.57" y2="10.85" xlink:href="#New_Gradient_Swatch_copy_29"/><linearGradient id="linear-gradient-137" x1="-445.19" y1="17.45" x2="-411.53" y2="17.45" gradientTransform="matrix(-1, 0, 0, 1, -346.29, 0)" xlink:href="#linear-gradient-4"/><linearGradient id="linear-gradient-138" x1="7182.51" y1="-180.98" x2="7184.16" y2="-218.34" gradientTransform="matrix(0.87, 0.5, 0, 1.15, -6139.02, -3310.66)" gradientUnits="userSpaceOnUse"><stop offset="0" stop-color="#ffaa90"/><stop offset="1" stop-color="#f7947c"/></linearGradient><radialGradient id="radial-gradient-2" cx="-578.38" cy="-1237.23" r="22.24" xlink:href="#radial-gradient"/><linearGradient id="New_Gradient_Swatch_copy_27-2" x1="-420.21" y1="72.83" x2="-438.09" y2="41.51" gradientTransform="matrix(-1, 0, 0, 1, -346.29, 0)" xlink:href="#New_Gradient_Swatch_copy_27"/><radialGradient id="radial-gradient-3" cx="-574.26" cy="-1213.93" r="15.65" xlink:href="#radial-gradient"/></defs><g class="cls-1"><g id="OCR"><g class="cls-2"><polygon class="cls-3" points="77.33 124.85 78.34 124.17 78.11 125.27 77.33 124.85"/><path class="cls-4" d="M78.73,123.2v-7.8a10.42,10.42,0,0,1,4.13-7.86l17.79-16.19a1.08,1.08,0,0,1,1.09-.09l-.69-.44a1.08,1.08,0,0,0-1.09.09L82.16,107.1A10.41,10.41,0,0,0,78,115v10.18l-.7-.31-.59.42,2,1.11,1-1.66A1.65,1.65,0,0,1,78.73,123.2Z"/><path class="cls-5" d="M78.52,116v11l20.3-11.12a7.7,7.7,0,0,0,3.36-6.37V92.88a1.12,1.12,0,0,0-1.74-.92l-17.8,16.19A10.43,10.43,0,0,0,78.52,116Z"/></g><path class="cls-6" d="M70.82,116.57v8.7a1.88,1.88,0,0,0,2.94,1.55l25.18-19.18V92.15a1.26,1.26,0,0,0-2-1L75.48,107.74A10.7,10.7,0,0,0,70.82,116.57Z"/><path class="cls-7" d="M70.82,125.27v-8.7a10.7,10.7,0,0,1,4.66-8.83L97,91.11a1.25,1.25,0,0,1,1.22-.1L53.44,65.15a1.24,1.24,0,0,0-1.23.1L30.72,81.88a10.7,10.7,0,0,0-4.66,8.83v8.7a1.86,1.86,0,0,0,1.23,1.76L71.87,127l0,0A1.85,1.85,0,0,1,70.82,125.27Z"/><path class="cls-8" d="M70.82,125.3v-8.69a10.68,10.68,0,0,1,4.66-8.83L97,91.15a1.22,1.22,0,0,1,.79-.22A1.27,1.27,0,0,0,96,90.65L74.55,107.28a10.71,10.71,0,0,0-4.65,8.83v8.7a1.86,1.86,0,0,0,1.48,1.83A1.84,1.84,0,0,1,70.82,125.3Z"/><polygon class="cls-9" points="77.11 124.53 78.12 123.86 77.89 124.96 77.11 124.53"/><path class="cls-10" d="M78.52,122.89v-7.8a10.43,10.43,0,0,1,4.12-7.87L100.44,91a1.11,1.11,0,0,1,1.08-.09l-.69-.44a1.1,1.1,0,0,0-1.09.09l-17.8,16.19a10.43,10.43,0,0,0-4.12,7.87v10.18l-.7-.32-.58.43,2,1.11.94-1.66A1.65,1.65,0,0,1,78.52,122.89Z"/><path class="cls-11" d="M78.52,115.09v11l20.3-11.12a7.7,7.7,0,0,0,3.36-6.37V92a1.12,1.12,0,0,0-1.74-.93l-17.8,16.19A10.43,10.43,0,0,0,78.52,115.09Z"/><path class="cls-12" d="M74.79,106.74a11.9,11.9,0,0,0-5.19,9.83v7.7l-41.79-24.2-.1,0a.66.66,0,0,1-.44-.62v-8.7a9.5,9.5,0,0,1,4.13-7.83Z"/><path class="cls-13" d="M69.6,114.84v9.43l-41.79-24.2-.1,0a.66.66,0,0,1-.44-.62v-8.7Z"/><path class="cls-14" d="M29,100l-.09,0a.66.66,0,0,1-.44-.62v-8.7a9.45,9.45,0,0,1,4.13-7.82L54.08,66.21l.59-.34-.55-.31-1.23.7L31.4,82.88a9.5,9.5,0,0,0-4.13,7.83v8.7a.66.66,0,0,0,.44.62l.1,0,41.79,24.2v-.73Z"/><path class="cls-15" d="M85.87,95.55l6.2-4.8L53.31,68.15l-6.37,4.91A1.37,1.37,0,0,0,47,75.37L81.87,95.69A3.75,3.75,0,0,0,85.87,95.55Z"/><polygon class="cls-16" points="31.48 96.12 31.48 101.45 65.63 121.28 65.63 115.88 31.48 96.12"/><polygon class="cls-17" points="32.33 101.1 32.33 96.76 31.48 96.27 31.48 101.45 65.63 121.28 65.63 120.43 32.33 101.1"/><path class="cls-18" d="M73.72,94.63a1.79,1.79,0,0,1-1.75.08l-2.85-1.63a.61.61,0,0,1,0-1.11,1.79,1.79,0,0,1,1.75-.08l2.85,1.63A.61.61,0,0,1,73.72,94.63Z"/><path class="cls-18" d="M79.32,97.84a1.77,1.77,0,0,1-1.75.08l-2.85-1.63a.6.6,0,0,1,0-1.1,1.79,1.79,0,0,1,1.75-.09l2.85,1.64A.6.6,0,0,1,79.32,97.84Z"/><path class="cls-19" d="M73.69,93.17l-2.85-1.64a1.79,1.79,0,0,0-1.75.09.6.6,0,0,0,0,1.1L72,94.35a1.77,1.77,0,0,0,1.75-.08A.6.6,0,0,0,73.69,93.17Z"/><path class="cls-20" d="M79.29,96.38l-2.85-1.63a1.79,1.79,0,0,0-1.75.08.6.6,0,0,0,0,1.1l2.85,1.64a1.82,1.82,0,0,0,1.75-.08A.61.61,0,0,0,79.29,96.38Z"/><path class="cls-21" d="M79.32,97.25a1.79,1.79,0,0,1-1.75.08L74.72,95.7a.74.74,0,0,1-.36-.44.61.61,0,0,0,.36.67l2.85,1.64a1.82,1.82,0,0,0,1.75-.08.65.65,0,0,0,.33-.67A.81.81,0,0,1,79.32,97.25Z"/><path class="cls-22" d="M73.72,94a1.82,1.82,0,0,1-1.75.08l-2.85-1.64a.7.7,0,0,1-.36-.43.61.61,0,0,0,.36.67L72,94.35a1.77,1.77,0,0,0,1.75-.08.63.63,0,0,0,.33-.66A.81.81,0,0,1,73.72,94Z"/><polygon class="cls-23" points="20.39 106.45 20.39 108.65 19.46 108.08 19.46 105.89 20.39 106.45"/><polygon class="cls-24" points="20.39 106.45 20.39 108.65 32.24 101.74 32.24 99.55 20.39 106.45"/><polygon class="cls-25" points="32.24 99.55 20.39 106.45 19.46 105.89 31.34 98.97 32.24 99.55"/><polygon class="cls-26" points="50.11 128.11 50.11 129.21 17 110.46 17 109.36 50.11 128.11"/><polygon class="cls-27" points="50.1 128.11 50.1 129.21 65.42 120.27 65.42 119.19 50.1 128.11"/><polygon class="cls-28" points="65.42 119.19 50.1 128.11 17 109.36 32.34 100.43 65.42 119.19"/><polygon class="cls-29" points="53.91 125.84 53.91 128.04 52.98 127.47 52.98 125.27 53.91 125.84"/><polygon class="cls-30" points="53.9 125.84 53.9 128.04 65.76 121.13 65.76 118.93 53.9 125.84"/><polygon class="cls-31" points="65.76 118.93 53.9 125.84 52.98 125.27 64.85 118.36 65.76 118.93"/><polygon class="cls-32" points="89.96 74.44 89.96 91.89 51.59 70.17 51.59 52.71 89.96 74.44"/><polygon class="cls-33" points="89.95 74.44 89.95 91.89 90.98 91.34 90.98 73.89 89.95 74.44"/><polygon class="cls-34" points="90.98 73.89 89.95 74.44 51.59 52.71 52.65 52.16 90.98 73.89"/><polygon class="cls-35" points="87.1 76.71 87.1 92.01 53.95 73.23 53.95 57.94 87.1 76.71"/><polygon class="cls-36" points="34.63 136.33 3.31 118.25 33.43 100.29 64.75 118.38 34.63 136.33"/><polygon class="cls-37" points="34.7 135.55 3.38 117.47 33.42 100.24 64.75 118.33 34.7 135.55"/><path class="cls-38" d="M48.38,111.22l-.56.33,1.13.65.57-.32Zm-5.9-1.36L50,114.21l.56-.33L43,109.54Zm2.19,2-.56.33,3.2,1.84.56-.32Zm-3.48,0,5.74,3.31.56-.33-5.74-3.3ZM56,115.6l-6-3.44-.57.32,6,3.44Zm-3.06,1L48.36,114l-.57.32L52.36,117ZM36.67,106.5,42,109.58l.56-.32-5.31-3.09Zm4,5.13.57-.33-2.5-1.45-.56.32Zm.41-3.95,6.22,3.58.57-.32-6.23-3.59Zm3.07,3.91-5.21-3-.57.32,5.22,3Zm-5.7-3.3L32.81,105l-.56.33,5.67,3.28Zm-1.73-2.4L34,104.3l-.56.33,2.73,1.59ZM55.9,116.2l2,1.17.56-.33-2-1.16ZM31.13,106.07l6.59,3.82.56-.32-6.59-3.82Zm19.37,8.42,6.21,3.58.57-.33-6.21-3.57Zm2.34,2.75,2.66,1.53.57-.33-2.66-1.53Zm-5.06-1.53,6.51,3.75.57-.32-6.51-3.75Z"/><path class="cls-38" d="M42.31,114.61l-.57.33,1.14.65.56-.32Zm-5.91-1.36,7.54,4.35.56-.32L37,112.93Zm2.19,2-.56.32,3.2,1.84.57-.32Zm-3.48,0,5.74,3.31.57-.33L35.68,115ZM49.9,119l-6-3.44-.57.32,6,3.44Zm-3.06,1-4.56-2.63-.56.32,4.56,2.64ZM30.6,109.89,35.91,113l.57-.32-5.32-3.09Zm-2.27,2.88,7.73,4.47.56-.32-7.73-4.48Zm8.21,4.76,5.74,3.3.56-.33-5.73-3.3ZM34.63,115l.56-.32-2.5-1.46-.56.33Zm.4-4,6.23,3.59.56-.33-6.22-3.59ZM38.11,115l-5.22-3-.56.33,5.21,3Zm-5.71-3.3-5.66-3.29-.57.33L31.84,112Zm-1.73-2.4L28,107.69l-.57.33,2.73,1.59Zm19.15,10.31,2,1.17.57-.33-2-1.16Zm-22-7.1.56-.33-4.08-2.37-.57.32Zm-2.79-3,6.59,3.82.57-.32-6.6-3.82Zm17.72,11.65L47,123.55l.56-.32-4.24-2.44Zm1.66-3.23,6.21,3.58.56-.33L45,117.56Zm2.34,2.75,2.66,1.53.56-.33-2.66-1.53ZM41.7,119.1l6.52,3.75.56-.32-6.51-3.75Zm-6.76-1.74-.56.32,3.2,1.84.56-.32Zm-3.48,0,5.74,3.31.56-.33L32,117.07Zm11.73,4.72-4.56-2.63-.56.32,4.56,2.64Zm-12.21-5,.56-.32L29,115.33l-.56.32Zm3.48,0-5.22-3-.56.33,5.21,3Zm-5.71-3.3-5.66-3.29-.57.33,5.67,3.28Zm-7.35-2.22L28,115.37l.57-.32L22,111.23Zm21.72,11.17,2.66,1.53.56-.33-2.66-1.53Zm-5.07-1.53,6.52,3.75.56-.32-6.51-3.75Z"/><path class="cls-38" d="M18.77,115.07l-.56.32,2,1.17.56-.32Zm-3.11.25L20.22,118l.57-.33L16.23,115Zm10.19,3.83-4.56-2.63-.57.32,4.56,2.64Zm-5.47,1-4.8-2.77-.56.33,4.8,2.77Zm5.39-.43,1.25.72.57-.33-1.26-.72Zm-5.06-1.53,5.1,3,.57-.33-5.11-2.94Z"/><path class="cls-39" d="M96.06,162.45,67.72,145.92c-1.83-1.06-1.6-2.9.51-4.12L111,117.12a8,8,0,0,1,7.14-.3l28.34,16.53c1.83,1.06,1.6,2.9-.51,4.12L103.2,162.15A8,8,0,0,1,96.06,162.45Z"/><path class="cls-40" d="M141.83,128.49a2.09,2.09,0,0,0-1.18-1.54l-3.48-2.13.74-.27c1.64-.61,1.84-1.87.33-2.83a7.57,7.57,0,0,0-5.84-.65l-.84.31-3.49-2.13a7.6,7.6,0,0,0-2.84-.93,7.44,7.44,0,0,0-3.33.27l-3.06,1.14L137.4,131.1l3.06-1.14C141.35,129.63,141.85,129.09,141.83,128.49ZM134,123.25c-.71-.43-.67-1,.08-1.29a3.46,3.46,0,0,1,2.65.29c.71.43.68,1-.08,1.29A3.47,3.47,0,0,1,134,123.25Z"/><path class="cls-41" d="M96.26,161.87,67.9,145.33c-1.82-1.05-1.59-2.89.51-4.1l42.66-24.62a7.9,7.9,0,0,1,7.1-.29l28.35,16.54c1.82,1,1.59,2.88-.51,4.09l-42.65,24.62A7.87,7.87,0,0,1,96.26,161.87Z"/><path class="cls-18" d="M96.26,161.28,67.9,144.74c-1.82-1.05-1.59-2.88.51-4.09L111.07,116a7.87,7.87,0,0,1,7.1-.3l28.35,16.54c1.82,1,1.59,2.89-.51,4.1L103.36,161A7.9,7.9,0,0,1,96.26,161.28Z"/><polygon class="cls-42" points="99.11 158.86 69.93 139.12 115.68 116.88 144.86 136.62 99.11 158.86"/><polygon class="cls-43" points="99.66 158.25 70.48 138.51 116.23 116.27 145.41 136.01 99.66 158.25"/><polygon class="cls-44" points="99.34 159.51 68.52 141.72 113.02 116.02 143.84 133.82 99.34 159.51"/><polygon class="cls-45" points="99.83 158.79 69.32 141.18 113.37 115.75 143.88 133.36 99.83 158.79"/><path class="cls-46" d="M141.67,128.13a2.23,2.23,0,0,0-1.24-1.6l-3.48-2,.69-.4c1.53-.89,1.64-2.34.13-3.25a6.16,6.16,0,0,0-5.65,0l-.78.45-3.48-2a6,6,0,0,0-2.78-.71,6.15,6.15,0,0,0-3.18.7l-2.85,1.34,18.55,10.71,2.85-1.34A2,2,0,0,0,141.67,128.13Zm-7.91-5a.78.78,0,0,1,0-1.48,2.85,2.85,0,0,1,2.56,0c.71.41.71,1.07,0,1.47A2.82,2.82,0,0,1,133.76,123.12Z"/><path class="cls-47" d="M141.46,127.52a2.19,2.19,0,0,0-1.24-1.61l-3.48-2,.69-.39c1.54-.89,1.65-2.35.13-3.25a6.17,6.17,0,0,0-5.64-.05l-.78.46-3.48-2a6.54,6.54,0,0,0-6,0l-2.85,1.66L137.39,131l2.85-1.67A2,2,0,0,0,141.46,127.52Zm-7.9-5a.78.78,0,0,1,0-1.48,2.85,2.85,0,0,1,2.56,0,.78.78,0,0,1,0,1.48A2.82,2.82,0,0,1,133.56,122.51Z"/><path class="cls-48" d="M136.11,120.75a2.85,2.85,0,0,0-2.56,0,.84.84,0,0,0-.51.88,1,1,0,0,1,.51-.59,2.85,2.85,0,0,1,2.56,0,1,1,0,0,1,.51.6C136.7,121.32,136.53,121,136.11,120.75Z"/><path class="cls-49" d="M137.44,123.22l-.7.4.25.14.45-.25a2,2,0,0,0,1.19-1.85A2.12,2.12,0,0,1,137.44,123.22Z"/><path class="cls-50" d="M140.24,129.07l-2.85,1.66-18.3-10.56-.24.14L137.39,131l2.85-1.67a2,2,0,0,0,1.22-1.83v0A2.18,2.18,0,0,1,140.24,129.07Z"/><polygon class="cls-51" points="138.09 128.94 121.83 119.56 122.53 119.16 138.79 128.55 138.09 128.94"/><polygon class="cls-52" points="137.93 129.15 121.67 119.76 122.36 119.36 138.62 128.75 137.93 129.15"/><path class="cls-38" d="M121.39,128.38l.75-.43-1.51-.87-.75.43Zm6.3.92-8.47-4.9-.75.44,8.47,4.89Zm-14.53-5.67,6.07,3.51.75-.44-6.07-3.5Zm20.44,9.08-5.26-3-.75.43,5.26,3Zm-4.09-.51-6.72-3.88-.75.44,6.72,3.88Zm4,1.31,1.57.91.75-.43-1.57-.91Zm-20.23-10.68-2.69-1.56-.75.44,2.69,1.55Zm5.3,1.2-6.38-3.69-.75.44,6.38,3.68Z"/><path class="cls-38" d="M120.62,130.49l-.57.33,1.14.65.56-.32Zm-5.91-1.36,7.54,4.35.56-.32-7.54-4.35Zm2.19,2-.56.32,3.2,1.84.56-.32Zm-3.48,0,5.74,3.31.56-.33-5.73-3.3Zm14.79,3.69-6-3.44-.57.32,6,3.44Zm-3.06,1-4.56-2.63-.56.32,4.56,2.64ZM108.9,125.77l5.32,3.08.56-.32-5.31-3.08Zm-2.26,2.88,7.73,4.48.56-.33-7.73-4.48Zm8.21,4.76,5.74,3.3.56-.32-5.73-3.31Zm-1.91-2.51.56-.32-2.5-1.46-.56.33Zm.4-4,6.22,3.59.57-.33-6.22-3.59Zm3.07,3.91-5.21-3-.57.33,5.22,3Zm-5.7-3.3-5.66-3.29-.57.33,5.67,3.29Zm-1.73-2.4-2.73-1.59-.56.33,2.73,1.59Zm19.15,10.31,2,1.17.57-.32-2-1.17Zm-22-7.1.56-.33-4.08-2.37-.57.32Zm-2.79-3,6.59,3.82.56-.32L103.92,125ZM121.08,137l4.24,2.44.56-.32-4.24-2.44Zm1.66-3.23,6.2,3.58.57-.33-6.21-3.57Zm2.33,2.75,2.66,1.53.57-.33-2.66-1.53ZM120,135l6.52,3.75.56-.32-6.51-3.75Z"/><path class="cls-38" d="M113.67,134.49l-.57.32,1.14.66.56-.33Zm-5.91-1.36,7.54,4.35.56-.33-7.54-4.35Zm2.19,2-.56.33,3.2,1.84.56-.33Zm-3.48,0,5.74,3.3.56-.32L107,134.85Zm14.79,3.68-6-3.44-.57.33,6,3.44Zm-3.06,1-4.56-2.64-.56.33,4.56,2.63ZM102,129.77l5.32,3.08.57-.33-5.32-3.08Zm4,5.13.56-.33-2.5-1.45-.56.32Zm.4-4,6.23,3.58.56-.32L107,130.62Zm3.08,3.91-5.22-3-.56.32,5.21,3Zm-5.71-3.31-5.66-3.28-.57.32,5.67,3.29ZM102,129.16l-2.73-1.59-.56.33,2.73,1.59Zm19.15,10.31,2,1.17.57-.33-2-1.17ZM96.41,129.34l6.59,3.82.56-.33L97,129Zm19.38,8.42,6.2,3.57.57-.32-6.21-3.58Zm2.34,2.74,2.66,1.53.56-.32-2.66-1.53ZM113.06,139l6.52,3.75.56-.33-6.51-3.75Z"/><path class="cls-38" d="M107.59,137.88l-.56.32,1.13.66.56-.33Zm-5.91-1.36,7.54,4.35.57-.33-7.54-4.34Zm2.2,2-.57.33,3.2,1.84.57-.33Zm-3.48,0,5.73,3.3.57-.32L101,138.24Zm14.78,3.68-6-3.44-.56.33,6,3.44Zm-3.05,1-4.57-2.64L107,141l4.56,2.63ZM95.88,133.16l5.31,3.08.57-.33-5.32-3.08ZM93.61,136l7.73,4.48.56-.32-7.73-4.48Zm8.22,4.76,5.73,3.31.57-.33-5.74-3.3Zm-1.92-2.5.56-.33L98,136.51l-.57.32Zm.41-3.95,6.22,3.58.56-.32L100.88,134Zm3.07,3.91-5.22-3-.56.32,5.21,3Zm-5.7-3.3L92,131.66l-.57.32,5.67,3.29ZM96,132.55,93.23,131l-.57.33,2.73,1.59Zm19.15,10.31,2,1.17.56-.33-2-1.17Zm-22-7.11.57-.32-4.09-2.38-.56.33Zm-2.79-3,6.59,3.82.57-.32L90.9,132.4Zm17.72,11.65,4.24,2.44.57-.33-4.25-2.44Zm1.66-3.23,6.21,3.57.56-.32-6.21-3.58Zm2.34,2.75,2.66,1.52.56-.32-2.66-1.53ZM107,142.37l6.51,3.75.56-.32L107.55,142Zm-6.77-1.75-.56.33,3.2,1.84.57-.33Zm-3.47,0,5.73,3.3.57-.32-5.74-3.31Zm11.73,4.72-4.57-2.64-.56.33,4.56,2.63Zm-12.22-5,.56-.33-2.5-1.45-.56.32Zm3.48,0-5.22-3-.56.32,5.21,3ZM94,137l-5.66-3.29-.57.32,5.67,3.29Zm-7.35-2.22,6.59,3.82.57-.32-6.6-3.83ZM108.4,146l2.66,1.52.56-.32L109,145.66Zm-5.06-1.53,6.51,3.75.56-.33-6.51-3.75Z"/><path class="cls-38" d="M84.05,138.33l-.56.33,2,1.17.56-.33Zm-3.11.25,4.57,2.64.56-.33-4.56-2.63Zm10.19,3.84-4.56-2.64-.57.33,4.57,2.63Zm-5.47,1-4.79-2.77-.57.33,4.8,2.77Z"/><path class="cls-53" d="M106,147.72a.12.12,0,0,0-.14-.09l-.9.16.1-.16a7.68,7.68,0,0,0-5-.75c-1.72.3-3,1.13-3.42,2.17l.22.08c.35-1,1.6-1.74,3.24-2a7.54,7.54,0,0,1,4.84.7l-9,1.58a.11.11,0,0,0-.1.13.12.12,0,0,0,.12.1h0l9.92-1.74A.12.12,0,0,0,106,147.72Zm1.14,2.07-3.56.62a.13.13,0,0,0-.09.14.12.12,0,0,0,.11.09h0l2.59-.46c-.32,1-1.57,1.81-3.27,2.11a7.57,7.57,0,0,1-4.8-.68l4.43-.76a.12.12,0,0,0,0-.23l-5.31.91a.12.12,0,0,0-.1.14.12.12,0,0,0,.12.09h0l.84-.14-.11.17a7.3,7.3,0,0,0,3.54.85,7.9,7.9,0,0,0,1.45-.13c1.8-.31,3.12-1.19,3.46-2.28l-.18,0,.92-.17a.11.11,0,0,0,.1-.13A.11.11,0,0,0,107.11,149.79Zm.84-1.27c-.9-1.67-3.52-2.8-6.52-2.8a11.73,11.73,0,0,0-2,.17c-2.2.39-3.9,1.4-4.53,2.7a2.43,2.43,0,0,0,.06,2.28c.9,1.67,3.52,2.8,6.52,2.8a11.61,11.61,0,0,0,2-.17c2.21-.39,3.91-1.4,4.54-2.7A2.42,2.42,0,0,0,108,148.52Zm-.15,2.18c-.6,1.23-2.23,2.19-4.37,2.57a11.06,11.06,0,0,1-1.92.17c-2.87,0-5.47-1.1-6.31-2.68a2.17,2.17,0,0,1-.06-2.07c.6-1.23,2.23-2.19,4.36-2.57a11.26,11.26,0,0,1,1.93-.17c2.87,0,5.47,1.1,6.31,2.68A2.17,2.17,0,0,1,107.8,150.7Zm-6.37-4.6a9.69,9.69,0,0,0-1.79.16c-2,.35-3.55,1.26-4.12,2.44a2.16,2.16,0,0,0,0,2.05c.82,1.52,3.2,2.54,5.94,2.54a9.77,9.77,0,0,0,1.79-.16c2-.35,3.55-1.26,4.12-2.44a2.16,2.16,0,0,0,0-2.05C106.55,147.12,104.17,146.1,101.43,146.1Zm5.89,4.54c-.56,1.14-2.07,2-4,2.38a10.49,10.49,0,0,1-1.77.15c-2.65,0-5.05-1-5.84-2.47a2.07,2.07,0,0,1,0-1.95c.56-1.14,2.07-2,4-2.38a10.4,10.4,0,0,1,1.77-.15c2.65,0,5,1,5.84,2.47A2.07,2.07,0,0,1,107.32,150.64Z"/><path class="cls-54" d="M98.33,150.74a.13.13,0,0,1-.14-.11.14.14,0,0,1,.11-.16l6.94-1.32a.15.15,0,0,1,.17.12.14.14,0,0,1-.11.16l-6.94,1.31Z"/><path class="cls-55" d="M99,149.83a.14.14,0,0,1-.14-.12.14.14,0,0,1,.11-.16l5-1a.13.13,0,0,1,.17.11.14.14,0,0,1-.11.16l-5.06,1Z"/><path class="cls-41" d="M80,145.94h-.1a.26.26,0,0,1-.23-.21c-.3-1.2.12-2.51,1.27-4a2,2,0,0,0-.55-.65l-.31-.23a2.4,2.4,0,0,1-.41.89.28.28,0,0,1-.22.11h-.06a.25.25,0,0,1-.21-.21,4.15,4.15,0,0,1-.12-2.05,2.32,2.32,0,0,1,.45-.83l-.83.13a3.83,3.83,0,0,1-.24,3.11.25.25,0,0,1-.12.11,1.9,1.9,0,0,1-.85.19,2.18,2.18,0,0,1-.44,0,5.32,5.32,0,0,1-.6,2.26.27.27,0,0,1-.24.15,1.28,1.28,0,0,1-1-.67,2.06,2.06,0,0,1-.18-.94c0-.76,0-1.52,0-2.27a2.77,2.77,0,0,1-.49-1.09s0-.06-.07-.12a3.16,3.16,0,0,1-.34-1.44,2.68,2.68,0,0,0-.3-1.23l-.07-.15.5-.24.08.15a3.22,3.22,0,0,1,.34,1.45c0,.12,0,.24,0,.37a.3.3,0,0,1,.15-.07l.52-.06a.31.31,0,0,1,.21.07.27.27,0,0,1,.09.22c0,.45,0,.9-.07,1.34a.87.87,0,0,0,.26,0,1.74,1.74,0,0,1,.62.17.94.94,0,0,1,.43.65,4.6,4.6,0,0,1,.14.84,2.3,2.3,0,0,0,.45.05,1.42,1.42,0,0,0,.52-.09,3.3,3.3,0,0,0,.05-2.88.25.25,0,0,1,0-.24.26.26,0,0,1,.2-.14l2.62-.39a.29.29,0,0,1,.31.23.29.29,0,0,1-.23.32,1.73,1.73,0,0,0-1.35,1.18.25.25,0,0,1,.17-.06h0a.28.28,0,0,1,.28.2l.06.27a2.09,2.09,0,0,0,.43.37l.2.14a2.79,2.79,0,0,1,.57.62l.18-.21.66-.74c.44-.5.9-1,1.3-1.54a2.09,2.09,0,0,1,.49-.71.76.76,0,0,1,.25.08,19,19,0,0,1-1.63,2.54l-.65.73-.33.4a2.76,2.76,0,0,1,.13,1.22,6.8,6.8,0,0,1-.85,2.3A1,1,0,0,1,80,145.94Zm1.15-3.58a4.22,4.22,0,0,0-1,3,.75.75,0,0,0,.2-.27,6.5,6.5,0,0,0,.8-2.11A2.32,2.32,0,0,0,81.12,142.36Zm-5.62-1c0,.55,0,1.09,0,1.63a1.64,1.64,0,0,0,.11.7.76.76,0,0,0,.4.33,4.81,4.81,0,0,0,.45-2A3.19,3.19,0,0,1,75.5,141.39Zm0-.81c.1.13.2.24.27.32a3.28,3.28,0,0,0,.61.5,3.12,3.12,0,0,0-.09-.44c0-.18-.09-.26-.17-.31a1,1,0,0,0-.4-.09l-.22,0Zm4-.38c0,.14,0,.28,0,.42a1.88,1.88,0,0,0,0-.34A.2.2,0,0,1,79.5,140.2ZM75,138.92a1.5,1.5,0,0,0,0,.6l0-.6Z"/><path class="cls-56" d="M82,137.9c.51.27,2.08.66,2.35.15s-.86-1.71-1.36-2a1,1,0,0,0-1,1.83Z"/><path class="cls-57" d="M73.1,136c-2.66-1.41.9-8.27,3.81-6.59S83,135.46,83,135.46h0a1.46,1.46,0,0,1,.06,1.78,1.39,1.39,0,0,1-1.52.93h0S75.77,137.39,73.1,136Z"/><path class="cls-58" d="M74.87,135.29c-1.85-1-.69-4.61,1.18-6.15-2.69-.13-5.35,5.58-3,6.85,2.67,1.4,8.48,2.18,8.48,2.18h0a1.34,1.34,0,0,0,1.42-.75C81.72,137.23,77.15,136.48,74.87,135.29Z"/><path class="cls-59" d="M66.5,132.52l3.65-6.77L77,129.39h0c1.09.59,1.16,2.58.15,4.45s-2.71,2.91-3.8,2.32l0,0h0Z"/><path class="cls-60" d="M82.51,135.4h0s-1.93-1.93-4-3.78a5.1,5.1,0,0,1-.42,1.7c2,1.4,4,2.68,4,2.68h0c.6.37.81.42.93.26S82.92,135.79,82.51,135.4Z"/><path class="cls-61" d="M75.12,135.48l0,0h0l-6.82-3.64-1.77.7,6.82,3.64h0l0,0a2.23,2.23,0,0,0,2.36-.54A1.39,1.39,0,0,1,75.12,135.48Z"/><path class="cls-62" d="M66.51,132.53c1.09.58,2.79-.46,3.8-2.32s.94-3.87-.15-4.45-2.79.45-3.8,2.32S65.42,131.94,66.51,132.53Z"/><path class="cls-63" d="M53.87,124.6l3.65-6.77,24.94,13.44h0c1.09.59,1.15,2.58.15,4.45s-2.71,2.91-3.8,2.32h0Z"/><path class="cls-64" d="M80.61,137.35h0L55.64,123.9l3-5.49-1.08-.58-3.65,6.77L78.81,138h0a2.17,2.17,0,0,0,2.35-.54A1.33,1.33,0,0,1,80.61,137.35Z"/><path class="cls-65" d="M41.94,136c1.09.59,2.79-.45,3.8-2.32s.94-3.86-.15-4.45-2.79.46-3.79,2.32S40.86,135.44,41.94,136Z"/><path class="cls-66" d="M41.93,136Z"/><path class="cls-66" d="M41.93,136Z"/><path class="cls-67" d="M45.58,133.68c1-1.87.94-3.86-.15-4.45l-.07,0a1.27,1.27,0,0,1,.36.12c1.09.59,1.15,2.58.15,4.45s-2.63,2.86-3.72,2.36C43.22,136.36,44.68,135.35,45.58,133.68Z"/><path class="cls-68" d="M38,133.1,41,127.35l3.88,2.15h0c.92.5,1,2.19.12,3.77s-2.29,2.47-3.22,2h0Z"/><path class="cls-69" d="M38,133.1c.92.5,2.37-.38,3.22-2s.8-3.27-.12-3.77-2.37.38-3.23,2S37,132.6,38,133.1Z"/><polygon class="cls-70" points="41.05 127.36 41.04 127.35 41.04 127.35 41.05 127.36"/><polygon class="cls-70" points="41.05 127.36 41.04 127.35 41.04 127.35 41.05 127.36"/><path class="cls-71" d="M41.05,131.07c.78-1.45.8-3,.1-3.61l.06,0c.93.5,1,2.19.13,3.78s-2.3,2.47-3.22,2a1.88,1.88,0,0,1-.23-.16C38.82,133.5,40.22,132.62,41.05,131.07Z"/><path class="cls-72" d="M58.3,121.58l24.49,13.07a4.5,4.5,0,0,0,.25-1.78l-24.37-13A5.38,5.38,0,0,1,58.3,121.58Z"/><path class="cls-73" d="M41.67,130.75l3.41,1.82a3.82,3.82,0,0,0,.31-1.57.77.77,0,0,0,0-.15l-3.31-1.77A4.91,4.91,0,0,1,41.67,130.75Z"/><path class="cls-74" d="M71,129.47l6.26,3.33a4.68,4.68,0,0,0,.28-1.64s0-.08,0-.12l-6.2-3.31A5.17,5.17,0,0,1,71,129.47Z"/><g class="cls-1"><path class="cls-75" d="M133.8,59.3a17.7,17.7,0,0,0,1.76-1.16l8.95,5.2a17.86,17.86,0,0,1-1.76,1.17Z"/><path class="cls-76" d="M132.17,60.09a12.08,12.08,0,0,0,1.63-.79l8.95,5.21a11.53,11.53,0,0,1-1.63.79Z"/><polygon class="cls-77" points="141.12 65.3 132.17 60.09 131.28 56.95 140.24 62.16 141.12 65.3"/><polygon class="cls-78" points="129.16 86.84 120.2 81.63 120.17 72.28 129.13 77.49 129.16 86.84"/><polygon class="cls-79" points="134.1 69.35 125.15 64.15 126.04 59.98 135 65.19 134.1 69.35"/><polygon class="cls-80" points="135 65.19 126.04 59.98 131.28 56.95 140.24 62.16 135 65.19"/><path class="cls-81" d="M131,71.16,122,66a11.73,11.73,0,0,0,1.61-.77,17.08,17.08,0,0,0,1.52-1l8.95,5.2a13.18,13.18,0,0,1-1.52,1A11.28,11.28,0,0,1,131,71.16Z"/><path class="cls-82" d="M138.58,48.44l-9-5.21.93-.42L139.5,48A8.75,8.75,0,0,0,138.58,48.44Z"/><polygon class="cls-83" points="144.51 63.34 135.56 58.14 130.55 42.81 139.5 48.02 144.51 63.34"/><polygon class="cls-84" points="135.73 61.7 126.78 56.49 130.52 54.33 139.47 59.54 135.73 61.7"/><polygon class="cls-85" points="139.47 59.54 130.52 54.33 128.67 47.74 137.63 52.95 139.47 59.54"/><polygon class="cls-86" points="135.73 61.7 126.78 56.49 128.67 47.74 137.63 52.95 135.73 61.7"/><path class="cls-87" d="M136.8,49.46l-9-5.2a10.58,10.58,0,0,1,.92-.57l.85-.46,9,5.21c-.28.13-.56.29-.85.45Z"/><polygon class="cls-88" points="130.97 71.16 122.02 65.95 126.97 44.88 135.92 50.09 130.97 71.16"/><path class="cls-89" d="M135.92,50.09l-9-5.21c.31-.23.6-.44.89-.62l9,5.2C136.52,49.65,136.23,49.85,135.92,50.09Z"/><path class="cls-90" d="M153.1,35.62c1-.6,1.89-.11,1.89,1.09l.07,23.62a4.17,4.17,0,0,1-1.88,3.27l-16,9.26-8,14,0-9.35-5.82,3.36c-1,.6-1.9.11-1.9-1.09l-.07-23.62a4.2,4.2,0,0,1,1.9-3.28ZM142.75,64.51a17.86,17.86,0,0,0,1.76-1.17L139.5,48a8.75,8.75,0,0,0-.92.42c-.28.13-.56.29-.85.45l-.93.57c-.28.19-.57.39-.88.63L131,71.16a11.28,11.28,0,0,0,1.61-.78,13.18,13.18,0,0,0,1.52-1l.9-4.16,5.24-3,.88,3.14a11.53,11.53,0,0,0,1.63-.79Z"/><polygon class="cls-91" points="135.73 61.7 137.63 52.95 139.47 59.54 135.73 61.7"/><path class="cls-92" d="M139.5,48l5,15.32a17.86,17.86,0,0,1-1.76,1.17,11.53,11.53,0,0,1-1.63.79l-.88-3.14-5.24,3-.9,4.16a13.18,13.18,0,0,1-1.52,1,11.28,11.28,0,0,1-1.61.78l4.95-21.07c.31-.24.6-.44.88-.63l.93-.57c.29-.16.57-.32.85-.45A8.75,8.75,0,0,1,139.5,48ZM135.73,61.7l3.74-2.16L137.63,53l-1.9,8.75Z"/><path class="cls-93" d="M145.48,30.29a1.33,1.33,0,0,0-1.34.13L114.28,47.66a4.13,4.13,0,0,0-1.89,3.27l.06,23.63a1.35,1.35,0,0,0,.56,1.21L122,81a1.33,1.33,0,0,1-.55-1.22l-.07-23.62a4.2,4.2,0,0,1,1.9-3.28L153.1,35.62a1.33,1.33,0,0,1,1.34-.13Z"/></g><g class="cls-1"><path class="cls-94" d="M156,83.3c.1-.06.15-.23.1-.48l9,5.21c0,.24,0,.41-.11.47Z"/><path class="cls-95" d="M155.75,83.27a.25.25,0,0,0,.26,0l9,5.2a.24.24,0,0,1-.25,0Z"/><polygon class="cls-96" points="159.97 85.78 151.01 80.58 155.74 83.26 164.7 88.47 159.97 85.78"/><path class="cls-97" d="M164.7,88.47h0l-9-5.21h0Z"/><polygon class="cls-98" points="167.69 101.05 158.73 95.85 150.69 91.12 159.65 96.32 167.69 101.05"/><polygon class="cls-99" points="165.07 88.03 156.11 82.82 155.6 79.82 164.56 85.03 165.07 88.03"/><polygon class="cls-100" points="162.05 82.94 153.09 77.73 154.97 78.8 163.93 84.01 162.05 82.94"/><path class="cls-101" d="M164.56,85l-9-5.21a1.56,1.56,0,0,0-.63-1l9,5.21A1.61,1.61,0,0,1,164.56,85Z"/><polygon class="cls-102" points="162.05 82.94 153.09 77.73 158.15 74.81 167.1 80.02 162.05 82.94"/><polygon class="cls-103" points="164.84 78.93 155.88 73.73 158.27 74.28 167.22 79.48 164.84 78.93"/><path class="cls-104" d="M158.39,74.32l9,5.21c.17.1.08.3-.25.49l-8.95-5.21C158.47,74.62,158.57,74.42,158.39,74.32Z"/><path class="cls-105" d="M158.39,74.32l9,5.21-.13,0-8.95-5.2A.34.34,0,0,1,158.39,74.32Z"/><polygon class="cls-106" points="157.91 91.65 148.95 86.44 150.61 82.74 159.57 87.94 157.91 91.65"/><path class="cls-107" d="M159.57,87.94l-9-5.2A4.92,4.92,0,0,0,151,81l9,5.21A5.15,5.15,0,0,1,159.57,87.94Z"/><polygon class="cls-108" points="157.5 91.73 148.54 86.53 148.53 80.37 157.48 85.57 157.5 91.73"/><path class="cls-109" d="M157.57,92l-8.95-5.2a.06.06,0,0,0,.07,0,.92.92,0,0,0,.26-.39l9,5.21a.86.86,0,0,1-.25.38A.08.08,0,0,1,157.57,92Z"/><path class="cls-110" d="M157.57,92l-8.95-5.2c-.05,0-.08-.13-.08-.31l9,5.2C157.5,91.91,157.53,92,157.57,92Z"/><polygon class="cls-111" points="159.97 86.23 151.01 81.02 151.01 80.58 159.97 85.78 159.97 86.23"/><path class="cls-112" d="M163.54,79.22l-9-5.21a2.26,2.26,0,0,1,1.31-.28l9,5.2A2.25,2.25,0,0,0,163.54,79.22Z"/><polygon class="cls-113" points="159.96 81.29 151 76.08 154.58 74.01 163.54 79.22 159.96 81.29"/><polygon class="cls-114" points="159.94 75.74 150.98 70.54 155.71 67.81 164.66 73.02 159.94 75.74"/><polygon class="cls-115" points="162.4 71.93 153.44 66.73 155.83 67.27 164.79 72.47 162.4 71.93"/><path class="cls-116" d="M156,67.32l8.95,5.2c.18.1.09.3-.25.5l-8.95-5.21C156,67.62,156.13,67.42,156,67.32Z"/><path class="cls-117" d="M156,67.32l8.95,5.2-.12,0-9-5.21A.32.32,0,0,1,156,67.32Z"/><polygon class="cls-118" points="153.89 87.64 144.94 82.44 148.53 80.37 157.48 85.57 153.89 87.64"/><polygon class="cls-119" points="159.96 81.29 151 76.08 150.98 70.54 159.94 75.74 159.96 81.29"/><path class="cls-120" d="M152.6,87.92l-8.95-5.2a2.08,2.08,0,0,0,1.29-.28l8.95,5.2A2.06,2.06,0,0,1,152.6,87.92Z"/><polygon class="cls-121" points="156.04 83.55 147.09 78.34 146.37 77.92 155.33 83.13 156.04 83.55"/><path class="cls-122" d="M161.11,72.21l-9-5.2a2.07,2.07,0,0,1,1.29-.28l9,5.2A2.06,2.06,0,0,0,161.11,72.21Z"/><path class="cls-123" d="M155.33,83.13l-9-5.21a1.61,1.61,0,0,1-.63-1l9,5.21A1.6,1.6,0,0,0,155.33,83.13Z"/><polygon class="cls-124" points="157.47 80.33 148.51 75.12 148.5 71.97 157.46 77.17 157.47 80.33"/><polygon class="cls-125" points="156.28 77.85 147.33 72.65 148.5 71.97 157.46 77.17 156.28 77.85"/><polygon class="cls-126" points="150.21 87.38 141.26 82.17 143.65 82.72 152.6 87.92 150.21 87.38"/><path class="cls-127" d="M150.09,87.33l-9-5.2a.25.25,0,0,0,.13,0l9,5.21A.33.33,0,0,1,150.09,87.33Z"/><polygon class="cls-128" points="150.34 86.84 141.39 81.63 147.09 78.34 156.04 83.55 150.34 86.84"/><path class="cls-129" d="M150.09,87.33l-9-5.2c-.17-.1-.08-.3.26-.5l9,5.21C150,87,149.92,87.23,150.09,87.33Z"/><path class="cls-130" d="M155,78.13l-9-5.2a2.2,2.2,0,0,0,1.29-.28l8.95,5.2A2.06,2.06,0,0,1,155,78.13Z"/><polygon class="cls-131" points="154.56 78.67 145.6 73.47 148.51 75.12 157.47 80.33 154.56 78.67"/><polygon class="cls-132" points="154.7 82.11 145.75 76.91 145.22 73.91 154.18 79.11 154.7 82.11"/><path class="cls-133" d="M154.18,79.11l-9-5.2c0-.24,0-.41.11-.48a.26.26,0,0,1,.26,0l9,5.2a.27.27,0,0,0-.27,0C154.19,78.7,154.14,78.87,154.18,79.11Z"/><polygon class="cls-134" points="152.6 77.59 143.64 72.39 146.03 72.93 154.99 78.13 152.6 77.59"/><path class="cls-135" d="M152.47,77.54l-8.95-5.2.12,0,9,5.2Z"/><polygon class="cls-136" points="152.73 77.05 143.77 71.84 152.15 67.01 161.11 72.21 152.73 77.05"/><path class="cls-137" d="M152.47,77.54l-8.95-5.2c-.18-.1-.08-.3.25-.5l9,5.21C152.39,77.24,152.3,77.44,152.47,77.54Z"/><path class="cls-138" d="M161.11,72.21a2.06,2.06,0,0,1,1.29-.28l2.39.55c.32.07.27.31-.13.54l-4.72,2.72v5.55l3.59-2.07a2.25,2.25,0,0,1,1.3-.29l2.38.55c.33.08.27.31-.12.54l-5,2.92L163.93,84a1.61,1.61,0,0,1,.63,1l.51,3c0,.24,0,.41-.11.47a.25.25,0,0,1-.26,0L160,85.78v.45a5.15,5.15,0,0,1-.4,1.71l-1.67,3.71a.86.86,0,0,1-.25.38c-.09,0-.15,0-.15-.3l0-6.16-3.59,2.07a2.06,2.06,0,0,1-1.29.28l-2.39-.54c-.32-.07-.27-.31.13-.54l5.7-3.29-.71-.42a1.6,1.6,0,0,1-.63-1l-.52-3c0-.24,0-.41.11-.47a.27.27,0,0,1,.27,0l2.91,1.65V77.17l-1.18.68a2.06,2.06,0,0,1-1.29.28l-2.39-.54c-.33-.07-.27-.31.13-.54Z"/><path class="cls-139" d="M173.41,60.36c1-.61,1.89-.13,1.89,1.08l.07,23.63a4.16,4.16,0,0,1-1.88,3.26l-5.83,3.36,0,9.36-8-4.73-16,9.26c-1.05.6-1.9.12-1.9-1.09l-.07-23.63a4.14,4.14,0,0,1,1.89-3.26ZM167.1,80c.39-.23.45-.46.12-.54l-2.38-.55a2.25,2.25,0,0,0-1.3.29L160,81.29V75.74L164.66,73c.4-.23.45-.47.13-.54l-2.39-.55a2.06,2.06,0,0,0-1.29.28l-8.38,4.84c-.4.23-.46.47-.13.54l2.39.54a2.06,2.06,0,0,0,1.29-.28l1.18-.68v3.15l-2.91-1.65a.27.27,0,0,0-.27,0c-.1.06-.15.23-.11.47l.52,3a1.6,1.6,0,0,0,.63,1l.71.42-5.7,3.29c-.4.23-.45.47-.13.54l2.39.54a2.06,2.06,0,0,0,1.29-.28l3.59-2.07,0,6.16c0,.26.06.35.15.3a.86.86,0,0,0,.25-.38l1.67-3.71a5.15,5.15,0,0,0,.4-1.71v-.45l4.73,2.69a.25.25,0,0,0,.26,0c.11-.06.15-.23.11-.47l-.51-3a1.61,1.61,0,0,0-.63-1l-1.88-1.07,5-2.92Z"/><path class="cls-140" d="M165.8,55a1.35,1.35,0,0,0-1.35.13L134.58,72.39a4.19,4.19,0,0,0-1.88,3.27l.07,23.63a1.3,1.3,0,0,0,.55,1.21l9,5.21a1.33,1.33,0,0,1-.55-1.22l-.07-23.63a4.14,4.14,0,0,1,1.89-3.26l29.87-17.24a1.31,1.31,0,0,1,1.34-.14Z"/></g><path class="cls-141" d="M110.85,42.85h0L90.28,8.63c-1-1.64-2.44-2.53-3.43-2.1l-20.6,9.05h0a.84.84,0,0,0-.38.81V50.23A2.71,2.71,0,0,0,67,52.33l43,26.32c.64.38,1.15.07,1.15-.7V44.12A2.66,2.66,0,0,0,110.85,42.85Z"/><path class="cls-142" d="M110.55,42.54l0,0L90,8.32c-1-1.63-2.44-2.53-3.43-2.09l-20.61,9,0,0a.81.81,0,0,0-.39.8V49.92A2.72,2.72,0,0,0,66.73,52l43.05,26.32c.63.39,1.15.08,1.15-.69V43.81A2.66,2.66,0,0,0,110.55,42.54Z"/><path class="cls-143" d="M110.24,42.24h0L89.68,8c-1-1.64-2.45-2.53-3.43-2.1L65.64,15h0a.84.84,0,0,0-.38.8V49.62a2.74,2.74,0,0,0,1.15,2.1l43,26.31c.64.39,1.16.08,1.16-.69V43.51A2.57,2.57,0,0,0,110.24,42.24Z"/><path class="cls-144" d="M109.94,41.93l0,0L89.37,7.71c-1-1.63-2.44-2.53-3.42-2.09l-20.61,9,0,0a.83.83,0,0,0-.38.8V49.31a2.71,2.71,0,0,0,1.15,2.1l43,26.32c.64.39,1.15.08,1.15-.7V43.2A2.66,2.66,0,0,0,109.94,41.93Z"/><path class="cls-145" d="M109.64,41.63h0L89.07,7.41c-1-1.64-2.44-2.53-3.43-2.1L65,14.36h0a.82.82,0,0,0-.39.8V49a2.74,2.74,0,0,0,1.15,2.1l43.05,26.31c.63.39,1.15.08,1.15-.69V42.9A2.63,2.63,0,0,0,109.64,41.63Z"/><path class="cls-146" d="M109.33,41.32l0,0L88.77,7.1c-1-1.63-2.45-2.53-3.43-2.1L64.73,14.05l0,0a.83.83,0,0,0-.38.8V48.7a2.74,2.74,0,0,0,1.15,2.1l43,26.32c.64.39,1.16.08,1.16-.7V42.59A2.57,2.57,0,0,0,109.33,41.32Z"/><path class="cls-147" d="M109,41h0L88.46,6.8C87.48,5.16,86,4.27,85,4.7L64.43,13.75h0a.83.83,0,0,0-.38.8V48.39a2.71,2.71,0,0,0,1.15,2.11l43,26.31c.64.39,1.15.08,1.15-.69V42.29A2.63,2.63,0,0,0,109,41Z"/><path class="cls-148" d="M108.73,40.71l0,0L88.16,6.49c-1-1.64-2.44-2.53-3.43-2.1L64.12,13.44l0,0a.8.8,0,0,0-.39.8V48.09a2.72,2.72,0,0,0,1.16,2.1l43,26.32c.63.39,1.15.08,1.15-.7V42A2.66,2.66,0,0,0,108.73,40.71Z"/><path class="cls-149" d="M108.42,40.41h0L87.86,6.18c-1-1.63-2.45-2.52-3.43-2.09L63.82,13.14h0a.83.83,0,0,0-.38.8V47.78a2.74,2.74,0,0,0,1.15,2.11L107.66,76.2c.63.39,1.15.08,1.15-.69V41.68A2.51,2.51,0,0,0,108.42,40.41Z"/><path class="cls-150" d="M108.12,40.1l0,0L87.55,5.88c-1-1.64-2.44-2.53-3.42-2.1L63.52,12.83l0,0a.82.82,0,0,0-.38.8V47.48a2.71,2.71,0,0,0,1.15,2.1l43,26.32c.64.39,1.15.07,1.15-.7V41.37A2.66,2.66,0,0,0,108.12,40.1Z"/><path class="cls-151" d="M107.82,39.8h0L87.25,5.57c-1-1.63-2.44-2.52-3.43-2.09l-20.61,9h0a.81.81,0,0,0-.38.8V47.17A2.71,2.71,0,0,0,64,49.28l43,26.31c.63.39,1.15.08,1.15-.69V41.06A2.6,2.6,0,0,0,107.82,39.8Z"/><path class="cls-152" d="M107.51,39.49h0L87,5.27c-1-1.64-2.45-2.53-3.43-2.1L62.91,12.22h0a.84.84,0,0,0-.38.81V46.87A2.74,2.74,0,0,0,63.7,49l43.05,26.32c.63.38,1.15.07,1.15-.7V40.76A2.57,2.57,0,0,0,107.51,39.49Z"/><path class="cls-153" d="M107.21,39.18l0,0L86.64,5c-1-1.63-2.44-2.53-3.42-2.09l-20.61,9,0,0a.83.83,0,0,0-.38.8V46.56a2.69,2.69,0,0,0,1.15,2.1l43,26.32c.64.39,1.15.08,1.15-.69V40.45A2.66,2.66,0,0,0,107.21,39.18Z"/><path class="cls-154" d="M106.91,38.88h0L86.34,4.66c-1-1.64-2.44-2.53-3.43-2.1l-20.61,9h0a.82.82,0,0,0-.38.8V46.26a2.71,2.71,0,0,0,1.15,2.1l43,26.31c.64.39,1.15.08,1.15-.69V40.15A2.66,2.66,0,0,0,106.91,38.88Z"/><path class="cls-155" d="M106.61,38.57l0,0L86,4.35c-1-1.63-2.45-2.53-3.43-2.09L62,11.3l0,0a.81.81,0,0,0-.39.8V46a2.74,2.74,0,0,0,1.15,2.1l43.05,26.32c.63.39,1.15.08,1.15-.7V39.84A2.66,2.66,0,0,0,106.61,38.57Z"/><path class="cls-156" d="M106.3,38.27h0L85.73,4.05c-1-1.64-2.44-2.53-3.42-2.1L61.7,11h0a.84.84,0,0,0-.38.8V45.65a2.71,2.71,0,0,0,1.15,2.1l43,26.31c.64.39,1.15.08,1.15-.69V39.54A2.53,2.53,0,0,0,106.3,38.27Z"/><path class="cls-157" d="M106,38l0,0L85.43,3.74C84.45,2.1,83,1.21,82,1.64l-20.6,9,0,0a.83.83,0,0,0-.38.8V45.34a2.71,2.71,0,0,0,1.15,2.1l43,26.32c.64.39,1.15.08,1.15-.7V39.23A2.66,2.66,0,0,0,106,38Z"/><path class="cls-158" d="M105.7,37.66h0L85.13,3.44c-1-1.64-2.44-2.53-3.43-2.1L61.09,10.39h0a.81.81,0,0,0-.39.8V45a2.74,2.74,0,0,0,1.15,2.11l43.05,26.31c.63.39,1.15.08,1.15-.69V38.93A2.63,2.63,0,0,0,105.7,37.66Z"/><path class="cls-159" d="M105.39,37.35l0,0L84.83,3.13C83.84,1.49,82.38.6,81.4,1L60.79,10.08l0,0a.82.82,0,0,0-.38.8V44.73a2.74,2.74,0,0,0,1.15,2.1l43,26.32c.64.39,1.16.08,1.16-.7V38.62A2.57,2.57,0,0,0,105.39,37.35Z"/><path class="cls-160" d="M105.09,37.05h0L84.52,2.82C83.54,1.19,82.08.3,81.1.73l-20.61,9h0a.83.83,0,0,0-.38.8V44.42a2.71,2.71,0,0,0,1.15,2.11l43,26.31c.64.39,1.15.08,1.15-.69V38.31A2.6,2.6,0,0,0,105.09,37.05Z"/><path class="cls-161" d="M104.79,36.74l0,0L84.22,2.52C83.24.88,81.78,0,80.79.42L60.18,9.47l0,0a.8.8,0,0,0-.39.8V44.12A2.74,2.74,0,0,0,61,46.22L104,72.54c.63.39,1.15.07,1.15-.7V38A2.66,2.66,0,0,0,104.79,36.74Z"/><path class="cls-162" d="M104.48,36.44h0L83.92,2.21C82.93.58,81.47-.31,80.49.12L59.88,9.17h0a.83.83,0,0,0-.38.8V43.81a2.74,2.74,0,0,0,1.15,2.11l43,26.31c.64.39,1.16.08,1.16-.69V37.7A2.51,2.51,0,0,0,104.48,36.44Z"/><path class="cls-163" d="M104.36,36.43h0L83.79,2.2C82.81.57,81.35-.32,80.37.11L59.76,9.16h0a.83.83,0,0,0-.38.8V43.8a2.71,2.71,0,0,0,1.15,2.11l43,26.31c.64.39,1.15.08,1.15-.69V37.7A2.63,2.63,0,0,0,104.36,36.43Z"/><polygon class="cls-162" points="99.35 67.02 65.69 46.44 65.69 5.18 99.35 25.76 99.35 67.02"/><path class="cls-164" d="M104.29,72.19V38.36a2.66,2.66,0,0,0-.38-1.27l0,0L83.34,2.87C82.36,1.24,80.9.34,79.92.78l-20.5,9a.73.73,0,0,1,.36-.61h0l20.61-9c1-.43,2.44.46,3.42,2.09l20.59,34.24h0a2.63,2.63,0,0,1,.38,1.27V71.53c0,.46-.18.75-.46.83C104.28,72.31,104.29,72.25,104.29,72.19Z"/><polygon class="cls-165" points="98.9 67.49 65.24 46.92 65.24 5.66 98.9 26.23 98.9 67.49"/><polygon class="cls-166" points="85.57 39.59 82.89 37.96 82.89 38.8 85.57 40.43 85.57 39.59"/><polygon class="cls-167" points="84.45 32.69 87.13 34.33 87.13 33.49 84.45 31.85 84.45 32.69"/><polygon class="cls-168" points="84.59 37.18 84.59 38.02 87.58 39.81 87.58 38.97 84.59 37.18"/><polygon class="cls-169" points="87.73 36.49 87.73 35.65 83.95 33.31 83.95 34.15 87.73 36.49"/><polygon class="cls-170" points="90.03 35.23 90.03 36.08 92.5 37.55 92.5 36.71 90.03 35.23"/><polygon class="cls-171" points="81.05 32.38 83.16 33.67 83.16 32.83 81.05 31.54 81.05 32.38"/><polygon class="cls-172" points="86.35 37.34 86.35 36.5 85.09 35.74 85.09 36.59 86.35 37.34"/><polygon class="cls-173" points="82.09 38.32 82.09 37.48 81.41 37.05 81.41 37.9 82.09 38.32"/><polygon class="cls-174" points="87.14 36.98 87.14 37.82 89.7 39.36 89.7 38.52 87.14 36.98"/><polygon class="cls-175" points="83.8 37.54 83.8 36.7 81.05 35.01 81.05 35.85 83.8 37.54"/><polygon class="cls-176" points="88.51 36.13 88.51 36.97 91.72 38.87 91.72 38.03 88.51 36.13"/><polygon class="cls-177" points="90.95 43.69 90.95 42.85 88.44 41.32 88.44 42.16 90.95 43.69"/><polygon class="cls-178" points="86.37 40.91 87.65 41.68 87.65 40.84 86.37 40.07 86.37 40.91"/><polygon class="cls-179" points="87.91 34.81 89.23 35.6 89.23 34.76 87.91 33.97 87.91 34.81"/><polygon class="cls-180" points="76.43 28.69 75.05 27.85 75.05 28.7 76.43 29.53 76.43 28.69"/><polygon class="cls-181" points="93.29 38.03 94.5 38.77 94.5 37.93 93.29 37.19 93.29 38.03"/><polygon class="cls-182" points="96.98 47.22 96.98 46.38 91.59 43.13 91.59 43.97 96.98 47.22"/><polygon class="cls-183" points="77.14 35.33 77.14 34.48 71.75 31.23 71.75 32.07 77.14 35.33"/><polygon class="cls-184" points="79.94 32.63 78.68 31.85 78.68 32.69 79.94 33.47 79.94 32.63"/><polygon class="cls-185" points="80.26 34.53 74.6 31.16 74.6 32 80.26 35.37 80.26 34.53"/><polygon class="cls-186" points="84.3 35.27 80.72 33.11 80.72 33.95 84.3 36.11 84.3 35.27"/><polygon class="cls-187" points="80.61 37.41 80.61 36.57 77.77 34.85 77.77 35.69 80.61 37.41"/><polygon class="cls-188" points="92.52 39.34 94.5 40.52 94.5 39.67 92.52 38.5 92.52 39.34"/><polygon class="cls-189" points="77.21 30.01 80.25 31.89 80.25 31.05 77.21 29.17 77.21 30.01"/><polygon class="cls-190" points="90.49 39.84 94.5 42.26 94.5 41.42 90.49 39 90.49 39.84"/><polygon class="cls-191" points="73.33 28.64 72.06 27.85 72.06 28.69 73.33 29.48 73.33 28.64"/><polygon class="cls-192" points="77.68 31.27 74.11 29.11 74.11 29.95 77.68 32.11 77.68 31.27"/><polygon class="cls-193" points="93.73 35.42 96.32 36.99 96.32 36.15 93.73 34.58 93.73 35.42"/><polygon class="cls-194" points="92.31 28.47 96.32 30.89 96.32 30.05 92.31 27.63 92.31 28.47"/><polygon class="cls-195" points="90.96 30.05 96.32 33.29 96.32 32.45 90.96 29.2 90.96 30.05"/><polygon class="cls-196" points="88.37 40.3 94.5 44.01 94.5 43.17 88.37 39.45 88.37 40.3"/><polygon class="cls-197" points="85.57 48.52 82.89 46.89 82.89 47.73 85.57 49.36 85.57 48.52"/><polygon class="cls-198" points="84.45 41.62 87.13 43.26 87.13 42.42 84.45 40.78 84.45 41.62"/><polygon class="cls-199" points="84.59 46.11 84.59 46.95 87.58 48.74 87.58 47.9 84.59 46.11"/><polygon class="cls-200" points="87.73 45.42 87.73 44.58 86.21 43.65 86.21 44.49 87.73 45.42"/><polygon class="cls-201" points="90.03 44.16 90.03 45.01 92.5 46.48 92.5 45.64 90.03 44.16"/><polygon class="cls-202" points="83.3 42.71 85.42 44.01 85.42 43.16 83.3 41.87 83.3 42.71"/><polygon class="cls-203" points="86.35 46.27 86.35 45.43 85.09 44.67 85.09 45.51 86.35 46.27"/><polygon class="cls-204" points="82.09 47.25 82.09 46.41 81.41 45.98 81.41 46.83 82.09 47.25"/><polygon class="cls-205" points="87.14 45.91 87.14 46.75 89.7 48.29 89.7 47.45 87.14 45.91"/><polygon class="cls-206" points="83.8 46.47 83.8 45.63 80.03 43.34 80.03 44.18 83.8 46.47"/><polygon class="cls-207" points="88.51 45.05 88.51 45.9 91.72 47.8 91.72 46.96 88.51 45.05"/><polygon class="cls-208" points="87.91 43.73 89.23 44.53 89.23 43.69 87.91 42.9 87.91 43.73"/><polygon class="cls-209" points="80.74 40.3 77.31 38.19 77.31 39.03 80.74 41.14 80.74 40.3"/><polygon class="cls-210" points="83.98 41.4 83.98 40.56 78.59 37.31 78.59 38.15 83.98 41.4"/><polygon class="cls-211" points="79.94 41.56 78.68 40.78 78.68 41.62 79.94 42.4 79.94 41.56"/><polygon class="cls-212" points="79.24 42.86 74.6 40.09 74.6 40.93 79.24 43.7 79.24 42.86"/><polygon class="cls-213" points="84.3 44.2 80.72 42.04 80.72 42.88 84.3 45.04 84.3 44.2"/><polygon class="cls-214" points="80.61 46.34 80.61 45.5 77.77 43.78 77.77 44.62 80.61 46.34"/><polygon class="cls-215" points="81.52 41.62 82.51 42.23 82.51 41.38 81.52 40.78 81.52 41.62"/><polygon class="cls-216" points="77.9 36.93 76.63 36.15 76.63 36.99 77.9 37.77 77.9 36.93"/><polygon class="cls-217" points="77.68 40.2 74.11 38.04 74.11 38.88 77.68 41.04 77.68 40.2"/><polygon class="cls-218" points="84.43 22.95 90.08 26.34 90.08 27.18 84.43 23.79 84.43 22.95"/><polygon class="cls-218" points="83.81 22.59 83.81 23.43 79.54 20.87 79.54 20.02 83.81 22.59"/><polygon class="cls-218" points="85.99 27.12 82.02 24.73 82.02 23.89 85.99 26.28 85.99 27.12"/><polygon class="cls-218" points="80.03 22.69 81.41 23.52 81.41 24.36 80.03 23.53 80.03 22.69"/><polygon class="cls-218" points="75.92 20.21 79.42 22.32 79.42 23.16 75.92 21.06 75.92 20.21"/><polygon class="cls-218" points="71.91 17.8 71.91 18.64 70.04 17.51 70.04 16.67 71.91 17.8"/><polygon class="cls-218" points="72.52 18.17 75.31 19.85 75.31 20.69 72.52 19.01 72.52 18.17"/><polygon class="cls-218" points="86.6 26.65 90.08 28.74 90.08 29.59 86.6 27.49 86.6 26.65"/><g class="cls-219"><polygon class="cls-220" points="92.53 33.86 93.22 34.28 93.22 35.12 92.53 34.7 92.53 33.86"/><polygon class="cls-221" points="91.94 33.5 91.94 34.34 86.48 31.07 86.48 30.23 91.94 33.5"/></g><polygon class="cls-222" points="98.9 29.23 65.24 8.66 65.24 5.66 98.9 26.23 98.9 29.23"/><path class="cls-223" d="M83.81,46c-1,.44-2.49-.47-3.49-2.14L59.4,10.46V42.4a2.71,2.71,0,0,0,1.15,2.11l43,26.31c.64.39,1.15.08,1.15-.69V38.19Z"/><path class="cls-224" d="M83.81,47.38c-1,.44-2.49-.47-3.49-2.14L59.4,10.46V43.8a2.71,2.71,0,0,0,1.15,2.11l43,26.31c.64.39,1.15.08,1.15-.69V38.19Z"/><path class="cls-225" d="M104.29,39l-20.93,9.2c-1,.44-2.49-.47-3.49-2.14l-20.47-34V10.46L80.32,45.24c1,1.67,2.48,2.58,3.49,2.14l20.93-9.19V71.53c0,.45-.18.73-.45.82Z"/><path class="cls-223" d="M60.44,45.87l0,0,19.78-9.73c.94-.41,2.34.45,3.29,2l19.79,33.92,0,0Z"/><path class="cls-226" d="M60.44,45.87l0,0,19.78-8.69c.94-.42,2.34.44,3.29,2l19.79,32.89,0,0Z"/><path class="cls-227" d="M83.21,39.67c-.95-1.57-2.35-2.43-3.29-2L60.78,46.08l-.34-.21,0,0,19.78-8.69c.94-.42,2.34.44,3.29,2l19.79,32.89,0,0-.88-.54Z"/></g></g></svg>