<svg xmlns="http://www.w3.org/2000/svg" xmlns:xlink="http://www.w3.org/1999/xlink" viewBox="0 0 179.42 179.7"><defs><style>.cls-1{isolation:isolate;}.cls-130,.cls-193,.cls-2{opacity:0.2;}.cls-2{fill:url(#linear-gradient);}.cls-3{fill:url(#linear-gradient-2);}.cls-4{fill:url(#linear-gradient-3);}.cls-5{fill:url(#linear-gradient-4);}.cls-6{fill:url(#linear-gradient-5);}.cls-7{fill:url(#linear-gradient-6);}.cls-8{fill:url(#linear-gradient-7);}.cls-9{fill:url(#linear-gradient-8);}.cls-10,.cls-182,.cls-28{mix-blend-mode:multiply;}.cls-11{opacity:0;fill:url(#linear-gradient-9);}.cls-12{opacity:0.09;fill:url(#linear-gradient-10);}.cls-13{opacity:0.18;fill:url(#linear-gradient-11);}.cls-14{opacity:0.27;fill:url(#linear-gradient-12);}.cls-15{opacity:0.36;fill:url(#linear-gradient-13);}.cls-16{opacity:0.45;fill:url(#linear-gradient-14);}.cls-17{opacity:0.55;fill:url(#linear-gradient-15);}.cls-18{opacity:0.64;fill:url(#linear-gradient-16);}.cls-19{opacity:0.73;fill:url(#linear-gradient-17);}.cls-20{opacity:0.82;fill:url(#linear-gradient-18);}.cls-21{opacity:0.91;fill:url(#linear-gradient-19);}.cls-22{fill:url(#linear-gradient-20);}.cls-23{fill:url(#linear-gradient-21);}.cls-24{fill:url(#linear-gradient-22);}.cls-25{fill:url(#linear-gradient-23);}.cls-26{fill:url(#linear-gradient-24);}.cls-27{fill:#fff;}.cls-28{fill:#bcbec0;}.cls-29{fill:url(#linear-gradient-25);}.cls-30{fill:url(#linear-gradient-26);}.cls-31{fill:url(#New_Gradient_Swatch_copy_19);}.cls-32{fill:url(#linear-gradient-27);}.cls-33{mix-blend-mode:screen;}.cls-34,.cls-35{opacity:0.7;}.cls-34{fill:url(#linear-gradient-28);}.cls-35{fill:url(#linear-gradient-29);}.cls-36{fill:#25054d;}.cls-100,.cls-101,.cls-102,.cls-103,.cls-104,.cls-105,.cls-106,.cls-107,.cls-108,.cls-109,.cls-110,.cls-111,.cls-112,.cls-113,.cls-114,.cls-115,.cls-116,.cls-117,.cls-126,.cls-37,.cls-38,.cls-40,.cls-42,.cls-43,.cls-44,.cls-45,.cls-46,.cls-47,.cls-48,.cls-49,.cls-50,.cls-52,.cls-53,.cls-54,.cls-55,.cls-56,.cls-66,.cls-67,.cls-68,.cls-69,.cls-70,.cls-71,.cls-72,.cls-73,.cls-74,.cls-75,.cls-76,.cls-77,.cls-78,.cls-79,.cls-80,.cls-81,.cls-82,.cls-83,.cls-84,.cls-85,.cls-86,.cls-87,.cls-88,.cls-89,.cls-90,.cls-91,.cls-92,.cls-93,.cls-96,.cls-97,.cls-98,.cls-99{opacity:0.5;}.cls-37{fill:url(#linear-gradient-30);}.cls-38{fill:url(#linear-gradient-31);}.cls-39,.cls-41,.cls-51,.cls-57,.cls-58,.cls-59,.cls-60,.cls-61,.cls-62{opacity:0.9;}.cls-39{fill:url(#linear-gradient-32);}.cls-40{fill:url(#linear-gradient-33);}.cls-41{fill:url(#linear-gradient-34);}.cls-42{fill:url(#linear-gradient-35);}.cls-43{fill:url(#linear-gradient-36);}.cls-44{fill:url(#linear-gradient-37);}.cls-45{fill:url(#linear-gradient-38);}.cls-46{fill:url(#linear-gradient-39);}.cls-47{fill:url(#linear-gradient-40);}.cls-48{fill:url(#linear-gradient-41);}.cls-49{fill:url(#linear-gradient-42);}.cls-50{fill:url(#linear-gradient-43);}.cls-51{fill:url(#linear-gradient-44);}.cls-52{fill:url(#linear-gradient-45);}.cls-53{fill:url(#linear-gradient-46);}.cls-54{fill:url(#linear-gradient-47);}.cls-55{fill:url(#linear-gradient-48);}.cls-56{fill:url(#linear-gradient-49);}.cls-57{fill:url(#linear-gradient-50);}.cls-58{fill:url(#linear-gradient-51);}.cls-59{fill:url(#linear-gradient-52);}.cls-60{fill:url(#linear-gradient-53);}.cls-61{fill:url(#linear-gradient-54);}.cls-62{fill:url(#linear-gradient-55);}.cls-63{opacity:0.15;}.cls-64{fill:url(#linear-gradient-56);}.cls-65{fill:#f1f2f2;}.cls-66{fill:url(#linear-gradient-57);}.cls-67{fill:url(#linear-gradient-58);}.cls-68{fill:url(#linear-gradient-59);}.cls-69{fill:url(#linear-gradient-60);}.cls-70{fill:url(#linear-gradient-61);}.cls-71{fill:url(#linear-gradient-62);}.cls-72{fill:url(#linear-gradient-63);}.cls-73{fill:url(#linear-gradient-64);}.cls-74{fill:url(#linear-gradient-65);}.cls-75{fill:url(#linear-gradient-66);}.cls-76{fill:url(#linear-gradient-67);}.cls-77{fill:url(#linear-gradient-68);}.cls-78{fill:url(#linear-gradient-69);}.cls-79{fill:url(#linear-gradient-70);}.cls-80{fill:url(#linear-gradient-71);}.cls-81{fill:url(#linear-gradient-72);}.cls-82{fill:url(#linear-gradient-73);}.cls-83{fill:url(#linear-gradient-74);}.cls-84{fill:url(#linear-gradient-75);}.cls-85{fill:url(#linear-gradient-76);}.cls-86{fill:url(#linear-gradient-77);}.cls-87{fill:url(#linear-gradient-78);}.cls-88{fill:url(#linear-gradient-79);}.cls-89{fill:url(#linear-gradient-80);}.cls-90{fill:url(#linear-gradient-81);}.cls-91{fill:url(#linear-gradient-82);}.cls-92{fill:url(#linear-gradient-83);}.cls-93{fill:url(#linear-gradient-84);}.cls-94{fill:url(#linear-gradient-85);}.cls-95{fill:url(#linear-gradient-86);}.cls-96{fill:url(#linear-gradient-87);}.cls-97{fill:url(#linear-gradient-88);}.cls-98{fill:url(#linear-gradient-89);}.cls-99{fill:url(#linear-gradient-90);}.cls-100{fill:url(#linear-gradient-91);}.cls-101{fill:url(#linear-gradient-92);}.cls-102{fill:url(#linear-gradient-93);}.cls-103{fill:url(#linear-gradient-94);}.cls-104{fill:url(#linear-gradient-95);}.cls-105{fill:url(#linear-gradient-96);}.cls-106{fill:url(#linear-gradient-97);}.cls-107{fill:url(#linear-gradient-98);}.cls-108{fill:url(#linear-gradient-99);}.cls-109{fill:url(#linear-gradient-100);}.cls-110{fill:url(#linear-gradient-101);}.cls-111{fill:url(#linear-gradient-102);}.cls-112{fill:url(#linear-gradient-103);}.cls-113{fill:url(#linear-gradient-104);}.cls-114{fill:url(#linear-gradient-105);}.cls-115{fill:url(#linear-gradient-106);}.cls-116{fill:url(#linear-gradient-107);}.cls-117{fill:url(#linear-gradient-108);}.cls-118{fill:url(#linear-gradient-109);}.cls-119{fill:url(#linear-gradient-110);}.cls-120{fill:url(#linear-gradient-111);}.cls-121{fill:url(#linear-gradient-112);}.cls-122{fill:url(#linear-gradient-113);}.cls-123{fill:url(#linear-gradient-114);}.cls-124{fill:url(#linear-gradient-115);}.cls-125{fill:url(#linear-gradient-116);}.cls-127{fill:url(#linear-gradient-117);}.cls-128{fill:url(#linear-gradient-118);}.cls-129{fill:url(#New_Gradient_Swatch_copy_20);}.cls-131{fill:url(#New_Gradient_Swatch_copy_19-2);}.cls-132{fill:url(#New_Gradient_Swatch_copy_19-3);}.cls-133{fill:url(#New_Gradient_Swatch_copy_15);}.cls-134{fill:url(#New_Gradient_Swatch_copy_15-2);}.cls-135{fill:url(#New_Gradient_Swatch_copy_15-3);}.cls-136{fill:url(#New_Gradient_Swatch_copy_6);}.cls-137{fill:url(#New_Gradient_Swatch_copy_6-2);}.cls-138{fill:url(#linear-gradient-119);}.cls-139{fill:url(#New_Gradient_Swatch_copy_6-3);}.cls-140{fill:url(#New_Gradient_Swatch_copy_6-4);}.cls-141{fill:url(#New_Gradient_Swatch_copy_18);}.cls-142,.cls-145,.cls-148,.cls-152,.cls-171,.cls-174,.cls-177,.cls-181,.cls-186,.cls-190,.cls-195{mix-blend-mode:color-dodge;}.cls-142{fill:url(#Radial_Gradient_1);}.cls-143{fill:url(#New_Gradient_Swatch_copy_6-5);}.cls-144{fill:url(#New_Gradient_Swatch_copy_18-2);}.cls-145{fill:url(#Radial_Gradient_1-2);}.cls-146{fill:url(#New_Gradient_Swatch_copy_6-6);}.cls-147{fill:url(#New_Gradient_Swatch_copy_18-3);}.cls-148{fill:url(#Radial_Gradient_1-3);}.cls-149{fill:url(#New_Gradient_Swatch_copy_6-7);}.cls-150{fill:url(#New_Gradient_Swatch_copy_6-8);}.cls-151{fill:url(#New_Gradient_Swatch_copy_18-4);}.cls-152{fill:url(#Radial_Gradient_1-4);}.cls-153{opacity:0.1;}.cls-154{fill:url(#New_Gradient_Swatch_copy_15-4);}.cls-155{fill:url(#New_Gradient_Swatch_copy_15-5);}.cls-156{fill:url(#New_Gradient_Swatch_copy_6-9);}.cls-157{fill:url(#New_Gradient_Swatch_copy_6-10);}.cls-158{fill:url(#New_Gradient_Swatch_copy_5);}.cls-159{fill:url(#New_Gradient_Swatch_copy_5-2);}.cls-160{fill:url(#New_Gradient_Swatch_copy_5-3);}.cls-161{fill:url(#New_Gradient_Swatch_copy_4);}.cls-162{fill:url(#New_Gradient_Swatch_copy_4-2);}.cls-163{fill:url(#New_Gradient_Swatch_copy_4-3);}.cls-164{fill:url(#New_Gradient_Swatch_copy_5-4);}.cls-165{fill:url(#New_Gradient_Swatch_copy_5-5);}.cls-166{fill:url(#New_Gradient_Swatch_copy_4-4);}.cls-167{fill:url(#New_Gradient_Swatch_copy_4-5);}.cls-168{fill:url(#New_Gradient_Swatch_copy_4-6);}.cls-169{fill:url(#New_Gradient_Swatch_copy_4-7);}.cls-170{fill:url(#New_Gradient_Swatch_copy_3);}.cls-171{fill:url(#Radial_Gradient_1-5);}.cls-172{fill:url(#New_Gradient_Swatch_copy_4-8);}.cls-173{fill:url(#New_Gradient_Swatch_copy_3-2);}.cls-174{fill:url(#Radial_Gradient_1-6);}.cls-175{fill:url(#New_Gradient_Swatch_copy_4-9);}.cls-176{fill:url(#New_Gradient_Swatch_copy_3-3);}.cls-177{fill:url(#Radial_Gradient_1-7);}.cls-178{fill:url(#New_Gradient_Swatch_copy_4-10);}.cls-179{fill:url(#New_Gradient_Swatch_copy_4-11);}.cls-180{fill:url(#New_Gradient_Swatch_copy_3-4);}.cls-181{fill:url(#Radial_Gradient_1-8);}.cls-182{fill:url(#linear-gradient-120);}.cls-183{fill:url(#New_Gradient_Swatch_copy_26);}.cls-184{fill:url(#New_Gradient_Swatch_copy_26-2);}.cls-185{fill:url(#New_Gradient_Swatch_copy_26-3);}.cls-186{fill:url(#radial-gradient);}.cls-187{fill:url(#New_Gradient_Swatch_copy_26-4);}.cls-188{fill:url(#New_Gradient_Swatch_copy_26-5);}.cls-189{fill:url(#New_Gradient_Swatch_copy_26-6);}.cls-190{fill:url(#radial-gradient-2);}.cls-191{fill:url(#New_Gradient_Swatch_copy_26-7);}.cls-192{fill:url(#New_Gradient_Swatch_copy_26-8);}.cls-193{fill:url(#New_Gradient_Swatch_copy_26-9);}.cls-194{fill:url(#New_Gradient_Swatch_copy_26-10);}.cls-195{fill:url(#radial-gradient-3);}</style><linearGradient id="linear-gradient" x1="6648.02" y1="130.54" x2="6701.66" y2="130.54" gradientTransform="matrix(-1, 0, 0, 1, 6741.73, 0)" gradientUnits="userSpaceOnUse"><stop offset="0.06" stop-color="#1d4970"/><stop offset="0.2" stop-color="#1e4b72"/><stop offset="0.28" stop-color="#23527a"/><stop offset="0.33" stop-color="#2b5e87"/><stop offset="0.38" stop-color="#366f9a"/><stop offset="0.42" stop-color="#4485b2"/><stop offset="0.46" stop-color="#56a0cf"/><stop offset="0.47" stop-color="#5ba8d8"/><stop offset="0.48" stop-color="#5faad9"/><stop offset="0.49" stop-color="#6db1dc"/><stop offset="0.5" stop-color="#82bde1"/><stop offset="0.51" stop-color="#a1cde9"/><stop offset="0.52" stop-color="#c8e2f2"/><stop offset="0.53" stop-color="#eef6fb"/><stop offset="0.54" stop-color="#d4e8f5"/><stop offset="0.56" stop-color="#a9d1eb"/><stop offset="0.58" stop-color="#87bfe2"/><stop offset="0.6" stop-color="#6fb2dd"/><stop offset="0.61" stop-color="#60abd9"/><stop offset="0.63" stop-color="#5ba8d8"/><stop offset="0.66" stop-color="#4b90bd"/><stop offset="0.7" stop-color="#37719c"/><stop offset="0.74" stop-color="#295b84"/><stop offset="0.78" stop-color="#204e75"/><stop offset="0.81" stop-color="#1d4970"/><stop offset="1" stop-color="#1d4970"/></linearGradient><linearGradient id="linear-gradient-2" x1="6648.02" y1="123.62" x2="6701.66" y2="123.62" gradientTransform="matrix(-1, 0, 0, 1, 6741.73, 0)" gradientUnits="userSpaceOnUse"><stop offset="0.06" stop-color="#1d4970"/><stop offset="0.2" stop-color="#1e4b72"/><stop offset="0.28" stop-color="#23527a"/><stop offset="0.33" stop-color="#2b5e87"/><stop offset="0.38" stop-color="#366f9a"/><stop offset="0.42" stop-color="#4485b2"/><stop offset="0.46" stop-color="#56a0cf"/><stop offset="0.47" stop-color="#5ba8d8"/><stop offset="0.48" stop-color="#57a6d7"/><stop offset="0.5" stop-color="#49a0d2"/><stop offset="0.51" stop-color="#3497cb"/><stop offset="0.53" stop-color="#1589c1"/><stop offset="0.53" stop-color="#0984bd"/><stop offset="0.56" stop-color="#2a92c8"/><stop offset="0.58" stop-color="#429dd0"/><stop offset="0.61" stop-color="#51a3d5"/><stop offset="0.63" stop-color="#56a5d7"/><stop offset="0.65" stop-color="#488ebd"/><stop offset="0.7" stop-color="#35709c"/><stop offset="0.74" stop-color="#285b84"/><stop offset="0.78" stop-color="#204e75"/><stop offset="0.81" stop-color="#1d4970"/><stop offset="1" stop-color="#1d4970"/></linearGradient><linearGradient id="linear-gradient-3" x1="6662.55" y1="127.13" x2="6686.87" y2="113.67" gradientTransform="matrix(-1, 0, 0, 1, 6741.73, 0)" gradientUnits="userSpaceOnUse"><stop offset="0" stop-color="#5ba8d8"/><stop offset="0.21" stop-color="#4282ae"/><stop offset="0.47" stop-color="#275981"/><stop offset="0.6" stop-color="#1d4970"/></linearGradient><linearGradient id="linear-gradient-4" x1="6716.13" y1="136.22" x2="6630.84" y2="18.2" gradientTransform="matrix(-1, 0, 0, 1, 6741.73, 0)" gradientUnits="userSpaceOnUse"><stop offset="0" stop-color="#eef6fb"/><stop offset="0.03" stop-color="#e4f0f9"/><stop offset="0.25" stop-color="#9bcae8"/><stop offset="0.41" stop-color="#6eb2dd"/><stop offset="0.49" stop-color="#5da9d9"/><stop offset="1" stop-color="#56a5d7"/></linearGradient><linearGradient id="linear-gradient-5" x1="6642.35" y1="29.91" x2="6714.97" y2="139.12" gradientTransform="matrix(-1, 0, 0, 1, 6741.73, 0)" gradientUnits="userSpaceOnUse"><stop offset="0.01" stop-color="#14416a"/><stop offset="0.43" stop-color="#f1f7fc"/><stop offset="0.9" stop-color="#abd1ec"/></linearGradient><linearGradient id="linear-gradient-6" x1="29.67" y1="53.15" x2="101.38" y2="53.15" gradientUnits="userSpaceOnUse"><stop offset="0.05" stop-color="#14416a"/><stop offset="1" stop-color="#004f98"/></linearGradient><linearGradient id="linear-gradient-7" x1="29.66" y1="80.94" x2="101.38" y2="80.94" xlink:href="#linear-gradient-6"/><linearGradient id="linear-gradient-8" x1="6734.57" y1="138.69" x2="6667.34" y2="31.26" gradientTransform="matrix(-1, 0, 0, 1, 6741.73, 0)" gradientUnits="userSpaceOnUse"><stop offset="0.06" stop-color="#5da9d9"/><stop offset="0.19" stop-color="#5faada"/><stop offset="0.26" stop-color="#67aedb"/><stop offset="0.31" stop-color="#74b5de"/><stop offset="0.35" stop-color="#87bfe3"/><stop offset="0.39" stop-color="#9fcce8"/><stop offset="0.43" stop-color="#bddcef"/><stop offset="0.46" stop-color="#dfeef8"/><stop offset="0.47" stop-color="#eef6fb"/><stop offset="0.48" stop-color="#eaf4fa"/><stop offset="0.48" stop-color="#dcedf6"/><stop offset="0.49" stop-color="#c7e2f0"/><stop offset="0.5" stop-color="#a8d3e8"/><stop offset="0.51" stop-color="#81c0dd"/><stop offset="0.52" stop-color="#50a8d0"/><stop offset="0.53" stop-color="#188cc1"/><stop offset="0.53" stop-color="#0984bd"/><stop offset="0.54" stop-color="#409fcc"/><stop offset="0.56" stop-color="#74bada"/><stop offset="0.57" stop-color="#a0cfe6"/><stop offset="0.59" stop-color="#c2e0ef"/><stop offset="0.6" stop-color="#daecf6"/><stop offset="0.62" stop-color="#e9f3fa"/><stop offset="0.63" stop-color="#eef6fb"/><stop offset="0.65" stop-color="#d6e9f5"/><stop offset="0.68" stop-color="#abd2eb"/><stop offset="0.72" stop-color="#89c0e3"/><stop offset="0.75" stop-color="#71b3de"/><stop offset="0.79" stop-color="#62acda"/><stop offset="0.81" stop-color="#5da9d9"/><stop offset="1" stop-color="#5da9d9"/></linearGradient><linearGradient id="linear-gradient-9" x1="120.79" y1="130.17" x2="164.41" y2="130.17" gradientUnits="userSpaceOnUse"><stop offset="0" stop-color="#eef6fb" stop-opacity="0"/><stop offset="0.23" stop-color="#daebf6" stop-opacity="0.21"/><stop offset="0.48" stop-color="#c6e0f2" stop-opacity="0.42"/><stop offset="0.7" stop-color="#b7d8ef" stop-opacity="0.57"/><stop offset="0.88" stop-color="#aed3ed" stop-opacity="0.67"/><stop offset="1" stop-color="#abd1ec" stop-opacity="0.7"/></linearGradient><linearGradient id="linear-gradient-10" x1="121.1" y1="130.37" x2="163.5" y2="130.37" xlink:href="#linear-gradient-9"/><linearGradient id="linear-gradient-11" x1="121.41" y1="130.58" x2="162.6" y2="130.58" xlink:href="#linear-gradient-9"/><linearGradient id="linear-gradient-12" x1="121.71" y1="130.78" x2="161.7" y2="130.78" xlink:href="#linear-gradient-9"/><linearGradient id="linear-gradient-13" x1="122.02" y1="130.99" x2="160.8" y2="130.99" xlink:href="#linear-gradient-9"/><linearGradient id="linear-gradient-14" x1="122.32" y1="131.2" x2="159.9" y2="131.2" xlink:href="#linear-gradient-9"/><linearGradient id="linear-gradient-15" x1="122.61" y1="131.4" x2="159" y2="131.4" xlink:href="#linear-gradient-9"/><linearGradient id="linear-gradient-16" x1="122.91" y1="131.61" x2="158.1" y2="131.61" xlink:href="#linear-gradient-9"/><linearGradient id="linear-gradient-17" x1="123.21" y1="131.82" x2="157.21" y2="131.82" xlink:href="#linear-gradient-9"/><linearGradient id="linear-gradient-18" x1="123.5" y1="132.02" x2="156.32" y2="132.02" xlink:href="#linear-gradient-9"/><linearGradient id="linear-gradient-19" x1="123.79" y1="132.23" x2="155.43" y2="132.23" xlink:href="#linear-gradient-9"/><linearGradient id="linear-gradient-20" x1="124.08" y1="132.43" x2="154.54" y2="132.43" xlink:href="#linear-gradient-9"/><linearGradient id="linear-gradient-21" x1="116" y1="57.43" x2="144.96" y2="107.59" gradientTransform="matrix(1, 0, 0, 1, 0, 0)" xlink:href="#linear-gradient-8"/><linearGradient id="linear-gradient-22" x1="154.2" y1="103.56" x2="67.56" y2="76.43" gradientUnits="userSpaceOnUse"><stop offset="0" stop-color="#eef6fb"/><stop offset="1" stop-color="#0984bd"/></linearGradient><linearGradient id="linear-gradient-23" x1="123.44" y1="98.14" x2="150.36" y2="98.14" xlink:href="#linear-gradient-6"/><linearGradient id="linear-gradient-24" x1="123.86" y1="98.14" x2="149.94" y2="98.14" gradientUnits="userSpaceOnUse"><stop offset="0" stop-color="#0984bd"/><stop offset="1" stop-color="#56a5d7"/></linearGradient><linearGradient id="linear-gradient-25" x1="126.25" y1="95.44" x2="147.57" y2="95.44" gradientUnits="userSpaceOnUse"><stop offset="0" stop-color="#abd1ec"/><stop offset="0.57" stop-color="#eef6fb"/></linearGradient><linearGradient id="linear-gradient-26" x1="126.25" y1="95.49" x2="146.82" y2="95.49" xlink:href="#linear-gradient-24"/><linearGradient id="New_Gradient_Swatch_copy_19" x1="133.15" y1="76.18" x2="140.6" y2="76.18" gradientUnits="userSpaceOnUse"><stop offset="0.04" stop-color="#fab371"/><stop offset="0.33" stop-color="#fabb80"/><stop offset="0.9" stop-color="#fcd1a9"/><stop offset="1" stop-color="#fcd5b0"/></linearGradient><linearGradient id="linear-gradient-27" x1="127.81" y1="91.39" x2="132.18" y2="91.39" xlink:href="#linear-gradient-6"/><linearGradient id="linear-gradient-28" x1="118.05" y1="-3.58" x2="34.37" y2="120.35" gradientUnits="userSpaceOnUse"><stop offset="0.01" stop-color="#9f19ab"/><stop offset="0.43" stop-color="#5f27bd"/><stop offset="0.9" stop-color="#3d065f"/></linearGradient><linearGradient id="linear-gradient-29" x1="118.05" y1="7.29" x2="34.37" y2="131.21" xlink:href="#linear-gradient-28"/><linearGradient id="linear-gradient-30" x1="42.75" y1="70.3" x2="51.55" y2="70.3" xlink:href="#linear-gradient-6"/><linearGradient id="linear-gradient-31" x1="42.75" y1="76.23" x2="50.03" y2="76.23" xlink:href="#linear-gradient-6"/><linearGradient id="linear-gradient-32" x1="42.75" y1="81.28" x2="51.55" y2="81.28" xlink:href="#linear-gradient-6"/><linearGradient id="linear-gradient-33" x1="42.75" y1="87.21" x2="50.03" y2="87.21" xlink:href="#linear-gradient-6"/><linearGradient id="linear-gradient-34" x1="42.75" y1="93.22" x2="48.21" y2="93.22" xlink:href="#linear-gradient-6"/><linearGradient id="linear-gradient-35" x1="42.75" y1="98.2" x2="50.03" y2="98.2" xlink:href="#linear-gradient-6"/><linearGradient id="linear-gradient-36" x1="42.75" y1="103.99" x2="48.97" y2="103.99" xlink:href="#linear-gradient-6"/><linearGradient id="linear-gradient-37" x1="42.75" y1="109.91" x2="47.6" y2="109.91" xlink:href="#linear-gradient-6"/><linearGradient id="linear-gradient-38" x1="42.75" y1="114.67" x2="50.03" y2="114.67" xlink:href="#linear-gradient-6"/><linearGradient id="linear-gradient-39" x1="42.75" y1="120.47" x2="48.97" y2="120.47" xlink:href="#linear-gradient-6"/><linearGradient id="linear-gradient-40" x1="52.38" y1="58.21" x2="81.96" y2="58.21" xlink:href="#linear-gradient-6"/><linearGradient id="linear-gradient-41" x1="52.38" y1="64.14" x2="80.44" y2="64.14" xlink:href="#linear-gradient-6"/><linearGradient id="linear-gradient-42" x1="52.38" y1="69.19" x2="81.96" y2="69.19" xlink:href="#linear-gradient-6"/><linearGradient id="linear-gradient-43" x1="52.38" y1="75.12" x2="80.44" y2="75.12" xlink:href="#linear-gradient-6"/><linearGradient id="linear-gradient-44" x1="52.38" y1="81.13" x2="78.62" y2="81.13" xlink:href="#linear-gradient-6"/><linearGradient id="linear-gradient-45" x1="52.38" y1="86.11" x2="80.44" y2="86.11" xlink:href="#linear-gradient-6"/><linearGradient id="linear-gradient-46" x1="52.38" y1="91.9" x2="79.38" y2="91.9" xlink:href="#linear-gradient-6"/><linearGradient id="linear-gradient-47" x1="52.38" y1="96.65" x2="81.96" y2="96.65" xlink:href="#linear-gradient-6"/><linearGradient id="linear-gradient-48" x1="52.38" y1="102.58" x2="80.44" y2="102.58" xlink:href="#linear-gradient-6"/><linearGradient id="linear-gradient-49" x1="52.38" y1="108.38" x2="79.38" y2="108.38" xlink:href="#linear-gradient-6"/><linearGradient id="linear-gradient-50" x1="33.24" y1="79.36" x2="38.23" y2="79.36" gradientUnits="userSpaceOnUse"><stop offset="0" stop-color="#f57454"/><stop offset="1" stop-color="#f7947c"/></linearGradient><linearGradient id="linear-gradient-51" x1="33.3" y1="86.53" x2="38.17" y2="86.53" xlink:href="#linear-gradient-50"/><linearGradient id="linear-gradient-52" x1="33.24" y1="94.62" x2="38.23" y2="94.62" xlink:href="#linear-gradient-50"/><linearGradient id="linear-gradient-53" x1="33.73" y1="102.97" x2="37.74" y2="102.97" xlink:href="#linear-gradient-50"/><linearGradient id="linear-gradient-54" x1="33.24" y1="118.2" x2="38.23" y2="118.2" xlink:href="#linear-gradient-50"/><linearGradient id="linear-gradient-55" x1="33.86" y1="110.88" x2="37.61" y2="110.88" xlink:href="#linear-gradient-50"/><linearGradient id="linear-gradient-56" x1="48.97" y1="73.01" x2="117.69" y2="62.44" gradientUnits="userSpaceOnUse"><stop offset="0" stop-color="#fab371"/><stop offset="1" stop-color="#fcd5b0"/></linearGradient><linearGradient id="linear-gradient-57" x1="70.88" y1="87.01" x2="102.51" y2="46.95" xlink:href="#linear-gradient-6"/><linearGradient id="linear-gradient-58" x1="66.63" y1="83.43" x2="98.26" y2="43.37" xlink:href="#linear-gradient-6"/><linearGradient id="linear-gradient-59" x1="69.28" y1="85.66" x2="100.89" y2="45.62" xlink:href="#linear-gradient-6"/><linearGradient id="linear-gradient-60" x1="67.56" y1="84.19" x2="99.15" y2="44.18" xlink:href="#linear-gradient-6"/><linearGradient id="linear-gradient-61" x1="64.69" y1="81.86" x2="96.33" y2="41.78" xlink:href="#linear-gradient-6"/><linearGradient id="linear-gradient-62" x1="68.83" y1="85.29" x2="100.5" y2="45.18" xlink:href="#linear-gradient-6"/><linearGradient id="linear-gradient-63" x1="68.44" y1="85.08" x2="100.21" y2="44.83" xlink:href="#linear-gradient-6"/><linearGradient id="linear-gradient-64" x1="71.63" y1="87.88" x2="103.56" y2="47.44" xlink:href="#linear-gradient-6"/><linearGradient id="linear-gradient-65" x1="67.54" y1="84.23" x2="99.17" y2="44.16" xlink:href="#linear-gradient-6"/><linearGradient id="linear-gradient-66" x1="70.56" y1="86.72" x2="102.19" y2="46.66" xlink:href="#linear-gradient-6"/><linearGradient id="linear-gradient-67" x1="66.05" y1="82.97" x2="97.65" y2="42.95" xlink:href="#linear-gradient-6"/><linearGradient id="linear-gradient-68" x1="68.96" y1="85.44" x2="100.6" y2="45.37" xlink:href="#linear-gradient-6"/><linearGradient id="linear-gradient-69" x1="69.87" y1="86.27" x2="101.63" y2="46.03" xlink:href="#linear-gradient-6"/><linearGradient id="linear-gradient-70" x1="65.61" y1="82.7" x2="97.36" y2="42.47" xlink:href="#linear-gradient-6"/><linearGradient id="linear-gradient-71" x1="70.98" y1="87.17" x2="102.73" y2="46.95" xlink:href="#linear-gradient-6"/><linearGradient id="linear-gradient-72" x1="63.73" y1="81.14" x2="95.51" y2="40.88" xlink:href="#linear-gradient-6"/><linearGradient id="linear-gradient-73" x1="67.29" y1="84.06" x2="98.83" y2="44.11" xlink:href="#linear-gradient-6"/><linearGradient id="linear-gradient-74" x1="74.39" y1="89.77" x2="105.93" y2="49.81" xlink:href="#linear-gradient-6"/><linearGradient id="linear-gradient-75" x1="70.67" y1="86.95" x2="102.45" y2="46.7" xlink:href="#linear-gradient-6"/><linearGradient id="linear-gradient-76" x1="72.38" y1="88.1" x2="103.92" y2="48.16" xlink:href="#linear-gradient-6"/><linearGradient id="linear-gradient-77" x1="69.65" y1="85.91" x2="101.23" y2="45.9" xlink:href="#linear-gradient-6"/><linearGradient id="linear-gradient-78" x1="72.66" y1="88.45" x2="104.28" y2="48.4" xlink:href="#linear-gradient-6"/><linearGradient id="linear-gradient-79" x1="64.82" y1="82" x2="96.49" y2="41.88" xlink:href="#linear-gradient-6"/><linearGradient id="linear-gradient-80" x1="70.02" y1="86.21" x2="101.64" y2="46.17" xlink:href="#linear-gradient-6"/><linearGradient id="linear-gradient-81" x1="66.11" y1="83.04" x2="97.68" y2="43.04" xlink:href="#linear-gradient-6"/><linearGradient id="linear-gradient-82" x1="72.99" y1="88.88" x2="104.76" y2="48.63" xlink:href="#linear-gradient-6"/><linearGradient id="linear-gradient-83" x1="71.99" y1="87.8" x2="103.57" y2="47.8" xlink:href="#linear-gradient-6"/><linearGradient id="linear-gradient-84" x1="61.85" y1="79.49" x2="93.48" y2="39.42" xlink:href="#linear-gradient-6"/><linearGradient id="linear-gradient-85" x1="70.23" y1="61.37" x2="98.28" y2="69.82" xlink:href="#linear-gradient-6"/><linearGradient id="linear-gradient-86" x1="69.72" y1="63.2" x2="97.75" y2="71.64" xlink:href="#linear-gradient-6"/><linearGradient id="linear-gradient-87" x1="67.41" y1="84.1" x2="98.94" y2="44.16" xlink:href="#linear-gradient-6"/><linearGradient id="linear-gradient-88" x1="75.58" y1="90.98" x2="107.21" y2="50.92" xlink:href="#linear-gradient-6"/><linearGradient id="linear-gradient-89" x1="71.32" y1="87.4" x2="102.96" y2="47.34" xlink:href="#linear-gradient-6"/><linearGradient id="linear-gradient-90" x1="73.97" y1="89.63" x2="105.58" y2="49.59" xlink:href="#linear-gradient-6"/><linearGradient id="linear-gradient-91" x1="71.83" y1="87.89" x2="103.56" y2="47.69" xlink:href="#linear-gradient-6"/><linearGradient id="linear-gradient-92" x1="69.39" y1="85.83" x2="101.03" y2="45.75" xlink:href="#linear-gradient-6"/><linearGradient id="linear-gradient-93" x1="72.75" y1="88.62" x2="104.42" y2="48.5" xlink:href="#linear-gradient-6"/><linearGradient id="linear-gradient-94" x1="73.15" y1="89.02" x2="104.93" y2="48.77" xlink:href="#linear-gradient-6"/><linearGradient id="linear-gradient-95" x1="76.37" y1="91.79" x2="108.29" y2="51.35" xlink:href="#linear-gradient-6"/><linearGradient id="linear-gradient-96" x1="72.23" y1="88.2" x2="103.87" y2="48.13" xlink:href="#linear-gradient-6"/><linearGradient id="linear-gradient-97" x1="75.45" y1="90.82" x2="107.03" y2="50.82" xlink:href="#linear-gradient-6"/><linearGradient id="linear-gradient-98" x1="70.74" y1="86.94" x2="102.34" y2="46.92" xlink:href="#linear-gradient-6"/><linearGradient id="linear-gradient-99" x1="70.32" y1="86.64" x2="102.08" y2="46.42" xlink:href="#linear-gradient-6"/><linearGradient id="linear-gradient-100" x1="74.64" y1="90.1" x2="106.23" y2="50.08" xlink:href="#linear-gradient-6"/><linearGradient id="linear-gradient-101" x1="72.98" y1="88.68" x2="104.52" y2="48.73" xlink:href="#linear-gradient-6"/><linearGradient id="linear-gradient-102" x1="75.39" y1="90.89" x2="107.16" y2="50.64" xlink:href="#linear-gradient-6"/><linearGradient id="linear-gradient-103" x1="77.24" y1="92.24" x2="108.79" y2="52.28" xlink:href="#linear-gradient-6"/><linearGradient id="linear-gradient-104" x1="74.33" y1="89.88" x2="105.92" y2="49.87" xlink:href="#linear-gradient-6"/><linearGradient id="linear-gradient-105" x1="77.35" y1="92.42" x2="108.97" y2="52.37" xlink:href="#linear-gradient-6"/><linearGradient id="linear-gradient-106" x1="73.51" y1="89.36" x2="105.34" y2="49.04" xlink:href="#linear-gradient-6"/><linearGradient id="linear-gradient-107" x1="74.31" y1="89.99" x2="106.08" y2="49.74" xlink:href="#linear-gradient-6"/><linearGradient id="linear-gradient-108" x1="76.68" y1="91.78" x2="108.26" y2="51.77" xlink:href="#linear-gradient-6"/><linearGradient id="linear-gradient-109" x1="75.73" y1="56.97" x2="82.01" y2="56.97" xlink:href="#linear-gradient-6"/><linearGradient id="linear-gradient-110" x1="82.69" y1="53.26" x2="87.43" y2="53.26" xlink:href="#linear-gradient-6"/><linearGradient id="linear-gradient-111" x1="80.27" y1="57.45" x2="84.68" y2="57.45" xlink:href="#linear-gradient-6"/><linearGradient id="linear-gradient-112" x1="85.36" y1="55.25" x2="86.89" y2="55.25" xlink:href="#linear-gradient-6"/><linearGradient id="linear-gradient-113" x1="87.56" y1="53.21" x2="91.45" y2="53.21" xlink:href="#linear-gradient-6"/><linearGradient id="linear-gradient-114" x1="95.9" y1="48.74" x2="97.98" y2="48.74" xlink:href="#linear-gradient-6"/><linearGradient id="linear-gradient-115" x1="92.13" y1="50.7" x2="95.22" y2="50.7" xlink:href="#linear-gradient-6"/><linearGradient id="linear-gradient-116" x1="75.73" y1="60.35" x2="79.6" y2="60.35" xlink:href="#linear-gradient-6"/><linearGradient id="linear-gradient-117" x1="62.52" y1="80.23" x2="94.44" y2="39.8" xlink:href="#linear-gradient-6"/><linearGradient id="linear-gradient-118" x1="63.95" y1="81.12" x2="95.49" y2="41.18" xlink:href="#linear-gradient-6"/><linearGradient id="New_Gradient_Swatch_copy_20" x1="65.94" y1="48.5" x2="103.31" y2="48.5" gradientUnits="userSpaceOnUse"><stop offset="0.04" stop-color="#138bbd"/><stop offset="0.32" stop-color="#2291c3"/><stop offset="0.86" stop-color="#4ba1d3"/><stop offset="1" stop-color="#56a5d7"/></linearGradient><linearGradient id="New_Gradient_Swatch_copy_19-2" x1="6148.08" y1="211.31" x2="6149.91" y2="169.83" gradientTransform="matrix(-0.87, 0.5, 0, 1.15, 5410.01, -3209.4)" xlink:href="#New_Gradient_Swatch_copy_19"/><linearGradient id="New_Gradient_Swatch_copy_19-3" x1="93.67" y1="109.98" x2="73.82" y2="75.21" xlink:href="#New_Gradient_Swatch_copy_19"/><linearGradient id="New_Gradient_Swatch_copy_15" x1="110.23" y1="121.52" x2="147.09" y2="110.48" gradientUnits="userSpaceOnUse"><stop offset="0.04" stop-color="#56a5d7"/><stop offset="0.29" stop-color="#65addb"/><stop offset="0.79" stop-color="#8ec3e5"/><stop offset="1" stop-color="#a0cde9"/></linearGradient><linearGradient id="New_Gradient_Swatch_copy_15-2" x1="76.75" y1="125.94" x2="124.78" y2="115.17" xlink:href="#New_Gradient_Swatch_copy_15"/><linearGradient id="New_Gradient_Swatch_copy_15-3" x1="120.76" y1="80.1" x2="105.55" y2="109.1" xlink:href="#New_Gradient_Swatch_copy_15"/><linearGradient id="New_Gradient_Swatch_copy_6" x1="112.05" y1="120.96" x2="127.15" y2="116.43" gradientUnits="userSpaceOnUse"><stop offset="0.04" stop-color="#fcd5b0"/><stop offset="0.45" stop-color="#fdddbf"/><stop offset="1" stop-color="#feebda"/></linearGradient><linearGradient id="New_Gradient_Swatch_copy_6-2" x1="109.99" y1="100.75" x2="106.26" y2="107.85" xlink:href="#New_Gradient_Swatch_copy_6"/><linearGradient id="linear-gradient-119" x1="5696.08" y1="123.04" x2="5717.69" y2="118.19" gradientTransform="matrix(-1, 0, 0, 1, 5806.83, 0)" xlink:href="#New_Gradient_Swatch_copy_6"/><linearGradient id="New_Gradient_Swatch_copy_6-3" x1="5703.44" y1="100.93" x2="5699.78" y2="107.91" gradientTransform="matrix(-1, 0, 0, 1, 5806.83, 0)" xlink:href="#New_Gradient_Swatch_copy_6"/><linearGradient id="New_Gradient_Swatch_copy_6-4" x1="109.29" y1="103.75" x2="112.58" y2="107.56" xlink:href="#New_Gradient_Swatch_copy_6"/><linearGradient id="New_Gradient_Swatch_copy_18" x1="108.07" y1="106.91" x2="112.68" y2="100.65" gradientUnits="userSpaceOnUse"><stop offset="0.04" stop-color="#fdddbe"/><stop offset="0.4" stop-color="#fee5cd"/><stop offset="0.63" stop-color="#feebda"/><stop offset="0.87" stop-color="#fdddbe"/></linearGradient><radialGradient id="Radial_Gradient_1" cx="145.71" cy="-1155.78" r="2.83" gradientTransform="translate(-6.08 1095.16) scale(0.81 0.86)" gradientUnits="userSpaceOnUse"><stop offset="0" stop-color="#fff"/><stop offset="1"/></radialGradient><linearGradient id="New_Gradient_Swatch_copy_6-5" x1="5701.91" y1="103.85" x2="5705.21" y2="107.66" gradientTransform="matrix(-1, 0, 0, 1, 5805.96, 0)" xlink:href="#New_Gradient_Swatch_copy_6"/><linearGradient id="New_Gradient_Swatch_copy_18-2" x1="5700.7" y1="107.01" x2="5705.31" y2="100.74" gradientTransform="matrix(-1, 0, 0, 1, 5805.96, 0)" xlink:href="#New_Gradient_Swatch_copy_18"/><radialGradient id="Radial_Gradient_1-2" cx="5673.31" cy="-1155.67" r="2.83" gradientTransform="matrix(-0.81, 0, 0, 0.86, 4697.17, 1095.16)" xlink:href="#Radial_Gradient_1"/><linearGradient id="New_Gradient_Swatch_copy_6-6" x1="5695.9" y1="106.91" x2="5696.76" y2="111.27" gradientTransform="matrix(-1, 0, 0, 1, 5805.96, 0)" xlink:href="#New_Gradient_Swatch_copy_6"/><linearGradient id="New_Gradient_Swatch_copy_18-3" x1="5697.46" y1="106.66" x2="5694.57" y2="110.92" gradientTransform="matrix(-1, 0, 0, 1, 5805.96, 0)" xlink:href="#New_Gradient_Swatch_copy_18"/><radialGradient id="Radial_Gradient_1-3" cx="5662.83" cy="-1149.9" r="2.75" gradientTransform="matrix(-0.81, 0, 0, 0.86, 4697.17, 1095.16)" xlink:href="#Radial_Gradient_1"/><linearGradient id="New_Gradient_Swatch_copy_6-7" x1="106.69" y1="108.57" x2="106.69" y2="106.21" xlink:href="#New_Gradient_Swatch_copy_6"/><linearGradient id="New_Gradient_Swatch_copy_6-8" x1="103.13" y1="106.91" x2="103.99" y2="111.27" xlink:href="#New_Gradient_Swatch_copy_6"/><linearGradient id="New_Gradient_Swatch_copy_18-4" x1="104.69" y1="106.66" x2="101.8" y2="110.92" xlink:href="#New_Gradient_Swatch_copy_18"/><radialGradient id="Radial_Gradient_1-4" cx="135.06" cy="-1149.9" r="2.75" xlink:href="#Radial_Gradient_1"/><linearGradient id="New_Gradient_Swatch_copy_15-4" x1="110.94" y1="132.3" x2="138.88" y2="123.93" xlink:href="#New_Gradient_Swatch_copy_15"/><linearGradient id="New_Gradient_Swatch_copy_15-5" x1="82.56" y1="135.63" x2="118.76" y2="127.51" xlink:href="#New_Gradient_Swatch_copy_15"/><linearGradient id="New_Gradient_Swatch_copy_6-9" x1="112.75" y1="131.73" x2="118.94" y2="129.88" xlink:href="#New_Gradient_Swatch_copy_6"/><linearGradient id="New_Gradient_Swatch_copy_6-10" x1="5701.84" y1="132.72" x2="5711.63" y2="130.53" gradientTransform="matrix(-1, 0, 0, 1, 5806.83, 0)" xlink:href="#New_Gradient_Swatch_copy_6"/><linearGradient id="New_Gradient_Swatch_copy_5" x1="96.22" y1="133.5" x2="129.52" y2="123.53" gradientUnits="userSpaceOnUse"><stop offset="0.04" stop-color="#0984bd"/><stop offset="0.26" stop-color="#188cc1"/><stop offset="0.69" stop-color="#419fcc"/><stop offset="1" stop-color="#62b0d5"/></linearGradient><linearGradient id="New_Gradient_Swatch_copy_5-2" x1="64.77" y1="137.48" x2="108.09" y2="127.77" xlink:href="#New_Gradient_Swatch_copy_5"/><linearGradient id="New_Gradient_Swatch_copy_5-3" x1="106.47" y1="95.53" x2="91.26" y2="124.53" xlink:href="#New_Gradient_Swatch_copy_5"/><linearGradient id="New_Gradient_Swatch_copy_4" x1="98.03" y1="132.93" x2="109.58" y2="129.47" gradientUnits="userSpaceOnUse"><stop offset="0.04" stop-color="#f7967f"/><stop offset="0.6" stop-color="#f9a578"/><stop offset="1" stop-color="#fab371"/></linearGradient><linearGradient id="New_Gradient_Swatch_copy_4-2" x1="95.7" y1="116.18" x2="91.98" y2="123.27" xlink:href="#New_Gradient_Swatch_copy_4"/><linearGradient id="New_Gradient_Swatch_copy_4-3" x1="5712.68" y1="134.58" x2="5729.57" y2="130.79" gradientTransform="matrix(-1, 0, 0, 1, 5806.83, 0)" xlink:href="#New_Gradient_Swatch_copy_4"/><linearGradient id="New_Gradient_Swatch_copy_5-4" x1="96.62" y1="140.99" x2="124.56" y2="132.62" xlink:href="#New_Gradient_Swatch_copy_5"/><linearGradient id="New_Gradient_Swatch_copy_5-5" x1="68.25" y1="144.31" x2="104.45" y2="136.2" xlink:href="#New_Gradient_Swatch_copy_5"/><linearGradient id="New_Gradient_Swatch_copy_4-4" x1="98.44" y1="140.42" x2="104.62" y2="138.57" xlink:href="#New_Gradient_Swatch_copy_4"/><linearGradient id="New_Gradient_Swatch_copy_4-5" x1="5716.15" y1="141.41" x2="5725.94" y2="139.22" gradientTransform="matrix(-1, 0, 0, 1, 5806.83, 0)" xlink:href="#New_Gradient_Swatch_copy_4"/><linearGradient id="New_Gradient_Swatch_copy_4-6" x1="5717.73" y1="116.36" x2="5714.07" y2="123.34" gradientTransform="matrix(-1, 0, 0, 1, 5806.83, 0)" xlink:href="#New_Gradient_Swatch_copy_4"/><linearGradient id="New_Gradient_Swatch_copy_4-7" x1="95" y1="119.18" x2="98.3" y2="122.99" xlink:href="#New_Gradient_Swatch_copy_4"/><linearGradient id="New_Gradient_Swatch_copy_3" x1="93.79" y1="122.34" x2="98.4" y2="116.08" gradientUnits="userSpaceOnUse"><stop offset="0.04" stop-color="#f7947c"/><stop offset="0.3" stop-color="#f6886d"/><stop offset="0.63" stop-color="#f57454"/><stop offset="0.87" stop-color="#f7947c"/></linearGradient><radialGradient id="Radial_Gradient_1-5" cx="128.08" cy="-1137.8" r="2.83" xlink:href="#Radial_Gradient_1"/><linearGradient id="New_Gradient_Swatch_copy_4-8" x1="5716.2" y1="119.28" x2="5719.5" y2="123.09" gradientTransform="matrix(-1, 0, 0, 1, 5805.96, 0)" xlink:href="#New_Gradient_Swatch_copy_4"/><linearGradient id="New_Gradient_Swatch_copy_3-2" x1="5714.99" y1="122.43" x2="5719.6" y2="116.17" gradientTransform="matrix(-1, 0, 0, 1, 5805.96, 0)" xlink:href="#New_Gradient_Swatch_copy_3"/><radialGradient id="Radial_Gradient_1-6" cx="5690.95" cy="-1137.69" r="2.83" gradientTransform="matrix(-0.81, 0, 0, 0.86, 4697.17, 1095.16)" xlink:href="#Radial_Gradient_1"/><linearGradient id="New_Gradient_Swatch_copy_4-9" x1="5710.19" y1="122.34" x2="5711.05" y2="126.7" gradientTransform="matrix(-1, 0, 0, 1, 5805.96, 0)" xlink:href="#New_Gradient_Swatch_copy_4"/><linearGradient id="New_Gradient_Swatch_copy_3-3" x1="5711.74" y1="122.09" x2="5708.85" y2="126.35" gradientTransform="matrix(-1, 0, 0, 1, 5805.96, 0)" xlink:href="#New_Gradient_Swatch_copy_3"/><radialGradient id="Radial_Gradient_1-7" cx="5680.47" cy="-1131.91" r="2.75" gradientTransform="matrix(-0.81, 0, 0, 0.86, 4697.17, 1095.16)" xlink:href="#Radial_Gradient_1"/><linearGradient id="New_Gradient_Swatch_copy_4-10" x1="92.4" y1="124" x2="92.4" y2="121.64" xlink:href="#New_Gradient_Swatch_copy_4"/><linearGradient id="New_Gradient_Swatch_copy_4-11" x1="88.85" y1="122.34" x2="89.71" y2="126.7" xlink:href="#New_Gradient_Swatch_copy_4"/><linearGradient id="New_Gradient_Swatch_copy_3-4" x1="90.4" y1="122.09" x2="87.51" y2="126.35" xlink:href="#New_Gradient_Swatch_copy_3"/><radialGradient id="Radial_Gradient_1-8" cx="117.42" cy="-1131.91" r="2.75" xlink:href="#Radial_Gradient_1"/><linearGradient id="linear-gradient-120" x1="132.69" y1="145.69" x2="156.92" y2="145.69" xlink:href="#linear-gradient-9"/><linearGradient id="New_Gradient_Swatch_copy_26" x1="138.92" y1="146.54" x2="178.6" y2="134.66" gradientUnits="userSpaceOnUse"><stop offset="0.04" stop-color="#0984bd"/><stop offset="0.32" stop-color="#1493c8"/><stop offset="0.88" stop-color="#31bce3"/><stop offset="1" stop-color="#38c5ea"/></linearGradient><linearGradient id="New_Gradient_Swatch_copy_26-2" x1="157.43" y1="118.48" x2="141.75" y2="148.36" xlink:href="#New_Gradient_Swatch_copy_26"/><linearGradient id="New_Gradient_Swatch_copy_26-3" x1="141.8" y1="151.66" x2="150.57" y2="149.04" xlink:href="#New_Gradient_Swatch_copy_26"/><radialGradient id="radial-gradient" cx="187.74" cy="-1103.23" r="10.84" gradientTransform="translate(-6.08 1095.16) scale(0.81 0.86)" gradientUnits="userSpaceOnUse"><stop offset="0" stop-color="#fff"/><stop offset="0.07" stop-color="#d8d8d8"/><stop offset="0.16" stop-color="#a6a6a6"/><stop offset="0.26" stop-color="#797979"/><stop offset="0.37" stop-color="#545454"/><stop offset="0.47" stop-color="#353535"/><stop offset="0.59" stop-color="#1e1e1e"/><stop offset="0.7" stop-color="#0d0d0d"/><stop offset="0.84" stop-color="#030303"/><stop offset="1"/></radialGradient><linearGradient id="New_Gradient_Swatch_copy_26-4" x1="138.92" y1="144.62" x2="178.6" y2="132.73" xlink:href="#New_Gradient_Swatch_copy_26"/><linearGradient id="New_Gradient_Swatch_copy_26-5" x1="157.43" y1="116.56" x2="141.75" y2="146.44" xlink:href="#New_Gradient_Swatch_copy_26"/><linearGradient id="New_Gradient_Swatch_copy_26-6" x1="141.8" y1="149.74" x2="150.57" y2="147.11" xlink:href="#New_Gradient_Swatch_copy_26"/><radialGradient id="radial-gradient-2" cx="187.74" cy="-1105.48" r="10.84" xlink:href="#radial-gradient"/><linearGradient id="New_Gradient_Swatch_copy_26-7" x1="138.92" y1="142.65" x2="178.6" y2="130.77" xlink:href="#New_Gradient_Swatch_copy_26"/><linearGradient id="New_Gradient_Swatch_copy_26-8" x1="157.43" y1="114.59" x2="141.75" y2="144.47" xlink:href="#New_Gradient_Swatch_copy_26"/><linearGradient id="New_Gradient_Swatch_copy_26-9" x1="139.07" y1="149.69" x2="178.76" y2="137.81" xlink:href="#New_Gradient_Swatch_copy_26"/><linearGradient id="New_Gradient_Swatch_copy_26-10" x1="141.8" y1="147.77" x2="150.57" y2="145.15" xlink:href="#New_Gradient_Swatch_copy_26"/><radialGradient id="radial-gradient-3" cx="187.74" cy="-1107.77" r="10.84" xlink:href="#radial-gradient"/></defs><g class="cls-1"><g id="Use_case:_Tự_động_hóa_thủ_tục_online" data-name="Use case: Tự động hóa thủ tục online"><path class="cls-2" d="M44.9,120.88a2.77,2.77,0,0,0,1.55,2.19l14.85,15a6.72,6.72,0,0,0,6.35.28l27-16.61a2,2,0,0,0,1.08-1.82.41.41,0,0,1,0,.12v2.16a2,2,0,0,1-1.09,1.66l-27,16.61a6.72,6.72,0,0,1-6.35-.28l-14.85-15A2.71,2.71,0,0,1,44.9,123C44.9,122.84,44.88,121.41,44.9,120.88Z"/><path class="cls-3" d="M67.64,138.83l27-16.61a2,2,0,0,0,1.1-1.65v-2.16c0-.76-.54.55-1.55-.07l-23.71-9.65a6.67,6.67,0,0,0-6.34-.28L46,119.67c-.54.33-.93-1.08-1.07-.63-.05.15,0,2.13,0,2.28a2.74,2.74,0,0,0,1.55,2.23l14.85,15A6.7,6.7,0,0,0,67.64,138.83Z"/><path class="cls-4" d="M67.64,136.71l27-16.61c1.63-1,1.43-2.73-.45-3.88l-23.71-9.65a6.67,6.67,0,0,0-6.34-.28L46,117.55c-1.62,1-1.42,2.73.46,3.88l14.85,15A6.67,6.67,0,0,0,67.64,136.71Z"/><path class="cls-5" d="M32.36,136.81,98.69,96.22c3.39-2.08,6.14-7.64,6.14-12.43V30.07c0-4.79-2.75-7-6.14-4.92L32.36,65.74c-3.4,2.08-6.15,7.64-6.15,12.43v53.72C26.21,136.68,29,138.88,32.36,136.81Z"/><path class="cls-6" d="M31.56,133.07l65.4-40c2.73-1.83,4.42-5.5,4.42-9.26V29.72a1.09,1.09,0,0,0-1.64-1l-.19.12L34.08,68.9c-3.25,2-4.42,5.51-4.42,9.27v53.9a1.18,1.18,0,0,0,1.76,1.08Z"/><path class="cls-7" d="M101.38,33.87V29.72a1.09,1.09,0,0,0-1.64-1l-.19.12L34.08,68.9c-3.13,1.91-4.32,5.25-4.41,8.85Z"/><path class="cls-8" d="M29.66,78.17v53.9a1.18,1.18,0,0,0,1.76,1.08l.14-.08,65.4-40c2.73-1.83,4.42-5.5,4.42-9.26V29.72a1.09,1.09,0,0,0-1.64-1l-.19.12L34.08,68.9C30.83,70.89,29.66,74.41,29.66,78.17Zm.69,0c0-2.81.71-6.58,4.08-8.63l65.66-40.19a.36.36,0,0,1,.2-.06.42.42,0,0,1,.4.43V83.79c0,3.58-1.61,7-4.07,8.63l-65.54,40.1a.55.55,0,0,1-.24.07.51.51,0,0,1-.49-.52Z"/><path class="cls-9" d="M30.61,64.76,97,24.17a3.92,3.92,0,0,1,3.59-.55c.13.05,1.84,1,2,1.08h0a3.83,3.83,0,0,0-3.82.44L32.36,65.74c-3.4,2.08-6.15,7.64-6.15,12.43v53.72c0,3,1.08,5,2.7,5.53a1,1,0,0,1-.53-.19c-.08,0-1.94-1.16-2-1.22-1.17-.86-1.9-2.64-1.9-5.1V77.19C24.47,72.4,27.22,66.84,30.61,64.76Z"/><g class="cls-10"><path class="cls-11" d="M151.33,143.89a4.2,4.2,0,0,1-2.23-.57l-13.51-8.14L122.07,127a2.54,2.54,0,0,1-1.28-2.16,2.9,2.9,0,0,1,1.54-2.44l8.85-5.27a5.19,5.19,0,0,1,2.7-.73,4.23,4.23,0,0,1,2.22.57l13.52,8.14,13.51,8.15a2.49,2.49,0,0,1,1.28,2.15,2.92,2.92,0,0,1-1.54,2.45L154,143.16A5.25,5.25,0,0,1,151.33,143.89Z"/><path class="cls-12" d="M122.57,122.64l2.4-1.42c.09-.06,4.56-2.63,4.64-2.58l1.59-.83a5.36,5.36,0,0,1,2.61-.57,4.5,4.5,0,0,1,2.15.59l10.84,6.55,2.28,1.37,13.13,7.92a2.85,2.85,0,0,1,1,1.09,2.29,2.29,0,0,1,.25,1,2.73,2.73,0,0,1-1.47,2.38l-2.39,1.41c-.1.06-4.56,2.64-4.64,2.59l-1.6.82a5.21,5.21,0,0,1-2.6.57,4.36,4.36,0,0,1-2.15-.59l-10.85-6.54L135.52,135l-13.13-7.92a2.87,2.87,0,0,1-1-1.08,2.38,2.38,0,0,1-.26-1A2.77,2.77,0,0,1,122.57,122.64Z"/><path class="cls-13" d="M122.81,122.84l2.33-1.36a48,48,0,0,1,4.54-2.35l1.55-.67a5.28,5.28,0,0,1,2.51-.41,4.6,4.6,0,0,1,2.07.61L146.34,125l2.21,1.33,12.74,7.7a3.17,3.17,0,0,1,1,1,2.34,2.34,0,0,1,.28.93,2.6,2.6,0,0,1-1.4,2.31l-2.33,1.36a45.75,45.75,0,0,1-4.55,2.34l-1.54.68a5.43,5.43,0,0,1-2.51.41,4.45,4.45,0,0,1-2.07-.62l-10.53-6.35-2.21-1.34-12.75-7.69a3.13,3.13,0,0,1-1-1,2.34,2.34,0,0,1-.28-.93A2.6,2.6,0,0,1,122.81,122.84Z"/><path class="cls-14" d="M123.05,123l2.27-1.31c.29-.18,4.18-2.26,4.44-2.1l1.49-.53a5.64,5.64,0,0,1,2.42-.25,4.72,4.72,0,0,1,2,.64l10.21,6.17L148,127l12.36,7.47a3.35,3.35,0,0,1,1,1,2.21,2.21,0,0,1,.31.88,2.43,2.43,0,0,1-1.33,2.25l-2.27,1.31c-.29.18-4.18,2.26-4.44,2.1l-1.49.53a5.64,5.64,0,0,1-2.42.25,4.72,4.72,0,0,1-2-.64l-10.21-6.17-2.14-1.3L123,127.14a3.27,3.27,0,0,1-1-1,2.16,2.16,0,0,1-.31-.88A2.42,2.42,0,0,1,123.05,123Z"/><path class="cls-15" d="M123.29,123.24l2.2-1.26c.39-.24,4-2.06,4.34-1.86l1.45-.37c.49-.3,1.7-.1,2.32-.1a4.94,4.94,0,0,1,1.91.67l9.89,6,2.08,1.26,12,7.24a3.73,3.73,0,0,1,1,.93,2.19,2.19,0,0,1,.33.83,2.29,2.29,0,0,1-1.26,2.18l-2.2,1.26c-.39.24-4,2.07-4.34,1.86l-1.45.37c-.49.3-1.7.1-2.32.1a5,5,0,0,1-1.91-.67l-9.89-6-2.08-1.26-12-7.24a3.73,3.73,0,0,1-1-.93,2.19,2.19,0,0,1-.33-.83A2.29,2.29,0,0,1,123.29,123.24Z"/><path class="cls-16" d="M123.53,123.44l2.14-1.21c.49-.3,3.81-1.87,4.24-1.61l1.39-.23c.42-.25,1.7.07,2.23.07a5.3,5.3,0,0,1,1.83.69l9.58,5.79,2,1.22,11.59,7a4.65,4.65,0,0,1,1,.87,1.88,1.88,0,0,1-.84,2.9l-2.13,1.21c-.49.3-3.82,1.87-4.24,1.62l-1.4.22c-.42.26-1.7-.06-2.23-.06a5.51,5.51,0,0,1-1.83-.69l-9.57-5.8-2-1.21-11.59-7a4.36,4.36,0,0,1-1-.87,2.09,2.09,0,0,1-.36-.79A2.12,2.12,0,0,1,123.53,123.44Z"/><path class="cls-17" d="M123.77,123.65l2.07-1.17c.59-.35,3.63-1.68,4.14-1.37l1.35-.07c.35-.22,1.69.22,2.13.22a6.07,6.07,0,0,1,1.76.71l9.25,5.61,1.93,1.18,11.21,6.8a4.89,4.89,0,0,1,1,.82,2.21,2.21,0,0,1,.39.74,2,2,0,0,1-1.12,2l-2.08,1.16c-.58.36-3.63,1.68-4.14,1.37l-1.34.08c-.35.21-1.7-.22-2.14-.22a6,6,0,0,1-1.75-.72l-9.25-5.61-1.94-1.17L124,127.25a5.19,5.19,0,0,1-1-.82,2.27,2.27,0,0,1-.38-.74A2,2,0,0,1,123.77,123.65Z"/><path class="cls-18" d="M124,123.85l2-1.11c.68-.42,3.44-1.49,4-1.13l1.3.07c.28-.17,1.69.38,2,.38a7.26,7.26,0,0,1,1.68.74l8.93,5.43,1.87,1.13,10.82,6.58a5.64,5.64,0,0,1,1,.76,2.29,2.29,0,0,1,.41.7,1.84,1.84,0,0,1-1.05,2l-2,1.11c-.69.42-3.45,1.49-4,1.13l-1.3-.07c-.28.17-1.68-.39-2-.39a7.16,7.16,0,0,1-1.67-.73L137,135l-1.86-1.13-10.83-6.58a6,6,0,0,1-.95-.76,2.21,2.21,0,0,1-.41-.7A1.82,1.82,0,0,1,124,123.85Z"/><path class="cls-19" d="M124.25,124.05l1.94-1.06c.78-.48,3.26-1.3,3.94-.89l1.25.23c.21-.13,1.68.54,1.94.54a8.41,8.41,0,0,1,1.6.76l8.61,5.24,1.8,1.09,10.44,6.35a6.35,6.35,0,0,1,.95.71,1.54,1.54,0,0,1,.43.65,1.69,1.69,0,0,1-1,1.91l-1.95,1.06c-.78.48-3.25,1.3-3.93.89L149,141.3c-.21.13-1.68-.54-1.95-.54a8.62,8.62,0,0,1-1.59-.76l-8.62-5.24-1.8-1.09-10.44-6.35a6.25,6.25,0,0,1-.94-.71,1.54,1.54,0,0,1-.43-.65A1.7,1.7,0,0,1,124.25,124.05Z"/><path class="cls-20" d="M124.49,124.25l1.88-1c.88-.54,3.07-1.11,3.83-.64l1.21.37c.13-.08,1.67.7,1.84.7a11.5,11.5,0,0,1,1.52.79l8.3,5,1.73,1.05,10,6.13a8.13,8.13,0,0,1,.93.66,1.35,1.35,0,0,1,.46.6c.24.62-.08,1.34-.91,1.84l-1.88,1c-.88.54-3.07,1.11-3.83.65l-1.21-.38a18.63,18.63,0,0,1-1.85-.7,12,12,0,0,1-1.51-.78l-8.3-5.05L135,133.48,125,127.35a7.29,7.29,0,0,1-.93-.65,1.48,1.48,0,0,1-.47-.61C123.34,125.47,123.66,124.76,124.49,124.25Z"/><path class="cls-21" d="M124.73,124.45l1.81-1c1-.59,2.89-.92,3.74-.4l1.15.53c.07,0,1.67.85,1.76.85s1.38.78,1.44.81l8,4.87,1.66,1,9.67,5.91s.9.56.92.6a1.43,1.43,0,0,1,.49.56c.26.58,0,1.28-.85,1.77l-1.81,1c-1,.6-2.89.92-3.73.4l-1.16-.52c-.07,0-1.67-.86-1.75-.86s-1.39-.77-1.44-.81l-8-4.86-1.66-1-9.67-5.9c-.05,0-.9-.56-.92-.61a1.48,1.48,0,0,1-.49-.55C123.62,125.64,123.91,125,124.73,124.45Z"/><path class="cls-22" d="M148.27,141.28l-11.78-7.2-11.78-7.21c-.93-.57-.82-1.56.26-2.22l1.75-.9a3.82,3.82,0,0,1,3.63-.16l11.78,7.2L153.92,138c.93.56.81,1.56-.26,2.22l-1.76.9A3.82,3.82,0,0,1,148.27,141.28Z"/></g><path class="cls-23" d="M149.49,139.5l-21.14-12.93c-2.39-1.46-4.32-5.37-4.32-8.74V58.22c0-1.71-1.33-2.09-.52-2.71l1.92-.93a3,3,0,0,1,2.92.18l21.14,12.93c2.38,1.46,4.31,5.37,4.31,8.73V136c0,1.79-.54,3.06-1.41,3.65,0,0-2.29,1.16-2.35,1.18C149.27,141.14,150.53,140.13,149.49,139.5Z"/><path class="cls-24" d="M147.47,140.51l-21.14-12.93c-2.39-1.46-4.32-5.37-4.32-8.73V59.23c0-3.37,1.93-4.91,4.32-3.46L147.47,68.7c2.38,1.46,4.32,5.37,4.32,8.73v59.62C151.79,140.42,149.85,142,147.47,140.51Z"/><path class="cls-25" d="M123.44,119.6V60.22c0-2.47,1.42-3.61,3.17-2.54l20.58,12.58c1.75,1.07,3.17,3.94,3.17,6.41v59.39c0,2.47-1.42,3.61-3.17,2.54L126.61,126C124.86,125,123.44,122.08,123.44,119.6Z"/><path class="cls-26" d="M126.85,58.34c-1.65-1-3-.2-3,1.8V120.2a7.06,7.06,0,0,0,3,5.45L147,137.94c1.65,1,3,.2,3-1.8V76.08a7.06,7.06,0,0,0-3-5.45Z"/><path class="cls-27" d="M145.35,73.49,148,75.08c.1.06.18,0,.18-.11a.43.43,0,0,0-.18-.33l-2.61-1.59c-.1-.06-.18,0-.18.11A.44.44,0,0,0,145.35,73.49ZM148,75.63,145.35,74c-.1-.06-.18,0-.18.11a.43.43,0,0,0,.18.33l2.61,1.6c.1.06.18,0,.18-.11A.43.43,0,0,0,148,75.63Zm0,1L145.35,75c-.1-.06-.18,0-.18.11a.41.41,0,0,0,.18.32l2.61,1.6c.1.06.18,0,.18-.11A.43.43,0,0,0,148,76.61Z"/><ellipse class="cls-27" cx="128.92" cy="63.67" rx="0.36" ry="0.64" transform="translate(-14.83 66.95) rotate(-27.59)"/><path class="cls-27" d="M128.05,63.13c0,.29-.2.41-.44.26a1,1,0,0,1-.43-.79c0-.29.19-.41.43-.26A1,1,0,0,1,128.05,63.13Z"/><path class="cls-27" d="M126.73,62.32c0,.3-.19.41-.43.27a1.05,1.05,0,0,1-.44-.8c0-.29.2-.41.44-.26A1,1,0,0,1,126.73,62.32Z"/><path class="cls-28" d="M147,70.63l-20.1-12.29c-1.65-1-3-.2-3,1.8V120.2a7.06,7.06,0,0,0,3,5.45L147,137.94c1.65,1,3,.2,3-1.8V76.08A7.06,7.06,0,0,0,147,70.63Zm2.73,65.51a2.48,2.48,0,0,1-.4,1.48,1.21,1.21,0,0,1-1,.48h0a2.37,2.37,0,0,1-1.21-.4L127,125.41a6.74,6.74,0,0,1-2.86-5.21V60.14c0-1.21.53-2,1.39-2a2.43,2.43,0,0,1,1.21.4l20.1,12.29a6.77,6.77,0,0,1,2.86,5.21Z"/><path class="cls-29" d="M126.25,91.47V87.68a1.76,1.76,0,0,1,2.63-1.61l17,10.26a3.59,3.59,0,0,1,1.68,3.08v3.79a1.76,1.76,0,0,1-2.63,1.61l-17-10.26A3.58,3.58,0,0,1,126.25,91.47Z"/><path class="cls-30" d="M145.4,104.57l-17-10.26a3.59,3.59,0,0,1-1.68-3.08V87.44a1.87,1.87,0,0,1,.75-1.52,1.84,1.84,0,0,0-1.21,1.76v3.79a3.58,3.58,0,0,0,1.69,3.08l17,10.26a1.67,1.67,0,0,0,1.88-.09A1.64,1.64,0,0,1,145.4,104.57Z"/><path class="cls-31" d="M139.92,75l-6.09-3.72c-.38-.23-.68,0-.68.41v4.37a1.58,1.58,0,0,0,.68,1.23l6.09,3.73c.37.23.68,0,.68-.41V76.27A1.61,1.61,0,0,0,139.92,75Zm.36,5.87L137.87,77l-1,.56s-.43-.78-1-1.79l-2.4,1,2.17-1.39c-1-1.77-2.22-4-2.22-4l3.45,5.5,3.47-1.26-2.23,1.25Z"/><path class="cls-32" d="M128.46,92.56a4.78,4.78,0,0,1-.63-2,3.57,3.57,0,0,1,0-.37c0-.24,0-.44,0-.6a2,2,0,0,1,.31-1,.86.86,0,0,1,.72-.37,2.13,2.13,0,0,1,1.09.37,4.55,4.55,0,0,1,2.22,3.63c0,.19,0,.26,0,.38s0,.33,0,.45c0,.34-.11.55-.26.64a.59.59,0,0,1-.6-.08,1.62,1.62,0,0,1-.43-.39,1.7,1.7,0,0,1-.26-.43.38.38,0,0,1-.27.17.83.83,0,0,1-.49-.17,1.86,1.86,0,0,1-.71-.82,2.89,2.89,0,0,1-.26-1.24,1.28,1.28,0,0,1,.26-.93c.17-.16.4-.15.7,0a1.32,1.32,0,0,1,.35.31,1.8,1.8,0,0,1,.25.4v-.11c0-.05,0-.09,0-.1s.06,0,.1,0l.24.15a.36.36,0,0,1,.1.11.42.42,0,0,1,0,.15v1.5a1.08,1.08,0,0,0,.09.46.66.66,0,0,0,.25.29c.13.08.21.08.26,0a.54.54,0,0,0,.08-.33c0-.14,0-.29,0-.45s0-.11,0-.28a3,3,0,0,0-.44-1.48A3.76,3.76,0,0,0,130,89.21c-.48-.3-.86-.38-1.12-.25a1.1,1.1,0,0,0-.48,1c0,.11,0,.3,0,.56a2.56,2.56,0,0,0,0,.33,3.53,3.53,0,0,0,.48,1.53A3.48,3.48,0,0,0,130,93.49a3,3,0,0,0,.61.3.81.81,0,0,0,.36.08,1.57,1.57,0,0,0,.27-.05l.08,0a.09.09,0,0,1,.08,0l.33.21a.29.29,0,0,1,.11.11.42.42,0,0,1,0,.15.2.2,0,0,1,0,.08c-.42.31-1,.22-1.84-.27A4.37,4.37,0,0,1,128.46,92.56Zm1.86-.31a.91.91,0,0,0,.13-.57,2,2,0,0,0-.13-.73.93.93,0,0,0-.39-.46c-.34-.21-.51,0-.51.56a1.76,1.76,0,0,0,.13.71.94.94,0,0,0,.38.47C130.11,92.34,130.24,92.35,130.32,92.25Z"/><g class="cls-33"><polygon class="cls-34" points="99.28 52.31 99.28 47.11 41 82.44 41 87.59 99.28 52.31"/><polygon class="cls-35" points="99.28 63.17 99.28 57.97 41 93.3 41 98.45 99.28 63.17"/><polygon class="cls-36" points="40.71 126.44 41.15 126.15 41.15 70.97 40.71 71.22 40.71 126.44"/><polygon class="cls-37" points="51.55 68.19 51.55 67.07 42.75 72.42 42.75 73.54 51.55 68.19"/><polygon class="cls-38" points="50.03 74.56 50.03 73.44 42.75 77.91 42.75 79.03 50.03 74.56"/><polygon class="cls-39" points="51.55 79.17 51.55 78.05 42.75 83.41 42.75 84.52 51.55 79.17"/><polygon class="cls-40" points="50.03 85.54 50.03 84.42 42.75 88.9 42.75 90.01 50.03 85.54"/><polygon class="cls-41" points="48.21 92.06 48.21 90.94 42.75 94.39 42.75 95.5 48.21 92.06"/><polygon class="cls-42" points="50.03 96.52 50.03 95.4 42.75 99.88 42.75 100.99 50.03 96.52"/><polygon class="cls-43" points="48.97 102.63 48.97 101.5 42.75 105.37 42.75 106.48 48.97 102.63"/><polygon class="cls-44" points="47.6 108.96 47.6 107.84 42.75 110.86 42.75 111.98 47.6 108.96"/><polygon class="cls-45" points="50.03 113 50.03 111.88 42.75 116.35 42.75 117.47 50.03 113"/><polygon class="cls-46" points="48.97 119.1 48.97 117.98 42.75 121.84 42.75 122.96 48.97 119.1"/><polygon class="cls-47" points="81.96 49.92 81.96 48.79 52.38 66.51 52.38 67.63 81.96 49.92"/><polygon class="cls-48" points="80.44 56.29 80.44 55.16 52.38 72 52.38 73.12 80.44 56.29"/><polygon class="cls-49" points="81.96 60.9 81.96 59.78 52.38 77.49 52.38 78.61 81.96 60.9"/><polygon class="cls-50" points="80.44 67.27 80.44 66.15 52.38 82.98 52.38 84.1 80.44 67.27"/><polygon class="cls-51" points="78.62 73.79 78.62 72.67 52.38 88.48 52.38 89.59 78.62 73.79"/><polygon class="cls-52" points="80.44 78.25 80.44 77.13 52.38 93.97 52.38 95.08 80.44 78.25"/><polygon class="cls-53" points="79.38 84.36 79.38 83.23 52.38 99.46 52.38 100.57 79.38 84.36"/><polygon class="cls-54" points="81.96 88.36 81.96 87.23 52.38 104.95 52.38 106.06 81.96 88.36"/><polygon class="cls-55" points="80.44 94.73 80.44 93.6 52.38 110.44 52.38 111.56 80.44 94.73"/><polygon class="cls-56" points="79.38 100.83 79.38 99.7 52.38 115.93 52.38 117.05 79.38 100.83"/><path class="cls-57" d="M37.78,76.1l-4.09,2.5a1.06,1.06,0,0,0-.45.82v2.93c0,.31.2.43.45.28l4.09-2.5a1.06,1.06,0,0,0,.45-.83V76.37C38.23,76.07,38,75.94,37.78,76.1ZM38,79.74l-1.61-.65-.67,1.2-.67-.38-1.61,2.62,1.45-2.71L33.42,79l2.31.85,2.33-3.68-1.5,2.66Z"/><path class="cls-58" d="M35.66,88.15,34.4,89.72c-.12.14-.25.11-.23-.07l.24-1.84a.14.14,0,0,0,0-.15l-1-.58c-.1-.06-.05-.29.09-.39l1.4-1.11A.34.34,0,0,0,35,85.4l.63-1.93c.06-.18.23-.28.29-.17l.63,1.16s.06.05.12,0l1.4-.61c.13-.06.19.11.09.28L37.1,86a.36.36,0,0,0,0,.2l.24,1.55c0,.15-.12.35-.24.35l-1.25,0A.2.2,0,0,0,35.66,88.15Z"/><path class="cls-59" d="M35.73,91.59a5.92,5.92,0,0,0-2.49,4.56c0,1.67,1.12,2.35,2.49,1.51a5.9,5.9,0,0,0,2.5-4.56C38.23,91.43,37.11,90.75,35.73,91.59ZM34,95.82c-.09.06-.16,0-.16-.09a.36.36,0,0,1,.16-.28c.08,0,.15,0,.15.09A.36.36,0,0,1,34,95.82Zm1.69,1c-.08.05-.15,0-.15-.1a.39.39,0,0,1,.15-.28c.09,0,.16,0,.16.1A.36.36,0,0,1,35.73,96.85Zm1-1.66a.5.5,0,0,1-.13.15.14.14,0,0,1-.14,0l-.79-.5a.21.21,0,0,1-.08-.19V92.48a.46.46,0,0,1,.18-.34c.11-.06.19,0,.19.11v2.14l.77.48C36.76,94.92,36.76,95.06,36.69,95.19Zm.74-1.44c-.09,0-.16,0-.16-.09a.36.36,0,0,1,.16-.28c.08,0,.15,0,.15.09A.37.37,0,0,1,37.43,93.75Z"/><path class="cls-60" d="M35.73,100a4.73,4.73,0,0,0-2,3.66c0,1.29.82,1.84,1.86,1.3v1.2l.87-1.89a4.84,4.84,0,0,0,1.28-3.06C37.74,99.9,36.84,99.36,35.73,100Zm-.79,3.17c-.12.23-.32.35-.44.27s-.12-.31,0-.53.32-.35.44-.27S35.06,103,34.94,103.21Zm1-.62c-.12.23-.32.35-.44.27s-.12-.31,0-.53.32-.35.44-.27S36.08,102.37,36,102.59Zm1-.62c-.12.23-.32.35-.44.27s-.13-.31,0-.53.32-.35.44-.27S37.09,101.75,37,102Z"/><polygon class="cls-61" points="35.89 118.91 36.2 121.75 38.23 114.64 33.24 120.15 35.89 118.91"/><path class="cls-62" d="M37.33,108l-1.16-.7a.67.67,0,0,0-.68.08l-1.63,1v6.06l3.75-2.29v-3.5A.74.74,0,0,0,37.33,108Zm-.35,3-2.5,1.52v-.38l2.5-1.52Zm0-.76-2.5,1.53v-.38l2.5-1.53Zm0-.76-2.5,1.53v-.38l2.5-1.53ZM36,109v-1.17l1,.58Z"/></g><path class="cls-63" d="M59.74,69.58l0,0,22.85-38c1.1-1.81,2.72-2.8,3.81-2.33l22.88,10.05,0,0a.9.9,0,0,1,.43.88V77.77a3,3,0,0,1-1.28,2.34L60.59,109.32c-.7.44-1.27.09-1.27-.77V71A2.94,2.94,0,0,1,59.74,69.58Z"/><path class="cls-64" d="M59.88,69.57l0,0,22.86-38c1.09-1.81,2.71-2.8,3.81-2.33l22.88,10,0,0a.9.9,0,0,1,.42.88V77.76a3,3,0,0,1-1.27,2.34L60.73,109.31c-.7.44-1.28.09-1.28-.77V71A3,3,0,0,1,59.88,69.57Z"/><polygon class="cls-63" points="65.44 103.54 102.81 80.69 102.81 34.89 65.44 57.73 65.44 103.54"/><polygon class="cls-65" points="65.94 104.06 103.31 81.22 103.31 35.42 65.94 58.26 65.94 104.06"/><polygon class="cls-66" points="80.73 73.08 83.72 71.27 83.72 72.21 80.73 74.02 80.73 73.08"/><polygon class="cls-67" points="81.98 65.43 79.01 67.25 79.01 66.31 81.98 64.5 81.98 65.43"/><polygon class="cls-68" points="81.82 70.41 81.82 71.34 78.51 73.33 78.51 72.4 81.82 70.41"/><polygon class="cls-69" points="78.34 69.64 78.34 68.71 82.53 66.12 82.53 67.05 78.34 69.64"/><polygon class="cls-70" points="75.79 68.25 75.79 69.19 73.05 70.83 73.05 69.89 75.79 68.25"/><polygon class="cls-71" points="85.76 65.08 83.41 66.51 83.41 65.58 85.76 64.14 85.76 65.08"/><polygon class="cls-72" points="79.88 70.59 79.88 69.66 81.27 68.82 81.27 69.75 79.88 70.59"/><polygon class="cls-73" points="84.6 71.67 84.6 70.74 85.36 70.27 85.36 71.21 84.6 71.67"/><polygon class="cls-74" points="79 70.19 79 71.12 76.16 72.83 76.16 71.9 79 70.19"/><polygon class="cls-75" points="82.7 70.81 82.7 69.88 85.75 68.01 85.75 68.94 82.7 70.81"/><polygon class="cls-76" points="77.47 69.24 77.47 70.17 73.91 72.29 73.91 71.35 77.47 69.24"/><polygon class="cls-77" points="74.76 77.64 74.76 76.7 77.55 75.01 77.55 75.94 74.76 77.64"/><polygon class="cls-78" points="79.85 74.55 78.43 75.41 78.43 74.48 79.85 73.62 79.85 74.55"/><polygon class="cls-79" points="78.14 67.78 76.67 68.66 76.67 67.72 78.14 66.84 78.14 67.78"/><polygon class="cls-80" points="90.89 60.98 92.42 60.06 92.42 60.99 90.89 61.92 90.89 60.98"/><polygon class="cls-81" points="72.17 71.36 70.82 72.17 70.82 71.24 72.17 70.42 72.17 71.36"/><polygon class="cls-82" points="68.07 81.56 68.07 80.62 74.05 77.01 74.05 77.95 68.07 81.56"/><polygon class="cls-83" points="90.1 68.35 90.1 67.42 96.08 63.81 96.08 64.74 90.1 68.35"/><polygon class="cls-84" points="86.98 65.36 88.39 64.5 88.39 65.43 86.98 66.3 86.98 65.36"/><polygon class="cls-85" points="86.64 67.47 92.92 63.73 92.92 64.66 86.64 68.41 86.64 67.47"/><polygon class="cls-86" points="82.15 68.28 86.12 65.89 86.12 66.83 82.15 69.22 82.15 68.28"/><polygon class="cls-87" points="86.24 70.67 86.24 69.74 89.39 67.83 89.39 68.76 86.24 70.67"/><polygon class="cls-88" points="73.03 72.81 70.82 74.11 70.82 73.18 73.03 71.88 73.03 72.81"/><polygon class="cls-89" points="90.02 62.45 86.64 64.54 86.64 63.6 90.02 61.52 90.02 62.45"/><polygon class="cls-90" points="75.28 73.37 70.82 76.05 70.82 75.12 75.28 72.43 75.28 73.37"/><polygon class="cls-91" points="94.33 60.92 95.73 60.06 95.73 60.99 94.33 61.86 94.33 60.92"/><polygon class="cls-92" points="89.5 63.85 93.46 61.46 93.46 62.39 89.5 64.78 89.5 63.85"/><polygon class="cls-93" points="71.67 68.46 68.81 70.2 68.81 69.27 71.67 67.53 71.67 68.46"/><polygon class="cls-94" points="73.26 60.74 68.81 63.42 68.81 62.49 73.26 59.8 73.26 60.74"/><polygon class="cls-95" points="74.76 62.49 68.81 66.09 68.81 65.16 74.76 61.56 74.76 62.49"/><polygon class="cls-96" points="77.63 73.87 70.82 77.99 70.82 77.06 77.63 72.94 77.63 73.87"/><polygon class="cls-97" points="80.73 83 83.72 81.19 83.72 82.12 80.73 83.93 80.73 83"/><polygon class="cls-98" points="81.98 75.34 79.01 77.16 79.01 76.22 81.98 74.41 81.98 75.34"/><polygon class="cls-99" points="81.82 80.32 81.82 81.26 78.51 83.25 78.51 82.31 81.82 80.32"/><polygon class="cls-100" points="78.34 79.56 78.34 78.62 80.02 77.59 80.02 78.53 78.34 79.56"/><polygon class="cls-101" points="75.79 78.17 75.79 79.1 73.05 80.74 73.05 79.81 75.79 78.17"/><polygon class="cls-102" points="83.25 76.55 80.91 77.99 80.91 77.05 83.25 75.62 83.25 76.55"/><polygon class="cls-103" points="79.88 80.5 79.88 79.57 81.27 78.73 81.27 79.66 79.88 80.5"/><polygon class="cls-104" points="84.6 81.59 84.6 80.65 85.36 80.19 85.36 81.12 84.6 81.59"/><polygon class="cls-105" points="79 80.1 79 81.04 76.16 82.75 76.16 81.81 79 80.1"/><polygon class="cls-106" points="82.7 80.72 82.7 79.79 86.89 77.25 86.89 78.19 82.7 80.72"/><polygon class="cls-107" points="77.47 79.15 77.47 80.09 73.91 82.2 73.91 81.27 77.47 79.15"/><polygon class="cls-108" points="78.14 77.69 76.67 78.57 76.67 77.64 78.14 76.75 78.14 77.69"/><polygon class="cls-109" points="86.1 73.87 89.91 71.53 89.91 72.47 86.1 74.81 86.1 73.87"/><polygon class="cls-110" points="82.51 75.1 82.51 74.17 88.49 70.56 88.49 71.49 82.51 75.1"/><polygon class="cls-111" points="86.98 75.28 88.39 74.41 88.39 75.34 86.98 76.21 86.98 75.28"/><polygon class="cls-112" points="87.77 76.72 92.92 73.64 92.92 74.57 87.77 77.65 87.77 76.72"/><polygon class="cls-113" points="82.15 78.2 86.12 75.81 86.12 76.74 82.15 79.13 82.15 78.2"/><polygon class="cls-114" points="86.24 80.58 86.24 79.65 89.39 77.74 89.39 78.67 86.24 80.58"/><polygon class="cls-115" points="85.24 75.34 84.14 76.01 84.14 75.08 85.24 74.4 85.24 75.34"/><polygon class="cls-116" points="89.25 70.13 90.66 69.26 90.66 70.19 89.25 71.06 89.25 70.13"/><polygon class="cls-117" points="89.5 73.76 93.46 71.37 93.46 72.3 89.5 74.69 89.5 73.76"/><polygon class="cls-118" points="82.01 54.62 75.73 58.38 75.73 59.31 82.01 55.55 82.01 54.62"/><polygon class="cls-119" points="82.69 54.21 82.69 55.14 87.44 52.3 87.44 51.37 82.69 54.21"/><polygon class="cls-120" points="80.27 59.24 84.68 56.59 84.68 55.65 80.27 58.31 80.27 59.24"/><polygon class="cls-121" points="86.89 54.33 85.36 55.24 85.36 56.18 86.89 55.26 86.89 54.33"/><polygon class="cls-122" points="91.45 51.58 87.56 53.92 87.56 54.85 91.45 52.51 91.45 51.58"/><polygon class="cls-123" points="95.9 48.89 95.9 49.83 97.98 48.58 97.98 47.65 95.9 48.89"/><polygon class="cls-124" points="95.22 49.3 92.13 51.17 92.13 52.1 95.22 50.24 95.22 49.3"/><polygon class="cls-125" points="79.6 58.72 75.73 61.05 75.73 61.98 79.6 59.65 79.6 58.72"/><g class="cls-126"><polygon class="cls-127" points="73.01 66.73 72.24 67.19 72.24 68.12 73.01 67.66 73.01 66.73"/><polygon class="cls-128" points="73.67 66.33 73.67 67.26 79.72 63.63 79.72 62.7 73.67 66.33"/></g><polygon class="cls-129" points="65.94 61.59 103.31 38.75 103.31 35.42 65.94 58.26 65.94 61.59"/><path class="cls-130" d="M82.7,80.18c1.11.49,2.76-.52,3.87-2.37l23.22-37.06V76.21a3,3,0,0,1-1.27,2.34L60.73,107.76c-.7.43-1.28.09-1.28-.77V71.53Z"/><path class="cls-131" d="M82.7,81.73c1.11.49,2.76-.52,3.87-2.37l23.22-38.61v37a3,3,0,0,1-1.27,2.34L60.73,109.31c-.7.44-1.28.09-1.28-.77v-37Z"/><path class="cls-130" d="M108.64,80.06l0,0-22-10.8c-1-.46-2.6.49-3.65,2.23l-22,37.66h0Z"/><path class="cls-132" d="M108.64,80.06l0,0-22-9.66c-1-.46-2.6.49-3.65,2.24l-22,36.51h0Z"/><polygon class="cls-133" points="106.65 114.99 106.65 134.32 119.42 126.49 119.42 107.05 106.65 114.99"/><polygon class="cls-134" points="106.67 114.99 106.67 134.32 93.84 126.47 93.84 107.02 106.67 114.99"/><polygon class="cls-135" points="93.84 107.02 106.67 114.99 119.42 107.05 106.56 99.12 93.84 107.02"/><polygon class="cls-136" points="112.02 111.69 112.02 131.01 114.37 129.65 114.37 110.21 112.02 111.69"/><polygon class="cls-137" points="99.11 103.68 112.04 111.69 114.37 110.21 101.41 102.24 99.11 103.68"/><polygon class="cls-138" points="101.31 111.72 101.31 131.05 99.04 129.73 99.04 110.28 101.31 111.72"/><polygon class="cls-139" points="114.12 103.76 101.3 111.72 99.04 110.28 111.89 102.36 114.12 103.76"/><path class="cls-140" d="M108.46,107.26,106.39,106s2.09-3.13,4-4.12a2.24,2.24,0,0,1,2.92,1.08c.25.55-.32,1.49-1,1.91C110.63,106,108.46,107.26,108.46,107.26Z"/><path class="cls-141" d="M112.38,103.18a1.85,1.85,0,0,1,1-.2,2.25,2.25,0,0,0-2.93-1.1c-1.94,1-4,4.12-4,4.12l2,1.22C108.71,106.77,110.6,104.09,112.38,103.18Z"/><path class="cls-142" d="M113.28,102.85a1.94,1.94,0,0,0-1,.21c-1.78.9-3.92,4.16-3.92,4.16.31-.45,2.2-3.13,4-4a1.85,1.85,0,0,1,1-.2S113.3,102.89,113.28,102.85Z"/><path class="cls-143" d="M104.88,107.35l2.07-1.26s-2.09-3.12-4-4.11a2.23,2.23,0,0,0-2.92,1.08c-.25.55.32,1.48,1,1.9C102.71,106.08,104.88,107.35,104.88,107.35Z"/><path class="cls-144" d="M101,103.28a1.76,1.76,0,0,0-1-.21,2.24,2.24,0,0,1,2.93-1.09c1.94,1,4,4.11,4,4.11l-2,1.23C104.63,106.86,102.74,104.18,101,103.28Z"/><path class="cls-145" d="M100.06,102.94a1.94,1.94,0,0,1,1,.21c1.78.9,3.92,4.17,3.92,4.17-.31-.46-2.2-3.14-4-4a1.76,1.76,0,0,0-1-.21Z"/><path class="cls-146" d="M108,106.79a7.32,7.32,0,0,1,3.06.06c1.73.51,2.88,2.3,2,3s-1.75,1.36-2.69.82-4.29-2.58-4.29-2.58Z"/><path class="cls-147" d="M109.23,108.1a7.24,7.24,0,0,0-3.06,0l-.08,0h0l1.9-1.31a7.32,7.32,0,0,1,3.06.06c1.73.51,2.88,2.3,2,3a4.61,4.61,0,0,1-1.6,1C111.84,110,110.77,108.56,109.23,108.1Z"/><path class="cls-148" d="M106.24,108h0a7.42,7.42,0,0,1,3.15,0c1.53.46,2.61,1.92,2.23,2.73.1,0,0,0-.17.08.38-.82-.69-2.27-2.23-2.73a7.24,7.24,0,0,0-3.06,0l-.08,0h0Z"/><path class="cls-149" d="M107.82,106.87l-.55-.5a.81.81,0,0,0-1.13,0l-.59.57,1.07.82Z"/><path class="cls-150" d="M105.22,106.79a7.32,7.32,0,0,0-3.06.06c-1.73.51-2.88,2.3-2,3s1.75,1.36,2.69.82,4.29-2.58,4.29-2.58Z"/><path class="cls-151" d="M104,108.1a7.24,7.24,0,0,1,3.06,0l.08,0h0l-1.9-1.31a7.32,7.32,0,0,0-3.06.06c-1.73.51-2.88,2.3-2,3a4.67,4.67,0,0,0,1.59,1C101.36,110,102.43,108.56,104,108.1Z"/><path class="cls-152" d="M107,108h0a7.37,7.37,0,0,0-3.14,0c-1.54.46-2.61,1.92-2.23,2.73-.1,0,0,0,.16.08-.37-.82.7-2.27,2.24-2.73a7.24,7.24,0,0,1,3.06,0l.08,0h0Z"/><g class="cls-153"><polygon class="cls-154" points="106.68 134.43 106.68 136.84 119.44 129.02 119.44 126.48 106.68 134.43"/><polygon class="cls-155" points="106.69 134.43 106.69 136.84 93.87 129 93.87 126.46 106.69 134.43"/><polygon class="cls-156" points="112.05 131.13 112.05 133.54 114.39 132.18 114.39 129.65 112.05 131.13"/><polygon class="cls-157" points="101.34 131.16 101.34 133.58 99.06 132.25 99.06 129.72 101.34 131.16"/></g><polygon class="cls-158" points="92.37 130.42 92.37 143.01 105.13 135.18 105.13 122.47 92.37 130.42"/><polygon class="cls-159" points="92.38 130.42 92.38 143.01 79.56 135.16 79.56 122.45 92.38 130.42"/><polygon class="cls-160" points="79.56 122.45 92.38 130.42 105.13 122.47 92.27 114.55 79.56 122.45"/><polygon class="cls-161" points="97.74 127.12 97.74 139.7 100.08 138.34 100.08 125.64 97.74 127.12"/><polygon class="cls-162" points="84.82 119.11 97.75 127.12 100.08 125.64 87.12 117.67 84.82 119.11"/><polygon class="cls-163" points="87.02 127.15 87.02 139.74 84.75 138.42 84.75 125.71 87.02 127.15"/><g class="cls-153"><polygon class="cls-164" points="92.37 143.12 92.37 145.53 105.13 137.71 105.13 135.17 92.37 143.12"/><polygon class="cls-165" points="92.38 143.12 92.38 145.53 79.56 137.68 79.56 135.15 92.38 143.12"/><polygon class="cls-166" points="97.74 139.81 97.74 142.23 100.08 140.87 100.08 138.33 97.74 139.81"/><polygon class="cls-167" points="87.02 139.85 87.02 142.26 84.75 140.94 84.75 138.41 87.02 139.85"/></g><polygon class="cls-168" points="99.84 119.19 87.01 127.15 84.75 125.71 97.61 117.79 99.84 119.19"/><path class="cls-169" d="M94.17,122.69l-2.07-1.27s2.09-3.12,4-4.11a2.24,2.24,0,0,1,2.92,1.08c.25.55-.32,1.49-1,1.91C96.34,121.41,94.17,122.69,94.17,122.69Z"/><path class="cls-170" d="M98.09,118.61a2,2,0,0,1,1-.21,2.25,2.25,0,0,0-2.93-1.09c-1.94,1-4,4.11-4,4.11l2,1.23C94.43,122.2,96.32,119.52,98.09,118.61Z"/><path class="cls-171" d="M99,118.28a1.85,1.85,0,0,0-1,.2c-1.77.91-3.92,4.17-3.92,4.17.32-.45,2.21-3.13,4-4a2,2,0,0,1,1-.21A.75.75,0,0,0,99,118.28Z"/><path class="cls-172" d="M90.59,122.78l2.07-1.26s-2.08-3.13-4-4.11a2.24,2.24,0,0,0-2.93,1.07c-.25.56.33,1.49,1,1.91C88.43,121.5,90.59,122.78,90.59,122.78Z"/><path class="cls-173" d="M86.68,118.71a1.8,1.8,0,0,0-1-.21,2.23,2.23,0,0,1,2.93-1.09c1.94,1,4,4.11,4,4.11l-2,1.22C90.34,122.29,88.45,119.61,86.68,118.71Z"/><path class="cls-174" d="M85.77,118.37a2,2,0,0,1,1,.21c1.77.9,3.91,4.16,3.91,4.16-.31-.45-2.2-3.13-4-4a1.8,1.8,0,0,0-1-.21Z"/><path class="cls-175" d="M93.69,122.22a7.43,7.43,0,0,1,3.06,0c1.73.52,2.88,2.31,2,3s-1.75,1.36-2.69.82-4.29-2.58-4.29-2.58Z"/><path class="cls-176" d="M94.94,123.53a7.25,7.25,0,0,0-3.06,0l-.08,0h0l1.9-1.31a7.43,7.43,0,0,1,3.06,0c1.73.52,2.88,2.31,2,3a4.67,4.67,0,0,1-1.59,1C97.55,125.44,96.48,124,94.94,123.53Z"/><path class="cls-177" d="M92,123.45h0a7.19,7.19,0,0,1,3.14,0c1.54.46,2.61,1.91,2.24,2.73.09,0,0,0-.17.08.37-.82-.7-2.27-2.24-2.73a7.25,7.25,0,0,0-3.06,0l-.08,0h0Z"/><path class="cls-178" d="M93.54,122.3l-.56-.5a.81.81,0,0,0-1.13,0l-.59.57,1.08.82Z"/><path class="cls-179" d="M90.94,122.22a7.44,7.44,0,0,0-3.06,0c-1.74.52-2.88,2.31-2,3s1.74,1.36,2.69.82,4.29-2.58,4.29-2.58Z"/><path class="cls-180" d="M89.68,123.53a7.24,7.24,0,0,1,3.06,0l.08,0h0l-1.9-1.31a7.44,7.44,0,0,0-3.06,0c-1.74.52-2.88,2.31-2,3a4.58,4.58,0,0,0,1.59,1C87.07,125.44,88.14,124,89.68,123.53Z"/><path class="cls-181" d="M92.67,123.45h0a7.24,7.24,0,0,0-3.15,0c-1.53.46-2.61,1.91-2.23,2.73-.09,0,0,0,.17.08-.38-.82.69-2.27,2.23-2.73a7.24,7.24,0,0,1,3.06,0l.08,0h0Z"/><path class="cls-182" d="M156.33,145.66l-12.75-7.8a3,3,0,0,0-2.83,0l-7.47,4.57a.92.92,0,0,0,0,1.72l8,4.88,0,4.85,4-2.42.79.49a3,3,0,0,0,2.83,0l7.47-4.57A.92.92,0,0,0,156.33,145.66Z"/><path class="cls-183" d="M156,146.32V144.6l-1.26.53-11.34-6.94a2.81,2.81,0,0,0-2.67,0l-6.68,4.08-.93-.74v1.74a1,1,0,0,0,.54.87l7.54,4.61,0,4.59,3.74-2.29.76.46a2.81,2.81,0,0,0,2.67,0l7.07-4.33A1,1,0,0,0,156,146.32Z"/><path class="cls-184" d="M155.45,143.72l-12-7.37a2.81,2.81,0,0,0-2.67,0l-7.07,4.32a.88.88,0,0,0,0,1.63l7.54,4.61,0,4.59,3.74-2.29.76.46a2.81,2.81,0,0,0,2.67,0l7.07-4.32A.88.88,0,0,0,155.45,143.72Z"/><path class="cls-27" d="M142.79,141.07c0,.48-.63.86-1.41.86s-1.42-.39-1.42-.87.63-.86,1.41-.86S142.79,140.59,142.79,141.07Z"/><path class="cls-27" d="M146.06,143.06c0,.48-.63.87-1.42.87s-1.41-.39-1.42-.87.63-.87,1.42-.86S146.05,142.59,146.06,143.06Z"/><path class="cls-27" d="M149.32,145.06c0,.48-.63.86-1.41.86s-1.42-.39-1.42-.87.63-.86,1.41-.86S149.32,144.58,149.32,145.06Z"/><polygon class="cls-185" points="144.96 149.21 144.96 151.05 141.22 153.34 141.22 151.5 144.96 149.21"/><path class="cls-186" d="M155.46,145.28l-7.07,4.32a2.78,2.78,0,0,1-2.67,0l-.76-.46-3.74,2.29,0-4.59-7.54-4.61a1.06,1.06,0,0,1-.52-.63.92.92,0,0,0,.52,1l7.54,4.6,0,4.59,3.74-2.28.76.46a2.81,2.81,0,0,0,2.67,0l7.07-4.32a.92.92,0,0,0,.52-1A1.19,1.19,0,0,1,155.46,145.28Z"/><path class="cls-187" d="M156,144.4v-1.72l-1.26.52-11.34-6.93a2.81,2.81,0,0,0-2.67,0l-6.68,4.08-.93-.74v1.74a1,1,0,0,0,.54.87l7.54,4.61,0,4.59,3.74-2.29.76.46a2.81,2.81,0,0,0,2.67,0l7.07-4.32A1,1,0,0,0,156,144.4Z"/><path class="cls-188" d="M155.45,141.8l-12-7.37a2.81,2.81,0,0,0-2.67,0l-7.07,4.33a.88.88,0,0,0,0,1.63l7.54,4.6,0,4.59,3.74-2.28.76.46a2.81,2.81,0,0,0,2.67,0l7.07-4.32A.88.88,0,0,0,155.45,141.8Z"/><path class="cls-27" d="M142.79,139.15c0,.47-.63.86-1.41.86s-1.42-.39-1.42-.87.63-.86,1.41-.86S142.79,138.67,142.79,139.15Z"/><path class="cls-27" d="M146.06,141.14c0,.48-.63.87-1.42.86s-1.41-.39-1.42-.86.63-.87,1.42-.87S146.05,140.66,146.06,141.14Z"/><ellipse class="cls-27" cx="147.9" cy="143.13" rx="0.87" ry="1.42" transform="matrix(0.01, -1, 1, 0.01, 3.87, 290.16)"/><polygon class="cls-189" points="144.96 147.29 144.96 149.13 141.22 151.42 141.22 149.57 144.96 147.29"/><path class="cls-190" d="M155.46,143.35l-7.07,4.33a2.84,2.84,0,0,1-2.67,0l-.76-.46-3.74,2.29,0-4.59-7.54-4.61a1.09,1.09,0,0,1-.52-.63.9.9,0,0,0,.52,1l7.54,4.61,0,4.59,3.74-2.29.76.46a2.78,2.78,0,0,0,2.67,0l7.07-4.32a.93.93,0,0,0,.52-1A1.14,1.14,0,0,1,155.46,143.35Z"/><path class="cls-191" d="M156,142.43v-1.72l-1.26.53L143.4,134.3a2.81,2.81,0,0,0-2.67,0l-6.68,4.08-.93-.74v1.74a1,1,0,0,0,.54.87l7.54,4.61,0,4.59,3.74-2.29.76.46a2.81,2.81,0,0,0,2.67,0l7.07-4.33A1,1,0,0,0,156,142.43Z"/><path class="cls-192" d="M155.45,139.83l-12-7.37a2.81,2.81,0,0,0-2.67,0l-7.07,4.32a.88.88,0,0,0,0,1.63L141.2,143l0,4.59,3.74-2.29.76.46a2.84,2.84,0,0,0,2.67,0l7.07-4.33A.88.88,0,0,0,155.45,139.83Z"/><path class="cls-193" d="M155.46,148l-7.07,4.32a2.81,2.81,0,0,1-2.67,0l-.76-.46-3.74,2.29,0-4.6-7.54-4.6a1,1,0,0,1-.54-.77v1.74a1,1,0,0,0,.54.87l7.54,4.61,0,4.59,3.74-2.29.76.46a2.84,2.84,0,0,0,2.67,0l7.07-4.33A1,1,0,0,0,156,149v-1.72h0A1,1,0,0,1,155.46,148Z"/><path class="cls-27" d="M142.79,137.18c0,.48-.63.86-1.41.86s-1.42-.39-1.42-.87.63-.86,1.41-.86S142.79,136.7,142.79,137.18Z"/><path class="cls-27" d="M146.06,139.17c0,.48-.63.87-1.42.87s-1.41-.39-1.42-.87.63-.87,1.42-.86S146.05,138.7,146.06,139.17Z"/><path class="cls-27" d="M149.32,141.17c0,.48-.63.86-1.41.86s-1.42-.39-1.42-.87.63-.86,1.41-.86S149.32,140.69,149.32,141.17Z"/><polygon class="cls-194" points="144.96 145.32 144.96 147.16 141.22 149.45 141.22 147.61 144.96 145.32"/><path class="cls-195" d="M155.46,141.39l-7.07,4.32a2.78,2.78,0,0,1-2.67,0l-.76-.46-3.74,2.29,0-4.59-7.54-4.61a1.06,1.06,0,0,1-.52-.63.92.92,0,0,0,.52,1l7.54,4.6,0,4.59,3.74-2.28.76.46a2.81,2.81,0,0,0,2.67,0l7.07-4.32a.92.92,0,0,0,.52-1A1.19,1.19,0,0,1,155.46,141.39Z"/><path class="cls-27" d="M38.55,69.64c0-.49-.33-.69-.73-.44a1.7,1.7,0,0,0-.72,1.32c0,.49.32.69.72.44A1.71,1.71,0,0,0,38.55,69.64Z"/><ellipse class="cls-27" cx="35.63" cy="71.43" rx="1.07" ry="0.6" transform="translate(-44.18 69.92) rotate(-62.41)"/><path class="cls-27" d="M34.17,72.33c0-.49-.33-.68-.73-.44a1.72,1.72,0,0,0-.72,1.33c0,.49.32.68.72.44A1.73,1.73,0,0,0,34.17,72.33Z"/></g></g></svg>