<svg xmlns="http://www.w3.org/2000/svg" xmlns:xlink="http://www.w3.org/1999/xlink" viewBox="0 0 179.42 179.7"><defs><style>.cls-1{fill:url(#linear-gradient);}.cls-2{fill:#3a9dca;}.cls-3{fill:#fff;}.cls-4{fill:url(#linear-gradient-2);}.cls-5{fill:url(#linear-gradient-3);}.cls-6{fill:url(#linear-gradient-4);}.cls-7{fill:url(#linear-gradient-5);}.cls-10,.cls-11,.cls-12,.cls-13,.cls-14,.cls-15,.cls-16,.cls-17,.cls-18,.cls-19,.cls-20,.cls-21,.cls-22,.cls-23,.cls-24,.cls-67,.cls-68,.cls-69,.cls-8,.cls-83,.cls-85,.cls-88,.cls-9{fill:none;}.cls-10,.cls-11,.cls-12,.cls-13,.cls-14,.cls-15,.cls-16,.cls-17,.cls-18,.cls-19,.cls-20,.cls-21,.cls-22,.cls-23,.cls-24,.cls-67,.cls-68,.cls-69,.cls-8,.cls-83,.cls-84,.cls-85,.cls-88,.cls-9{stroke-miterlimit:10;}.cls-10,.cls-11,.cls-12,.cls-13,.cls-14,.cls-15,.cls-16,.cls-17,.cls-18,.cls-19,.cls-20,.cls-21,.cls-22,.cls-23,.cls-24,.cls-8,.cls-9{stroke-width:0.5px;}.cls-8{stroke:url(#linear-gradient-6);}.cls-9{stroke:url(#linear-gradient-7);}.cls-10{stroke:url(#linear-gradient-8);}.cls-11{stroke:url(#linear-gradient-9);}.cls-12{stroke:url(#linear-gradient-10);}.cls-13{stroke:url(#linear-gradient-11);}.cls-14{stroke:url(#linear-gradient-12);}.cls-15{stroke:url(#linear-gradient-13);}.cls-16{stroke:url(#linear-gradient-14);}.cls-17{stroke:url(#linear-gradient-15);}.cls-18{stroke:url(#linear-gradient-16);}.cls-19{stroke:url(#linear-gradient-17);}.cls-20{stroke:url(#linear-gradient-18);}.cls-21{stroke:url(#linear-gradient-19);}.cls-22{stroke:url(#linear-gradient-20);}.cls-23{stroke:url(#linear-gradient-21);}.cls-24{stroke:url(#linear-gradient-22);}.cls-25{fill:#56a5d7;}.cls-26{fill:url(#linear-gradient-23);}.cls-27{fill:#2e3665;}.cls-28{fill:url(#linear-gradient-24);}.cls-29{fill:url(#linear-gradient-25);}.cls-30{fill:url(#linear-gradient-26);}.cls-31{fill:url(#linear-gradient-27);}.cls-32{fill:url(#linear-gradient-28);}.cls-33{fill:url(#linear-gradient-29);}.cls-34{fill:url(#linear-gradient-30);}.cls-35{fill:url(#linear-gradient-31);}.cls-36{fill:#f7941e;}.cls-37{fill:url(#linear-gradient-32);}.cls-38{fill:url(#linear-gradient-33);}.cls-39{fill:url(#linear-gradient-34);}.cls-40{fill:url(#linear-gradient-35);}.cls-41{fill:url(#linear-gradient-36);}.cls-42{fill:url(#linear-gradient-37);}.cls-43{fill:url(#linear-gradient-38);}.cls-44{fill:url(#linear-gradient-39);}.cls-45{fill:url(#linear-gradient-40);}.cls-46{fill:url(#linear-gradient-41);}.cls-47{fill:url(#linear-gradient-42);}.cls-48{fill:url(#linear-gradient-43);}.cls-49{fill:url(#linear-gradient-44);}.cls-50{fill:url(#linear-gradient-45);}.cls-51{fill:url(#linear-gradient-46);}.cls-52{fill:url(#linear-gradient-47);}.cls-53{fill:url(#linear-gradient-48);}.cls-54{fill:#f7b579;}.cls-55{fill:url(#linear-gradient-49);}.cls-56{fill:url(#linear-gradient-50);}.cls-57{fill:url(#linear-gradient-51);}.cls-58{fill:url(#linear-gradient-52);}.cls-59{fill:#5970e2;}.cls-60{fill:url(#linear-gradient-53);}.cls-61{fill:url(#linear-gradient-54);}.cls-62{fill:url(#linear-gradient-55);}.cls-63{fill:#641172;}.cls-64{fill:url(#linear-gradient-56);}.cls-65{fill:url(#linear-gradient-57);}.cls-66{fill:url(#linear-gradient-58);}.cls-67{stroke:#eef6fb;}.cls-68,.cls-88{stroke:#56a5d7;}.cls-69{stroke:url(#linear-gradient-59);}.cls-70{fill:#abd1ec;}.cls-71{fill:url(#linear-gradient-60);}.cls-72{fill:url(#linear-gradient-61);}.cls-73{fill:url(#linear-gradient-62);}.cls-74{fill:url(#linear-gradient-63);}.cls-75{fill:url(#linear-gradient-64);}.cls-76{fill:url(#linear-gradient-65);}.cls-77{fill:url(#linear-gradient-66);}.cls-78{fill:url(#linear-gradient-67);}.cls-79{fill:url(#linear-gradient-68);}.cls-80{fill:url(#linear-gradient-69);}.cls-81{fill:url(#linear-gradient-70);}.cls-82{fill:url(#linear-gradient-71);}.cls-83{stroke:#abd1ec;}.cls-84{fill:#14416a;stroke:url(#linear-gradient-72);}.cls-85{stroke:url(#linear-gradient-73);}.cls-86{fill:#acd1ec;}.cls-87{fill:url(#linear-gradient-74);}.cls-88{stroke-width:0.75px;}.cls-89{fill:#477acb;}.cls-90{fill:url(#linear-gradient-75);}.cls-91{fill:url(#linear-gradient-76);}.cls-92{fill:url(#linear-gradient-77);}.cls-93{fill:url(#linear-gradient-78);}.cls-94{fill:url(#linear-gradient-79);}.cls-95{fill:url(#linear-gradient-80);}.cls-96{fill:url(#linear-gradient-81);}.cls-97{fill:url(#linear-gradient-82);}.cls-98{fill:url(#linear-gradient-83);}.cls-99{fill:#aed2ed;}.cls-100{fill:#0984bd;}.cls-101{fill:url(#linear-gradient-84);}.cls-102{fill:url(#linear-gradient-85);}.cls-103{fill:url(#linear-gradient-86);}.cls-104{fill:url(#linear-gradient-87);}.cls-105{fill:url(#linear-gradient-88);}.cls-106{fill:url(#linear-gradient-89);}.cls-107{fill:url(#linear-gradient-90);}</style><linearGradient id="linear-gradient" x1="10.54" y1="86.5" x2="57.07" y2="68.53" gradientUnits="userSpaceOnUse"><stop offset="0" stop-color="#abd1ec"/><stop offset="0.57" stop-color="#eef6fb"/></linearGradient><linearGradient id="linear-gradient-2" x1="24.08" y1="102.68" x2="53.04" y2="102.68" gradientUnits="userSpaceOnUse"><stop offset="0" stop-color="#f57454"/><stop offset="1" stop-color="#f7947c"/></linearGradient><linearGradient id="linear-gradient-3" x1="72.22" y1="139.65" x2="69.42" y2="139.65" gradientUnits="userSpaceOnUse"><stop offset="0" stop-color="#abd1ec"/><stop offset="0.99" stop-color="#56a5d7"/></linearGradient><linearGradient id="linear-gradient-4" x1="18.59" y1="136.05" x2="157.32" y2="136.05" xlink:href="#linear-gradient"/><linearGradient id="linear-gradient-5" x1="122.17" y1="47.3" x2="159.67" y2="47.3" xlink:href="#linear-gradient"/><linearGradient id="linear-gradient-6" x1="134.18" y1="45.46" x2="156.16" y2="45.46" gradientUnits="userSpaceOnUse"><stop offset="0" stop-color="#0984bd"/><stop offset="1" stop-color="#56a5d7"/></linearGradient><linearGradient id="linear-gradient-7" x1="134.18" y1="66.23" x2="156.16" y2="66.23" xlink:href="#linear-gradient-6"/><linearGradient id="linear-gradient-8" x1="136.01" y1="42.33" x2="154.32" y2="42.33" xlink:href="#linear-gradient-6"/><linearGradient id="linear-gradient-9" x1="138.95" y1="58.52" x2="154.32" y2="58.52" xlink:href="#linear-gradient-6"/><linearGradient id="linear-gradient-10" x1="138.95" y1="61.5" x2="154.32" y2="61.5" xlink:href="#linear-gradient-6"/><linearGradient id="linear-gradient-11" x1="138.95" y1="64.48" x2="154.32" y2="64.48" xlink:href="#linear-gradient-6"/><linearGradient id="linear-gradient-12" x1="138.95" y1="67.46" x2="154.32" y2="67.46" xlink:href="#linear-gradient-6"/><linearGradient id="linear-gradient-13" x1="138.95" y1="70.44" x2="154.32" y2="70.44" xlink:href="#linear-gradient-6"/><linearGradient id="linear-gradient-14" x1="138.95" y1="73.42" x2="154.32" y2="73.42" xlink:href="#linear-gradient-6"/><linearGradient id="linear-gradient-15" x1="136.01" y1="53.02" x2="138.21" y2="53.02" xlink:href="#linear-gradient-6"/><linearGradient id="linear-gradient-16" x1="136.01" y1="56" x2="138.21" y2="56" xlink:href="#linear-gradient-6"/><linearGradient id="linear-gradient-17" x1="136.01" y1="58.98" x2="138.21" y2="58.98" xlink:href="#linear-gradient-6"/><linearGradient id="linear-gradient-18" x1="136.01" y1="61.96" x2="138.21" y2="61.96" xlink:href="#linear-gradient-6"/><linearGradient id="linear-gradient-19" x1="136.01" y1="64.94" x2="138.21" y2="64.94" xlink:href="#linear-gradient-6"/><linearGradient id="linear-gradient-20" x1="136.01" y1="67.92" x2="138.21" y2="67.92" xlink:href="#linear-gradient-6"/><linearGradient id="linear-gradient-21" x1="136.01" y1="45.18" x2="154.32" y2="45.18" xlink:href="#linear-gradient-6"/><linearGradient id="linear-gradient-22" x1="136.01" y1="45.64" x2="146.05" y2="45.64" xlink:href="#linear-gradient-6"/><linearGradient id="linear-gradient-23" x1="137.3" y1="25.22" x2="144.54" y2="25.22" gradientUnits="userSpaceOnUse"><stop offset="0" stop-color="#fab371"/><stop offset="1" stop-color="#fcd5b0"/></linearGradient><linearGradient id="linear-gradient-24" x1="128.75" y1="61.05" x2="133.33" y2="61.05" gradientUnits="userSpaceOnUse"><stop offset="0" stop-color="#ffaa90"/><stop offset="0.6" stop-color="#ffd5c5"/></linearGradient><linearGradient id="linear-gradient-25" x1="131.71" y1="71.75" x2="135.54" y2="71.75" xlink:href="#linear-gradient-24"/><linearGradient id="linear-gradient-26" x1="115.89" y1="100.51" x2="128.04" y2="100.51" gradientUnits="userSpaceOnUse"><stop offset="0.05" stop-color="#14416a"/><stop offset="1" stop-color="#004f98"/></linearGradient><linearGradient id="linear-gradient-27" x1="123.26" y1="66.68" x2="130.49" y2="66.68" xlink:href="#linear-gradient-23"/><linearGradient id="linear-gradient-28" x1="119.37" y1="66.12" x2="124.73" y2="66.12" xlink:href="#linear-gradient-24"/><linearGradient id="linear-gradient-29" x1="123.13" y1="61.65" x2="125.93" y2="61.65" xlink:href="#linear-gradient-24"/><linearGradient id="linear-gradient-30" x1="117.28" y1="60.71" x2="125.74" y2="60.71" xlink:href="#linear-gradient-26"/><linearGradient id="linear-gradient-31" x1="115.92" y1="77.83" x2="133.68" y2="77.83" xlink:href="#linear-gradient-23"/><linearGradient id="linear-gradient-32" x1="126.57" y1="75.96" x2="133.68" y2="75.96" xlink:href="#linear-gradient-23"/><linearGradient id="linear-gradient-33" x1="116.8" y1="59.34" x2="125.97" y2="59.34" xlink:href="#linear-gradient-26"/><linearGradient id="linear-gradient-34" x1="29.13" y1="64.15" x2="36.96" y2="64.15" xlink:href="#linear-gradient-23"/><linearGradient id="linear-gradient-35" x1="38.57" y1="52.75" x2="49.57" y2="52.75" xlink:href="#linear-gradient-6"/><linearGradient id="linear-gradient-36" x1="38.57" y1="56.05" x2="49.57" y2="56.05" xlink:href="#linear-gradient-6"/><linearGradient id="linear-gradient-37" x1="38.57" y1="59.35" x2="49.57" y2="59.35" xlink:href="#linear-gradient-6"/><linearGradient id="linear-gradient-38" x1="38.57" y1="64.08" x2="44.64" y2="64.08" xlink:href="#linear-gradient-6"/><linearGradient id="linear-gradient-39" x1="29.13" y1="71.85" x2="38.57" y2="71.85" xlink:href="#linear-gradient-6"/><linearGradient id="linear-gradient-40" x1="29.13" y1="71.98" x2="49.57" y2="71.98" xlink:href="#linear-gradient-6"/><linearGradient id="linear-gradient-41" x1="29.13" y1="75.28" x2="49.57" y2="75.28" xlink:href="#linear-gradient-6"/><linearGradient id="linear-gradient-42" x1="29.13" y1="78.58" x2="49.57" y2="78.58" xlink:href="#linear-gradient-6"/><linearGradient id="linear-gradient-43" x1="29.13" y1="83.99" x2="42.26" y2="83.99" xlink:href="#linear-gradient-6"/><linearGradient id="linear-gradient-44" x1="29.13" y1="85.18" x2="49.57" y2="85.18" xlink:href="#linear-gradient-6"/><linearGradient id="linear-gradient-45" x1="29.13" y1="88.48" x2="49.57" y2="88.48" xlink:href="#linear-gradient-6"/><linearGradient id="linear-gradient-46" x1="29.13" y1="91.78" x2="49.57" y2="91.78" xlink:href="#linear-gradient-6"/><linearGradient id="linear-gradient-47" x1="29.13" y1="97.74" x2="40.35" y2="97.74" xlink:href="#linear-gradient-6"/><linearGradient id="linear-gradient-48" x1="32.81" y1="49.92" x2="46.13" y2="49.92" xlink:href="#linear-gradient-6"/><linearGradient id="linear-gradient-49" x1="41.31" y1="104.65" x2="44.1" y2="104.65" xlink:href="#linear-gradient-24"/><linearGradient id="linear-gradient-50" x1="57.72" y1="109.06" x2="62.23" y2="109.06" xlink:href="#linear-gradient-26"/><linearGradient id="linear-gradient-51" x1="54.05" y1="129.73" x2="60.8" y2="129.73" xlink:href="#linear-gradient-26"/><linearGradient id="linear-gradient-52" x1="48.67" y1="131.81" x2="57.18" y2="131.81" xlink:href="#linear-gradient-26"/><linearGradient id="linear-gradient-53" x1="50.16" y1="109.57" x2="62.16" y2="109.57" xlink:href="#linear-gradient-2"/><linearGradient id="linear-gradient-54" x1="54.47" y1="97.28" x2="59.75" y2="97.28" xlink:href="#linear-gradient-24"/><linearGradient id="linear-gradient-55" x1="52.42" y1="95.13" x2="55.63" y2="95.13" xlink:href="#linear-gradient-24"/><linearGradient id="linear-gradient-56" x1="55.08" y1="99.06" x2="59.75" y2="99.06" xlink:href="#linear-gradient-26"/><linearGradient id="linear-gradient-57" x1="42.8" y1="107.09" x2="55.48" y2="107.09" xlink:href="#linear-gradient-26"/><linearGradient id="linear-gradient-58" x1="60.84" y1="26.01" x2="114.37" y2="26.01" xlink:href="#linear-gradient"/><linearGradient id="linear-gradient-59" x1="63.05" y1="37.11" x2="65.24" y2="37.11" xlink:href="#linear-gradient-23"/><linearGradient id="linear-gradient-60" x1="82.4" y1="28.92" x2="88.92" y2="14.41" xlink:href="#linear-gradient-23"/><linearGradient id="linear-gradient-61" x1="84.6" y1="29.91" x2="91.12" y2="15.4" xlink:href="#linear-gradient-23"/><linearGradient id="linear-gradient-62" x1="86.36" y1="30.7" x2="92.88" y2="16.19" xlink:href="#linear-gradient-23"/><linearGradient id="linear-gradient-63" x1="88.69" y1="31.75" x2="95.21" y2="17.24" xlink:href="#linear-gradient-23"/><linearGradient id="linear-gradient-64" x1="90.31" y1="32.48" x2="96.84" y2="17.97" xlink:href="#linear-gradient-23"/><linearGradient id="linear-gradient-65" x1="92.13" y1="33.3" x2="98.65" y2="18.78" xlink:href="#linear-gradient-23"/><linearGradient id="linear-gradient-66" x1="94" y1="34.13" x2="100.52" y2="19.62" xlink:href="#linear-gradient-23"/><linearGradient id="linear-gradient-67" x1="96.08" y1="35.07" x2="102.61" y2="20.56" xlink:href="#linear-gradient-23"/><linearGradient id="linear-gradient-68" x1="98.29" y1="36.06" x2="104.81" y2="21.55" xlink:href="#linear-gradient-23"/><linearGradient id="linear-gradient-69" x1="100.03" y1="36.85" x2="106.56" y2="22.34" xlink:href="#linear-gradient-23"/><linearGradient id="linear-gradient-70" x1="102.38" y1="37.9" x2="108.9" y2="23.39" xlink:href="#linear-gradient-23"/><linearGradient id="linear-gradient-71" x1="60.85" y1="60.66" x2="86.8" y2="60.66" xlink:href="#linear-gradient"/><linearGradient id="linear-gradient-72" x1="63.27" y1="60.61" x2="64.42" y2="60.61" xlink:href="#linear-gradient-23"/><linearGradient id="linear-gradient-73" x1="63.28" y1="57.77" x2="65.76" y2="57.77" xlink:href="#linear-gradient-23"/><linearGradient id="linear-gradient-74" x1="80.61" y1="48.65" x2="84.34" y2="48.65" xlink:href="#linear-gradient-23"/><linearGradient id="linear-gradient-75" x1="64.31" y1="66.06" x2="100.26" y2="46.69" xlink:href="#linear-gradient"/><linearGradient id="linear-gradient-76" x1="92.12" y1="45.61" x2="93.88" y2="45.61" xlink:href="#linear-gradient-23"/><linearGradient id="linear-gradient-77" x1="91.39" y1="49.08" x2="94.6" y2="49.08" xlink:href="#linear-gradient-23"/><linearGradient id="linear-gradient-78" x1="86.31" y1="60.48" x2="102.95" y2="54.62" xlink:href="#linear-gradient-23"/><linearGradient id="linear-gradient-79" x1="86.17" y1="60.08" x2="102.81" y2="54.22" xlink:href="#linear-gradient-23"/><linearGradient id="linear-gradient-80" x1="85.95" y1="59.45" x2="102.59" y2="53.59" xlink:href="#linear-gradient-23"/><linearGradient id="linear-gradient-81" x1="85.73" y1="58.83" x2="102.37" y2="52.97" xlink:href="#linear-gradient-23"/><linearGradient id="linear-gradient-82" x1="85.51" y1="58.21" x2="102.15" y2="52.35" xlink:href="#linear-gradient-23"/><linearGradient id="linear-gradient-83" x1="104.23" y1="30.48" x2="114.37" y2="30.48" xlink:href="#linear-gradient-6"/><linearGradient id="linear-gradient-84" x1="185.33" y1="555.7" x2="205.4" y2="555.7" gradientTransform="matrix(0.87, -0.5, 0, 1, -92.16, -371.92)" xlink:href="#linear-gradient"/><linearGradient id="linear-gradient-85" x1="204.89" y1="564.52" x2="183.29" y2="568.29" gradientTransform="matrix(0.87, -0.5, 0, 1, -92.16, -371.92)" gradientUnits="userSpaceOnUse"><stop offset="0" stop-color="#abd1ec"/><stop offset="1" stop-color="#38c5ea"/></linearGradient><linearGradient id="linear-gradient-86" x1="182.28" y1="566.18" x2="207.6" y2="566.18" xlink:href="#linear-gradient-85"/><linearGradient id="linear-gradient-87" x1="247.56" y1="451.69" x2="238.83" y2="454.21" gradientTransform="matrix(0.87, -0.5, 0, 1, -102.72, -254.41)" xlink:href="#linear-gradient"/><linearGradient id="linear-gradient-88" x1="221.4" y1="437.55" x2="246.17" y2="437.55" gradientTransform="matrix(0.87, -0.5, 0, 1, -102.72, -254.41)" xlink:href="#linear-gradient"/><linearGradient id="linear-gradient-89" x1="238.27" y1="452.97" x2="247.98" y2="452.97" gradientTransform="matrix(0.87, -0.5, 0, 1, -102.72, -254.41)" xlink:href="#linear-gradient"/><linearGradient id="linear-gradient-90" x1="239.64" y1="453.52" x2="247.11" y2="453.52" gradientTransform="matrix(0.87, -0.5, 0, 1, -102.72, -254.41)" xlink:href="#linear-gradient-2"/></defs><g id="Template_extraction" data-name="Template extraction"><path class="cls-1" d="M54.94,32.41l-2-.77a1.82,1.82,0,0,0-.6-.23h0a2.86,2.86,0,0,0-1.92.44L22.17,48.16a7.74,7.74,0,0,0-3.5,6.07v63.9c0,1.33.55,2.18,1.41,2.42l2,.8.53-1.44,27.84-16.07a7.73,7.73,0,0,0,3.5-6.07V35.15Z"/><path class="cls-2" d="M52.69,104.75,24.44,121.07c-1.94,1.11-3.5.21-3.5-2V55.15a7.74,7.74,0,0,1,3.51-6.07L52.69,32.77c1.93-1.12,3.5-.21,3.5,2v63.9A7.73,7.73,0,0,1,52.69,104.75Z"/><path class="cls-3" d="M51.25,101.91,25.88,116.55c-1.73,1-3.14.19-3.14-1.81V57.37a7,7,0,0,1,3.14-5.45L51.25,37.28c1.73-1,3.14-.19,3.14,1.82V96.46A7,7,0,0,1,51.25,101.91Z"/><path class="cls-4" d="M52.72,98,24.41,114.3c-.18.11-.33,0-.33-.18V108a.71.71,0,0,1,.33-.56L52.72,91.05c.18-.1.32,0,.32.19V97.4A.71.71,0,0,1,52.72,98Z"/><path class="cls-3" d="M26.81,108.11v.75a.53.53,0,0,0-.2-.12.36.36,0,0,0-.21.05.9.9,0,0,0-.33.4,1.47,1.47,0,0,0-.13.6.64.64,0,0,0,.13.44.27.27,0,0,0,.33,0,.66.66,0,0,0,.21-.2,1.69,1.69,0,0,0,.2-.34v.76a2.84,2.84,0,0,1-.23.25,1.24,1.24,0,0,1-.23.17.77.77,0,0,1-.26.1.41.41,0,0,1-.22,0,.57.57,0,0,1-.3-.31,1.47,1.47,0,0,1-.1-.6,2.6,2.6,0,0,1,.06-.56,2.27,2.27,0,0,1,.2-.55,1.75,1.75,0,0,1,.28-.44,1.31,1.31,0,0,1,.34-.29.61.61,0,0,1,.23-.09A.6.6,0,0,1,26.81,108.11Z"/><path class="cls-3" d="M27.08,110.4v-2.55l.47-.27v2l.59-.35v.6Z"/><path class="cls-3" d="M28.17,109.76l.6-2.89.6-.34.61,2.19-.48.27-.09-.4-.67.39-.09.51Zm.67-1.33.47-.28-.17-.73a.81.81,0,0,1,0-.11l0-.2,0,.2a1.16,1.16,0,0,1,0,.18Z"/><path class="cls-3" d="M30.16,108.62v-2.55l.48-.27v2.54Z"/><path class="cls-3" d="M33,107l-.45.26-.1-1a2,2,0,0,1,0-.25c0-.09,0-.19,0-.3,0,.11,0,.26-.06.44l0,.08-.24,1.33-.31.19-.24-1.06,0-.07a3.35,3.35,0,0,1-.06-.36c0,.1,0,.2,0,.3s0,.19,0,.29l-.1,1.16-.45.26.27-2.7.47-.28.27,1.16v0a1.7,1.7,0,0,1,0,.28s0-.1,0-.16,0-.14,0-.22l.26-1.46.48-.28Z"/><path class="cls-3" d="M34.36,106.19V105l-.61-1,.54-.31.24.51v0a.84.84,0,0,1,.05.17,1,1,0,0,1,0-.22v0l.23-.79.55-.32-.61,1.74v1.16Z"/><path class="cls-3" d="M37.26,103.25a2.08,2.08,0,0,1-.07.55,2.79,2.79,0,0,1-.2.55,2.25,2.25,0,0,1-.31.47,1.37,1.37,0,0,1-.35.3.68.68,0,0,1-.36.11.41.41,0,0,1-.3-.12.71.71,0,0,1-.21-.31,1.33,1.33,0,0,1-.07-.47,2.2,2.2,0,0,1,.07-.56,2.74,2.74,0,0,1,.21-.54,1.89,1.89,0,0,1,.3-.47,1.49,1.49,0,0,1,.36-.31.69.69,0,0,1,.35-.1.49.49,0,0,1,.31.11.73.73,0,0,1,.2.32A1.33,1.33,0,0,1,37.26,103.25Zm-.93,1.29a.81.81,0,0,0,.32-.41,1.39,1.39,0,0,0,.13-.61.62.62,0,0,0-.13-.45.24.24,0,0,0-.32,0,.79.79,0,0,0-.33.4,1.46,1.46,0,0,0-.13.61.66.66,0,0,0,.13.47C36.08,104.61,36.19,104.61,36.33,104.54Z"/><path class="cls-3" d="M37.55,101.81l.47-.28v1.24c0,.18,0,.31,0,.39s0,.13,0,.18a.13.13,0,0,0,.1.09.26.26,0,0,0,.17-.05.43.43,0,0,0,.16-.14.51.51,0,0,0,.1-.21q0-.09,0-.21c0-.09,0-.22,0-.4v-1.24l.47-.27v1.34a5,5,0,0,1,0,.64,1.77,1.77,0,0,1-.12.41,1.15,1.15,0,0,1-.25.37,1.86,1.86,0,0,1-.37.3.93.93,0,0,1-.39.14.26.26,0,0,1-.24-.09.57.57,0,0,1-.12-.27,4.14,4.14,0,0,1,0-.6v-1.34Z"/><path class="cls-3" d="M39.46,103.24V100.7l.5-.29a1.59,1.59,0,0,1,.41-.19.27.27,0,0,1,.2,0,.37.37,0,0,1,.14.18.82.82,0,0,1,0,.33,1.33,1.33,0,0,1-.1.54,1,1,0,0,1-.29.41l.48.75-.54.31-.4-.76v1Zm.45-1.6.09,0a.54.54,0,0,0,.3-.48.31.31,0,0,0-.07-.24s-.12,0-.22,0l-.1.06Z"/><path class="cls-3" d="M42.24,101.64l-.44.26V99.35l.5-.28a1.58,1.58,0,0,1,.41-.2.24.24,0,0,1,.2,0,.38.38,0,0,1,.14.2,1,1,0,0,1,.05.36,1.49,1.49,0,0,1-.05.43,1.35,1.35,0,0,1-.14.37,1,1,0,0,1-.18.22,1.42,1.42,0,0,1-.32.22l-.08,0-.09,0Zm0-1.4.09,0a.64.64,0,0,0,.24-.21.45.45,0,0,0,.07-.27c0-.11,0-.17-.06-.19s-.13,0-.24.07l-.1,0Z"/><path class="cls-3" d="M43.35,101V98.46l.49-.29a2.72,2.72,0,0,1,.41-.2.32.32,0,0,1,.2,0,.35.35,0,0,1,.15.18,1,1,0,0,1,0,.33,1.53,1.53,0,0,1-.1.54,1.22,1.22,0,0,1-.29.41l.47.75-.54.31-.4-.76v1Zm.44-1.6.09-.05a.77.77,0,0,0,.23-.2.65.65,0,0,0,.07-.29c0-.12,0-.2-.07-.23s-.12,0-.22.05l-.1,0Z"/><path class="cls-3" d="M46.71,97.79a2.15,2.15,0,0,1-.07.56,2.7,2.7,0,0,1-.2.54,2,2,0,0,1-.31.47,1.42,1.42,0,0,1-.35.31.76.76,0,0,1-.36.1.44.44,0,0,1-.3-.11.77.77,0,0,1-.21-.31,1.43,1.43,0,0,1-.07-.48,2.13,2.13,0,0,1,.07-.55,2.83,2.83,0,0,1,.21-.55,1.83,1.83,0,0,1,.3-.46,1.15,1.15,0,0,1,.36-.31.71.71,0,0,1,.35-.11.45.45,0,0,1,.31.12.7.7,0,0,1,.2.31A1.33,1.33,0,0,1,46.71,97.79Zm-.93,1.29a.83.83,0,0,0,.32-.4,1.42,1.42,0,0,0,.13-.61.65.65,0,0,0-.13-.46.23.23,0,0,0-.32,0,.75.75,0,0,0-.33.4,1.39,1.39,0,0,0-.13.61.65.65,0,0,0,.13.46C45.53,99.15,45.64,99.16,45.78,99.08Z"/><path class="cls-3" d="M47,98.89V96.34l1.07-.61v.55l-.61.35v.45l.57-.33v.54l-.57.33v1Z"/><path class="cls-3" d="M48.35,98.11V95.57l.48-.28v2.55Z"/><path class="cls-3" d="M49.22,97.61V95.07l.47-.27v1.94l.59-.34V97Z"/><path class="cls-3" d="M50.52,96.86V94.32l1.07-.62v.56l-.61.35v.44l.57-.33v.55L51,95.6V96l.61-.35v.57Z"/><path class="cls-5" d="M157.3,129.44h0V126l-3.65.53L108.4,100.37a7.14,7.14,0,0,0-6.49,0l-78,45-5.28.78c0,.13,0,2.6,0,3.34v.22h0a2.38,2.38,0,0,0,1.33,1.69l47.58,27.47a7.14,7.14,0,0,0,6.49,0l82-47.33A2.14,2.14,0,0,0,157.3,129.44Z"/><path class="cls-6" d="M156,128,74,175.32a7.14,7.14,0,0,1-6.49,0L19.93,147.85c-1.79-1-1.79-2.71,0-3.75l82-47.33a7.2,7.2,0,0,1,6.49,0L156,124.24C157.77,125.28,157.77,127,156,128Z"/><polygon class="cls-7" points="159.67 92.24 122.17 70.59 122.17 2.37 159.67 24.02 159.67 92.24"/><polygon class="cls-8" points="155.91 58.56 134.43 46.16 134.43 32.35 155.91 44.75 155.91 58.56"/><polygon class="cls-9" points="155.91 84.91 134.43 72.51 134.43 47.55 155.91 59.95 155.91 84.91"/><polygon class="cls-10" points="154.07 48.27 136.26 37.98 136.26 36.39 154.07 46.67 154.07 48.27"/><polygon class="cls-11" points="154.07 63.61 139.2 55.03 139.2 53.43 154.07 62.02 154.07 63.61"/><polygon class="cls-12" points="154.07 66.59 139.2 58.01 139.2 56.41 154.07 65 154.07 66.59"/><polygon class="cls-13" points="154.07 69.57 139.2 60.99 139.2 59.39 154.07 67.98 154.07 69.57"/><polygon class="cls-14" points="154.07 72.55 139.2 63.97 139.2 62.37 154.07 70.96 154.07 72.55"/><polygon class="cls-15" points="154.07 75.53 139.2 66.95 139.2 65.35 154.07 73.94 154.07 75.53"/><polygon class="cls-16" points="154.07 78.51 139.2 69.93 139.2 68.33 154.07 76.92 154.07 78.51"/><polygon class="cls-17" points="137.96 54.31 136.26 53.33 136.26 51.73 137.96 52.71 137.96 54.31"/><polygon class="cls-18" points="137.96 57.29 136.26 56.31 136.26 54.71 137.96 55.69 137.96 57.29"/><polygon class="cls-19" points="137.96 60.27 136.26 59.29 136.26 57.69 137.96 58.67 137.96 60.27"/><polygon class="cls-20" points="137.96 63.25 136.26 62.27 136.26 60.67 137.96 61.65 137.96 63.25"/><polygon class="cls-21" points="137.96 66.23 136.26 65.25 136.26 63.65 137.96 64.63 137.96 66.23"/><polygon class="cls-22" points="137.96 69.21 136.26 68.23 136.26 66.63 137.96 67.61 137.96 69.21"/><polygon class="cls-23" points="154.07 51.12 136.26 40.84 136.26 39.24 154.07 49.52 154.07 51.12"/><polygon class="cls-24" points="145.8 49.19 136.26 43.69 136.26 42.09 145.8 47.59 145.8 49.19"/><path class="cls-25" d="M132.39,37.7c0,1.89-1.32,2.65-2.95,1.71a6.52,6.52,0,0,1-3-5.11c0-1.88,1.32-2.64,3-1.7A6.5,6.5,0,0,1,132.39,37.7Z"/><path class="cls-3" d="M129.57,34.67c-1-.58-1.83-.46-1.83.28a1.84,1.84,0,0,0,.3.9c0,.24-.19.54-.56.41,0,0,.54.48.93.11a4.38,4.38,0,0,0,1.16,1c1,.58,1.83.46,1.83-.28A3.48,3.48,0,0,0,129.57,34.67Zm-.68,1.18a.44.44,0,0,1-.21-.36c0-.13.09-.19.21-.12a.47.47,0,0,1,.21.36C129.1,35.87,129,35.92,128.89,35.85Zm.68.4a.46.46,0,0,1-.21-.37c0-.13.09-.18.21-.12a.46.46,0,0,1,.21.37C129.78,36.26,129.69,36.31,129.57,36.25Zm.68.39a.47.47,0,0,1-.21-.36c0-.13.1-.19.21-.12a.46.46,0,0,1,.21.36C130.46,36.66,130.37,36.71,130.25,36.64Z"/><path class="cls-25" d="M132.39,47.17c0,1.88-1.32,2.64-2.95,1.7a6.52,6.52,0,0,1-3-5.11c0-1.88,1.32-2.64,3-1.7A6.52,6.52,0,0,1,132.39,47.17Z"/><path class="cls-25" d="M132.39,56.63c0,1.88-1.32,2.64-2.95,1.7a6.5,6.5,0,0,1-3-5.11c0-1.88,1.32-2.64,3-1.7A6.52,6.52,0,0,1,132.39,56.63Z"/><path class="cls-25" d="M132.39,66.09c0,1.88-1.32,2.65-2.95,1.71a6.52,6.52,0,0,1-3-5.11c0-1.88,1.32-2.65,3-1.71A6.52,6.52,0,0,1,132.39,66.09Z"/><path class="cls-3" d="M131.38,54.76v2.18c0,.17-.12.23-.26.15l-3.36-1.94a.55.55,0,0,1-.26-.45V52.52a.19.19,0,0,1,.08-.17l1.86,2.51,1.93-.18S131.38,54.73,131.38,54.76Z"/><path class="cls-3" d="M131.31,54.49l-1.87.21s-1.19-1.61-1.79-2.4l.11,0,3.36,1.94A.69.69,0,0,1,131.31,54.49Z"/><path class="cls-3" d="M130.86,44.76,128,43.12a.16.16,0,0,0-.26.15V46l.5-.62,2.6,1.5c.14.08.25,0,.25-.15V45.2A.56.56,0,0,0,130.86,44.76Zm-.15,1.44-2.54-1.47v-.2L130.71,46Zm0-.43-2.54-1.47v-.2l2.54,1.47Zm0-.43-2.54-1.47v-.2l2.54,1.47Z"/><polygon class="cls-26" points="137.3 28.63 144.53 32.8 144.53 21.81 137.3 17.63 137.3 28.63"/><path class="cls-25" d="M139.75,22.09a2.57,2.57,0,0,0,1.17,2c.64.37,1.17.07,1.17-.67a2.6,2.6,0,0,0-1.17-2C140.27,21.05,139.75,21.35,139.75,22.09Z"/><path class="cls-25" d="M138.37,27.79a6.67,6.67,0,0,1-.07-.89c0-2.07,1.17-3.08,2.62-2.24a6.57,6.57,0,0,1,2.61,5.26,4.14,4.14,0,0,1-.07.81Z"/><path class="cls-27" d="M123.43,114.2a11.16,11.16,0,0,0,2.1-.4c.67-.25,1.82.6,1.51,1.37s-3.08,2.7-4.34,2.84-2-.51-1.67-1.13a3.18,3.18,0,0,0,.38-1.82C121.41,114.17,123.43,114.2,123.43,114.2Z"/><path class="cls-27" d="M119.24,111.4a12.09,12.09,0,0,0,2.1-.4c.67-.26,1.82.6,1.51,1.36s-3.08,2.7-4.34,2.85-2-.51-1.67-1.13a3.19,3.19,0,0,0,.38-1.83C117.22,111.36,119.24,111.4,119.24,111.4Z"/><path class="cls-28" d="M130.21,64.47a11.9,11.9,0,0,1,.89-1,16.91,16.91,0,0,0,1.76-1.92c.43-.63.66-1.09.26-1.09s-1.22,1.15-1.49,1.09.13-1.12.41-2a8.74,8.74,0,0,0,.56-1.66c0-.51-.25-.34-.25-.34s-.77,1.33-1.25,2.3c0,0,.41-.71.24-.81s-.53.48-.63.71c0,0,.25-.39.12-.46s-.27.1-.42.37c0,0,.15-.23,0-.29S130,60,129.67,61s0,2.32-.75,3.07S130.21,64.47,130.21,64.47Z"/><path class="cls-29" d="M132,74a1.46,1.46,0,0,0-.07-.79,3.79,3.79,0,0,1-.07-1.93c.18-.51.41-.83.58-.34s-.07.87.14.81a13.07,13.07,0,0,0,1.43-2.1c1-1.59,1.33-1.21.8-.12-.31.66-.71,1.26-.56,1.26s.17.05.35.15.16.39.16.39a.41.41,0,0,1,.38.06.75.75,0,0,1,.15.43s.6.15.09.94-.45.86-1,1.08a2,2,0,0,0-.86,1Z"/><path class="cls-30" d="M127.62,86.38s1.28,3.76-.62,12.5-2.91,17.39-4.76,16.91-2-4.19-1.41-8.43,1.94-14.36,1.41-13.09-2.53,10.3-2.53,13.79-1,7.59-2.86,3.21-.54-9.09.14-12.63.21-9.83.54-12.34S127.62,86.38,127.62,86.38Z"/><path class="cls-31" d="M127.37,70s1.09-2,2-3.55,1.7-2,.68-2.72-1.34.06-2.55,1.27-4.2,4-4.2,4l2.67.85Z"/><path class="cls-32" d="M124.73,64.56s-.69,0-.57,1.6a12.37,12.37,0,0,0,.28,2.19s-3.32,1.28-5.07-1.12c0,0,1.1-.21,1.1-1.76s3.8-1.92,3.8-1.92Z"/><path class="cls-33" d="M125.2,58.73a6.53,6.53,0,0,1,.49,2.29c-.09.84.58,1.75,0,2.79s-1.29,1.24-2.34-.84S125.2,58.73,125.2,58.73Z"/><path class="cls-34" d="M125.35,59.26c-1,1-.36,3-.36,3.45s-.14,0-.37-.23-.14,2.88-2.55,3.17-5.37-2.21-4.69-5.05,1.91-4.64,5-4.84S126.36,58.25,125.35,59.26Z"/><path class="cls-35" d="M117.14,86.3a19,19,0,0,0,11.49,1.94c-1.22-3-1.26-9.2-1.17-10s.76,3.81,2.6,3.67,2.24-3.77,3.16-5.66.36-2.46-.78-2.6-1.79,3.5-2.11,2.57-.26-4.4-1.53-5.68a4,4,0,0,0-.57-.47h0a15.45,15.45,0,0,0-3.79-1.7s-.18-1.11-5.07-1.11-3.59,4.59-2.09,8.23S117.14,86.3,117.14,86.3Z"/><path class="cls-36" d="M129.7,86.3Z"/><path class="cls-37" d="M127.46,78.21c.1-.83.76,3.81,2.6,3.67s2.24-3.77,3.16-5.66.36-2.46-.78-2.6-1.79,3.5-2.11,2.57-.26-4.4-1.53-5.68a4,4,0,0,0-.57-.47h0C128.05,70.05,125.14,70.33,127.46,78.21Z"/><path class="cls-38" d="M123,55.26c2.41.5,3.47,2.71,2.74,4.31s-2.32,3.09-3.35,3.31a4.61,4.61,0,0,0,1.4-1.34,8,8,0,0,1-3.64,1.75c-2,.29-2.87-.5-3-1.2a3.69,3.69,0,0,0,.63,1.46,4,4,0,0,1-.94-2.8,6.58,6.58,0,0,1,2.1-4.42,6.45,6.45,0,0,0-1.7,1.83A5.27,5.27,0,0,1,123,55.26Z"/><polygon class="cls-39" points="36.96 67.84 29.13 72.36 29.13 60.46 36.96 55.94 36.96 67.84"/><path class="cls-3" d="M34.31,60.77A2.79,2.79,0,0,1,33.05,63c-.7.4-1.27.08-1.27-.73A2.79,2.79,0,0,1,33.05,60C33.75,59.63,34.31,60,34.31,60.77Z"/><path class="cls-3" d="M35.8,66.93a6.22,6.22,0,0,0,.08-1c0-2.24-1.27-3.33-2.83-2.43S30.22,67,30.22,69.23a5.92,5.92,0,0,0,.07.88Z"/><polygon class="cls-40" points="49.57 50.49 38.57 56.85 38.57 55.01 49.57 48.66 49.57 50.49"/><polygon class="cls-41" points="49.57 53.8 38.57 60.15 38.57 58.31 49.57 51.96 49.57 53.8"/><polygon class="cls-42" points="49.57 57.09 38.57 63.45 38.57 61.61 49.57 55.26 49.57 57.09"/><polygon class="cls-43" points="44.64 63.24 38.57 66.75 38.57 64.91 44.64 61.41 44.64 63.24"/><polygon class="cls-44" points="38.57 70.05 29.13 75.5 29.13 73.66 38.57 68.21 38.57 70.05"/><polygon class="cls-45" points="49.57 67 29.13 78.8 29.13 76.96 49.57 65.16 49.57 67"/><polygon class="cls-46" points="49.57 70.3 29.13 82.1 29.13 80.26 49.57 68.46 49.57 70.3"/><polygon class="cls-47" points="49.57 73.6 29.13 85.4 29.13 83.56 49.57 71.76 49.57 73.6"/><polygon class="cls-48" points="42.26 81.12 29.13 88.7 29.13 86.86 42.26 79.28 42.26 81.12"/><polygon class="cls-49" points="49.57 80.2 29.13 92 29.13 90.16 49.57 78.36 49.57 80.2"/><polygon class="cls-50" points="49.57 83.5 29.13 95.3 29.13 93.46 49.57 81.66 49.57 83.5"/><polygon class="cls-51" points="49.57 86.8 29.13 98.6 29.13 96.76 49.57 84.96 49.57 86.8"/><polygon class="cls-52" points="40.35 95.42 29.13 101.9 29.13 100.06 40.35 93.59 40.35 95.42"/><polygon class="cls-53" points="46.13 47.19 32.81 54.88 32.81 52.66 46.13 44.97 46.13 47.19"/><path class="cls-54" d="M42,103.67a.34.34,0,0,0-.39.25s-.14.16-.12.27a.77.77,0,0,0-.12.79c.2.45.18,1,.5,1s.41-.85.41-.85Z"/><path class="cls-55" d="M43.28,105.24c-.42-1.18-1.3-3.51-1.75-3.84-.28-.22-.31.25,0,.89a8,8,0,0,1,.49,1.38.26.26,0,0,0-.18.34s-.27.16-.2.31-.25,0,0,.36a5.87,5.87,0,0,1,.34,1.78c0,.51.86,1.28,1.42,1.47s.74-.7.74-.7Z"/><path class="cls-56" d="M62.14,101.33s.34,7.34-.36,10.35-4.06,5.12-4.06,5.12Z"/><path class="cls-27" d="M60.58,140.16s.3.79.51,1.36-.25,1.43-1.31,1a19.92,19.92,0,0,0-2.74-.92c-.69-.12-2-.28-2.26-.68s.28-1.19,1.25-1.33a12,12,0,0,0,2.25-.25c.29-.2,2,.45,2,.45Z"/><path class="cls-27" d="M55.29,144s.8,1.31.46,1.77-.9.61-2.66.36-3.91-.56-4-1.55.54-1.19,1.62-1.36,1.64-.22,2-.57S55.29,143.79,55.29,144Z"/><path class="cls-57" d="M59.76,119.39s-1.16,4.69-1.43,6.24,1.19,3.13,1.43,4.11a30.65,30.65,0,0,1,.55,6.23,14.61,14.61,0,0,0,.49,4.23,1.29,1.29,0,0,1-1.49.21,2.93,2.93,0,0,1-1.26-1s-1.15-7.24-2.2-9.75-1.8-4.37-1.8-5.66,2.87-5,2.87-5Z"/><path class="cls-58" d="M57.18,120.22a47.23,47.23,0,0,0-4,6.75c-1,2.44.4,4.59,1,6.81s.57,6.4.86,7.58a17.84,17.84,0,0,1,.38,2.64s-.6.61-1.67-.12-1.11-1.3-1.11-1.3-1.94-7.6-3.21-11.13-1-6.74.82-12.06Z"/><path class="cls-59" d="M52.37,102.07c-.19.11-.27.09-.29.08S52.18,102.18,52.37,102.07Z"/><path class="cls-60" d="M50.16,119.12c0,.68,2.11,1.67,4.92,2a7.16,7.16,0,0,0,2.7-.2h0a3.24,3.24,0,0,0,2.34-2c.44-1.36.53-2.65.12-5.59a9.82,9.82,0,0,1,.46-4.37h0c1.49-5.14,1.81-7.22,1.07-9.49a1.4,1.4,0,0,0-.45-.63h0a3,3,0,0,0-2-.8,7.92,7.92,0,0,0-4.24,1.73s-1.62,1.46-2.27,2a1.19,1.19,0,0,1,.92.06,1.1,1.1,0,0,1,.47.7c.32,1.17-.27,3.79-2.93,5.63.41-.09.57.19.72,1.22a19.68,19.68,0,0,1-.05,5.57C51.65,117,50.16,118.44,50.16,119.12Z"/><path class="cls-61" d="M54.47,94.67l.19,1.84a.63.63,0,0,1,.84.51,3,3,0,0,1-.22,2.52l-.2.22a3.9,3.9,0,0,0,3.35,0C60.51,99,59.51,98,59.51,98a1.49,1.49,0,0,1-.43-1.14c0-.79-3.45-2.43-3.45-2.43Z"/><path class="cls-62" d="M52.43,93a11.44,11.44,0,0,0,.59,1.5c.21.36.12,1.65.88,2.47s1.45.63,1.6.15a4,4,0,0,0,0-1.9,7.47,7.47,0,0,0-.81-1.79S52.31,92.05,52.43,93Z"/><path class="cls-27" d="M59.51,96.58a2.33,2.33,0,0,1,.73-2c1-1.11,1.28-5.8-2-6.67s-6.5.91-6.75,2.41A3.19,3.19,0,0,0,53,93.57c.89.39.73.62.84,1.13s.34.4.4.68.18.58.33.55-.23-1.13.14-1.29.84.45.9,1.16S60.06,99.13,59.51,96.58Z"/><path class="cls-63" d="M54.33,101.91l0,.16A.18.18,0,0,0,54.33,101.91Z"/><path class="cls-64" d="M55.08,99.76a3.9,3.9,0,0,0,3.35,0C60.51,99,59.51,98,59.51,98s.43,1.11-1.42,1.6a4.64,4.64,0,0,1-2.81-.07Z"/><path class="cls-65" d="M52.64,101.89s-.63.41-1,3.33-1.48,6.23-4.57,4.25-3-2.93-3-2.93A1.82,1.82,0,0,0,43,108.07c0,1.06-.21,1-.21,1s3.74,3.53,6.55,3.53,4.68-2,5.75-4.59C56.3,105.12,54.46,100.37,52.64,101.89Z"/><path class="cls-27" d="M56.16,87.33c-1.86,0-4.06.58-4.45,1.26s-1.6,2.13-1,3,.75.39,1,1.24,2,1.44,2.37,1.3,1.38-.32,1.6,0,.69-.4,1.6.12,2-.67,2.52-.2,1.15,0,1.43-.38.61-3.4,0-4A5.67,5.67,0,0,1,60,88.19c-.27-.56-1.87-1.14-2.67-1.36s-1-.09-.5.2.62.47.23.31a2,2,0,0,0-1-.27C55.74,87.12,56.6,87.34,56.16,87.33Z"/><path class="cls-66" d="M114.37,19.63a4.61,4.61,0,0,1-2.1,3.62L62.94,51.73c-1.17.67-2.1.13-2.09-1.21V32.39a4.6,4.6,0,0,1,2.1-3.62L112.27.29c1.16-.67,2.1-.13,2.1,1.21Z"/><path class="cls-67" d="M75.24,33.15a12.94,12.94,0,0,1-5.86,10.14c-2.57,1.49-4.74.83-5.53-1.36a4.94,4.94,0,0,1-.23-.88,6.93,6.93,0,0,1-.09-1.14,4.26,4.26,0,0,1,0-.5,10.16,10.16,0,0,1,.39-2.21,12.33,12.33,0,0,1,.85-2.2,14.74,14.74,0,0,1,1.48-2.4,12.15,12.15,0,0,1,2.36-2.34c.25-.18.51-.34.75-.48C72.62,27.91,75.24,29.42,75.24,33.15Z"/><path class="cls-68" d="M63.62,41.05a6.93,6.93,0,0,1-.09-1.14,4.26,4.26,0,0,1,0-.5"/><path class="cls-69" d="M63.55,39.41a10.16,10.16,0,0,1,.39-2.21,12.33,12.33,0,0,1,.85-2.2"/><path class="cls-68" d="M64.79,35a14.74,14.74,0,0,1,1.48-2.4,12.15,12.15,0,0,1,2.36-2.34"/><path class="cls-70" d="M111.23,4.73a1.23,1.23,0,0,1-.56,1L78.15,24.47c-.31.17-.55,0-.55-.32h0a1.22,1.22,0,0,1,.55-1L110.67,4.41c.31-.18.56,0,.56.32Z"/><path class="cls-25" d="M111.24,7.3a1.27,1.27,0,0,1-.57,1L78.15,27c-.31.18-.55,0-.55-.31h0a1.22,1.22,0,0,1,.55-1L110.67,7c.31-.18.57,0,.57.32Z"/><polygon class="cls-25" points="79.84 28.71 79.84 39.05 78.39 39.88 78.39 29.54 79.84 28.71"/><polygon class="cls-71" points="79.84 32.57 79.84 39.05 78.39 39.88 78.39 33.4 79.84 32.57"/><polygon class="cls-25" points="83.01 29.04 83.01 37.21 81.56 38.05 81.56 29.87 83.01 29.04"/><polygon class="cls-72" points="83.01 32.04 83.01 37.21 81.56 38.05 81.56 32.87 83.01 32.04"/><polygon class="cls-25" points="86.18 25.69 86.18 35.39 84.76 36.21 84.76 26.52 86.18 25.69"/><polygon class="cls-73" points="86.18 29.15 86.18 35.39 84.76 36.21 84.76 29.97 86.18 29.15"/><polygon class="cls-25" points="89.37 26.8 89.37 33.55 87.92 34.39 87.92 27.64 89.37 26.8"/><polygon class="cls-74" points="89.37 29.29 89.37 33.55 87.92 34.39 87.92 30.13 89.37 29.29"/><polygon class="cls-25" points="92.53 22.2 92.53 31.73 91.1 32.54 91.1 23.02 92.53 22.2"/><polygon class="cls-75" points="92.53 25.73 92.53 31.73 91.1 32.54 91.1 26.55 92.53 25.73"/><polygon class="cls-25" points="95.72 19.05 95.72 29.89 94.27 30.72 94.27 19.88 95.72 19.05"/><polygon class="cls-76" points="95.72 23.14 95.72 29.89 94.27 30.72 94.27 23.98 95.72 23.14"/><polygon class="cls-25" points="98.89 16.59 98.89 28.05 97.44 28.89 97.44 17.43 98.89 16.59"/><polygon class="cls-77" points="98.89 20.84 98.89 28.05 97.44 28.89 97.44 21.68 98.89 20.84"/><polygon class="cls-25" points="102.05 15.88 102.05 26.22 100.6 27.06 100.6 16.71 102.05 15.88"/><polygon class="cls-78" points="102.05 19.74 102.05 26.22 100.6 27.06 100.6 20.58 102.05 19.74"/><polygon class="cls-25" points="105.24 16.21 105.24 24.39 103.78 25.22 103.78 17.05 105.24 16.21"/><polygon class="cls-79" points="105.24 19.21 105.24 24.39 103.78 25.22 103.78 20.05 105.24 19.21"/><polygon class="cls-25" points="108.39 12.87 108.39 22.56 106.95 23.39 106.95 13.7 108.39 12.87"/><polygon class="cls-80" points="108.39 16.32 108.39 22.56 106.95 23.39 106.95 17.16 108.39 16.32"/><polygon class="cls-25" points="111.58 13.98 111.58 20.72 110.13 21.55 110.13 14.81 111.58 13.98"/><polygon class="cls-81" points="111.58 16.52 111.58 20.72 110.13 21.55 110.13 17.35 111.58 16.52"/><path class="cls-82" d="M86.8,65.17a3.54,3.54,0,0,1-1.6,2.77L62.44,81.08c-.88.51-1.59.09-1.59-.93v-24a3.51,3.51,0,0,1,1.59-2.77L85.2,40.24c.88-.5,1.6-.1,1.6.93Z"/><path class="cls-67" d="M70.59,56.25a7.51,7.51,0,0,1-3.41,5.89c-1.49.87-2.76.5-3.22-.79a2,2,0,0,1-.14-.51,4.65,4.65,0,0,1,0-.66,2.81,2.81,0,0,1,0-.29A7.15,7.15,0,0,1,64,58.61a7.38,7.38,0,0,1,.5-1.28,7.79,7.79,0,0,1,.87-1.4,6.17,6.17,0,0,1,.62-.72,5.63,5.63,0,0,1,.75-.65,4.08,4.08,0,0,1,.44-.28,3.16,3.16,0,0,1,1.47-.46C69.8,53.79,70.59,54.68,70.59,56.25Z"/><path class="cls-68" d="M66.74,54.56a4.08,4.08,0,0,1,.44-.28,3.29,3.29,0,0,1,.46-.23,1.9,1.9,0,0,1,.46-.15,1.83,1.83,0,0,1,.55-.08"/><path class="cls-68" d="M67.64,54.05a1.9,1.9,0,0,1,.46-.15,1.83,1.83,0,0,1,.55-.08"/><path class="cls-83" d="M66.74,54.56a4.08,4.08,0,0,1,.44-.28,3.29,3.29,0,0,1,.46-.23"/><path class="cls-83" d="M65.37,55.93a6.17,6.17,0,0,1,.62-.72,5.63,5.63,0,0,1,.75-.65"/><path class="cls-84" d="M64,61.35a2,2,0,0,1-.14-.51,4.65,4.65,0,0,1,0-.66,2.81,2.81,0,0,1,0-.29"/><path class="cls-85" d="M63.78,59.89A7.15,7.15,0,0,1,64,58.61a7.38,7.38,0,0,1,.5-1.28,7.79,7.79,0,0,1,.87-1.4"/><path class="cls-86" d="M84.34,44.68a.84.84,0,0,1-.4.67L81,47.06c-.2.12-.39,0-.39-.24h0a.86.86,0,0,1,.39-.66l2.94-1.7c.22-.13.4,0,.4.22Z"/><path class="cls-25" d="M84.34,46.13a.86.86,0,0,1-.4.67L81,48.5a.24.24,0,0,1-.39-.22h0A.92.92,0,0,1,81,47.6l2.94-1.69c.22-.13.4,0,.4.22Z"/><path class="cls-87" d="M84.34,47.57a.86.86,0,0,1-.4.68L81,50a.24.24,0,0,1-.39-.22h0a.92.92,0,0,1,.39-.68l2.94-1.7c.22-.12.4,0,.4.22Z"/><polyline class="cls-88" points="68.15 69.19 75.94 64.69 78.6 59.75 84.34 56.44"/><polygon class="cls-25" points="78.97 68.84 77.65 69.61 77.65 64.84 78.97 64.08 78.97 68.84"/><polygon class="cls-25" points="81.08 67.63 79.73 68.4 79.73 61.72 81.08 60.95 81.08 67.63"/><polygon class="cls-25" points="83.17 66.42 81.84 67.19 81.84 58.96 83.17 58.19 83.17 66.42"/><polygon class="cls-89" points="102.03 48.47 101.76 48.62 101.76 55.16 102.03 55.01 102.03 48.47"/><path class="cls-90" d="M103.14,57.38A4.62,4.62,0,0,1,101.05,61L90.19,67.28c-1.16.67-2.09.13-2.09-1.21V41a4.61,4.61,0,0,1,2.09-3.63l10.86-6.27c1.16-.67,2.09-.12,2.09,1.21Z"/><path class="cls-25" d="M96.3,45a7.16,7.16,0,0,1-1.72,4.31A5.64,5.64,0,0,1,93,50.69a2.7,2.7,0,0,1-1.59.44c-1,0-1.7-.91-1.7-2.33A7.24,7.24,0,0,1,93,43.1C94.83,42.05,96.3,42.9,96.3,45Z"/><path class="cls-91" d="M93.88,45.09A1.9,1.9,0,0,1,93,46.62c-.48.29-.88.06-.88-.5A2,2,0,0,1,93,44.58C93.5,44.31,93.88,44.53,93.88,45.09Z"/><path class="cls-92" d="M94.6,49a1.62,1.62,0,0,1,0,.31A5.64,5.64,0,0,1,93,50.69a2.7,2.7,0,0,1-1.59.44.8.8,0,0,1,0-.27A4.57,4.57,0,0,1,93,47.17C93.88,46.66,94.6,47.48,94.6,49Z"/><polygon class="cls-70" points="95.16 37.89 91.79 39.84 91.79 39.39 95.16 37.44 95.16 37.89"/><polygon class="cls-25" points="101.81 41.23 97.43 43.76 97.43 43.31 101.81 40.78 101.81 41.23"/><polygon class="cls-25" points="100.59 43.21 97.43 45.05 97.43 44.59 100.59 42.76 100.59 43.21"/><polygon class="cls-25" points="101.12 44.19 97.43 46.33 97.43 45.88 101.12 43.75 101.12 44.19"/><polygon class="cls-70" points="95.16 39.41 92.38 41.01 92.38 40.56 95.16 38.95 95.16 39.41"/><polygon class="cls-70" points="95.16 40.91 90.84 43.41 90.84 42.95 95.16 40.46 95.16 40.91"/><path class="cls-93" d="M89.33,61.58a2.93,2.93,0,0,0,2.48-1.66c1-1.71,1.82-3.16,2.87-3.32s1.79,1.46,3.28-1.74,2.72-6,4.07-5.67v9l-12.7,7.17Z"/><polygon class="cls-94" points="89.6 55.58 89.33 55.73 89.33 62.26 89.6 62.11 89.6 55.58"/><polygon class="cls-95" points="92.7 53.78 92.44 53.93 92.44 60.46 92.7 60.31 92.7 53.78"/><polygon class="cls-96" points="95.81 51.98 95.56 52.14 95.56 58.67 95.81 58.52 95.81 51.98"/><polygon class="cls-97" points="98.92 50.19 98.66 50.34 98.66 56.88 98.92 56.72 98.92 50.19"/><polygon class="cls-25" points="90.64 54.36 89.33 55.12 89.33 54.66 90.64 53.91 90.64 54.36"/><polygon class="cls-25" points="93.36 52.8 92.05 53.55 92.05 53.1 93.36 52.34 93.36 52.8"/><polygon class="cls-25" points="96.86 50.78 95.56 51.54 95.56 51.08 96.86 50.32 96.86 50.78"/><polygon class="cls-25" points="99.7 49.13 98.4 49.88 98.4 49.43 99.7 48.68 99.7 49.13"/><polygon class="cls-25" points="102.68 47.42 101.36 48.17 101.36 47.72 102.68 46.96 102.68 47.42"/><polygon class="cls-98" points="114.37 31.7 104.23 37.55 104.23 29.26 114.37 23.4 114.37 31.7"/><polygon class="cls-25" points="104.88 36.2 107.04 32.5 107.67 32.82 109.95 28.86 110.9 29.36 113.58 24.83 113.59 31.18 104.88 36.2"/><polygon class="cls-99" points="104.88 36.2 107.07 33.31 107.92 33.5 109.88 30.4 110.9 30.95 113.59 26.23 113.59 31.18 104.88 36.2"/><polygon class="cls-25" points="107.76 28.53 104.88 30.19 104.88 29.67 107.76 28 107.76 28.53"/><polygon class="cls-25" points="108.47 29.44 104.88 31.52 104.87 30.99 108.47 28.91 108.47 29.44"/><path class="cls-100" d="M87.62,91.62a4.12,4.12,0,0,1-1.86,3.23l-18.2,10.51c-1,.59-1.87.11-1.87-1.08V91.67a4.13,4.13,0,0,1,1.87-3.23l18.2-10.51c1-.59,1.86-.11,1.86,1.08Z"/><polygon class="cls-101" points="85.72 92.58 68.34 102.61 68.34 79.58 85.72 69.55 85.72 92.58"/><path class="cls-3" d="M84.33,73.88a1.22,1.22,0,0,1-.53.94L70.27,82.63c-.3.17-.54,0-.54-.31h0a1.2,1.2,0,0,1,.54-.94L83.8,73.57c.29-.17.53,0,.53.31Z"/><path class="cls-3" d="M84.33,76.93a1.2,1.2,0,0,1-.53.93L70.27,85.67c-.3.17-.54,0-.54-.31h0a1.18,1.18,0,0,1,.54-.93L83.8,76.62c.29-.17.53,0,.53.31Z"/><path class="cls-3" d="M84.33,80a1.22,1.22,0,0,1-.53.94L70.27,88.72c-.3.17-.54,0-.54-.31h0a1.17,1.17,0,0,1,.54-.93L83.8,79.66c.29-.17.53,0,.53.31Z"/><path class="cls-3" d="M84.33,83a1.2,1.2,0,0,1-.53.93L70.27,91.76c-.3.18-.54,0-.54-.31h0a1.18,1.18,0,0,1,.54-.93L83.8,82.71c.29-.17.53,0,.53.31Z"/><path class="cls-3" d="M84.33,86.07a1.2,1.2,0,0,1-.53.93L70.27,94.81c-.3.17-.54,0-.54-.31h0a1.18,1.18,0,0,1,.54-.93L83.8,85.76c.29-.18.53,0,.53.31Z"/><path class="cls-102" d="M87.62,82.75V96.09A3.78,3.78,0,0,1,85.76,99l-18.2,10.52c-1,.59-1.87.27-1.87-.72V98.86A3.81,3.81,0,0,1,67.56,96l6.6-3.81s2.48-1.68,2.5-2.54v-.56a3.82,3.82,0,0,1,1.86-2.87L85.76,82C86.79,81.44,87.62,81.76,87.62,82.75Z"/><path class="cls-103" d="M87.62,84.81V96.09A3.78,3.78,0,0,1,85.76,99l-18.2,10.52c-1,.59-1.87.27-1.87-.72v-7.83a3.81,3.81,0,0,1,1.87-2.87l6.6-3.81s2.48-1.69,2.5-2.54v-.56a3.82,3.82,0,0,1,1.86-2.87l7.24-4.18C86.79,83.5,87.62,83.82,87.62,84.81Z"/><path class="cls-100" d="M110.47,60.58v12a4.59,4.59,0,0,1-2.07,3.58l-17.3,10C90,86.77,89,86.24,89,84.92V73a4.56,4.56,0,0,1,2.08-3.58l17.3-10C109.54,58.72,110.47,59.26,110.47,60.58Z"/><path class="cls-104" d="M112.57,74.25a10.46,10.46,0,0,1-4.73,8.2c-2.62,1.52-4.74.29-4.74-2.73a10.49,10.49,0,0,1,4.74-8.21C110.45,70,112.57,71.23,112.57,74.25Z"/><polygon class="cls-3" points="97.58 73.72 94.62 75.42 94.62 72.01 97.58 70.3 97.58 73.72"/><polygon class="cls-3" points="101.23 71.61 98.27 73.32 98.27 69.9 101.23 68.19 101.23 71.61"/><polygon class="cls-3" points="104.87 69.5 101.92 71.21 101.92 67.8 104.87 66.09 104.87 69.5"/><polygon class="cls-3" points="108.52 67.4 105.56 69.11 105.56 65.69 108.52 63.98 108.52 67.4"/><polygon class="cls-3" points="93.93 80.26 90.97 81.97 90.97 78.56 93.93 76.85 93.93 80.26"/><polygon class="cls-3" points="97.58 78.16 94.62 79.86 94.62 76.45 97.58 74.74 97.58 78.16"/><polygon class="cls-3" points="101.23 76.05 98.27 77.76 98.27 74.34 101.23 72.64 101.23 76.05"/><polygon class="cls-3" points="104.87 73.94 101.92 75.65 101.92 72.24 104.87 70.53 104.87 73.94"/><path class="cls-105" d="M110.47,60.58v1.31L89,74.27V73a4.56,4.56,0,0,1,2.08-3.58l17.3-10C109.54,58.72,110.47,59.26,110.47,60.58Z"/><path class="cls-106" d="M112,74.56a9.29,9.29,0,0,1-4.2,7.28c-2.33,1.34-4.21.26-4.21-2.43a9.27,9.27,0,0,1,4.21-7.28C110.16,70.79,112,71.87,112,74.56Z"/><path class="cls-107" d="M105.37,78a4.17,4.17,0,0,0,.2,1,1,1,0,0,0,.47.66.83.83,0,0,0,.79-.15,5.82,5.82,0,0,0,.93-.93,29,29,0,0,0,1.77-2.45l.84-1.3.83-1.33.09,0c-.45.94-1,1.86-1.49,2.78A26.56,26.56,0,0,1,108,79a6.52,6.52,0,0,1-1.13,1.16l-.17.11-.17.09-.16.07-.17,0-.16,0h-.15a.82.82,0,0,1-.28-.07,1.37,1.37,0,0,1-.63-.87,4.37,4.37,0,0,1-.19-1.25Z"/></g></svg>