<svg xmlns="http://www.w3.org/2000/svg" xmlns:xlink="http://www.w3.org/1999/xlink" viewBox="0 0 176.42 125.09"><defs><style>.cls-1{isolation:isolate;}.cls-2{fill:#c6e0f2;}.cls-18,.cls-2{mix-blend-mode:multiply;}.cls-3{fill:#fff;}.cls-4{fill:url(#linear-gradient);}.cls-5{fill:url(#linear-gradient-2);}.cls-6{fill:url(#linear-gradient-3);}.cls-7{fill:url(#linear-gradient-4);}.cls-8{fill:url(#linear-gradient-5);}.cls-9{fill:url(#linear-gradient-6);}.cls-10{fill:url(#linear-gradient-7);}.cls-11{fill:url(#linear-gradient-8);}.cls-12{fill:url(#linear-gradient-9);}.cls-13{fill:url(#linear-gradient-10);}.cls-14{fill:url(#linear-gradient-11);}.cls-15{fill:#dcecf7;}.cls-16{fill:#cce4f3;}.cls-17{fill:#abd1ec;}.cls-18{fill:#e3f0f9;}.cls-19{fill:url(#linear-gradient-12);}.cls-20{fill:url(#linear-gradient-13);}.cls-21{fill:url(#linear-gradient-14);}.cls-22{fill:url(#linear-gradient-15);}.cls-23{fill:url(#linear-gradient-16);}.cls-24{fill:url(#linear-gradient-17);}.cls-25{fill:url(#linear-gradient-18);}.cls-26{fill:url(#linear-gradient-19);}.cls-27{fill:url(#linear-gradient-20);}.cls-28{fill:url(#linear-gradient-21);}.cls-29{fill:#38c5ea;}.cls-30{fill:url(#linear-gradient-22);}.cls-31{fill:url(#linear-gradient-23);}.cls-32{fill:url(#linear-gradient-24);}.cls-33{fill:url(#linear-gradient-25);}.cls-34{fill:url(#linear-gradient-26);}.cls-35{fill:url(#linear-gradient-27);}.cls-36{fill:url(#linear-gradient-28);}.cls-37{fill:url(#linear-gradient-29);}.cls-38{fill:url(#linear-gradient-30);}.cls-39{fill:url(#linear-gradient-31);}.cls-40{fill:url(#linear-gradient-32);}.cls-41{fill:url(#linear-gradient-33);}.cls-42{fill:url(#linear-gradient-34);}.cls-43{fill:url(#linear-gradient-35);}.cls-44{fill:url(#linear-gradient-36);}.cls-45{fill:url(#linear-gradient-37);}.cls-46{fill:url(#linear-gradient-38);}.cls-47{opacity:0.3;}.cls-48{fill:url(#linear-gradient-39);}.cls-49{fill:url(#linear-gradient-40);}.cls-50{fill:url(#linear-gradient-41);}.cls-51{fill:url(#linear-gradient-42);}.cls-52{fill:url(#linear-gradient-43);}.cls-53{fill:url(#linear-gradient-44);}.cls-54{fill:url(#linear-gradient-45);}.cls-55{fill:url(#linear-gradient-46);}.cls-56{fill:url(#linear-gradient-47);}.cls-57{fill:url(#linear-gradient-48);}.cls-58{fill:url(#linear-gradient-49);}.cls-59{fill:url(#linear-gradient-50);}</style><linearGradient id="linear-gradient" x1="70.07" y1="35.05" x2="170.84" y2="35.05" gradientUnits="userSpaceOnUse"><stop offset="0" stop-color="#eef6fb"/><stop offset="1" stop-color="#0984bd"/></linearGradient><linearGradient id="linear-gradient-2" x1="114.81" y1="42.77" x2="137.07" y2="42.77" gradientUnits="userSpaceOnUse"><stop offset="0.05" stop-color="#14416a"/><stop offset="1" stop-color="#004f98"/></linearGradient><linearGradient id="linear-gradient-3" x1="112.24" y1="38.52" x2="144.28" y2="38.52" xlink:href="#linear-gradient-2"/><linearGradient id="linear-gradient-4" x1="109.66" y1="37.08" x2="141.7" y2="37.08" xlink:href="#linear-gradient-2"/><linearGradient id="linear-gradient-5" x1="104.51" y1="35.45" x2="132.2" y2="35.45" xlink:href="#linear-gradient-2"/><linearGradient id="linear-gradient-6" x1="101.94" y1="32.76" x2="133.98" y2="32.76" xlink:href="#linear-gradient-2"/><linearGradient id="linear-gradient-7" x1="99.36" y1="31.32" x2="131.4" y2="31.32" xlink:href="#linear-gradient-2"/><linearGradient id="linear-gradient-8" x1="94.21" y1="30.91" x2="117.71" y2="30.91" xlink:href="#linear-gradient-2"/><linearGradient id="linear-gradient-9" x1="91.64" y1="27" x2="123.68" y2="27" xlink:href="#linear-gradient-2"/><linearGradient id="linear-gradient-10" x1="89.06" y1="25.56" x2="121.1" y2="25.56" xlink:href="#linear-gradient-2"/><linearGradient id="linear-gradient-11" x1="86.49" y1="24.12" x2="118.53" y2="24.12" xlink:href="#linear-gradient-2"/><linearGradient id="linear-gradient-12" x1="83.96" y1="52.91" x2="118.53" y2="112.79" gradientUnits="userSpaceOnUse"><stop offset="0" stop-color="#dcecf7"/><stop offset="1" stop-color="#eef6fb"/></linearGradient><linearGradient id="linear-gradient-13" x1="98.4" y1="104.02" x2="129.42" y2="104.02" gradientUnits="userSpaceOnUse"><stop offset="0" stop-color="#0984bd"/><stop offset="1" stop-color="#56a5d7"/></linearGradient><linearGradient id="linear-gradient-14" x1="105.85" y1="108.2" x2="109.61" y2="108.2" xlink:href="#linear-gradient-13"/><linearGradient id="linear-gradient-15" x1="107.5" y1="106.81" x2="110.3" y2="106.81" xlink:href="#linear-gradient-13"/><linearGradient id="linear-gradient-16" x1="109.48" y1="105.66" x2="112.28" y2="105.66" xlink:href="#linear-gradient-13"/><linearGradient id="linear-gradient-17" x1="111.46" y1="104.51" x2="115.58" y2="104.51" xlink:href="#linear-gradient-13"/><linearGradient id="linear-gradient-18" x1="113.95" y1="103.11" x2="117.46" y2="103.11" xlink:href="#linear-gradient-13"/><linearGradient id="linear-gradient-19" x1="115.74" y1="101.52" x2="119.43" y2="101.52" xlink:href="#linear-gradient-13"/><linearGradient id="linear-gradient-20" x1="118.09" y1="100.61" x2="122.01" y2="100.61" xlink:href="#linear-gradient-13"/><linearGradient id="linear-gradient-21" x1="119.95" y1="99.54" x2="123.79" y2="99.54" xlink:href="#linear-gradient-13"/><linearGradient id="linear-gradient-22" x1="88.57" y1="82.98" x2="104.58" y2="82.98" gradientUnits="userSpaceOnUse"><stop offset="0" stop-color="#fab371"/><stop offset="1" stop-color="#fcd5b0"/></linearGradient><linearGradient id="linear-gradient-23" x1="99.25" y1="85.46" x2="110.73" y2="85.46" gradientUnits="userSpaceOnUse"><stop offset="0" stop-color="#f57454"/><stop offset="1" stop-color="#f7947c"/></linearGradient><linearGradient id="linear-gradient-24" x1="102.67" y1="77.72" x2="116.9" y2="77.72" xlink:href="#linear-gradient-2"/><linearGradient id="linear-gradient-25" x1="90.8" y1="96.84" x2="120.23" y2="96.84" gradientUnits="userSpaceOnUse"><stop offset="0" stop-color="#38c5ea"/><stop offset="1" stop-color="#56a5d7"/></linearGradient><linearGradient id="linear-gradient-26" x1="93.08" y1="98.79" x2="122.28" y2="98.79" xlink:href="#linear-gradient-25"/><linearGradient id="linear-gradient-27" x1="75.12" y1="63.63" x2="104.05" y2="63.63" xlink:href="#linear-gradient-25"/><linearGradient id="linear-gradient-28" x1="74.91" y1="59.12" x2="103.4" y2="59.12" xlink:href="#linear-gradient-25"/><linearGradient id="linear-gradient-29" x1="79.72" y1="95.35" x2="92.25" y2="95.35" xlink:href="#linear-gradient-23"/><linearGradient id="linear-gradient-30" x1="2.52" y1="33.91" x2="115.98" y2="28.47" xlink:href="#linear-gradient"/><linearGradient id="linear-gradient-31" x1="59.05" y1="42.76" x2="81.3" y2="42.76" xlink:href="#linear-gradient-2"/><linearGradient id="linear-gradient-32" x1="56.47" y1="38.51" x2="88.51" y2="38.51" xlink:href="#linear-gradient-2"/><linearGradient id="linear-gradient-33" x1="53.9" y1="37.07" x2="85.94" y2="37.07" xlink:href="#linear-gradient-2"/><linearGradient id="linear-gradient-34" x1="37.6" y1="30.4" x2="61.09" y2="30.4" xlink:href="#linear-gradient-2"/><linearGradient id="linear-gradient-35" x1="35.02" y1="26.5" x2="67.06" y2="26.5" xlink:href="#linear-gradient-2"/><linearGradient id="linear-gradient-36" x1="32.45" y1="25.06" x2="64.49" y2="25.06" xlink:href="#linear-gradient-2"/><linearGradient id="linear-gradient-37" x1="29.87" y1="23.62" x2="61.91" y2="23.62" xlink:href="#linear-gradient-2"/><linearGradient id="linear-gradient-38" x1="31.75" y1="20.58" x2="49.51" y2="20.58" xlink:href="#linear-gradient-2"/><linearGradient id="linear-gradient-39" x1="68.47" y1="25.81" x2="80.99" y2="25.81" xlink:href="#linear-gradient-2"/><linearGradient id="linear-gradient-40" x1="63.48" y1="30.17" x2="69.41" y2="30.17" xlink:href="#linear-gradient-2"/><linearGradient id="linear-gradient-41" x1="61.55" y1="36.48" x2="63.62" y2="36.48" gradientTransform="translate(62.89 -35.96) rotate(60)" xlink:href="#linear-gradient-2"/><linearGradient id="linear-gradient-42" x1="51.55" y1="38.61" x2="57.83" y2="38.61" gradientTransform="translate(60.78 -28.06) rotate(60)" xlink:href="#linear-gradient-2"/><linearGradient id="linear-gradient-43" x1="48.92" y1="42.86" x2="52.05" y2="42.86" gradientTransform="translate(62.36 -22.29) rotate(60)" xlink:href="#linear-gradient-2"/><linearGradient id="linear-gradient-44" x1="48.85" y1="36.26" x2="63.98" y2="36.26" xlink:href="#linear-gradient-2"/><linearGradient id="linear-gradient-45" x1="47.93" y1="42.11" x2="50.43" y2="42.11" xlink:href="#linear-gradient-22"/><linearGradient id="linear-gradient-46" x1="50.4" y1="36.85" x2="52.89" y2="36.85" xlink:href="#linear-gradient-22"/><linearGradient id="linear-gradient-47" x1="60.39" y1="35.94" x2="62.89" y2="35.94" xlink:href="#linear-gradient-22"/><linearGradient id="linear-gradient-48" x1="62.56" y1="30.5" x2="65.05" y2="30.5" xlink:href="#linear-gradient-22"/><linearGradient id="linear-gradient-49" x1="67.46" y1="26.65" x2="69.96" y2="26.65" xlink:href="#linear-gradient-22"/><linearGradient id="linear-gradient-50" x1="69.9" y1="21.38" x2="72.4" y2="21.38" xlink:href="#linear-gradient-22"/></defs><g class="cls-1"><g id="Text_extraction" data-name="Text extraction"><polygon class="cls-2" points="176.42 62.46 111.5 24.98 67.85 50.18 49.17 39.4 2.15 66.54 67.08 104.02 110.73 78.82 129.41 89.6 176.42 62.46"/><polygon class="cls-3" points="129.41 86.38 170.84 62.46 111.5 28.2 70.07 52.12 129.41 86.38"/><polygon class="cls-4" points="129.41 64.13 170.84 40.21 111.5 5.96 70.07 29.88 129.41 64.13"/><polygon class="cls-5" points="116.11 49.21 137.06 37.08 135.77 36.33 114.81 48.46 116.11 49.21"/><polygon class="cls-6" points="113.53 47.77 144.28 30.02 142.98 29.27 112.24 47.02 113.53 47.77"/><polygon class="cls-7" points="110.96 46.33 141.7 28.58 140.41 27.83 109.66 45.58 110.96 46.33"/><polygon class="cls-8" points="105.81 43.45 132.2 28.21 130.91 27.46 104.51 42.7 105.81 43.45"/><polygon class="cls-9" points="103.23 42.01 133.98 24.26 132.68 23.51 101.94 41.26 103.23 42.01"/><polygon class="cls-10" points="100.66 40.57 131.4 22.82 130.11 22.07 99.36 39.82 100.66 40.57"/><polygon class="cls-11" points="95.51 37.69 117.71 24.87 116.42 24.12 94.21 36.94 95.51 37.69"/><polygon class="cls-12" points="92.93 36.25 123.68 18.5 122.39 17.75 91.64 35.5 92.93 36.25"/><polygon class="cls-13" points="90.36 34.81 121.11 17.06 119.81 16.31 89.06 34.06 90.36 34.81"/><polygon class="cls-14" points="87.78 33.37 118.53 15.62 117.24 14.87 86.49 32.62 87.78 33.37"/><polygon class="cls-15" points="129.41 86.38 108.5 74.31 108.5 51.81 129.41 63.88 129.41 86.38"/><polygon class="cls-16" points="170.84 39.96 170.84 62.46 129.41 86.38 129.41 63.88 170.84 39.96"/><polygon class="cls-16" points="108.5 36.41 108.5 76.8 67.08 100.71 67.08 60.33 108.5 36.41"/><polygon class="cls-15" points="7.74 26.07 7.74 66.46 67.08 100.71 67.08 60.33 7.74 26.07"/><polygon class="cls-17" points="67.08 63.27 44.57 51.38 67.08 65.6 67.08 63.27"/><polygon class="cls-3" points="67.08 64.37 67.08 65.6 44.57 51.38 67.08 64.37"/><polygon class="cls-17" points="67.08 63.27 78.29 57.87 67.08 65.6 67.08 63.27"/><polygon class="cls-3" points="67.08 65.6 78.29 57.87 67.08 64.37 67.08 65.6"/><polygon class="cls-3" points="7.74 32.07 23.44 41.54 7.74 33.51 7.74 32.07"/><polygon class="cls-17" points="7.74 32.07 7.74 32.84 23.44 41.54 7.74 32.07"/><polygon class="cls-3" points="108.5 43 93.89 52.71 108.5 45.01 108.5 43"/><polygon class="cls-17" points="108.5 43 94.11 52.56 108.5 44.03 108.5 43"/><polygon class="cls-3" points="41.56 66.35 22.32 59.8 16.66 57.88 11.1 55.98 15.07 51.06 18.77 53.2 27.4 58.18 41.56 66.35"/><polygon class="cls-18" points="41.56 66.35 12.02 60.59 14.53 57.15 41.56 66.35"/><polygon class="cls-17" points="9.88 48.09 57.16 75.38 21.09 53.66 9.88 48.09"/><polygon class="cls-3" points="73.74 77.25 87.79 82.02 101.19 61.4 73.74 77.25"/><polygon class="cls-17" points="69.91 79.46 106.24 58.47 85.46 69.61 69.91 79.46"/><polygon class="cls-18" points="73.74 77.25 84.53 84.03 85.85 81.36 73.74 77.25"/><polygon class="cls-3" points="18 65.06 41.56 78.66 26.67 70.82 18 65.06"/><polygon class="cls-17" points="18 65.06 29.05 70.73 41.56 78.66 18 65.06"/><polygon class="cls-17" points="58.12 88.22 67.14 93.43 73.39 89.81 67.08 92.79 58.12 88.22"/><polygon class="cls-3" points="58.12 88.22 67.08 93.98 73.39 89.81 67.14 93.43 58.12 88.22"/><polygon class="cls-17" points="108.5 70.95 101.82 74.8 108.5 70.14 108.5 70.95"/><polygon class="cls-3" points="101.82 74.8 108.5 71.44 108.5 70.95 101.82 74.8"/><polygon class="cls-17" points="123.25 77.17 129.41 81.05 137.47 76.05 129.42 80.49 123.25 77.17"/><polygon class="cls-3" points="123.25 77.17 129.42 81.57 137.47 76.05 129.41 81.05 123.25 77.17"/><polygon class="cls-17" points="170.84 52.75 160.91 58.89 170.84 51.81 170.84 52.75"/><polygon class="cls-3" points="170.84 52.75 170.84 53.57 160.91 58.89 170.84 52.75"/><polygon class="cls-17" points="140.27 65.85 153.38 56.94 158.82 54.31 140.27 65.85"/><polygon class="cls-3" points="158.82 54.31 151.66 59.44 140.27 65.85 158.82 54.31"/><polygon class="cls-3" points="108.5 62.91 108.5 63.41 116.72 68.03 108.5 62.91"/><polygon class="cls-17" points="116.72 68.03 108.5 62.39 108.5 62.91 116.72 68.03"/><polygon class="cls-18" points="108.5 51.81 110.75 53.11 110.75 75.61 108.5 74.31 108.5 51.81"/><path class="cls-2" d="M108.5,36.41,68.3,59.62S68,88.15,70.87,98.52A97.38,97.38,0,0,0,104,122.39l38.76-22.56L109.63,80.48Z"/><path class="cls-19" d="M103.94,121.87,95.58,117C76.79,106.19,69.91,92.15,69.91,59.88l38.8-22.4c0,32.27,6.88,46.31,25.67,57.16l8.36,4.83Z"/><path class="cls-20" d="M103.88,113.05a7.76,7.76,0,0,1-3.78-.94,2.88,2.88,0,0,1-1.7-2.3,2.15,2.15,0,0,1,1.23-1.8L121,95.66a7.49,7.49,0,0,1,6.71.27,2.89,2.89,0,0,1,1.69,2.3,2.15,2.15,0,0,1-1.23,1.8L106.8,112.38A6,6,0,0,1,103.88,113.05Zm20.06-17.68a5.59,5.59,0,0,0-2.73.63L99.82,108.35a1.76,1.76,0,0,0-1,1.46,2.52,2.52,0,0,0,1.5,2,7,7,0,0,0,6.32.27L128,99.69a1.76,1.76,0,0,0,1-1.46,2.52,2.52,0,0,0-1.5-2A7.38,7.38,0,0,0,123.94,95.37Z"/><path class="cls-21" d="M107.32,108.48l.53.61-.34.19-1.66-1.94.4-.22,3.36.95-.35.2-1.05-.3Zm.57-.62-1-.27-.59-.19h0c.11.11.23.22.33.34l.48.56Z"/><path class="cls-22" d="M107.5,106.43a3.87,3.87,0,0,1,.57-.39,1.93,1.93,0,0,1,.92-.29,1.38,1.38,0,0,1,.74.18c.23.13.34.27.34.42s-.17.42-.49.6a1.46,1.46,0,0,1-.28.14l1,.58-.32.19Zm1.53.51a1.94,1.94,0,0,0,.3-.14c.39-.23.44-.47.09-.67a1.05,1.05,0,0,0-1.08.05,2.43,2.43,0,0,0-.28.19Z"/><path class="cls-23" d="M109.48,105.28a5,5,0,0,1,.57-.38,1.93,1.93,0,0,1,.92-.29,1.38,1.38,0,0,1,.74.18c.23.13.34.27.34.42s-.17.42-.49.6l-.28.14,1,.58-.32.18Zm1.53.51a1.31,1.31,0,0,0,.3-.14c.39-.22.44-.47.09-.67a1.05,1.05,0,0,0-1.08.06,1.57,1.57,0,0,0-.28.19Z"/><path class="cls-24" d="M111.46,104.14a5.51,5.51,0,0,1,.57-.39,2,2,0,0,1,.94-.3,1.28,1.28,0,0,1,.67.16c.33.19.34.44.17.65h0a1.49,1.49,0,0,1,.87.08,7.45,7.45,0,0,0,.89.29l-.34.19a7.28,7.28,0,0,1-.77-.25,1.07,1.07,0,0,0-1,0l-.3.18,1.08.62-.32.19Zm1.47.47.33-.19c.35-.2.38-.43.09-.6a1,1,0,0,0-1,.06,1.11,1.11,0,0,0-.29.21Z"/><path class="cls-25" d="M116.82,102.43c.86.5.8,1.07.16,1.44a2.53,2.53,0,0,1-2.41-.09c-.79-.46-.82-1-.15-1.43A2.48,2.48,0,0,1,116.82,102.43Zm-1.91,1.15a1.94,1.94,0,0,0,1.82.12c.51-.29.33-.73-.24-1.06a2,2,0,0,0-1.82-.13C114.13,102.82,114.36,103.26,114.91,103.58Z"/><path class="cls-26" d="M119.07,102.61l-3.33-1,.35-.2,1.63.49c.45.13.84.25,1.21.39h0a8.73,8.73,0,0,1-.64-.7l-.82-1,.35-.2,1.61,2Z"/><path class="cls-27" d="M120.72,100.3l-1,.56.9.52,1.09-.62.27.15-1.41.82-2.51-1.45,1.35-.78.28.15-1,.6.8.46,1-.57Z"/><path class="cls-28" d="M120,99.24a5.86,5.86,0,0,1,.64-.43,2.74,2.74,0,0,1,1.33-.4,2.35,2.35,0,0,1,1.25.31c.41.24.62.51.62.77s-.26.57-.75.85c-.23.14-.44.24-.62.33Zm2.55,1.09a2.14,2.14,0,0,0,.34-.17c.7-.4.68-.84,0-1.24a2,2,0,0,0-2,0,1.81,1.81,0,0,0-.34.24Z"/><path class="cls-29" d="M91.77,96.08a20.46,20.46,0,0,0,2.87,3.06l3.8-2.2a13.39,13.39,0,0,1-2.94-3Z"/><path class="cls-30" d="M88.57,72.75s2.69,14.62,12.37,22.75l3.64-2.1a45.77,45.77,0,0,1-12-23Z"/><path class="cls-31" d="M99.25,81.15a40.49,40.49,0,0,0,7.66,10.91l3.82-2.21a50,50,0,0,1-7.53-11Z"/><path class="cls-32" d="M102.67,69.11a40.22,40.22,0,0,0,10.58,19.28l3.65-2.1S108.3,76.92,106.27,67Z"/><polygon class="cls-33" points="90.8 104.49 91.96 105.5 120.23 89.18 119.06 88.18 90.8 104.49"/><polygon class="cls-34" points="93.08 106.45 94.22 107.34 122.28 91.14 121.14 90.25 93.08 106.45"/><polygon class="cls-35" points="75.12 70.82 75.24 73.02 104.05 56.39 103.84 54.24 75.12 70.82"/><polygon class="cls-36" points="74.91 66.21 74.91 68.48 103.4 52.03 103.4 49.76 74.91 66.21"/><path class="cls-37" d="M83.66,88.09l-3.94,2.27a35.21,35.21,0,0,0,8.88,12.25l3.65-2.1A45,45,0,0,1,83.66,88.09Z"/><polygon class="cls-38" points="67.07 60.33 108.5 36.41 49.17 2.15 7.74 26.07 67.07 60.33"/><polygon class="cls-39" points="60.34 49.2 81.3 37.07 80.01 36.33 59.05 48.45 60.34 49.2"/><polygon class="cls-40" points="57.77 47.76 88.51 30.01 87.22 29.26 56.47 47.01 57.77 47.76"/><polygon class="cls-41" points="55.19 46.32 85.94 28.57 84.64 27.82 53.9 45.57 55.19 46.32"/><polygon class="cls-42" points="38.89 37.19 61.09 24.36 59.8 23.62 37.59 36.44 38.89 37.19"/><polygon class="cls-43" points="36.31 35.75 67.06 18 65.77 17.25 35.02 35 36.31 35.75"/><polygon class="cls-44" points="33.74 34.31 64.49 16.55 63.19 15.81 32.45 33.56 33.74 34.31"/><polygon class="cls-45" points="31.16 32.87 61.91 15.12 60.62 14.37 29.87 32.12 31.16 32.87"/><polygon class="cls-46" points="33.05 25.71 31.75 24.96 48.22 15.45 49.51 16.2 33.05 25.71"/><g class="cls-47"><polygon class="cls-48" points="75.01 30.5 68.47 26.73 71.07 21.11 80.99 26.84 80.8 27.16 71.23 21.64 68.95 26.57 75.2 30.18 75.01 30.5"/><polygon class="cls-49" points="69.22 33.84 63.48 30.52 68.6 26.5 68.82 26.8 64.13 30.48 69.41 33.52 69.22 33.84"/><rect class="cls-50" x="62.4" y="35.39" width="0.37" height="2.18" transform="translate(-0.3 72.44) rotate(-60)"/><rect class="cls-51" x="54.51" y="35.09" width="0.37" height="7.04" transform="matrix(0.5, -0.87, 0.87, 0.5, -6.09, 66.67)"/><rect class="cls-52" x="50.3" y="41.16" width="0.37" height="3.4" transform="translate(-11.88 65.15) rotate(-60)"/></g><g class="cls-47"><polygon class="cls-53" points="49.17 42.09 48.84 41.93 51.53 36.67 61.51 35.76 63.63 30.43 63.98 30.57 61.77 36.11 51.76 37.02 49.17 42.09"/></g><path class="cls-54" d="M48.3,41.6a2,2,0,0,1,1.77,0,.54.54,0,0,1,0,1,2,2,0,0,1-1.77,0A.54.54,0,0,1,48.3,41.6Z"/><ellipse class="cls-55" cx="51.65" cy="36.85" rx="1.25" ry="0.72"/><path class="cls-56" d="M60.76,35.43a2,2,0,0,1,1.76,0c.49.28.49.73,0,1a2,2,0,0,1-1.76,0C60.27,36.16,60.27,35.71,60.76,35.43Z"/><path class="cls-57" d="M62.92,30a2,2,0,0,1,1.77,0,.54.54,0,0,1,0,1,2,2,0,0,1-1.77,0A.54.54,0,0,1,62.92,30Z"/><ellipse class="cls-58" cx="68.71" cy="26.65" rx="1.25" ry="0.72"/><path class="cls-59" d="M70.27,20.87a1.89,1.89,0,0,1,1.76,0c.49.28.49.73,0,1a2,2,0,0,1-1.76,0C69.78,21.6,69.78,21.15,70.27,20.87Z"/></g></g></svg>