<svg width="300" height="300" viewBox="0 0 300 300" fill="none" xmlns="http://www.w3.org/2000/svg">
<g clip-path="url(#clip0_1011_8535)">
<path d="M211.45 197.825L216.832 194.714L191.406 194.378L191.98 209.077L197.362 205.967L217.406 217.556L231.494 209.414L211.45 197.825Z" fill="url(#paint0_linear_1011_8535)"/>
<path d="M94.2734 80.2079V199.746L97.2216 201.45L100.308 81.9117L134.321 63.4084L136.399 59.2679L133.47 57.5642L94.2734 80.2079Z" fill="#DCE4FB"/>
<path d="M97.2266 201.45L136.404 178.806V59.2681L97.2266 81.9118V201.45Z" fill="#DCE4FB"/>
<path d="M98.625 194.08L134.993 173.061V64.9338L98.625 85.9531V194.08Z" fill="#CDD4F0"/>
<path opacity="0.1" d="M113.406 78.3458L98.625 116.343V151.784L125.119 83.6749V71.0752L113.406 78.3458Z" fill="white"/>
<path opacity="0.1" d="M125.119 99.9199L98.625 168.029V177.004L125.119 108.894V99.9199Z" fill="white"/>
<path d="M55.1016 102.852V222.39L58.03 224.094L61.1364 104.555L95.1296 86.0522L97.227 81.9117L94.2788 80.208L55.1016 102.852Z" fill="#DCE4FB"/>
<path d="M58.0234 224.094L97.2205 201.45V81.9119L58.0234 104.556V224.094Z" fill="#DCE4FB"/>
<path d="M59.4297 216.724L95.8171 195.705V87.5776L59.4297 108.597V216.724Z" fill="#CDD4F0"/>
<path opacity="0.1" d="M90.0582 199.033L95.8161 184.235V175.24L85.5469 201.648L90.0582 199.033Z" fill="white"/>
<path opacity="0.1" d="M77.3959 206.343L95.8171 158.996V123.554L71.5391 185.958V209.731L77.3959 206.343Z" fill="white"/>
<path d="M97.0859 201.529L97.3432 201.371V88.8853L97.0859 89.0239V201.529Z" fill="#A8B3E4"/>
<path d="M125.125 65.7858V185.324L127.361 186.612L131.892 67.9055L134.444 66.6773L138.619 60.5557L133.139 57.386L125.125 65.7858Z" fill="#F3F6FE"/>
<path d="M127.359 186.612L138.618 180.094V60.5557L127.359 67.0734V186.612Z" fill="#DCE4FB"/>
<path d="M129.281 179.599L136.701 175.3V65.6074L129.281 69.8866V179.599Z" fill="#CDD4F0"/>
<path opacity="0.1" d="M129.281 66.9545V72.977L132.19 65.4885L129.281 66.9545Z" fill="white"/>
<path opacity="0.1" d="M136.701 70.1443L129.281 89.2221V98.1964L136.701 79.1384V70.1443Z" fill="white"/>
<path d="M54.7578 102.674V222.212L60.2585 225.401L64.7896 106.675L67.342 105.447L71.5368 99.3453L66.0361 96.1558L54.7578 102.674Z" fill="#DCE4FB"/>
<path d="M60.2656 225.401L71.5439 218.884V99.3452L60.2656 105.863V225.401Z" fill="#DCE4FB"/>
<path d="M62.2031 218.388L69.6231 214.089V104.377L62.2031 108.676V218.388Z" fill="#CDD4F0"/>
<path opacity="0.1" d="M64.375 204.382V217.121L69.6184 214.09V190.911L64.375 204.382Z" fill="white"/>
<path d="M142.733 182.471L171.7 165.731V31.4338L138.617 45.7967L142.733 182.471Z" fill="#CEDAFF"/>
<path d="M138.617 45.7968L140.477 48.7486L142.733 48.1741L171.7 31.4339L167.585 29.0566L138.617 45.7968Z" fill="#C2D1FF"/>
<path d="M138.637 180.094L142.733 182.471V48.1739L138.617 45.7966L138.637 180.094Z" fill="#DDE5FB"/>
<path d="M151.699 105.863L165.154 98.0972V77.5732L150.492 84.6457L151.699 105.863Z" fill="#E5E8F7"/>
<path d="M159.534 96.6511V98.1964L153.281 101.802V101.267L158.683 97.8001L159.059 96.9285L159.534 96.6511Z" fill="white"/>
<path d="M159.059 96.9285V97.9388L153.281 101.267V100.257L159.059 96.9285Z" fill="#B8C9FF"/>
<path d="M163.57 94.3333V95.8785L160.227 97.8001V97.2454L162.324 95.7398L163.096 94.6106L163.57 94.3333Z" fill="white"/>
<path d="M163.096 94.6106V95.6011L160.227 97.2454V96.2549L163.096 94.6106Z" fill="#CAD6F8"/>
<path d="M150.492 84.6457L151.086 87.1221L151.699 85.3391L165.154 77.5733L163.947 76.8601L150.492 84.6457Z" fill="white"/>
<path d="M150.492 105.17L151.699 105.863V85.3391L150.492 84.6458V105.17Z" fill="#F3F6FE"/>
<path d="M154.188 90.0539V94.0161L154.821 94.3925L155.019 94.234V90.2719L157.452 85.9135L156.562 85.6956L154.188 90.0539Z" fill="#F3F6FE"/>
<path d="M157.297 86.0919H157.752L160.344 84.6259L160.76 84.091L160.127 83.6948L156.664 85.6759L157.297 86.0919Z" fill="white"/>
<path d="M154.844 90.3116V94.2738L157.297 95.6803L160.76 93.6993L163.213 89.4399V85.4778L160.76 84.1108L157.297 86.0919L154.844 90.3116Z" fill="#E5E8F7"/>
<path d="M160.597 84.606L162.813 85.8937V89.519L160.597 93.3821L157.45 95.1849L155.234 93.917V90.2718L157.45 86.4285L160.597 84.606Z" fill="#2E3665"/>
<path d="M159.848 87.1814L160.976 87.8352V89.7172L159.848 91.6983L158.226 92.6294L157.078 91.9756V90.0936L158.226 88.1125L159.848 87.1814Z" fill="#E5E8F7"/>
<path d="M160.208 87.3796L161.355 88.0334V89.9154L160.208 91.8965L158.585 92.8474L157.438 92.1739V90.3116L158.585 88.3107L160.208 87.3796Z" fill="white"/>
<path d="M158.242 92.2333L158.677 92.4908L160.082 91.6786L161.091 89.9352V88.3108L160.656 88.0532L158.242 92.2333Z" fill="#E5E8F7"/>
<path d="M157.688 90.2719V91.9162L158.242 92.2331L159.646 91.4209L160.655 89.6974V88.0531L160.082 87.7361L158.677 88.5483L157.688 90.2719Z" fill="#A0ACE2"/>
<path d="M159.198 89.0437L159.535 89.2418V89.7965L159.198 90.3908L158.704 90.6682L158.367 90.4701V89.9154L158.704 89.3211L159.198 89.0437Z" fill="#93A1DE"/>
<path opacity="0.3" d="M179.084 102.238L181.458 90.6682L159.198 89.0437L158.704 89.3211L158.367 89.9154V90.4701L179.084 102.238Z" fill="#445394"/>
<path d="M60.2656 91.0843L64.3812 108.221L142.736 62.9331L147.742 51.8193L142.736 48.1741L60.2656 91.0843Z" fill="#CEDAFF"/>
<path d="M60.2656 91.0842V105.863L64.3812 108.221V93.4615L63.7481 91.2229L60.2656 91.0842Z" fill="#DDE5FB"/>
<path d="M60.2656 91.0841L64.3812 93.4614L142.736 48.1739L138.64 45.7966L60.2656 91.0841Z" fill="#C2D1FF"/>
<path d="M51.5958 235.148L64.3779 227.759V108.22L69.6213 98.4736L64.3779 93.4614L47.5 98.4736L51.5958 235.148Z" fill="#CEDAFF"/>
<path d="M47.5 98.4737L49.3401 101.425L51.5958 100.851L64.3779 93.4615L60.2623 91.0842L47.5 98.4737Z" fill="#C2D1FF"/>
<path d="M47.5 232.771L51.5958 235.148V100.851L47.5 98.4736V232.771Z" fill="#DDE5FB"/>
<path opacity="0.3" d="M194.83 183.165L185.729 177.895H172.867L163.766 183.165V190.594L172.867 195.863H185.729L194.83 190.594V183.165Z" fill="black"/>
<path d="M184.841 178.311L181.734 179.341V179.936L183.04 182.174L185.533 183.917L187.71 187.483L190.44 187.226L190.678 186.156V185.483L184.841 178.311Z" fill="#0A0808"/>
<path d="M184.841 177.717L181.952 177.895L181.734 179.341L183.04 181.58L185.533 183.323L187.71 186.889L190.44 186.632L190.678 185.483L190.302 182.63L184.841 177.717Z" fill="#362C29"/>
<path d="M180.344 148.892L182.54 159.233L183.806 162.581L184.499 179.738L185.35 182.254L187.942 183.561L190.712 182.927L191.622 164.78L190.138 158.956L191.226 139.72L188.476 134.351L180.344 140.374V148.892Z" fill="#3A9DCA"/>
<path d="M165.406 189.623L165.446 190.138L169.047 192.515L174.191 192.813L179.376 193.724L180.84 192.139L180.82 191.624L165.406 189.623Z" fill="#0A0808"/>
<path d="M172.767 186.235L166.059 187.503L165.406 189.623L169.027 192L174.172 192.297L179.356 193.209L180.82 191.624L180.226 188.276L176.704 186.77L172.767 186.235Z" fill="#362C29"/>
<path d="M170.117 143.008L172.215 163.037L172.531 186.156L173.56 188.672L177.656 189.999L180.505 188.117L181.257 171.021L180.05 165.612L183.058 143.84L188.479 141.126L187.272 132.528L173.362 135.857L170.117 143.008Z" fill="#0984BD"/>
<path d="M181.814 101.168L181.695 105.863L184.347 106.101L189.412 104.219L188.858 100.712L183.061 100.276L181.814 101.168Z" fill="#F0C6B4"/>
<path d="M178.212 93.9172L178.094 95.7001L178.588 96.4133L178.153 97.6218L179.083 102.238L181.596 102.812L182.981 102.297L184.861 100.792V96.0765L180.567 92.8672L178.212 93.9172Z" fill="#F0C6B4"/>
<path d="M184.778 87.8945L181.435 87.9738L178.664 90.5096L178.031 93.6L179.713 96.4924L179.812 98.632L180.307 99.0084L181.81 98.315L182.978 99.0084L183.077 100.692L182.978 102.297L184.759 103.426H187.865L190.477 101.663L192.693 95.7L191.822 91.0841L188.419 88.469L186.579 88.5681L184.778 87.8945Z" fill="#02212F"/>
<path d="M186.578 88.5681L190.278 92.3322L190.654 91.5794L186.578 88.5681Z" fill="#AC8854"/>
<path d="M192.475 124.723L191.841 125.377L188.992 125.297V122.524L192.198 122.029L192.475 124.723Z" fill="#F0C6B4"/>
<path d="M195.639 123.237L192.75 125.159L191.306 124.683L190.297 122.9L190.376 121.533L192.731 119.889L195.639 123.237Z" fill="white"/>
<path d="M191.328 103.585L196.631 102.99L208.424 112.42L207.513 117.056L195.088 125.297L193.109 124.644L191.704 122.187L191.823 120.305L199.559 114.897L194.316 111.45L191.328 103.585Z" fill="#0984BD"/>
<path d="M190.299 103.743L187.786 105.645L183.236 106.715L180.505 106.596L172.214 113.371L172.61 122.128L170.176 131.795L169.82 142.691L172.214 145.187L178.586 146.257L184.541 143.82L185.016 135.302L186.758 142.711L190.933 140.532L191.724 138.353L189.251 125.812L195.84 113.094L196.295 106.834L193.92 104.278L191.328 103.585L190.299 103.743Z" fill="#38C5EA"/>
<path d="M188.161 126.605L181.453 129.418L181.77 130.646L188.161 126.605Z" fill="#0984BD"/>
<path d="M180.227 106.834L180.662 104.595L183.412 105.09L187.647 104.021L190.021 102.555L190.496 104.258L188.102 106.101L183.491 107.052L180.227 106.834Z" fill="white"/>
<path d="M173.734 134.846L176.188 133.875L177.652 130.706L177.454 128.606L175.931 127.893L172.211 131.855L173.734 134.846Z" fill="#3A9DCA"/>
<path d="M180.661 112.599L177.119 111.053L174.29 113.193L169.383 130.428L169.957 133.598L173.736 134.846L176.486 131.795L181.809 116.482L180.661 112.599Z" fill="#0984BD"/>
<path d="M199.562 114.897L201.759 115.749H205.558L201.68 116.264L199.562 114.897Z" fill="#3A9DCA"/>
<path d="M190.141 74.4827V51.7201L201.498 32.0084L221.205 20.6172H243.94L263.647 32.0084L275.005 51.7201V74.4827L263.647 94.2143L243.94 105.586H221.205L201.498 94.2143L190.141 74.4827Z" fill="white"/>
<path opacity="0.3" d="M223.067 75.077L235.453 72.1252L247.859 75.077L253.024 82.2882L247.859 89.4399L235.453 92.4115L223.067 89.4399L217.883 82.2882L223.067 75.077Z" fill="black"/>
<path d="M221.422 82.4863L224.687 87.2211L231.473 87.9343L239.625 86.3692L247.857 80.2279L249.38 76.444L247.837 71.3724L247.56 66.7763L245.819 63.1113L221.996 71.5705L221.422 82.4863Z" fill="#D9B3A2"/>
<path d="M214.499 44.3109L211.57 54.1173L213.035 56.6332L212.263 62.2991L212.678 66.7763L213.747 71.6102L214.241 76.028L214.479 80.6439L216.279 82.6448L223.244 84.9428L230.209 81.9514L235.611 78.5043L240.439 74.978L242.516 69.3716L244.455 68.8961L246.85 66.7763L248.749 65.0726L251.381 60.8727L250.965 56.3757L247.285 54.2163L243.842 55.5238L214.716 41.3789L214.499 44.3109Z" fill="#F0C6B4"/>
<path d="M214.719 75.1562L215.273 77.5732L218.359 79.6929L220.773 78.8212L214.719 75.1562Z" fill="#D9B3A2"/>
<path d="M214.719 73.7498V75.1563L215.57 77.2959L218.359 79.1581L220.773 78.8213L222 77.8506L218.775 74.7403L217.627 74.6214L216.796 73.7498H214.719Z" fill="#F0C6B4"/>
<path d="M214.719 73.7498L216.302 75.3148L217.172 76.2063L218.458 76.5431L222 77.8506L218.518 76.86L216.935 76.5629L216.143 75.4931L214.719 73.7498Z" fill="#D9B3A2"/>
<path d="M218.023 73.1951L217.172 74.0865L217.429 74.7403L218.319 74.6412L218.023 73.1951Z" fill="#D9B3A2"/>
<path d="M246.668 62.517L245.362 62.5962L245.343 59.902L247.479 57.9209L249.379 59.8624L248.983 62.2595L246.708 65.7065H245.303L245.699 64.7754L245.303 64.4188L244.531 64.2604L245.026 63.6858L246.352 62.9925L246.668 62.517Z" fill="#D9B3A2"/>
<path d="M242.513 69.3716L242.216 66.7764L241.82 68.698L242.513 69.3716Z" fill="#D9B3A2"/>
<path d="M235.416 26.6396L231.419 25.5896L226.651 26.8971L222.317 28.0461L217.964 32.979L215.768 33.6724L213.829 36.4459L213.156 40.4873L214.502 44.3108L215.966 41.8345L230.648 33.7715L235.416 26.6396Z" fill="#02212F"/>
<path d="M214.719 42.6071L216.084 45.2221L216.757 50.3333V52.6908L217.825 54.1172L218.656 56.0388L218.419 53.6813L217.825 51.6804L217.469 46.173L215.866 42.1118L214.719 42.6071Z" fill="#02212F"/>
<path d="M216.122 44.7468V48.0552L215.39 50.175L214.242 51.958L215.746 50.4325L217.032 47.6986L216.676 45.5393L216.122 44.7468Z" fill="#02212F"/>
<path d="M237.729 26.0256L230.507 26.6596L225.402 28.086L220.059 32.2462L216.597 37.5159L214.242 38.7838V42.2309L217.626 44.8261L220.851 52.9287L225.995 55.9201L230.823 56.871L234.603 58.7531H238.758L240.163 60.2389V63.7058L242.853 62.9133L244.1 59.3078L247.246 56.3163L249.838 57.5644L250.293 59.5455L249.68 62.1407L246.85 66.7764H248.572L252.648 60.9521L255.952 53.9589V44.2714L251.48 34.4452L244.337 28.8586L237.729 26.0256Z" fill="#02212F"/>
<path d="M250.393 57.4256L250.651 59.5453L250.156 62.2594L246.852 66.7763L249.622 62.1207L250.235 59.5453L249.76 57.6831L247.247 56.3162L250.393 57.4256Z" fill="#AC8854"/>
<path d="M211.57 54.1172L215.448 58.3567L217.031 60.318L217.526 62.1604L214.004 58.9312L213.035 56.6332L211.57 54.1172Z" fill="#D9B3A2"/>
<path d="M217.034 60.3181V62.3784L214.719 68.0443L213.156 70.6395L214.244 72.4423L217.034 73.2347L220.022 72.7197L220.141 71.214L219.429 69.3716L220.695 61.4275L218.459 61.4077L217.034 60.3181Z" fill="#F0C6B4"/>
<path d="M218.651 63.3491L217.463 69.2131L216.672 71.0159L217.028 73.2347L220.016 72.7196L220.135 71.214L219.422 69.3716L221.421 61.2888L219.976 61.3284L218.453 61.4077L218.651 63.3491Z" fill="#D9B3A2"/>
<path d="M238.442 66.7764L232.071 71.4121L229.617 79.4949L234.603 73.2347L237.413 70.4017L238.442 66.7764Z" fill="#D9B3A2"/>
<path d="M219.523 61.6652L221.423 61.2888L224.787 62.6558L230.426 63.6463L232.583 64.6567L225.182 64.9142L221.106 62.7746L219.741 63.151L219.523 61.6652Z" fill="#D9B3A2"/>
<path d="M216.672 72.2243L214.555 71.313L215.94 68.2027L217.721 62.9331L217.602 61.5067C217.602 61.5067 217.602 61.3482 217.74 61.3284C217.779 61.3281 217.817 61.342 217.846 61.3676C217.875 61.3931 217.894 61.4285 217.899 61.467L218.037 62.9529L216.256 68.282L214.99 71.1149L216.711 71.8479L220.115 70.9762L226.051 70.263C226.075 70.2541 226.1 70.2512 226.126 70.2544C226.151 70.2576 226.175 70.2669 226.196 70.2815C226.217 70.2961 226.234 70.3156 226.246 70.3382C226.258 70.3609 226.264 70.3861 226.264 70.4116C226.264 70.4372 226.258 70.4624 226.246 70.485C226.234 70.5077 226.217 70.5271 226.196 70.5417C226.175 70.5563 226.151 70.5656 226.126 70.5688C226.1 70.5721 226.075 70.5691 226.051 70.5602L220.115 71.2734L216.672 72.2243Z" fill="#BAF3FF"/>
<path d="M216.375 81.377L212.102 62.5369L214.199 59.4662C214.209 59.4457 214.223 59.4275 214.241 59.413C214.258 59.3985 214.279 59.388 214.301 59.3821C214.323 59.3763 214.346 59.3754 214.369 59.3794C214.391 59.3833 214.413 59.3921 214.431 59.4051C214.45 59.4182 214.466 59.4351 214.478 59.4548C214.489 59.4744 214.496 59.4964 214.499 59.5191C214.501 59.5419 214.499 59.5649 214.491 59.5865C214.484 59.6082 214.472 59.628 214.456 59.6445L212.478 62.6162L216.593 80.7232L225.853 70.481L223.439 64.9736C223.426 64.9607 223.416 64.9453 223.408 64.9283C223.401 64.9113 223.398 64.893 223.398 64.8746C223.398 64.8561 223.401 64.8379 223.408 64.8209C223.416 64.8039 223.426 64.7885 223.439 64.7755C223.469 64.7477 223.508 64.7321 223.548 64.7321C223.589 64.7321 223.627 64.7477 223.657 64.7755L226.15 70.4612L216.375 81.377Z" fill="#BAF3FF"/>
<path d="M214.752 71.4516C214.709 71.4467 214.668 71.4258 214.639 71.3929C214.61 71.36 214.594 71.3174 214.594 71.2733L214.752 68.2423L212.14 62.6358C212.124 62.617 212.112 62.5945 212.106 62.5703C212.1 62.5461 212.1 62.5208 212.106 62.4964C212.111 62.4721 212.122 62.4494 212.138 62.4302C212.154 62.4111 212.175 62.3959 212.198 62.3861C212.22 62.3763 212.245 62.372 212.27 62.3736C212.295 62.3753 212.319 62.3828 212.341 62.3955C212.362 62.4083 212.38 62.4259 212.394 62.447C212.407 62.4681 212.415 62.4921 212.417 62.5169L215.069 68.2621L214.911 71.3724C214.893 71.3983 214.87 71.4192 214.842 71.4331C214.814 71.447 214.783 71.4534 214.752 71.4516V71.4516Z" fill="#BAF3FF"/>
<path d="M212.836 71.095L213.964 73.0365L215.547 73.9676L216.674 73.3139V71.4714L215.547 69.53L213.964 68.5989L212.836 69.2526V71.095Z" fill="#BAF3FF"/>
<path d="M213.547 71.1742L214.259 72.4025L215.268 72.977L215.981 72.561V71.4119L215.268 70.1639L214.259 69.5894L213.547 70.0054V71.1742Z" fill="#6CB5C4"/>
<path d="M214.539 80.8619L215.667 82.8033L217.27 83.7146L218.378 83.0807V81.2383L217.27 79.277L215.667 78.3657L214.539 79.0195V80.8619Z" fill="#BAF3FF"/>
<path d="M215.25 80.9213L215.962 82.1693L216.971 82.7439L217.684 82.3278V81.159L216.971 79.9307L215.962 79.3562L215.25 79.7524V80.9213Z" fill="#6CB5C4"/>
<path d="M223.543 65.0726L214.323 59.7039C214.31 59.691 214.299 59.6756 214.292 59.6586C214.285 59.6416 214.281 59.6233 214.281 59.6049C214.281 59.5864 214.285 59.5681 214.292 59.5511C214.299 59.5341 214.31 59.5187 214.323 59.5058C214.352 59.4779 214.391 59.4624 214.432 59.4624C214.472 59.4624 214.511 59.4779 214.54 59.5058L223.761 64.8547C223.789 64.8841 223.804 64.9231 223.804 64.9637C223.804 65.0042 223.789 65.0432 223.761 65.0726C223.748 65.0891 223.731 65.1024 223.713 65.1116C223.694 65.1208 223.673 65.1255 223.652 65.1255C223.631 65.1255 223.611 65.1208 223.592 65.1116C223.573 65.1024 223.556 65.0891 223.543 65.0726Z" fill="#BAF3FF"/>
<path d="M223.541 70.9763C223.501 70.972 223.463 70.9539 223.434 70.925C223.405 70.8962 223.387 70.8584 223.383 70.8178V64.8746C223.387 64.834 223.405 64.7961 223.434 64.7673C223.463 64.7385 223.501 64.7204 223.541 64.7161C223.583 64.7161 223.623 64.7328 223.653 64.7625C223.683 64.7922 223.699 64.8325 223.699 64.8746V70.8178C223.699 70.8598 223.683 70.9001 223.653 70.9299C223.623 70.9596 223.583 70.9763 223.541 70.9763V70.9763Z" fill="#BAF3FF"/>
<path d="M223.544 65.0727C223.526 65.0831 223.505 65.0886 223.484 65.0886C223.463 65.0886 223.443 65.0831 223.425 65.0727L218.795 57.0295C218.771 56.9983 218.758 56.96 218.758 56.9205C218.758 56.8811 218.771 56.8428 218.795 56.8116C218.826 56.7875 218.864 56.7744 218.904 56.7744C218.943 56.7744 218.981 56.7875 219.013 56.8116L223.623 64.8548C223.651 64.8842 223.666 64.9232 223.666 64.9637C223.666 65.0042 223.651 65.0432 223.623 65.0727H223.544Z" fill="#BAF3FF"/>
<path d="M221.625 64.7161L222.753 66.6774L224.356 67.5887L225.464 66.9547V65.1123L224.356 63.151L222.753 62.2397L221.625 62.8935V64.7161Z" fill="#BAF3FF"/>
<path d="M222.336 64.7953L223.048 66.0236L224.057 66.6179L224.77 66.2019V65.033L224.057 63.8048L223.048 63.2104L222.336 63.6265V64.7953Z" fill="#6CB5C4"/>
<path d="M214.322 67.0933C214.282 67.089 214.244 67.0709 214.215 67.0421C214.186 67.0133 214.168 66.9754 214.164 66.9348V59.5652C214.164 59.5232 214.181 59.4829 214.21 59.4532C214.24 59.4234 214.28 59.4067 214.322 59.4067C214.364 59.4067 214.405 59.4234 214.434 59.4532C214.464 59.4829 214.481 59.5232 214.481 59.5652V66.9348C214.476 66.9754 214.458 67.0133 214.429 67.0421C214.401 67.0709 214.363 67.089 214.322 67.0933V67.0933Z" fill="#BAF3FF"/>
<path d="M214.322 59.7238C214.278 59.7405 214.229 59.7405 214.184 59.7238C214.156 59.6943 214.141 59.6553 214.141 59.6148C214.141 59.5743 214.156 59.5353 214.184 59.5058L218.794 56.8116C218.825 56.7875 218.864 56.7744 218.903 56.7744C218.942 56.7744 218.981 56.7875 219.012 56.8116C219.04 56.841 219.055 56.88 219.055 56.9205C219.055 56.9611 219.04 57.0001 219.012 57.0295L214.402 59.704L214.322 59.7238Z" fill="#BAF3FF"/>
<path d="M212.398 59.367L213.526 61.3085L215.109 62.2396L216.237 61.5858V59.7434L215.109 57.802L213.526 56.8708L212.398 57.5246V59.367Z" fill="#BAF3FF"/>
<path d="M213.109 59.4266L213.822 60.6747L214.811 61.2492L215.543 60.8332V59.6842L214.811 58.4361L213.822 57.8616L213.109 58.2776V59.4266Z" fill="#6CB5C4"/>
<path d="M219.861 77.4346L216.874 76.5828L214.895 74.6017C214.867 74.5723 214.852 74.5333 214.852 74.4927C214.852 74.4522 214.867 74.4132 214.895 74.3838C214.928 74.3545 214.97 74.3384 215.014 74.3384C215.057 74.3384 215.1 74.3545 215.132 74.3838L217.111 76.3649L220.039 77.1969C220.062 77.225 220.074 77.26 220.074 77.296C220.074 77.332 220.062 77.3669 220.039 77.395C220.017 77.4192 219.989 77.436 219.957 77.4431C219.925 77.4502 219.891 77.4472 219.861 77.4346V77.4346Z" fill="#BAF3FF"/>
<path d="M217.07 76.5233L216.773 76.4243L217.604 74.2451L217.783 73.0961L218.099 73.0366L217.901 74.3243L217.07 76.5233Z" fill="#BAF3FF"/>
<path d="M217.746 61.7047C217.723 61.6766 217.711 61.6417 217.711 61.6057C217.711 61.5697 217.723 61.5347 217.746 61.5066L218.933 56.8313C218.958 56.8103 218.989 56.7988 219.022 56.7988C219.054 56.7988 219.086 56.8103 219.111 56.8313C219.149 56.8407 219.183 56.8643 219.205 56.8973C219.227 56.9303 219.236 56.9704 219.23 57.0096L218.042 61.6849C218.033 61.7161 218.015 61.7438 217.99 61.7642C217.964 61.7846 217.933 61.7967 217.901 61.7988C217.869 61.801 217.836 61.7931 217.809 61.7763C217.781 61.7595 217.759 61.7345 217.746 61.7047V61.7047Z" fill="#BAF3FF"/>
<path opacity="0.3" d="M201.242 87.023L204.725 79.4949V31.5527L201.242 39.0808V87.023Z" fill="#BAF3FF"/>
<path opacity="0.3" d="M240.321 100.058L227.281 102.079L214.262 100.058L204.725 94.551L201.242 87.0229V39.0808L204.725 46.6089L214.262 52.1163L227.281 54.137L240.321 52.1163V100.058Z" fill="#BAF3FF"/>
<path opacity="0.3" d="M90.6953 241.448L119.03 225.065H121.859L188.658 263.577V265.201L160.304 281.585H157.495L143.585 273.581L119.683 287.389L93.1488 272.056L117.031 258.248L90.6953 243.073V241.448Z" fill="black"/>
<path d="M92.4922 244.083L94.2928 245.133L100.842 221.816L95.3612 207.156L92.4922 206.839V244.083Z" fill="white"/>
<path d="M94.2969 245.133L125.461 227.105V189.881L94.2969 207.889V245.133Z" fill="#D1D3DD"/>
<path d="M120.551 238.912L136.954 229.423V211.811L120.551 221.281L118.078 227.125L120.551 238.912Z" fill="#D1D3DD"/>
<path d="M95.8359 206.997L120.549 221.281V238.912L119.501 239.507L96.8846 226.431L95.8359 224.609V206.997Z" fill="white"/>
<path opacity="0.3" d="M96.8281 226.055L119.405 239.13V230.948L96.8281 217.893V226.055Z" fill="black"/>
<path d="M96.4922 225.639L119.069 238.694V230.513L96.4922 217.457V225.639Z" fill="white"/>
<path d="M109.491 231.979L109.768 231.82V231.662L109.273 231.701L109.491 231.979Z" fill="#363E6B"/>
<path d="M109.491 231.82L109.768 231.662L109.352 230.909L105.969 229.284L109.491 231.82Z" fill="#CAD6F8"/>
<path d="M109.055 231.067L109.352 230.909L106.246 229.126L105.969 229.284L109.055 231.067Z" fill="#D7E0FA"/>
<path d="M105.531 229.542L105.967 229.284L109.053 231.067L109.489 231.82V231.978L109.053 232.216L105.967 230.433L105.531 229.68V229.542Z" fill="#CFDAF9"/>
<path d="M119.07 238.695L119.506 238.437V230.275L119.07 230.513V238.695Z" fill="#D1D3DD"/>
<path d="M119.069 230.512L119.504 230.275L96.9275 217.239L96.4922 217.457L119.069 230.512Z" fill="#DCE4FB"/>
<path d="M96.4922 217.101L119.069 230.156V221.994L96.4922 208.939V217.101Z" fill="white"/>
<path d="M109.491 223.301L109.768 223.123V222.984L109.273 223.024L109.491 223.301Z" fill="#363E6B"/>
<path d="M109.491 223.163L109.768 222.984L109.352 222.232L105.969 220.607L109.491 223.163Z" fill="#CAD6F8"/>
<path d="M109.055 222.39L109.352 222.232L106.246 220.449L105.969 220.607L109.055 222.39Z" fill="#D7E0FA"/>
<path d="M105.531 220.865L105.967 220.607L109.053 222.39L109.489 223.163V223.301L109.053 223.539L105.967 221.756L105.531 221.003V220.865Z" fill="#CFDAF9"/>
<path d="M119.07 230.156L119.506 229.898V221.756L119.07 221.994V230.156Z" fill="#D1D3DD"/>
<path d="M119.069 221.994L119.504 221.756L96.9275 208.721L96.4922 208.939L119.069 221.994Z" fill="white"/>
<path d="M136.103 254.642L134.5 255.276V255.85L136.182 257.158L137.923 256.286L140.238 254.246L142.969 253.117L142.494 249.353L140.278 249.531L136.103 254.642Z" fill="#565C82"/>
<path d="M135.094 251.591L134.935 253.632L134.5 255.276L136.182 256.584L137.923 255.712L140.238 253.671L142.969 252.522L142.494 248.778L140.278 248.956L135.094 251.591Z" fill="#02212F"/>
<path d="M132.922 245.311L134.742 251.908H138.798L140.599 248.798L138.996 242.023L132.922 245.311Z" fill="#02212F"/>
<path d="M147.776 253.988L150.17 254.226L154.266 254.464V255.018L153.791 257.871L147.776 260.169L145.837 261.556L143.285 261.794L142.117 260.308V259.753L147.776 253.988Z" fill="#565C82"/>
<path d="M147.776 253.454L150.17 253.671L152.98 253.354L154.266 254.464L153.791 257.317L147.776 259.615L145.837 261.001L143.285 261.259L142.117 259.753L142.315 256.584L147.776 253.454Z" fill="#02212F"/>
<path d="M148.827 236.654L148.313 248.025L148.53 253.453L146.136 256.583H141.843L141.031 243.588L148.827 236.654Z" fill="#05425F"/>
<path d="M122.388 255.137L124.05 256.108L121.893 243.726L120.607 238.635L119.816 237.803L118.352 237.823L122.388 255.137Z" fill="#0A0808"/>
<path d="M93.1484 272.056L97.2838 249.551L98.0357 247.728L100.331 248.203L99.3416 250.521L99.2625 250.482L94.8105 273.007L93.1484 272.056Z" fill="#211A1A"/>
<path d="M98.0312 247.728L99.6933 248.679L102.008 247.173L99.3372 246.302L98.0312 247.728Z" fill="#2E3665"/>
<path d="M117.211 235.961L118.655 237.466L120.179 236.852L118.517 235.881L117.211 235.961Z" fill="#2E3665"/>
<path d="M99.3438 246.302L101.006 247.272L110.642 242.439L118.873 236.931L117.211 235.96L99.3438 246.302Z" fill="#CBD7F8"/>
<path d="M118.675 238.199L101.204 248.283L100.373 249.194L99.8581 250.422L95.8216 272.432L94.8125 273.007L98.9479 250.522L99.6998 248.679L101.006 247.273L118.873 236.931L120.179 236.852L120.931 237.803L125.066 255.514L124.057 256.108L120.001 238.794L119.486 238.14L118.675 238.199Z" fill="#0A0808"/>
<path d="M123.859 256.148L128.252 257.118L127.302 261.318H125.7L123.859 256.148Z" fill="#211A1A"/>
<path d="M103.969 246.341L125.694 256.326V261.318L103.969 248.758V246.341Z" fill="#2E3665"/>
<path d="M127.297 255.593L142.097 250.343V252.76L127.297 261.318V255.593Z" fill="#0A0808"/>
<path d="M118.749 236.872H120.372L142.097 249.432V250.343L127.297 258.901H125.694L103.969 246.341V245.41L118.749 236.872Z" fill="#E3E9FC"/>
<path d="M123.859 254.721L128.252 255.672L127.302 258.902H125.7L123.859 254.721Z" fill="#5966A0"/>
<path d="M103.969 244.895L125.694 254.9V258.901L103.969 246.341V244.895Z" fill="#6975A9"/>
<path d="M127.297 254.147L142.097 248.917V250.343L127.297 258.901V254.147Z" fill="#445394"/>
<path d="M118.749 235.446H120.372L142.097 248.006V248.917L127.297 257.475H125.694L103.969 244.895V243.984L118.749 235.446Z" fill="#AFB5D1"/>
<path d="M147.263 269.52L148.925 270.491L146.788 258.109L145.502 253.018L144.691 252.186L143.227 252.205L147.263 269.52Z" fill="#0A0808"/>
<path d="M118.016 286.438L122.171 263.953L122.903 262.111L125.198 262.586L124.229 264.904L124.149 264.865L119.678 287.389L118.016 286.438Z" fill="#211A1A"/>
<path d="M122.906 262.111L124.568 263.062L126.883 261.556L124.232 260.684L122.906 262.111Z" fill="#2E3665"/>
<path d="M142.102 250.343L143.526 251.849L145.05 251.235L143.407 250.264L142.102 250.343Z" fill="#2E3665"/>
<path d="M124.234 260.685L125.877 261.655L135.532 256.821L143.744 251.314L142.102 250.343L124.234 260.685Z" fill="#CBD7F8"/>
<path d="M143.542 252.582L126.091 262.665L125.24 263.577L124.745 264.805L120.689 286.815L119.68 287.389L123.815 264.904L124.567 263.062L125.873 261.655L143.74 251.314L145.046 251.235L145.818 252.205L149.933 269.896L148.924 270.491L144.888 253.176L144.373 252.522L143.542 252.582Z" fill="#0A0808"/>
<path d="M132.324 237.209L125.359 239.289L124.766 232.117H127.615L132.324 237.209Z" fill="#211A1A"/>
<path d="M141.028 243.588L125.456 251.908L118.828 251.552L112.239 248.025L109.766 242.855L125.674 238.12L136.873 235.188L146.766 234.534L148.824 236.654L145.559 241.131L141.028 243.588Z" fill="#05425F"/>
<path d="M153.875 279.445L155.676 280.515L162.225 257.198L156.744 242.538L153.875 242.221V279.445Z" fill="white"/>
<path d="M155.672 280.515L186.836 262.487V225.263L155.672 243.271V280.515Z" fill="#D1D3DD"/>
<path d="M191.546 272.769L170.176 285.131L169.82 262.765L170.018 261.001L170.176 260.368L191.546 248.006V272.769Z" fill="#02212F"/>
<path d="M191.543 248.005L170.174 260.367L169.422 260.249L161.309 255.593L160.656 254.86L182.026 242.498L191.543 248.005Z" fill="#565C82"/>
<path d="M160.656 254.86V279.624L170.174 285.131V260.427L160.656 254.86Z" fill="#363E6B"/>
<path d="M161.328 256.385V258.882L169.48 263.597V261.1L161.328 256.385Z" fill="#565C82"/>
<path d="M161.328 259.337V261.834L169.48 266.529V264.033L161.328 259.337Z" fill="#565C82"/>
<path d="M161.328 262.269V264.765L169.48 269.48V266.984L161.328 262.269Z" fill="#565C82"/>
<path opacity="0.3" d="M161.766 268.53V279.881L169.047 284.081V272.729L161.766 268.53Z" fill="#0A0A0A"/>
<path d="M162.086 269.124V269.5L168.754 273.363V272.987L162.086 269.124Z" fill="#0A0A0A"/>
<path d="M162.086 270.392V270.748L168.754 274.611V274.255L162.086 270.392Z" fill="#0A0A0A"/>
<path d="M162.086 271.64V272.016L168.754 275.86V275.503L162.086 271.64Z" fill="#0A0A0A"/>
<path d="M162.086 272.908V273.284L168.754 277.127V276.771L162.086 272.908Z" fill="#0A0A0A"/>
<path d="M162.086 274.176V274.532L168.754 278.375V278.019L162.086 274.176Z" fill="#0A0A0A"/>
<path d="M162.086 275.424V275.78L168.754 279.643V279.287L162.086 275.424Z" fill="#0A0A0A"/>
<path d="M162.086 276.692V277.048L168.754 280.892V280.535L162.086 276.692Z" fill="#0A0A0A"/>
<path d="M162.086 277.94V278.296L168.754 282.159V281.803L162.086 277.94Z" fill="#0A0A0A"/>
<path d="M162.086 279.188V279.564L168.754 283.427V283.051L162.086 279.188Z" fill="#0A0A0A"/>
<path d="M161.055 265.637V267.242L166.278 270.253V268.668L161.055 265.637Z" fill="#0A0A0A"/>
<path d="M168.254 269.976L167.938 270.154V270.689L168.254 271.224L168.709 271.481L169.026 271.303V270.788L168.709 270.233L168.254 269.976Z" fill="#97A5DF"/>
<path d="M167.31 269.718L167.072 269.58L166.914 269.679V269.956L167.072 270.253L167.31 270.372L167.488 270.273V270.015L167.31 269.718Z" fill="#B8C9FF"/>
<path d="M119.03 186.612H121.859L188.658 225.124V226.768L160.304 243.152H157.495L90.6953 204.62V202.995L119.03 186.612Z" fill="#6D7293"/>
<path d="M160.302 243.152H157.492V244.321H160.302V243.152Z" fill="#414873"/>
<path d="M90.6953 205.789L157.495 244.321V243.152L90.6953 204.62V205.789Z" fill="#585E84"/>
<path d="M160.305 244.321L188.659 227.937V226.768L160.305 243.152V244.321Z" fill="#231F20"/>
<path d="M138.397 198.3L136.735 199.251L133.945 197.646L135.607 196.696L138.397 198.3Z" fill="#CBD7F8"/>
<path d="M139.762 202.758L136.734 204.501V199.251L138.396 198.3L139.762 202.758Z" fill="#0A0808"/>
<path d="M136.735 199.251L133.945 197.646V202.896L136.735 204.501V199.251Z" fill="#DEDFE6"/>
<path d="M137.532 202.698L136.84 203.094L132.625 200.658L133.298 200.261L137.532 202.698Z" fill="#F9FBFE"/>
<path d="M137.527 204.957L136.834 205.353L136.359 204.026L136.834 203.094L137.527 202.698V204.957Z" fill="#363E6B"/>
<path d="M136.84 203.094L132.625 200.658V202.916L136.84 205.353V203.094Z" fill="#CFDAF9"/>
<path d="M137.532 192.614L136.84 193.011L132.625 190.554L133.298 190.158L137.532 192.614Z" fill="#CBD7F8"/>
<path d="M137.528 202.698L136.836 203.094V193.011L137.528 192.615V202.698Z" fill="#0A0808"/>
<path d="M136.84 193.011L132.625 190.554V200.658L136.84 203.094V193.011Z" fill="#2E3665"/>
<path d="M132.859 190.97V200.519L136.599 202.678V193.149L132.859 190.97Z" fill="#DCE4FB"/>
<path opacity="0.3" d="M170.041 218.527L165.787 220.984L138.125 204.996L142.379 202.52L170.041 218.527Z" fill="black"/>
<path d="M158.087 217.437L157.672 216.407L164.241 213.198V213.852L158.087 217.437Z" fill="#363E6B"/>
<path d="M158.086 217.437L143.562 209.038V208.364L151.616 211.177L158.086 216.764V217.437Z" fill="#CFDAF9"/>
<path d="M158.086 216.764L143.562 208.364L149.736 204.798L164.239 213.198L158.086 216.764Z" fill="#D7E0FA"/>
<path d="M160.165 211.89L159.433 212.326L149.203 201.648L149.955 201.212L158.087 205.927L160.165 211.89Z" fill="#363E6B"/>
<path d="M159.433 212.326L151.281 207.611L149.203 201.648L157.355 206.343L159.433 212.326Z" fill="#CAD6F8"/>
<path opacity="0.3" d="M158.918 216.269V216.962L164.24 213.852V213.198L149.737 204.798L144.414 207.889L158.918 216.269Z" fill="black"/>
<path d="M166.994 210.107L165.787 210.821L138.125 194.813L139.332 194.12L166.994 210.107Z" fill="#F9FBFE"/>
<path d="M166.991 214.089L165.784 214.803L164.953 212.445L165.784 210.821L166.991 210.107V214.089Z" fill="#363E6B"/>
<path d="M165.787 210.821L138.125 194.813V198.815L165.787 214.803V210.821Z" fill="#CFDAF9"/>
<path d="M166.994 192.278L165.787 192.971L138.125 176.984L139.332 176.291L166.994 192.278Z" fill="#CBD7F8"/>
<path d="M166.988 210.108L165.781 210.821V192.971L166.988 192.278V210.108Z" fill="#0A0808"/>
<path d="M165.787 192.971L138.125 176.984V194.814L165.787 210.821V192.971Z" fill="#2E3665"/>
<path d="M165.37 209.83V210.088L138.539 194.576V177.717L138.757 177.836V194.457L165.37 209.83Z" fill="#0A0808"/>
<path d="M165.371 193.209V209.83L138.758 194.457V177.836L165.371 193.209Z" fill="#B0B7D2"/>
<path d="M144.075 189.167L140.375 187.028V180.708L144.075 182.848V189.167Z" fill="white"/>
<path d="M144.075 190.97L140.375 188.831V187.86L144.075 189.999V190.97Z" fill="white"/>
<path d="M144.075 192.476L140.375 190.336V189.385L144.075 191.525V192.476Z" fill="white"/>
<path d="M154.19 200.361L145.484 195.329V183.66L154.19 188.692V200.361Z" fill="white"/>
<path d="M151.044 194.08L150.806 193.942V193.169L151.617 192.694V189.742L150.549 187.919L149.065 187.048L148.016 187.662V190.614L148.808 192.02V192.793L148.531 192.614L146.75 192.713V193.942L147.838 195.824L151.796 198.122L152.824 197.528V196.24L151.044 194.08Z" fill="url(#paint1_linear_1011_8535)"/>
<path d="M162.877 205.293L155.18 200.836V189.306L162.877 193.764V205.293ZM155.437 200.697L162.619 204.838V193.902L155.437 189.742V200.697Z" fill="white"/>
<path d="M155.969 190.812V191.327L162.083 194.873V194.338L155.969 190.812Z" fill="white"/>
<path d="M155.969 192.436L162.083 195.982V195.447L155.969 191.921V192.436Z" fill="white"/>
<path d="M155.969 193.546L159.708 195.705V195.19L155.969 193.031V193.546Z" fill="white"/>
<path d="M155.969 194.655L162.083 198.201V197.686L155.969 194.14V194.655Z" fill="white"/>
<path d="M155.969 195.764L160.816 198.577V198.043L155.969 195.249V195.764Z" fill="white"/>
<path d="M155.969 196.874L162.083 200.42V199.905L155.969 196.359V196.874Z" fill="white"/>
<path d="M155.969 198.003L162.083 201.529V201.014L155.969 197.468V198.003Z" fill="white"/>
<path d="M155.969 199.113L160.995 202.005V201.49L155.969 198.578V199.113Z" fill="white"/>
<path d="M155.969 200.222L158.739 201.807V201.292L155.969 199.707V200.222Z" fill="white"/>
<path d="M170.733 217.002L169.071 217.953L166.281 216.348L167.943 215.377L170.733 217.002Z" fill="#CBD7F8"/>
<path d="M172.098 221.459L169.07 223.202V217.953L170.732 217.002L172.098 221.459Z" fill="#0A0808"/>
<path d="M169.071 217.953L166.281 216.348V221.578L169.071 223.202V217.953Z" fill="#DEDFE6"/>
<path d="M169.86 221.38L169.168 221.796L164.953 219.339L165.646 218.963L169.86 221.38Z" fill="#F9FBFE"/>
<path d="M169.863 223.638L169.17 224.054L168.695 222.727L169.17 221.796L169.863 221.38V223.638Z" fill="#363E6B"/>
<path d="M169.168 221.796L164.953 219.339V221.598L169.168 224.054V221.796Z" fill="#CFDAF9"/>
<path d="M169.86 211.296L169.168 211.692L164.953 209.256L165.646 208.859L169.86 211.296Z" fill="#CBD7F8"/>
<path d="M169.857 221.38L169.164 221.796V211.692L169.857 211.296V221.38Z" fill="#0A0808"/>
<path d="M169.168 211.692L164.953 209.256V219.339L169.168 221.796V211.692Z" fill="#2E3665"/>
<path d="M165.188 209.672V219.201L168.927 221.38V211.831L165.188 209.672Z" fill="#DCE4FB"/>
<path opacity="0.3" d="M143.784 226.768L120.594 213.356L129.28 208.344L152.47 221.756L143.784 226.768Z" fill="black"/>
<path d="M143.763 226.669L143.031 225.263L152.37 221.103V221.697L143.763 226.669Z" fill="#0A0808"/>
<path d="M143.758 226.669L120.766 213.376V212.802L122.527 213.218L142.293 224.668L143.758 226.075V226.669Z" fill="#362C29"/>
<path d="M143.758 226.075L120.766 212.802L129.393 207.809L152.365 221.102L143.758 226.075Z" fill="#574943"/>
<path d="M147.836 219.696L146.906 219.161L147.302 218.943L148.212 219.458L147.836 219.696Z" fill="#0A0808"/>
<path d="M148.848 220.27L147.938 219.755L148.313 219.537L149.243 220.052L148.848 220.27Z" fill="#0A0808"/>
<path d="M149.875 220.865L148.945 220.33L149.341 220.112L150.251 220.647L149.875 220.865Z" fill="#0A0808"/>
<path d="M147.776 219.498L147.242 219.181L147.361 219.121L147.895 219.438L147.776 219.498Z" fill="#DDE65C"/>
<path d="M148.804 220.092L148.25 219.775L148.369 219.716L148.923 220.033L148.804 220.092Z" fill="#DDE65C"/>
<path d="M149.815 220.686L149.281 220.369L149.38 220.31L149.934 220.627L149.815 220.686Z" fill="#DDE65C"/>
<path d="M130.566 209.275V208.998L128.766 208.384V208.661L130.19 209.493L130.566 209.275Z" fill="#403531"/>
<path d="M130.566 208.998L129.142 208.166L128.766 208.384L130.19 209.216L130.566 208.998Z" fill="#836E69"/>
<path d="M131.199 210.088L131.595 209.85V209.573L130.289 209.275V209.553L131.199 210.088Z" fill="#403531"/>
<path d="M131.199 209.81L131.595 209.573L130.665 209.038L130.289 209.275L131.199 209.81Z" fill="#836E69"/>
<path d="M132.227 210.662L132.623 210.444V210.167L131.297 209.85V210.147L132.227 210.662Z" fill="#403531"/>
<path d="M132.227 210.385L132.623 210.167L131.693 209.632L131.297 209.85L132.227 210.385Z" fill="#836E69"/>
<path d="M133.238 211.257L133.634 211.039V210.761L132.328 210.444V210.722L133.238 211.257Z" fill="#403531"/>
<path d="M133.238 210.979L133.634 210.761L132.724 210.226L132.328 210.444L133.238 210.979Z" fill="#836E69"/>
<path d="M134.262 211.851L134.657 211.633V211.356L133.352 211.039V211.316L134.262 211.851Z" fill="#403531"/>
<path d="M134.262 211.573L134.657 211.355L133.728 210.821L133.352 211.038L134.262 211.573Z" fill="#836E69"/>
<path d="M135.289 212.445L135.665 212.207V211.95L134.359 211.633V211.91L135.289 212.445Z" fill="#403531"/>
<path d="M135.289 212.168L135.665 211.95L134.755 211.415L134.359 211.633L135.289 212.168Z" fill="#836E69"/>
<path d="M136.301 213.04L136.697 212.802V212.524L135.391 212.227V212.505L136.301 213.04Z" fill="#403531"/>
<path d="M136.301 212.762L136.697 212.524L135.786 211.99L135.391 212.227L136.301 212.762Z" fill="#836E69"/>
<path d="M137.332 213.614L137.728 213.396V213.119L136.422 212.822V213.099L137.332 213.614Z" fill="#403531"/>
<path d="M137.332 213.337L137.728 213.119L136.798 212.584L136.422 212.821L137.332 213.337Z" fill="#836E69"/>
<path d="M138.36 214.208L138.736 213.99V213.713L137.43 213.396V213.673L138.36 214.208Z" fill="#403531"/>
<path d="M138.36 213.931L138.736 213.713L137.825 213.178L137.43 213.396L138.36 213.931Z" fill="#836E69"/>
<path d="M139.371 214.802L139.767 214.585V214.307L138.461 213.99V214.268L139.371 214.802Z" fill="#403531"/>
<path d="M139.371 214.525L139.767 214.307L138.837 213.772L138.461 213.99L139.371 214.525Z" fill="#836E69"/>
<path d="M140.399 215.397L140.775 215.179V214.882L139.469 214.585V214.862L140.399 215.397Z" fill="#403531"/>
<path d="M140.399 215.12L140.775 214.882L139.864 214.367L139.469 214.585L140.399 215.12Z" fill="#836E69"/>
<path d="M141.41 215.971L141.806 215.753V215.476L140.5 215.179V215.456L141.41 215.971Z" fill="#403531"/>
<path d="M141.41 215.694L141.806 215.476L140.896 214.961L140.5 215.179L141.41 215.694Z" fill="#836E69"/>
<path d="M142.434 216.585L142.81 216.348V216.07L141.523 215.753V216.051L142.434 216.585Z" fill="#403531"/>
<path d="M142.434 216.288L142.81 216.071L141.899 215.536L141.523 215.754L142.434 216.288Z" fill="#836E69"/>
<path d="M143.441 217.16L143.837 216.942V216.665L142.531 216.368V216.645L143.441 217.16Z" fill="#403531"/>
<path d="M143.441 216.883L143.837 216.665L142.927 216.13L142.531 216.368L143.441 216.883Z" fill="#836E69"/>
<path d="M129.475 209.89V209.632L127.141 209.335V209.612L128.565 210.425L129.475 209.89Z" fill="#403531"/>
<path d="M129.475 209.632L128.051 208.8L127.141 209.335L128.565 210.147L129.475 209.632Z" fill="#836E69"/>
<path d="M130.01 210.206L129.574 209.969L129.139 210.206H128.664V210.484L129.574 211.019L130.504 210.484V210.206H130.01Z" fill="#403531"/>
<path d="M129.574 209.672L128.664 210.207L129.574 210.741L130.504 210.207L129.574 209.672Z" fill="#836E69"/>
<path d="M131.041 210.801L130.605 210.543L130.17 210.801H129.695V211.078L130.605 211.613L131.516 211.078V210.801H131.041Z" fill="#403531"/>
<path d="M130.605 210.266L129.695 210.801L130.605 211.336L131.516 210.801L130.605 210.266Z" fill="#836E69"/>
<path d="M132.068 211.395L131.633 211.138L131.198 211.395H130.703V211.673L131.633 212.207L132.543 211.673V211.395H132.068Z" fill="#403531"/>
<path d="M131.633 210.86L130.703 211.395L131.633 211.91L132.543 211.395L131.633 210.86Z" fill="#836E69"/>
<path d="M133.08 211.97L132.645 211.732L132.209 211.97H131.734V212.267L132.645 212.782L133.575 212.267V211.97H133.08Z" fill="#403531"/>
<path d="M132.645 211.455L131.734 211.97L132.645 212.505L133.575 211.97L132.645 211.455Z" fill="#836E69"/>
<path d="M134.107 212.564L133.672 212.326L133.237 212.564H132.742V212.841L133.672 213.376L134.582 212.841V212.564H134.107Z" fill="#403531"/>
<path d="M133.672 212.049L132.742 212.564L133.672 213.099L134.582 212.564L133.672 212.049Z" fill="#836E69"/>
<path d="M135.131 213.158L134.676 212.921L134.24 213.158H133.766V213.436L134.676 213.971L135.606 213.436V213.158H135.131Z" fill="#403531"/>
<path d="M134.676 212.624L133.766 213.158L134.676 213.693L135.606 213.158L134.676 212.624Z" fill="#836E69"/>
<path d="M136.142 213.753L135.707 213.495L135.272 213.753H134.797V214.03L135.707 214.545L136.617 214.03V213.753H136.142Z" fill="#403531"/>
<path d="M135.707 213.218L134.797 213.753L135.707 214.288L136.617 213.753L135.707 213.218Z" fill="#836E69"/>
<path d="M137.17 214.347L136.715 214.089L136.28 214.347H135.805V214.624L136.715 215.139L137.645 214.624V214.347H137.17Z" fill="#403531"/>
<path d="M136.715 213.812L135.805 214.347L136.715 214.862L137.645 214.347L136.715 213.812Z" fill="#836E69"/>
<path d="M138.181 214.922L137.746 214.684L137.311 214.922H136.836V215.199L137.746 215.734L138.676 215.199V214.922H138.181Z" fill="#403531"/>
<path d="M137.746 214.406L136.836 214.922L137.746 215.456L138.676 214.922L137.746 214.406Z" fill="#836E69"/>
<path d="M139.213 215.516L138.777 215.278L138.342 215.516H137.867V215.793L138.777 216.328L139.688 215.793V215.516H139.213Z" fill="#403531"/>
<path d="M138.777 214.981L137.867 215.516L138.777 216.051L139.688 215.516L138.777 214.981Z" fill="#836E69"/>
<path d="M140.24 216.11L139.785 215.853L139.35 216.11H138.875V216.387L139.785 216.922L140.715 216.387V216.11H140.24Z" fill="#403531"/>
<path d="M139.785 215.575L138.875 216.11L139.785 216.645L140.715 216.11L139.785 215.575Z" fill="#836E69"/>
<path d="M141.252 216.705L140.816 216.447L140.381 216.705H139.906V216.982L140.816 217.517L141.727 216.982V216.705H141.252Z" fill="#403531"/>
<path d="M140.816 216.17L139.906 216.705L140.816 217.239L141.727 216.705L140.816 216.17Z" fill="#836E69"/>
<path d="M142.279 217.299L141.844 217.041L141.389 217.299H140.914V217.576L141.844 218.091L142.754 217.576V217.299H142.279Z" fill="#403531"/>
<path d="M141.844 216.764L140.914 217.299L141.844 217.834L142.754 217.299L141.844 216.764Z" fill="#836E69"/>
<path d="M127.514 209.89L127.078 209.632L126.643 209.89H126.148V210.167L127.078 210.702L127.989 210.167V209.89H127.514Z" fill="#403531"/>
<path d="M127.078 209.355L126.148 209.89L127.078 210.425L127.989 209.89L127.078 209.355Z" fill="#836E69"/>
<path d="M128.545 210.484L128.09 210.226L127.655 210.484H127.18V210.761L128.09 211.296L129.02 210.761V210.484H128.545Z" fill="#403531"/>
<path d="M128.09 209.949L127.18 210.484L128.09 211.019L129.02 210.484L128.09 209.949Z" fill="#836E69"/>
<path d="M129.556 211.078L129.121 210.821L128.686 211.078H128.211V211.355L129.121 211.871L130.031 211.355V211.078H129.556Z" fill="#403531"/>
<path d="M129.121 210.543L128.211 211.078L129.121 211.593L130.031 211.078L129.121 210.543Z" fill="#836E69"/>
<path d="M130.584 211.653L130.129 211.415L129.713 211.653H129.219V211.95L130.129 212.465L131.059 211.95V211.653H130.584Z" fill="#403531"/>
<path d="M130.129 211.138L129.219 211.653L130.129 212.188L131.059 211.653L130.129 211.138Z" fill="#836E69"/>
<path d="M131.595 212.247L131.16 211.99L130.725 212.247H130.25V212.524L131.16 213.059L132.09 212.524V212.247H131.595Z" fill="#403531"/>
<path d="M131.16 211.732L130.25 212.247L131.16 212.782L132.09 212.247L131.16 211.732Z" fill="#836E69"/>
<path d="M132.623 212.841L132.188 212.584L131.752 212.841H131.258V213.119L132.188 213.654L133.098 213.119V212.841H132.623Z" fill="#403531"/>
<path d="M132.188 212.306L131.258 212.841L132.188 213.376L133.098 212.841L132.188 212.306Z" fill="#836E69"/>
<path d="M133.647 213.436L133.191 213.178L132.756 213.436H132.281V213.713L133.191 214.248L134.121 213.713V213.436H133.647Z" fill="#403531"/>
<path d="M133.191 212.901L132.281 213.436L133.191 213.971L134.121 213.436L133.191 212.901Z" fill="#836E69"/>
<path d="M134.658 214.03L134.223 213.772L133.787 214.03H133.312V214.307L134.223 214.822L135.153 214.307V214.03H134.658Z" fill="#403531"/>
<path d="M134.223 213.495L133.312 214.03L134.223 214.545L135.153 214.03L134.223 213.495Z" fill="#836E69"/>
<path d="M135.686 214.624L135.25 214.367L134.795 214.624H134.32V214.882L135.25 215.417L136.16 214.882V214.624H135.686Z" fill="#403531"/>
<path d="M135.25 214.089L134.32 214.624L135.25 215.139L136.16 214.624L135.25 214.089Z" fill="#836E69"/>
<path d="M136.697 215.199L136.262 214.961L135.826 215.199H135.352V215.476L136.262 216.011L137.192 215.476V215.199H136.697Z" fill="#403531"/>
<path d="M136.262 214.684L135.352 215.199L136.262 215.734L137.192 215.199L136.262 214.684Z" fill="#836E69"/>
<path d="M137.728 215.793L137.293 215.536L136.858 215.793H136.383V216.071L137.293 216.605L138.203 216.071V215.793H137.728Z" fill="#403531"/>
<path d="M137.293 215.258L136.383 215.793L137.293 216.328L138.203 215.793L137.293 215.258Z" fill="#836E69"/>
<path d="M138.736 216.387L138.301 216.13L137.865 216.387H137.391V216.665L138.301 217.2L139.231 216.665V216.387H138.736Z" fill="#403531"/>
<path d="M138.301 215.853L137.391 216.387L138.301 216.903L139.231 216.387L138.301 215.853Z" fill="#836E69"/>
<path d="M139.767 216.982L139.332 216.724L138.897 216.982H138.422V217.259L139.332 217.774L140.242 217.259V216.982H139.767Z" fill="#403531"/>
<path d="M139.332 216.447L138.422 216.982L139.332 217.497L140.242 216.982L139.332 216.447Z" fill="#836E69"/>
<path d="M141.784 218.131V217.854L139.43 217.556V217.834L140.854 218.666L141.784 218.131Z" fill="#403531"/>
<path d="M141.784 217.854L140.36 217.041L139.43 217.556L140.854 218.388L141.784 217.854Z" fill="#836E69"/>
<path d="M127.479 211.039V210.761L125.164 210.484V210.761L126.569 211.573L127.479 211.039Z" fill="#403531"/>
<path d="M127.479 210.761L126.094 209.969L125.164 210.484L126.569 211.276L127.479 210.761Z" fill="#836E69"/>
<path d="M128.029 211.355L127.574 211.098L127.139 211.355H126.664V211.633L127.574 212.148L128.504 211.633V211.355H128.029Z" fill="#403531"/>
<path d="M127.574 210.821L126.664 211.355L127.574 211.871L128.504 211.355L127.574 210.821Z" fill="#836E69"/>
<path d="M129.041 211.95L128.605 211.673L128.17 211.95H127.695V212.207L128.605 212.742L129.516 212.207V211.95H129.041Z" fill="#403531"/>
<path d="M128.605 211.395L127.695 211.95L128.605 212.465L129.516 211.95L128.605 211.395Z" fill="#836E69"/>
<path d="M130.068 212.524L129.613 212.267L129.178 212.524H128.703V212.802L129.613 213.337L130.543 212.802V212.524H130.068Z" fill="#403531"/>
<path d="M129.613 211.99L128.703 212.524L129.613 213.059L130.543 212.524L129.613 211.99Z" fill="#836E69"/>
<path d="M131.08 213.119L130.645 212.861L130.209 213.119H129.734V213.396L130.645 213.931L131.555 213.396V213.119H131.08Z" fill="#403531"/>
<path d="M130.645 212.584L129.734 213.119L130.645 213.654L131.555 213.119L130.645 212.584Z" fill="#836E69"/>
<path d="M132.107 213.713L131.672 213.456L131.237 213.713H130.742V213.99L131.672 214.506L132.582 213.99V213.713H132.107Z" fill="#403531"/>
<path d="M131.672 213.178L130.742 213.713L131.672 214.248L132.582 213.713L131.672 213.178Z" fill="#836E69"/>
<path d="M133.139 214.307L132.703 214.05L132.248 214.307H131.773V214.585L132.703 215.1L133.614 214.585V214.307H133.139Z" fill="#403531"/>
<path d="M132.703 213.772L131.773 214.307L132.703 214.822L133.614 214.307L132.703 213.772Z" fill="#836E69"/>
<path d="M134.142 214.882L133.707 214.644L133.272 214.882H132.797V215.159L133.707 215.694L134.617 215.159V214.882H134.142Z" fill="#403531"/>
<path d="M133.707 214.367L132.797 214.882L133.707 215.417L134.617 214.882L133.707 214.367Z" fill="#836E69"/>
<path d="M135.178 215.476L134.742 215.219L134.287 215.476H133.812V215.754L134.742 216.289L135.653 215.754V215.476H135.178Z" fill="#403531"/>
<path d="M134.742 214.961L133.812 215.476L134.742 216.011L135.653 215.476L134.742 214.961Z" fill="#836E69"/>
<path d="M136.181 216.071L135.746 215.813L135.311 216.071H134.836V216.348L135.746 216.883L136.656 216.348V216.071H136.181Z" fill="#403531"/>
<path d="M135.746 215.536L134.836 216.071L135.746 216.605L136.656 216.071L135.746 215.536Z" fill="#836E69"/>
<path d="M137.209 216.665L136.774 216.407L136.338 216.665H135.844V216.942L136.774 217.457L137.684 216.942V216.665H137.209Z" fill="#403531"/>
<path d="M136.774 216.13L135.844 216.665L136.774 217.2L137.684 216.665L136.774 216.13Z" fill="#836E69"/>
<path d="M138.24 217.259L137.805 217.002L137.35 217.259H136.875V217.517L137.805 218.052L138.695 217.517V217.259H138.24Z" fill="#403531"/>
<path d="M137.805 216.724L136.875 217.259L137.805 217.774L138.695 217.259L137.805 216.724Z" fill="#836E69"/>
<path d="M139.252 217.834L138.816 217.596L138.381 217.834H137.906V218.111L138.816 218.646L139.727 218.111V217.834H139.252Z" fill="#403531"/>
<path d="M138.816 217.319L137.906 217.834L138.816 218.369L139.727 217.834L138.816 217.319Z" fill="#836E69"/>
<path d="M126.768 211.772V211.494L124.195 211.058V211.336L125.857 212.306L126.768 211.772Z" fill="#403531"/>
<path d="M126.768 211.494L125.105 210.523L124.195 211.058L125.857 212.029L126.768 211.494Z" fill="#836E69"/>
<path d="M127.299 212.089L126.863 211.831L126.428 212.089H125.953V212.366L126.863 212.881L127.793 212.366V212.089H127.299Z" fill="#403531"/>
<path d="M126.863 211.554L125.953 212.089L126.863 212.623L127.793 212.089L126.863 211.554Z" fill="#836E69"/>
<path d="M128.326 212.663L127.891 212.425L127.456 212.663H126.961V212.94L127.891 213.475L128.801 212.94V212.663H128.326Z" fill="#403531"/>
<path d="M127.891 212.128L126.961 212.663L127.891 213.198L128.801 212.663L127.891 212.128Z" fill="#836E69"/>
<path d="M129.357 213.257L128.902 213L128.467 213.257H127.992V213.535L128.902 214.07L129.832 213.535V213.257H129.357Z" fill="#403531"/>
<path d="M128.902 212.742L127.992 213.257L128.902 213.792L129.832 213.257L128.902 212.742Z" fill="#836E69"/>
<path d="M130.369 213.852L129.934 213.594L129.498 213.852H129.023V214.129L129.934 214.664L130.864 214.129V213.852H130.369Z" fill="#403531"/>
<path d="M129.934 213.317L129.023 213.852L129.934 214.367L130.864 213.852L129.934 213.317Z" fill="#836E69"/>
<path d="M131.397 214.446L130.961 214.188L130.526 214.446H130.031V214.723L130.961 215.258L131.871 214.723V214.446H131.397Z" fill="#403531"/>
<path d="M130.961 213.911L130.031 214.446L130.961 214.981L131.871 214.446L130.961 213.911Z" fill="#836E69"/>
<path d="M132.4 215.04L131.965 214.783L131.53 215.04H131.055V215.298L131.965 215.833L132.895 215.298V215.04H132.4Z" fill="#403531"/>
<path d="M131.965 214.505L131.055 215.04L131.965 215.555L132.895 215.04L131.965 214.505Z" fill="#836E69"/>
<path d="M133.431 215.615L132.996 215.357L132.561 215.615H132.086V215.892L132.996 216.427L133.906 215.892V215.615H133.431Z" fill="#403531"/>
<path d="M132.996 215.1L132.086 215.615L132.996 216.15L133.906 215.615L132.996 215.1Z" fill="#836E69"/>
<path d="M134.459 216.209L134.024 215.952L133.569 216.209H133.094V216.487L134.024 217.021L134.934 216.487V216.209H134.459Z" fill="#403531"/>
<path d="M134.024 215.674L133.094 216.209L134.024 216.744L134.934 216.209L134.024 215.674Z" fill="#836E69"/>
<path d="M135.47 216.803L135.035 216.546L134.6 216.803H134.125V217.081L135.035 217.616L135.945 217.081V216.803H135.47Z" fill="#403531"/>
<path d="M135.035 216.269L134.125 216.803L135.035 217.338L135.945 216.803L135.035 216.269Z" fill="#836E69"/>
<path d="M136.502 217.398L136.066 217.14L135.631 217.398H135.156V217.675L136.066 218.21L136.977 217.675V217.398H136.502Z" fill="#403531"/>
<path d="M136.066 216.863L135.156 217.398L136.066 217.913L136.977 217.398L136.066 216.863Z" fill="#836E69"/>
<path d="M137.51 217.992L137.094 217.735L136.639 217.992H136.164V218.25L137.094 218.785L138.004 218.25V217.992H137.51Z" fill="#403531"/>
<path d="M137.094 217.457L136.164 217.992L137.094 218.507L138.004 217.992L137.094 217.457Z" fill="#836E69"/>
<path d="M140.757 218.705V218.428L138.838 218.745L137.195 218.567V218.844L138.838 219.815L140.757 218.705Z" fill="#403531"/>
<path d="M140.757 218.428L139.847 217.893L138.838 218.468L138.105 218.052L137.195 218.567L138.838 219.537L140.757 218.428Z" fill="#836E69"/>
<path d="M125.261 212.049V211.771L123.203 211.633V211.91L124.351 212.564L125.261 212.049Z" fill="#403531"/>
<path d="M125.261 211.771L124.113 211.098L123.203 211.633L124.351 212.287L125.261 211.771Z" fill="#836E69"/>
<path d="M125.818 212.346L125.383 212.108L124.948 212.346H124.453V212.623L125.383 213.158L126.293 212.623V212.346H125.818Z" fill="#403531"/>
<path d="M125.383 211.831L124.453 212.346L125.383 212.881L126.293 212.346L125.383 211.831Z" fill="#836E69"/>
<path d="M126.822 212.94L126.387 212.683L125.951 212.94H125.477V213.218L126.387 213.753L127.317 213.218V212.94H126.822Z" fill="#403531"/>
<path d="M126.387 212.406L125.477 212.94L126.387 213.475L127.317 212.94L126.387 212.406Z" fill="#836E69"/>
<path d="M127.853 213.535L127.418 213.277L126.983 213.535H126.508V213.812L127.418 214.347L128.328 213.812V213.535H127.853Z" fill="#403531"/>
<path d="M127.418 213L126.508 213.535L127.418 214.07L128.328 213.535L127.418 213Z" fill="#836E69"/>
<path d="M128.881 214.129L128.426 213.872L128.01 214.129H127.516V214.406L128.426 214.922L129.356 214.406V214.129H128.881Z" fill="#403531"/>
<path d="M128.426 213.594L127.516 214.129L128.426 214.664L129.356 214.129L128.426 213.594Z" fill="#836E69"/>
<path d="M129.892 214.723L129.457 214.466L129.022 214.723H128.547V214.981L129.457 215.516L130.387 214.981V214.723H129.892Z" fill="#403531"/>
<path d="M129.457 214.188L128.547 214.723L129.457 215.238L130.387 214.723L129.457 214.188Z" fill="#836E69"/>
<path d="M130.92 215.298L130.485 215.06L130.049 215.298H129.555V215.575L130.485 216.11L131.395 215.575V215.298H130.92Z" fill="#403531"/>
<path d="M130.485 214.763L129.555 215.298L130.485 215.833L131.395 215.298L130.485 214.763Z" fill="#836E69"/>
<path d="M131.931 215.892L131.496 215.635L131.061 215.892H130.586V216.17L131.496 216.705L132.426 216.17V215.892H131.931Z" fill="#403531"/>
<path d="M131.496 215.357L130.586 215.892L131.496 216.427L132.426 215.892L131.496 215.357Z" fill="#836E69"/>
<path d="M132.955 216.487L132.52 216.229L132.084 216.487H131.609V216.764L132.52 217.299L133.43 216.764V216.487H132.955Z" fill="#403531"/>
<path d="M132.52 215.952L131.609 216.487L132.52 217.021L133.43 216.487L132.52 215.952Z" fill="#836E69"/>
<path d="M133.99 217.081L133.555 216.823L133.1 217.081H132.625V217.358L133.555 217.893L134.465 217.358V217.081H133.99Z" fill="#403531"/>
<path d="M133.555 216.546L132.625 217.081L133.555 217.616L134.465 217.081L133.555 216.546Z" fill="#836E69"/>
<path d="M135.014 217.675L134.578 217.418L134.123 217.675H133.648V217.953L134.578 218.487L135.489 217.953V217.675H135.014Z" fill="#403531"/>
<path d="M134.578 217.14L133.648 217.675L134.578 218.19L135.489 217.675L134.578 217.14Z" fill="#836E69"/>
<path d="M136.025 218.25L135.59 218.012L135.155 218.25H134.68V218.527L135.59 219.062L136.5 218.527V218.25H136.025Z" fill="#403531"/>
<path d="M135.59 217.735L134.68 218.25L135.59 218.785L136.5 218.25L135.59 217.735Z" fill="#836E69"/>
<path d="M138.774 219.854V219.577L135.688 218.844V219.121L137.864 220.369L138.774 219.854Z" fill="#403531"/>
<path d="M138.774 219.577L136.598 218.309L135.688 218.844L137.864 220.092L138.774 219.577Z" fill="#836E69"/>
<path d="M122.211 212.208V212.465L123.636 213.297L124.566 212.762V212.485L122.211 212.208Z" fill="#403531"/>
<path d="M123.121 211.673L122.211 212.208L123.636 213.02L124.566 212.485L123.121 211.673Z" fill="#836E69"/>
<path d="M123.734 213.079V213.356L124.902 214.03L125.812 213.495V213.218L123.734 213.079Z" fill="#403531"/>
<path d="M124.664 212.544L123.734 213.079L124.902 213.753L125.812 213.218L124.664 212.544Z" fill="#836E69"/>
<path d="M125 213.812V214.089L126.425 214.921L127.355 214.367V214.109L125 213.812Z" fill="#403531"/>
<path d="M125.93 213.277L125 213.812L126.425 214.644L127.355 214.109L125.93 213.277Z" fill="#836E69"/>
<path d="M126.547 214.684V214.981L132.562 218.448L133.472 217.913V217.655L126.547 214.684Z" fill="#403531"/>
<path d="M127.457 214.169L126.547 214.684L132.562 218.17L133.472 217.655L127.457 214.169Z" fill="#836E69"/>
<path d="M132.664 218.23V218.507L134.01 219.28L134.92 218.765V218.488L132.664 218.23Z" fill="#403531"/>
<path d="M133.594 217.715L132.664 218.23L134.01 219.003L134.92 218.487L133.594 217.715Z" fill="#836E69"/>
<path d="M134.109 219.062V219.339L135.297 220.033L136.207 219.498V219.22L134.109 219.062Z" fill="#403531"/>
<path d="M135.039 218.547L134.109 219.062L135.297 219.755L136.207 219.22L135.039 218.547Z" fill="#836E69"/>
<path d="M135.391 219.815V220.072L136.875 220.944L137.805 220.429V220.151L135.391 219.815Z" fill="#403531"/>
<path d="M136.301 219.28L135.391 219.815L136.875 220.667L137.805 220.151L136.301 219.28Z" fill="#836E69"/>
<path d="M143.408 217.953L142.973 217.695L142.537 217.953H142.062V218.23L142.973 218.765L143.883 218.23V217.953H143.408Z" fill="#403531"/>
<path d="M142.973 217.418L142.062 217.953L142.973 218.487L143.883 217.953L142.973 217.418Z" fill="#836E69"/>
<path d="M142.436 218.507L142 218.25L141.545 218.507H141.07V218.785L142 219.32L142.91 218.785V218.507H142.436Z" fill="#403531"/>
<path d="M142 217.992L141.07 218.507L142 219.042L142.91 218.507L142 217.992Z" fill="#836E69"/>
<path d="M141.428 219.102L140.992 218.844L140.537 219.102H140.062V219.379L140.992 219.894L141.903 219.379V219.102H141.428Z" fill="#403531"/>
<path d="M140.992 218.567L140.062 219.102L140.992 219.617L141.903 219.102L140.992 218.567Z" fill="#836E69"/>
<path d="M144.436 218.547L144 218.289L143.545 218.547H143.07V218.824L144 219.339L144.91 218.824V218.547H144.436Z" fill="#403531"/>
<path d="M144 218.012L143.07 218.547L144 219.062L144.91 218.547L144 218.012Z" fill="#836E69"/>
<path d="M143.447 219.102L143.012 218.844L142.576 219.102H142.102V219.379L143.012 219.914L143.922 219.379V219.102H143.447Z" fill="#403531"/>
<path d="M143.012 218.567L142.102 219.102L143.012 219.636L143.922 219.102L143.012 218.567Z" fill="#836E69"/>
<path d="M142.439 219.676L142.004 219.438L141.569 219.676H141.094V219.953L142.004 220.488L142.934 219.953V219.676H142.439Z" fill="#403531"/>
<path d="M142.004 219.161L141.094 219.676L142.004 220.211L142.934 219.676L142.004 219.161Z" fill="#836E69"/>
<path d="M145.447 219.121L145.012 218.884L144.576 219.121H144.102V219.399L145.012 219.933L145.942 219.399V219.121H145.447Z" fill="#403531"/>
<path d="M145.012 218.606L144.102 219.121L145.012 219.656L145.942 219.121L145.012 218.606Z" fill="#836E69"/>
<path d="M144.475 219.696L144.039 219.438L143.584 219.696H143.109V219.973L144.039 220.508L144.95 219.973V219.696H144.475Z" fill="#403531"/>
<path d="M144.039 219.161L143.109 219.696L144.039 220.211L144.95 219.696L144.039 219.161Z" fill="#836E69"/>
<path d="M143.467 220.27L143.032 220.033L142.596 220.27H142.102V220.548L143.032 221.083L143.942 220.548V220.27H143.467Z" fill="#403531"/>
<path d="M143.032 219.736L142.102 220.271L143.032 220.805L143.942 220.271L143.032 219.736Z" fill="#836E69"/>
<path d="M138.455 220.805L138.02 220.548L137.584 220.805H137.109V221.083L138.02 221.618L138.93 221.083V220.805H138.455Z" fill="#403531"/>
<path d="M138.02 220.271L137.109 220.805L138.02 221.34L138.93 220.805L138.02 220.271Z" fill="#836E69"/>
<path d="M140.455 220.825L140.02 220.587L139.604 220.825H139.109V221.102L140.02 221.637L140.95 221.102V220.825H140.455Z" fill="#403531"/>
<path d="M140.02 220.29L139.109 220.825L140.02 221.36L140.95 220.825L140.02 220.29Z" fill="#836E69"/>
<path d="M139.486 221.4L139.051 221.142L138.615 221.4H138.141V221.677L139.051 222.192L139.961 221.677V221.4H139.486Z" fill="#403531"/>
<path d="M139.051 220.865L138.141 221.4L139.051 221.915L139.961 221.4L139.051 220.865Z" fill="#836E69"/>
<path d="M140.494 221.994L140.059 221.736L139.623 221.994H139.148V222.251L140.059 222.786L140.989 222.251V221.994H140.494Z" fill="#403531"/>
<path d="M140.059 221.459L139.148 221.994L140.059 222.509L140.989 221.994L140.059 221.459Z" fill="#836E69"/>
<path d="M146.647 219.815L146.211 219.577L145.756 219.815H145.281V220.092L146.211 220.627L147.121 220.092V219.815H146.647Z" fill="#403531"/>
<path d="M146.211 219.28L145.281 219.815L146.211 220.35L147.121 219.815L146.211 219.28Z" fill="#836E69"/>
<path d="M145.658 220.389L145.223 220.132L144.787 220.389H144.312V220.667L145.223 221.202L146.153 220.667V220.389H145.658Z" fill="#403531"/>
<path d="M145.223 219.854L144.312 220.389L145.223 220.924L146.153 220.389L145.223 219.854Z" fill="#836E69"/>
<path d="M144.67 220.964L144.215 220.706L143.78 220.964H143.305V221.241L144.215 221.776L145.145 221.241V220.964H144.67Z" fill="#403531"/>
<path d="M144.215 220.449L143.305 220.964L144.215 221.499L145.145 220.964L144.215 220.449Z" fill="#836E69"/>
<path d="M143.662 221.558L143.227 221.301L142.772 221.558H142.297V221.835L143.227 222.351L144.137 221.835V221.558H143.662Z" fill="#403531"/>
<path d="M143.227 221.023L142.297 221.558L143.227 222.073L144.137 221.558L143.227 221.023Z" fill="#836E69"/>
<path d="M142.67 222.133L142.235 221.855L141.78 222.133H141.305V222.39L142.235 222.925L143.145 222.39V222.133H142.67Z" fill="#403531"/>
<path d="M142.235 221.578L141.305 222.133L142.235 222.648L143.145 222.133L142.235 221.578Z" fill="#836E69"/>
<path d="M147.658 220.409L147.223 220.152L146.787 220.409H146.312V220.687L147.223 221.221L148.153 220.687V220.409H147.658Z" fill="#403531"/>
<path d="M147.223 219.874L146.312 220.409L147.223 220.944L148.153 220.409L147.223 219.874Z" fill="#836E69"/>
<path d="M146.689 220.984L146.254 220.726L145.819 220.984H145.344V221.261L146.254 221.776L147.164 221.261V220.984H146.689Z" fill="#403531"/>
<path d="M146.254 220.449L145.344 220.984L146.254 221.519L147.164 220.984L146.254 220.449Z" fill="#836E69"/>
<path d="M145.681 221.558L145.246 221.301L144.811 221.558H144.336V221.835L145.246 222.37L146.156 221.835V221.558H145.681Z" fill="#403531"/>
<path d="M145.246 221.023L144.336 221.558L145.246 222.093L146.156 221.558L145.246 221.023Z" fill="#836E69"/>
<path d="M144.674 222.133L144.238 221.895L143.803 222.133H143.328V222.41L144.238 222.945L145.168 222.41V222.133H144.674Z" fill="#403531"/>
<path d="M144.238 221.617L143.328 222.133L144.238 222.667L145.168 222.133L144.238 221.617Z" fill="#836E69"/>
<path d="M143.681 222.707L143.246 222.45L142.811 222.707H142.336V222.985L143.246 223.52L144.176 222.985V222.707H143.681Z" fill="#403531"/>
<path d="M143.246 222.192L142.336 222.707L143.246 223.242L144.176 222.707L143.246 222.192Z" fill="#836E69"/>
<path d="M142.453 223.123L141.266 222.43L140.712 222.747L140.336 222.687V222.945L142.295 224.074L143.205 223.539V223.262L142.453 223.123Z" fill="#403531"/>
<path d="M141.266 222.152L140.336 222.687L142.295 223.797L143.205 223.262L141.266 222.152Z" fill="#836E69"/>
<path d="M148.689 221.003L148.254 220.746L147.819 221.003H147.344V221.281L148.254 221.796L149.164 221.281V221.003H148.689Z" fill="#403531"/>
<path d="M148.254 220.469L147.344 221.003L148.254 221.538L149.164 221.003L148.254 220.469Z" fill="#836E69"/>
<path d="M147.697 221.578L147.262 221.32L146.826 221.578H146.352V221.835L147.262 222.37L148.192 221.835V221.578H147.697Z" fill="#403531"/>
<path d="M147.262 221.043L146.352 221.578L147.262 222.093L148.192 221.578L147.262 221.043Z" fill="#836E69"/>
<path d="M146.709 222.153L146.274 221.895L145.819 222.153H145.344V222.43L146.274 222.945L147.184 222.43V222.153H146.709Z" fill="#403531"/>
<path d="M146.274 221.617L145.344 222.152L146.274 222.687L147.184 222.152L146.274 221.617Z" fill="#836E69"/>
<path d="M145.701 222.727L145.266 222.469L144.831 222.727H144.336V223.004L145.266 223.539L146.176 223.004V222.727H145.701Z" fill="#403531"/>
<path d="M145.266 222.192L144.336 222.727L145.266 223.262L146.176 222.727L145.266 222.192Z" fill="#836E69"/>
<path d="M144.709 223.301L144.274 223.044L143.838 223.301H143.344V223.579L144.274 224.094L145.184 223.579V223.301H144.709Z" fill="#403531"/>
<path d="M144.274 222.767L143.344 223.301L144.274 223.836L145.184 223.301L144.274 222.767Z" fill="#836E69"/>
<path d="M143.744 223.856L143.309 223.599L142.873 223.856H142.398V224.134L143.309 224.668L144.219 224.134V223.856H143.744Z" fill="#403531"/>
<path d="M143.309 223.321L142.398 223.856L143.309 224.391L144.219 223.856L143.309 223.321Z" fill="#836E69"/>
<path d="M145.86 223.955L145.286 223.638L144.138 224.292L143.406 224.45V224.728L144.336 225.263L146.216 224.153V223.896L145.86 223.955Z" fill="#403531"/>
<path d="M149.697 221.578L149.262 221.34L148.826 221.578H148.352V221.855L149.262 222.39L150.192 221.855V221.578H149.697Z" fill="#403531"/>
<path d="M149.262 221.063L148.352 221.578L149.262 222.133L150.192 221.578L149.262 221.063Z" fill="#836E69"/>
<path d="M148.728 222.153L148.293 221.895L147.858 222.153H147.383V222.43L148.293 222.965L149.203 222.43V222.153H148.728Z" fill="#403531"/>
<path d="M148.293 221.617L147.383 222.152L148.293 222.687L149.203 222.152L148.293 221.617Z" fill="#836E69"/>
<path d="M147.72 222.747L147.285 222.489L146.85 222.747H146.375V223.004L147.285 223.539L148.215 223.004V222.747H147.72Z" fill="#403531"/>
<path d="M147.285 222.212L146.375 222.747L147.285 223.262L148.215 222.747L147.285 222.212Z" fill="#836E69"/>
<path d="M146.713 223.321L146.277 223.064L145.842 223.321H145.367V223.599L146.277 224.133L147.188 223.599V223.321H146.713Z" fill="#403531"/>
<path d="M146.277 222.786L145.367 223.321L146.277 223.836L147.188 223.321L146.277 222.786Z" fill="#836E69"/>
<path d="M143.406 224.45L144.336 224.985L146.216 223.896L145.286 223.361L143.406 224.45Z" fill="#836E69"/>
<path opacity="0.3" d="M151.712 231.305L148.922 229.68L154.205 226.63L156.995 228.234L151.712 231.305Z" fill="black"/>
<path d="M153.336 226.729L154.048 227.264L155.651 226.768L155.018 226.333L153.336 226.729Z" fill="black"/>
<path d="M155.833 226.669L154.21 225.738L152.43 226.095L153.597 226.768L154.764 226.531L155.556 226.986L155.833 226.669Z" fill="#362C29"/>
<path d="M152.743 225.996L152.703 226.114L153.692 226.689L154.068 226.431L152.743 225.996Z" fill="#685750"/>
<path d="M152.742 225.996L153.732 226.57L154.246 226.531L155.176 226.273L154.187 225.698L152.742 225.996Z" fill="#836E69"/>
<path d="M153.735 226.57L153.695 226.689L155.14 226.392L155.179 226.273L153.735 226.57Z" fill="#403531"/>
<path d="M153.992 227.284L154.329 226.709L154.803 226.432L155.12 226.63V227.184L154.803 227.739L154.329 228.017L153.992 227.838V227.284Z" fill="#991F16"/>
<path d="M154.324 226.709L154.799 226.431L154.502 226.273L154.047 226.55L154.265 226.709H154.324Z" fill="#FA5C52"/>
<path d="M153.988 227.284L154.324 226.709L154.047 226.551L153.711 227.125L153.929 227.323L153.988 227.284Z" fill="#C84030"/>
<path d="M153.988 227.838V227.283L153.711 227.125V227.68L153.988 227.838Z" fill="#BF261B"/>
<path d="M155.828 226.669L154.047 227.026L155.214 227.699L156.995 227.343L155.828 226.669Z" fill="#362C29"/>
<path d="M157.002 227.343L155.221 227.699L152.312 229.383L151.719 230.394V231.127L152.312 230.968L157.002 228.234V227.343Z" fill="#0A0808"/>
<path d="M154.324 226.927L154.305 227.026L155.294 227.62L155.65 227.343L154.324 226.927Z" fill="#685750"/>
<path d="M154.328 226.927L155.337 227.501L155.852 227.442L156.782 227.204L155.773 226.63L154.328 226.927Z" fill="#836E69"/>
<path d="M155.336 227.501L155.297 227.62L156.741 227.323L156.781 227.204L155.336 227.501Z" fill="#403531"/>
<path d="M149.519 227.753L148.938 228.767L151.716 230.366L152.298 229.353L149.519 227.753Z" fill="#574943"/>
<path d="M152.306 229.383L149.516 227.779L152.424 226.095L155.214 227.699L152.306 229.383Z" fill="#574943"/>
<path d="M151.712 231.127L148.922 229.522V228.789L151.712 230.394V231.127Z" fill="#362C29"/>
<path d="M152.13 228.531V228.393L151.239 227.897H151.022L150.844 227.997V228.115L151.734 228.63H151.972L152.13 228.531Z" fill="white"/>
<path d="M123.167 221.063L126.946 219.676L130.449 220.112L133.515 219.676V218.963L132.388 218.646H130.805L131.695 217.002L133.278 216.348L135.375 216.883L135.83 216.348L133.733 214.703L130.686 214.386L125.739 216.942L120.812 218.111L123.167 221.063Z" fill="#F0C6B4"/>
<path d="M123.953 217.299L125.734 216.942L126.941 218.17V219.676L124.923 220.508L124.111 219.062L123.953 217.299Z" fill="#05425F"/>
<path d="M119.977 217.675L123.894 217.239L125.161 218.547L125.002 220.766L121.005 222.113L119.977 217.675Z" fill="#38C5EA"/>
<path d="M104.941 221.657L103.18 218.171L103.437 214.03L105.158 212.465L109.116 212.227L111.173 213.713L104.941 221.657Z" fill="#38C5EA"/>
<path d="M113.802 209.513L112.239 212.703L110.953 214.03L112.041 216.546L118.413 217.913L119.976 215.892L120.53 213.158L121.559 211.871L121.203 209.513L116.869 207.908L113.802 209.513Z" fill="#F0C6B4"/>
<path d="M127.514 239.784L126.544 242.478L123.398 244.677L113.584 243.964L108.578 240.378L108.914 238.061L126.861 237.664L127.514 239.784Z" fill="#05425F"/>
<path d="M125.124 221.023L122.374 218.785L119.98 215.892L116.161 215.952L112.204 213.713L112.243 212.703L110.918 213.02L109.77 212.782L106.446 213.713L104.289 218.725L105.12 225.263L108.88 234.613L109.117 239.13L114.499 242.023L121.207 243.033L125.461 240.973L126.865 237.664L126.153 235.881L126.371 231.444L125.124 221.023Z" fill="#38C5EA"/>
<path d="M112.615 213.059L112.496 214.466L108.875 214.307L107.055 213.535L109.251 212.921L110.794 213.376L112.615 213.059Z" fill="#05425F"/>
<path d="M120.273 227.184L126.249 233.979L126.328 232.196L125.062 228.512L120.273 227.184Z" fill="#A1B4BF"/>
<path d="M124.194 220.904L121.583 221.717L119.841 220.31L116.992 216.487L119.644 216.467L121.8 219.181L124.194 220.904Z" fill="#05425F"/>
<path d="M111.765 212.742L111.172 214.545L116 217.556H121.105L120.768 217.061L111.765 212.742Z" fill="#38C5EA"/>
<path d="M112.873 211.415L112.913 212.723L116.138 214.565L120.768 214.981L121.104 217.2L115.999 217.121L111.508 214.268L111.765 212.742L112.873 211.415Z" fill="#38C5EA"/>
<path d="M147.01 227.046L151.066 224.391L153.836 224.193L155.32 225.124L155.993 226.352L154.865 229.641L152.55 229.621L149.048 230.592L148.256 230.176L146.555 229.621L147.01 227.046Z" fill="#F0C6B4"/>
<path d="M135.945 231.86L147.006 227.046L148.253 230.176L139.131 237.466L135.945 231.86Z" fill="#38C5EA"/>
<path d="M144.689 227.957L147.004 227.046L148.211 228.096L148.251 230.176L146.727 231.602L144.57 230.097L144.689 227.957Z" fill="#38C5EA"/>
<path d="M122.569 220.706L119.977 223.381L120.273 227.184L133.431 238.061L139.466 237.803L146.768 231.8L146.213 228.967L144.591 227.898L135.826 231.523L125.121 221.023L122.569 220.706Z" fill="#38C5EA"/>
<path d="M124.665 201.054L125.457 204.897L124.922 205.749L125.061 207.512L122.706 212.544L120.767 212.009L120.273 210.504L118.828 209.572L121.381 200.301L124.665 201.054Z" fill="#F0C6B4"/>
<path d="M117.208 198.003L119.325 196.814L118.988 197.647L122.134 197.983L124.647 199.667L125.676 201.807L124.647 201.411L124.687 204.343L123.341 206.938L123.223 208.384H122.787L122.649 206.72L121.759 206.68L120.552 208.384L120.275 210.504L118.593 211.633L115.605 211.157L113.31 209.553L112.617 207.195L112.795 202.441L114.576 199.271L113.943 198.934L115.941 198.459L116.693 197.448L117.208 198.003Z" fill="#211A1A"/>
<path d="M101.004 247.272L99.3417 246.302L97.3828 238.833L99.6385 239.447L101.004 247.272Z" fill="#211A1A"/>
<path d="M99.0449 239.804L99.6385 239.447L97.9764 238.496L97.3828 238.833L99.0449 239.804Z" fill="#574943"/>
<path d="M101.006 247.273L101.599 246.916L99.6405 239.447L99.0469 239.804L101.006 247.273Z" fill="#0A0808"/>
<path d="M99.0449 239.804L97.3828 238.833V222.707L99.6385 223.341L99.0449 239.804Z" fill="#362C29"/>
<path d="M99.0449 223.678L99.6385 223.341L97.9764 222.37L97.3828 222.707L99.0449 223.678Z" fill="#574943"/>
<path d="M99.0469 239.804L99.403 239.982L99.6405 239.447V223.341L99.0469 223.678V239.804Z" fill="#0A0808"/>
<path d="M118.734 235.525L121.762 238.853L124.928 235.921L124.116 234.534L118.734 235.525Z" fill="#389998"/>
<path d="M100.312 223.183L119.802 237.03L124.116 234.534L102.39 221.974L100.312 223.183Z" fill="#8CCCCB"/>
<path d="M119.961 238.793L122.83 248.243L124.927 247.035V235.921L119.961 238.793Z" fill="#3E6669"/>
<path d="M99.5 234.752L100.311 236.139L122.037 248.699L122.828 248.243V237.129L122.037 235.743L100.311 223.183L99.5 223.638V234.752Z" fill="#574943"/>
<path d="M117.484 236.238L120.512 239.586L122.827 237.129L122.035 235.743L117.484 236.238Z" fill="#211A1A"/>
<path d="M99.0469 223.896L118.556 237.744L122.039 235.743L100.313 223.183L99.0469 223.896Z" fill="#574943"/>
<path d="M118.711 239.507L121.58 248.956L122.827 248.243V237.129L118.711 239.507Z" fill="#0A0808"/>
<path d="M98.25 235.465L99.0415 236.852L120.787 249.412L121.578 248.956V237.843L120.787 236.456L99.0415 223.896L98.25 224.371V235.465Z" fill="#362C29"/>
<path d="M125.871 261.655L124.229 260.685L122.25 253.216L124.525 253.83L125.871 261.655Z" fill="#211A1A"/>
<path d="M123.912 254.186L124.525 253.83L122.844 252.879L122.25 253.216L123.912 254.186Z" fill="#574943"/>
<path d="M125.873 261.655L126.486 261.299L124.527 253.83L123.914 254.186L125.873 261.655Z" fill="#0A0808"/>
<path d="M123.912 254.187L122.25 253.216V237.09L124.525 237.724L123.912 254.187Z" fill="#362C29"/>
<path d="M123.912 238.06L124.525 237.724L122.844 236.753L122.25 237.09L123.912 238.06Z" fill="#574943"/>
<path d="M123.914 254.186L124.29 254.365L124.527 253.83V237.724L123.914 238.06V254.186Z" fill="#0A0808"/>
<path d="M158.698 60.7143L160.933 59.4068V54.4343L157.312 54.9296L158.698 60.7143Z" fill="#F4EFE9"/>
<path d="M157.312 59.9218L158.698 60.7142V55.7219L157.312 54.9294V59.9218Z" fill="#D1D1D1"/>
<path d="M165.267 56.8907V57.6633L164.317 58.218H162.991L158.698 55.7218L158.223 55.6822L157.312 54.9294V54.5332L165.267 56.8907Z" fill="#D1D1D1"/>
<path d="M165.267 56.4946V57.2672L164.317 57.8021H162.991L157.312 54.5333L159.588 53.2258L165.267 56.4946Z" fill="white"/>
<path d="M162.539 56.2964L163.331 56.5539L163.152 57.4058L162.539 57.069V56.2964Z" fill="#D1D1D1"/>
<path d="M163.152 55.4644H164.003L164.597 55.8011V56.2964L164.003 56.653H163.152L162.539 56.2964V55.8011L163.152 55.4644Z" fill="white"/>
<path d="M163.999 56.6531L164.296 56.8512L163.999 57.4059H163.148V56.6531H163.999Z" fill="#E0DEDC"/>
<path d="M164 56.653L164.594 56.2964V57.069L164 57.4058V56.653Z" fill="#F4EFE9"/>
<path d="M162.719 54.355L163.372 54.5531L163.213 56.4747L162.719 56.1974V54.355Z" fill="#D1D1D1"/>
<path d="M163.213 53.6616H163.926L164.42 53.939V54.355L163.926 54.6323H163.213L162.719 54.355V53.939L163.213 53.6616Z" fill="white"/>
<path d="M163.923 54.6323L164.161 55.3059L163.923 56.4747H163.211V54.6323H163.923Z" fill="#E0DEDC"/>
<path d="M163.922 54.6323L164.417 54.355V56.1974L163.922 56.4747V54.6323Z" fill="#F4EFE9"/>
<path d="M156.426 53.3841L157.356 51.8983L158.464 51.3832L159.572 51.8389L159.691 51.5219L158.464 51.0068L157.118 51.621L156.109 53.2455L156.426 53.3841Z" fill="black"/>
<path d="M169.864 52.9286L170.991 53.5823L171.071 52.988L169.844 52.3145L169.864 52.9286Z" fill="#D1D1D1"/>
<path d="M160.438 48.788L165.918 52.0964L167.521 51.0267L162.04 47.8569L160.438 48.788Z" fill="white"/>
<path d="M159.297 50.7494L164.797 54.1766L165.925 51.9578L160.444 48.7881L159.297 50.7494Z" fill="#E0DEDC"/>
<path d="M167.527 51.0269L168.655 51.7004V53.5428L167.527 55.5041L165.925 56.4352L164.797 55.7815V53.9192L165.925 51.958L167.527 51.0269Z" fill="#362C29"/>
<path d="M159.297 52.6117L164.798 55.7815V53.9192L159.297 50.7495V52.6117Z" fill="#D1D1D1"/>
<path d="M165.922 51.958L167.525 53.0079L169.127 51.958L167.525 51.0269L165.922 51.958Z" fill="#574943"/>
<path d="M164.797 53.919L166.4 55.0879L167.527 52.8889L165.925 51.9578L164.797 53.919Z" fill="#211A1A"/>
<path d="M169.129 51.9578L170.257 52.6115V54.4737L169.129 56.435L167.526 57.3661L166.398 56.7124V54.8501L167.526 52.8889L169.129 51.9578Z" fill="#574943"/>
<path d="M167.227 56.8312L167.622 57.0492L169.027 56.2369L170.036 54.4936V52.8493L169.66 52.6313V54.2756L168.651 56.019L167.227 56.8312Z" fill="#0A0808"/>
<path d="M166.617 54.8305V55.0682L166.716 55.2069L166.617 55.3456V56.4748L167.231 56.8314L168.655 56.0191L169.664 54.2758V52.6315L169.031 52.2749L168.062 52.8296L167.982 53.0079L167.824 52.9683L167.626 53.0871L167.25 53.7409L167.171 53.9984L166.993 54.1965L166.617 54.8305Z" fill="#362C29"/>
<path d="M168.082 52.8296L168.142 52.8692V53.0475L168.023 53.2258L167.865 53.3249L167.766 53.2654V53.0871L167.825 52.9683L168.082 52.8296Z" fill="#FA5C52"/>
<path d="M168.023 55.5635L168.142 55.6229V55.8012L168.023 55.9993L167.865 56.0786L167.766 56.0191V55.8408L167.865 55.6427L168.023 55.5635Z" fill="#FA5C52"/>
<path d="M166.617 55.0682L166.677 54.9692L166.835 54.8701L166.934 54.9295V55.1078L166.835 55.306L166.677 55.3852L166.617 55.3456V55.0682Z" fill="#FA5C52"/>
<path d="M168.953 53.7607L169.072 53.5825L169.21 53.4834L169.329 53.5626V53.7409L169.21 53.9192L169.072 54.0183L168.953 53.939V53.7607Z" fill="#FA5C52"/>
<path d="M167.249 53.7407L167.289 53.7605V53.9388L167.17 54.1171L167.032 54.2162L166.992 54.1964L167.249 53.7407Z" fill="#FA5C52"/>
<path d="M168.712 54.7511L168.871 54.6719L168.97 54.7313V54.9096L168.871 55.1077L168.712 55.187L168.594 55.1275V54.9492L168.712 54.7511Z" fill="#FA5C52"/>
<path d="M168.97 52.7899V52.9682L168.871 53.1465L168.712 53.2456L168.594 53.1663V52.988L168.712 52.8098L168.871 52.7107L168.97 52.7899Z" fill="#FA5C52"/>
<path d="M167.29 55.702V55.8803L167.171 56.0784L167.033 56.1577L166.914 56.0982V55.9199L167.033 55.7416L167.171 55.6426L167.29 55.702Z" fill="#FA5C52"/>
<path d="M167.727 53.9587L167.885 54.0776L168.32 53.8002L168.162 53.7012L167.727 53.9587Z" fill="#574943"/>
<path d="M167.406 54.4936L167.584 54.5927L167.881 54.0578L167.723 53.9587L167.406 54.4936Z" fill="#211A1A"/>
<path d="M168.318 53.8003L168.635 53.9786V54.4937L168.318 55.0286L167.883 55.2861L167.586 55.088V54.5927L167.883 54.0578L168.318 53.8003Z" fill="#362C29"/>
<path d="M168.294 53.8796L168.571 54.0381V54.4938L168.294 54.9692L167.918 55.1871L167.641 55.0287V54.573L167.918 54.1174L168.294 53.8796Z" fill="#29617D"/>
<path d="M168.059 54.137L168.197 54.2162V54.4341L168.059 54.6719L167.881 54.7709L167.742 54.6917V54.4737L167.881 54.236L168.059 54.137Z" fill="#17435C"/>
<path opacity="0.4" d="M168.019 54.2163L168.118 54.2559V54.4342L168.019 54.5927L167.88 54.672L167.781 54.6323V54.454L167.88 54.2956L168.019 54.2163Z" fill="#0A0808"/>
<path d="M167.406 55.0087L167.584 55.088V54.5927L167.406 54.4937V55.0087Z" fill="#0A0808"/>
<path d="M164.797 55.7814L166.4 56.7125V54.8503L164.797 53.9192V55.7814Z" fill="#0A0808"/>
<path opacity="0.3" d="M159.297 51.0269L166.4 55.1277V55.7418L159.297 51.641V51.0269Z" fill="black"/>
<path d="M160.164 48.5306L164.557 51.6409L168.197 53.1663L168.692 52.988L169.919 52.156L161.905 47.5203L160.164 48.5306Z" fill="white"/>
<path d="M158.938 50.6503L163.785 53.7011L166.951 55.286L167.525 54.4341L168.198 53.1662L160.164 48.5305L158.938 50.6503Z" fill="#E0DEDC"/>
<path d="M158.938 51.2843L166.951 55.9201L167.05 55.5635L166.951 55.2861L158.938 50.6504V51.2843Z" fill="#D1D1D1"/>
<path d="M170.99 53.5824V53.0475L169.862 52.3937L168.259 53.305L167.131 55.2861V55.821L166.953 55.9201V55.2861L168.2 53.1664L169.921 52.156L171.168 52.8692V53.4833L170.99 53.5824Z" fill="#F4EFE9"/>
<path d="M157.492 56.9898L157.67 57.5643L158.244 57.2474V56.9502L157.492 56.9898Z" fill="#544540"/>
<path d="M157.258 56.8511L157.673 57.287L158.247 56.9502L158.069 56.6729L157.258 56.8511Z" fill="#685750"/>
<path d="M157.258 56.8908L157.495 56.9898L158.069 56.6729L157.832 56.5342L157.258 56.8511V56.8908Z" fill="#836E69"/>
<path d="M157.078 57.2275L157.256 57.5246L157.494 57.6633L157.672 57.5643V57.2869L157.494 56.9897L157.256 56.8511L157.078 56.9501V57.2275Z" fill="#403531"/>
<path d="M157.234 57.2473L157.314 57.386L157.432 57.4454L157.472 57.4256L157.393 57.3266L157.314 57.1879L157.274 57.1086L157.234 57.1285V57.2473Z" fill="#685750"/>
<path d="M157.273 57.2276L157.353 57.3663L157.471 57.4257L157.511 57.4059V57.287L157.432 57.1483L157.313 57.0691L157.273 57.1087V57.2276Z" fill="black"/>
<path d="M155.752 58.4558H156.465L156.94 57.703L157.454 57.4059L157.296 57.1087L156.682 57.4455L156.267 58.0992H155.891L155.654 57.8615L156.049 56.3361L156.366 54.8701L156.445 53.305L156.109 53.2456L156.01 54.8305L155.713 56.2568L155.258 57.9606L155.752 58.4558Z" fill="black"/>
</g>
<defs>
<linearGradient id="paint0_linear_1011_8535" x1="191.406" y1="205.967" x2="231.494" y2="205.967" gradientUnits="userSpaceOnUse">
<stop stop-color="#FFAD60"/>
<stop offset="1" stop-color="#FF6279"/>
</linearGradient>
<linearGradient id="paint1_linear_1011_8535" x1="640.238" y1="1313.85" x2="658.887" y2="1313.85" gradientUnits="userSpaceOnUse">
<stop stop-color="#FFAD60"/>
<stop offset="1" stop-color="#FF6279"/>
</linearGradient>
<clipPath id="clip0_1011_8535">
<rect width="300" height="300" fill="white"/>
</clipPath>
</defs>
</svg>
