<svg width="180" height="41" viewBox="0 0 180 41" fill="none" xmlns="http://www.w3.org/2000/svg">
<path fill-rule="evenodd" clip-rule="evenodd" d="M156.755 10.8529V6.63236C156.755 5.96637 157.289 5.42647 157.947 5.42647H162.119C162.778 5.42647 163.311 4.88658 163.311 4.22059V0H151.391V12.0588H155.563C156.221 12.0588 156.755 11.5189 156.755 10.8529ZM162.119 23.5147H157.947C157.289 23.5147 156.755 22.9748 156.755 22.3089L156.755 18.0883C156.755 17.4223 156.221 16.8824 155.563 16.8824H151.391V28.9412H163.311L163.311 24.7206C163.311 24.0546 162.777 23.5147 162.119 23.5147ZM173.443 5.42647H169.27C168.612 5.42647 168.078 4.88658 168.078 4.22059V0H179.999V12.0588H175.827C175.168 12.0588 174.635 11.5189 174.635 10.8529V6.63236C174.635 5.96637 174.101 5.42647 173.443 5.42647ZM174.635 18.0882V22.3088C174.635 22.9748 174.101 23.5147 173.443 23.5147H169.27C168.612 23.5147 168.078 24.0546 168.078 24.7206V28.9412L179.999 28.9412L179.999 16.8824L175.827 16.8824C175.168 16.8824 174.635 17.4223 174.635 18.0882ZM165.695 19.2941C168.328 19.2941 170.463 17.1346 170.463 14.4706C170.463 11.8066 168.328 9.64706 165.695 9.64706C163.062 9.64706 160.927 11.8066 160.927 14.4706C160.927 17.1346 163.062 19.2941 165.695 19.2941Z" fill="black"/>
<path d="M8.07492 13.1765V0H0V41H8.07492V23.8235C8.07492 19.5882 10.6891 17.1177 14.6394 17.1177C18.125 17.1177 20.1002 19.5882 20.1002 23.1765V41H28.117V21.7647C28.117 14.4706 23.5857 9.58824 16.6146 9.58824C12.49 9.58824 9.12059 11.6471 8.07492 13.1765Z" fill="black"/>
<path d="M47.987 9.52942C38.8664 9.52942 32.0115 16.5294 32.0115 25.2941C32.0115 34.1177 38.8084 41 47.987 41C57.1076 41 64.0207 34 64.0207 25.2941C64.0207 16.5294 57.1076 9.52942 47.987 9.52942ZM47.987 16.9412C52.5183 16.9412 56.0039 20.4118 56.0039 25.2941C56.0039 30.1177 52.344 33.7059 47.8128 33.7059C43.2815 33.7059 39.9702 30.1177 39.9702 25.2941C39.9702 20.4118 43.4558 16.9412 47.987 16.9412Z" fill="black"/>
<path d="M75.9247 41V26.5294C75.9247 21.2941 78.5389 17.9412 84.5225 17.9412V9.70589C80.8046 9.70589 77.8999 11.4706 75.8666 14.2353V10.1177H67.7917V41H75.9247Z" fill="black"/>
<path d="M116.7 41V10.1177H108.683V26.5883C108.683 30.8235 106.069 33.2941 102.118 33.2941C98.6327 33.2941 96.5995 30.8236 96.5995 27.2353V10.1177H88.5827V28.6471C88.5827 35.9412 93.1538 41 100.125 41C103.785 41 106.708 40.1765 108.741 37.2941V41H116.7Z" fill="black"/>
<path d="M120.652 30.8235C120.827 36.5883 125.881 40.8824 133.956 40.8824C141.449 40.8824 147.375 37.8824 147.375 30.7059C147.375 23.9412 141.159 22.8824 136.047 21.9412C132.445 21.2941 129.366 20.8235 129.366 18.5882C129.366 16.7059 131.283 15.9412 133.607 15.9412C137.209 15.9412 138.022 17.5882 138.196 19.7647H146.271C145.806 13.6471 141.101 9.76471 133.491 9.76471C125.939 9.76471 121.175 14.1177 121.175 19.5294C121.175 27.7059 128.262 28.2941 133.549 29.2353C136.512 29.7059 138.777 30.1765 138.777 32.1177C138.777 33.5294 137.383 34.9412 134.362 34.9412C130.063 34.9412 128.843 32.5883 128.843 30.8235H120.652Z" fill="black"/>
</svg>
