<svg width="300" height="300" viewBox="0 0 300 300" fill="none" xmlns="http://www.w3.org/2000/svg">
<g clip-path="url(#clip0_1011_8541)">
<path d="M111.665 142.277C113.938 140.965 117.657 140.965 119.93 142.277L242.065 212.755C244.338 214.067 244.338 216.216 242.065 217.528L161.111 264.24C158.838 265.551 155.118 265.551 152.84 264.24L30.7047 193.767C28.4318 192.455 28.4318 190.306 30.7047 188.995L111.665 142.277Z" fill="url(#paint0_linear_1011_8541)"/>
<path d="M243.773 215.144V219.861C243.801 220.742 243.231 221.635 242.069 222.305L161.115 269.017C158.842 270.329 155.123 270.329 152.844 269.017L30.7033 198.533C29.5696 197.88 29 197.015 29 196.15L29.0056 191.473C29.0056 191.456 29.0056 191.439 29.0056 191.422C29.0279 192.271 29.592 193.114 30.7033 193.755L152.839 264.234C155.112 265.546 158.836 265.546 161.109 264.234L242.064 217.522C243.214 216.858 243.784 215.987 243.767 215.111V215.144H243.773Z" fill="url(#paint1_linear_1011_8541)"/>
<path d="M243.773 215.144V219.861C243.801 220.742 243.231 221.635 242.069 222.305L161.115 269.017C158.842 270.329 155.123 270.329 152.844 269.017L30.7033 198.533C29.5696 197.88 29 197.015 29 196.15L29.0056 191.473C29.0056 191.456 29.0056 191.439 29.0056 191.422C29.0279 192.271 29.592 193.114 30.7033 193.755L152.839 264.234C155.112 265.546 158.836 265.546 161.109 264.234L242.064 217.522C243.214 216.858 243.784 215.987 243.767 215.111V215.144H243.773Z" fill="black" fill-opacity="0.1"/>
<path d="M115.492 41.5626C115.492 38.9393 117.352 37.8676 119.625 39.1793L241.76 109.658C244.033 110.97 245.893 114.19 245.893 116.813V210.243C245.893 212.867 244.033 213.944 241.76 212.632L119.625 142.148C117.352 140.837 115.492 137.616 115.492 134.993V41.5626Z" fill="url(#paint2_linear_1011_8541)"/>
<path d="M115.492 41.5626C115.492 38.9393 117.352 37.8676 119.625 39.1793L241.76 109.658C244.033 110.97 245.893 114.19 245.893 116.813V210.243C245.893 212.867 244.033 213.944 241.76 212.632L119.625 142.148C117.352 140.837 115.492 137.616 115.492 134.993V41.5626Z" fill="black" fill-opacity="0.08"/>
<path d="M238.457 204.042C239.368 204.567 240.11 204.137 240.11 203.088V117.293C240.11 116.244 239.368 114.955 238.457 114.43L122.934 47.7692C122.024 47.2446 121.281 47.6743 121.281 48.7237V134.518C121.281 135.567 122.024 136.857 122.934 137.381L238.457 204.042Z" fill="url(#paint3_linear_1011_8541)"/>
<path d="M71.4067 174.293C70.9487 174.555 70.9487 174.985 71.4011 175.247L184.724 240.641C185.176 240.903 185.925 240.903 186.382 240.641L231.635 214.753C232.092 214.491 232.092 214.061 231.635 213.799L118.317 148.405C117.865 148.143 117.117 148.143 116.659 148.405L71.4067 174.293Z" fill="url(#paint4_linear_1011_8541)"/>
<path d="M71.4067 174.293C70.9487 174.555 70.9487 174.985 71.4011 175.247L184.724 240.641C185.176 240.903 185.925 240.903 186.382 240.641L231.635 214.753C232.092 214.491 232.092 214.061 231.635 213.799L118.317 148.405C117.865 148.143 117.117 148.143 116.659 148.405L71.4067 174.293Z" fill="black" fill-opacity="0.08"/>
<path d="M77.2106 214.642C76.7527 214.904 76.7527 215.334 77.2106 215.596L115.002 237.404C115.454 237.666 116.202 237.666 116.655 237.404L144.153 221.535C144.606 221.273 144.606 220.843 144.153 220.581L106.357 198.773C105.904 198.511 105.156 198.511 104.704 198.773L77.2106 214.642Z" fill="url(#paint5_linear_1011_8541)"/>
<path d="M77.2106 214.642C76.7527 214.904 76.7527 215.334 77.2106 215.596L115.002 237.404C115.454 237.666 116.202 237.666 116.655 237.404L144.153 221.535C144.606 221.273 144.606 220.843 144.153 220.581L106.357 198.773C105.904 198.511 105.156 198.511 104.704 198.773L77.2106 214.642Z" fill="black" fill-opacity="0.07"/>
<path d="M245.898 210.244V116.813C245.898 114.19 244.039 110.97 241.766 109.658L119.625 39.1793C118.536 38.5486 117.542 38.476 116.805 38.85C116.816 38.8444 116.827 38.8333 116.838 38.8277L120.088 36.9579C120.831 36.5671 121.836 36.6397 122.942 37.276L245.083 107.755C247.356 109.066 249.216 112.287 249.216 114.91V208.34C249.216 209.652 248.752 210.573 248.004 211.003L244.709 212.889C245.44 212.459 245.898 211.538 245.898 210.244Z" fill="url(#paint6_linear_1011_8541)"/>
<path d="M112.914 160.032C112.461 160.294 111.718 160.294 111.266 160.032L106.246 157.135C105.793 156.872 105.793 156.443 106.246 156.18L111.266 153.283C111.718 153.021 112.461 153.021 112.914 153.283L117.934 156.18C118.386 156.443 118.386 156.872 117.934 157.135L112.914 160.032Z" fill="url(#paint7_linear_1011_8541)"/>
<path d="M120.599 164.469C120.146 164.731 119.404 164.731 118.951 164.469L113.925 161.572C113.473 161.31 113.473 160.88 113.925 160.618L118.951 157.721C119.404 157.459 120.146 157.459 120.599 157.721L125.619 160.618C126.072 160.88 126.072 161.31 125.619 161.572L120.599 164.469Z" fill="url(#paint8_linear_1011_8541)"/>
<path d="M128.284 168.901C127.832 169.163 127.089 169.163 126.631 168.901L121.605 166.004C121.153 165.742 121.153 165.312 121.605 165.055L126.631 162.158C127.083 161.896 127.826 161.896 128.278 162.158L133.299 165.055C133.751 165.317 133.751 165.747 133.299 166.009L128.284 168.901Z" fill="url(#paint9_linear_1011_8541)"/>
<path d="M135.974 173.338C135.521 173.6 134.779 173.6 134.321 173.338L129.3 170.441C128.848 170.179 128.848 169.749 129.3 169.487L134.326 166.59C134.779 166.327 135.521 166.327 135.979 166.59L141 169.487C141.452 169.749 141.452 170.179 141 170.441L135.974 173.338Z" fill="url(#paint10_linear_1011_8541)"/>
<path d="M143.667 177.775C143.215 178.038 142.472 178.038 142.014 177.775L136.988 174.879C136.535 174.616 136.535 174.186 136.988 173.924L142.014 171.027C142.466 170.765 143.209 170.765 143.667 171.027L148.687 173.924C149.14 174.186 149.14 174.616 148.687 174.879L143.667 177.775Z" fill="url(#paint11_linear_1011_8541)"/>
<path d="M151.351 182.207C150.899 182.47 150.156 182.47 149.704 182.207L144.683 179.31C144.231 179.048 144.231 178.618 144.683 178.356L149.709 175.459C150.162 175.197 150.904 175.197 151.357 175.459L156.383 178.356C156.835 178.618 156.835 179.048 156.383 179.31L151.351 182.207Z" fill="url(#paint12_linear_1011_8541)"/>
<path d="M159.036 186.645C158.584 186.907 157.841 186.907 157.383 186.645L152.363 183.748C151.91 183.485 151.91 183.056 152.363 182.793L157.389 179.896C157.841 179.634 158.584 179.634 159.036 179.896L164.057 182.793C164.509 183.056 164.509 183.485 164.057 183.748L159.036 186.645Z" fill="url(#paint13_linear_1011_8541)"/>
<path d="M166.726 191.082C166.274 191.344 165.531 191.344 165.079 191.082L160.058 188.185C159.606 187.923 159.606 187.493 160.058 187.231L165.084 184.334C165.537 184.072 166.279 184.072 166.732 184.334L171.752 187.231C172.205 187.493 172.205 187.923 171.752 188.185L166.726 191.082Z" fill="url(#paint14_linear_1011_8541)"/>
<path d="M174.406 195.514C173.953 195.776 173.211 195.776 172.758 195.514L167.738 192.617C167.285 192.355 167.285 191.925 167.738 191.662L172.764 188.766C173.216 188.503 173.959 188.503 174.411 188.766L179.432 191.662C179.884 191.925 179.884 192.355 179.432 192.617L174.406 195.514Z" fill="url(#paint15_linear_1011_8541)"/>
<path d="M182.091 199.951C181.639 200.213 180.896 200.213 180.438 199.951L175.417 197.054C174.965 196.792 174.965 196.362 175.417 196.1L180.438 193.203C180.89 192.941 181.633 192.941 182.091 193.203L187.112 196.1C187.564 196.362 187.564 196.792 187.112 197.054L182.091 199.951Z" fill="url(#paint16_linear_1011_8541)"/>
<path d="M189.778 204.388C189.326 204.651 188.583 204.651 188.125 204.388L183.105 201.492C182.653 201.229 182.653 200.8 183.105 200.537L188.125 197.64C188.578 197.378 189.321 197.378 189.778 197.64L194.805 200.537C195.257 200.8 195.257 201.229 194.805 201.492L189.778 204.388Z" fill="url(#paint17_linear_1011_8541)"/>
<path d="M197.464 208.82C197.011 209.083 196.269 209.083 195.811 208.82L190.785 205.924C190.332 205.661 190.332 205.231 190.785 204.969L195.811 202.072C196.263 201.81 197.006 201.81 197.464 202.072L202.484 204.969C202.937 205.231 202.937 205.661 202.484 205.924L197.464 208.82Z" fill="url(#paint18_linear_1011_8541)"/>
<path d="M205.153 213.258C204.701 213.52 203.958 213.52 203.5 213.258L198.48 210.361C198.028 210.098 198.028 209.669 198.48 209.406L203.5 206.509C203.953 206.247 204.696 206.247 205.153 206.509L210.174 209.406C210.626 209.669 210.626 210.098 210.174 210.361L205.153 213.258Z" fill="url(#paint19_linear_1011_8541)"/>
<path d="M120.755 155.784C120.303 156.046 119.56 156.046 119.108 155.784L113.847 152.748C113.395 152.485 113.395 152.056 113.847 151.793L116.081 150.504C116.533 150.242 117.276 150.242 117.728 150.504L122.995 153.54C123.447 153.803 123.447 154.232 122.995 154.495L120.755 155.784Z" fill="url(#paint20_linear_1011_8541)"/>
<path d="M128.722 160.378C128.269 160.64 127.527 160.64 127.074 160.378L121.808 157.341C121.356 157.079 121.356 156.649 121.808 156.387L124.042 155.097C124.494 154.835 125.237 154.835 125.689 155.097L130.956 158.134C131.408 158.396 131.408 158.826 130.956 159.088L128.722 160.378Z" fill="url(#paint21_linear_1011_8541)"/>
<path d="M136.683 164.977C136.23 165.239 135.488 165.239 135.03 164.977L129.769 161.941C129.317 161.678 129.317 161.248 129.769 160.986L132.003 159.697C132.455 159.434 133.198 159.434 133.65 159.697L138.911 162.733C139.363 162.995 139.363 163.425 138.911 163.688L136.683 164.977Z" fill="url(#paint22_linear_1011_8541)"/>
<path d="M144.644 169.57C144.191 169.833 143.449 169.833 142.991 169.57L137.73 166.534C137.278 166.272 137.278 165.842 137.73 165.58L139.964 164.29C140.416 164.028 141.159 164.028 141.617 164.29L146.877 167.327C147.33 167.589 147.33 168.019 146.877 168.281L144.644 169.57Z" fill="url(#paint23_linear_1011_8541)"/>
<path d="M152.612 174.164C152.16 174.426 151.417 174.426 150.965 174.164L145.699 171.128C145.246 170.865 145.246 170.436 145.699 170.173L147.932 168.884C148.385 168.622 149.128 168.622 149.58 168.884L154.846 171.92C155.299 172.183 155.299 172.612 154.846 172.869L152.612 174.164Z" fill="url(#paint24_linear_1011_8541)"/>
<path d="M160.573 178.764C160.121 179.026 159.378 179.026 158.92 178.764L153.66 175.727C153.207 175.465 153.207 175.035 153.66 174.773L155.893 173.483C156.346 173.221 157.089 173.221 157.541 173.483L162.807 176.52C163.26 176.782 163.26 177.212 162.807 177.474L160.573 178.764Z" fill="url(#paint25_linear_1011_8541)"/>
<path d="M168.534 183.357C168.082 183.619 167.339 183.619 166.887 183.357L161.621 180.321C161.168 180.058 161.168 179.629 161.621 179.366L163.854 178.077C164.307 177.815 165.049 177.815 165.507 178.077L170.768 181.113C171.22 181.376 171.22 181.805 170.768 182.068L168.534 183.357Z" fill="url(#paint26_linear_1011_8541)"/>
<path d="M176.503 187.951C176.051 188.213 175.308 188.213 174.85 187.951L169.589 184.914C169.137 184.652 169.137 184.222 169.589 183.96L171.823 182.671C172.275 182.408 173.018 182.408 173.471 182.671L178.731 185.707C179.184 185.969 179.184 186.399 178.731 186.661L176.503 187.951Z" fill="url(#paint27_linear_1011_8541)"/>
<path d="M184.464 192.55C184.012 192.812 183.269 192.812 182.816 192.55L177.55 189.514C177.098 189.251 177.098 188.821 177.55 188.559L179.784 187.27C180.236 187.007 180.979 187.007 181.432 187.27L186.692 190.306C187.145 190.568 187.145 190.998 186.692 191.261L184.464 192.55Z" fill="url(#paint28_linear_1011_8541)"/>
<path d="M192.425 197.143C191.973 197.406 191.23 197.406 190.777 197.143L185.511 194.107C185.059 193.845 185.059 193.415 185.511 193.153L187.745 191.863C188.197 191.601 188.94 191.601 189.392 191.863L194.653 194.9C195.105 195.162 195.105 195.592 194.653 195.854L192.425 197.143Z" fill="url(#paint29_linear_1011_8541)"/>
<path d="M200.394 201.737C199.941 201.999 199.199 201.999 198.741 201.737L193.48 198.701C193.028 198.438 193.028 198.009 193.48 197.746L195.714 196.457C196.166 196.195 196.909 196.195 197.361 196.457L202.622 199.493C203.074 199.756 203.074 200.185 202.622 200.448L200.394 201.737Z" fill="url(#paint30_linear_1011_8541)"/>
<path d="M208.352 206.336C207.9 206.599 207.157 206.599 206.699 206.336L201.433 203.3C200.981 203.038 200.981 202.608 201.433 202.345L203.667 201.056C204.119 200.794 204.862 200.794 205.32 201.056L210.581 204.093C211.033 204.355 211.033 204.785 210.581 205.047L208.352 206.336Z" fill="url(#paint31_linear_1011_8541)"/>
<path d="M216.323 210.93C215.871 211.192 215.128 211.192 214.67 210.93L209.41 207.894C208.957 207.631 208.957 207.202 209.41 206.939L211.643 205.65C212.096 205.388 212.839 205.388 213.291 205.65L218.552 208.686C219.004 208.949 219.004 209.378 218.552 209.641L216.323 210.93Z" fill="url(#paint32_linear_1011_8541)"/>
<path d="M224.302 215.535C223.85 215.797 223.107 215.797 222.655 215.535L217.394 212.498C216.942 212.236 216.942 211.806 217.394 211.544L219.628 210.255C220.08 209.992 220.823 209.992 221.275 210.255L226.542 213.291C226.994 213.553 226.994 213.983 226.542 214.245L224.302 215.535Z" fill="url(#paint33_linear_1011_8541)"/>
<path d="M216.707 219.922C216.254 220.184 215.512 220.184 215.059 219.922L206.191 214.804C205.738 214.541 205.738 214.112 206.191 213.849L211.211 210.952C211.664 210.69 212.406 210.69 212.864 210.952L221.733 216.071C222.185 216.333 222.185 216.763 221.733 217.025L216.707 219.922Z" fill="url(#paint34_linear_1011_8541)"/>
<path d="M82.0988 177.815C81.6465 178.077 80.9037 178.077 80.4458 177.815L75.4252 174.918C74.9728 174.655 74.9728 174.226 75.4252 173.963L80.4458 171.066C80.8981 170.804 81.6409 170.804 82.0932 171.066L87.1194 173.963C87.5717 174.226 87.5717 174.655 87.1194 174.918L82.0988 177.815Z" fill="url(#paint35_linear_1011_8541)"/>
<path d="M89.7863 182.252C89.3339 182.514 88.5912 182.514 88.1388 182.252L83.1127 179.355C82.6603 179.093 82.6603 178.663 83.1127 178.4L88.1333 175.504C88.5856 175.241 89.3284 175.241 89.7807 175.504L94.8013 178.4C95.2536 178.663 95.2536 179.093 94.8013 179.355L89.7863 182.252Z" fill="url(#paint36_linear_1011_8541)"/>
<path d="M97.466 186.684C97.0136 186.946 96.2709 186.946 95.8129 186.684L90.7924 183.787C90.34 183.524 90.34 183.095 90.7924 182.832L95.8129 179.936C96.2653 179.673 97.008 179.673 97.4604 179.936L102.487 182.832C102.939 183.095 102.939 183.524 102.487 183.787L97.466 186.684Z" fill="url(#paint37_linear_1011_8541)"/>
<path d="M182.109 231.012C181.656 231.275 180.914 231.275 180.461 231.012L175.441 228.116C174.988 227.853 174.988 227.423 175.441 227.161L176.625 226.48C177.077 226.218 177.82 226.218 178.278 226.48L183.298 229.377C183.751 229.639 183.751 230.069 183.298 230.332L182.109 231.012Z" fill="url(#paint38_linear_1011_8541)"/>
<path d="M170.507 228.836C170.055 229.098 169.312 229.098 168.86 228.836L163.839 225.939C163.387 225.677 163.387 225.247 163.839 224.984L165.023 224.303C165.476 224.041 166.218 224.041 166.676 224.303L171.697 227.2C172.149 227.463 172.149 227.892 171.697 228.155L170.507 228.836Z" fill="url(#paint39_linear_1011_8541)"/>
<path d="M178.2 233.273C177.748 233.535 177.005 233.535 176.547 233.273L171.527 230.376C171.074 230.114 171.074 229.684 171.527 229.422L172.711 228.741C173.163 228.479 173.906 228.479 174.364 228.741L179.384 231.638C179.837 231.9 179.837 232.33 179.384 232.592L178.2 233.273Z" fill="url(#paint40_linear_1011_8541)"/>
<path d="M185.88 237.705C185.428 237.967 184.685 237.967 184.227 237.705L179.206 234.808C178.754 234.546 178.754 234.116 179.206 233.854L180.39 233.173C180.843 232.91 181.585 232.91 182.043 233.173L187.07 236.069C187.522 236.332 187.522 236.762 187.07 237.024L185.88 237.705Z" fill="url(#paint41_linear_1011_8541)"/>
<path d="M105.159 191.121C104.707 191.384 103.964 191.384 103.506 191.121L98.4799 188.224C98.0275 187.962 98.0275 187.532 98.4799 187.27L103.5 184.373C103.953 184.111 104.696 184.111 105.148 184.373L110.168 187.27C110.621 187.532 110.621 187.962 110.168 188.219L105.159 191.121Z" fill="url(#paint42_linear_1011_8541)"/>
<path d="M147.458 215.535C147.005 215.797 146.263 215.797 145.805 215.535L106.16 192.662C105.707 192.399 105.707 191.969 106.16 191.707L111.18 188.81C111.632 188.548 112.375 188.548 112.828 188.81L152.473 211.689C152.925 211.951 152.925 212.381 152.473 212.644L147.458 215.535Z" fill="url(#paint43_linear_1011_8541)"/>
<path d="M155.13 219.961C154.678 220.223 153.935 220.223 153.477 219.961L148.456 217.064C148.004 216.802 148.004 216.372 148.456 216.11L153.477 213.213C153.929 212.951 154.672 212.951 155.13 213.213L160.151 216.11C160.603 216.372 160.603 216.802 160.151 217.064L155.13 219.961Z" fill="url(#paint44_linear_1011_8541)"/>
<path d="M162.812 224.393C162.36 224.655 161.617 224.655 161.165 224.393L156.144 221.496C155.692 221.233 155.692 220.804 156.144 220.541L161.165 217.645C161.617 217.382 162.36 217.382 162.812 217.645L167.833 220.541C168.285 220.804 168.285 221.233 167.833 221.496L162.812 224.393Z" fill="url(#paint45_linear_1011_8541)"/>
<path d="M116.778 171.133C116.326 171.396 115.583 171.396 115.131 171.133L110.105 168.237C109.653 167.974 109.653 167.544 110.105 167.282L115.131 164.385C115.583 164.123 116.326 164.123 116.778 164.385L121.805 167.282C122.257 167.544 122.257 167.974 121.805 168.237L116.778 171.133Z" fill="url(#paint46_linear_1011_8541)"/>
<path d="M109.072 166.685C108.619 166.947 107.876 166.947 107.419 166.685L98.5502 161.567C98.0978 161.304 98.0978 160.874 98.5502 160.612L103.576 157.715C104.029 157.453 104.771 157.453 105.224 157.715L114.092 162.834C114.545 163.096 114.545 163.526 114.092 163.788L109.072 166.685Z" fill="url(#paint47_linear_1011_8541)"/>
<path d="M124.466 175.565C124.014 175.827 123.271 175.827 122.813 175.565L117.792 172.668C117.34 172.406 117.34 171.976 117.792 171.714L122.813 168.817C123.265 168.555 124.008 168.555 124.466 168.817L129.487 171.714C129.939 171.976 129.939 172.406 129.487 172.668L124.466 175.565Z" fill="url(#paint48_linear_1011_8541)"/>
<path d="M132.154 180.003C131.701 180.265 130.958 180.265 130.5 180.003L125.48 177.106C125.028 176.843 125.028 176.414 125.48 176.157L130.5 173.26C130.953 172.998 131.696 172.998 132.154 173.26L137.174 176.157C137.626 176.419 137.626 176.849 137.174 177.111L132.154 180.003Z" fill="url(#paint49_linear_1011_8541)"/>
<path d="M139.835 184.44C139.383 184.702 138.64 184.702 138.188 184.44L133.167 181.543C132.715 181.281 132.715 180.851 133.167 180.589L138.188 177.692C138.64 177.43 139.383 177.43 139.835 177.692L144.862 180.589C145.314 180.851 145.314 181.281 144.862 181.543L139.835 184.44Z" fill="url(#paint50_linear_1011_8541)"/>
<path d="M147.518 188.872C147.066 189.134 146.323 189.134 145.865 188.872L140.839 185.975C140.387 185.712 140.387 185.283 140.839 185.02L145.865 182.124C146.318 181.861 147.061 181.861 147.518 182.124L152.539 185.02C152.991 185.283 152.991 185.712 152.539 185.975L147.518 188.872Z" fill="url(#paint51_linear_1011_8541)"/>
<path d="M155.208 193.309C154.756 193.571 154.013 193.571 153.561 193.309L148.535 190.412C148.082 190.15 148.082 189.72 148.535 189.458L153.561 186.561C154.013 186.298 154.756 186.298 155.208 186.561L160.229 189.458C160.681 189.72 160.681 190.15 160.229 190.412L155.208 193.309Z" fill="url(#paint52_linear_1011_8541)"/>
<path d="M162.896 197.746C162.443 198.009 161.701 198.009 161.243 197.746L156.222 194.85C155.77 194.587 155.77 194.157 156.222 193.895L161.248 190.998C161.701 190.736 162.443 190.736 162.896 190.998L167.916 193.895C168.369 194.157 168.369 194.587 167.916 194.85L162.896 197.746Z" fill="url(#paint53_linear_1011_8541)"/>
<path d="M170.585 202.178C170.133 202.44 169.39 202.44 168.938 202.178L163.917 199.281C163.465 199.019 163.465 198.589 163.917 198.327L168.938 195.43C169.39 195.168 170.133 195.168 170.591 195.43L175.612 198.327C176.064 198.589 176.064 199.019 175.612 199.281L170.585 202.178Z" fill="url(#paint54_linear_1011_8541)"/>
<path d="M178.271 206.616C177.818 206.878 177.076 206.878 176.618 206.616L171.597 203.719C171.145 203.456 171.145 203.027 171.597 202.764L176.618 199.867C177.07 199.605 177.813 199.605 178.271 199.867L183.291 202.764C183.744 203.027 183.744 203.456 183.291 203.719L178.271 206.616Z" fill="url(#paint55_linear_1011_8541)"/>
<path d="M185.958 211.053C185.506 211.315 184.763 211.315 184.305 211.053L179.285 208.156C178.832 207.894 178.832 207.464 179.285 207.202L184.305 204.305C184.757 204.042 185.5 204.042 185.958 204.305L190.979 207.202C191.431 207.464 191.431 207.894 190.979 208.156L185.958 211.053Z" fill="url(#paint56_linear_1011_8541)"/>
<path d="M193.648 215.484C193.196 215.747 192.453 215.747 192 215.484L186.98 212.588C186.528 212.325 186.528 211.895 186.98 211.633L192 208.736C192.453 208.474 193.196 208.474 193.653 208.736L198.674 211.633C199.126 211.895 199.126 212.325 198.674 212.588L193.648 215.484Z" fill="url(#paint57_linear_1011_8541)"/>
<path d="M201.333 219.922C200.881 220.184 200.138 220.184 199.68 219.922L194.66 217.025C194.207 216.763 194.207 216.333 194.66 216.071L199.68 213.174C200.132 212.911 200.875 212.911 201.333 213.174L206.359 216.071C206.812 216.333 206.812 216.763 206.359 217.025L201.333 219.922Z" fill="url(#paint58_linear_1011_8541)"/>
<path d="M209.021 224.359C208.568 224.622 207.826 224.622 207.368 224.359L202.347 221.463C201.895 221.2 201.895 220.77 202.347 220.508L207.373 217.611C207.826 217.349 208.568 217.349 209.026 217.611L214.047 220.508C214.499 220.77 214.499 221.2 214.047 221.463L209.021 224.359Z" fill="url(#paint59_linear_1011_8541)"/>
<path d="M110.896 176.609C110.443 176.871 109.701 176.871 109.248 176.609L104.222 173.712C103.77 173.45 103.77 173.02 104.222 172.758L109.248 169.861C109.701 169.598 110.443 169.598 110.896 169.861L115.922 172.758C116.374 173.02 116.374 173.45 115.922 173.707L110.896 176.609Z" fill="url(#paint60_linear_1011_8541)"/>
<path d="M103.212 172.171C102.76 172.434 102.017 172.434 101.565 172.171L90.8705 165.998C90.4182 165.736 90.4182 165.306 90.8705 165.049L95.8967 162.153C96.349 161.89 97.0918 161.89 97.5441 162.153L108.239 168.326C108.691 168.588 108.691 169.018 108.239 169.28L103.212 172.171Z" fill="url(#paint61_linear_1011_8541)"/>
<path d="M118.583 181.046C118.131 181.309 117.388 181.309 116.93 181.046L111.91 178.149C111.457 177.887 111.457 177.457 111.91 177.195L116.93 174.298C117.382 174.036 118.125 174.036 118.583 174.298L123.604 177.195C124.056 177.457 124.056 177.887 123.604 178.149L118.583 181.046Z" fill="url(#paint62_linear_1011_8541)"/>
<path d="M126.271 185.483C125.818 185.746 125.076 185.746 124.623 185.483L119.597 182.587C119.145 182.324 119.145 181.895 119.597 181.632L124.623 178.735C125.076 178.473 125.818 178.473 126.271 178.735L131.297 181.632C131.749 181.895 131.749 182.324 131.297 182.587L126.271 185.483Z" fill="url(#paint63_linear_1011_8541)"/>
<path d="M133.96 189.915C133.508 190.178 132.765 190.178 132.313 189.915L127.292 187.018C126.84 186.756 126.84 186.326 127.292 186.064L132.319 183.167C132.771 182.905 133.514 182.905 133.966 183.167L138.992 186.064C139.444 186.326 139.444 186.756 138.992 187.018L133.96 189.915Z" fill="url(#paint64_linear_1011_8541)"/>
<path d="M141.651 194.353C141.199 194.615 140.456 194.615 139.998 194.353L134.972 191.456C134.52 191.194 134.52 190.764 134.972 190.502L139.998 187.605C140.451 187.342 141.193 187.342 141.651 187.605L146.672 190.502C147.124 190.764 147.124 191.194 146.672 191.456L141.651 194.353Z" fill="url(#paint65_linear_1011_8541)"/>
<path d="M149.335 198.79C148.883 199.052 148.14 199.052 147.688 198.79L142.667 195.893C142.215 195.631 142.215 195.201 142.667 194.939L147.688 192.042C148.14 191.78 148.883 191.78 149.341 192.042L154.362 194.939C154.814 195.201 154.814 195.631 154.362 195.893L149.335 198.79Z" fill="url(#paint66_linear_1011_8541)"/>
<path d="M157.021 203.222C156.568 203.484 155.826 203.484 155.368 203.222L150.347 200.325C149.895 200.063 149.895 199.633 150.347 199.371L155.368 196.474C155.82 196.212 156.563 196.212 157.021 196.474L162.041 199.371C162.494 199.633 162.494 200.063 162.041 200.325L157.021 203.222Z" fill="url(#paint67_linear_1011_8541)"/>
<path d="M164.703 207.659C164.25 207.922 163.507 207.922 163.055 207.659L158.035 204.762C157.582 204.5 157.582 204.07 158.035 203.808L163.061 200.911C163.513 200.649 164.256 200.649 164.708 200.911L169.734 203.808C170.187 204.07 170.187 204.5 169.734 204.762L164.703 207.659Z" fill="url(#paint68_linear_1011_8541)"/>
<path d="M172.388 212.096C171.936 212.359 171.193 212.359 170.735 212.096L165.714 209.2C165.262 208.937 165.262 208.508 165.714 208.245L170.735 205.348C171.187 205.086 171.93 205.086 172.388 205.348L177.408 208.245C177.861 208.508 177.861 208.937 177.408 209.2L172.388 212.096Z" fill="url(#paint69_linear_1011_8541)"/>
<path d="M180.075 216.528C179.623 216.791 178.88 216.791 178.428 216.528L173.402 213.632C172.949 213.369 172.949 212.939 173.402 212.677L178.428 209.78C178.88 209.518 179.623 209.518 180.075 209.78L185.096 212.677C185.548 212.939 185.548 213.369 185.096 213.632L180.075 216.528Z" fill="url(#paint70_linear_1011_8541)"/>
<path d="M187.763 220.966C187.311 221.228 186.568 221.228 186.115 220.966L181.089 218.069C180.637 217.807 180.637 217.377 181.089 217.115L186.115 214.218C186.568 213.955 187.311 213.955 187.763 214.218L192.783 217.115C193.236 217.377 193.236 217.807 192.783 218.069L187.763 220.966Z" fill="url(#paint71_linear_1011_8541)"/>
<path d="M201.331 228.791C200.879 229.053 200.136 229.053 199.678 228.791L188.777 222.501C188.324 222.238 188.324 221.809 188.777 221.546L193.797 218.649C194.25 218.387 194.992 218.387 195.45 218.649L206.351 224.94C206.804 225.202 206.804 225.632 206.351 225.894L201.331 228.791Z" fill="url(#paint72_linear_1011_8541)"/>
<path d="M107.13 183.307C106.678 183.569 105.935 183.569 105.483 183.307L100.456 180.41C100.004 180.148 100.004 179.718 100.456 179.456L105.483 176.559C105.935 176.296 106.678 176.296 107.13 176.559L112.156 179.456C112.609 179.718 112.609 180.148 112.156 180.41L107.13 183.307Z" fill="url(#paint73_linear_1011_8541)"/>
<path d="M99.4264 178.864C98.974 179.126 98.2313 179.126 97.7734 178.864L83.1752 170.441C82.7228 170.179 82.7228 169.749 83.1752 169.487L88.2013 166.59C88.6537 166.327 89.3964 166.327 89.8488 166.59L104.447 175.012C104.899 175.275 104.899 175.705 104.447 175.967L99.4264 178.864Z" fill="url(#paint74_linear_1011_8541)"/>
<path d="M114.82 187.744C114.367 188.007 113.625 188.007 113.172 187.744L108.152 184.847C107.699 184.585 107.699 184.155 108.152 183.893L113.172 180.996C113.625 180.734 114.367 180.734 114.82 180.996L119.846 183.893C120.298 184.155 120.298 184.585 119.846 184.847L114.82 187.744Z" fill="url(#paint75_linear_1011_8541)"/>
<path d="M122.505 192.176C122.053 192.438 121.31 192.438 120.858 192.176L115.831 189.279C115.379 189.017 115.379 188.587 115.831 188.325L120.858 185.428C121.31 185.165 122.053 185.165 122.511 185.428L127.531 188.325C127.984 188.587 127.984 189.017 127.531 189.279L122.505 192.176Z" fill="url(#paint76_linear_1011_8541)"/>
<path d="M130.193 196.613C129.74 196.876 128.997 196.876 128.545 196.613L123.519 193.716C123.067 193.454 123.067 193.024 123.519 192.762L128.545 189.865C128.997 189.603 129.74 189.603 130.193 189.865L135.219 192.762C135.671 193.024 135.671 193.454 135.219 193.716L130.193 196.613Z" fill="url(#paint77_linear_1011_8541)"/>
<path d="M137.874 201.051C137.422 201.313 136.679 201.313 136.227 201.051L131.206 198.154C130.754 197.891 130.754 197.462 131.206 197.199L136.227 194.302C136.679 194.04 137.422 194.04 137.874 194.302L142.901 197.199C143.353 197.462 143.353 197.891 142.901 198.154L137.874 201.051Z" fill="url(#paint78_linear_1011_8541)"/>
<path d="M145.56 205.482C145.107 205.745 144.365 205.745 143.912 205.482L138.886 202.586C138.434 202.323 138.434 201.894 138.886 201.631L143.912 198.734C144.365 198.472 145.107 198.472 145.56 198.734L150.58 201.631C151.033 201.894 151.033 202.323 150.58 202.586L145.56 205.482Z" fill="url(#paint79_linear_1011_8541)"/>
<path d="M153.255 209.92C152.803 210.182 152.06 210.182 151.602 209.92L146.581 207.023C146.129 206.761 146.129 206.331 146.581 206.068L151.608 203.172C152.06 202.909 152.803 202.909 153.261 203.172L158.281 206.068C158.734 206.331 158.734 206.761 158.281 207.023L153.255 209.92Z" fill="url(#paint80_linear_1011_8541)"/>
<path d="M160.935 214.357C160.482 214.619 159.74 214.619 159.282 214.357L154.261 211.46C153.809 211.198 153.809 210.768 154.261 210.506L159.282 207.609C159.734 207.347 160.477 207.347 160.935 207.609L165.955 210.506C166.408 210.768 166.408 211.198 165.955 211.46L160.935 214.357Z" fill="url(#paint81_linear_1011_8541)"/>
<path d="M168.624 218.794C168.172 219.057 167.429 219.057 166.977 218.794L161.956 215.898C161.504 215.635 161.504 215.206 161.956 214.943L166.983 212.046C167.435 211.784 168.178 211.784 168.63 212.046L173.656 214.943C174.109 215.206 174.109 215.635 173.656 215.898L168.624 218.794Z" fill="url(#paint82_linear_1011_8541)"/>
<path d="M176.31 223.226C175.857 223.489 175.115 223.489 174.657 223.226L169.636 220.33C169.184 220.067 169.184 219.637 169.636 219.375L174.657 216.478C175.109 216.216 175.852 216.216 176.31 216.478L181.33 219.375C181.783 219.637 181.783 220.067 181.33 220.33L176.31 223.226Z" fill="url(#paint83_linear_1011_8541)"/>
<path d="M193.65 233.228C193.197 233.491 192.455 233.491 192.002 233.228L177.331 224.761C176.879 224.499 176.879 224.069 177.331 223.807L182.358 220.91C182.81 220.648 183.553 220.648 184.005 220.91L198.676 229.372C199.128 229.634 199.128 230.064 198.676 230.326L193.65 233.228Z" fill="url(#paint84_linear_1011_8541)"/>
<path opacity="0.15" d="M97.8516 150.325L105.357 154.64L123.317 144.119L116.002 139.899L97.8516 150.325Z" fill="black"/>
<path opacity="0.15" d="M246.481 215.133L237.607 210.015L220.055 220.899L228.286 225.626L246.481 215.133Z" fill="black"/>
<path opacity="0.15" d="M235.261 208.731L181.615 177.775L164.062 188.659L217.301 219.247L235.261 208.731Z" fill="black"/>
<path opacity="0.15" d="M179.292 176.202L125.646 145.246L108.094 156.136L161.332 186.723L179.292 176.202Z" fill="black"/>
<path d="M280.005 247.506L226.359 216.551V123.69L280.005 154.645V247.506Z" fill="#FBFBFB"/>
<path d="M259.819 173.288C259.897 170.826 260.188 164.86 260.048 163.805C259.908 162.75 259.093 157.877 258.736 157.313C258.373 156.744 255.229 153.077 253.374 152.485C251.515 151.894 249.46 152.764 248.924 153.59C248.387 154.416 246.444 157.196 246.455 157.955C246.466 158.714 246.494 164.821 246.455 165.725C246.416 166.629 246.003 168.421 246.003 168.421L243.797 171.033C243.797 171.033 245.098 172.545 248.717 174.895C252.341 177.245 262.941 181.967 262.941 181.967C262.941 181.967 259.741 175.755 259.819 173.288Z" fill="#951578"/>
<path d="M258.306 176.547C257.122 174.605 257.865 170.235 257.865 170.235L249.371 165.334C249.371 165.334 250.114 170.558 248.93 171.139C247.746 171.714 243.016 170.971 243.016 170.971V173.595L263.986 185.696V183.072C263.98 183.072 259.49 178.495 258.306 176.547Z" fill="#D8A681"/>
<path d="M253.46 171.423C254.75 172.166 255.745 171.853 256.906 171.557C258.073 171.262 258.889 170.385 259.492 167.645C260.095 164.899 259.726 163.637 259.911 162.75C260.1 161.862 260.592 157.38 258.492 153.484C256.688 150.141 254.393 148.701 253.46 148.159C252.528 147.618 250.233 146.418 248.429 147.674C246.323 149.136 246.82 154.193 247.01 155.298C247.194 156.403 246.826 157.235 247.429 160.679C248.038 164.123 248.853 165.937 250.015 167.578C251.176 169.219 252.165 170.676 253.46 171.423Z" fill="#FFCCA7"/>
<path opacity="0.2" d="M259.175 166.384C258.321 166.992 257.517 167.427 257.143 168.482C256.88 169.23 256.623 170.598 256.109 171.753C256.366 171.697 256.634 171.625 256.908 171.558C258.075 171.262 258.891 170.385 259.494 167.645C259.678 166.791 259.773 166.082 259.818 165.485C259.628 165.887 259.41 166.222 259.175 166.384Z" fill="#D8A681"/>
<path opacity="0.2" d="M247.69 159.758C247.484 159.373 247.288 158.865 247.109 158.307C247.16 158.932 247.255 159.702 247.422 160.679C248.031 164.123 248.846 165.937 250.008 167.578C250.259 167.93 250.499 168.27 250.734 168.599C250.231 166.88 249.985 165.245 249.723 164.207C249.349 162.711 248.545 161.349 247.69 159.758Z" fill="#D8A681"/>
<path d="M259.623 178.144C258.892 178.786 257.116 179.567 253.463 177.457C249.845 175.37 247.951 172.584 247.136 171.089C245.645 171.206 242.249 170.938 241.484 170.871C244.517 176.235 248.761 180.934 253.463 183.653C258.177 186.371 262.432 186.566 265.465 184.685C264.577 183.742 261.086 179.991 259.623 178.144Z" fill="#FE61CA"/>
<path d="M243.797 171.038C247.818 170.793 248.561 167.064 247.706 163.235C246.852 159.406 248.633 157.084 249.934 157.525C256.803 159.864 257.479 156.532 257.479 156.532C256.982 159.367 253.486 159.055 253.486 159.055C253.486 159.055 257.675 159.563 258.239 157.771C257.736 159.01 258.641 161.338 259.16 162.549C259.797 164.05 259.719 167.539 258.708 170.023C257.697 172.506 260.472 179.037 262.952 181.962C262.952 181.962 260.808 174.538 261.238 169.397C261.668 164.251 262.444 163.073 260.104 155.94C259.004 152.591 256.519 149.125 253.587 147.434C250.655 145.743 247.187 146.429 246.081 149.867C244.121 155.963 245.645 160.344 245.645 164.089C245.64 166.043 244.495 170.324 243.797 171.038Z" fill="#C747AA"/>
<path d="M275.754 213.76L232.172 188.615V187.108L275.754 212.258V213.76Z" fill="#0984BD"/>
<path d="M275.754 217.968L232.172 192.823V191.316L275.754 216.467V217.968Z" fill="#0984BD"/>
<path d="M275.754 222.183L232.172 197.032V195.531L275.754 220.676V222.183Z" fill="#0984BD"/>
<path d="M275.754 226.391L232.172 201.24V199.739L275.754 224.884V226.391Z" fill="#0984BD"/>
<path d="M257.09 219.833L232.172 205.455V203.948L257.09 218.326V219.833Z" fill="#0984BD"/>
<path d="M242.194 182.107L242.875 184.099L244.405 185.238L243.299 185.846L243.562 187.755L242.194 186.137L240.825 186.176L241.082 184.568L239.977 182.682L241.507 183.312L242.194 182.107Z" fill="#E89D5D"/>
<path d="M248.071 185.5L248.758 187.493L250.288 188.637L249.177 189.24L249.439 191.149L248.071 189.53L246.703 189.569L246.965 187.962L245.859 186.081L247.39 186.706L248.071 185.5Z" fill="#E89D5D"/>
<path d="M253.959 188.894L254.641 190.892L256.171 192.031L255.065 192.639L255.327 194.548L253.959 192.924L252.591 192.968L252.854 191.361L251.742 189.474L253.272 190.099L253.959 188.894Z" fill="#E89D5D"/>
<path d="M259.85 192.293L260.531 194.286L262.061 195.424L260.956 196.033L261.218 197.941L259.844 196.323L258.476 196.362L258.739 194.754L257.633 192.868L259.163 193.499L259.85 192.293Z" fill="#E89D5D"/>
<path d="M265.727 195.687L266.414 197.679L267.944 198.818L266.833 199.426L267.095 201.335L265.727 199.716L264.359 199.755L264.621 198.148L263.516 196.267L265.046 196.892L265.727 195.687Z" fill="#D6D1EA"/>
<path d="M224.005 215.228L170.359 184.273V91.4119L224.005 122.367V215.228Z" fill="#FBFBFB"/>
<path d="M203.118 146.524C202.303 144.861 203.118 138.448 203.118 138.448L191.625 131.817C191.625 131.817 192.44 139.173 191.625 139.893C191.625 139.893 194.043 145.023 196.986 146.798C199.929 148.578 203.118 146.524 203.118 146.524Z" fill="#D9A782"/>
<path d="M190.515 125.136C190.515 125.136 190.281 123.992 189.761 123.612C189.242 123.233 188.695 123.674 189.052 125.873C189.409 128.066 189.761 128.574 189.901 129.143C190.04 129.713 190.571 130.779 191.051 129.886L190.515 125.136Z" fill="#F2A983"/>
<path opacity="0.5" d="M190.515 125.136C190.515 125.136 190.281 123.992 189.761 123.612C189.242 123.233 188.695 123.674 189.052 125.873C189.409 128.066 189.761 128.574 189.901 129.143C190.04 129.713 190.571 130.779 191.051 129.886L190.515 125.136Z" fill="#D88F69"/>
<path opacity="0.5" d="M190.515 125.136C190.515 125.136 190.281 123.992 189.761 123.612C189.242 123.233 188.695 123.674 189.052 125.873C189.409 128.066 189.761 128.574 189.901 129.143C190.04 129.713 190.571 130.779 191.051 129.886L190.515 125.136Z" fill="#D9A782"/>
<path d="M204.106 132.978C204.106 132.978 204.341 132.102 204.86 132.325C205.38 132.548 205.927 133.62 205.57 135.406C205.218 137.192 204.86 137.287 204.721 137.7C204.587 138.113 204.051 138.56 203.57 137.114L204.106 132.978Z" fill="#FFCDA8"/>
<path d="M197.363 116.412C199.938 117.897 202.747 121.179 203.869 124.751C204.992 128.329 204.551 130.41 204.484 131.41C204.417 132.409 204.26 134.022 204.037 135.227C203.814 136.433 203.752 138.716 203.305 140.011C202.864 141.306 201.976 141.317 200.837 141.618C199.698 141.925 197.933 141.417 197.363 141.082C196.788 140.753 195.023 139.224 193.884 137.605C192.745 135.986 191.857 134.948 191.416 133.145C190.969 131.343 190.908 128.982 190.684 127.519C190.461 126.062 190.304 124.265 190.243 123.188C190.176 122.111 189.735 119.515 190.857 117.238C191.98 114.961 194.789 114.922 197.363 116.412Z" fill="#FFCDA8"/>
<path opacity="0.2" d="M200.841 141.618C201.981 141.317 202.869 141.3 203.31 140.011C203.756 138.716 203.818 136.433 204.041 135.227C204.265 134.022 204.421 132.409 204.488 131.409C204.505 131.136 204.555 130.779 204.589 130.332L204.108 130.159C204.108 130.159 204.086 133.888 203.477 134.597C202.869 135.305 201.819 135.763 201.757 137.158C201.696 138.548 201.333 141.774 198.323 141.423C198.272 141.417 198.222 141.412 198.172 141.412C198.959 141.652 200.054 141.83 200.841 141.618Z" fill="#FFCDA8"/>
<path d="M204.796 128.619C205.098 126.821 205.081 119.917 197.357 115.558C189.634 111.003 189.612 117.885 189.919 120.034C190.109 121.385 189.623 123.255 189.852 123.662C189.852 123.662 190.181 123.941 190.259 124.326C190.338 124.712 190.466 125.873 190.466 125.873C190.466 125.873 190.729 123.115 190.851 122.317C190.98 121.519 191.064 121.396 191.153 120.068C191.242 118.739 191.611 118.03 192.532 117.958C193.454 117.885 196.079 120.297 196.983 120.961L197.737 121.396C198.642 121.77 201.261 122.39 202.188 123.528C203.11 124.667 203.478 125.8 203.568 127.229C203.657 128.663 203.741 128.881 203.864 129.824C203.992 130.768 204.243 133.821 204.243 133.821C204.243 133.821 204.366 132.805 204.444 132.509C204.523 132.219 204.852 132.319 204.852 132.319C205.092 132.18 204.606 129.746 204.796 128.619Z" fill="#3F02A8"/>
<path d="M200.005 120.922L193.242 117.02L190.812 117.645C199.943 127.285 203.892 124.645 203.892 124.645L200.005 120.922Z" fill="#3F02A8"/>
<path d="M190.516 138.599V145.866C192.632 148.199 194.978 150.18 197.457 151.609C200.009 153.083 202.428 153.814 204.594 153.887V146.72L197.346 145.414L190.516 138.599Z" fill="#D6D1EA"/>
<path d="M197.374 145.436L194.414 145.391L196.514 149.862L196.413 150.967C196.76 151.191 197.106 151.408 197.452 151.609C197.687 151.743 197.916 151.866 198.145 151.989L198.094 150.772L200.328 148.657L197.374 145.436Z" fill="#C747AA"/>
<path d="M197.373 145.436L191.861 136.578L189.594 138.515L194.631 147.808L197.373 145.436Z" fill="#F0EBFF"/>
<path d="M197.336 145.414L202.848 142.919L205.121 147.473L200.078 150.951L197.336 145.414Z" fill="#F0EBFF"/>
<path d="M183.531 135.021C185.402 139.313 188.094 143.388 191.249 146.664C190.339 140.256 190.964 136.857 190.964 136.857L183.531 135.021Z" fill="#535FE9"/>
<path d="M211.28 151.179L203.439 144.046C203.439 144.046 204.07 148.188 203.148 153.747C206.471 154.277 209.308 153.351 211.28 151.179Z" fill="#535FE9"/>
<path d="M219.754 181.806L176.172 156.655V155.154L219.754 180.299V181.806Z" fill="#0984BD"/>
<path d="M219.754 186.014L176.172 160.869V159.362L219.754 184.513V186.014Z" fill="#0984BD"/>
<path d="M219.754 190.223L176.172 165.078V163.571L219.754 188.721V190.223Z" fill="#0984BD"/>
<path d="M219.754 194.431L176.172 169.286V167.779L219.754 192.93V194.431Z" fill="#0984BD"/>
<path d="M201.09 187.873L176.172 173.495V171.993L201.09 186.371V187.873Z" fill="#0984BD"/>
<path d="M186.188 150.147L186.875 152.145L188.405 153.284L187.299 153.887L187.562 155.801L186.188 154.177L184.825 154.222L185.082 152.614L183.977 150.727L185.507 151.353L186.188 150.147Z" fill="#E89D5D"/>
<path d="M192.071 153.546L192.758 155.539L194.288 156.677L193.177 157.286L193.439 159.195L192.071 157.576L190.703 157.615L190.965 156.008L189.859 154.121L191.39 154.746L192.071 153.546Z" fill="#E89D5D"/>
<path d="M197.959 156.94L198.641 158.932L200.171 160.071L199.065 160.679L199.327 162.588L197.959 160.97L196.591 161.009L196.848 159.401L195.742 157.52L197.272 158.145L197.959 156.94Z" fill="#E89D5D"/>
<path d="M203.844 160.333L204.531 162.331L206.061 163.47L204.956 164.073L205.218 165.982L203.844 164.363L202.476 164.408L202.739 162.795L201.633 160.914L203.163 161.539L203.844 160.333Z" fill="#D6D1EA"/>
<path d="M209.727 163.727L210.414 165.725L211.944 166.864L210.833 167.472L211.095 169.381L209.727 167.762L208.359 167.801L208.621 166.194L207.516 164.307L209.04 164.932L209.727 163.727Z" fill="#D6D1EA"/>
<path d="M112.039 150.666L58.3984 119.716V26.8496L112.044 57.805L112.039 150.666Z" fill="#FBFBFB"/>
<path d="M107.793 117.243L64.2109 92.0928V90.5913L107.793 115.742V117.243Z" fill="#0984BD"/>
<path d="M107.793 121.452L64.2109 96.3068V94.7998L107.793 119.95V121.452Z" fill="#0984BD"/>
<path d="M107.793 125.66L64.2109 100.515V99.0083L107.793 124.159V125.66Z" fill="#0984BD"/>
<path d="M107.793 129.874L64.2109 104.724V103.222L107.793 128.367V129.874Z" fill="#0984BD"/>
<path d="M89.135 123.316L64.2109 108.932V107.431L89.135 121.809V123.316Z" fill="#0984BD"/>
<path d="M90.9897 81.8561C90.1799 80.2152 90.9897 73.8689 90.9897 73.8689L79.625 67.3105C79.625 67.3105 80.4348 74.5889 79.625 75.2978C79.625 75.2978 82.0152 80.3659 84.9248 82.1296C87.8344 83.8822 90.9897 81.8561 90.9897 81.8561Z" fill="#D9A782"/>
<path d="M78.5275 60.702C78.5275 60.702 78.2985 59.5689 77.7847 59.1949C77.2709 58.821 76.7292 59.2563 77.081 61.4276C77.4329 63.5988 77.7847 64.1011 77.9187 64.6649C78.0528 65.2286 78.5833 66.2835 79.058 65.3961L78.5275 60.702Z" fill="#F2A983"/>
<path opacity="0.5" d="M78.5275 60.702C78.5275 60.702 78.2985 59.5689 77.7847 59.1949C77.2709 58.821 76.7292 59.2563 77.081 61.4276C77.4329 63.5988 77.7847 64.1011 77.9187 64.6649C78.0528 65.2286 78.5833 66.2835 79.058 65.3961L78.5275 60.702Z" fill="#D88F69"/>
<path opacity="0.5" d="M78.5275 60.702C78.5275 60.702 78.2985 59.5689 77.7847 59.1949C77.2709 58.821 76.7292 59.2563 77.081 61.4276C77.4329 63.5988 77.7847 64.1011 77.9187 64.6649C78.0528 65.2286 78.5833 66.2835 79.058 65.3961L78.5275 60.702Z" fill="#D9A782"/>
<path d="M85.3027 52.0727C87.8493 53.5407 90.6304 56.7836 91.7362 60.3223C92.8475 63.861 92.4119 65.9206 92.3449 66.9085C92.2835 67.8965 92.1271 69.4928 91.9037 70.6817C91.6859 71.8706 91.6189 74.1311 91.1777 75.4093C90.7366 76.6875 89.8598 76.6986 88.7373 77C87.6148 77.3014 85.8668 76.7991 85.2972 76.4698C84.7331 76.1405 82.9851 74.6279 81.857 73.0315C80.7345 71.4352 79.8522 70.4026 79.4166 68.6221C78.9754 66.836 78.914 64.5029 78.6906 63.0573C78.4728 61.6116 78.3164 59.8367 78.2494 58.7762C78.1824 57.7101 77.7468 55.1482 78.8581 52.8932C79.9806 50.6382 82.7562 50.6048 85.3027 52.0727Z" fill="#FFCCA7"/>
<path opacity="0.5" d="M84.2624 75.6605C81.2859 72.5739 80.9284 68.9738 80.867 67.5226C80.8056 66.0714 79.7668 64.4192 79.1637 63.0238C78.5606 61.6284 78.5382 57.9167 78.5382 57.9167L78.1641 57.6208C78.1976 58.0953 78.2422 58.4916 78.259 58.7762C78.326 59.8367 78.4768 61.6117 78.7002 63.0573C78.918 64.5029 78.985 66.836 79.4262 68.6221C79.8674 70.4082 80.7441 71.4353 81.8667 73.0316C82.5703 74.0363 83.5141 74.9963 84.2624 75.6605Z" fill="#D88F69"/>
<path opacity="0.2" d="M88.7431 77.0057C89.8656 76.7043 90.7479 76.6931 91.1835 75.4149C91.6247 74.1368 91.6862 71.8762 91.9095 70.6873C92.1273 69.4985 92.2837 67.9021 92.3507 66.9142C92.3675 66.6407 92.4122 66.2891 92.4513 65.8481L91.9766 65.6807C91.9766 65.6807 91.9542 69.3701 91.3511 70.0734C90.7479 70.7766 89.7092 71.2288 89.6478 72.6074C89.5864 73.9861 89.2289 77.1676 86.2523 76.8215C86.2021 76.8159 86.1518 76.8103 86.1016 76.8103C86.8778 77.0336 87.9612 77.2122 88.7431 77.0057Z" fill="#D88F69"/>
<path d="M92.6549 64.1458C92.9565 62.3653 92.9397 55.539 85.3 51.23C77.6602 46.7257 77.6435 53.5296 77.9451 55.6562C78.1349 56.9902 77.6547 58.8433 77.8836 59.2452C77.8836 59.2452 78.2075 59.5187 78.2857 59.9038C78.3639 60.2833 78.4923 61.4331 78.4923 61.4331C78.4923 61.4331 78.7492 58.7093 78.8777 57.9167C79.0005 57.1242 79.0843 57.0069 79.1737 55.6897C79.263 54.378 79.626 53.6747 80.5419 53.6022C81.4578 53.5296 84.049 55.913 84.9426 56.5716L85.6909 57.0014C86.5844 57.3753 89.1813 57.9837 90.0916 59.1112C91.0019 60.2387 91.3704 61.3606 91.4542 62.7727C91.5436 64.1904 91.6273 64.4081 91.7502 65.3402C91.8731 66.2724 92.1244 69.292 92.1244 69.292C92.1244 69.292 92.2416 68.2817 92.3254 67.9971C92.4036 67.7068 92.7275 67.8073 92.7275 67.8073C92.9453 67.6678 92.465 65.2621 92.6549 64.1458Z" fill="#3F02A8"/>
<path d="M78.5312 74.0139V81.2588C80.592 83.5138 82.8761 85.4282 85.283 86.8125C87.852 88.2916 90.2813 89.0228 92.4481 89.073V82.0458L85.283 80.7565L78.5312 74.0139Z" fill="#D6D1EA"/>
<path d="M85.317 80.7788L82.3906 80.7341L84.4625 85.1547L84.1442 86.1148C84.5184 86.3604 84.8981 86.6004 85.2834 86.8236C85.5906 87.0022 85.8922 87.1641 86.1937 87.3204L86.0262 86.0645L88.2377 83.9715L85.317 80.7788Z" fill="#535FE9"/>
<path d="M85.3105 80.7787L79.86 72.0212L77.6094 73.9301L82.5964 83.123L85.3105 80.7787Z" fill="#F0EBFF"/>
<path d="M85.2812 80.762L90.7318 78.2949L92.9768 82.7937L87.9898 86.2319L85.2812 80.762Z" fill="#F0EBFF"/>
<path d="M71.7031 70.8381C73.641 75.1359 76.3886 79.1938 79.6053 82.3976C78.2148 76.4141 78.9743 72.2893 78.9743 72.2893L71.7031 70.8381Z" fill="#1B6C7F"/>
<path d="M98.917 86.4274L91.3052 79.4001C91.3052 79.4001 92.0759 84.4794 90.6406 88.8777C94.0249 89.5028 96.9177 88.6098 98.917 86.4274Z" fill="#1B6C7F"/>
<path d="M85.3167 69.5319C85.6852 69.7105 87.5673 71.0221 87.8632 71.6417C88.1592 72.2613 88.8685 73.1041 89.2371 73.612C89.6056 74.1199 89.9631 74.1869 90.5941 73.6567C90.717 73.5506 91.1079 72.4789 91.2308 72.105C91.3536 71.7254 92.0517 68.2928 92.0517 68.2928L92.2583 68.5495C92.2583 68.5495 91.6664 71.0724 91.7725 71.7757C91.8786 72.4789 91.7669 75.8279 90.6779 76.7935C89.5945 77.7591 90.3372 80.5722 85.3167 77.6754C80.2961 74.7786 81.0444 72.825 79.9554 70.6091C78.872 68.3932 78.7548 64.9103 78.8609 64.3298C78.967 63.7549 78.375 60.5455 78.375 60.5455L78.5816 60.5232C78.5816 60.5232 79.2797 64.7596 79.4026 65.2843C79.5254 65.8034 79.9163 67.3216 80.0392 67.5727C80.6703 68.8342 81.0221 69.1746 81.3963 69.0965C81.7649 69.0184 82.4797 68.996 82.7701 68.717C83.0605 68.4379 84.9537 69.2863 85.3167 69.5319Z" fill="#3F02A8"/>
<path d="M85.0351 72.6242C85.8839 73.0931 86.3698 74.2485 86.716 74.5499C87.0623 74.8457 87.6654 74.8178 87.8218 74.4885C87.9782 74.1592 87.5426 73.2773 87.1684 72.7191C86.7887 72.161 85.5209 71.4298 85.0407 71.1116C84.566 70.8772 83.2927 70.1404 82.9129 70.2632C82.5332 70.3804 82.1032 70.7711 82.2595 71.2735C82.4159 71.7814 83.019 72.507 83.3597 72.6075C83.7004 72.7079 84.1862 72.1163 85.0351 72.6242Z" fill="#F2A983"/>
<path d="M74.2271 85.5845L74.914 87.5827L76.4442 88.7213L75.3329 89.3297L75.5954 91.2386L74.2271 89.6144L72.8589 89.659L73.1214 88.0515L72.0156 86.165L73.5402 86.7901L74.2271 85.5845Z" fill="#E89D5D"/>
<path d="M80.1155 88.9836L80.7968 90.9763L82.327 92.1149L81.2213 92.7233L81.4838 94.6322L80.1155 93.0135L78.7473 93.0526L79.0042 91.4451L77.8984 89.5585L79.4286 90.1893L80.1155 88.9836Z" fill="#E89D5D"/>
<path d="M85.9927 92.3772L86.6797 94.3698L88.2098 95.514L87.0985 96.1169L87.361 98.0257L85.9927 96.4071L84.6245 96.4462L84.887 94.8387L83.7812 92.9577L85.3114 93.5828L85.9927 92.3772Z" fill="#E89D5D"/>
<path d="M91.8811 95.7708L92.5625 97.769L94.0926 98.9076L92.9869 99.5104L93.2494 101.425L91.8811 99.8006L90.5129 99.8453L90.7754 98.2378L89.6641 96.3512L91.1942 96.9764L91.8811 95.7708Z" fill="#E89D5D"/>
<path d="M97.764 99.1699L98.4453 101.163L99.9755 102.301L98.8697 102.91L99.1322 104.818L97.764 103.2L96.3902 103.239L96.6526 101.631L95.5469 99.7448L97.0771 100.37L97.764 99.1699Z" fill="#E89D5D"/>
<path d="M92.1689 68.2371C92.1689 68.2371 92.4035 67.3608 92.9229 67.584C93.4422 67.8073 93.9895 68.879 93.6321 70.6651C93.2747 72.4512 92.9173 72.546 92.7832 72.9591C92.6492 73.3721 92.1131 73.8186 91.6328 72.373L92.1689 68.2371Z" fill="#FFCDA8"/>
<path d="M168.039 182.86L114.398 151.905V59.0386L168.044 89.994L168.039 182.86Z" fill="#FBFBFB"/>
<path d="M150.984 104.115C150.984 104.115 151.464 108.608 149.481 110.428L149.303 109.172C149.303 109.172 148.588 111.165 145.153 110.054C141.719 108.943 136.24 104.366 135.559 101.961C135.559 101.961 135.939 103.524 136.168 103.903C136.168 103.903 133.191 99.0639 133.292 96.8145C133.392 94.5651 135.81 91.5902 135.81 91.5902L141.534 87.7166L144.963 89.1678C144.963 89.1678 148.873 93.1028 148.917 93.287C148.973 93.4656 150.984 104.115 150.984 104.115Z" fill="#00005C"/>
<path d="M146.595 112.376C145.411 110.434 146.154 106.063 146.154 106.063L137.66 101.163C137.66 101.163 138.403 106.387 137.219 106.967C136.035 107.542 131.305 106.8 131.305 106.8L133.561 112.091L149.583 121.334L152.275 118.895C152.275 118.895 147.779 114.318 146.595 112.376Z" fill="#D8A681"/>
<path d="M141.751 107.252C143.041 107.994 144.035 107.682 145.202 107.386C146.369 107.09 147.179 106.214 147.788 103.473C148.391 100.727 148.022 99.4658 148.207 98.5783C148.391 97.6908 148.888 93.2088 146.783 89.3129C144.979 85.9695 142.683 84.5295 141.751 83.988C140.818 83.4466 138.523 82.2466 136.719 83.5025C134.614 84.9648 135.111 90.0217 135.295 91.1269C135.485 92.2265 135.111 93.0637 135.714 96.5075C136.317 99.9514 137.132 101.765 138.3 103.406C139.467 105.047 140.461 106.504 141.751 107.252Z" fill="#FFCCA7"/>
<path opacity="0.2" d="M147.472 102.212C146.618 102.821 145.814 103.256 145.439 104.311C145.177 105.059 144.92 106.432 144.406 107.582C144.669 107.526 144.931 107.453 145.205 107.386C146.372 107.09 147.182 106.214 147.791 103.474C147.98 102.62 148.07 101.911 148.12 101.313C147.919 101.715 147.701 102.05 147.472 102.212Z" fill="#D8A681"/>
<path opacity="0.2" d="M135.987 95.5867C135.78 95.2016 135.585 94.6937 135.406 94.1355C135.457 94.7606 135.551 95.5309 135.719 96.5077C136.322 99.9515 137.137 101.766 138.305 103.407C138.556 103.758 138.796 104.099 139.036 104.428C138.534 102.709 138.288 101.073 138.025 100.035C137.646 98.5394 136.841 97.1775 135.987 95.5867Z" fill="#D8A681"/>
<path d="M147.918 113.972C147.186 114.614 145.41 118.667 141.758 116.557C138.139 114.469 136.246 108.408 135.431 106.917C133.744 107.051 129.617 106.688 129.617 106.688V106.744C132.638 112.03 136.838 116.646 141.484 119.331C146.237 122.071 150.526 122.244 153.558 120.313C152.447 119.119 149.292 115.703 147.918 113.972Z" fill="#535FE9"/>
<path d="M135.468 92.2711C135.468 92.2711 135.25 91.205 134.77 90.8534C134.284 90.5017 133.776 90.9148 134.105 92.9576C134.434 95.0005 134.77 95.4693 134.892 95.9996C135.021 96.5298 135.518 97.5234 135.965 96.6917L135.468 92.2711Z" fill="#D8A681"/>
<path d="M148.106 99.5662C148.106 99.5662 148.324 98.7513 148.81 98.9578C149.296 99.1644 149.804 100.163 149.469 101.827C149.14 103.49 148.804 103.574 148.682 103.959C148.553 104.344 148.056 104.763 147.609 103.412L148.106 99.5662Z" fill="#FFCCA7"/>
<path d="M142.032 116.975L135.721 106.577H134.141L138.335 117.159C138.765 117.5 139.195 117.829 139.636 118.136L142.032 116.975Z" fill="#7A86FF"/>
<path d="M141.789 116.836L144.107 120.603C144.632 120.81 145.151 120.988 145.659 121.128L149.675 115.546L148.1 113.727L141.789 116.836Z" fill="#7A86FF"/>
<path d="M143.689 89.2793C143.622 89.2737 146.626 91.9417 147.441 95.6312C148.251 99.3206 148.994 89.6086 143.689 89.2793Z" fill="#00005C"/>
<path d="M144.872 90.6134C144.872 90.6134 143.18 87.8505 142.046 89.9827C141.343 91.3055 140.298 94.8889 137.193 94.4424C137.193 94.4424 134.088 96.4908 136.049 101.146C136.049 101.146 134.217 99.1532 134.016 97.2276C134.016 97.2276 133.48 97.9811 133.859 99.5718C133.859 99.5718 132.257 96.8703 132.692 94.3084C133.122 91.752 133.072 85.7798 134.753 83.8988C136.434 82.0178 141.65 80.4717 145.034 85.9807C145.034 85.9807 148.139 87.5826 149.513 92.2488C150.887 96.9094 150.758 96.8369 150.965 98.4834C151.166 100.13 150.608 105.706 152.311 107.157C152.311 107.157 151.054 105.946 150.658 104.707C150.658 104.707 150.63 108.625 148.111 107.888C148.111 107.888 149.664 106.599 149.435 104.344C149.206 102.089 147.424 98.4444 147.475 96.3792C147.525 94.314 147.369 89.6813 144.872 90.6134Z" fill="#190082"/>
<path d="M163.793 149.432L120.211 124.287V122.78L163.793 147.931V149.432Z" fill="#0984BD"/>
<path d="M163.793 153.646L120.211 128.496V126.994L163.793 152.139V153.646Z" fill="#0984BD"/>
<path d="M163.793 157.855L120.211 132.704V131.203L163.793 156.348V157.855Z" fill="#0984BD"/>
<path d="M163.793 162.063L120.211 136.913V135.411L163.793 160.556V162.063Z" fill="#0984BD"/>
<path d="M145.135 155.505L120.211 141.127V139.62L145.135 154.004V155.505Z" fill="#0984BD"/>
<path d="M130.227 117.779L130.914 119.772L132.444 120.91L131.333 121.519L131.595 123.428L130.227 121.809L128.859 121.848L129.121 120.241L128.016 118.36L129.546 118.985L130.227 117.779Z" fill="#E89D5D"/>
<path d="M136.116 121.173L136.797 123.171L138.327 124.309L137.221 124.912L137.484 126.821L136.116 125.203L134.747 125.242L135.004 123.634L133.898 121.753L135.429 122.378L136.116 121.173Z" fill="#E89D5D"/>
<path d="M141.993 124.566L142.68 126.564L144.21 127.703L143.104 128.311L143.361 130.22L141.993 128.602L140.625 128.641L140.887 127.033L139.781 125.147L141.311 125.772L141.993 124.566Z" fill="#E89D5D"/>
<path d="M147.883 127.965L148.565 129.958L150.1 131.097L148.989 131.705L149.252 133.614L147.883 131.995L146.515 132.034L146.778 130.427L145.672 128.546L147.196 129.171L147.883 127.965Z" fill="#E89D5D"/>
<path d="M153.764 131.359L154.445 133.352L155.975 134.496L154.87 135.099L155.132 137.007L153.764 135.389L152.396 135.428L152.653 133.82L151.547 131.939L153.077 132.565L153.764 131.359Z" fill="#E89D5D"/>
<path d="M226.125 86.7567C226.125 88.8442 227.605 91.4062 229.409 92.4443L241.17 99.2316C242.979 100.275 244.454 99.4213 244.454 97.3338V83.765C244.454 81.6775 242.974 79.1155 241.17 78.0718L229.409 71.2846C227.599 70.2408 226.125 71.0948 226.125 73.1823V86.7567Z" fill="#FFD22E"/>
<path d="M244.467 97.3393V83.7649C244.467 81.6774 242.987 79.1154 241.184 78.0717L229.422 71.2845C228.629 70.8268 227.898 70.7319 227.328 70.9552L229.311 69.7384C229.908 69.3588 230.757 69.3923 231.684 69.9281L243.445 76.7153C245.255 77.7591 246.729 80.321 246.735 82.4086V95.983C246.735 97.0546 246.349 97.797 245.724 98.1319L243.546 99.4324C244.11 99.0752 244.467 98.3551 244.467 97.3393Z" fill="#EBAC08"/>
<path d="M239.574 82.4757L238.926 81.3538L237.43 82.2189C237.692 82.565 237.938 82.9222 238.156 83.3017L239.574 82.4757Z" fill="white"/>
<path d="M232.699 79.4839L231.202 76.8997L230.555 77.2736L231.973 79.7295C232.191 79.6011 232.437 79.523 232.699 79.4839Z" fill="white"/>
<path d="M235.523 80.3547V77.7593L234.602 77.229V79.8244C234.752 79.8914 234.903 79.9472 235.059 80.0365C235.221 80.1258 235.367 80.2486 235.523 80.3547Z" fill="white"/>
<path d="M229.148 81.4431L230.69 82.3306C230.707 81.9733 230.757 81.6496 230.835 81.3538L229.148 80.3826V81.4431Z" fill="white"/>
<path d="M239.289 86.2375C239.367 86.6283 239.418 87.0078 239.434 87.3818L240.976 88.2692V87.2087L239.289 86.2375Z" fill="white"/>
<path d="M235.062 81.2477C233.213 80.1816 231.711 81.0468 231.711 83.1789C231.711 84.1892 232.147 85.2609 232.593 86.299C233.051 87.3707 233.649 88.0349 233.649 88.9726C233.649 89.5977 233.649 90.9652 233.649 90.9652C233.649 91.4062 233.962 91.9532 234.347 92.1708L235.788 93.0025C236.173 93.2258 236.486 93.0416 236.486 92.6006C236.486 92.6006 236.486 91.2331 236.486 90.608C236.486 89.6703 237.083 89.6926 237.536 89.1512C237.982 88.6266 238.418 88.0516 238.418 87.047C238.412 84.9092 236.91 82.3138 235.062 81.2477ZM236.871 86.8069C236.871 86.8069 237.29 85.2441 235.335 82.0738C235.335 82.0738 237.971 83.8766 237.899 87.3986L236.871 86.8069Z" fill="white"/>
<path d="M131.141 32.2694C131.141 34.3569 132.621 36.9189 134.424 37.957L146.186 44.7442C147.995 45.788 149.475 44.934 149.475 42.8465V29.2777C149.475 27.1902 147.995 24.6282 146.186 23.5901L134.43 16.7973C132.621 15.7535 131.146 16.6075 131.146 18.695V32.2694H131.141Z" fill="#77D2FF"/>
<path d="M149.475 42.852V29.2776C149.475 27.1901 147.995 24.6281 146.186 23.5899L134.43 16.7972C133.637 16.3395 132.906 16.2446 132.336 16.4678L134.318 15.2511C134.916 14.8715 135.765 14.905 136.698 15.4408L148.459 22.228C150.268 23.2718 151.742 25.8337 151.748 27.9157V41.4901C151.748 42.5617 151.357 43.3041 150.737 43.639L148.559 44.9395C149.123 44.5878 149.475 43.8678 149.475 42.852Z" fill="#51ACD9"/>
<path d="M143.285 34.3848L140.772 35.8305L138.259 31.4824C136.818 31.6387 135.852 32.9001 135.852 34.9709L145.686 40.6418C145.692 38.5766 144.725 36.2044 143.285 34.3848Z" fill="#F5F5F5"/>
<path d="M140.773 31.6164C142.755 32.7606 144.358 31.8341 144.358 29.5456C144.358 27.2572 142.75 24.4776 140.773 23.3333C138.79 22.1891 137.188 23.1156 137.188 25.4041C137.188 27.6925 138.796 30.4722 140.773 31.6164Z" fill="#F5F5F5"/>
<path d="M202.57 73.2213C202.57 75.3088 204.05 77.8708 205.86 78.9089L217.621 85.6961C219.43 86.7399 220.91 85.8859 220.91 83.7984V70.2296C220.91 68.1421 219.43 65.5801 217.621 64.5364L205.86 57.7492C204.05 56.7054 202.57 57.5594 202.57 59.6469V73.2213Z" fill="#9013B9"/>
<path d="M220.903 83.8039V70.2295C220.903 68.142 219.423 65.58 217.613 64.5363L205.852 57.7491C205.059 57.2914 204.327 57.1965 203.758 57.4198L205.74 56.203C206.338 55.8234 207.187 55.8569 208.119 56.3927L219.881 63.1799C221.69 64.2237 223.164 66.7856 223.17 68.8676V82.442C223.17 83.5136 222.779 84.256 222.159 84.5909L219.981 85.8914C220.551 85.5397 220.903 84.8197 220.903 83.8039Z" fill="#6A0093"/>
<path d="M216.572 70.9048L214.389 69.6434V67.9354C214.389 67.701 214.221 67.4107 214.02 67.2991L209.351 64.6032C209.15 64.486 208.983 64.5809 208.983 64.8153V66.5233L206.9 65.3232C206.699 65.206 206.531 65.3009 206.531 65.5353V74.0528C206.531 74.2872 206.699 74.5719 206.9 74.6947L216.572 80.2763C216.779 80.3935 216.941 80.2986 216.941 80.0642V71.5467C216.941 71.3123 216.773 71.022 216.572 70.9048ZM209.709 65.6358L213.663 67.9187V69.2248L209.709 66.9419V65.6358ZM215.701 77.3794L207.576 72.6909V72.2053L215.701 76.8938V77.3794ZM215.701 75.5152L207.576 70.8267V70.3411L215.701 75.0296V75.5152ZM215.701 73.6509L207.576 68.9624V68.4768L215.701 73.1653V73.6509Z" fill="#F5F5F5"/>
<path d="M178.406 59.3568C178.406 61.4444 179.886 64.0063 181.69 65.0445L193.451 71.8317C195.261 72.8754 196.741 72.0214 196.741 69.9339V56.3651C196.741 54.2776 195.261 51.7212 193.451 50.6775L181.69 43.8903C179.881 42.8465 178.406 43.7005 178.406 45.788V59.3568Z" fill="#27E0C0"/>
<path d="M196.738 69.9338V56.365C196.738 54.2775 195.259 51.7211 193.449 50.6774L181.688 43.8902C180.895 43.4325 180.163 43.3376 179.594 43.5609L181.576 42.3441C182.174 41.9645 183.023 41.998 183.955 42.5339L195.717 49.3211C197.526 50.3648 199 52.9268 199.006 55.0087V68.5831C199.006 69.6547 198.615 70.3971 197.995 70.732L195.817 72.0325C196.387 71.6753 196.738 70.9553 196.738 69.9338Z" fill="#01BA9A"/>
<path d="M183.641 56.8171V59.1391C183.641 59.8089 184.026 60.7019 184.791 61.6564C186.327 63.5653 188.818 64.9997 190.353 64.8658C191.124 64.7988 191.504 64.3467 191.504 63.6769V61.355L187.572 61.7066L183.641 56.8171Z" fill="#F5F5F5"/>
<path d="M194.525 60.5958L187.572 51.95L180.625 52.5695L187.572 61.2154L194.525 60.5958Z" fill="#F5F5F5"/>
<path d="M154.742 45.4418C154.742 47.5293 156.217 50.0913 158.026 51.1294L169.787 57.9166C171.597 58.9604 173.071 58.1064 173.071 56.0189V42.4501C173.071 40.3626 171.591 37.8006 169.787 36.7625L158.026 29.9753C156.217 28.9315 154.742 29.7855 154.742 31.873V45.4418Z" fill="#591BC2"/>
<path d="M173.084 56.0244V42.45C173.084 40.3625 171.605 37.8005 169.801 36.7623L158.04 29.9751C157.247 29.5175 156.515 29.4226 155.945 29.6458L157.928 28.429C158.525 28.0495 159.374 28.083 160.307 28.6188L172.068 35.406C173.877 36.4498 175.352 39.0117 175.357 41.0936V54.668C175.357 55.7397 174.972 56.4821 174.347 56.8169L172.169 58.1175C172.727 57.7658 173.084 57.0402 173.084 56.0244Z" fill="#26008F"/>
<path d="M169.59 43.4771L158.242 36.9299L164.05 43.5776L169.59 43.4771Z" fill="#F5F5F5"/>
<path d="M164.05 44.8948L158.242 36.9299V45.8437L169.59 52.3909V43.4771L164.05 44.8948Z" fill="#F5F5F5"/>
</g>
<path d="M61.0837 175.557C60.4527 176.79 59.5964 177.784 60.1909 178.011C60.8605 178.266 62.638 177.272 62.8287 177.46C63.7276 178.359 60.5135 179.604 59.1277 179.604C57.3503 179.604 53.4585 191.012 53.4585 191.012L49.0859 189.223C49.0859 189.223 54.6861 180.286 55.2522 177.806C55.4693 176.853 56.0943 175.466 57.6749 174.401C58.0624 174.14 60.0915 175.373 60.5399 173.575C60.9234 172.032 61.5788 170.929 61.8182 171.004C62.293 171.149 61.7168 174.32 61.0837 175.557Z" fill="#FFD2A7"/>
<path d="M31.5342 194.571C31.6559 197.922 35.0485 198.291 39.76 197.776C43.7308 197.341 49.1991 196.302 53.6549 192.28C55.41 190.694 50.5971 186.927 49.2234 187.305C47.8498 187.682 44.7818 188.791 39.9933 189.413C34.3749 190.146 31.4246 191.599 31.5342 194.571Z" fill="white"/>
<path d="M33.6956 275.902C33.1194 276.467 32.3849 279.597 32.9023 280.17C33.2046 280.502 33.6226 280.701 34.0406 280.861C37.5102 282.185 42.8527 277.571 43.7414 276.803C44.551 276.103 45.3769 274.548 44.9284 273.576C44.5612 272.781 34.4545 275.165 33.6956 275.902Z" fill="#4438B8"/>
<path d="M38.7442 273.135C37.4496 273.635 34.0692 275.507 33.4869 276.068C32.8681 276.665 32.3892 278.676 32.9086 279.249C33.211 279.579 34.0023 279.884 34.4264 280.028C36.1125 280.591 40.7671 278.431 43.0782 276.406C43.8837 275.7 45.2391 274.054 44.7928 273.082C44.4275 272.286 41.1993 272.183 38.7442 273.135Z" fill="#1C0A76"/>
<path d="M37.6062 277.422C37.3343 277.422 37.1172 277.706 37.1172 278.056C37.1172 278.404 37.3363 278.688 37.6062 278.688C37.8781 278.688 38.0952 278.404 38.0952 278.056C38.0952 277.706 37.8781 277.422 37.6062 277.422Z" fill="white"/>
<path d="M33.6754 276.283C33.6754 276.283 32.7684 277.141 33.0565 279.38C33.0565 279.38 33.4441 280.026 34.5661 280.111C34.5661 280.111 34.489 277.842 34.972 277.151L35.2215 276.694L34.2496 275.414L33.6754 276.283Z" fill="white"/>
<path d="M34.0212 274.552C33.9177 275.135 33.8284 275.722 33.6641 276.283C33.9502 276.121 34.3134 276.048 34.6157 276.232C34.916 276.418 35.0641 276.817 34.9586 277.151C35.7783 277.287 36.7076 277.052 37.4726 276.73C39.6214 275.817 39.9988 274.584 39.7979 274.143C39.1668 272.754 34.6238 274.657 34.0212 274.552Z" fill="#FFD2A7"/>
<path d="M32.0079 247.5C31.6528 248.293 30.9548 251.964 31.3383 256.207C31.7218 260.455 32.8764 274.297 32.8764 274.297C37.1576 275.943 39.4079 273.855 39.4079 273.855C39.4079 273.855 40.9236 254.395 41.0696 248.388C41.2137 242.383 32.9697 245.345 32.0079 247.5Z" fill="#3B31A1"/>
<path d="M40.7852 217.89C37.6159 215.139 34.4627 215.59 33.436 216.364C29.1973 219.561 29.2278 227.199 29.4408 229.712C29.6397 232.012 31.1878 244.726 31.827 248.396C32.7766 253.855 41.0003 254.243 41.0003 250.17C41.0003 246.224 46.495 222.844 40.7852 217.89Z" fill="#3B31A1"/>
<path d="M43.0697 280.494C42.4935 281.057 41.759 284.189 42.2784 284.76C42.5767 285.092 42.9967 285.29 43.4147 285.45C46.8843 286.776 52.2268 282.161 53.1155 281.391C53.9272 280.693 54.751 279.136 54.3025 278.164C53.9373 277.37 43.8286 279.755 43.0697 280.494Z" fill="#4438B8"/>
<path d="M48.1107 277.725C46.8182 278.227 43.4378 280.098 42.8534 280.66C42.2345 281.256 41.7557 283.266 42.2771 283.839C42.5754 284.171 43.3667 284.475 43.7928 284.619C45.479 285.181 50.1336 283.021 52.4447 280.997C53.2502 280.29 54.6077 278.644 54.1592 277.672C53.792 276.879 50.5638 276.773 48.1107 277.725Z" fill="#1C0A76"/>
<path d="M46.9734 282.013C46.7015 282.013 46.4844 282.296 46.4844 282.644C46.4844 282.995 46.7015 283.276 46.9734 283.276C47.2453 283.276 47.4624 282.993 47.4624 282.644C47.4624 282.296 47.2453 282.013 46.9734 282.013Z" fill="white"/>
<path d="M43.0413 280.875C43.0413 280.875 42.1343 281.731 42.4244 283.972C42.4244 283.972 42.81 284.618 43.932 284.703C43.932 284.703 43.8549 282.438 44.3378 281.743L44.5874 281.286L43.6155 280.006L43.0413 280.875Z" fill="white"/>
<path d="M43.3982 279.142C43.2927 279.725 43.2014 280.312 43.0391 280.875C43.3252 280.711 43.6884 280.64 43.9907 280.826C44.291 281.011 44.4411 281.409 44.3336 281.743C45.1533 281.879 46.0826 281.644 46.8476 281.322C48.9963 280.411 49.3737 279.176 49.1749 278.735C48.5418 277.346 43.9988 279.247 43.3982 279.142Z" fill="#FFD2A7"/>
<path d="M40.6869 251.784C40.3298 252.58 40.0842 256.916 40.4657 261.16C40.8492 265.407 42.0605 279.98 42.0605 279.98C46.3418 281.626 48.5697 278.421 48.5697 278.421C48.5697 278.421 50.053 259.348 50.197 253.343C50.3411 247.334 41.6486 249.63 40.6869 251.784Z" fill="#4438B8"/>
<path d="M49.2306 221.245C45.9882 218.581 42.0843 220.794 41.0576 221.569C36.8189 224.766 37.4784 228.999 37.6914 231.51C37.8903 233.812 40.3129 249.676 40.9521 253.347C41.9037 258.805 50.1254 259.194 50.1254 255.12C50.1254 251.174 53.6134 224.845 49.2306 221.245Z" fill="#4438B8"/>
<path d="M51.072 199.762C51.072 192.721 40.1476 189.976 36.826 189.976C30.1018 189.976 29.8076 198.509 30.7369 204.749C31.6682 210.985 29 225.266 29 225.266C33.9387 230.961 51.7355 227.1 51.7355 227.1C50.0108 219.7 51.072 205.941 51.072 199.762Z" fill="url(#paint85_linear_1011_8541)"/>
<path d="M47.7566 179.995C47.6856 179.175 46.7259 179.772 46.109 179.223C45.4618 178.642 44.5548 178.448 43.6884 178.361C42.9194 178.288 42.0915 178.298 41.4382 178.715C40.9593 179.023 40.6326 179.515 40.3547 180.013C38.4027 183.489 39.3219 186.273 38.7578 189.947C39.8149 190.5 43.1 191.65 44.2768 191.814C44.4817 191.842 42.9559 189.947 43.3536 188.301C44.9241 188.759 45.9143 186.728 47.365 184.323C47.7992 183.608 47.5456 182.458 47.3386 181.924C47.0404 181.153 47.8297 180.815 47.7566 179.995Z" fill="#FFD2A7"/>
<path d="M44.505 175.652C44.574 173.508 40.0959 173.431 40.5687 175.907C38.493 175.599 35.6381 177.371 36.7845 180.158C35.6706 182.341 37.8173 184.521 38.3915 185.831C38.5173 186.121 38.9576 187.234 38.9576 187.234C38.9576 187.234 41.782 187.987 42.8899 187.248C44.1824 186.392 44.639 184.874 44.9372 183.432C45.4201 181.08 46.8161 182.236 46.8161 180.181C47.7069 179.766 48.1208 181.021 48.1208 181.021C50.1904 177.073 46.7755 174.36 44.505 175.652Z" fill="#1C0A76"/>
<path d="M44.1265 189.947C41.4523 188.589 40.3444 188.37 39.0945 188.304C38.6988 188.281 38.3214 188.474 38.1043 188.806L37.3516 189.949L45.553 192.561C45.5753 191.405 44.79 190.283 44.1265 189.947Z" fill="white"/>
<path d="M62.0791 221.757C60.8921 221.037 60.3463 221.087 60.7318 220.581C61.17 220.014 62.4057 219.172 62.3956 218.907C62.3733 218.368 60.9225 218.915 59.906 219.672C59.4312 220.024 58.1204 219.883 57.7552 219.747C54.953 218.698 47.4517 212.604 47.4517 212.604L44.6719 216.421C44.6719 216.421 55.3873 222.063 57.1769 223.877C57.8647 224.576 59.2282 226.507 59.6381 226.28C60.048 226.054 62.0344 225.377 62.3469 224.978C62.6634 224.58 61.5048 222.15 62.6573 223.729C63.5948 225.013 65.2383 225.815 64.9684 225.333C64.5545 224.59 63.266 222.476 62.0791 221.757Z" fill="#FFD2A7"/>
<path d="M47.1926 194.584C43.9299 193.782 42.6455 196.94 41.8501 201.603C41.1826 205.531 40.6854 211.064 43.3435 216.443C44.3905 218.565 49.3413 214.973 49.3515 213.554C49.3657 212.133 49.1364 208.883 49.8446 204.121C50.6805 198.523 50.084 195.292 47.1926 194.584Z" fill="white"/>
<defs>
<linearGradient id="paint0_linear_1011_8541" x1="29.0038" y1="203.258" x2="243.774" y2="203.258" gradientUnits="userSpaceOnUse">
<stop stop-color="#CAD6F8"/>
<stop offset="1" stop-color="#DCE4FB"/>
</linearGradient>
<linearGradient id="paint1_linear_1011_8541" x1="29.0038" y1="230.712" x2="243.778" y2="230.712" gradientUnits="userSpaceOnUse">
<stop stop-color="#CAD6F8"/>
<stop offset="1" stop-color="#DCE4FB"/>
</linearGradient>
<linearGradient id="paint2_linear_1011_8541" x1="115.494" y1="125.905" x2="245.895" y2="125.905" gradientUnits="userSpaceOnUse">
<stop stop-color="#CAD6F8"/>
<stop offset="1" stop-color="#DCE4FB"/>
</linearGradient>
<linearGradient id="paint3_linear_1011_8541" x1="121.283" y1="125.905" x2="240.113" y2="125.905" gradientUnits="userSpaceOnUse">
<stop stop-color="#CAD6F8"/>
<stop offset="1" stop-color="#DCE4FB"/>
</linearGradient>
<linearGradient id="paint4_linear_1011_8541" x1="71.0653" y1="194.523" x2="231.981" y2="194.523" gradientUnits="userSpaceOnUse">
<stop stop-color="#CAD6F8"/>
<stop offset="1" stop-color="#DCE4FB"/>
</linearGradient>
<linearGradient id="paint5_linear_1011_8541" x1="76.8684" y1="218.088" x2="144.494" y2="218.088" gradientUnits="userSpaceOnUse">
<stop stop-color="#CAD6F8"/>
<stop offset="1" stop-color="#DCE4FB"/>
</linearGradient>
<linearGradient id="paint6_linear_1011_8541" x1="116.807" y1="124.803" x2="249.218" y2="124.803" gradientUnits="userSpaceOnUse">
<stop stop-color="#CAD6F8"/>
<stop offset="1" stop-color="#DCE4FB"/>
</linearGradient>
<linearGradient id="paint7_linear_1011_8541" x1="105.906" y1="156.657" x2="118.274" y2="156.657" gradientUnits="userSpaceOnUse">
<stop stop-color="#CAD6F8"/>
<stop offset="1" stop-color="#DCE4FB"/>
</linearGradient>
<linearGradient id="paint8_linear_1011_8541" x1="113.586" y1="161.095" x2="125.959" y2="161.095" gradientUnits="userSpaceOnUse">
<stop stop-color="#CAD6F8"/>
<stop offset="1" stop-color="#DCE4FB"/>
</linearGradient>
<linearGradient id="paint9_linear_1011_8541" x1="121.266" y1="165.529" x2="133.639" y2="165.529" gradientUnits="userSpaceOnUse">
<stop stop-color="#CAD6F8"/>
<stop offset="1" stop-color="#DCE4FB"/>
</linearGradient>
<linearGradient id="paint10_linear_1011_8541" x1="128.961" y1="169.964" x2="141.339" y2="169.964" gradientUnits="userSpaceOnUse">
<stop stop-color="#CAD6F8"/>
<stop offset="1" stop-color="#DCE4FB"/>
</linearGradient>
<linearGradient id="paint11_linear_1011_8541" x1="136.649" y1="174.401" x2="149.027" y2="174.401" gradientUnits="userSpaceOnUse">
<stop stop-color="#CAD6F8"/>
<stop offset="1" stop-color="#DCE4FB"/>
</linearGradient>
<linearGradient id="paint12_linear_1011_8541" x1="144.344" y1="178.833" x2="156.722" y2="178.833" gradientUnits="userSpaceOnUse">
<stop stop-color="#CAD6F8"/>
<stop offset="1" stop-color="#DCE4FB"/>
</linearGradient>
<linearGradient id="paint13_linear_1011_8541" x1="152.024" y1="183.27" x2="164.396" y2="183.27" gradientUnits="userSpaceOnUse">
<stop stop-color="#CAD6F8"/>
<stop offset="1" stop-color="#DCE4FB"/>
</linearGradient>
<linearGradient id="paint14_linear_1011_8541" x1="159.719" y1="187.708" x2="172.092" y2="187.708" gradientUnits="userSpaceOnUse">
<stop stop-color="#CAD6F8"/>
<stop offset="1" stop-color="#DCE4FB"/>
</linearGradient>
<linearGradient id="paint15_linear_1011_8541" x1="167.399" y1="192.14" x2="179.771" y2="192.14" gradientUnits="userSpaceOnUse">
<stop stop-color="#CAD6F8"/>
<stop offset="1" stop-color="#DCE4FB"/>
</linearGradient>
<linearGradient id="paint16_linear_1011_8541" x1="175.078" y1="196.577" x2="187.451" y2="196.577" gradientUnits="userSpaceOnUse">
<stop stop-color="#CAD6F8"/>
<stop offset="1" stop-color="#DCE4FB"/>
</linearGradient>
<linearGradient id="paint17_linear_1011_8541" x1="182.766" y1="201.014" x2="195.144" y2="201.014" gradientUnits="userSpaceOnUse">
<stop stop-color="#CAD6F8"/>
<stop offset="1" stop-color="#DCE4FB"/>
</linearGradient>
<linearGradient id="paint18_linear_1011_8541" x1="190.446" y1="205.446" x2="202.824" y2="205.446" gradientUnits="userSpaceOnUse">
<stop stop-color="#CAD6F8"/>
<stop offset="1" stop-color="#DCE4FB"/>
</linearGradient>
<linearGradient id="paint19_linear_1011_8541" x1="198.141" y1="209.884" x2="210.514" y2="209.884" gradientUnits="userSpaceOnUse">
<stop stop-color="#CAD6F8"/>
<stop offset="1" stop-color="#DCE4FB"/>
</linearGradient>
<linearGradient id="paint20_linear_1011_8541" x1="113.508" y1="153.144" x2="123.334" y2="153.144" gradientUnits="userSpaceOnUse">
<stop stop-color="#CAD6F8"/>
<stop offset="1" stop-color="#DCE4FB"/>
</linearGradient>
<linearGradient id="paint21_linear_1011_8541" x1="121.469" y1="157.737" x2="131.295" y2="157.737" gradientUnits="userSpaceOnUse">
<stop stop-color="#CAD6F8"/>
<stop offset="1" stop-color="#DCE4FB"/>
</linearGradient>
<linearGradient id="paint22_linear_1011_8541" x1="129.43" y1="162.337" x2="139.25" y2="162.337" gradientUnits="userSpaceOnUse">
<stop stop-color="#CAD6F8"/>
<stop offset="1" stop-color="#DCE4FB"/>
</linearGradient>
<linearGradient id="paint23_linear_1011_8541" x1="137.391" y1="166.93" x2="147.217" y2="166.93" gradientUnits="userSpaceOnUse">
<stop stop-color="#CAD6F8"/>
<stop offset="1" stop-color="#DCE4FB"/>
</linearGradient>
<linearGradient id="paint24_linear_1011_8541" x1="145.36" y1="171.524" x2="155.186" y2="171.524" gradientUnits="userSpaceOnUse">
<stop stop-color="#CAD6F8"/>
<stop offset="1" stop-color="#DCE4FB"/>
</linearGradient>
<linearGradient id="paint25_linear_1011_8541" x1="153.32" y1="176.123" x2="163.147" y2="176.123" gradientUnits="userSpaceOnUse">
<stop stop-color="#CAD6F8"/>
<stop offset="1" stop-color="#DCE4FB"/>
</linearGradient>
<linearGradient id="paint26_linear_1011_8541" x1="161.281" y1="180.717" x2="171.108" y2="180.717" gradientUnits="userSpaceOnUse">
<stop stop-color="#CAD6F8"/>
<stop offset="1" stop-color="#DCE4FB"/>
</linearGradient>
<linearGradient id="paint27_linear_1011_8541" x1="169.25" y1="185.311" x2="179.071" y2="185.311" gradientUnits="userSpaceOnUse">
<stop stop-color="#CAD6F8"/>
<stop offset="1" stop-color="#DCE4FB"/>
</linearGradient>
<linearGradient id="paint28_linear_1011_8541" x1="177.211" y1="189.91" x2="187.032" y2="189.91" gradientUnits="userSpaceOnUse">
<stop stop-color="#CAD6F8"/>
<stop offset="1" stop-color="#DCE4FB"/>
</linearGradient>
<linearGradient id="paint29_linear_1011_8541" x1="185.172" y1="194.503" x2="194.993" y2="194.503" gradientUnits="userSpaceOnUse">
<stop stop-color="#CAD6F8"/>
<stop offset="1" stop-color="#DCE4FB"/>
</linearGradient>
<linearGradient id="paint30_linear_1011_8541" x1="193.141" y1="199.097" x2="202.961" y2="199.097" gradientUnits="userSpaceOnUse">
<stop stop-color="#CAD6F8"/>
<stop offset="1" stop-color="#DCE4FB"/>
</linearGradient>
<linearGradient id="paint31_linear_1011_8541" x1="201.094" y1="203.696" x2="210.92" y2="203.696" gradientUnits="userSpaceOnUse">
<stop stop-color="#CAD6F8"/>
<stop offset="1" stop-color="#DCE4FB"/>
</linearGradient>
<linearGradient id="paint32_linear_1011_8541" x1="209.07" y1="208.29" x2="218.891" y2="208.29" gradientUnits="userSpaceOnUse">
<stop stop-color="#CAD6F8"/>
<stop offset="1" stop-color="#DCE4FB"/>
</linearGradient>
<linearGradient id="paint33_linear_1011_8541" x1="217.055" y1="212.895" x2="226.881" y2="212.895" gradientUnits="userSpaceOnUse">
<stop stop-color="#CAD6F8"/>
<stop offset="1" stop-color="#DCE4FB"/>
</linearGradient>
<linearGradient id="paint34_linear_1011_8541" x1="205.852" y1="215.437" x2="222.072" y2="215.437" gradientUnits="userSpaceOnUse">
<stop stop-color="#CAD6F8"/>
<stop offset="1" stop-color="#DCE4FB"/>
</linearGradient>
<linearGradient id="paint35_linear_1011_8541" x1="75.0862" y1="174.44" x2="87.4589" y2="174.44" gradientUnits="userSpaceOnUse">
<stop stop-color="#CAD6F8"/>
<stop offset="1" stop-color="#DCE4FB"/>
</linearGradient>
<linearGradient id="paint36_linear_1011_8541" x1="82.7737" y1="178.878" x2="95.1408" y2="178.878" gradientUnits="userSpaceOnUse">
<stop stop-color="#CAD6F8"/>
<stop offset="1" stop-color="#DCE4FB"/>
</linearGradient>
<linearGradient id="paint37_linear_1011_8541" x1="90.4533" y1="183.31" x2="102.826" y2="183.31" gradientUnits="userSpaceOnUse">
<stop stop-color="#CAD6F8"/>
<stop offset="1" stop-color="#DCE4FB"/>
</linearGradient>
<linearGradient id="paint38_linear_1011_8541" x1="175.102" y1="228.746" x2="183.638" y2="228.746" gradientUnits="userSpaceOnUse">
<stop stop-color="#CAD6F8"/>
<stop offset="1" stop-color="#DCE4FB"/>
</linearGradient>
<linearGradient id="paint39_linear_1011_8541" x1="163.5" y1="226.57" x2="172.036" y2="226.57" gradientUnits="userSpaceOnUse">
<stop stop-color="#CAD6F8"/>
<stop offset="1" stop-color="#DCE4FB"/>
</linearGradient>
<linearGradient id="paint40_linear_1011_8541" x1="171.188" y1="231.007" x2="179.724" y2="231.007" gradientUnits="userSpaceOnUse">
<stop stop-color="#CAD6F8"/>
<stop offset="1" stop-color="#DCE4FB"/>
</linearGradient>
<linearGradient id="paint41_linear_1011_8541" x1="178.867" y1="235.439" x2="187.409" y2="235.439" gradientUnits="userSpaceOnUse">
<stop stop-color="#CAD6F8"/>
<stop offset="1" stop-color="#DCE4FB"/>
</linearGradient>
<linearGradient id="paint42_linear_1011_8541" x1="98.1408" y1="187.747" x2="110.508" y2="187.747" gradientUnits="userSpaceOnUse">
<stop stop-color="#CAD6F8"/>
<stop offset="1" stop-color="#DCE4FB"/>
</linearGradient>
<linearGradient id="paint43_linear_1011_8541" x1="105.821" y1="202.172" x2="152.813" y2="202.172" gradientUnits="userSpaceOnUse">
<stop stop-color="#CAD6F8"/>
<stop offset="1" stop-color="#DCE4FB"/>
</linearGradient>
<linearGradient id="paint44_linear_1011_8541" x1="148.117" y1="216.587" x2="160.49" y2="216.587" gradientUnits="userSpaceOnUse">
<stop stop-color="#CAD6F8"/>
<stop offset="1" stop-color="#DCE4FB"/>
</linearGradient>
<linearGradient id="paint45_linear_1011_8541" x1="155.805" y1="221.019" x2="168.172" y2="221.019" gradientUnits="userSpaceOnUse">
<stop stop-color="#CAD6F8"/>
<stop offset="1" stop-color="#DCE4FB"/>
</linearGradient>
<linearGradient id="paint46_linear_1011_8541" x1="109.766" y1="167.759" x2="122.144" y2="167.759" gradientUnits="userSpaceOnUse">
<stop stop-color="#CAD6F8"/>
<stop offset="1" stop-color="#DCE4FB"/>
</linearGradient>
<linearGradient id="paint47_linear_1011_8541" x1="98.2112" y1="162.2" x2="114.432" y2="162.2" gradientUnits="userSpaceOnUse">
<stop stop-color="#CAD6F8"/>
<stop offset="1" stop-color="#DCE4FB"/>
</linearGradient>
<linearGradient id="paint48_linear_1011_8541" x1="117.453" y1="172.191" x2="129.826" y2="172.191" gradientUnits="userSpaceOnUse">
<stop stop-color="#CAD6F8"/>
<stop offset="1" stop-color="#DCE4FB"/>
</linearGradient>
<linearGradient id="paint49_linear_1011_8541" x1="125.141" y1="176.631" x2="137.514" y2="176.631" gradientUnits="userSpaceOnUse">
<stop stop-color="#CAD6F8"/>
<stop offset="1" stop-color="#DCE4FB"/>
</linearGradient>
<linearGradient id="paint50_linear_1011_8541" x1="132.828" y1="181.066" x2="145.201" y2="181.066" gradientUnits="userSpaceOnUse">
<stop stop-color="#CAD6F8"/>
<stop offset="1" stop-color="#DCE4FB"/>
</linearGradient>
<linearGradient id="paint51_linear_1011_8541" x1="140.5" y1="185.498" x2="152.879" y2="185.498" gradientUnits="userSpaceOnUse">
<stop stop-color="#CAD6F8"/>
<stop offset="1" stop-color="#DCE4FB"/>
</linearGradient>
<linearGradient id="paint52_linear_1011_8541" x1="148.196" y1="189.935" x2="160.568" y2="189.935" gradientUnits="userSpaceOnUse">
<stop stop-color="#CAD6F8"/>
<stop offset="1" stop-color="#DCE4FB"/>
</linearGradient>
<linearGradient id="paint53_linear_1011_8541" x1="155.883" y1="194.372" x2="168.256" y2="194.372" gradientUnits="userSpaceOnUse">
<stop stop-color="#CAD6F8"/>
<stop offset="1" stop-color="#DCE4FB"/>
</linearGradient>
<linearGradient id="paint54_linear_1011_8541" x1="163.578" y1="198.804" x2="175.951" y2="198.804" gradientUnits="userSpaceOnUse">
<stop stop-color="#CAD6F8"/>
<stop offset="1" stop-color="#DCE4FB"/>
</linearGradient>
<linearGradient id="paint55_linear_1011_8541" x1="171.258" y1="203.241" x2="183.631" y2="203.241" gradientUnits="userSpaceOnUse">
<stop stop-color="#CAD6F8"/>
<stop offset="1" stop-color="#DCE4FB"/>
</linearGradient>
<linearGradient id="paint56_linear_1011_8541" x1="178.946" y1="207.679" x2="191.318" y2="207.679" gradientUnits="userSpaceOnUse">
<stop stop-color="#CAD6F8"/>
<stop offset="1" stop-color="#DCE4FB"/>
</linearGradient>
<linearGradient id="paint57_linear_1011_8541" x1="186.641" y1="212.11" x2="199.014" y2="212.11" gradientUnits="userSpaceOnUse">
<stop stop-color="#CAD6F8"/>
<stop offset="1" stop-color="#DCE4FB"/>
</linearGradient>
<linearGradient id="paint58_linear_1011_8541" x1="194.321" y1="216.548" x2="206.699" y2="216.548" gradientUnits="userSpaceOnUse">
<stop stop-color="#CAD6F8"/>
<stop offset="1" stop-color="#DCE4FB"/>
</linearGradient>
<linearGradient id="paint59_linear_1011_8541" x1="202.008" y1="220.985" x2="214.386" y2="220.985" gradientUnits="userSpaceOnUse">
<stop stop-color="#CAD6F8"/>
<stop offset="1" stop-color="#DCE4FB"/>
</linearGradient>
<linearGradient id="paint60_linear_1011_8541" x1="103.883" y1="173.235" x2="116.261" y2="173.235" gradientUnits="userSpaceOnUse">
<stop stop-color="#CAD6F8"/>
<stop offset="1" stop-color="#DCE4FB"/>
</linearGradient>
<linearGradient id="paint61_linear_1011_8541" x1="90.5316" y1="167.162" x2="108.578" y2="167.162" gradientUnits="userSpaceOnUse">
<stop stop-color="#CAD6F8"/>
<stop offset="1" stop-color="#DCE4FB"/>
</linearGradient>
<linearGradient id="paint62_linear_1011_8541" x1="111.571" y1="177.672" x2="123.943" y2="177.672" gradientUnits="userSpaceOnUse">
<stop stop-color="#CAD6F8"/>
<stop offset="1" stop-color="#DCE4FB"/>
</linearGradient>
<linearGradient id="paint63_linear_1011_8541" x1="119.258" y1="182.109" x2="131.636" y2="182.109" gradientUnits="userSpaceOnUse">
<stop stop-color="#CAD6F8"/>
<stop offset="1" stop-color="#DCE4FB"/>
</linearGradient>
<linearGradient id="paint64_linear_1011_8541" x1="126.953" y1="186.541" x2="139.332" y2="186.541" gradientUnits="userSpaceOnUse">
<stop stop-color="#CAD6F8"/>
<stop offset="1" stop-color="#DCE4FB"/>
</linearGradient>
<linearGradient id="paint65_linear_1011_8541" x1="134.633" y1="190.979" x2="147.011" y2="190.979" gradientUnits="userSpaceOnUse">
<stop stop-color="#CAD6F8"/>
<stop offset="1" stop-color="#DCE4FB"/>
</linearGradient>
<linearGradient id="paint66_linear_1011_8541" x1="142.328" y1="195.416" x2="154.701" y2="195.416" gradientUnits="userSpaceOnUse">
<stop stop-color="#CAD6F8"/>
<stop offset="1" stop-color="#DCE4FB"/>
</linearGradient>
<linearGradient id="paint67_linear_1011_8541" x1="150.008" y1="199.848" x2="162.381" y2="199.848" gradientUnits="userSpaceOnUse">
<stop stop-color="#CAD6F8"/>
<stop offset="1" stop-color="#DCE4FB"/>
</linearGradient>
<linearGradient id="paint68_linear_1011_8541" x1="157.696" y1="204.285" x2="170.074" y2="204.285" gradientUnits="userSpaceOnUse">
<stop stop-color="#CAD6F8"/>
<stop offset="1" stop-color="#DCE4FB"/>
</linearGradient>
<linearGradient id="paint69_linear_1011_8541" x1="165.375" y1="208.722" x2="177.748" y2="208.722" gradientUnits="userSpaceOnUse">
<stop stop-color="#CAD6F8"/>
<stop offset="1" stop-color="#DCE4FB"/>
</linearGradient>
<linearGradient id="paint70_linear_1011_8541" x1="173.063" y1="213.154" x2="185.435" y2="213.154" gradientUnits="userSpaceOnUse">
<stop stop-color="#CAD6F8"/>
<stop offset="1" stop-color="#DCE4FB"/>
</linearGradient>
<linearGradient id="paint71_linear_1011_8541" x1="180.75" y1="217.592" x2="193.123" y2="217.592" gradientUnits="userSpaceOnUse">
<stop stop-color="#CAD6F8"/>
<stop offset="1" stop-color="#DCE4FB"/>
</linearGradient>
<linearGradient id="paint72_linear_1011_8541" x1="188.438" y1="223.72" x2="206.691" y2="223.72" gradientUnits="userSpaceOnUse">
<stop stop-color="#CAD6F8"/>
<stop offset="1" stop-color="#DCE4FB"/>
</linearGradient>
<linearGradient id="paint73_linear_1011_8541" x1="100.117" y1="179.933" x2="112.496" y2="179.933" gradientUnits="userSpaceOnUse">
<stop stop-color="#CAD6F8"/>
<stop offset="1" stop-color="#DCE4FB"/>
</linearGradient>
<linearGradient id="paint74_linear_1011_8541" x1="82.8363" y1="172.727" x2="104.787" y2="172.727" gradientUnits="userSpaceOnUse">
<stop stop-color="#CAD6F8"/>
<stop offset="1" stop-color="#DCE4FB"/>
</linearGradient>
<linearGradient id="paint75_linear_1011_8541" x1="107.813" y1="184.37" x2="120.185" y2="184.37" gradientUnits="userSpaceOnUse">
<stop stop-color="#CAD6F8"/>
<stop offset="1" stop-color="#DCE4FB"/>
</linearGradient>
<linearGradient id="paint76_linear_1011_8541" x1="115.492" y1="188.802" x2="127.871" y2="188.802" gradientUnits="userSpaceOnUse">
<stop stop-color="#CAD6F8"/>
<stop offset="1" stop-color="#DCE4FB"/>
</linearGradient>
<linearGradient id="paint77_linear_1011_8541" x1="123.18" y1="193.239" x2="135.558" y2="193.239" gradientUnits="userSpaceOnUse">
<stop stop-color="#CAD6F8"/>
<stop offset="1" stop-color="#DCE4FB"/>
</linearGradient>
<linearGradient id="paint78_linear_1011_8541" x1="130.867" y1="197.677" x2="143.24" y2="197.677" gradientUnits="userSpaceOnUse">
<stop stop-color="#CAD6F8"/>
<stop offset="1" stop-color="#DCE4FB"/>
</linearGradient>
<linearGradient id="paint79_linear_1011_8541" x1="138.547" y1="202.108" x2="150.92" y2="202.108" gradientUnits="userSpaceOnUse">
<stop stop-color="#CAD6F8"/>
<stop offset="1" stop-color="#DCE4FB"/>
</linearGradient>
<linearGradient id="paint80_linear_1011_8541" x1="146.242" y1="206.546" x2="158.621" y2="206.546" gradientUnits="userSpaceOnUse">
<stop stop-color="#CAD6F8"/>
<stop offset="1" stop-color="#DCE4FB"/>
</linearGradient>
<linearGradient id="paint81_linear_1011_8541" x1="153.922" y1="210.983" x2="166.295" y2="210.983" gradientUnits="userSpaceOnUse">
<stop stop-color="#CAD6F8"/>
<stop offset="1" stop-color="#DCE4FB"/>
</linearGradient>
<linearGradient id="paint82_linear_1011_8541" x1="161.617" y1="215.42" x2="173.996" y2="215.42" gradientUnits="userSpaceOnUse">
<stop stop-color="#CAD6F8"/>
<stop offset="1" stop-color="#DCE4FB"/>
</linearGradient>
<linearGradient id="paint83_linear_1011_8541" x1="169.297" y1="219.852" x2="181.67" y2="219.852" gradientUnits="userSpaceOnUse">
<stop stop-color="#CAD6F8"/>
<stop offset="1" stop-color="#DCE4FB"/>
</linearGradient>
<linearGradient id="paint84_linear_1011_8541" x1="176.993" y1="227.069" x2="199.015" y2="227.069" gradientUnits="userSpaceOnUse">
<stop stop-color="#CAD6F8"/>
<stop offset="1" stop-color="#DCE4FB"/>
</linearGradient>
<linearGradient id="paint85_linear_1011_8541" x1="29.0001" y1="209.177" x2="51.7354" y2="209.177" gradientUnits="userSpaceOnUse">
<stop stop-color="#FF6279"/>
<stop offset="1" stop-color="#FFAD60"/>
</linearGradient>
<clipPath id="clip0_1011_8541">
<rect width="251" height="255" fill="white" transform="translate(29 15)"/>
</clipPath>
</defs>
</svg>
