<svg width="510" height="451" viewBox="0 0 510 451" fill="none" xmlns="http://www.w3.org/2000/svg">
<path d="M193.602 290.117L193.745 290.152L193.693 290.065L193.779 290.012L193.693 290.063L193.641 289.977L193.693 290.063L193.602 290.117Z" fill="#9DCEE5"/>
<path d="M166.734 286.735L200.919 306.012L200.975 305.958C202.757 304.2 204.759 301.502 204.168 298.632C203.95 297.58 203.197 296.439 201.931 295.243L201.909 295.206H201.892C201.346 294.694 200.714 294.178 199.965 293.632L199.905 293.712L199.814 293.765L199.843 293.796C200.596 294.344 201.226 294.861 201.773 295.373L201.804 295.401C203.023 296.556 203.756 297.66 203.965 298.671C204.531 301.42 202.617 304.03 200.885 305.755L167.254 286.789C170.561 285.808 174.34 285.275 177.413 285.361C177.734 285.37 178.071 285.391 178.416 285.422C181.54 285.72 185.46 286.923 188.201 287.88L188.268 287.687C185.518 286.726 181.58 285.517 178.435 285.219C178.084 285.186 177.743 285.165 177.417 285.156C174.25 285.069 170.341 285.631 166.962 286.663L166.734 286.735Z" fill="#9DCEE5"/>
<path d="M198.842 293.395L198.734 293.472L198.855 293.638L198.962 293.561L198.842 293.395Z" fill="#9DCEE5"/>
<path d="M191.814 286.807L189.367 288.109L189.464 288.29L191.91 286.988L191.814 286.807Z" fill="#9DCEE5"/>
<path d="M193.234 294.69L193.253 294.699L193.359 294.524L193.296 294.608L193.341 294.515L193.234 294.69Z" fill="#9DCEE5"/>
<path d="M192.629 288.662C193.831 290.698 195.51 292.493 197.229 293.089C201.468 294.558 203.714 294.126 207.453 292.526C209.386 291.699 210.712 290.5 211.677 289.623C212.138 289.206 212.537 288.845 212.868 288.649C213.245 288.428 213.897 288.206 214.723 287.925C215.67 287.603 216.85 287.203 218.02 286.651L217.933 286.465C216.773 287.011 215.599 287.409 214.656 287.729C213.819 288.014 213.157 288.238 212.762 288.471C212.412 288.677 212.026 289.027 211.537 289.471C210.581 290.336 209.273 291.523 207.369 292.336C203.265 294.092 201.099 294.211 197.294 292.893C194.336 291.865 191.492 287.186 191.109 283.996L190.906 284.02C191.076 285.428 191.715 287.115 192.629 288.662Z" fill="#9DCEE5"/>
<path d="M190.275 281.419C191.343 278.566 195.895 274.555 200.717 273.358C204.909 272.317 208.751 272.11 212.14 272.745C216.947 273.645 220.856 276.231 223.762 280.432C224.754 281.864 224.767 283.428 223.801 284.836C223.056 285.923 220.899 287.273 218.951 286.869L218.573 286.791C214.565 285.964 213.061 285.651 211.415 282.799C209.754 279.925 208.77 278.436 206.242 278.616C203.625 278.803 200.997 280.343 200.669 281.251C200.579 281.497 200.439 281.637 200.255 281.661C199.772 281.728 199.196 280.951 199.131 280.864L199.084 280.801L199.134 280.739C199.146 280.726 200.216 279.408 200.037 278.669C199.994 278.494 199.884 278.371 199.699 278.291C197.865 277.495 194.39 280.074 193.263 282.056C193.11 282.324 192.972 282.581 192.845 282.819C192.377 283.693 192.04 284.326 191.555 284.354C191.195 284.376 190.806 284.059 190.295 283.328C190.277 283.301 190.26 283.275 190.245 283.249C189.982 282.804 189.991 282.175 190.275 281.419ZM200.236 278.618C200.417 279.363 199.565 280.519 199.343 280.803C199.571 281.097 199.973 281.492 200.225 281.456C200.329 281.441 200.413 281.348 200.475 281.179C200.859 280.121 203.718 278.588 206.227 278.41C208.878 278.222 209.888 279.749 211.592 282.694C213.189 285.463 214.671 285.774 218.614 286.59L218.992 286.668C220.854 287.054 222.916 285.759 223.632 284.719C224.545 283.387 224.53 281.907 223.592 280.547C218.705 273.481 210.813 271.062 200.767 273.557C196.007 274.739 191.518 278.687 190.469 281.491C190.193 282.227 190.191 282.819 190.463 283.208C190.923 283.866 191.266 284.164 191.544 284.147C191.913 284.125 192.228 283.536 192.664 282.72C192.793 282.48 192.931 282.223 193.084 281.953C194.245 279.912 197.856 277.268 199.779 278.102C199.949 278.175 200.074 278.281 200.154 278.417C200.189 278.477 200.217 278.544 200.236 278.618Z" fill="#9DCEE5"/>
<path d="M197.433 303.878C201.401 301.15 202.38 298.997 202.501 297.673C202.63 296.28 201.871 295.478 201.785 295.392L201.929 295.245C203.197 296.44 203.948 297.582 204.166 298.634C204.759 301.505 202.757 304.202 200.973 305.96L200.917 306.014L197.297 303.973L197.433 303.878ZM203.965 298.673C203.797 297.863 203.295 296.995 202.468 296.083C202.639 296.485 202.768 297.027 202.708 297.692C202.527 299.654 200.839 301.76 197.686 303.954L200.885 305.758C202.617 304.034 204.531 301.425 203.965 298.673Z" fill="#9DCEE5"/>
<path d="M166.964 286.664C170.339 285.635 174.248 285.07 177.419 285.158C177.741 285.167 178.083 285.188 178.435 285.223L178.463 285.231C178.476 285.236 179.866 285.798 179.414 287.15C179.208 287.763 177.361 288.97 173.926 290.739L173.877 290.765L166.734 286.737L166.964 286.664ZM179.218 287.083C179.592 285.97 178.537 285.484 178.399 285.426C178.058 285.394 177.727 285.372 177.413 285.365C174.334 285.281 170.556 285.813 167.253 286.793L173.879 290.53C178.276 288.26 179.112 287.396 179.218 287.083Z" fill="#9DCEE5"/>
<path d="M193.669 293.951L193.734 293.966C195.749 294.455 198.672 293.463 198.702 293.452L198.731 293.441L198.763 293.45C199.184 293.567 199.412 293.826 199.388 294.163C199.341 294.789 198.385 295.569 196.7 295.779C194.379 296.07 192.379 295.887 192.358 295.886L192.172 295.869L193.669 293.951ZM198.735 293.659C198.4 293.77 195.727 294.631 193.749 294.182L192.565 295.696C193.113 295.733 194.787 295.813 196.672 295.576C198.344 295.368 199.145 294.616 199.181 294.148C199.186 294.064 199.169 293.988 199.128 293.921C199.059 293.807 198.927 293.716 198.735 293.659Z" fill="#9DCEE5"/>
<path d="M186.473 288.91C186.553 288.5 186.808 288.201 187.231 288.018C188.193 287.603 188.87 287.515 189.239 287.757C189.496 287.927 189.5 288.191 189.5 288.201L189.496 288.225C189.489 288.255 188.803 291.282 193.098 293.55L193.318 293.666L189.906 294.705L189.863 294.66C189.763 294.558 188.163 292.923 187.19 291.275C186.682 290.42 186.344 289.562 186.473 288.91ZM192.783 293.615C188.738 291.37 189.239 288.439 189.291 288.193C189.287 288.158 189.267 288.022 189.123 287.929C188.95 287.815 188.484 287.7 187.312 288.206C186.95 288.363 186.741 288.606 186.674 288.949C186.342 290.642 189.552 294.044 189.964 294.474L192.783 293.615Z" fill="#9DCEE5"/>
<path d="M189.783 295.072L190.059 294.442L192.531 293.69L192.574 293.735C192.753 293.921 193.342 294.152 193.552 294.225L193.69 294.271L192.521 295.74L191.366 295.964L187.811 298.621L185.328 297.221L189.783 295.072ZM191.282 295.776L192.408 295.558L193.351 294.372C193.127 294.288 192.687 294.107 192.473 293.923L190.208 294.612L189.94 295.225L185.77 297.237L187.794 298.379L191.282 295.776Z" fill="#9DCEE5"/>
<path d="M260.342 310.106L227.82 291.349L231.903 288.994L264.424 307.751L260.342 310.106Z" fill="#9DCEE5"/>
<path d="M254.03 313.845L221.508 295.088L225.59 292.735L258.112 311.49L254.03 313.845Z" fill="#9DCEE5"/>
<path d="M230.245 307.676L215.391 299.036L219.473 296.681L234.327 305.323L230.245 307.676Z" fill="#9DCEE5"/>
<path d="M240.048 328.154C239.977 328.154 239.908 328.135 239.845 328.102L159.736 283.173C159.605 283.099 159.523 282.961 159.523 282.81C159.523 282.659 159.604 282.521 159.736 282.449L203.858 257.653C203.986 257.582 204.141 257.582 204.268 257.655L283.551 303.047C283.681 303.122 283.759 303.259 283.759 303.408C283.759 303.557 283.677 303.695 283.547 303.77L240.251 328.102C240.19 328.135 240.119 328.154 240.048 328.154ZM160.789 282.81L240.048 327.262L282.503 303.403L204.061 258.491L160.789 282.81Z" fill="#9DCEE5"/>
<path d="M121.049 277.216C120.905 277.216 120.765 277.142 120.689 277.008C120.573 276.808 120.642 276.555 120.842 276.44L138.112 266.468L123.787 258.061C123.589 257.943 123.522 257.69 123.64 257.493C123.755 257.295 124.011 257.228 124.208 257.346L139.148 266.114C139.275 266.189 139.354 266.327 139.354 266.474C139.354 266.621 139.273 266.758 139.145 266.831L121.257 277.16C121.192 277.197 121.119 277.216 121.049 277.216Z" fill="#3E9BCF"/>
<path d="M189.288 254.798C189.217 254.798 189.144 254.78 189.079 254.742L170.364 243.94C170.165 243.825 170.098 243.572 170.211 243.372C170.327 243.173 170.581 243.104 170.78 243.22L189.288 253.903L204.607 245.128C204.806 245.015 205.06 245.084 205.175 245.283C205.289 245.482 205.22 245.735 205.021 245.851L189.493 254.744C189.432 254.78 189.361 254.798 189.288 254.798Z" fill="#3E9BCF"/>
<path d="M183.978 241.27C183.833 241.27 183.693 241.194 183.617 241.06C183.503 240.86 183.574 240.607 183.773 240.494L190.288 236.799C190.488 236.686 190.741 236.756 190.855 236.956C190.969 237.155 190.898 237.408 190.698 237.522L184.183 241.216C184.118 241.251 184.047 241.27 183.978 241.27Z" fill="#3E9BCF"/>
<path d="M173.287 267.231C173.216 267.231 173.145 267.213 173.078 267.176L143.233 249.916C143.105 249.841 143.026 249.705 143.026 249.556C143.026 249.407 143.106 249.272 143.235 249.197L157.571 240.931L134.737 227.597C134.539 227.481 134.472 227.226 134.588 227.029C134.703 226.83 134.959 226.763 135.156 226.88L158.61 240.576C158.738 240.65 158.817 240.788 158.817 240.935C158.817 241.082 158.736 241.22 158.608 241.294L144.273 249.558L173.496 266.457C173.695 266.572 173.762 266.826 173.647 267.025C173.569 267.157 173.431 267.231 173.287 267.231Z" fill="#3E9BCF"/>
<path d="M161.502 260.336C161.358 260.336 161.218 260.262 161.142 260.127C161.026 259.928 161.095 259.675 161.295 259.56L170.583 254.202C170.783 254.087 171.036 254.156 171.152 254.355C171.267 254.554 171.198 254.808 170.999 254.923L161.711 260.28C161.643 260.319 161.573 260.336 161.502 260.336Z" fill="#3E9BCF"/>
<path d="M144.744 272.484C144.6 272.484 144.461 272.41 144.384 272.276C144.269 272.077 144.338 271.823 144.537 271.708L163.386 260.848C163.584 260.733 163.839 260.802 163.955 261.001C164.07 261.2 164.001 261.453 163.802 261.569L144.953 272.428C144.886 272.468 144.813 272.484 144.744 272.484Z" fill="#3E9BCF"/>
<path d="M91.1424 259.943C90.9989 259.943 90.8591 259.869 90.7827 259.736C90.6671 259.537 90.7361 259.284 90.9337 259.169L120.596 241.976C120.727 241.899 120.889 241.901 121.019 241.98L145.973 256.988C146.171 257.107 146.234 257.362 146.115 257.558C145.997 257.755 145.742 257.819 145.544 257.699L120.801 242.817L91.3512 259.887C91.286 259.925 91.2133 259.943 91.1424 259.943Z" fill="#3E9BCF"/>
<path d="M368.39 410.6C368.32 410.6 368.249 410.581 368.185 410.546L238.687 337.338C238.557 337.263 238.477 337.125 238.477 336.976C238.477 336.827 238.557 336.688 238.687 336.615L307.858 297.351V263.001C307.858 262.772 308.044 262.586 308.273 262.586C308.503 262.586 308.689 262.772 308.689 263.001V297.593C308.689 297.742 308.609 297.88 308.478 297.954L239.735 336.976L368.392 409.712L398.53 393.353C398.731 393.243 398.983 393.318 399.095 393.521C399.205 393.722 399.13 393.975 398.927 394.085L368.586 410.553C368.528 410.583 368.459 410.6 368.39 410.6Z" fill="#3E9BCF"/>
<path d="M257.565 347.948C257.421 347.948 257.283 347.873 257.205 347.741C257.089 347.544 257.157 347.289 257.354 347.173L284.843 331.168C284.972 331.094 285.132 331.092 285.261 331.168L308.034 344.319C308.233 344.434 308.3 344.687 308.186 344.886C308.073 345.086 307.817 345.155 307.618 345.039L285.054 332.008L257.774 347.892C257.708 347.931 257.636 347.948 257.565 347.948Z" fill="#3E9BCF"/>
<path d="M270.174 355.074C270.031 355.074 269.889 355 269.813 354.866C269.699 354.666 269.768 354.413 269.967 354.299L288.824 343.535C288.952 343.46 289.111 343.462 289.24 343.537L306.81 353.763L333.87 337.898L306.463 322.156C306.264 322.042 306.195 321.787 306.31 321.588C306.424 321.389 306.679 321.32 306.879 321.435L334.907 337.535C335.035 337.609 335.115 337.745 335.115 337.893C335.115 338.041 335.037 338.177 334.91 338.252L307.022 354.601C306.892 354.677 306.734 354.677 306.603 354.601L289.029 344.373L270.381 355.018C270.314 355.055 270.243 355.074 270.174 355.074Z" fill="#3E9BCF"/>
<path d="M304.12 374.269C303.974 374.269 303.834 374.192 303.758 374.058C303.644 373.859 303.713 373.606 303.913 373.492L347.197 348.817C347.326 348.745 347.484 348.745 347.613 348.819L363.864 358.268C364.061 358.383 364.13 358.636 364.015 358.836C363.899 359.035 363.646 359.102 363.446 358.986L347.402 349.657L304.326 374.213C304.261 374.252 304.188 374.269 304.12 374.269Z" fill="#3E9BCF"/>
<path d="M344.811 383.782C344.667 383.782 344.527 383.708 344.449 383.573C344.335 383.374 344.402 383.121 344.602 383.006L360.767 373.708L346.177 365.405L317.702 381.775C317.501 381.888 317.249 381.821 317.133 381.622C317.02 381.423 317.087 381.17 317.286 381.054L345.968 364.565C346.097 364.493 346.253 364.491 346.382 364.565L361.809 373.347C361.937 373.419 362.017 373.557 362.019 373.706C362.019 373.855 361.939 373.993 361.811 374.067L345.016 383.728C344.952 383.765 344.881 383.782 344.811 383.782Z" fill="#3E9BCF"/>
<path d="M302.426 301.323C302.357 301.323 302.286 301.306 302.221 301.269L207.336 247.435C207.136 247.322 207.066 247.069 207.179 246.869C207.293 246.67 207.547 246.599 207.746 246.713L302.631 300.546C302.83 300.66 302.901 300.913 302.788 301.112C302.711 301.248 302.571 301.323 302.426 301.323Z" fill="#3E9BCF"/>
<path d="M138.5 287.297C138.429 287.297 138.357 287.279 138.291 287.241L80.7935 254.027C80.594 253.912 80.5269 253.659 80.6425 253.459C80.7581 253.262 81.0116 253.193 81.211 253.309L138.5 286.402L206.715 247.07L173.209 227.595C173.011 227.479 172.942 227.224 173.058 227.027C173.173 226.829 173.429 226.762 173.626 226.876L207.753 246.711C207.881 246.786 207.96 246.923 207.96 247.07C207.96 247.219 207.88 247.355 207.751 247.43L138.707 287.24C138.644 287.279 138.573 287.297 138.5 287.297Z" fill="#3E9BCF"/>
<path d="M297.002 291.528C296.931 291.528 296.86 291.509 296.795 291.474L179.577 224.656C179.377 224.543 179.308 224.29 179.422 224.09C179.536 223.891 179.789 223.822 179.989 223.936L296.584 290.4V237.008C296.584 236.779 296.77 236.592 297 236.592C297.229 236.592 297.415 236.779 297.415 237.008V291.115C297.415 291.264 297.337 291.4 297.208 291.474C297.145 291.509 297.074 291.528 297.002 291.528Z" fill="#3E9BCF"/>
<path d="M124.085 258.401C124.753 258.401 125.295 258.089 125.295 257.703C125.295 257.317 124.753 257.005 124.085 257.005C123.417 257.005 122.875 257.317 122.875 257.703C122.875 258.089 123.417 258.401 124.085 258.401Z" fill="#3E9BCF"/>
<path d="M146.612 257.833C146.14 258.105 145.374 258.105 144.901 257.833C144.429 257.562 144.429 257.118 144.901 256.847C145.372 256.575 146.138 256.575 146.612 256.847C147.083 257.12 147.083 257.562 146.612 257.833Z" fill="#3E9BCF"/>
<path d="M184.823 241.346C184.351 241.618 183.585 241.618 183.112 241.346C182.64 241.075 182.64 240.631 183.112 240.36C183.583 240.088 184.349 240.088 184.823 240.36C185.294 240.633 185.294 241.075 184.823 241.346Z" fill="#3E9BCF"/>
<path d="M170.577 244.279C171.245 244.279 171.787 243.967 171.787 243.581C171.787 243.195 171.245 242.883 170.577 242.883C169.909 242.883 169.367 243.195 169.367 243.581C169.367 243.967 169.909 244.279 170.577 244.279Z" fill="#3E9BCF"/>
<path d="M307.827 345.376C308.495 345.376 309.037 345.064 309.037 344.678C309.037 344.292 308.495 343.98 307.827 343.98C307.159 343.98 306.617 344.292 306.617 344.678C306.617 345.064 307.159 345.376 307.827 345.376Z" fill="#3E9BCF"/>
<path d="M307.518 322.286C307.046 322.558 306.28 322.558 305.807 322.286C305.335 322.014 305.335 321.571 305.807 321.299C306.278 321.027 307.045 321.027 307.518 321.299C307.99 321.571 307.99 322.014 307.518 322.286Z" fill="#3E9BCF"/>
<path d="M363.655 359.327C364.323 359.327 364.865 359.014 364.865 358.629C364.865 358.243 364.323 357.93 363.655 357.93C362.987 357.93 362.445 358.243 362.445 358.629C362.445 359.014 362.987 359.327 363.655 359.327Z" fill="#3E9BCF"/>
<path d="M345.007 384.065C345.675 384.065 346.216 383.752 346.216 383.367C346.216 382.981 345.675 382.668 345.007 382.668C344.338 382.668 343.797 382.981 343.797 383.367C343.797 383.752 344.338 384.065 345.007 384.065Z" fill="#3E9BCF"/>
<path d="M135.799 227.731C135.328 228.003 134.562 228.003 134.088 227.731C133.616 227.459 133.616 227.016 134.088 226.744C134.56 226.472 135.326 226.472 135.799 226.744C136.271 227.018 136.271 227.459 135.799 227.731Z" fill="#3E9BCF"/>
<path d="M170.796 255.262C171.464 255.262 172.005 254.949 172.005 254.564C172.005 254.178 171.464 253.865 170.796 253.865C170.128 253.865 169.586 254.178 169.586 254.564C169.586 254.949 170.128 255.262 170.796 255.262Z" fill="#3E9BCF"/>
<path d="M145.596 272.563C145.125 272.834 144.358 272.834 143.885 272.563C143.413 272.291 143.413 271.847 143.885 271.576C144.357 271.304 145.123 271.304 145.596 271.576C146.07 271.847 146.07 272.291 145.596 272.563Z" fill="#3E9BCF"/>
<path d="M140.771 348.834C140.628 348.834 140.49 348.76 140.411 348.629C140.294 348.432 140.361 348.177 140.561 348.062L164.866 333.831L126.631 311.872C126.502 311.797 126.422 311.661 126.422 311.512C126.422 311.363 126.502 311.226 126.631 311.153L168.042 287.262C168.242 287.147 168.495 287.216 168.611 287.415C168.726 287.614 168.657 287.867 168.458 287.983L127.671 311.512L165.902 333.468C166.031 333.543 166.111 333.679 166.111 333.826C166.111 333.975 166.033 334.111 165.906 334.185L140.982 348.777C140.915 348.816 140.842 348.834 140.771 348.834Z" fill="#3E9BCF"/>
<path d="M191.899 395.189C191.756 395.189 191.618 395.115 191.539 394.983C191.424 394.785 191.491 394.53 191.689 394.415L241.939 365.144L151.343 313.533C151.215 313.458 151.135 313.322 151.133 313.171C151.133 313.022 151.213 312.885 151.342 312.81L182.195 295.124C182.395 295.01 182.648 295.079 182.764 295.277C182.877 295.476 182.808 295.729 182.609 295.843L152.387 313.168L242.978 364.778C243.106 364.852 243.186 364.988 243.188 365.137C243.188 365.286 243.11 365.424 242.981 365.498L192.108 395.132C192.043 395.173 191.97 395.189 191.899 395.189Z" fill="#3E9BCF"/>
<path d="M267.55 426.458C267.407 426.458 267.267 426.383 267.191 426.251C267.075 426.054 267.142 425.798 267.342 425.683L317.98 396.305L177.887 314.976C177.758 314.901 177.68 314.763 177.68 314.616C177.68 314.467 177.76 314.331 177.888 314.257L196.583 303.475C196.782 303.36 197.036 303.429 197.151 303.628C197.267 303.827 197.198 304.081 196.999 304.196L178.927 314.62L319.02 395.947C319.149 396.022 319.227 396.159 319.227 396.306C319.227 396.455 319.149 396.591 319.02 396.666L267.763 426.404C267.694 426.439 267.623 426.458 267.55 426.458Z" fill="#3E9BCF"/>
<path d="M130.689 375.311C149.878 375.311 165.433 366.34 165.433 355.273C165.433 344.207 149.878 335.235 130.689 335.235C111.501 335.235 95.9453 344.207 95.9453 355.273C95.9453 366.34 111.501 375.311 130.689 375.311Z" fill="#CEE6F2"/>
<path d="M111.737 366.206C101.286 360.178 101.286 350.369 111.737 344.341C117.594 340.963 125.675 339.352 133.908 339.924L133.422 342.257C126.439 341.773 119.585 343.138 114.617 346.002C105.754 351.113 105.754 359.431 114.617 364.543C123.481 369.654 137.901 369.654 146.764 364.543C155.628 359.431 155.628 351.113 146.764 346.002L149.646 344.341C160.098 350.369 160.098 360.178 149.646 366.206C139.196 372.233 122.189 372.233 111.737 366.206Z" fill="white"/>
<path d="M116.725 351.279C116.943 351.434 117.253 351.583 117.678 351.784C118.425 352.11 119.312 352.311 120.239 352.326C121.294 352.355 122.427 352.162 123.572 351.679L123.533 351.657C122.502 351.717 121.499 351.523 120.662 351.041C119.156 350.173 119.324 348.963 120.751 348.138C122.334 347.225 124.869 347.084 126.582 348.071C128.293 349.058 127.958 350.469 125.822 351.7C123.982 352.761 122.077 353.147 120.455 353.132C119.182 353.124 117.907 352.836 116.902 352.374C116.427 352.173 116.054 351.974 115.797 351.81L116.725 351.279ZM121.95 348.739C120.908 349.341 120.804 350.126 121.782 350.691C122.541 351.128 123.507 351.255 124.304 351.136C124.472 351.113 124.64 351.061 124.819 350.957C126.247 350.134 126.813 349.197 125.63 348.516C124.666 347.961 123.136 348.056 121.95 348.739Z" fill="#3A9DCA"/>
<path d="M131.701 355.91C128.857 357.551 126.232 357.847 124.379 356.778C122.745 355.836 123.17 354.314 125.912 352.704C128.717 351.085 131.47 350.892 133.17 351.871C134.934 352.888 134.365 354.372 131.701 355.91ZM127.03 353.363C124.855 354.618 124.288 355.716 125.319 356.309C126.477 356.977 128.382 356.517 130.518 355.284C132.577 354.096 133.4 353.013 132.229 352.339C131.237 351.767 129.308 352.05 127.03 353.363Z" fill="#3A9DCA"/>
<path d="M130.016 360.027L143.58 357.875L144.3 358.29L130.735 360.442L130.016 360.027ZM138.251 357.683C136.488 358.699 134.687 358.67 133.606 358.046C132.564 357.444 132.499 356.443 134.172 355.463C135.846 354.499 137.699 354.484 138.806 355.122C139.977 355.796 139.848 356.761 138.251 357.683ZM135.112 355.96C134.018 356.562 133.606 357.26 134.314 357.668C135.062 358.098 136.193 357.832 137.3 357.193C138.316 356.606 138.87 355.945 138.085 355.493C137.377 355.085 136.167 355.351 135.112 355.96ZM140.234 362.818C138.471 363.835 136.67 363.805 135.6 363.189C134.558 362.587 134.493 361.586 136.154 360.614C137.839 359.642 139.694 359.627 140.799 360.265C141.972 360.941 141.83 361.899 140.234 362.818ZM137.093 361.096C136.012 361.705 135.613 362.411 136.309 362.811C137.054 363.241 138.188 362.975 139.295 362.336C140.311 361.75 140.864 361.09 140.08 360.636C139.371 360.228 138.148 360.487 137.093 361.096Z" fill="#3A9DCA"/>
<path d="M261.767 450.909C280.956 450.909 296.511 441.937 296.511 430.871C296.511 419.804 280.956 410.833 261.767 410.833C242.579 410.833 227.023 419.804 227.023 430.871C227.023 441.937 242.579 450.909 261.767 450.909Z" fill="#CEE6F2"/>
<path d="M242.815 441.803C232.364 435.775 232.364 425.966 242.815 419.938L245.697 421.599C236.834 426.711 236.834 435.029 245.697 440.14C254.561 445.252 268.981 445.252 277.844 440.14C286.708 435.029 286.708 426.711 277.844 421.599L280.726 419.938C291.178 425.966 291.178 435.775 280.726 441.803C270.274 447.831 253.267 447.831 242.815 441.803Z" fill="white"/>
<path d="M260.146 425.266L259.4 425.696L248.139 427.99L246.969 427.316L257.998 425.141L258.024 425.126L253.931 422.765L254.87 422.223L260.146 425.266Z" fill="#3A9DCA"/>
<path d="M265.353 429.37L262.162 427.53L259.69 428.584C259.91 428.681 260.115 428.77 260.424 428.947C261.067 429.318 261.571 429.77 261.776 430.247C262.059 430.841 261.878 431.569 260.823 432.178C259.188 433.12 256.666 433.075 254.853 432.029C253.939 431.502 253.425 430.908 253.281 430.53L254.426 430.196C254.567 430.515 254.992 431.057 255.751 431.496C256.819 432.113 258.428 432.239 259.548 431.593C260.616 430.962 260.668 430.101 258.995 429.137C258.519 428.863 258.094 428.677 257.746 428.521L262.301 426.517L266.303 428.826L265.353 429.37Z" fill="#3A9DCA"/>
<path d="M261.102 435.626L274.666 433.474L275.386 433.889L261.821 436.042L261.102 435.626ZM269.337 433.28C267.574 434.297 265.773 434.267 264.692 433.643C263.65 433.042 263.584 432.04 265.258 431.061C266.932 430.096 268.785 430.081 269.892 430.72C271.063 431.396 270.933 432.36 269.337 433.28ZM266.198 431.558C265.104 432.159 264.692 432.857 265.4 433.265C266.148 433.695 267.279 433.429 268.386 432.79C269.402 432.204 269.956 431.543 269.171 431.09C268.463 430.683 267.253 430.951 266.198 431.558ZM271.32 438.416C269.557 439.432 267.756 439.403 266.686 438.786C265.644 438.185 265.579 437.183 267.24 436.211C268.925 435.239 270.78 435.224 271.885 435.863C273.058 436.539 272.916 437.496 271.32 438.416ZM268.179 436.693C267.098 437.302 266.699 438.008 267.395 438.408C268.14 438.838 269.274 438.572 270.381 437.934C271.397 437.347 271.95 436.688 271.166 436.233C270.457 435.826 269.234 436.086 268.179 436.693Z" fill="#3A9DCA"/>
<path d="M411.559 323.296C416.257 314.708 410.829 303.602 396.403 295.282C379.211 285.366 355.152 282.812 339.803 288.744L340.109 288.445C340.109 288.445 215.148 223.513 213.977 226.003C212.894 228.304 313.618 287.685 328.748 296.587C322.492 305.351 327.68 317.29 342.961 326.104C360.882 336.44 386.257 338.771 401.456 331.839C410.534 336.947 487.657 380.134 495.216 377.388C502.491 374.742 426.023 331.427 411.559 323.296Z" fill="#90BEDF"/>
<path d="M408.733 314.156V311.499L408.548 312.529C407.545 306.743 402.574 300.624 393.932 295.64C377.208 285.994 353.11 284.255 340.108 291.753C335.856 294.206 333.327 297.345 332.421 300.794L332.031 300.406V303.892L332.042 303.87C332.104 310.229 337.182 317.223 346.847 322.798C363.571 332.444 387.669 334.183 400.671 326.684C406.321 323.426 408.941 318.959 408.733 314.156Z" fill="#ABD1EC"/>
<path d="M400.67 323.374C387.667 330.872 363.571 329.133 346.846 319.487C330.122 309.842 327.106 295.943 340.108 288.444C353.111 280.946 377.208 282.685 393.932 292.331C410.656 301.976 413.674 315.875 400.67 323.374Z" fill="#D5E8F6"/>
<path d="M384.74 301.688H384.743L368.038 274.551L339.773 279.169L357.165 307.514L357.178 307.512C357.877 308.713 359.04 309.844 360.699 310.801C366.435 314.11 375.736 314.11 381.472 310.801C385.742 308.335 386.827 304.734 384.74 301.688Z" fill="url(#paint0_linear_988_1302)"/>
<path d="M353.915 285.365C362.027 285.365 368.604 281.571 368.604 276.892C368.604 272.213 362.027 268.419 353.915 268.419C345.803 268.419 339.227 272.213 339.227 276.892C339.227 281.571 345.803 285.365 353.915 285.365Z" fill="#7B8ECC"/>
<path d="M216.556 17.0419L209.922 20.6637L216.556 24.4903V201.669L503.246 367.018V374.466L509.88 370.844V186.217L216.556 17.0419Z" fill="url(#paint1_linear_988_1302)"/>
<path d="M209.922 205.293V20.6638L503.246 189.839V374.466L209.922 205.293Z" fill="#E8ECF7"/>
<path d="M498.984 367.375L213.977 202.997V27.965L498.984 192.342V367.375Z" fill="url(#paint2_linear_988_1302)"/>
<path d="M362.605 241.104L362.18 240.68H362.595L362.605 240.272V240.68H363.013H362.605V241.104Z" fill="url(#paint3_linear_988_1302)"/>
<path d="M429.725 327.752L292.055 248.344L292.131 248.041C294.599 238.209 299.9 225.684 311.131 221.839C315.254 220.43 320.785 220.705 327.568 222.655H327.74L327.771 222.714C330.687 223.563 333.783 224.699 337.233 226.189L337.073 226.561L337.077 226.986L336.903 226.952C333.44 225.459 330.338 224.323 327.423 223.48L327.263 223.426C320.722 221.552 315.359 221.273 311.4 222.627C300.635 226.31 295.464 238.356 293.013 247.94L428.454 326.061C425.072 312.525 419.152 298.261 412.525 287.726C411.836 286.625 411.068 285.493 410.246 284.359C402.777 274.088 390.504 262.906 381.525 255.333L382.061 254.698C391.076 262.299 403.401 273.531 410.919 283.871C411.754 285.022 412.531 286.171 413.23 287.284C420.056 298.137 426.137 312.914 429.494 326.811L429.725 327.752Z" fill="url(#paint4_linear_988_1302)"/>
<path d="M340.234 230.133L339.406 230.055L339.457 229.522L340.284 229.6L340.234 230.133Z" fill="url(#paint5_linear_988_1302)"/>
<path d="M377.537 251.841L377.047 240.641L377.878 240.603L378.368 251.804L377.537 251.841Z" fill="url(#paint6_linear_988_1302)"/>
<path d="M347.407 251.813L347.336 251.772L347.729 251.042L347.569 251.428L347.802 251.085L347.407 251.813Z" fill="url(#paint7_linear_988_1302)"/>
<path d="M369.687 241.51C360.107 241.51 350.383 239.356 344.763 234.598C330.911 222.858 327.792 214.141 325.679 197.824C324.586 189.385 326.048 182.303 327.114 177.132C327.623 174.665 328.063 172.536 328.063 170.974C328.063 169.207 327.492 166.475 326.773 163.019C325.945 159.055 324.916 154.122 324.43 148.91L325.259 148.834C325.74 153.999 326.765 158.908 327.587 162.852C328.318 166.354 328.896 169.123 328.896 170.976C328.896 172.622 328.469 174.689 327.93 177.301C326.875 182.415 325.431 189.42 326.504 197.719C328.823 215.635 332.864 223.426 345.301 233.967C354.976 242.155 377.169 242.432 389.091 237.201L389.427 237.963C384.181 240.261 376.975 241.51 369.687 241.51Z" fill="url(#paint8_linear_988_1302)"/>
<path d="M393.509 238.68C393.382 238.68 393.257 238.674 393.132 238.665C389.527 238.384 387.622 237.68 386.957 236.384C386.064 234.641 387.572 232.163 389.661 228.733C390.23 227.8 390.843 226.792 391.468 225.707C396.062 217.701 397.913 200.289 391.361 195.533C390.7 195.053 390.04 194.921 389.344 195.135C386.399 196.029 383.998 202.473 383.974 202.538L383.864 202.838L383.545 202.808C383.104 202.767 379.204 202.354 378.447 200.535C378.157 199.837 378.352 199.067 379.029 198.248C381.517 195.233 381.486 182.904 376.749 173.406C372.173 164.231 364.948 163.872 351.499 163.997C338.149 164.133 333.962 159.537 322.823 147.279L321.773 146.124C316.356 140.169 316.63 129.878 318.889 125.038C321.814 118.779 327.302 115.603 334.342 116.111C354.987 117.584 372.065 125.881 385.098 140.775C394.286 151.273 401.477 165.086 406.473 181.83C412.222 201.095 407.584 225.211 399.826 234.805C397.77 237.35 395.595 238.68 393.509 238.68ZM389.978 194.206C390.619 194.206 391.246 194.425 391.848 194.863C398.722 199.851 396.922 217.873 392.187 226.122C391.561 227.215 390.942 228.228 390.372 229.166C388.424 232.365 387.016 234.676 387.697 236.006C388.209 237.004 389.956 237.587 393.196 237.838C395.115 237.991 397.179 236.758 399.177 234.287C406.805 224.854 411.348 201.092 405.673 182.072C393.701 141.942 369.013 119.42 334.281 116.943C327.608 116.474 322.409 119.468 319.641 125.392C317.477 130.026 317.208 139.877 322.386 145.568L323.436 146.722C334.393 158.779 338.531 163.304 351.49 163.166C365.282 163.034 372.695 163.416 377.493 173.035C382.037 182.147 382.572 195.261 379.67 198.777C379.206 199.341 379.051 199.825 379.215 200.216C379.612 201.172 381.817 201.76 383.311 201.948C383.847 200.589 386.127 195.245 389.1 194.341C389.395 194.25 389.689 194.206 389.978 194.206Z" fill="url(#paint9_linear_988_1302)"/>
<path d="M306.635 256.755L292.055 248.346L292.131 248.042C294.593 238.212 299.891 225.686 311.131 221.839C315.254 220.429 320.785 220.703 327.568 222.657L327.35 223.459C326.869 223.334 322.506 222.346 317.909 225.66C313.534 228.813 308.035 236.652 306.682 256.094L306.635 256.755ZM293.015 247.94L305.899 255.372C307.066 239.877 310.939 229.654 317.42 224.984C319.614 223.403 321.769 222.742 323.527 222.508C318.638 221.502 314.569 221.541 311.4 222.625C300.627 226.312 295.46 238.358 293.015 247.94Z" fill="url(#paint10_linear_988_1302)"/>
<path d="M429.728 327.748L400.964 311.158L400.951 310.935C400.056 295.325 400.472 286.409 402.183 284.432C405.963 280.072 410.791 283.752 410.838 283.791L410.918 283.873C411.759 285.027 412.538 286.174 413.233 287.279C420.065 298.15 426.145 312.925 429.499 326.805L429.728 327.748ZM401.767 310.663L428.459 326.057C425.081 312.536 419.161 298.272 412.529 287.72C411.854 286.647 411.097 285.534 410.28 284.411C409.798 284.054 405.928 281.38 402.811 284.975C401.935 285.988 400.636 290.679 401.767 310.663Z" fill="url(#paint11_linear_988_1302)"/>
<path d="M345.477 257.938L345.032 257.323C344.985 257.258 340.226 250.664 336.463 241.983C333.732 235.684 334.481 230.744 336.573 229.293C337.695 228.517 339.069 228.774 340.346 229.999L340.439 230.088L340.465 230.215C340.491 230.338 343.037 242.568 348.898 248.575L349.086 248.767L345.477 257.938ZM337.947 229.688C337.628 229.688 337.326 229.783 337.048 229.977C335.49 231.057 334.515 235.393 337.229 241.652C340.288 248.709 344.008 254.37 345.267 256.206L348.117 248.962C342.478 242.994 339.977 231.913 339.678 230.511C339.08 229.965 338.489 229.688 337.947 229.688Z" fill="url(#paint12_linear_988_1302)"/>
<path d="M371.764 265.844C364.004 265.844 355.008 263.643 354.439 263.502L354.195 263.44L350.797 249.417L351.656 249.944C368.419 260.236 377.574 251.614 377.663 251.527L377.743 251.465C377.783 251.443 378.709 250.908 379.829 251.458C381.436 252.243 382.519 254.778 383.05 258.986C383.283 260.837 382.761 262.343 381.496 263.466C379.486 265.25 375.792 265.844 371.764 265.844ZM354.885 262.753C357.233 263.308 375.719 267.481 380.944 262.846C382.006 261.904 382.424 260.675 382.225 259.092C381.578 253.96 380.217 252.575 379.464 252.206C378.845 251.905 378.325 252.109 378.198 252.169C377.441 252.854 368.248 260.634 352.077 251.167L354.885 262.753Z" fill="url(#paint13_linear_988_1302)"/>
<path d="M354.817 284.543L344.812 278.775L346.77 260.923L345.174 256.437L347.899 249.337L348.347 249.717C349.038 250.303 351.057 251.88 352.073 252.121L352.321 252.18L354.783 262.342L353.154 264.597L354.817 284.543ZM345.7 278.324L353.857 283.028L352.304 264.356L353.889 262.163L351.633 252.852C350.554 252.482 349.018 251.32 348.263 250.716L346.065 256.444L347.622 260.82L345.7 278.324Z" fill="url(#paint14_linear_988_1302)"/>
<path d="M362.979 173.034C363.977 172.458 363.977 170.591 362.979 168.863C361.98 167.135 360.361 166.201 359.363 166.777C358.364 167.353 358.364 169.221 359.363 170.948C360.361 172.676 361.98 173.61 362.979 173.034Z" fill="white"/>
<path d="M378.909 192.366C379.907 191.79 379.907 189.923 378.908 188.195C377.91 186.467 376.291 185.533 375.292 186.109C374.294 186.685 374.294 188.553 375.292 190.28C376.291 192.008 377.91 192.942 378.909 192.366Z" fill="white"/>
<path d="M370.182 210.551C371.181 209.975 371.18 208.108 370.182 206.38C369.183 204.652 367.564 203.719 366.566 204.295C365.567 204.87 365.567 206.738 366.566 208.466C367.565 210.193 369.184 211.127 370.182 210.551Z" fill="white"/>
<path d="M333.174 165.557C334.173 164.981 334.173 163.114 333.174 161.386C332.175 159.658 330.556 158.724 329.558 159.3C328.559 159.876 328.56 161.744 329.558 163.471C330.557 165.199 332.176 166.133 333.174 165.557Z" fill="white"/>
<path d="M346.713 177.802C347.712 177.226 347.712 175.359 346.713 173.631C345.715 171.903 344.096 170.97 343.097 171.545C342.099 172.121 342.099 173.989 343.097 175.717C344.096 177.444 345.715 178.378 346.713 177.802Z" fill="white"/>
<path d="M332.44 185.235C333.438 184.66 333.438 182.792 332.44 181.064C331.441 179.337 329.822 178.403 328.824 178.979C327.825 179.555 327.825 181.422 328.824 183.15C329.822 184.878 331.441 185.811 332.44 185.235Z" fill="white"/>
<path d="M331.549 205.28C332.548 204.704 332.548 202.837 331.549 201.109C330.55 199.381 328.931 198.447 327.933 199.023C326.934 199.599 326.935 201.467 327.933 203.194C328.932 204.922 330.551 205.856 331.549 205.28Z" fill="white"/>
<path d="M346.713 197.154C347.712 196.579 347.712 194.711 346.713 192.983C345.715 191.256 344.096 190.322 343.097 190.898C342.099 191.474 342.099 193.341 343.097 195.069C344.096 196.797 345.715 197.73 346.713 197.154Z" fill="white"/>
<path d="M362.971 197.155C363.97 196.579 363.97 194.712 362.971 192.984C361.972 191.256 360.353 190.322 359.355 190.898C358.356 191.474 358.356 193.342 359.355 195.069C360.354 196.797 361.973 197.731 362.971 197.155Z" fill="white"/>
<path d="M351.119 213.85C352.118 213.274 352.118 211.406 351.119 209.678C350.121 207.951 348.502 207.017 347.503 207.593C346.505 208.169 346.505 210.036 347.503 211.764C348.502 213.492 350.121 214.426 351.119 213.85Z" fill="white"/>
<path d="M362.44 236.569C363.438 235.993 363.438 234.126 362.44 232.398C361.441 230.67 359.822 229.737 358.824 230.312C357.825 230.888 357.825 232.756 358.824 234.484C359.822 236.211 361.441 237.145 362.44 236.569Z" fill="white"/>
<path d="M380.166 232.965C381.165 232.389 381.165 230.522 380.166 228.794C379.168 227.066 377.549 226.133 376.55 226.708C375.552 227.284 375.552 229.152 376.55 230.88C377.549 232.607 379.168 233.541 380.166 232.965Z" fill="white"/>
<path d="M388.198 213.851C389.196 213.275 389.196 211.407 388.197 209.68C387.199 207.952 385.58 207.018 384.581 207.594C383.583 208.17 383.583 210.037 384.582 211.765C385.58 213.493 387.199 214.427 388.198 213.851Z" fill="white"/>
<path d="M341.424 226.442C342.423 225.866 342.423 223.998 341.424 222.27C340.425 220.543 338.806 219.609 337.808 220.185C336.809 220.761 336.81 222.628 337.808 224.356C338.807 226.084 340.426 227.017 341.424 226.442Z" fill="white"/>
<path opacity="0.4" d="M478.612 216.035L474.992 213.948V191.258L478.612 193.345V216.035Z" fill="white"/>
<path opacity="0.4" d="M468.774 210.358L465.156 208.27V185.582L468.774 187.668V210.358Z" fill="white"/>
<path d="M458.932 204.68L455.312 202.593V179.905L458.932 181.992V204.68Z" fill="white"/>
<path d="M449.087 199.002L445.469 196.917V174.227L449.087 176.315V199.002Z" fill="white"/>
<path d="M439.243 193.327L435.625 191.239V168.55L439.243 170.637V193.327Z" fill="white"/>
<path d="M429.399 187.649L425.781 185.562V162.874L429.399 164.96V187.649Z" fill="white"/>
<path opacity="0.4" d="M488.454 221.711L484.836 219.625V196.936L488.454 199.023V221.711Z" fill="white"/>
<g opacity="0.4">
<g opacity="0.4">
<path opacity="0.4" d="M479.253 245.443C479.182 245.443 479.111 245.424 479.046 245.387L427.556 215.687L378.737 229.922C378.517 229.986 378.286 229.861 378.22 229.639C378.155 229.42 378.282 229.189 378.504 229.124L427.492 214.839C427.6 214.808 427.718 214.823 427.817 214.879L479.46 244.667C479.659 244.782 479.726 245.035 479.613 245.234C479.538 245.369 479.398 245.443 479.253 245.443Z" fill="white"/>
</g>
<path opacity="0.4" d="M479.254 258.085L427.695 228.027V220.66L479.254 250.718V258.085Z" fill="white"/>
<path opacity="0.4" d="M479.254 268.131L427.695 238.073V230.705L479.254 260.763V268.131Z" fill="white"/>
<path opacity="0.4" d="M453.475 263.001L427.695 247.972V240.604L453.475 255.633V263.001Z" fill="white"/>
</g>
<g opacity="0.4">
<g opacity="0.4">
<path opacity="0.4" d="M280.24 217.45C280.167 217.45 280.096 217.432 280.031 217.394L228.388 187.606C228.188 187.491 228.121 187.238 228.235 187.038C228.349 186.839 228.604 186.77 228.803 186.886L280.294 216.586L329.113 202.35C329.331 202.287 329.564 202.412 329.629 202.633C329.694 202.853 329.568 203.084 329.346 203.149L280.357 217.433C280.318 217.445 280.279 217.45 280.24 217.45Z" fill="white"/>
</g>
<path opacity="0.4" d="M249.188 194.615L228.602 182.674V175.305L249.188 187.247V194.615Z" fill="white"/>
<path opacity="0.4" d="M280.161 202.365L228.602 172.307V164.939L280.161 194.997V202.365Z" fill="white"/>
<path opacity="0.4" d="M280.161 192.291L228.602 162.233V154.867L280.161 184.925V192.291Z" fill="white"/>
</g>
<g opacity="0.4">
<g opacity="0.4">
<path opacity="0.4" d="M287.968 142.423C286.96 142.423 285.871 142.1 284.766 141.464L256.682 125.267C252.361 122.774 248.844 116.076 248.844 110.333V80.6847C248.844 77.6048 249.865 75.2474 251.647 74.2195C253.137 73.3611 255.027 73.5045 256.969 74.6236L285.053 90.8201C289.373 93.3135 292.891 100.011 292.891 105.754V135.401C292.891 138.482 291.869 140.838 290.087 141.866C289.446 142.238 288.73 142.423 287.968 142.423ZM285.054 140.965C286.81 141.978 288.495 142.123 289.8 141.37C291.4 140.449 292.315 138.274 292.315 135.404V105.756C292.315 100.198 288.928 93.7213 284.766 91.321L256.682 75.1245C254.926 74.1115 253.239 73.9681 251.936 74.7186C250.337 75.6403 249.422 77.8152 249.422 80.6847V110.331C249.422 115.89 252.809 122.366 256.971 124.766L285.054 140.965Z" fill="white"/>
</g>
<g opacity="0.4">
<g opacity="0.4">
<path opacity="0.4" d="M252.531 84.6454C252.371 84.6454 252.242 84.517 252.242 84.3568C252.242 82.0999 253.019 80.4092 254.431 79.5954C255.84 78.7817 257.694 78.9549 259.652 80.0833C259.79 80.1634 259.836 80.3384 259.758 80.4762C259.678 80.614 259.503 80.6624 259.365 80.5823C257.594 79.5619 255.946 79.3869 254.719 80.0945C253.495 80.8002 252.82 82.3141 252.82 84.3568C252.82 84.5151 252.69 84.6454 252.531 84.6454Z" fill="white"/>
</g>
<g opacity="0.4">
<path opacity="0.4" d="M259.506 122.934C259.458 122.934 259.408 122.921 259.363 122.895C255.437 120.63 252.242 115.104 252.242 110.575C252.242 110.415 252.371 110.286 252.531 110.286C252.69 110.286 252.82 110.415 252.82 110.575C252.82 114.921 255.885 120.224 259.652 122.396C259.79 122.476 259.836 122.651 259.758 122.789C259.704 122.882 259.607 122.934 259.506 122.934Z" fill="white"/>
</g>
<g opacity="0.4">
<path opacity="0.4" d="M285.357 136.998C284.351 136.998 283.242 136.665 282.097 136.006C281.959 135.926 281.913 135.751 281.991 135.613C282.071 135.477 282.246 135.429 282.384 135.507C284.155 136.529 285.805 136.702 287.029 135.995C288.254 135.289 288.929 133.775 288.929 131.732C288.929 131.572 289.058 131.444 289.218 131.444C289.376 131.444 289.507 131.572 289.507 131.732C289.507 133.989 288.729 135.68 287.318 136.494C286.733 136.831 286.071 136.998 285.357 136.998Z" fill="white"/>
</g>
<g opacity="0.4">
<path opacity="0.4" d="M289.218 105.801C289.058 105.801 288.929 105.672 288.929 105.512C288.929 101.166 285.865 95.8627 282.097 93.6915C281.959 93.6114 281.913 93.4363 281.991 93.2986C282.071 93.1608 282.246 93.1142 282.384 93.1924C286.31 95.4567 289.505 100.983 289.505 105.512C289.507 105.672 289.378 105.801 289.218 105.801Z" fill="white"/>
</g>
</g>
<g opacity="0.4">
<path opacity="0.4" d="M283.255 104.622L258.894 90.5725C257.533 89.7866 256.43 87.6806 256.43 85.8688C256.43 84.0551 257.533 83.2228 258.894 84.0086L283.255 98.0581C284.616 98.8439 285.719 100.95 285.719 102.762C285.719 104.574 284.616 105.406 283.255 104.622Z" fill="white"/>
<path opacity="0.4" d="M283.255 113.865L258.894 99.8159C257.533 99.0301 256.43 96.924 256.43 95.1122C256.43 93.2985 257.533 92.4662 258.894 93.252L283.255 107.301C284.616 108.087 285.719 110.193 285.719 112.005C285.719 113.817 284.616 114.649 283.255 113.865Z" fill="white"/>
<path opacity="0.5" d="M283.255 123.109L258.894 109.059C257.533 108.273 256.43 106.167 256.43 104.356C256.43 102.542 257.533 101.71 258.894 102.495L283.255 116.545C284.616 117.331 285.719 119.437 285.719 121.249C285.719 123.06 284.616 123.893 283.255 123.109Z" fill="white"/>
<path opacity="0.5" d="M283.255 132.352L258.894 118.303C257.533 117.517 256.43 115.411 256.43 113.599C256.43 111.785 257.533 110.953 258.894 111.739L283.255 125.788C284.616 126.574 285.719 128.68 285.719 130.492C285.719 132.304 284.616 133.136 283.255 132.352Z" fill="white"/>
</g>
</g>
<path d="M196.928 83.8056L195.373 84.7236C183.891 90.6004 167.674 76.8544 167.674 76.8544L163.914 79.0721C163.914 79.0721 166.434 81.5636 167.89 82.2731C170.431 118.066 196.928 151.593 196.928 151.593C196.928 151.593 226.18 148.35 226.18 110.597C226.18 110.597 208.435 105.186 196.928 83.8056Z" fill="url(#paint15_linear_988_1302)"/>
<path d="M222.421 112.817C222.421 150.569 193.168 153.813 193.168 153.813C193.168 153.813 163.914 116.824 163.914 79.0721C163.914 79.0721 181.662 94.1309 193.168 86.0233C204.675 107.406 222.421 112.817 222.421 112.817Z" fill="url(#paint16_linear_988_1302)"/>
<path d="M222.424 112.817C222.424 150.569 193.172 153.813 193.172 153.813V86.0251C204.679 107.406 222.424 112.817 222.424 112.817Z" fill="url(#paint17_linear_988_1302)"/>
<path d="M354.661 22.023L349.086 25.2426L354.661 28.4584V64.7414L389.347 84.7459V91.1813L394.923 87.9617V45.2434L354.661 22.023Z" fill="url(#paint18_linear_988_1302)"/>
<path d="M388.872 24.3767C386.975 19.3285 382.991 12.3159 374.784 7.58243C369.651 4.6217 366.161 4.45411 363.799 5.43916C362.137 6.02199 359.091 7.34222 356.276 9.91564L360.028 9.18756C359.393 10.4538 359.024 11.7982 358.811 12.9155C358.405 13.3028 356.03 15.5746 356.03 15.7663C356.03 15.9768 353.961 23.8236 353.961 23.8236L356.243 29.369L361.818 26.1494V17.4069C361.831 16.9283 362.06 11.8448 365.309 9.9175L370.13 13.3121L378.512 21.0901L381.633 25.574L382.895 30.4434L385.4 37.3853L390.975 34.1657C390.971 33.9907 390.891 29.7544 388.872 24.3767Z" fill="url(#paint19_linear_988_1302)"/>
<path d="M389.345 48.4629V91.1813L349.086 67.9609V25.2426L389.345 48.4629Z" fill="#D5E8F6"/>
<path d="M374.064 56.118C374.064 53.0325 371.894 49.2785 369.22 47.7367C366.545 46.193 364.375 47.4443 364.375 50.5298C364.375 52.4012 365.173 54.5166 366.397 56.2372V71.0725L371.686 74.1226V59.5573C373.11 59.4046 374.064 58.1663 374.064 56.118Z" fill="url(#paint20_linear_988_1302)"/>
<path d="M356.247 29.3708L352.945 27.4678V18.6563C352.949 18.4813 353.048 14.3493 355.089 11.3178C357.003 8.47065 361.009 6.07041 369.213 10.802C377.42 15.5354 381.405 22.5481 383.301 27.5963C385.322 32.9721 385.4 37.2084 385.404 37.3872L382.103 35.5437C382.091 34.9925 381.704 21.8144 369.213 14.6118C356.83 7.4707 356.269 19.8685 356.247 20.6301V29.3708Z" fill="#D5E8F6"/>
<path d="M461.913 118.815C461.913 107.117 453.692 92.8926 443.55 87.0456C438.126 83.9173 433.251 83.8205 429.89 86.1965V86.1946L426.772 88.4217L428 87.9971C426.222 90.2335 425.188 93.4959 425.188 97.6354C425.188 109.333 433.408 123.558 443.55 129.406C448.037 131.995 452.145 132.505 455.335 131.263L454.095 132.444L457.247 130.228C460.147 128.153 461.913 124.232 461.913 118.815Z" fill="url(#paint21_linear_988_1302)"/>
<path d="M459.139 120.785C459.139 132.483 450.919 137.225 440.777 131.378C436.238 128.76 432.077 124.457 428.869 119.455C424.917 113.294 422.414 106.069 422.414 99.6073C422.414 87.9096 430.634 83.1669 440.777 89.0139C446.658 92.4048 451.888 98.6111 455.249 105.505C457.691 110.506 459.139 115.867 459.139 120.785Z" fill="#D5E8F6"/>
<path d="M440.234 118.355C434.949 115.307 429.943 109.735 425.35 101.79L425.188 101.508L425.352 101.419C425.506 101.335 441.065 93.224 456.03 119.115L456.186 119.386L456.032 119.481C455.965 119.522 449.291 123.496 440.376 118.435C440.327 118.409 440.281 118.383 440.234 118.355ZM425.836 101.892C430.334 109.601 435.223 114.968 440.372 117.913C448.346 122.44 454.494 119.58 455.549 119.021C449.442 108.556 442.577 102.501 435.143 101.022C430.2 100.037 426.634 101.516 425.836 101.892Z" fill="url(#paint22_linear_988_1302)"/>
<path d="M446.559 113.953C446.559 117.415 444.126 118.817 441.127 117.087C438.126 115.357 435.695 111.149 435.695 107.687C435.695 104.225 438.128 102.823 441.127 104.553C444.126 106.283 446.559 110.491 446.559 113.953Z" fill="url(#paint23_linear_988_1302)"/>
<path d="M315.639 34.4153C315.639 22.7176 307.419 8.49302 297.277 2.64418C291.852 -0.484148 286.98 -0.580977 283.617 1.79506V1.7932L280.498 4.02026L281.727 3.5957C279.949 5.83208 278.914 9.09448 278.914 13.2339C278.914 24.9316 287.134 39.1562 297.277 45.005C301.763 47.5933 305.872 48.1035 309.061 46.8615L307.822 48.0421L310.977 45.8281L310.974 45.8262C313.874 43.7537 315.639 39.8321 315.639 34.4153Z" fill="url(#paint24_linear_988_1302)"/>
<path d="M312.864 36.3854C312.864 42.7426 310.443 47.0385 306.601 48.6995C303.374 50.1128 299.139 49.6473 294.507 46.9789C289.966 44.3608 285.806 40.0575 282.596 35.054C282.529 34.9534 282.463 34.8548 282.404 34.7467C278.56 28.6558 276.141 21.5594 276.141 15.2022C276.141 3.51007 284.359 -1.23456 294.507 4.60684C300.388 7.99772 305.611 14.2041 308.972 21.1013C311.418 26.1066 312.864 31.4657 312.864 36.3854Z" fill="#D5E8F6"/>
<path d="M306.603 48.6995C303.377 50.1128 299.142 49.6473 294.509 46.9789C289.969 44.3608 285.808 40.0575 282.598 35.054C282.531 34.9535 282.466 34.8548 282.406 34.7468C283.247 32.7357 285.616 28.9556 291.132 30.5924C288.669 27.3598 286.973 22.6394 286.973 18.3026C286.973 12.1874 290.334 9.17085 294.476 11.5636C298.618 13.9564 301.979 20.8462 301.979 26.9613C301.979 31.2814 300.29 34.0485 297.837 34.4563C303.377 39.1767 305.755 45.7089 306.603 48.6995Z" fill="url(#paint25_linear_988_1302)"/>
<path opacity="0.7" d="M159.702 233.297L131.821 216.625C129.053 215.029 129.402 212.242 132.597 210.398L151.284 199.621C154.479 197.777 159.312 197.578 162.08 199.174L189.961 215.845C192.729 217.441 192.38 220.228 189.185 222.072L170.498 232.85C167.303 234.693 162.47 234.892 159.702 233.297Z" fill="#CAD0ED"/>
<path d="M165.936 170.972L157.755 166.233L157.757 166.239C156.674 165.637 155.274 165.701 153.741 166.585L136.557 176.495C133.131 178.471 130.352 183.774 130.352 188.338V209.812C130.352 212.307 131.185 214.059 132.499 214.817L132.482 214.823L140.552 219.502L139.625 212.728L153.741 204.587C157.168 202.611 159.947 197.308 159.947 192.744V173.076L165.936 170.972Z" fill="url(#paint26_linear_988_1302)"/>
<path d="M144.651 219.186L161.835 209.276C165.261 207.3 168.041 201.997 168.041 197.433V175.959C168.041 171.395 165.263 169.296 161.835 171.272L144.651 181.182C141.225 183.158 138.445 188.461 138.445 193.025V214.499C138.447 219.065 141.225 221.163 144.651 219.186Z" fill="#E9E7F2"/>
<path d="M176.847 182.188L164.746 175.104L164.747 175.108C163.879 174.624 162.755 174.676 161.525 175.385L147.731 183.34C144.979 184.927 142.75 189.183 142.75 192.848V210.085C142.75 212.089 143.419 213.495 144.474 214.102L144.459 214.106L156.186 220.861L155.381 215.424L161.525 205.89C164.276 204.304 166.505 200.047 166.505 196.382L172.04 183.875L176.847 182.188Z" fill="url(#paint27_linear_988_1302)"/>
<path d="M159.395 220.575L173.189 212.62C175.94 211.033 178.169 206.777 178.169 203.112V185.874C178.169 182.21 175.94 180.527 173.189 182.113L159.395 190.068C156.643 191.654 154.414 195.911 154.414 199.576V216.813C154.414 220.478 156.645 222.161 159.395 220.575Z" fill="#E9E7F2"/>
<path d="M188.389 184.016L180.208 179.277L180.21 179.283C179.127 178.681 177.727 178.744 176.195 179.629L159.01 189.539C155.584 191.515 152.805 196.818 152.805 201.382V222.856C152.805 225.351 153.638 227.103 154.952 227.861L154.935 227.867L163.003 232.533L162.078 225.774L176.195 217.633C179.623 215.657 182.4 210.354 182.4 205.79V186.122L188.389 184.016Z" fill="url(#paint28_linear_988_1302)"/>
<path d="M167.104 232.229L184.288 222.319C187.714 220.344 190.494 215.04 190.494 210.476V189.003C190.494 184.439 187.716 182.34 184.288 184.316L167.104 194.226C163.678 196.202 160.898 201.505 160.898 206.069V227.543C160.898 232.108 163.676 234.205 167.104 232.229Z" fill="#E9E7F2"/>
<path d="M169.525 225.468L181.86 218.353C184.32 216.934 186.315 213.128 186.315 209.851V194.436C186.315 191.159 184.32 189.655 181.86 191.073L169.525 198.189C167.065 199.607 165.07 203.414 165.07 206.691V222.105C165.072 225.383 167.067 226.887 169.525 225.468Z" fill="url(#paint29_linear_988_1302)"/>
<path d="M174.68 218.599C174.68 218.908 174.464 219.282 174.196 219.437C173.927 219.591 173.711 219.467 173.711 219.158C173.711 218.848 173.927 218.474 174.196 218.32C174.464 218.165 174.68 218.29 174.68 218.599Z" fill="white"/>
<path d="M170.024 219.338C170.024 219.647 169.808 220.022 169.539 220.176C169.271 220.331 169.055 220.206 169.055 219.897C169.055 219.588 169.271 219.213 169.539 219.059C169.808 218.904 170.024 219.029 170.024 219.338Z" fill="white"/>
<path d="M169.782 201.267C169.782 201.576 169.566 201.95 169.297 202.104C169.029 202.259 168.812 202.134 168.812 201.825C168.812 201.516 169.029 201.142 169.297 200.987C169.564 200.833 169.782 200.957 169.782 201.267Z" fill="white"/>
<path d="M168.672 206.663C168.672 206.972 168.456 207.346 168.188 207.501C167.919 207.655 167.703 207.531 167.703 207.222C167.703 206.912 167.919 206.538 168.188 206.384C168.456 206.229 168.672 206.356 168.672 206.663Z" fill="white"/>
<path d="M173.118 210.011C173.118 210.32 172.901 210.694 172.633 210.849C172.365 211.003 172.148 210.879 172.148 210.57C172.148 210.26 172.365 209.886 172.633 209.732C172.901 209.577 173.118 209.704 173.118 210.011Z" fill="white"/>
<path d="M172.079 204.456C172.079 204.765 171.862 205.14 171.594 205.294C171.326 205.449 171.109 205.324 171.109 205.015C171.109 204.706 171.326 204.332 171.594 204.177C171.861 204.024 172.079 204.149 172.079 204.456Z" fill="white"/>
<path d="M176.665 204.456C176.665 204.765 176.448 205.14 176.18 205.294C175.912 205.449 175.695 205.324 175.695 205.015C175.695 204.706 175.912 204.332 176.18 204.177C176.448 204.024 176.665 204.149 176.665 204.456Z" fill="white"/>
<path d="M169.008 213.7C169.008 214.009 168.792 214.383 168.524 214.538C168.255 214.692 168.039 214.567 168.039 214.258C168.039 213.949 168.255 213.575 168.524 213.42C168.792 213.266 169.008 213.391 169.008 213.7Z" fill="white"/>
<path d="M176.665 213.312C176.665 213.622 176.448 213.996 176.18 214.15C175.912 214.305 175.695 214.18 175.695 213.871C175.695 213.562 175.912 213.188 176.18 213.033C176.448 212.879 176.665 213.003 176.665 213.312Z" fill="white"/>
<path d="M177.165 199.589C177.165 199.898 176.948 200.272 176.68 200.427C176.412 200.581 176.195 200.457 176.195 200.147C176.195 199.838 176.412 199.464 176.68 199.309C176.948 199.155 177.165 199.28 177.165 199.589Z" fill="white"/>
<path d="M173.938 198.174C173.938 198.483 173.722 198.857 173.453 199.011C173.185 199.166 172.969 199.041 172.969 198.732C172.969 198.423 173.185 198.049 173.453 197.894C173.722 197.74 173.938 197.864 173.938 198.174Z" fill="white"/>
<path d="M180.266 194.211C180.266 194.52 180.05 194.894 179.782 195.049C179.513 195.203 179.297 195.079 179.297 194.77C179.297 194.461 179.513 194.086 179.782 193.932C180.05 193.777 180.266 193.902 180.266 194.211Z" fill="white"/>
<path d="M180.586 201.064C180.586 201.373 180.37 201.747 180.102 201.902C179.833 202.056 179.617 201.931 179.617 201.622C179.617 201.313 179.833 200.939 180.102 200.784C180.368 200.63 180.586 200.756 180.586 201.064Z" fill="white"/>
<path d="M178.43 208.303C178.43 208.612 178.214 208.987 177.946 209.141C177.677 209.296 177.461 209.171 177.461 208.862C177.461 208.553 177.677 208.179 177.946 208.024C178.214 207.869 178.43 207.994 178.43 208.303Z" fill="white"/>
<path d="M181.36 210.361C181.36 210.67 181.144 211.044 180.875 211.199C180.607 211.354 180.391 211.229 180.391 210.92C180.391 210.611 180.607 210.236 180.875 210.082C181.144 209.927 181.36 210.052 181.36 210.361Z" fill="white"/>
<path d="M184.868 209.735C184.868 210.044 184.652 210.419 184.383 210.573C184.115 210.728 183.898 210.603 183.898 210.294C183.898 209.985 184.115 209.611 184.383 209.456C184.65 209.302 184.868 209.426 184.868 209.735Z" fill="white"/>
<path d="M183.391 204.805C183.391 205.114 183.175 205.488 182.907 205.642C182.638 205.797 182.422 205.672 182.422 205.363C182.422 205.054 182.638 204.68 182.907 204.525C183.175 204.371 183.391 204.497 183.391 204.805Z" fill="white"/>
<path d="M183.477 196.058C183.477 196.367 183.261 196.742 182.992 196.896C182.724 197.051 182.508 196.926 182.508 196.617C182.508 196.308 182.724 195.933 182.992 195.779C183.261 195.624 183.477 195.751 183.477 196.058Z" fill="white"/>
<path d="M181.071 214.923C181.071 215.232 180.855 215.607 180.586 215.761C180.318 215.916 180.102 215.791 180.102 215.482C180.102 215.173 180.318 214.798 180.586 214.644C180.853 214.489 181.071 214.614 181.071 214.923Z" fill="white"/>
<path opacity="0.7" d="M399.03 406.278L371.149 389.607C368.381 388.011 368.73 385.223 371.925 383.38L390.612 372.602C393.807 370.758 398.64 370.559 401.408 372.155L429.289 388.826C432.057 390.422 431.708 393.21 428.513 395.053L409.826 405.831C406.631 407.675 401.798 407.876 399.03 406.278Z" fill="#CAD0ED"/>
<path d="M405.264 344.114L397.083 339.375L397.085 339.38C396.002 338.779 394.602 338.842 393.07 339.727L375.885 349.637C372.459 351.612 369.68 356.916 369.68 361.48V382.953C369.68 385.449 370.513 387.201 371.827 387.959L371.81 387.964L379.88 392.644L378.953 385.869L393.07 377.728C396.496 375.753 399.275 370.449 399.275 365.885V346.218L405.264 344.114Z" fill="url(#paint30_linear_988_1302)"/>
<path d="M383.979 392.327L401.163 382.417C404.589 380.441 407.369 375.138 407.369 370.574V349.1C407.369 344.536 404.591 342.438 401.163 344.414L383.979 354.324C380.553 356.299 377.773 361.603 377.773 366.167V387.64C377.773 392.206 380.553 394.305 383.979 392.327Z" fill="#E9E7F2"/>
<path d="M416.175 355.329L404.074 348.246L404.076 348.249C403.207 347.765 402.083 347.817 400.853 348.527L387.059 356.482C384.308 358.068 382.078 362.325 382.078 365.99V383.227C382.078 385.231 382.747 386.637 383.802 387.244L383.787 387.247L395.514 394.003L394.709 388.566L400.853 379.032C403.604 377.445 405.833 373.188 405.833 369.524L411.368 357.016L416.175 355.329Z" fill="url(#paint31_linear_988_1302)"/>
<path d="M398.723 393.716L412.517 385.761C415.268 384.175 417.497 379.918 417.497 376.253V359.016C417.497 355.351 415.268 353.668 412.517 355.255L398.723 363.209C395.972 364.796 393.742 369.053 393.742 372.717V389.955C393.742 393.619 395.972 395.303 398.723 393.716Z" fill="url(#paint32_linear_988_1302)"/>
<path d="M427.717 357.158L419.536 352.419L419.538 352.424C418.455 351.823 417.055 351.886 415.523 352.771L398.338 362.681C394.912 364.656 392.133 369.96 392.133 374.524V395.997C392.133 398.493 392.966 400.245 394.28 401.003L394.263 401.008L402.331 405.675L401.406 398.915L415.523 390.774C418.949 388.798 421.728 383.495 421.728 378.931V359.264L427.717 357.158Z" fill="url(#paint33_linear_988_1302)"/>
<path d="M406.432 405.371L423.616 395.461C427.043 393.485 429.822 388.182 429.822 383.618V362.144C429.822 357.58 427.044 355.482 423.616 357.457L406.432 367.368C403.006 369.343 400.227 374.646 400.227 379.21V400.684C400.228 405.25 403.006 407.347 406.432 405.371Z" fill="#E9E7F2"/>
<path d="M408.853 398.612L421.188 391.497C423.648 390.078 425.643 386.272 425.643 382.994V367.58C425.643 364.303 423.648 362.798 421.188 364.217L408.853 371.332C406.393 372.751 404.398 376.557 404.398 379.834V395.249C404.4 398.524 406.393 400.031 408.853 398.612Z" fill="url(#paint34_linear_988_1302)"/>
<path d="M414.008 391.741C414.008 392.05 413.792 392.424 413.524 392.578C413.255 392.733 413.039 392.608 413.039 392.299C413.039 391.99 413.255 391.616 413.524 391.461C413.792 391.307 414.008 391.431 414.008 391.741Z" fill="white"/>
<path d="M409.352 392.48C409.352 392.789 409.136 393.163 408.867 393.318C408.599 393.472 408.383 393.348 408.383 393.038C408.383 392.729 408.599 392.355 408.867 392.2C409.134 392.046 409.352 392.171 409.352 392.48Z" fill="white"/>
<path d="M409.102 374.408C409.102 374.717 408.886 375.092 408.617 375.246C408.349 375.401 408.133 375.276 408.133 374.967C408.133 374.658 408.349 374.284 408.617 374.129C408.884 373.974 409.102 374.101 409.102 374.408Z" fill="white"/>
<path d="M408.001 379.805C408.001 380.114 407.784 380.488 407.516 380.642C407.247 380.797 407.031 380.672 407.031 380.363C407.031 380.054 407.247 379.68 407.516 379.525C407.784 379.371 408.001 379.497 408.001 379.805Z" fill="white"/>
<path d="M412.454 383.154C412.454 383.464 412.237 383.838 411.969 383.992C411.701 384.147 411.484 384.022 411.484 383.713C411.484 383.404 411.701 383.03 411.969 382.875C412.237 382.721 412.454 382.845 412.454 383.154Z" fill="white"/>
<path d="M411.407 377.6C411.407 377.909 411.191 378.283 410.922 378.438C410.654 378.592 410.438 378.468 410.438 378.158C410.438 377.849 410.654 377.475 410.922 377.32C411.191 377.166 411.407 377.291 411.407 377.6Z" fill="white"/>
<path d="M415.993 377.6C415.993 377.909 415.777 378.283 415.508 378.438C415.24 378.592 415.023 378.468 415.023 378.158C415.023 377.849 415.24 377.475 415.508 377.32C415.775 377.166 415.993 377.291 415.993 377.6Z" fill="white"/>
<path d="M408.337 386.841C408.337 387.151 408.12 387.525 407.852 387.679C407.583 387.834 407.367 387.709 407.367 387.4C407.367 387.091 407.583 386.717 407.852 386.562C408.12 386.407 408.337 386.532 408.337 386.841Z" fill="white"/>
<path d="M415.993 386.454C415.993 386.763 415.777 387.138 415.508 387.292C415.24 387.447 415.023 387.322 415.023 387.013C415.023 386.704 415.24 386.329 415.508 386.175C415.775 386.02 415.993 386.145 415.993 386.454Z" fill="white"/>
<path d="M416.493 372.73C416.493 373.04 416.276 373.414 416.008 373.568C415.74 373.723 415.523 373.598 415.523 373.289C415.523 372.98 415.74 372.606 416.008 372.451C416.275 372.297 416.493 372.421 416.493 372.73Z" fill="white"/>
<path d="M413.266 371.315C413.266 371.624 413.05 371.999 412.782 372.153C412.513 372.308 412.297 372.183 412.297 371.874C412.297 371.565 412.513 371.19 412.782 371.036C413.05 370.881 413.266 371.006 413.266 371.315Z" fill="white"/>
<path d="M419.602 367.353C419.602 367.662 419.386 368.036 419.117 368.191C418.849 368.345 418.633 368.22 418.633 367.911C418.633 367.602 418.849 367.228 419.117 367.073C419.386 366.919 419.602 367.044 419.602 367.353Z" fill="white"/>
<path d="M419.907 374.207C419.907 374.516 419.691 374.89 419.422 375.045C419.154 375.2 418.938 375.075 418.938 374.766C418.938 374.457 419.154 374.082 419.422 373.928C419.689 373.773 419.907 373.898 419.907 374.207Z" fill="white"/>
<path d="M417.758 381.445C417.758 381.754 417.542 382.128 417.274 382.283C417.005 382.437 416.789 382.313 416.789 382.004C416.789 381.695 417.005 381.32 417.274 381.166C417.542 381.011 417.758 381.136 417.758 381.445Z" fill="white"/>
<path d="M420.688 383.503C420.688 383.812 420.472 384.186 420.203 384.341C419.935 384.495 419.719 384.37 419.719 384.061C419.719 383.752 419.935 383.378 420.203 383.223C420.472 383.069 420.688 383.193 420.688 383.503Z" fill="white"/>
<path d="M424.188 382.877C424.188 383.186 423.972 383.56 423.703 383.715C423.435 383.869 423.219 383.745 423.219 383.436C423.219 383.127 423.435 382.752 423.703 382.598C423.972 382.443 424.188 382.568 424.188 382.877Z" fill="white"/>
<path d="M422.711 377.948C422.711 378.257 422.495 378.631 422.227 378.786C421.958 378.941 421.742 378.816 421.742 378.507C421.742 378.198 421.958 377.823 422.227 377.669C422.493 377.514 422.711 377.639 422.711 377.948Z" fill="white"/>
<path d="M422.805 369.2C422.805 369.509 422.589 369.883 422.321 370.038C422.052 370.192 421.836 370.068 421.836 369.758C421.836 369.449 422.052 369.075 422.321 368.921C422.587 368.766 422.805 368.893 422.805 369.2Z" fill="white"/>
<path d="M420.391 388.065C420.391 388.374 420.175 388.748 419.907 388.903C419.638 389.057 419.422 388.933 419.422 388.623C419.422 388.314 419.638 387.94 419.907 387.785C420.173 387.631 420.391 387.756 420.391 388.065Z" fill="white"/>
<path opacity="0.7" d="M122.55 409.235C119.094 412.594 120.617 415.926 124.143 419.21C127.67 422.495 130.921 422.735 135.693 423.422C140.733 424.147 145.93 424.596 150.874 423.374C156.552 421.972 161.547 418.451 167.257 417.183C172.385 416.045 177.742 416.797 182.959 416.181C191.245 415.203 198.696 410.863 205.874 406.617C207.732 405.518 209.701 404.301 210.582 402.33C212.435 398.191 208.495 393.783 204.571 391.504C197.545 387.426 189.25 385.652 181.164 386.281C172.06 386.989 166.621 390.808 159.461 395.808C154.913 398.982 149.386 401.513 143.876 402.278C137.322 403.191 127.678 404.252 122.55 409.235Z" fill="#90BEDF"/>
<path d="M178.966 396.042C179.689 396.727 180.006 398.861 180.608 403.103C180.938 405.427 180.919 405.848 180.66 406.31C179.395 408.567 174.518 407.988 173.314 407.844C170.399 407.498 169.571 406.69 163.847 404.239C157.621 401.573 155.526 401.213 155.362 399.733C155.196 398.232 157.112 396.452 158.996 395.891C161.649 395.102 163.192 397.048 166.872 396.979C168.945 396.94 170.637 396.284 171.771 395.713C171.814 395.692 171.847 395.675 171.892 395.66C172.621 395.402 176.824 394.014 178.966 396.042Z" fill="url(#paint35_linear_988_1302)"/>
<path d="M148.12 406.645C148.631 406.74 149.03 407.129 149.13 407.639C149.345 408.742 149.673 410.412 150.079 412.443C150.752 415.814 150.884 416.397 150.553 417.078C149.175 419.901 142.381 419.138 141.646 419.056C139.566 418.827 139.247 418.453 129.623 414.125C125.985 412.488 124.244 411.74 124.152 410.401C124.063 409.101 125.595 407.745 127.036 407.163C130.121 405.917 132.278 408.427 136.401 408.349C137.983 408.319 140.229 407.9 142.936 406.068C143.214 405.88 143.555 405.799 143.887 405.861C145.296 406.123 146.709 406.384 148.12 406.645Z" fill="url(#paint36_linear_988_1302)"/>
<path d="M177.076 302.677C177.197 302.893 177.253 303.137 177.234 303.384C177.151 304.425 176.783 307.298 175.208 308.479C174.353 309.119 173.683 309.453 173.204 309.622C172.701 309.801 172.138 309.626 171.81 309.203C170.951 308.097 169.282 305.689 169.732 304.187C170.179 302.693 173.545 301.693 175.227 301.282C175.782 301.146 176.358 301.394 176.636 301.891L177.076 302.677Z" fill="#FFD4AA"/>
<path d="M172.305 229.066C172.295 228.241 173.067 227.625 173.869 227.828C176.35 228.459 181.068 230.49 182.969 236.941C185.525 245.613 184.166 269.2 184.082 270.604C184.078 270.652 184.074 270.693 184.065 270.742L178.555 301.935C178.46 302.472 178.035 302.885 177.496 302.965C176.503 303.114 174.955 303.25 174.234 302.799C173.22 302.166 172.432 239.659 172.305 229.066Z" fill="url(#paint37_linear_988_1302)"/>
<path d="M172.806 395.115C173.112 395.888 173.554 396.651 174.264 397.087C175.326 397.739 176.685 397.504 177.906 397.245C177.997 397.227 178.092 397.204 178.16 397.141C178.238 397.066 178.258 396.951 178.275 396.845C178.601 394.702 178.778 392.534 178.804 390.365C178.81 389.968 178.784 389.516 178.48 389.259C178.279 389.089 178.001 389.05 177.74 389.033C176.616 388.964 175.505 389.197 174.428 389.486C173.619 389.702 172.303 389.845 171.652 390.4C171.067 390.897 171.257 391.601 171.574 392.195C172.079 393.152 172.409 394.111 172.806 395.115Z" fill="#FFD4AA"/>
<path d="M174.717 299.463C175.56 298.954 176.631 299.552 176.635 300.535C176.644 302.557 177.332 305.257 176.326 307.974C169.649 326.003 175.082 354.143 175.655 354.882C176.782 356.339 179.362 383.462 180.818 390.407C180.865 390.629 180.867 390.86 180.781 391.07C180.136 392.653 178.229 392.614 176.462 393.089C175.666 393.303 174.922 393.305 174.268 393.199C172.847 392.968 169.311 391.839 168.616 390.581C165.257 384.493 157.685 361.413 156.477 354.318C155.931 351.115 152.421 328.927 155.568 320.88C159.84 309.957 168.59 303.163 174.717 299.463Z" fill="url(#paint38_linear_988_1302)"/>
<path d="M142.865 405.509C143.098 406.308 143.465 407.109 144.13 407.61C145.128 408.358 146.503 408.25 147.741 408.109C147.832 408.097 147.931 408.086 148.002 408.028C148.086 407.961 148.118 407.85 148.144 407.744C148.669 405.639 149.048 403.498 149.277 401.342C149.318 400.947 149.337 400.494 149.057 400.211C148.873 400.025 148.6 399.96 148.341 399.919C147.228 399.744 146.101 399.873 145.001 400.061C144.175 400.2 142.852 400.221 142.153 400.71C141.525 401.152 141.648 401.871 141.907 402.491C142.324 403.487 142.563 404.472 142.865 405.509Z" fill="#FFD4AA"/>
<path d="M176.642 300.468C176.217 302.347 175.644 303.768 175.219 304.68C172.699 310.099 160.654 324.016 157.228 331.943C154.001 339.388 149.766 364.507 150.083 365.513C151.39 369.701 150.914 391.264 150.633 398.768C150.592 399.848 150.083 400.83 149.285 401.485C148.91 401.785 148.478 402.008 147.995 402.15C147.721 402.234 147.43 402.299 147.121 402.358C145.05 402.723 141.855 402.956 140.766 402.483C140.142 402.209 139.669 401.677 139.46 401.029C135.243 388.108 133.046 370.915 132.829 365.239C132.705 361.966 132.729 359.199 132.58 358.027C131.482 349.352 131.998 320.644 138.86 305.229C143.028 295.872 155.97 287.705 167.773 288.312C169.37 288.396 171.167 291.744 172.871 294.72C173.993 296.681 175.083 298.483 176.056 299.107C176.524 299.396 176.757 299.937 176.642 300.468Z" fill="url(#paint39_linear_988_1302)"/>
<path d="M180.214 301.731C180.305 302.254 180.189 302.777 179.764 303.101C179.589 303.233 179.265 303.449 178.825 303.732C177.254 304.745 174.275 306.516 171.947 307.512C171.589 307.671 169.934 300.317 169.65 300.425C169.177 300.625 167.728 308.419 167.563 308.453C158.861 310.306 148.149 310.006 146.335 309.667C142.517 308.935 139.406 307.805 137.151 306.816C136.634 306.583 136.336 306.043 136.411 305.486C139.498 282.212 136.785 271.825 135.32 255.305C135.32 255.288 135.32 255.281 135.32 255.281C135.354 254.359 135.378 253.435 135.404 252.514C135.529 248.484 135.82 242.583 140.079 237.44C146.676 229.455 158.446 228.565 163.777 228.15C166.33 227.958 168.644 227.627 170.763 227.627C173.391 227.627 175.729 228.116 177.874 229.962C181.002 232.637 182.698 233.451 183.822 240.14C186.419 255.655 173.999 263.267 180.214 301.731Z" fill="url(#paint40_linear_988_1302)"/>
<path d="M162.282 213.802C163.054 213.625 163.802 214.199 163.829 214.989C164.003 219.834 164.176 224.679 164.348 229.522C164.389 230.651 163.589 231.552 162.594 232.066C161.479 232.643 158.726 232.732 157.298 232.866C154.606 233.118 151.89 231.632 151.68 229.191L151.685 217.543C151.631 216.914 152.054 216.34 152.671 216.203C156.355 215.383 158.698 214.62 162.282 213.802Z" fill="url(#paint41_linear_988_1302)"/>
<path d="M146.561 197.973C143.679 199.107 143.082 204 142.615 207.84C142.134 211.782 141.243 219.093 146.184 223.063C148.799 225.165 152.749 226.088 156.351 224.876C160.338 223.534 162.858 219.923 163.531 216.748C165.565 207.173 152.013 195.829 146.561 197.973Z" fill="#FFD4AA"/>
<path d="M164.951 225.467C162.822 225.75 160.883 224.785 159.627 224.161C155.634 222.174 152.283 217.813 153.289 215.502C153.863 214.18 155.502 214.322 155.985 212.685C156.333 211.531 155.951 209.952 154.995 209.378C153.64 208.564 152.158 210.35 150.903 209.685C149.339 208.862 150.928 205.771 149.231 202.814C148.957 202.341 148.657 201.974 148.35 201.676C148.333 201.66 148.325 201.652 148.309 201.643L148.301 201.635C148.294 201.628 148.294 201.628 148.294 201.628C146.896 200.365 145.192 200.44 143.768 198.312C142.237 196.027 141.822 192.353 143.436 190.176C145.291 187.675 149.433 186.42 154.3 186.852C157.735 187.152 163.599 187.75 169.214 192.053C169.214 192.053 169.221 192.053 169.231 192.061C169.231 192.068 169.231 192.068 169.247 192.077C169.93 192.601 170.586 193.349 171.227 194.221C171.251 194.245 171.277 194.271 171.294 194.295C171.918 195.142 172.517 196.107 173.082 197.079C173.082 197.079 173.082 197.086 173.089 197.096C173.522 197.835 173.92 198.574 174.304 199.282C174.729 200.071 175.061 200.902 175.318 201.766C178.152 211.233 171.747 224.552 164.951 225.467Z" fill="url(#paint42_linear_988_1302)"/>
<path d="M131.206 319.67C131.064 320.286 130.865 320.91 130.449 321.385C130.078 321.81 129.568 322.08 129.059 322.324C128.442 322.62 127.795 322.891 127.113 322.929C126.43 322.966 125.696 322.73 125.297 322.175C125.017 321.785 124.93 321.296 124.87 320.819C124.788 320.152 124.747 319.471 124.863 318.81C124.98 318.145 125.254 317.486 125.157 316.819C125.09 316.357 124.402 317.421 123.787 318.22C123.573 318.499 123.125 318.311 123.176 317.961C123.381 316.495 123.843 314.078 124.125 313.562C124.477 312.92 125.105 312.486 125.607 311.954C126.123 311.404 126.514 310.736 126.736 310.015C126.811 309.773 126.881 309.503 127.09 309.358C127.297 309.214 127.575 309.24 127.825 309.278C129.305 309.499 132.42 309.782 132.311 311.859C132.242 313.173 131.784 314.521 131.704 315.845C131.625 317.13 131.493 318.415 131.206 319.67Z" fill="#FFD4AA"/>
<path d="M140.084 237.438C142.137 235.911 146.019 241.505 147.093 248.143C148.536 257.066 144.217 280.296 143.958 281.68C143.949 281.728 143.939 281.767 143.924 281.814L133.314 311.67C133.152 312.19 132.679 312.546 132.134 312.559C131.13 312.583 126.087 311.497 125.429 310.959C124.913 310.538 131.014 294.385 132.973 274.589C134.526 258.88 134.218 241.801 140.084 237.438Z" fill="url(#paint43_linear_988_1302)"/>
<path d="M169.242 192.079C169.924 192.602 170.581 193.351 171.222 194.222C170.28 193.044 169.391 192.221 169.242 192.079Z" fill="url(#paint44_linear_988_1302)"/>
<path d="M175.311 201.768C174.205 204.177 171.926 206.371 165.612 207.177C157.444 208.223 149.742 202.723 148.469 201.768C149.708 202.648 157.295 207.642 168.216 204.892C174.364 203.339 174.446 199.989 173.083 197.097C173.516 197.837 173.915 198.576 174.299 199.284C174.72 200.073 175.054 200.904 175.311 201.768Z" fill="url(#paint45_linear_988_1302)"/>
<path opacity="0.08" d="M180.214 301.731C180.306 302.254 180.19 302.777 179.765 303.101C179.59 303.233 179.266 303.449 178.826 303.732C170.158 284.447 178.755 259.731 180.852 248.724C183.57 234.46 170.766 227.627 170.766 227.627C173.394 227.627 175.731 228.116 177.877 229.962C181.005 232.637 182.701 233.451 183.825 240.14C186.42 255.655 174 263.267 180.214 301.731Z" fill="black"/>
<path opacity="0.08" d="M176.641 300.468C176.216 302.347 175.644 303.768 175.219 304.68C172.699 310.099 160.653 324.016 157.227 331.943C154.001 339.388 149.765 364.507 150.082 365.513C151.389 369.701 150.914 391.264 150.632 398.768C150.591 399.848 150.082 400.83 149.285 401.485V401.336C150.2 365.746 148.086 365.614 148.086 365.614C148.086 365.614 150.025 343.037 154.399 330.846C158.784 318.664 166.669 308.635 166.669 308.635C166.669 308.635 167.766 297.608 171.951 295.1C172.268 294.908 172.576 294.783 172.874 294.718C173.996 296.679 175.086 298.481 176.06 299.105C176.524 299.395 176.757 299.937 176.641 300.468Z" fill="black"/>
<path d="M35.2748 121.742L33.0156 123.069L35.2748 127.635V129.286C35.2748 133.353 37.75 138.078 40.8037 139.839C41.0322 139.971 41.2561 140.08 41.4785 140.172L42.1253 141.478L44.3658 140.162V140.161C45.5692 139.504 46.3341 137.924 46.3341 135.663V128.119L35.2748 121.742Z" fill="url(#paint46_linear_988_1302)"/>
<path d="M38.5445 141.164C35.4909 139.403 33.0156 134.678 33.0156 130.611V123.067L44.075 129.444V136.988C44.0734 141.055 41.5982 142.925 38.5445 141.164Z" fill="url(#paint47_linear_988_1302)"/>
<path d="M36.9297 135.618C36.9297 136.648 37.6542 137.901 38.5467 138.417C39.4407 138.932 40.1637 138.514 40.1637 137.483C40.1637 136.453 39.4392 135.2 38.5467 134.684C37.6542 134.169 36.9297 134.587 36.9297 135.618Z" fill="url(#paint48_linear_988_1302)"/>
<path d="M29.3359 149.734V160.407C29.3359 162.692 33.1281 164.545 37.8065 164.545C42.485 164.545 46.2772 162.692 46.2772 160.407V149.734H29.3359Z" fill="url(#paint49_linear_988_1302)"/>
<path d="M37.8065 153.906C42.4847 153.906 46.2772 152.053 46.2772 149.768C46.2772 147.483 42.4847 145.631 37.8065 145.631C33.1284 145.631 29.3359 147.483 29.3359 149.768C29.3359 152.053 33.1284 153.906 37.8065 153.906Z" fill="#ABD1EC"/>
<path d="M33.0156 136.213V149.823C33.0156 151.116 35.1628 152.166 37.8138 152.166C40.4647 152.166 42.6119 151.116 42.6119 149.823V136.213H33.0156Z" fill="url(#paint50_linear_988_1302)"/>
<path d="M37.8138 138.556C40.4637 138.556 42.6119 137.507 42.6119 136.213C42.6119 134.918 40.4637 133.869 37.8138 133.869C35.1638 133.869 33.0156 134.918 33.0156 136.213C33.0156 137.507 35.1638 138.556 37.8138 138.556Z" fill="#ABD1EC"/>
<path d="M28.2591 125.794L26 127.121L28.2591 131.687V133.338C28.2591 137.405 30.7344 142.13 33.788 143.891C34.0166 144.023 34.2421 144.132 34.4628 144.224L35.1096 145.53L37.3501 144.214V144.213C38.5535 143.556 39.3185 141.976 39.3185 139.715V132.171L28.2591 125.794Z" fill="url(#paint51_linear_988_1302)"/>
<path d="M31.5289 145.216C28.4753 143.455 26 138.73 26 134.663V127.119L37.0578 133.496V141.04C37.0594 145.107 34.5841 146.977 31.5289 145.216Z" fill="url(#paint52_linear_988_1302)"/>
<path d="M30.25 141.088C30.25 141.905 30.8237 142.899 31.5327 143.307C32.2417 143.716 32.8154 143.385 32.8154 142.568C32.8154 141.751 32.2417 140.757 31.5327 140.349C30.8253 139.939 30.25 140.269 30.25 141.088Z" fill="url(#paint53_linear_988_1302)"/>
<path d="M77.3591 134.405L60.2422 124.267L65.4042 122.272L76.4169 129.787L78.4195 133.515L77.3591 134.405Z" fill="url(#paint54_linear_988_1302)"/>
<path d="M62.2496 149.795C66.1366 143.116 70.0221 136.438 73.9091 129.761C58.9005 121.118 43.8919 112.475 28.8849 103.83C28.8849 103.831 28.8833 103.831 28.8833 103.833C27.3907 102.903 25.2933 102.994 22.9688 104.335C18.4381 106.947 14.7656 113.302 14.7656 118.527C14.7656 121.073 15.6394 122.879 17.0559 123.761C17.0559 123.763 17.0543 123.763 17.0543 123.764C17.0761 123.777 17.0978 123.789 17.1196 123.802C17.1523 123.82 17.1849 123.84 17.2176 123.857C32.2293 132.505 47.2379 141.15 62.2496 149.795Z" fill="url(#paint55_linear_988_1302)"/>
<path d="M76.2033 135C76.2033 140.226 72.5308 146.58 68.0001 149.192C63.4693 151.804 59.7969 149.688 59.7969 144.461C59.7969 139.235 63.4693 132.881 68.0001 130.269C72.5308 127.656 76.2033 129.775 76.2033 135Z" fill="url(#paint56_linear_988_1302)"/>
<path d="M74.6592 135.891C74.6592 140.133 71.6786 145.291 68.0015 147.411C64.3243 149.531 61.3438 147.813 61.3438 143.571C61.3438 139.33 64.3243 134.172 68.0015 132.052C71.6786 129.93 74.6592 131.65 74.6592 135.891Z" fill="url(#paint57_linear_988_1302)"/>
<path d="M72.3879 137.199C72.3879 139.996 70.4226 143.396 67.9986 144.794C65.5747 146.191 63.6094 145.058 63.6094 142.262C63.6094 139.465 65.5747 136.065 67.9986 134.667C70.4226 133.269 72.3879 134.402 72.3879 137.199Z" fill="url(#paint58_linear_988_1302)"/>
<path d="M71.3868 137.778C71.3868 139.934 69.8709 142.556 68.002 143.633C66.1331 144.711 64.6172 143.837 64.6172 141.681C64.6172 139.525 66.1331 136.904 68.002 135.826C69.8724 134.75 71.3868 135.622 71.3868 137.778Z" fill="url(#paint59_linear_988_1302)"/>
<path d="M25.4903 98.5292C25.4903 98.5307 25.4888 98.5307 25.4888 98.5323C25.3333 98.436 25.1716 98.3521 25.0052 98.2744C24.9617 98.2465 24.9182 98.2185 24.8715 98.1921C23.1877 97.2214 20.8617 97.3612 18.2931 98.8429C13.3006 101.722 9.22856 108.607 9 114.432C26.2009 124.344 43.4033 134.256 60.6042 144.168C60.7908 142.862 62.2041 133.976 69.8009 129.86C72.3026 128.505 74.7437 128.063 76.5581 127.939C59.536 118.136 42.514 108.332 25.4903 98.5292Z" fill="url(#paint60_linear_988_1302)"/>
<path d="M62.3521 143.074C62.5775 138.389 65.8504 132.887 69.8556 130.576C73.8577 128.268 77.1275 129.989 77.3576 134.405C77.9546 134.051 78.5501 133.695 79.1472 133.341C79.1347 132.904 78.9823 129.334 76.434 127.863C74.7502 126.892 72.4242 127.032 69.8556 128.514C64.8631 131.393 60.7911 138.278 60.5625 144.102C61.1595 143.761 61.7566 143.418 62.3521 143.074Z" fill="#ABD1EC"/>
<path opacity="0.7" d="M70.6734 134.173C71.7167 134.498 72.3884 135.563 72.3884 137.197C72.3884 139.994 70.4231 143.394 67.9991 144.792C65.9079 145.997 64.1603 145.32 63.7188 143.317C83.5055 170.068 89.5853 177.111 105.432 200.113L134.537 163.736L70.6734 134.173Z" fill="url(#paint61_linear_988_1302)"/>
<defs>
<linearGradient id="paint0_linear_988_1302" x1="367.112" y1="301.703" x2="357.152" y2="287.557" gradientUnits="userSpaceOnUse">
<stop stop-color="#0984BD"/>
<stop offset="1" stop-color="#56A5D7"/>
</linearGradient>
<linearGradient id="paint1_linear_988_1302" x1="388.211" y1="267.605" x2="290.578" y2="169.621" gradientUnits="userSpaceOnUse">
<stop stop-color="#0984BD"/>
<stop offset="1" stop-color="#56A5D7"/>
</linearGradient>
<linearGradient id="paint2_linear_988_1302" x1="223.436" y1="29.4791" x2="473.768" y2="346.6" gradientUnits="userSpaceOnUse">
<stop stop-color="#55A5D7"/>
<stop offset="1" stop-color="#1B8CC3"/>
</linearGradient>
<linearGradient id="paint3_linear_988_1302" x1="327.484" y1="113.598" x2="382.552" y2="313.33" gradientUnits="userSpaceOnUse">
<stop stop-color="#A1FFFE"/>
<stop offset="1" stop-color="#F6F7FB"/>
</linearGradient>
<linearGradient id="paint4_linear_988_1302" x1="313.785" y1="117.374" x2="368.856" y2="317.108" gradientUnits="userSpaceOnUse">
<stop stop-color="#A1FFFE"/>
<stop offset="1" stop-color="#F6F7FB"/>
</linearGradient>
<linearGradient id="paint5_linear_988_1302" x1="309.13" y1="118.651" x2="364.207" y2="318.394" gradientUnits="userSpaceOnUse">
<stop stop-color="#A1FFFE"/>
<stop offset="1" stop-color="#F6F7FB"/>
</linearGradient>
<linearGradient id="paint6_linear_988_1302" x1="340.102" y1="110.118" x2="395.171" y2="309.851" gradientUnits="userSpaceOnUse">
<stop stop-color="#A1FFFE"/>
<stop offset="1" stop-color="#F6F7FB"/>
</linearGradient>
<linearGradient id="paint7_linear_988_1302" x1="310.762" y1="118.203" x2="365.838" y2="317.944" gradientUnits="userSpaceOnUse">
<stop stop-color="#A1FFFE"/>
<stop offset="1" stop-color="#F6F7FB"/>
</linearGradient>
<linearGradient id="paint8_linear_988_1302" x1="328.121" y1="113.422" x2="383.192" y2="313.156" gradientUnits="userSpaceOnUse">
<stop stop-color="#A1FFFE"/>
<stop offset="1" stop-color="#F6F7FB"/>
</linearGradient>
<linearGradient id="paint9_linear_988_1302" x1="347.802" y1="107.995" x2="402.872" y2="307.729" gradientUnits="userSpaceOnUse">
<stop stop-color="#A1FFFE"/>
<stop offset="1" stop-color="#F6F7FB"/>
</linearGradient>
<linearGradient id="paint10_linear_988_1302" x1="279.766" y1="126.754" x2="334.836" y2="326.487" gradientUnits="userSpaceOnUse">
<stop stop-color="#A1FFFE"/>
<stop offset="1" stop-color="#F6F7FB"/>
</linearGradient>
<linearGradient id="paint11_linear_988_1302" x1="356.324" y1="105.646" x2="411.394" y2="305.379" gradientUnits="userSpaceOnUse">
<stop stop-color="#A1FFFE"/>
<stop offset="1" stop-color="#F6F7FB"/>
</linearGradient>
<linearGradient id="paint12_linear_988_1302" x1="307.744" y1="119.041" x2="362.814" y2="318.774" gradientUnits="userSpaceOnUse">
<stop stop-color="#A1FFFE"/>
<stop offset="1" stop-color="#F6F7FB"/>
</linearGradient>
<linearGradient id="paint13_linear_988_1302" x1="327.949" y1="113.469" x2="383.02" y2="313.203" gradientUnits="userSpaceOnUse">
<stop stop-color="#A1FFFE"/>
<stop offset="1" stop-color="#F6F7FB"/>
</linearGradient>
<linearGradient id="paint14_linear_988_1302" x1="308.083" y1="118.947" x2="363.153" y2="318.681" gradientUnits="userSpaceOnUse">
<stop stop-color="#A1FFFE"/>
<stop offset="1" stop-color="#F6F7FB"/>
</linearGradient>
<linearGradient id="paint15_linear_988_1302" x1="163.911" y1="114.225" x2="226.179" y2="114.225" gradientUnits="userSpaceOnUse">
<stop stop-color="#4F8DB9"/>
<stop offset="1" stop-color="#7EBBE9"/>
</linearGradient>
<linearGradient id="paint16_linear_988_1302" x1="163.911" y1="116.444" x2="222.42" y2="116.444" gradientUnits="userSpaceOnUse">
<stop stop-color="#ABD1EC"/>
<stop offset="1" stop-color="#D5E8F6"/>
</linearGradient>
<linearGradient id="paint17_linear_988_1302" x1="193.17" y1="119.92" x2="222.424" y2="119.92" gradientUnits="userSpaceOnUse">
<stop stop-color="#ABD1EC"/>
<stop offset="1" stop-color="#D5E8F6"/>
</linearGradient>
<linearGradient id="paint18_linear_988_1302" x1="376.33" y1="70.5046" x2="357.938" y2="55.9273" gradientUnits="userSpaceOnUse">
<stop stop-color="#0984BD"/>
<stop offset="1" stop-color="#56A5D7"/>
</linearGradient>
<linearGradient id="paint19_linear_988_1302" x1="375.961" y1="27.6725" x2="367.496" y2="16.1378" gradientUnits="userSpaceOnUse">
<stop stop-color="#0984BD"/>
<stop offset="1" stop-color="#56A5D7"/>
</linearGradient>
<linearGradient id="paint20_linear_988_1302" x1="370.134" y1="66.0361" x2="364.786" y2="63.7448" gradientUnits="userSpaceOnUse">
<stop stop-color="#0984BD"/>
<stop offset="1" stop-color="#56A5D7"/>
</linearGradient>
<linearGradient id="paint21_linear_988_1302" x1="447.016" y1="118.122" x2="433.981" y2="106.17" gradientUnits="userSpaceOnUse">
<stop stop-color="#0984BD"/>
<stop offset="1" stop-color="#56A5D7"/>
</linearGradient>
<linearGradient id="paint22_linear_988_1302" x1="443.613" y1="114.769" x2="438.745" y2="106.115" gradientUnits="userSpaceOnUse">
<stop stop-color="#0984BD"/>
<stop offset="1" stop-color="#56A5D7"/>
</linearGradient>
<linearGradient id="paint23_linear_988_1302" x1="442.152" y1="113.637" x2="438.335" y2="110.099" gradientUnits="userSpaceOnUse">
<stop stop-color="#0984BD"/>
<stop offset="1" stop-color="#56A5D7"/>
</linearGradient>
<linearGradient id="paint24_linear_988_1302" x1="300.743" y1="33.7206" x2="287.707" y2="21.769" gradientUnits="userSpaceOnUse">
<stop stop-color="#0984BD"/>
<stop offset="1" stop-color="#56A5D7"/>
</linearGradient>
<linearGradient id="paint25_linear_988_1302" x1="296.788" y1="37.8988" x2="286.642" y2="30.3194" gradientUnits="userSpaceOnUse">
<stop stop-color="#0984BD"/>
<stop offset="1" stop-color="#56A5D7"/>
</linearGradient>
<linearGradient id="paint26_linear_988_1302" x1="130.35" y1="192.674" x2="165.935" y2="192.674" gradientUnits="userSpaceOnUse">
<stop stop-color="#ABD1EC"/>
<stop offset="1" stop-color="#D5E8F6"/>
</linearGradient>
<linearGradient id="paint27_linear_988_1302" x1="163.016" y1="207.087" x2="150.525" y2="196.032" gradientUnits="userSpaceOnUse">
<stop stop-color="#0984BD"/>
<stop offset="1" stop-color="#56A5D7"/>
</linearGradient>
<linearGradient id="paint28_linear_988_1302" x1="152.803" y1="205.711" x2="188.389" y2="205.711" gradientUnits="userSpaceOnUse">
<stop stop-color="#ABD1EC"/>
<stop offset="1" stop-color="#D5E8F6"/>
</linearGradient>
<linearGradient id="paint29_linear_988_1302" x1="165.069" y1="208.271" x2="186.314" y2="208.271" gradientUnits="userSpaceOnUse">
<stop stop-color="#ABD1EC"/>
<stop offset="1" stop-color="#D5E8F6"/>
</linearGradient>
<linearGradient id="paint30_linear_988_1302" x1="369.678" y1="365.816" x2="405.264" y2="365.816" gradientUnits="userSpaceOnUse">
<stop stop-color="#ABD1EC"/>
<stop offset="1" stop-color="#D5E8F6"/>
</linearGradient>
<linearGradient id="paint31_linear_988_1302" x1="402.345" y1="380.229" x2="389.853" y2="369.173" gradientUnits="userSpaceOnUse">
<stop stop-color="#0984BD"/>
<stop offset="1" stop-color="#56A5D7"/>
</linearGradient>
<linearGradient id="paint32_linear_988_1302" x1="407.862" y1="382.457" x2="397.605" y2="375.11" gradientUnits="userSpaceOnUse">
<stop stop-color="#0984BD"/>
<stop offset="1" stop-color="#56A5D7"/>
</linearGradient>
<linearGradient id="paint33_linear_988_1302" x1="392.131" y1="378.853" x2="427.717" y2="378.853" gradientUnits="userSpaceOnUse">
<stop stop-color="#ABD1EC"/>
<stop offset="1" stop-color="#D5E8F6"/>
</linearGradient>
<linearGradient id="paint34_linear_988_1302" x1="404.397" y1="381.415" x2="425.643" y2="381.415" gradientUnits="userSpaceOnUse">
<stop stop-color="#ABD1EC"/>
<stop offset="1" stop-color="#D5E8F6"/>
</linearGradient>
<linearGradient id="paint35_linear_988_1302" x1="180.858" y1="401.487" x2="155.351" y2="401.487" gradientUnits="userSpaceOnUse">
<stop offset="0.0545" stop-color="#14416A"/>
<stop offset="1" stop-color="#004F98"/>
</linearGradient>
<linearGradient id="paint36_linear_988_1302" x1="150.73" y1="412.526" x2="124.148" y2="412.526" gradientUnits="userSpaceOnUse">
<stop offset="0.0545" stop-color="#14416A"/>
<stop offset="1" stop-color="#004F98"/>
</linearGradient>
<linearGradient id="paint37_linear_988_1302" x1="184.519" y1="265.449" x2="172.305" y2="265.449" gradientUnits="userSpaceOnUse">
<stop stop-color="#F57454"/>
<stop offset="1" stop-color="#F7947C"/>
</linearGradient>
<linearGradient id="paint38_linear_988_1302" x1="180.853" y1="346.272" x2="154.273" y2="346.272" gradientUnits="userSpaceOnUse">
<stop offset="0.0545" stop-color="#14416A"/>
<stop offset="1" stop-color="#004F98"/>
</linearGradient>
<linearGradient id="paint39_linear_988_1302" x1="176.676" y1="345.514" x2="132.132" y2="345.514" gradientUnits="userSpaceOnUse">
<stop offset="0.0545" stop-color="#14416A"/>
<stop offset="1" stop-color="#004F98"/>
</linearGradient>
<linearGradient id="paint40_linear_988_1302" x1="184.193" y1="268.775" x2="135.323" y2="268.775" gradientUnits="userSpaceOnUse">
<stop stop-color="#F57454"/>
<stop offset="1" stop-color="#F7947C"/>
</linearGradient>
<linearGradient id="paint41_linear_988_1302" x1="157.128" y1="219.339" x2="159.138" y2="233.301" gradientUnits="userSpaceOnUse">
<stop stop-color="#E0AE94"/>
<stop offset="1" stop-color="#FFD4AA"/>
</linearGradient>
<linearGradient id="paint42_linear_988_1302" x1="176.004" y1="206.136" x2="142.406" y2="206.136" gradientUnits="userSpaceOnUse">
<stop stop-color="#14416A"/>
<stop offset="1" stop-color="#004F98"/>
</linearGradient>
<linearGradient id="paint43_linear_988_1302" x1="147.391" y1="274.873" x2="125.4" y2="274.873" gradientUnits="userSpaceOnUse">
<stop stop-color="#F57454"/>
<stop offset="1" stop-color="#F7947C"/>
</linearGradient>
<linearGradient id="paint44_linear_988_1302" x1="170.344" y1="192.867" x2="169.986" y2="193.774" gradientUnits="userSpaceOnUse">
<stop stop-color="#E0AE94"/>
<stop offset="1" stop-color="#FFD4AA"/>
</linearGradient>
<linearGradient id="paint45_linear_988_1302" x1="175.309" y1="202.201" x2="148.468" y2="202.201" gradientUnits="userSpaceOnUse">
<stop stop-color="#0F3455"/>
<stop offset="1" stop-color="#004F98"/>
</linearGradient>
<linearGradient id="paint46_linear_988_1302" x1="33.0146" y1="131.609" x2="46.3331" y2="131.609" gradientUnits="userSpaceOnUse">
<stop stop-color="#0984BD"/>
<stop offset="1" stop-color="#56A5D7"/>
</linearGradient>
<linearGradient id="paint47_linear_988_1302" x1="34.1449" y1="138.627" x2="40.5966" y2="127.441" gradientUnits="userSpaceOnUse">
<stop stop-color="#0984BD"/>
<stop offset="1" stop-color="#56A5D7"/>
</linearGradient>
<linearGradient id="paint48_linear_988_1302" x1="40.1652" y1="136.55" x2="36.9302" y2="136.55" gradientUnits="userSpaceOnUse">
<stop stop-color="#0984BD"/>
<stop offset="1" stop-color="#56A5D7"/>
</linearGradient>
<linearGradient id="paint49_linear_988_1302" x1="29.3362" y1="157.14" x2="46.2767" y2="157.14" gradientUnits="userSpaceOnUse">
<stop stop-color="#0984BD"/>
<stop offset="1" stop-color="#56A5D7"/>
</linearGradient>
<linearGradient id="paint50_linear_988_1302" x1="33.0162" y1="144.19" x2="42.6111" y2="144.19" gradientUnits="userSpaceOnUse">
<stop stop-color="#0984BD"/>
<stop offset="1" stop-color="#56A5D7"/>
</linearGradient>
<linearGradient id="paint51_linear_988_1302" x1="38.9262" y1="143.327" x2="28.6758" y2="125.554" gradientUnits="userSpaceOnUse">
<stop stop-color="#0984BD"/>
<stop offset="1" stop-color="#56A5D7"/>
</linearGradient>
<linearGradient id="paint52_linear_988_1302" x1="26.0003" y1="136.5" x2="37.0589" y2="136.5" gradientUnits="userSpaceOnUse">
<stop stop-color="#0984BD"/>
<stop offset="1" stop-color="#56A5D7"/>
</linearGradient>
<linearGradient id="paint53_linear_988_1302" x1="32.8162" y1="141.827" x2="30.2506" y2="141.827" gradientUnits="userSpaceOnUse">
<stop offset="0.0545" stop-color="#14416A"/>
<stop offset="1" stop-color="#004F98"/>
</linearGradient>
<linearGradient id="paint54_linear_988_1302" x1="60.2426" y1="128.338" x2="78.4194" y2="128.338" gradientUnits="userSpaceOnUse">
<stop offset="0.0545" stop-color="#14416A"/>
<stop offset="1" stop-color="#004F98"/>
</linearGradient>
<linearGradient id="paint55_linear_988_1302" x1="36.8306" y1="135.171" x2="48.4262" y2="115.065" gradientUnits="userSpaceOnUse">
<stop stop-color="#0984BD"/>
<stop offset="1" stop-color="#56A5D7"/>
</linearGradient>
<linearGradient id="paint56_linear_988_1302" x1="76.2039" y1="139.731" x2="59.7978" y2="139.731" gradientUnits="userSpaceOnUse">
<stop stop-color="#0984BD"/>
<stop offset="1" stop-color="#56A5D7"/>
</linearGradient>
<linearGradient id="paint57_linear_988_1302" x1="61.3426" y1="139.731" x2="74.6588" y2="139.731" gradientUnits="userSpaceOnUse">
<stop offset="0.0545" stop-color="#14416A"/>
<stop offset="1" stop-color="#004F98"/>
</linearGradient>
<linearGradient id="paint58_linear_988_1302" x1="63.6079" y1="139.731" x2="72.3879" y2="139.731" gradientUnits="userSpaceOnUse">
<stop stop-color="#FAB371"/>
<stop offset="1" stop-color="#FCD5B0"/>
</linearGradient>
<linearGradient id="paint59_linear_988_1302" x1="64.6186" y1="139.731" x2="71.3871" y2="139.731" gradientUnits="userSpaceOnUse">
<stop offset="0.0545" stop-color="#14416A"/>
<stop offset="1" stop-color="#004F98"/>
</linearGradient>
<linearGradient id="paint60_linear_988_1302" x1="36.405" y1="130.237" x2="47.4213" y2="111.135" gradientUnits="userSpaceOnUse">
<stop stop-color="#ABD1EC"/>
<stop offset="0.5743" stop-color="#EEF6FB"/>
</linearGradient>
<linearGradient id="paint61_linear_988_1302" x1="63.6301" y1="136.511" x2="111.341" y2="183.361" gradientUnits="userSpaceOnUse">
<stop stop-color="#38C5EA"/>
<stop offset="1" stop-color="#38C5EA" stop-opacity="0"/>
</linearGradient>
</defs>
</svg>
