<svg width="300" height="300" viewBox="0 0 300 300" fill="none" xmlns="http://www.w3.org/2000/svg">
<g clip-path="url(#clip0_1011_8532)">
<path d="M242.892 78.4683L100.305 160.19V217.925L242.892 136.203V78.4683Z" fill="#0984BD"/>
<path d="M105.808 157.213L104.992 157.663V215.398L105.808 214.948V157.213Z" fill="#3A9DCA"/>
<path d="M111.301 153.717L110.484 154.185V211.919L111.301 211.452V153.717Z" fill="#3A9DCA"/>
<path d="M116.65 150.706L115.852 151.173V208.908L116.65 208.441V150.706Z" fill="#3A9DCA"/>
<path d="M122.135 147.21L121.336 147.677V205.412L122.135 204.945V147.21Z" fill="#3A9DCA"/>
<path d="M127.119 145.774L126.32 146.241V203.976L127.119 203.509V145.774Z" fill="#3A9DCA"/>
<path d="M132.629 142.295L131.812 142.762V200.497L132.629 200.03V142.295Z" fill="#3A9DCA"/>
<path d="M137.973 139.284L137.156 139.751V197.486L137.973 197.019V139.284Z" fill="#3A9DCA"/>
<path d="M143.465 135.788L142.648 136.255V193.99L143.465 193.523V135.788Z" fill="#3A9DCA"/>
<path d="M148.691 132.603L147.875 133.071V190.805L148.691 190.338V132.603Z" fill="#3A9DCA"/>
<path d="M154.176 129.125L153.359 129.592V187.327L154.176 186.86V129.125Z" fill="#3A9DCA"/>
<path d="M159.525 126.113L158.727 126.563V184.298L159.525 183.848V126.113Z" fill="#3A9DCA"/>
<path d="M165.018 122.617L164.219 123.085V180.82L165.018 180.352V122.617Z" fill="#3A9DCA"/>
<path d="M170.002 121.181L169.203 121.648V177.601L170.002 177.133V121.181Z" fill="#3A9DCA"/>
<path d="M175.486 117.702L174.688 118.17V174.607L175.486 174.139V117.702Z" fill="#3A9DCA"/>
<path d="M180.855 114.691L180.039 115.141V171.63L180.855 171.162V114.691Z" fill="#3A9DCA"/>
<path d="M186.34 111.195L185.523 111.662V168.376L186.34 167.909V111.195Z" fill="#3A9DCA"/>
<path d="M191.887 107.716L191.07 108.184V165.918L191.887 165.451V107.716Z" fill="#3A9DCA"/>
<path d="M197.371 104.22L196.555 104.688V162.423L197.371 161.955V104.22Z" fill="#3A9DCA"/>
<path d="M202.721 101.209L201.922 101.676V159.411L202.721 158.944V101.209Z" fill="#3A9DCA"/>
<path d="M208.223 97.7305L207.406 98.1804V155.915L208.223 155.465V97.7305Z" fill="#3A9DCA"/>
<path d="M213.207 96.2939L212.391 96.7612V154.496L213.207 154.029V96.2939Z" fill="#3A9DCA"/>
<path d="M218.699 148.733V92.7981L217.883 93.2654V149.27C218.143 149.079 218.421 148.837 218.699 148.733Z" fill="#3A9DCA"/>
<path d="M224.051 146.189V89.7866L223.234 90.2539V146.483L224.051 146.189Z" fill="#3A9DCA"/>
<path d="M229.535 86.3081L228.719 86.7581V144.493L229.535 144.026V86.3081Z" fill="#3A9DCA"/>
<path d="M234.402 84.1274L233.586 84.5774V142.312L234.402 141.862V84.1274Z" fill="#3A9DCA"/>
<path d="M239.887 80.6316L239.07 81.0989V138.834L239.887 138.366V80.6316Z" fill="#3A9DCA"/>
<path d="M17.8438 112.701V170.436L100.304 217.925V160.19L17.8438 112.701Z" fill="#38C5EA"/>
<path d="M94.125 155.362L94.9413 155.812V213.546L94.125 213.096V155.362Z" fill="#0984BD"/>
<path d="M88.6328 151.865L89.4491 152.333V210.068L88.6328 209.6V151.865Z" fill="#0984BD"/>
<path d="M83.2812 148.854L84.0975 149.322V207.056L83.2812 206.589V148.854Z" fill="#0984BD"/>
<path d="M77.7969 145.358L78.5958 145.826V203.561L77.7969 203.093V145.358Z" fill="#0984BD"/>
<path d="M72.8125 143.939L73.6114 144.406V202.141L72.8125 201.674V143.939Z" fill="#0984BD"/>
<path d="M67.3203 140.443L68.1192 140.91V198.645L67.3203 198.178V140.443Z" fill="#0984BD"/>
<path d="M61.9609 137.432L62.7772 137.899V195.634L61.9609 195.167V137.432Z" fill="#0984BD"/>
<path d="M56.0703 133.936L56.8866 134.403V192.138L56.0703 191.671V133.936Z" fill="#0984BD"/>
<path d="M50.2891 130.63L51.1053 131.098V188.833L50.2891 188.365V130.63Z" fill="#0984BD"/>
<path d="M44.7969 127.152L45.5958 127.602V185.336L44.7969 184.887V127.152Z" fill="#0984BD"/>
<path d="M39.4453 124.123L40.2442 124.59V182.325L39.4453 181.858V124.123Z" fill="#0984BD"/>
<path d="M33.9609 120.645L34.7598 121.112V178.847L33.9609 178.379V120.645Z" fill="#0984BD"/>
<path d="M28.9609 119.208L29.7772 119.675V177.41L28.9609 176.943V119.208Z" fill="#0984BD"/>
<path d="M23.4688 115.729L24.285 116.179V173.914L23.4688 173.464V115.729Z" fill="#0984BD"/>
<path d="M18.125 112.701L18.9413 113.168V170.903L18.125 170.436V112.701Z" fill="#0984BD"/>
<path d="M17.8438 168.047V171.768L100.304 219.258V215.537L17.8438 168.047Z" fill="#DCE4FB"/>
<path d="M242.892 133.625V137.328L228.181 145.756L227.417 145.306L217.987 150.741V151.641L195.044 164.828L194.297 164.171L179.396 172.772V173.81L176.287 175.541L175.523 174.866L160.622 183.468V184.558L100.305 219.258V215.537L242.892 133.625Z" fill="#D3DEFC"/>
<path d="M17.8438 112.701V117.373L100.304 164.863V160.19L17.8438 112.701Z" fill="#DCE4FB"/>
<path d="M242.874 78.4683V83.1411L100.305 164.863V160.19L242.874 78.4683Z" fill="#D3DEFC"/>
<path d="M242.891 78.4682L160.222 30.8577L17.8438 112.701L100.495 160.311L242.891 78.4682Z" fill="#EBF0FD"/>
<path d="M233.323 80.5623L236.953 78.4682L160.224 34.094L23.5938 112.701L27.2235 114.795L160.224 38.2822L233.323 80.5623Z" fill="#DAE3FC"/>
<path d="M233.318 80.5623L160.219 38.2822L27.2188 114.795L100.301 157.092L233.318 80.5623Z" fill="#DCE4FB"/>
<path d="M160.219 34.094V38.2822L233.318 80.5623L236.948 78.4682L160.219 34.094Z" fill="#D3DEFC"/>
<path d="M100.303 181.702L57.6484 157.213V182.446L100.303 207.056V181.702Z" fill="white"/>
<path d="M100.302 183.191L58.8281 159.307V181.685L100.302 205.568V183.191Z" fill="#5C72A5"/>
<path d="M64.8719 161.903L63.9688 161.367V185.596L64.8719 186.133V161.903Z" fill="white"/>
<path d="M71.1297 165.538L70.2266 165.019V189.196L71.1297 189.732V165.538Z" fill="white"/>
<path d="M77.5377 169.172L76.6172 168.636V192.796L77.5377 193.332V169.172Z" fill="white"/>
<path d="M83.7877 172.616L82.8672 172.097V196.395L83.7877 196.932V172.616Z" fill="white"/>
<path d="M89.3814 175.852L88.4609 175.316V199.857L89.3814 200.376V175.852Z" fill="white"/>
<path d="M95.6314 179.677L94.7109 179.141V203.457L95.6314 203.976V179.677Z" fill="white"/>
<path d="M100.303 198.836L57.9609 174.399V173.291L100.303 197.728V198.836Z" fill="white"/>
<path d="M100.303 190.84L57.9609 166.403V165.278L100.303 189.715V190.84Z" fill="white"/>
<path d="M100.305 181.702L142.994 157.213V182.446L100.305 207.056V181.702Z" fill="white"/>
<path d="M100.305 183.191L141.796 159.307V181.685L100.305 205.568V183.191Z" fill="#294688"/>
<path d="M135.75 161.903L136.653 161.367V185.596L135.75 186.133V161.903Z" fill="white"/>
<path d="M129.5 165.538L130.403 165.019V189.196L129.5 189.732V165.538Z" fill="white"/>
<path d="M123.094 169.172L124.014 168.636V192.796L123.094 193.332V169.172Z" fill="white"/>
<path d="M116.836 172.616L117.756 172.097V196.395L116.836 196.932V172.616Z" fill="white"/>
<path d="M111.242 175.852L112.163 175.316V199.857L111.242 200.376V175.852Z" fill="white"/>
<path d="M104.992 179.677L105.913 179.141V203.457L104.992 203.976V179.677Z" fill="white"/>
<path d="M100.305 198.836L142.664 174.399V173.291L100.305 197.728V198.836Z" fill="white"/>
<path d="M100.305 190.84L142.664 166.403V165.278L100.305 189.715V190.84Z" fill="white"/>
<path d="M217.984 126.027V150.741L227.571 145.22V120.506L217.984 126.027Z" fill="#07638E"/>
<path d="M228.178 120.143V145.756L227.414 145.306V120.593L228.178 120.143Z" fill="#294688"/>
<path d="M226.86 136.411L226.305 136.722V133.434L226.86 133.123V136.411Z" fill="white"/>
<path d="M221.719 116.041L225.21 114.033V112.216L221.719 114.224V116.041Z" fill="white"/>
<path d="M221.72 116.041L220.695 115.504V113.687L221.72 114.224V116.041Z" fill="#E0E8FD"/>
<path d="M225.211 112.216L221.72 114.224L220.695 113.687L224.238 111.68L225.211 112.216Z" fill="#E1E8FC"/>
<path d="M185.109 137.016L188.6 135.009V133.192L185.109 135.199V137.016Z" fill="white"/>
<path d="M185.111 137.017L184.086 136.463V134.646L185.111 135.199V137.017Z" fill="#E0E8FD"/>
<path d="M188.602 133.192L185.111 135.199L184.086 134.646L187.629 132.638L188.602 133.192Z" fill="#E1E8FC"/>
<path d="M166.039 147.556L169.53 145.549V143.731L166.039 145.756V147.556Z" fill="white"/>
<path d="M166.04 147.556L165.016 147.02V145.202L166.04 145.756V147.556Z" fill="#E0E8FD"/>
<path d="M169.531 143.732L166.04 145.756L165.016 145.203L168.559 143.178L169.531 143.732Z" fill="#E1E8FC"/>
<path d="M35.2955 140.651L31.8047 138.643V136.826L35.2955 138.834V140.651Z" fill="white"/>
<path d="M35.2969 140.651L36.3216 140.097V138.28L35.2969 138.834V140.651Z" fill="#E0E8FD"/>
<path d="M31.8047 136.826L35.2955 138.834L36.3202 138.28L32.7773 136.272L31.8047 136.826Z" fill="#E1E8FC"/>
<path d="M82.4518 167.459L78.9609 165.451V163.634L82.4518 165.642V167.459Z" fill="white"/>
<path d="M82.4531 167.459L83.4778 166.922V165.105L82.4531 165.642V167.459Z" fill="#E0E8FD"/>
<path d="M78.9609 163.634L82.4518 165.642L83.4765 165.105L79.9335 163.08L78.9609 163.634Z" fill="#E1E8FC"/>
<path d="M160.625 154.392V183.468L175.526 174.866V145.826L160.625 154.392Z" fill="#E1E8FC"/>
<path d="M176.283 145.375V175.541L175.328 174.987V145.929L176.283 145.375Z" fill="#294688"/>
<path d="M160.625 162.873V163.755L175.335 155.275V154.41L160.625 162.873Z" fill="#D4DFFC"/>
<path d="M160.625 165.711V166.576L175.335 158.113V157.248L160.625 165.711Z" fill="#D4DFFC"/>
<path d="M160.625 168.549V169.414L175.335 160.952V160.086L160.625 168.549Z" fill="#D4DFFC"/>
<path d="M160.625 157.213V158.079L175.335 149.616V148.75L160.625 157.213Z" fill="#D4DFFC"/>
<path d="M160.625 160.052V160.917L175.335 152.454V151.589L160.625 160.052Z" fill="#D4DFFC"/>
<path d="M160.625 171.388V172.253L175.335 163.79V162.925L160.625 171.388Z" fill="#D4DFFC"/>
<path d="M160.625 174.226V175.091L175.335 166.628V165.763L160.625 174.226Z" fill="#D4DFFC"/>
<path d="M160.625 177.047V177.929L175.335 169.449V168.584L160.625 177.047Z" fill="#D4DFFC"/>
<path d="M160.625 179.885V180.75L175.335 172.287V171.422L160.625 179.885Z" fill="#D4DFFC"/>
<path d="M179.398 143.697V172.772L194.3 164.171V135.13L179.398 143.697Z" fill="#E1E8FC"/>
<path d="M195.065 134.68V164.846L194.109 164.292V135.234L195.065 134.68Z" fill="#294688"/>
<path d="M179.398 152.177V153.06L194.109 144.579V143.714L179.398 152.177Z" fill="#D4DFFC"/>
<path d="M179.398 155.015V155.898L194.109 147.418V146.552L179.398 155.015Z" fill="#D4DFFC"/>
<path d="M179.398 157.854V158.719L194.109 150.256V149.391L179.398 157.854Z" fill="#D4DFFC"/>
<path d="M179.398 146.518V147.383L194.109 138.92V138.055L179.398 146.518Z" fill="#D4DFFC"/>
<path d="M179.398 149.356V150.221L194.109 141.758V140.893L179.398 149.356Z" fill="#D4DFFC"/>
<path d="M179.398 160.692V161.557L194.109 153.094V152.229L179.398 160.692Z" fill="#D4DFFC"/>
<path d="M179.398 163.513V164.396L194.109 155.933V155.05L179.398 163.513Z" fill="#D4DFFC"/>
<path d="M179.398 166.351V167.234L194.109 158.754V157.888L179.398 166.351Z" fill="#D4DFFC"/>
<path d="M179.398 169.19V170.055L194.109 161.592V160.727L179.398 169.19Z" fill="#D4DFFC"/>
<path d="M51.1875 113.082L62.0248 119.329L68.7634 115.453L57.9261 109.205L51.1875 113.082Z" fill="#ECF1FD"/>
<path d="M62.0234 123.794L68.762 119.883V115.418L62.0234 119.329V123.794Z" fill="#D3DEFC"/>
<path d="M62.0248 123.794L51.1875 117.564V113.082L62.0248 119.329V123.794Z" fill="#546BA0"/>
<path d="M65.8672 104.688L76.7218 110.935L83.4604 107.059L72.6058 100.828L65.8672 104.688Z" fill="#ECF1FD"/>
<path d="M76.7188 115.418L83.4573 111.489V107.024L76.7188 110.935V115.418Z" fill="#D3DEFC"/>
<path d="M76.7219 115.418L65.8672 109.17V104.688L76.7219 110.935V115.418Z" fill="#546BA0"/>
<path d="M122.741 77.0144L121.508 76.3048L159.907 54.1697L173.107 61.9404L171.873 62.6499L159.907 55.5888L122.741 77.0144Z" fill="#D3DEFC"/>
<path d="M124.705 78.1913L122.742 77.0145L159.909 55.5889L171.875 62.65L167.776 65.021L157.824 59.1021L124.705 78.1913Z" fill="#36518F"/>
<path d="M124.703 78.1912L157.823 59.1021L167.774 65.0209L134.707 84.0755L124.703 78.1912Z" fill="#5C72A5"/>
<path d="M145.133 58.531L167.78 71.5629V73.1378L145.133 60.1059V58.531Z" fill="#DCE4FB"/>
<path d="M131.562 66.4229L154.818 79.8009V81.3931L131.562 67.9978V66.4229Z" fill="#DCE4FB"/>
<path d="M147.367 62.8229L159.49 69.7975L160.74 69.0706L147.367 61.3691V62.8229Z" fill="#D3DEFC"/>
<path d="M133.734 70.6974L145.84 77.6547L147.09 76.9451L133.734 69.2437V70.6974Z" fill="#D3DEFC"/>
<path d="M143.757 89.1292L142.523 88.4196L180.923 66.2844L194.122 74.0724L192.906 74.7647L180.923 67.7209L143.757 89.1292Z" fill="#D3DEFC"/>
<path d="M145.738 90.3058L143.758 89.129L180.924 67.7207L192.908 74.7645L188.809 77.1355L178.857 71.2166L145.738 90.3058Z" fill="#36518F"/>
<path d="M145.734 90.306L178.854 71.2168L188.806 77.1357L155.721 96.1903L145.734 90.306Z" fill="#5C72A5"/>
<path d="M166.141 70.6455L188.805 83.6774V85.2523L166.141 72.2204V70.6455Z" fill="#DCE4FB"/>
<path d="M152.578 78.5374L175.851 91.9327V93.5076L152.578 80.1123V78.5374Z" fill="#DCE4FB"/>
<path d="M168.383 74.9377L180.505 81.9122L181.756 81.1854L168.383 73.5012V74.9377Z" fill="#D3DEFC"/>
<path d="M154.75 82.8122L166.855 89.7867L168.123 89.0598L154.75 81.3584V82.8122Z" fill="#D3DEFC"/>
<path d="M154.578 140.27L155.742 139.595L156.089 142.537L156.298 144.545L156.61 142.26L157.166 138.799L158.138 138.245L158.677 141.084C158.781 141.707 158.868 142.364 158.972 143.022L159.181 140.789L159.545 137.449L160.639 136.826L159.702 144.06L158.277 144.874L157.791 142.105C157.791 141.637 157.635 141.136 157.583 140.668C157.583 141.205 157.461 141.776 157.374 142.399L156.888 145.653L155.481 146.449L154.578 140.27Z" fill="white"/>
<path d="M163.836 140.184L162.273 141.066L161.96 142.797L160.797 143.454L162.412 135.84L163.784 135.061L165.347 140.859L164.131 141.551L163.836 140.184ZM163.61 139.128L163.489 138.591C163.35 138.003 163.211 137.276 163.072 136.653C162.95 137.432 162.811 138.384 162.655 139.041L162.534 139.734L163.61 139.128Z" fill="white"/>
<path d="M168.541 139.024L167.568 137.155L166.943 137.501V139.924L165.797 140.582V133.867L167.534 132.811C168.61 132.205 169.496 132.188 169.496 133.798C169.489 134.694 169.162 135.558 168.576 136.238L169.722 138.28L168.541 139.024ZM166.961 136.29L167.534 135.961C167.814 135.816 168.05 135.598 168.215 135.329C168.38 135.061 168.469 134.753 168.471 134.438C168.471 133.78 168.141 133.728 167.551 134.074L166.961 134.403V136.29Z" fill="white"/>
<path d="M170.594 131.132L173.789 129.402V130.682L171.757 131.842V133.192L173.494 132.205V133.469L171.757 134.455V136.013L173.876 134.801V136.082L170.611 137.934L170.594 131.132Z" fill="white"/>
<path d="M174.845 128.709L175.992 128.069V130.665L177.728 129.661V127.065L178.875 126.407V133.122L177.728 133.78V130.976L175.992 131.98V134.784L174.828 135.442L174.845 128.709Z" fill="white"/>
<path d="M179.815 129.194C179.757 128.27 179.939 127.346 180.344 126.512C180.748 125.678 181.362 124.963 182.125 124.434C183.497 123.656 184.435 124.434 184.418 126.581C184.475 127.514 184.293 128.448 183.889 129.292C183.485 130.137 182.872 130.865 182.108 131.409C180.736 132.171 179.798 131.392 179.815 129.194ZM183.289 127.238C183.289 125.906 182.872 125.352 182.177 125.75C181.772 126.085 181.457 126.515 181.26 127.001C181.063 127.487 180.99 128.015 181.048 128.536C181.048 129.886 181.483 130.474 182.16 130.094C182.558 129.74 182.863 129.295 183.051 128.798C183.238 128.301 183.302 127.765 183.237 127.238H183.289Z" fill="white"/>
<path d="M185.352 122.721L186.498 122.064V125.836C186.498 127.152 186.793 127.429 187.366 127.1C187.939 126.771 188.269 126.131 188.269 124.815V121.042L189.381 120.419V124.019C189.493 124.867 189.364 125.728 189.007 126.506C188.651 127.283 188.082 127.945 187.366 128.415C186.046 129.159 185.352 128.588 185.352 126.321V122.721Z" fill="white"/>
<path d="M190.77 124.452C190.957 124.561 191.17 124.619 191.387 124.619C191.604 124.619 191.816 124.561 192.003 124.452C192.208 124.364 192.384 124.219 192.51 124.035C192.636 123.852 192.707 123.636 192.715 123.413C192.715 122.981 192.438 123.015 191.986 123.015H191.343C190.805 123.015 190.319 122.756 190.319 121.769C190.345 121.163 190.516 120.572 190.819 120.045C191.121 119.518 191.545 119.071 192.055 118.741C192.297 118.581 192.581 118.495 192.872 118.495C193.162 118.495 193.446 118.581 193.688 118.741L193.115 120.021C192.955 119.925 192.772 119.874 192.585 119.874C192.398 119.874 192.215 119.925 192.055 120.021C191.874 120.115 191.72 120.253 191.608 120.423C191.495 120.592 191.428 120.788 191.413 120.991C191.413 121.406 191.743 121.354 192.177 121.337H192.82C193.445 121.337 193.827 121.648 193.827 122.6C193.797 123.244 193.606 123.871 193.273 124.424C192.939 124.977 192.473 125.438 191.916 125.767C191.645 125.965 191.322 126.081 190.985 126.099C190.649 126.118 190.315 126.038 190.023 125.871L190.77 124.452Z" fill="white"/>
<path d="M194.766 117.356L197.944 115.625V116.906L195.929 118.066V119.416L197.666 118.429V119.693L195.929 120.679V122.219L198.031 121.025V122.306L194.766 124.158V117.356Z" fill="white"/>
<path d="M258.208 191.29L227.016 209.254L227.988 209.877L259.267 191.861L258.208 191.29Z" fill="#FCB54D"/>
<path d="M259.271 191.861L227.992 209.86V214.308L259.271 196.292V191.861Z" fill="#EB8E41"/>
<path d="M227.016 213.737V209.254L227.988 209.86V214.308L227.016 213.737Z" fill="#FFAD60"/>
<path d="M223.372 171.162L192.18 189.127L193.152 189.75L224.448 171.733L223.372 171.162Z" fill="#FCB54D"/>
<path d="M224.445 171.734L193.148 189.733V194.163L224.445 176.164V171.734Z" fill="#EB8E41"/>
<path d="M192.18 193.609V189.127L193.152 189.732V194.163L192.18 193.609Z" fill="#FFAD60"/>
<path d="M240.286 180.733L209.094 198.697L210.066 199.303L241.345 181.304L240.286 180.733Z" fill="#FCB54D"/>
<path d="M241.349 181.304L210.07 199.303V203.734L241.349 185.735V181.304Z" fill="#EB8E41"/>
<path d="M209.094 203.18V198.697L210.066 199.303V203.733L209.094 203.18Z" fill="#FFAD60"/>
<path d="M227.991 208.51L192.18 187.915V189.352L227.991 209.947V208.51Z" fill="#FFAD60"/>
<path d="M231.743 206.416L227.991 208.51L192.18 187.915L195.914 185.821L231.743 206.416Z" fill="#FCB54D"/>
<path d="M231.744 206.416L227.992 208.51V211.175L231.744 209.012V206.416Z" fill="#EB8E41"/>
<path d="M234.971 204.408L199.055 183.727V185.163L234.971 205.845V204.408Z" fill="#FFAD60"/>
<path d="M238.722 202.314L234.971 204.408L199.055 183.727L202.789 181.633L238.722 202.314Z" fill="#FCB54D"/>
<path d="M238.72 202.314L234.969 204.409V207.091L238.72 204.91V202.314Z" fill="#EB8E41"/>
<path d="M242.11 200.376L206.125 179.643V181.079L242.11 201.812V200.376Z" fill="#FFAD60"/>
<path d="M245.862 198.282L242.11 200.376L206.125 179.643L209.859 177.549L245.862 198.282Z" fill="#FCB54D"/>
<path d="M245.861 198.282L242.109 200.376V203.041L245.861 200.861V198.282Z" fill="#EB8E41"/>
<path d="M249.094 196.274L213.195 175.679V177.116L249.094 197.711V196.274Z" fill="#FFAD60"/>
<path d="M252.845 194.18L249.094 196.274L213.195 175.68L216.929 173.585L252.845 194.18Z" fill="#FCB54D"/>
<path d="M252.845 194.18L249.094 196.274V198.94L252.845 196.776V194.18Z" fill="#EB8E41"/>
<path d="M255.517 192.675L219.531 171.993V173.43L255.517 194.111V192.675Z" fill="#FFAD60"/>
<path d="M259.268 190.581L255.517 192.675L219.531 171.993L223.265 169.899L259.268 190.581Z" fill="#FCB54D"/>
<path d="M259.267 190.581L255.516 192.675V195.357L259.267 193.177V190.581Z" fill="#EB8E41"/>
<path d="M212.013 196.655V185.544L195.844 176.233V187.31L212.013 196.655Z" fill="#B8C9FF"/>
<path d="M212.016 196.655V185.544L235.288 172.132V183.225L212.016 196.655Z" fill="#DCE4FB"/>
<path d="M235.285 172.132L212.013 185.544L195.844 176.216L219.134 162.821L235.285 172.132Z" fill="#CAD6F8"/>
<path d="M201.852 185.561L205.464 187.638V181.754L201.852 179.66V185.561Z" fill="#445394"/>
<path d="M201.852 179.66L225.107 166.282L228.736 168.359L205.464 181.754L201.852 179.66Z" fill="#93A1DE"/>
<path d="M210.795 194.821V193.782L205.359 190.632V191.688L210.795 194.821Z" fill="#445394"/>
<path d="M210.795 192.951V191.913L205.359 188.781V189.836L210.795 192.951Z" fill="#445394"/>
<path d="M232.016 180.075V183.813L234.621 182.325V178.57L232.016 180.075Z" fill="#445394"/>
<path d="M228.477 182.117V185.856L231.082 184.367V180.612L228.477 182.117Z" fill="#445394"/>
<path d="M224.883 184.177V187.915L227.488 186.427V182.671L224.883 184.177Z" fill="#445394"/>
<path d="M212.703 185.994V191.394L218.052 188.313V182.914L212.703 185.994Z" fill="white"/>
<path d="M213.367 187.102V186.236L217.57 183.813V184.679L213.367 187.102Z" fill="#445394"/>
<path d="M229.763 207.039V195.928L213.594 186.6V197.693L229.763 207.039Z" fill="#B8C9FF"/>
<path d="M229.758 207.039V195.928L253.048 182.516V193.609L229.758 207.039Z" fill="#DCE4FB"/>
<path d="M253.053 182.516L229.763 195.928L213.594 186.6L236.884 173.205L253.053 182.516Z" fill="#CAD6F8"/>
<path d="M219.602 195.928L223.214 198.022V192.138L219.602 190.044V195.928Z" fill="#445394"/>
<path d="M219.602 190.044L242.874 176.649L246.486 178.743L223.214 192.138L219.602 190.044Z" fill="#93A1DE"/>
<path d="M228.561 205.187V204.149L223.125 201.016V202.072L228.561 205.187Z" fill="#445394"/>
<path d="M228.561 203.335V202.297L223.125 199.165V200.22L228.561 203.335Z" fill="#445394"/>
<path d="M249.789 190.442V194.198L252.377 192.692V188.954L249.789 190.442Z" fill="#445394"/>
<path d="M246.242 192.502V196.24L248.83 194.751V190.996L246.242 192.502Z" fill="#445394"/>
<path d="M242.648 194.544V198.299L245.236 196.811V193.055L242.648 194.544Z" fill="#445394"/>
<path d="M230.477 196.378V201.778L235.808 198.697V193.298L230.477 196.378Z" fill="white"/>
<path d="M231.133 197.486V196.603L235.318 194.198V195.063L231.133 197.486Z" fill="#445394"/>
<path d="M212.013 184.402V173.291L195.844 163.963V175.056L212.013 184.402Z" fill="#B8C9FF"/>
<path d="M212.016 184.402V173.291L235.288 159.878V170.972L212.016 184.402Z" fill="#DCE4FB"/>
<path d="M235.285 159.879L212.013 173.291L195.844 163.963L219.134 150.568L235.285 159.879Z" fill="#CAD6F8"/>
<path d="M201.852 173.291L205.464 175.385V169.501L201.852 167.407V173.291Z" fill="#445394"/>
<path d="M201.852 167.407L225.107 154.011L228.736 156.106L205.464 169.501L201.852 167.407Z" fill="#93A1DE"/>
<path d="M210.795 182.55V181.512L205.359 178.379V179.435L210.795 182.55Z" fill="#445394"/>
<path d="M210.795 180.698V179.66L205.359 176.528V177.583L210.795 180.698Z" fill="#445394"/>
<path d="M232.016 167.805V171.561L234.621 170.072V166.317L232.016 167.805Z" fill="#445394"/>
<path d="M228.477 169.865V173.603L231.082 172.114V168.359L228.477 169.865Z" fill="#445394"/>
<path d="M224.883 171.907V175.662L227.488 174.174V170.418L224.883 171.907Z" fill="#445394"/>
<path d="M212.703 173.741V179.141L218.052 176.06V170.661L212.703 173.741Z" fill="white"/>
<path d="M213.367 174.849V173.966L217.57 171.561V172.426L213.367 174.849Z" fill="#445394"/>
<path d="M229.763 194.769V183.658L213.594 174.347V185.44L229.763 194.769Z" fill="#B8C9FF"/>
<path d="M229.758 194.769V183.658L253.048 170.262V181.339L229.758 194.769Z" fill="#DCE4FB"/>
<path d="M253.053 170.263L229.763 183.658L213.594 174.347L236.884 160.952L253.053 170.263Z" fill="#CAD6F8"/>
<path d="M219.602 183.675L223.214 185.769V179.885L219.602 177.791V183.675Z" fill="#445394"/>
<path d="M219.602 177.791L242.874 164.396L246.486 166.472L223.214 179.885L219.602 177.791Z" fill="#93A1DE"/>
<path d="M228.561 192.934V191.896L223.125 188.763V189.819L228.561 192.934Z" fill="#445394"/>
<path d="M228.561 191.082V190.044L223.125 186.911V187.95L228.561 191.082Z" fill="#445394"/>
<path d="M249.789 178.189V181.945L252.377 180.439V176.701L249.789 178.189Z" fill="#445394"/>
<path d="M246.242 180.231V183.987L248.83 182.498V178.743L246.242 180.231Z" fill="#445394"/>
<path d="M242.648 182.291V186.046L245.236 184.54V180.802L242.648 182.291Z" fill="#445394"/>
<path d="M230.477 184.125V189.507L235.808 186.444V181.044L230.477 184.125Z" fill="white"/>
<path d="M231.133 185.233V184.35L235.318 181.945V182.793L231.133 185.233Z" fill="#445394"/>
<path d="M173.98 234.366C173.98 234.366 172.955 235.491 171.566 236.824L168.735 239.558C168.04 240.233 168.614 240.839 169.916 240.787C171.691 240.614 173.439 240.236 175.126 239.662C176.489 239.098 177.802 238.421 179.051 237.637C179.607 237.306 180.021 236.782 180.215 236.166V234.107L173.98 234.366Z" fill="#4D4D4D"/>
<path d="M192.772 232.532C192.166 233.359 191.486 234.13 190.74 234.834C189.711 235.809 188.781 236.881 187.961 238.035C187.718 238.364 187.561 239.333 188.881 239.281C190.379 239.115 191.85 238.76 193.258 238.226C194.728 237.442 196.088 236.471 197.305 235.335C197.961 234.841 198.452 234.159 198.711 233.38L198.034 231.338L192.772 232.532Z" fill="#4D4D4D"/>
<path d="M192.25 199.113C192.467 197.038 192.251 194.941 191.614 192.955C190.978 190.968 189.934 189.134 188.551 187.569C188.881 185.025 177.019 188.59 177.019 188.59C177.019 188.59 174.483 202.297 173.406 209.497C172.191 217.7 172.92 234.401 172.92 234.401C172.92 234.401 173.076 236.132 176.15 236.132C177.727 235.996 179.189 235.258 180.232 234.072L180.475 215.035L183.202 201.553C183.202 201.553 185.824 212.508 186.675 216.437C187.561 220.625 190.948 232.999 190.948 232.999C191.539 233.685 192.334 234.165 193.218 234.371C194.101 234.576 195.028 234.496 195.863 234.141C198.589 232.791 198.051 231.268 198.051 231.268C197.585 225.555 196.226 219.949 194.022 214.654C193.709 208.752 192.024 202.574 192.25 199.113Z" fill="url(#paint0_linear_1011_8532)"/>
<path d="M178.65 168.74C178.65 168.74 176.913 168.739 175.177 171.941C173.44 175.143 171.703 178.708 171.703 178.708C173.713 179.162 175.555 180.169 177.018 181.616C180.891 178.258 181.498 170.332 178.65 168.74Z" fill="#FF6279"/>
<path d="M178.647 168.74C177.858 170.403 177.241 172.143 176.806 173.932C175.937 177.289 176.25 192.83 176.25 192.83C179.166 194.542 182.56 195.265 185.924 194.89C187.989 194.754 189.928 193.852 191.36 192.363C191.36 192.363 193.513 177.133 193.218 174.953C192.923 172.772 188.338 167.649 188.338 167.649C185.069 167.465 181.792 167.833 178.647 168.74V168.74Z" fill="#FF768A"/>
<path d="M182.781 166.611L182.086 170.695C182.086 170.695 184.17 173.032 186.202 171.284C187.153 170.608 187.952 169.742 188.547 168.739L187.539 163.167L182.781 166.611Z" fill="#F2B887"/>
<path d="M183.685 178.258C184.95 176.31 186.549 174.6 188.409 173.205C189.415 172.622 190.496 172.179 191.622 171.889C191.622 171.889 190.858 170.314 190.355 170.159C189.171 170.408 188.042 170.865 187.02 171.509C185.073 172.691 183.441 174.324 182.261 176.268C180.611 179.072 182.47 179.85 183.685 178.258Z" fill="#FFAD60"/>
<path d="M179.467 168.376C178.625 170.327 177.979 172.356 177.539 174.433C177.331 176.389 177.73 176.995 178.529 177.064C179.328 177.133 179.363 175.731 179.588 174.174C179.814 172.616 181.204 167.874 181.204 167.874L179.467 168.376Z" fill="#FFAD60"/>
<path d="M191.625 190.182C190.526 191.029 189.175 191.486 187.787 191.48C186.05 191.307 183.705 189.75 183.844 184.419C183.848 181.84 184.051 179.266 184.452 176.718L178.078 173.931C176.733 177.742 176.029 181.747 175.994 185.786C175.647 193.626 175.508 196.343 175.508 196.343C179.122 196.569 182.748 196.569 186.362 196.343C188.289 196.194 190.2 195.887 192.076 195.426L191.625 190.182Z" fill="#FFAD60"/>
<path d="M178.807 175.368C178.807 175.697 178.633 175.956 178.407 175.956C178.181 175.956 178.008 175.697 178.008 175.368C178.008 175.039 178.181 174.78 178.407 174.78C178.633 174.78 178.807 175.056 178.807 175.368Z" fill="white"/>
<path d="M182.629 177.151C182.455 177.41 182.438 177.739 182.629 177.86C182.82 177.981 183.098 177.86 183.289 177.618C183.48 177.376 183.497 177.047 183.289 176.908C183.081 176.77 182.82 176.891 182.629 177.151Z" fill="white"/>
<path d="M177.556 177.912C177.295 179.227 177.434 183.381 179.779 184.004C182.123 184.627 182.471 182.066 182.957 180.11C181.064 179.627 179.247 178.887 177.556 177.912V177.912Z" fill="#FFBD7E"/>
<path d="M185.668 157.04C185.053 156.582 184.335 156.279 183.576 156.16C182.817 156.04 182.04 156.107 181.313 156.354C180.586 156.602 179.93 157.022 179.403 157.579C178.876 158.135 178.493 158.812 178.287 159.55C176.707 163.997 180.753 169.57 182.907 168.636C184.936 167.652 186.531 165.957 187.388 163.876C187.725 162.686 187.744 161.429 187.442 160.23C187.141 159.03 186.529 157.931 185.668 157.04Z" fill="#FFC5B3"/>
<path d="M168.992 205.603V189.421L182.087 182.914V198.178L168.992 205.603Z" fill="#B8C9FF"/>
<path d="M168.992 205.603V189.421L155.914 182.914V198.178L168.992 205.603Z" fill="#CAD6F8"/>
<path d="M168.992 205.741V189.421L182.087 181.875V198.178L168.992 205.741Z" fill="#B8C9FF"/>
<path d="M168.992 205.741V189.421L155.914 181.875V198.178L168.992 205.741Z" fill="#CAD6F8"/>
<path d="M155.914 181.875L168.992 189.421L182.087 181.875L168.992 174.347L155.914 181.875Z" fill="#DCE4FB"/>
<path d="M177.205 189.438L174.305 191.117V186.358L177.205 184.662V189.438Z" fill="#445394"/>
<path d="M177.205 184.662L164.144 177.133L161.227 178.829L174.304 186.358L177.205 184.662Z" fill="#93A1DE"/>
<path d="M170.727 203.405V202.574L175.121 200.03V200.878L170.727 203.405Z" fill="#445394"/>
<path d="M170.727 201.916V201.068L175.121 198.524V199.372L170.727 201.916Z" fill="#445394"/>
<path d="M179.062 195.79V198.715L181.164 197.486V194.578L179.062 195.79Z" fill="#445394"/>
<path d="M158.781 195.496V198.524L156.68 197.313V194.284L158.781 195.496Z" fill="#445394"/>
<path d="M161.648 197.157V200.186L159.547 198.974V195.946L161.648 197.157Z" fill="#445394"/>
<path d="M161.004 186.617V190.978L156.68 188.504V184.125L161.004 186.617Z" fill="white"/>
<path d="M160.465 187.517V186.808L157.078 184.852V185.544L160.465 187.517Z" fill="#445394"/>
<path d="M185.315 182.827C185.315 182.827 182.831 188.019 181.841 189.456C180.033 191.418 177.998 193.161 175.78 194.647C174.594 195.267 173.28 195.604 171.942 195.634C170.917 195.634 170.205 196.049 171.212 196.413C171.839 196.648 172.492 196.805 173.157 196.88C172.201 197.571 171.352 198.399 170.639 199.338C170.066 200.238 169.58 201.916 171.803 201.432C173.539 201.034 176.075 198.299 176.735 197.693C177.968 196.551 182.848 193.903 183.96 193.125C185.523 192.034 189.934 185.527 189.934 185.527C189.934 185.527 188.545 182.135 185.315 182.827Z" fill="#FFC5B3"/>
<path d="M192.44 173.066C191.155 172.028 188.411 175.524 186.935 177.704C185.879 179.423 185 181.244 184.312 183.139C184.313 183.139 186.049 184.419 187.647 185.406C188.519 185.945 189.424 186.431 190.356 186.86C190.356 186.86 196.834 176.528 192.44 173.066Z" fill="#FF6279"/>
<path d="M177.92 160.951C178.41 161.484 179.035 161.875 179.729 162.082C180.423 162.289 181.16 162.305 181.863 162.128C182.936 161.948 183.966 161.573 184.902 161.021L185.267 163.374C185.487 163.337 185.699 163.261 185.892 163.149C185.892 162.215 186.257 161.921 186.778 162.198C187.299 162.474 187.386 163.928 187.386 163.928C187.919 163.349 188.303 162.65 188.506 161.89C188.709 161.131 188.723 160.333 188.549 159.567C188.185 157.836 185.927 154.617 182.783 154.911C181.567 154.948 180.394 155.368 179.433 156.112C178.472 156.855 177.772 157.883 177.434 159.048C177.368 159.381 177.377 159.725 177.461 160.054C177.546 160.384 177.702 160.69 177.92 160.951V160.951Z" fill="#4D4D4D"/>
<path d="M177.298 158.909C177.298 158.909 173.269 161.748 172.574 162.371C171.879 162.994 175.752 165.59 178.514 164.707C180.983 163.696 183.317 162.382 185.461 160.796L177.298 158.909Z" fill="url(#paint1_linear_1011_8532)"/>
<path d="M177.297 158.909C177.297 158.909 181.899 161.765 184.765 160.951C186.068 160.675 187.306 160.152 188.412 159.411C188.412 159.411 188.152 153.44 182.941 153.44C177.731 153.44 177.297 158.909 177.297 158.909Z" fill="url(#paint2_linear_1011_8532)"/>
<path d="M183.112 153.631C183.112 153.873 182.764 154.064 182.33 154.064C181.896 154.064 181.531 153.873 181.531 153.631C181.531 153.389 181.896 153.198 182.33 153.198C182.764 153.198 183.112 153.389 183.112 153.631Z" fill="url(#paint3_linear_1011_8532)"/>
<path d="M177.762 245.789L146.57 263.753L147.526 264.359L178.822 246.36L177.762 245.789Z" fill="#FCB54D"/>
<path d="M178.82 246.342L147.523 264.358V268.789L178.82 250.79V246.342Z" fill="#EB8E41"/>
<path d="M146.57 268.235V263.753L147.526 264.359V268.789L146.57 268.235Z" fill="#FFAD60"/>
<path d="M142.926 225.661L111.734 243.625L112.707 244.231L144.003 226.232L142.926 225.661Z" fill="#FCB54D"/>
<path d="M143.999 226.215L112.703 244.231V248.661L143.999 230.663V226.215Z" fill="#EB8E41"/>
<path d="M111.734 248.108V243.625L112.707 244.231V248.661L111.734 248.108Z" fill="#FFAD60"/>
<path d="M159.84 235.231L128.648 253.196L129.621 253.801L160.9 235.785L159.84 235.231Z" fill="#FCB54D"/>
<path d="M160.896 235.785L129.617 253.802V258.232L160.896 240.233V235.785Z" fill="#EB8E41"/>
<path d="M128.648 257.678V253.196L129.621 253.802V258.232L128.648 257.678Z" fill="#FFAD60"/>
<path d="M147.529 262.991L111.734 242.396V243.833L147.529 264.428V262.991Z" fill="#FFAD60"/>
<path d="M151.297 260.915L147.529 262.991L111.734 242.397L115.468 240.302L151.297 260.915Z" fill="#FCB54D"/>
<path d="M151.292 260.915L147.523 262.991V265.674L151.292 263.493V260.915Z" fill="#EB8E41"/>
<path d="M154.525 258.89L118.609 238.208V239.645L154.525 260.326V258.89Z" fill="#FFAD60"/>
<path d="M158.277 256.813L154.525 258.89L118.609 238.208L122.343 236.132L158.277 256.813Z" fill="#FCB54D"/>
<path d="M158.275 256.813L154.523 258.89V261.572L158.275 259.392V256.813Z" fill="#EB8E41"/>
<path d="M161.665 254.857L125.68 234.124V235.56L161.665 256.294V254.857Z" fill="#FFAD60"/>
<path d="M165.416 252.763L161.665 254.857L125.68 234.124L129.414 232.047L165.416 252.763Z" fill="#FCB54D"/>
<path d="M165.415 252.763L161.664 254.857V257.54L165.415 255.359V252.763Z" fill="#EB8E41"/>
<path d="M168.649 250.756L132.75 230.161V231.597L168.649 252.192V250.756Z" fill="#FFAD60"/>
<path d="M172.4 248.679L168.649 250.756L132.75 230.161L136.484 228.067L172.4 248.679Z" fill="#FCB54D"/>
<path d="M172.4 248.679L168.648 250.755V253.438L172.4 251.257V248.679Z" fill="#EB8E41"/>
<path d="M175.071 247.173L139.086 226.474V227.911L175.071 248.61V247.173Z" fill="#FFAD60"/>
<path d="M178.823 245.079L175.071 247.173L139.086 226.474L142.82 224.38L178.823 245.079Z" fill="#FCB54D"/>
<path d="M178.822 245.079L175.07 247.173V249.838L178.822 247.658V245.079Z" fill="#EB8E41"/>
<path d="M131.568 251.136V240.026L115.398 230.715V241.808L131.568 251.136Z" fill="#B8C9FF"/>
<path d="M131.562 251.136V240.025L154.835 226.63V237.706L131.562 251.136Z" fill="#DCE4FB"/>
<path d="M154.84 226.63L131.568 240.025L115.398 230.714L138.688 217.319L154.84 226.63Z" fill="#CAD6F8"/>
<path d="M121.406 240.043L125.001 242.137V236.235L121.406 234.159V240.043Z" fill="#445394"/>
<path d="M121.406 234.159L144.661 220.763L148.291 222.84L125.001 236.253L121.406 234.159Z" fill="#93A1DE"/>
<path d="M130.35 249.302V248.263L124.914 245.131V246.187L130.35 249.302Z" fill="#445394"/>
<path d="M130.35 247.45V246.412L124.914 243.279V244.317L130.35 247.45Z" fill="#445394"/>
<path d="M151.57 234.557V238.312L154.175 236.807V233.068L151.57 234.557Z" fill="#445394"/>
<path d="M148.031 236.599V240.354L150.636 238.866V235.11L148.031 236.599Z" fill="#445394"/>
<path d="M144.438 238.658V242.414L147.043 240.908V237.17L144.438 238.658Z" fill="#445394"/>
<path d="M132.258 240.493V245.875L137.607 242.812V237.412L132.258 240.493Z" fill="white"/>
<path d="M132.922 241.6V240.718L137.125 238.295V239.16L132.922 241.6Z" fill="#445394"/>
<path d="M149.318 261.52V250.409L133.148 241.098V252.175L149.318 261.52Z" fill="#B8C9FF"/>
<path d="M149.312 261.52V250.409L172.602 237.014V248.09L149.312 261.52Z" fill="#DCE4FB"/>
<path d="M172.607 237.014L149.318 250.409L133.148 241.098L156.438 227.686L172.607 237.014Z" fill="#CAD6F8"/>
<path d="M139.156 250.427L142.769 252.504V246.619L139.156 244.525V250.427Z" fill="#445394"/>
<path d="M139.156 244.525L162.429 231.147L166.041 233.224L142.769 246.637L139.156 244.525Z" fill="#93A1DE"/>
<path d="M148.116 259.686V258.647L142.68 255.498V256.553L148.116 259.686Z" fill="#445394"/>
<path d="M148.116 257.834V256.796L142.68 253.646V254.701L148.116 257.834Z" fill="#445394"/>
<path d="M169.344 244.94V248.679L171.932 247.19V243.435L169.344 244.94Z" fill="#445394"/>
<path d="M165.797 246.983V250.738L168.385 249.233V245.494L165.797 246.983Z" fill="#445394"/>
<path d="M162.203 249.042V252.781L164.791 251.292V247.537L162.203 249.042Z" fill="#445394"/>
<path d="M150.031 250.877V256.259L155.363 253.178V247.796L150.031 250.877Z" fill="white"/>
<path d="M150.672 251.967V251.102L154.875 248.679V249.544L150.672 251.967Z" fill="#445394"/>
<path d="M131.568 238.883V227.772L115.398 218.461V229.538L131.568 238.883Z" fill="#B8C9FF"/>
<path d="M131.562 238.883V227.773L154.835 214.377V225.453L131.562 238.883Z" fill="#DCE4FB"/>
<path d="M154.84 214.377L131.568 227.772L115.398 218.461L138.688 205.049L154.84 214.377Z" fill="#CAD6F8"/>
<path d="M121.406 227.79L125.001 229.867V223.982L121.406 221.906V227.79Z" fill="#445394"/>
<path d="M121.406 221.906L144.661 208.51L148.291 210.587L125.001 224L121.406 221.906Z" fill="#93A1DE"/>
<path d="M130.35 237.049V236.01L124.914 232.878V233.916L130.35 237.049Z" fill="#445394"/>
<path d="M130.35 235.197V234.159L124.914 231.009V232.064L130.35 235.197Z" fill="#445394"/>
<path d="M151.57 222.304V226.042L154.175 224.553V220.798L151.57 222.304Z" fill="#445394"/>
<path d="M148.031 224.346V228.101L150.636 226.596V222.857L148.031 224.346Z" fill="#445394"/>
<path d="M144.438 226.405V230.161L147.043 228.655V224.899L144.438 226.405Z" fill="#445394"/>
<path d="M132.258 228.24V233.622L137.607 230.559V225.159L132.258 228.24Z" fill="white"/>
<path d="M132.922 229.33V228.465L137.125 226.042V226.907L132.922 229.33Z" fill="#445394"/>
<path d="M149.318 249.267V238.156L133.148 228.828V239.922L149.318 249.267Z" fill="#B8C9FF"/>
<path d="M149.312 249.267V238.156L172.602 224.744V235.837L149.312 249.267Z" fill="#DCE4FB"/>
<path d="M172.607 224.744L149.318 238.156L133.148 228.828L156.438 215.433L172.607 224.744Z" fill="#CAD6F8"/>
<path d="M139.156 238.174L142.769 240.251V234.366L139.156 232.272V238.174Z" fill="#445394"/>
<path d="M139.156 232.272L162.429 218.894L166.041 220.971L142.769 234.366L139.156 232.272Z" fill="#93A1DE"/>
<path d="M148.116 247.433V246.394L142.68 243.245V244.3L148.116 247.433Z" fill="#445394"/>
<path d="M148.116 245.564V244.525L142.68 241.393V242.449L148.116 245.564Z" fill="#445394"/>
<path d="M169.344 232.67V236.426L171.932 234.937V231.182L169.344 232.67Z" fill="#445394"/>
<path d="M165.797 234.73V238.468L168.385 236.979V233.224L165.797 234.73Z" fill="#445394"/>
<path d="M162.203 236.789V240.527L164.791 239.039V235.283L162.203 236.789Z" fill="#445394"/>
<path d="M150.031 238.606V244.006L155.363 240.926V235.526L150.031 238.606Z" fill="white"/>
<path d="M150.672 239.714V238.831L154.875 236.426V237.291L150.672 239.714Z" fill="#445394"/>
<path d="M148.742 235.976V222.044L169.027 210.362V224.259L148.742 235.976Z" fill="#B8C9FF"/>
<path d="M148.742 235.976V222.044L119.547 205.222V219.136L148.742 235.976Z" fill="#DCE4FB"/>
<path d="M119.547 205.222L148.742 222.044L169.027 210.345L139.815 193.54L119.547 205.222Z" fill="#CAD6F8"/>
<path d="M161.494 222.061L156.961 224.675V217.285L161.494 214.671V222.061Z" fill="#445394"/>
<path d="M161.493 214.671L132.299 197.867L127.766 200.48L156.96 217.302L161.493 214.671Z" fill="#93A1DE"/>
<path d="M150.25 233.674V232.359L157.075 228.43V229.745L150.25 233.674Z" fill="#445394"/>
<path d="M150.25 231.337V230.039L157.075 226.111V227.426L150.25 231.337Z" fill="#445394"/>
<path d="M123.648 215.173V219.881L120.383 217.994V213.304L123.648 215.173Z" fill="#445394"/>
<path d="M128.093 217.735V222.442L124.828 220.573V215.865L128.093 217.735Z" fill="#445394"/>
<path d="M132.593 220.313V225.021L129.328 223.151V218.444L132.593 220.313Z" fill="#445394"/>
<path d="M147.858 222.615V229.382L141.172 225.523V218.756L147.858 222.615Z" fill="white"/>
<path d="M147.044 224V222.892L141.781 219.881V220.954L147.044 224Z" fill="#445394"/>
<path d="M126.095 220.85L126.078 212.698L139.191 205.153V213.287L126.095 220.85Z" fill="#B8C9FF"/>
<path d="M126.095 220.85L126.078 212.698L107.234 201.847V209.981L126.095 220.85Z" fill="#DCE4FB"/>
<path d="M107.234 201.864L126.078 212.716L139.19 205.17L120.329 194.319L107.234 201.864Z" fill="#CAD6F8"/>
<path d="M127.07 219.361V218.531L131.464 215.987V216.835L127.07 219.361Z" fill="#445394"/>
<path d="M127.07 217.873V217.025L131.464 214.481V215.329L127.07 217.873Z" fill="#445394"/>
<path d="M110.482 205.135V208.925L107.859 207.42V203.63L110.482 205.135Z" fill="#445394"/>
<path d="M114.06 207.212V211.002L111.438 209.479V205.707L114.06 207.212Z" fill="#445394"/>
<path d="M125.054 213.564V218.081L118.367 214.221V209.704L125.054 213.564Z" fill="white"/>
<path d="M124.239 214.948V213.841L118.977 210.812V211.902L124.239 214.948Z" fill="#445394"/>
<path d="M135.875 211.348L131.359 213.962V209.687L135.875 207.056V211.348Z" fill="#445394"/>
<path d="M135.877 207.056L117.05 196.205L112.5 198.818L131.361 209.687L135.877 207.056Z" fill="#93A1DE"/>
<path d="M105.97 214.74C107.064 211.071 107.62 207.022 105.779 204.045L101.802 204.149C100.901 206.098 100.219 208.141 99.7697 210.241C99.5351 211.121 99.525 212.047 99.7403 212.932C99.9556 213.818 100.39 214.636 101.003 215.312C102.045 216.558 105.744 214.896 105.883 214.81L105.97 214.74Z" fill="#FFC5B3"/>
<path d="M116.945 271.801C118.986 270.865 121.14 270.196 123.353 269.81C125.472 269.724 125.681 272.199 123.353 274.12C121.557 275.477 119.518 276.482 117.344 277.079C115.607 277.789 115.017 277.841 113.645 276.958C111.908 275.781 113.28 272.666 113.28 272.666L116.945 271.801Z" fill="#4D4D4D"/>
<path d="M104.508 264.497C106.265 263.778 108.11 263.295 109.996 263.061C112.115 262.957 112.879 264.791 110.551 266.712C108.869 268.097 106.943 269.159 104.872 269.845C103.136 270.537 102.545 270.589 101.173 269.706C99.2973 268.53 100.756 265.414 100.808 265.414L104.508 264.497Z" fill="#4D4D4D"/>
<path d="M117.166 222.442C117.166 222.442 120.9 242.57 120.9 248.886C120.9 260.032 120.796 271.766 120.796 271.766C119.832 272.801 118.548 273.484 117.149 273.704C113.085 273.704 112.668 271.679 112.668 271.679C112.668 271.679 112.668 258.405 112.268 252.365C112.2 247.295 111.464 242.257 110.08 237.378C110.08 242.396 110.08 244.006 109.628 249.492C109.333 253.507 107.649 264.307 107.544 265.068C106.259 266.626 102.334 267.681 100.25 265.414C100.406 263.684 101.535 251.171 101.379 244.646C101.257 238.693 99.6421 224.623 103.116 221.888C106.085 219.483 117.166 222.442 117.166 222.442Z" fill="url(#paint4_linear_1011_8532)"/>
<path d="M106.838 209.618C106.769 208.032 106.554 206.457 106.196 204.91L108.263 198.611C107.499 198.225 106.63 198.097 105.787 198.247C104.944 198.397 104.173 198.816 103.591 199.441C102.253 201.45 101.09 203.569 100.117 205.776C100.822 206.928 101.808 207.885 102.983 208.557C104.158 209.228 105.484 209.593 106.838 209.618V209.618Z" fill="#EB8E41"/>
<path d="M112.394 186.271C111.91 185.99 111.371 185.815 110.813 185.76C110.255 185.704 109.692 185.769 109.162 185.95C108.631 186.13 108.146 186.422 107.739 186.806C107.332 187.19 107.012 187.657 106.802 188.175C106.107 189.629 107.08 193.523 107.236 196.257C107.343 197.446 107.127 198.641 106.611 199.718L108.521 200.497C109.773 200.945 111.143 200.945 112.394 200.497V197.14C113.225 197.038 114.037 196.822 114.808 196.499C115.659 195.721 116.111 193.367 115.712 190.356C115.052 185.873 112.933 186.652 112.394 186.271Z" fill="#FFC5B3"/>
<path d="M117.514 210.414C118.626 208.025 116.09 203.699 115.378 202.141C114.668 201.02 113.623 200.149 112.391 199.649C111.014 199.141 109.611 198.708 108.188 198.351C107.701 198.351 106.069 198.178 106.069 198.178C106.069 198.178 102.439 203.872 102.04 207.004C101.744 209.185 102.96 216.367 102.04 223.428C101.571 227.167 115.725 226.111 116.976 224.588C116.264 221.04 115.204 215.277 117.514 210.414Z" fill="#EFA76B"/>
<path d="M102.198 211.954C102.333 214.459 102.263 216.971 101.99 219.465C101.538 222.286 101.312 226.717 101.312 226.717C103.818 228.556 106.889 229.467 109.996 229.295C112.855 228.931 115.565 227.813 117.846 226.059C117.846 226.059 116.301 218.133 116.387 217.163L116.492 216.194C115.586 216.634 114.56 216.762 113.574 216.558C112.637 216.248 111.806 215.684 111.174 214.928C110.542 214.173 110.134 213.257 109.996 212.283C109.745 209.606 109.745 206.912 109.996 204.235C109.77 204.235 104.004 202.505 104.004 202.505C103.002 205.565 102.395 208.741 102.198 211.954Z" fill="url(#paint5_linear_1011_8532)"/>
<path d="M114.23 191.567C114.456 190.805 114.977 189.057 115.099 188.348C115.228 187.78 115.211 187.189 115.05 186.629C114.89 186.07 114.59 185.56 114.178 185.146C113.234 184.544 112.164 184.166 111.05 184.04C109.936 183.914 108.808 184.044 107.752 184.419C106.386 184.963 105.278 186.003 104.652 187.33C104.026 188.657 103.93 190.172 104.383 191.567C105.234 195.478 106.12 195.911 107.231 196.759C108.101 197.3 109.079 197.643 110.097 197.763C110.774 197.211 111.205 196.414 111.295 195.547C111.331 194.919 111.331 194.289 111.295 193.661C111.295 193.661 110.253 191.619 111.07 190.892C111.886 190.165 112.806 191.342 112.997 191.844C113.692 193.661 114.404 194.492 114.23 191.567Z" fill="#4D4D4D"/>
<path d="M133.201 216.333C130.43 216.446 127.658 216.161 124.969 215.485C123.153 214.984 121.404 214.27 119.759 213.356C119.189 212.098 118.69 210.81 118.265 209.497L113.055 211.608C113.055 211.608 114.357 215.069 115.139 216.696C115.747 217.977 116.511 218.236 117.744 218.686C120.776 219.275 123.846 219.651 126.931 219.811C128.473 220.032 130.044 219.944 131.551 219.552C134.156 218.894 133.305 216.99 133.201 216.333Z" fill="#FFC5B3"/>
<path d="M113.084 213.148C114.259 213.44 115.493 213.397 116.644 213.023C117.796 212.65 118.819 211.962 119.597 211.037C118.59 206.503 116.992 201.588 114.803 200.861C113.622 200.463 111.521 204.53 111.886 207.42C111.973 208.233 112.476 210.5 113.084 213.148Z" fill="#EB8E41"/>
<path d="M101.588 222.736L101.414 224.726C103.931 226.449 106.943 227.306 109.994 227.167C115.812 227.305 117.722 225.315 117.722 225.315L117.375 223.273C115.061 224.546 112.463 225.218 109.82 225.228C106.893 225.2 104.036 224.335 101.588 222.736V222.736Z" fill="#FFBD7E"/>
<path d="M108.258 204.841C108.569 203.462 109.16 202.16 109.995 201.016C110.627 200.336 111.45 199.859 112.357 199.649C112.357 199.649 113.538 199.978 113.52 200.307C112.503 200.735 111.626 201.436 110.985 202.332C110.424 203.506 110.01 204.744 109.751 206.018L108.258 204.841Z" fill="url(#paint6_linear_1011_8532)"/>
<path d="M105.841 198.178C104.988 199.451 104.349 200.854 103.948 202.332C103.644 203.524 103.401 204.731 103.219 205.949L104.348 206.087C104.348 206.087 105.424 201.934 106.084 200.428C106.392 199.657 106.746 198.906 107.144 198.178H105.841Z" fill="url(#paint7_linear_1011_8532)"/>
<path d="M130.281 216.886C130.969 216.312 131.619 215.693 132.226 215.035C132.713 214.464 133.13 214.619 132.973 215.242C132.712 215.863 132.367 216.445 131.949 216.973L130.49 216.869L130.281 216.886Z" fill="#FFC5B3"/>
<path d="M112.34 185.267C115.189 185.561 116.317 187.431 114.859 189.421C113.892 190.503 112.686 191.345 111.335 191.88C109.984 192.415 108.526 192.628 107.078 192.501C104.23 192.207 103.101 190.338 104.56 188.348C105.524 187.263 106.731 186.42 108.082 185.885C109.433 185.35 110.892 185.138 112.34 185.267V185.267Z" fill="url(#paint8_linear_1011_8532)"/>
<path d="M104.02 190.615C104.02 190.615 102.283 184.852 107.494 183.121C111.193 181.875 113.954 183.329 115.448 187.102C116.316 189.404 104.02 190.615 104.02 190.615Z" fill="url(#paint9_linear_1011_8532)"/>
<path d="M113.469 190.823C114.063 190.273 114.52 189.592 114.803 188.835C115.086 188.077 115.189 187.265 115.101 186.461C114.897 185.978 114.659 185.51 114.389 185.06C114.389 185.06 114.91 184.783 117.012 185.233C119.113 185.683 119.513 187.552 117.88 188.884C116.603 189.9 115.083 190.568 113.469 190.823V190.823Z" fill="url(#paint10_linear_1011_8532)"/>
</g>
<defs>
<linearGradient id="paint0_linear_1011_8532" x1="172.712" y1="211.418" x2="198.086" y2="211.418" gradientUnits="userSpaceOnUse">
<stop stop-color="#FFAD60"/>
<stop offset="1" stop-color="#FF6279"/>
</linearGradient>
<linearGradient id="paint1_linear_1011_8532" x1="1624.72" y1="718.175" x2="1721.07" y2="718.175" gradientUnits="userSpaceOnUse">
<stop stop-color="#FFAD60"/>
<stop offset="1" stop-color="#FF6279"/>
</linearGradient>
<linearGradient id="paint2_linear_1011_8532" x1="1452.76" y1="849.218" x2="1523.9" y2="849.218" gradientUnits="userSpaceOnUse">
<stop stop-color="#FFAD60"/>
<stop offset="1" stop-color="#FF6279"/>
</linearGradient>
<linearGradient id="paint3_linear_1011_8532" x1="366.744" y1="230.015" x2="368.182" y2="230.015" gradientUnits="userSpaceOnUse">
<stop stop-color="#FFAD60"/>
<stop offset="1" stop-color="#FF6279"/>
</linearGradient>
<linearGradient id="paint4_linear_1011_8532" x1="1326.65" y1="6457.51" x2="2566" y2="7151.67" gradientUnits="userSpaceOnUse">
<stop stop-color="#FFAD60"/>
<stop offset="1" stop-color="#FF6279"/>
</linearGradient>
<linearGradient id="paint5_linear_1011_8532" x1="1190.73" y1="3249.87" x2="1923.86" y2="3896.76" gradientUnits="userSpaceOnUse">
<stop stop-color="#FFAD60"/>
<stop offset="1" stop-color="#FF6279"/>
</linearGradient>
<linearGradient id="paint6_linear_1011_8532" x1="484.214" y1="898.818" x2="657.243" y2="1103.47" gradientUnits="userSpaceOnUse">
<stop stop-color="#FFAD60"/>
<stop offset="1" stop-color="#FF6279"/>
</linearGradient>
<linearGradient id="paint7_linear_1011_8532" x1="375.382" y1="1078.07" x2="581.167" y2="1224.19" gradientUnits="userSpaceOnUse">
<stop stop-color="#FFAD60"/>
<stop offset="1" stop-color="#FF6279"/>
</linearGradient>
<linearGradient id="paint8_linear_1011_8532" x1="943.19" y1="982.644" x2="1020.28" y2="982.644" gradientUnits="userSpaceOnUse">
<stop stop-color="#FFAD60"/>
<stop offset="1" stop-color="#FF6279"/>
</linearGradient>
<linearGradient id="paint9_linear_1011_8532" x1="954.413" y1="1037.93" x2="1033.61" y2="1037.93" gradientUnits="userSpaceOnUse">
<stop stop-color="#FFAD60"/>
<stop offset="1" stop-color="#FF6279"/>
</linearGradient>
<linearGradient id="paint10_linear_1011_8532" x1="535.766" y1="819.829" x2="552.669" y2="819.829" gradientUnits="userSpaceOnUse">
<stop stop-color="#FFAD60"/>
<stop offset="1" stop-color="#FF6279"/>
</linearGradient>
<clipPath id="clip0_1011_8532">
<rect width="300" height="300" fill="white"/>
</clipPath>
</defs>
</svg>
